<?xml version="1.0" encoding="UTF-8"?>
<svg id="svg3" xmlns="http://www.w3.org/2000/svg" xmlns:xlink="http://www.w3.org/1999/xlink" viewBox="0 0 1398.49 3639.87">
  <defs>
    <style>
      .cls-1 {
        fill: #b07644;
      }

      .cls-1, .cls-2, .cls-3, .cls-4, .cls-5, .cls-6, .cls-7, .cls-8, .cls-9, .cls-10 {
        fill-rule: evenodd;
      }

      .cls-11 {
        stroke: #fab57c;
        stroke-miterlimit: 8;
        stroke-width: 1.52px;
      }

      .cls-11, .cls-12, .cls-13 {
        fill: none;
      }

      .cls-2 {
        fill: #fde2c8;
      }

      .cls-3 {
        fill: #dec1a5;
      }

      .cls-4 {
        fill: #fab57c;
      }

      .cls-5 {
        fill: #fff;
      }

      .cls-6 {
        fill: #bb875d;
      }

      .cls-14 {
        clip-path: url(#clippath-1);
      }

      .cls-7 {
        fill: #a86b3d;
      }

      .cls-15 {
        clip-path: url(#clippath-3);
      }

      .cls-8 {
        fill: #fbca9e;
      }

      .cls-13 {
        stroke: #333;
        stroke-linecap: round;
        stroke-linejoin: round;
        stroke-width: .68px;
      }

      .cls-16 {
        clip-path: url(#clippath-2);
      }

      .cls-17 {
        clip-path: url(#clippath);
      }

      .cls-9 {
        fill: #f98e44;
      }

      .cls-10 {
        fill: #fdeee0;
      }
    </style>
    <clipPath id="clippath">
      <rect class="cls-12" x="508.81" y="1364.21" width="122.34" height="155.61"/>
    </clipPath>
    <clipPath id="clippath-1">
      <rect class="cls-12" x="508.81" y="1364.21" width="122.34" height="155.61"/>
    </clipPath>
    <clipPath id="clippath-2">
      <rect class="cls-12" x="508.81" y="1364.21" width="122.34" height="155.61"/>
    </clipPath>
    <clipPath id="clippath-3">
      <rect class="cls-12" x="508.81" y="1364.21" width="122.34" height="155.61"/>
    </clipPath>
  </defs>
  <g id="_부신_왼쪽" data-name="부신 왼쪽">
    <g class="cls-17">
      <path id="path2" class="cls-4" d="M510.08,1430.99c1.33-9.16,8.89-11.26,15.96-23.05,7.05-12.05,26.93-14.39,31.64-23.82,4.98-9.68,28.78-21.48,40.54-19.12,16.75,4.71,13.08,19.91,19.37,27.76,7.32,9.68,8.36,40.33,4.44,55.77-.79,2.36.27,4.46.79,5.23,5.23,9.18,2.88,20.69,5.23,36.14,1.84,3.67,2.61,8.91,2.61,14.41v1.03l-50.2-56.54-70.37-17.81Z"/>
    </g>
    <path id="path3" class="cls-9" d="M630.66,1504.3c0-2.09-.25-3.94-.52-6.04-.25-.52-.79-1.3-.52-1.82v-1.06c-.27-2.09-.79-3.92-1.57-5.5-.79-4.98-1.03-9.68-1.3-13.87-1.03-4.99-.52-10.22-1.82-15.2-.27-.79-1.3-4.72-2.09-4.98-.27.79-.79,2.35-1.82,2.35-1.3,0-1.57-2.09-2.36-2.88l-1.3,3.42c.27,1.3-.27,3.13-.27,4.44.27,3.42.79,7.09,1.06,10.49.79,7.07,2.35,14.14,3.13,21.21l9.42,10.47c-.02-.26-.02-.52-.02-1.04Z"/>
    <path id="path4" class="cls-9" d="M616.76,1394.37c3.11,3.67,4.93,15.44,5.46,24.34.52,8.91,0,23.03-1.03,27.49s-1.82,10.47-1.56,12.57c.25,2.09-3.9,2.61-3.9,2.61l-7.03-4.44.77-32.47s2.35-1.03,2.61-7.07c.25-6.01-3.38-14.66-4.96-18.58-1.56-3.94-8.32-13.89-11.2-15.98,4.69,1.33,12.78.55,20.85,11.53Z"/>
    <g class="cls-14">
      <path id="path5" class="cls-2" d="M588.54,1382.88c-1.84.27-9.95,1.82-11.78,2.36-6.28,1.56-10.99,6.53-14.41,10.72-1.3,1.57-6.26,4.98-8.11,5.23-4.19.79-9.15,2.09-13.08,5.25-3.92.25-8.11,1.56-12.3,3.92-1.82,1.03-7.07,6.8-10.47,11.51-5.74,4.45-9.16,7.06-9.16,13.86,0,1.3,0,9.16,6.28,14.66,4.19,3.65,8.89,5.23,11.26,5.74l1.82.52c5.5,1.84,10.22,2.09,13.87,2.09,3.4,0,5.77.27,9.43,1.3,4.96,1.84,8.89,2.09,12.81,1.33,1.82-.79,3.15,0,4.46.52.77.25,2.35,1.03,3.4,1.56,2.61,1.33,2.88,3.15,3.13,4.19,1.3,3.15,3.67,7.34,8.11,10.47.27.79,2.36,5.5,4.46,8.63,1.82,2.88,5.5,3.15,8.11,7.07,3.15,3.92,4.46,10.47,4.98,11.78,2.09,4.71,6.28,8.63,10.47,11.26,6.28,4.17,13.87,2.35,15.96-1.57,1.3-2.09,2.86-7.59,2.86-9.95,0-3.65-1.56-7.32-2.86-9.93-.79-2.36-2.09-4.98-2.36-7.32-.27-1.33-.27-3.15-.52-4.72-.27-2.61-.52-5.23-1.06-7.57-1.3-6.04-3.4-9.95-5.74-13.87-1.06-1.84-1.57-5.5-1.84-7.86,1.3-3.13,1.84-5.23,1.84-8.37,0-6.53-1.84-12.54-3.67-16.73v-3.67c.27-2.61.27-5.23.27-7.59,0-6.53-.54-12.81-2.88-17.79-1.84-7.59-7.07-13.85-14.39-16.22-2.9-1.07-6.05-1.07-8.91-.8Z"/>
    </g>
    <path id="path6" class="cls-6" d="M522.55,1439.42c.54,3.92,6.55,3.4,10.47,4.71,5.5,5.25,12.57,0,23.03,3.67,10.45,3.4,4.71-3.67,18.04,2.09,6.55,2.61,10.2,4.19,11.78,7.59,1.84,3.42,1.84,8.4,6.28,10.49,2.36,1.03,4.71,8.11,7.07,11.78,1.82,3.15,5.23,3.94,7.07,7.07,1.56,3.15,1.3,6.82,2.61,9.7,2.61,6.01,6.28,10.2,7.84,9.95,2.61-.52-2.88-7.86-4.19-16.23-.77-3.94-.77-8.64-1.56-11.79-.79-3.92-2.09-6.28-4.19-9.68-2.61-4.72-2.36-11.53-2.88-14.68-.27-.79-.27-2.09,0-2.61,2.61-6.04,0-14.41-2.61-19.91,0-9.7,1.3-23.05-2.09-27.25-.52-7.34-7.34-10.49-11.78-7.61-.27.27-1.06.54-1.57.79-.52.27-1.03.27-1.3.27-8.89-1.57-14.91,7.59-19.61,12.84-7.59,1.57-15.18,3.67-18.06,9.16-7.59-2.88-18.06,5.5-18.85,9.16-3.13.55-6.28,6.56-5.49,10.5Z"/>
    <path id="path7" class="cls-1" d="M599.28,1404.33c-.54-7.34-7.34-10.49-11.79-7.61-.25.27-1.03.54-1.57.79-.52.27-1.03.27-1.3.27-8.89-1.57-14.91,7.59-19.64,12.84-7.59,1.57-15.18,3.67-18.06,9.16-7.59-2.88-18.08,5.5-18.85,9.16-3.15.54-6.3,6.55-5.51,10.49.54,3.92,6.55,3.4,10.49,4.71,5.5,5.25,12.57,0,23.03,3.67,9.16,3.13,5.77-2.09,14.14.52-1.3-3.4-8.64-.79-9.95-1.57-2.88-1.3-4.46-1.03-7.59-1.56-3.15-.54-1.84-.79-4.98-1.33-2.09,0-5.25.54-6.82-1.03h-1.3c-3.92-1.57-2.61-6.04-.25-8.64,3.13-3.4,6.8-1.3,10.47-3.4,1.57-.79,2.61-2.36,4.44-3.15,1.84-.79,3.67-.27,5.77-.79,4.19-.79,5.77-5.23,9.7-7.07,3.65-1.57,7.05,1.57,10.72-1.82,2.63-2.63,5.77-9.7,9.95-8.64,2.88.52,7.07,3.67,8.37,6.28,1.84,3.4,1.3,7.59,2.63,11.01.25-8.91.77-18.59-2.1-22.26ZM573.88,1449.62h0c-.27,0-.54,0-.54-.25,0,.25.27.25.54.25Z"/>
    <path id="path8" class="cls-1" d="M612.57,1490.22c-.79-3.92-.79-8.64-1.57-11.79-.52-2.35-1.03-4.19-2.09-6.28-.25.52.79,1.82.52,2.88-.25,1.3,2.09,8.64-3.13,6.55-1.3-.52-4.71-3.67-5.5-4.71-4.96-5.25-5.23-9.7-12.03-12.33.79,1.57,1.84,2.63,3.4,3.42,2.36,1.03,4.71,8.13,7.07,11.79,1.82,3.13,5.23,3.92,7.05,7.07,1.57,3.15,1.3,6.8,2.61,9.7,2.61,6.01,6.28,10.2,7.84,9.95,2.62-.52-2.85-7.86-4.16-16.25Z"/>
    <path id="path9" class="cls-7" d="M601.12,1412.45l.25.27c0-3.67-.77-6.55-2.09-8.4-.52-7.34-7.32-10.49-11.78-7.59-.27.25-1.06.52-1.57.77-.52.27-1.03.27-1.3.27-8.89-1.57-14.93,7.61-19.64,12.84-7.61,1.57-15.2,3.67-18.08,9.18-7.59-2.88-18.06,5.5-18.85,9.16-3.15.54-6.3,6.55-5.51,10.49.54,3.92,6.55,3.4,10.49,4.71,1.03,1.06,2.09,1.84,3.13,2.09-2.88-1.82-6.55-5.77-6.8-8.37-.52-3.67,4.19-8.37,7.32-9.7,3.15-1.57,7.34-2.35,10.74-2.61,2.36-.79,2.63-1.57,3.15-2.09,2.88-3.67,8.64-6.55,14.93-7.86,3.15-.54,2.88-1.33,4.71-3.94,2.09-2.36,4.98-4.46,7.61-6.28,2.35-1.57,5.23-2.88,8.11-3.15,3.15-.27,4.46.27,6.55,1.82,1.57,1.33,2.88,1.33,4.71,2.11,1.06.77,1.84,1.82,2.63,2.61.52,1.05.79,3.14,1.3,3.67Z"/>
    <path id="path10" class="cls-7" d="M615.71,1499.87c-.52-.79-.77-1.84-1.29-2.9,0-.25-.27-.25-.27-.52-.52-1.33-1.56-4.23-1.56-5.55-.25,1.06.27,4.77-1.29,5.28-1.56.54-3.36-3.42-3.36-4.74h-.27c.52,1.84.79,3.69,1.3,5.01,2.59,6.07,6.2,10.28,7.76,10.03.77-.27.77-1.33.27-2.9-.27-.81-.79-1.6-1.03-2.38,0-.52-.26-.79-.26-1.33Z"/>
    <path id="path11" class="cls-9" d="M599.82,1366.65c3.38,1.82,6.25,3.94,8.61,7.34,2.08,2.88,2.86,7.34,3.63,11.01-1.82-3.92-2.86-7.59-6.76-10.22-.52-.27-4.96-.79-5.74-.79-2.08.52-2.35,1.3-4.42-.27.25.27,1.03-1.03,1.56-1.3,1.82-.52,3.9-2.09,3.65-2.88-.79-1.57-5.99-3.67-7.57-3.67,1.57-.55,5.47,0,7.05.78Z"/>
    <path id="path12" class="cls-9" d="M541.44,1405.28c4.46-3.65,8.37-4.42,11.26-4.69,2.86-.52,3.92-1.56,6.01-2.86,2.35-1.3,3.65-3.4,5.74-5.47,2.09-2.09,3.92-4.96,8.88-6.8-6.26,2.09-9.15,4.71-11.24,7.05-2.08,2.35-3.65,4.17-6.53,5.47-2.62,1.58-9.42,2.62-14.13,7.3Z"/>
    <path id="path13" class="cls-10" d="M575.63,1371.09c-4.69,1.84-12.78,7.34-15.66,11.26-2.61,3.94-4.71,8.11-4.71,8.11,2.88-3.4,6.01-6.53,6.8-7.84.79-1.57,3.13-3.67,4.96-4.19.27-1.83,7.32-7.07,8.61-7.34Z"/>
    <g class="cls-16">
      <path id="path14" class="cls-13" d="M630.66,1505.34c0-6.01-.77-11.51-2.61-15.44-2.35-15.44,0-26.95-5.23-36.14-.52-.77-1.57-2.86-.79-5.23,3.92-15.44,2.88-46.09-4.44-55.77-6.28-7.86-2.61-23.05-19.37-27.76-11.76-2.36-35.56,9.43-40.54,19.12-4.71,9.43-24.59,11.78-31.65,23.82-7.07,11.79-14.64,13.89-15.96,23.05"/>
    </g>
    <path id="path15" class="cls-13" d="M522.55,1439.42c.54,3.92,6.55,3.4,10.47,4.71,5.5,5.25,12.57,0,23.03,3.67,10.45,3.4,4.71-3.67,18.04,2.09,6.55,2.61,10.2,4.19,11.78,7.59,1.84,3.42,1.84,8.4,6.28,10.49,2.36,1.03,4.71,8.11,7.07,11.78,1.82,3.15,5.23,3.94,7.07,7.07,1.56,3.15,1.3,6.82,2.61,9.7,2.61,6.01,6.28,10.2,7.84,9.95,2.61-.52-2.88-7.86-4.19-16.23-.77-3.94-.77-8.64-1.56-11.79-.79-3.92-2.09-6.28-4.19-9.68-2.61-4.72-2.36-11.53-2.88-14.68-.27-.79-.27-2.09,0-2.61,2.61-6.04,0-14.41-2.61-19.91,0-9.7,1.3-23.05-2.09-27.25-.52-7.34-7.34-10.49-11.78-7.61-.27.27-1.06.54-1.57.79-.52.27-1.03.27-1.3.27-8.89-1.57-14.91,7.59-19.61,12.84-7.59,1.57-15.18,3.67-18.06,9.16-7.59-2.88-18.06,5.5-18.85,9.16-3.13.55-6.28,6.56-5.49,10.5"/>
    <g class="cls-15">
      <path id="path16" class="cls-13" d="M588.54,1382.88c-1.84.27-9.95,1.82-11.78,2.36-6.28,1.56-10.99,6.53-14.41,10.72-1.3,1.57-6.26,4.98-8.11,5.23-4.19.79-9.15,2.09-13.08,5.25-3.92.25-8.11,1.56-12.3,3.92-1.82,1.03-7.07,6.8-10.47,11.51-5.74,4.45-9.16,7.06-9.16,13.86,0,1.3,0,9.16,6.28,14.66,4.19,3.65,8.89,5.23,11.26,5.74l1.82.52c5.5,1.84,10.22,2.09,13.87,2.09,3.4,0,5.77.27,9.43,1.3,4.96,1.84,8.89,2.09,12.81,1.33,1.82-.79,3.15,0,4.46.52.77.25,2.35,1.03,3.4,1.56,2.61,1.33,2.88,3.15,3.13,4.19,1.3,3.15,3.67,7.34,8.11,10.47.27.79,2.36,5.5,4.46,8.63,1.82,2.88,5.5,3.15,8.11,7.07,3.15,3.92,4.46,10.47,4.98,11.78,2.09,4.71,6.28,8.63,10.47,11.26,6.28,4.17,13.87,2.35,15.96-1.57,1.3-2.09,2.86-7.59,2.86-9.95,0-3.65-1.56-7.32-2.86-9.93-.79-2.36-2.09-4.98-2.36-7.32-.27-1.33-.27-3.15-.52-4.72-.27-2.61-.52-5.23-1.06-7.57-1.3-6.04-3.4-9.95-5.74-13.87-1.06-1.84-1.57-5.5-1.84-7.86,1.3-3.13,1.84-5.23,1.84-8.37,0-6.53-1.84-12.54-3.67-16.73v-3.67c.27-2.61.27-5.23.27-7.59,0-6.53-.54-12.81-2.88-17.79-1.84-7.59-7.07-13.85-14.39-16.22-2.9-1.07-6.05-1.07-8.91-.8"/>
    </g>
    <path id="path17" class="cls-13" d="M552.65,1392.3c1.56-2.09,4.15-6.84,4.15-6.84"/>
    <path id="path18" class="cls-13" d="M621.74,1449.62c-.54,2.36-1.08,5.51-.81,7.07"/>
    <path id="path19" class="cls-13" d="M609.75,1383.69c.79,2.86,4.92,4.93,7.76,9.07"/>
    <path id="path20" class="cls-13" d="M580.17,1373.97c4.72-1.57,12.57-1.03,16.22,2.88"/>
    <path id="path21" class="cls-13" d="M592.77,1374.47c1.56-1.82,3.36-3.13,5.69-3.92"/>
    <path id="path22" class="cls-13" d="M614.36,1428.95c.81,2.08,3.98,1.81,4.23,3.62"/>
    <path id="path23" class="cls-11" d="M581.74,1375.35c0-1.08,0-3.19,1.6-3.19,1.82.27.79,2.65,1.03,3.98,2.9.52,5.26-4.51,5.51-7.16"/>
    <path id="path24" class="cls-10" d="M581.93,1374.81c4.21-1.35,9.18-.27,11.53,1.57-2.1-.79-10.2-1.57-11.53-1.57Z"/>
    <path id="path25" class="cls-11" d="M598.27,1371.13c-.54-.25-1.08-.5-1.61-1"/>
    <path id="path26" class="cls-11" d="M611.02,1383.96c-.73,0-1.21.54-1.46,1.08"/>
    <path id="path27" class="cls-11" d="M552.46,1391.49c.79.61,1.3.61,2.08.31"/>
    <path id="path28" class="cls-11" d="M617.55,1432.61c.27-.81.54-1.35,1.08-2.15"/>
    <path id="path29" class="cls-11" d="M620.01,1455.35c.52.58,1.27.85,1.76.58"/>
    <path id="path30" class="cls-11" d="M596.65,1376.05c-.52,0-1.03.29-1.3.85"/>
    <path id="path31" class="cls-10" d="M527.3,1407.97c2.11-3.15,4.72-5.77,7.88-7.61,3.15-1.57,9.16-5.26,11.79-6.57,2.61-1.06,3.92-2.11,3.92-2.11-1.56,2.11-7.34,5.53-10.47,7.36-3.42,1.6-6.55,3.42-8.67,4.99-2.09,1.84-4.45,3.94-4.45,3.94Z"/>
    <path id="path32" class="cls-5" d="M559.72,1382.85c1.06-1.3,1.84-2.88,3.42-3.65.79-.79,2.09-1.33,2.88-2.11l-6.3,5.77Z"/>
    <path id="path33" class="cls-5" d="M601.6,1405.28c2.09,3.15,2.61,11.01,1.57,15.74-.79,4.71.25,8.89,0,10.22-.52,1.3,3.36,6.55,3.36,11.26,0,4.46.52,6.55-.77,9.16-1.03,2.63.25,9.18,1.03,12.32.52,2.88,2.59,3.94,4.4,7.86-.52-4.19-1.29-2.61-2.33-8.11-1.3-5.51-1.3-9.18-.52-12.85,1.03-3.65.52-8.64,0-12.05-.79-3.15-4.42-4.19-3.63-10.74.52-6.56,1.04-17.57-3.13-22.81Z"/>
    <path id="path34" class="cls-5" d="M563.91,1406.36c2.35-2.09,7.55-7.32,11.72-8.37-2.35,1.33-7.28,6.04-10.16,9.16-.52.79-2.35,2.09-3.13,2.09-4.93.52-12.51,3.92-14.6,7.57.53-4.44,10.43-9.42,16.17-10.45Z"/>
    <path id="path35" class="cls-3" d="M574.4,1448.32c6.3,2.11,11.01,4.72,12.58,8.13s1.57,6.55,3.15,7.86c1.57,1.3,4.71,3.92,4.71,3.92-2.09-2.86-3.92-4.71-4.71-8.11-.79-3.4-3.15-6.55-5.77-8.13-2.62-1.56-9.96-3.67-9.96-3.67Z"/>
    <path id="path36" class="cls-8" d="M625.2,1494.43c2.61,5.23,4.69,8.89,3.4,13.6-1.3,4.96-1.84,7.84-6.01,8.88-4.19,1.03-5.74.52-9.93-2.09-4.17-2.86-6.78-4.96-8.36-9.15-1.82-4.17-2.86-8.36-5.23-11.24,4.19,4.19,5.5,8.37,8.36,12.03,2.88,3.92,8.36,7.57,11.51,7.84,3.13.27,4.17-1.82,6.52-4.96,2.36-3.15.26-11.24-.26-14.91Z"/>
    <path id="path37" class="cls-8" d="M512.62,1442.55c.79,5.51,7.34,9.7,12.32,11.28,4.96,1.57,6.53,1.82,11.24,2.61,4.71.79,8.62.27,12.81,1.06,4.19.77,7.07,2.88,11.53,2.61,4.44-.27,5.47-1.57,10.97,1.03-5.74-3.4-9.66-3.92-12.3-3.92s-6.53-1.57-10.99-2.36c-4.44-.79-8.62-.25-13.33-.79-4.71-.52-8.89-1.3-12.3-2.88-3.4-1.55-8.63-5.76-9.96-8.64Z"/>
    <path id="path38" class="cls-8" d="M610.75,1403.21c2.14,4.23,2.92,14.5,1.87,20.28l-1.87-20.28Z"/>
    <path id="path39" class="cls-8" d="M521.22,1420.58c3.42-5.25,8.4-10.22,12.85-11.53,4.44-1.3,5.77-.79,8.11-1.57,2.36-.79,4.21-3.15,8.13-4.19,3.94-1.06,6.28-1.57,9.16-3.69,2.88-2.09,3.94-2.09,5.51-4.98,1.57-2.88,6.01-6.55,8.11-7.09-2.88,2.63-4.98,4.72-6.53,8.15-1.57,3.4-6.55,6.28-10.22,7.86s-7.61,1.57-9.95,3.42c-2.36,1.82-4.46,3.13-7.61,3.4s-10.47,2.63-17.55,10.23Z"/>
    <path id="path40" class="cls-5" d="M556.57,1451.24c6.04,1.29,8.91.52,13.11,1.03s8.89,1.81,13.87,5.19c-.77-1.56-5.5-4.42-11.26-6.49-5.77-2.08-5.77-1.56-8.64-1.03-2.88.52-5.25.25-8.64-.79-3.4-1.03-7.07-1.82-13.11-1.29,3.67,0,9.97,2.08,14.68,3.38Z"/>
    <path id="path41" class="cls-3" d="M604.22,1444.4c.27,2.88,0,3.4-1.03,6.28-1.02,2.61-.25,4.71.27,8.09.25,3.67,1.29,7.07,1.54,7.84-1.02-1.82-2.57-8.88-3.09-11.49-.52-2.88,0-2.61,1.03-5.23,1.03-2.35,1.28-3.4,1.28-5.5Z"/>
  </g>
</svg>