<?xml version="1.0" encoding="UTF-8"?>
<svg id="svg3" xmlns="http://www.w3.org/2000/svg" xmlns:xlink="http://www.w3.org/1999/xlink" viewBox="0 0 1398.49 3639.87">
  <defs>
    <style>
      .cls-1 {
        fill: #b07644;
      }

      .cls-1, .cls-2, .cls-3, .cls-4, .cls-5, .cls-6, .cls-7, .cls-8, .cls-9, .cls-10 {
        fill-rule: evenodd;
      }

      .cls-11 {
        stroke: #fab57c;
        stroke-miterlimit: 8;
        stroke-width: 1.52px;
      }

      .cls-11, .cls-12, .cls-13 {
        fill: none;
      }

      .cls-2 {
        fill: #fde2c8;
      }

      .cls-3 {
        fill: #dec1a5;
      }

      .cls-4 {
        fill: #fab57c;
      }

      .cls-5 {
        fill: #fff;
      }

      .cls-6 {
        fill: #bb875d;
      }

      .cls-14 {
        clip-path: url(#clippath-1);
      }

      .cls-7 {
        fill: #a86b3d;
      }

      .cls-15 {
        clip-path: url(#clippath-3);
      }

      .cls-8 {
        fill: #fbca9e;
      }

      .cls-13 {
        stroke: #333;
        stroke-linecap: round;
        stroke-linejoin: round;
        stroke-width: .68px;
      }

      .cls-16 {
        clip-path: url(#clippath-2);
      }

      .cls-17 {
        clip-path: url(#clippath);
      }

      .cls-9 {
        fill: #f98e44;
      }

      .cls-10 {
        fill: #fdeee0;
      }
    </style>
    <clipPath id="clippath">
      <rect class="cls-12" x="784.87" y="1311.64" width="113.41" height="144.26"/>
    </clipPath>
    <clipPath id="clippath-1">
      <rect class="cls-12" x="784.87" y="1311.64" width="113.41" height="144.26"/>
    </clipPath>
    <clipPath id="clippath-2">
      <rect class="cls-12" x="784.87" y="1311.64" width="113.41" height="144.26"/>
    </clipPath>
    <clipPath id="clippath-3">
      <rect class="cls-12" x="784.87" y="1311.64" width="113.41" height="144.26"/>
    </clipPath>
  </defs>
  <g id="_부신_오른쪽" data-name="부신 오른쪽">
    <g class="cls-17">
      <path id="path2" class="cls-4" d="M831.87,1390.06l-46.53,52.41v-.96c0-5.09.71-9.96,2.42-13.36,2.17-14.32,0-24.99,4.84-33.5.48-.71,1.46-2.65.73-4.84-3.63-14.32-2.67-42.73,4.11-51.7,5.82-7.28,2.42-21.37,17.95-25.74,10.9-2.19,32.97,8.75,37.58,17.72,4.36,8.75,22.8,10.92,29.33,22.09,6.55,10.94,13.57,12.88,14.8,21.37l-65.23,16.51Z"/>
    </g>
    <path id="path3" class="cls-9" d="M785.34,1442.47l8.73-9.71c.73-6.55,2.17-13.11,2.9-19.66.25-3.15.73-6.55.98-9.72,0-1.21-.5-2.9-.25-4.11l-1.21-3.17c-.73.73-.98,2.67-2.19,2.67-.96,0-1.44-1.44-1.69-2.17-.73.23-1.69,3.88-1.94,4.61-1.21,4.61-.73,9.46-1.69,14.09-.25,3.88-.48,8.25-1.21,12.86-.73,1.46-1.21,3.15-1.46,5.09v.98c.25.48-.25,1.21-.48,1.69-.25,1.94-.48,3.65-.48,5.59-.01.48-.01.73-.01.96Z"/>
    <path id="path4" class="cls-9" d="M817.54,1328.92c-2.67,1.94-8.94,11.17-10.38,14.82-1.46,3.63-4.83,11.65-4.6,17.22.25,5.59,2.42,6.55,2.42,6.55l.71,30.1-6.52,4.11s-3.85-.48-3.62-2.42c.25-1.94-.48-7.52-1.44-11.65s-1.44-17.22-.96-25.49c.48-8.25,2.17-19.16,5.06-22.57,7.48-10.17,14.98-9.44,19.33-10.67Z"/>
    <g class="cls-14">
      <path id="path5" class="cls-2" d="M816.13,1329.68c-6.79,2.19-11.63,8-13.34,15.03-2.17,4.61-2.67,10.44-2.67,16.49,0,2.19,0,4.61.25,7.04v3.4c-1.69,3.88-3.4,9.46-3.4,15.51,0,2.92.5,4.86,1.71,7.77-.25,2.19-.73,5.57-1.71,7.28-2.17,3.63-4.11,7.27-5.33,12.86-.5,2.17-.73,4.6-.98,7.02-.23,1.46-.23,3.15-.48,4.38-.25,2.17-1.46,4.6-2.19,6.79-1.21,2.42-2.65,5.82-2.65,9.21,0,2.19,1.44,7.28,2.65,9.23,1.94,3.63,8.98,5.33,14.8,1.46,3.88-2.44,7.77-6.07,9.71-10.44.48-1.21,1.69-7.28,4.61-10.92,2.42-3.63,5.82-3.88,7.52-6.55,1.94-2.9,3.88-7.27,4.13-8,4.11-2.9,6.3-6.79,7.52-9.71.23-.96.48-2.65,2.9-3.88.98-.48,2.44-1.21,3.15-1.44,1.21-.48,2.44-1.21,4.13-.48,3.63.71,7.28.48,11.88-1.23,3.4-.96,5.59-1.21,8.74-1.21,3.38,0,7.77-.23,12.86-1.94l1.69-.48c2.19-.48,6.55-1.94,10.44-5.33,5.82-5.09,5.82-12.38,5.82-13.59,0-6.3-3.17-8.73-8.5-12.86-3.15-4.36-8.01-9.71-9.71-10.67-3.88-2.19-7.77-3.4-11.4-3.63-3.65-2.92-8.25-4.13-12.13-4.86-1.71-.23-6.3-3.38-7.52-4.84-3.17-3.88-7.53-8.5-13.36-9.94-1.69-.5-9.21-1.94-10.92-2.19-2.63-.26-5.55-.26-8.22.72Z"/>
    </g>
    <path id="path6" class="cls-6" d="M880.46,1371.64c-.73-3.4-10.44-11.17-17.47-8.5-2.67-5.09-9.71-7.04-16.74-8.5-4.36-4.86-9.94-13.36-18.18-11.9-.25,0-.73,0-1.21-.25-.48-.23-1.21-.48-1.46-.73-4.11-2.67-10.44.25-10.92,7.05-3.15,3.88-1.94,16.26-1.94,25.26-2.42,5.09-4.84,12.86-2.42,18.45.25.48.25,1.69,0,2.42-.48,2.92-.25,9.23-2.67,13.61-1.94,3.15-3.15,5.34-3.88,8.98-.73,2.92-.73,7.28-1.44,10.94-1.21,7.77-6.3,14.57-3.88,15.05,1.44.23,4.84-3.65,7.27-9.23,1.21-2.67.98-6.07,2.42-8.99,1.71-2.9,4.86-3.63,6.55-6.55,2.19-3.4,4.36-9.96,6.55-10.92,4.11-1.94,4.11-6.55,5.82-9.72,1.46-3.15,4.84-4.61,10.92-7.04,12.36-5.34,7.04,1.21,16.72-1.94,9.7-3.4,16.26,1.46,21.35-3.4,3.63-1.21,9.21-.73,9.71-4.36.72-3.65-2.2-9.23-5.1-9.73Z"/>
    <path id="path7" class="cls-1" d="M812.48,1369.47c1.23-3.17.73-7.05,2.44-10.21,1.21-2.42,5.09-5.34,7.77-5.82,3.88-.98,6.79,5.57,9.23,8.01,3.4,3.15,6.55.23,9.94,1.69,3.65,1.71,5.11,5.82,8.99,6.55,1.94.48,3.63,0,5.34.73,1.69.73,2.65,2.19,4.11,2.92,3.4,1.94,6.8,0,9.71,3.15,2.19,2.42,3.4,6.55-.23,8.01h-1.21c-1.46,1.46-4.38.96-6.32.96-2.9.5-1.69.73-4.61,1.23-2.9.48-4.36.23-7.04,1.44-1.21.73-8.01-1.69-9.23,1.46,7.77-2.42,4.61,2.42,13.11-.48,9.71-3.4,16.26,1.46,21.35-3.4,3.65-1.21,9.23-.73,9.72-4.36.73-3.65-2.19-9.23-5.11-9.72-.71-3.4-10.44-11.17-17.47-8.5-2.67-5.09-9.71-7.04-16.74-8.5-4.38-4.86-9.96-13.36-18.2-11.9-.25,0-.73,0-1.21-.25-.5-.23-1.23-.48-1.46-.73-4.13-2.67-10.44.25-10.94,7.05-2.65,3.43-2.17,12.4-1.94,20.67ZM838.46,1390.59c0,.23-.25.23-.5.23h0c.25,0,.5,0,.5-.23Z"/>
    <path id="path8" class="cls-1" d="M798.23,1443.52c1.44.23,4.84-3.65,7.27-9.23,1.21-2.69.96-6.07,2.42-8.99,1.69-2.92,4.84-3.65,6.54-6.55,2.19-3.4,4.36-9.97,6.55-10.94,1.44-.73,2.42-1.71,3.15-3.17-6.3,2.44-6.55,6.57-11.15,11.43-.73.96-3.88,3.88-5.09,4.36-4.84,1.94-2.67-4.86-2.9-6.07-.25-.98.71-2.19.48-2.67-.98,1.94-1.46,3.65-1.94,5.82-.73,2.92-.73,7.3-1.46,10.94-1.21,7.79-6.29,14.59-3.87,15.07Z"/>
    <path id="path9" class="cls-7" d="M813.92,1352.96c.73-.73,1.46-1.71,2.44-2.42,1.69-.73,2.9-.73,4.36-1.96,1.94-1.44,3.15-1.94,6.07-1.69,2.67.25,5.34,1.46,7.52,2.92,2.44,1.69,5.11,3.63,7.05,5.82,1.69,2.42,1.44,3.15,4.36,3.65,5.82,1.21,11.17,3.88,13.84,7.28.48.48.73,1.21,2.92,1.94,3.15.25,7.04.96,9.96,2.42,2.9,1.23,7.27,5.59,6.79,8.99-.23,2.42-3.63,6.07-6.3,7.77.96-.23,1.94-.96,2.9-1.94,3.65-1.21,9.23-.73,9.72-4.36.73-3.65-2.19-9.23-5.11-9.72-.73-3.4-10.44-11.17-17.47-8.5-2.67-5.11-9.71-7.05-16.76-8.51-4.36-4.84-9.96-13.36-18.2-11.9-.25,0-.73,0-1.21-.25-.48-.23-1.21-.48-1.46-.71-4.13-2.69-10.44.23-10.92,7.04-1.23,1.71-1.94,4.38-1.94,7.78l.23-.25c.48-.48.73-2.42,1.21-3.4Z"/>
    <path id="path10" class="cls-7" d="M798.94,1438.62c-.23.73-.71,1.46-.96,2.21-.46,1.46-.46,2.44.25,2.69,1.44.23,4.79-3.67,7.2-9.3.48-1.23.73-2.94,1.21-4.65h-.25c0,1.23-1.67,4.9-3.12,4.4-1.44-.48-.96-3.92-1.19-4.9,0,1.23-.96,3.92-1.44,5.15,0,.25-.25.25-.25.48-.48.98-.71,1.96-1.19,2.69-.01.51-.26.76-.26,1.23Z"/>
    <path id="path11" class="cls-9" d="M820.46,1313.17c-1.46,0-6.29,1.94-7.02,3.4-.23.73,1.69,2.19,3.38,2.67.48.25,1.21,1.46,1.44,1.21-1.92,1.46-2.17.73-4.1.25-.73,0-4.84.48-5.33.73-3.62,2.44-4.58,5.84-6.27,9.48.71-3.4,1.44-7.53,3.37-10.21,2.19-3.15,4.84-5.11,7.98-6.8,1.47-.73,5.09-1.22,6.55-.73Z"/>
    <path id="path12" class="cls-9" d="M854.95,1342.95c-2.67-1.21-4.13-2.9-6.06-5.08-1.94-2.17-4.61-4.6-10.42-6.54,4.6,1.71,6.29,4.36,8.23,6.3,1.94,1.92,3.15,3.86,5.33,5.08,1.94,1.21,2.92,2.17,5.57,2.65,2.67.25,6.3.96,10.44,4.35-4.36-4.33-10.66-5.3-13.09-6.76Z"/>
    <path id="path13" class="cls-10" d="M844.32,1324.82c1.69.48,3.86,2.42,4.6,3.88.73,1.21,3.63,4.11,6.3,7.27,0,0-1.94-3.86-4.36-7.52-2.67-3.63-10.17-8.72-14.52-10.43,1.19.25,7.73,5.11,7.98,6.8Z"/>
    <g class="cls-16">
      <path id="path14" class="cls-13" d="M897.11,1373.55c-1.23-8.5-8.25-10.44-14.8-21.37-6.54-11.17-24.97-13.34-29.33-22.09-4.61-8.98-26.68-19.91-37.58-17.72-15.53,4.37-12.13,18.45-17.95,25.74-6.79,8.98-7.75,37.38-4.11,51.7.73,2.19-.25,4.13-.73,4.84-4.84,8.51-2.67,19.18-4.84,33.5-1.71,3.65-2.42,8.74-2.42,14.32"/>
    </g>
    <path id="path15" class="cls-13" d="M885.55,1381.37c.73-3.65-2.19-9.23-5.09-9.72-.73-3.4-10.44-11.17-17.47-8.5-2.67-5.09-9.71-7.04-16.74-8.5-4.36-4.86-9.94-13.36-18.18-11.9-.25,0-.73,0-1.21-.25-.48-.23-1.21-.48-1.46-.73-4.11-2.67-10.44.25-10.92,7.05-3.15,3.88-1.94,16.26-1.94,25.26-2.42,5.09-4.84,12.86-2.42,18.45.25.48.25,1.69,0,2.42-.48,2.92-.25,9.23-2.67,13.61-1.94,3.15-3.15,5.34-3.88,8.98-.73,2.92-.73,7.28-1.44,10.94-1.21,7.77-6.3,14.57-3.88,15.05,1.44.23,4.84-3.65,7.27-9.23,1.21-2.67.98-6.07,2.42-8.99,1.71-2.9,4.86-3.63,6.55-6.55,2.19-3.4,4.36-9.96,6.55-10.92,4.11-1.94,4.11-6.55,5.82-9.72,1.46-3.15,4.84-4.61,10.92-7.04,12.36-5.34,7.04,1.21,16.72-1.94,9.7-3.41,16.26,1.45,21.35-3.41,3.63-1.21,9.2-.73,9.7-4.36"/>
    <g class="cls-15">
      <path id="path16" class="cls-13" d="M824.38,1328.95c-2.65-.25-5.57-.25-8.25.73-6.79,2.19-11.63,8-13.34,15.03-2.17,4.61-2.67,10.44-2.67,16.49,0,2.19,0,4.61.25,7.04v3.4c-1.69,3.88-3.4,9.46-3.4,15.51,0,2.92.5,4.86,1.71,7.77-.25,2.19-.73,5.57-1.71,7.28-2.17,3.63-4.11,7.27-5.33,12.86-.5,2.17-.73,4.6-.98,7.02-.23,1.46-.23,3.15-.48,4.38-.25,2.17-1.46,4.6-2.19,6.79-1.21,2.42-2.65,5.82-2.65,9.21,0,2.19,1.44,7.28,2.65,9.23,1.94,3.63,8.98,5.33,14.8,1.46,3.88-2.44,7.77-6.07,9.71-10.44.48-1.21,1.69-7.28,4.61-10.92,2.42-3.63,5.82-3.88,7.52-6.55,1.94-2.9,3.88-7.27,4.13-8,4.11-2.9,6.3-6.79,7.52-9.71.23-.96.48-2.65,2.9-3.88.98-.48,2.44-1.21,3.15-1.44,1.21-.48,2.44-1.21,4.13-.48,3.63.71,7.28.48,11.88-1.23,3.4-.96,5.59-1.21,8.74-1.21,3.38,0,7.77-.23,12.86-1.94l1.69-.48c2.19-.48,6.55-1.94,10.44-5.33,5.82-5.09,5.82-12.38,5.82-13.59,0-6.3-3.17-8.73-8.5-12.86-3.15-4.36-8.01-9.71-9.71-10.67-3.88-2.19-7.77-3.4-11.4-3.63-3.65-2.92-8.25-4.13-12.13-4.86-1.71-.23-6.3-3.38-7.52-4.84-3.17-3.88-7.53-8.5-13.36-9.94-1.67-.5-9.18-1.95-10.89-2.2"/>
    </g>
    <path id="path17" class="cls-13" d="M853.8,1331.34s2.4,4.4,3.85,6.34"/>
    <path id="path18" class="cls-13" d="M794.35,1397.38c.25-1.44-.25-4.36-.75-6.55"/>
    <path id="path19" class="cls-13" d="M797.52,1338.11c2.64-3.83,6.47-5.75,7.2-8.41"/>
    <path id="path20" class="cls-13" d="M817.11,1323.36c3.38-3.63,10.65-4.13,15.03-2.67"/>
    <path id="path21" class="cls-13" d="M815.19,1317.52c2.16.73,3.83,1.94,5.27,3.63"/>
    <path id="path22" class="cls-13" d="M796.52,1375.01c.23-1.67,3.17-1.42,3.92-3.35"/>
    <path id="path23" class="cls-11" d="M823.13,1316.06c.23,2.46,2.42,7.12,5.11,6.64.23-1.23-.73-3.44.96-3.69,1.48,0,1.48,1.96,1.48,2.96"/>
    <path id="path24" class="cls-10" d="M819.82,1322.93c2.17-1.71,6.79-2.71,10.69-1.46-1.24,0-8.75.73-10.69,1.46Z"/>
    <path id="path25" class="cls-11" d="M816.86,1317.13c-.5.46-1,.69-1.5.93"/>
    <path id="path26" class="cls-11" d="M804.89,1330.95c-.23-.5-.68-1-1.35-1"/>
    <path id="path27" class="cls-11" d="M855.9,1337.22c.71.28,1.19.28,1.92-.28"/>
    <path id="path28" class="cls-11" d="M796.49,1373.05c.5.75.75,1.25,1,1.99"/>
    <path id="path29" class="cls-11" d="M793.57,1396.67c.46.25,1.16,0,1.64-.53"/>
    <path id="path30" class="cls-11" d="M818.07,1323.4c-.25-.52-.73-.78-1.21-.78"/>
    <path id="path31" class="cls-10" d="M877.02,1348.56c-1.96-1.46-4.86-3.15-8.03-4.63-2.9-1.69-8.26-4.86-9.71-6.82,0,0,1.21.98,3.63,1.96,2.44,1.21,8.01,4.63,10.94,6.09,2.92,1.71,5.34,4.13,7.3,7.05,0,0-2.19-1.94-4.13-3.65Z"/>
    <path id="path32" class="cls-5" d="M845.25,1323.58c.73.73,1.94,1.23,2.67,1.96,1.46.71,2.19,2.17,3.17,3.38l-5.84-5.34Z"/>
    <path id="path33" class="cls-5" d="M809.36,1370.86c.73,6.07-2.64,7.04-3.37,9.96-.48,3.15-.96,7.78,0,11.17.73,3.4.73,6.8-.48,11.92-.96,5.09-1.67,3.63-2.16,7.52,1.67-3.63,3.6-4.61,4.08-7.28.73-2.9,1.92-8.98.96-11.42-1.19-2.42-.71-4.36-.71-8.5,0-4.36,3.6-9.23,3.12-10.44-.23-1.23.73-5.11,0-9.48-.96-4.38-.48-11.67,1.46-14.59-3.86,4.86-3.38,15.06-2.9,21.14Z"/>
    <path id="path34" class="cls-5" d="M862.2,1360.4c-1.94-3.38-8.96-6.54-13.54-7.02-.73,0-2.42-1.21-2.9-1.94-2.67-2.9-7.25-7.27-9.42-8.5,3.86.98,8.69,5.82,10.86,7.77,5.33.97,14.5,5.58,15,9.69Z"/>
    <path id="path35" class="cls-3" d="M828.24,1393.01c-2.42,1.46-4.61,4.38-5.34,7.53s-2.42,4.86-4.36,7.52c0,0,2.9-2.42,4.36-3.63s1.46-4.13,2.92-7.28,5.82-5.57,11.67-7.53c0-.01-6.81,1.95-9.25,3.39Z"/>
    <path id="path36" class="cls-8" d="M790.16,1446.17c2.17,2.9,3.13,4.84,6.04,4.6,2.92-.25,8-3.63,10.67-7.27,2.65-3.38,3.86-7.27,7.75-11.15-2.19,2.67-3.15,6.55-4.84,10.42-1.46,3.88-3.88,5.82-7.75,8.48-3.88,2.42-5.33,2.9-9.21,1.94-3.86-.96-4.36-3.63-5.57-8.23-1.19-4.36.73-7.77,3.15-12.61-.49,3.41-2.43,10.9-.24,13.82Z"/>
    <path id="path37" class="cls-8" d="M885.53,1392.28c-3.15,1.46-7.04,2.19-11.4,2.67-4.36.5-8.25,0-12.36.73-4.13.73-7.77,2.19-10.19,2.19s-6.07.48-11.4,3.63c5.09-2.42,6.06-1.21,10.17-.96,4.13.25,6.8-1.71,10.69-2.42,3.88-.73,7.52-.25,11.88-.98s5.82-.96,10.42-2.42c4.61-1.46,10.69-5.34,11.42-10.45-1.23,2.67-6.07,6.57-9.23,8.01Z"/>
    <path id="path38" class="cls-8" d="M802.06,1366.6c-.98-5.36-.25-14.89,1.73-18.81l-1.73,18.81Z"/>
    <path id="path39" class="cls-8" d="M870.5,1354.42c-2.92-.25-4.86-1.46-7.05-3.15-2.17-1.71-5.82-1.71-9.23-3.17-3.4-1.46-8.01-4.13-9.48-7.28-1.44-3.17-3.38-5.11-6.06-7.55,1.94.5,6.06,3.9,7.52,6.57s2.44,2.67,5.11,4.61c2.67,1.96,4.84,2.44,8.5,3.42,3.63.96,5.34,3.15,7.53,3.88,2.17.73,3.4.25,7.52,1.46,4.13,1.21,8.75,5.82,11.92,10.69-6.57-7.04-13.36-9.23-16.28-9.48Z"/>
    <path id="path40" class="cls-5" d="M867.62,1389.19c-5.59-.5-8.99.23-12.15,1.19-3.15.96-5.34,1.21-8.01.73-2.67-.48-2.67-.96-8.01.96s-9.72,4.58-10.44,6.02c4.61-3.13,8.98-4.33,12.86-4.81,3.88-.48,6.55.23,12.15-.96,4.35-1.21,10.2-3.13,13.6-3.13Z"/>
    <path id="path41" class="cls-3" d="M811.04,1391.07c.96,2.42,1.44,2.17.96,4.84-.48,2.42-1.92,8.96-2.87,10.65.23-.71,1.19-3.86,1.42-7.27.48-3.13,1.19-5.08.25-7.5-.96-2.67-1.21-3.15-.96-5.82,0,1.95.24,2.93,1.2,5.1Z"/>
  </g>
</svg>