<?xml version="1.0" encoding="UTF-8"?>
<svg id="svg3" xmlns="http://www.w3.org/2000/svg" viewBox="0 0 1398.49 3639.87">
  <defs>
    <style>
      .cls-1 {
        stroke: #7c1a18;
      }

      .cls-1, .cls-2 {
        fill: none;
        stroke-miterlimit: 8;
        stroke-width: .32px;
      }

      .cls-3 {
        fill: #fff;
      }

      .cls-3, .cls-4, .cls-5, .cls-6, .cls-7 {
        fill-rule: evenodd;
      }

      .cls-4 {
        fill: #ec7464;
      }

      .cls-2 {
        stroke: #000;
      }

      .cls-5 {
        fill: #ddbf6c;
      }

      .cls-6 {
        fill: #e95d43;
      }

      .cls-7 {
        fill: #e03218;
      }
    </style>
  </defs>
  <g id="_대동맥" data-name="대동맥">
    <path id="path168" class="cls-5" d="M756.93,576.43c-.76.55-1.42,1.42-2.18,2.18-.65.55-2.29,2.62-3.49,2.62-1.75,0,0-3.38.33-4.47-.87.76-.55,2.62.22,2.94,2.07.76,3.16-2.4,4.91-2.73l.22-.55Z"/>
    <path id="path236" class="cls-3" d="M770.02,562.47c1.53-.22,2.62-3.38,1.2-4.36-1.2-1.31-4.36.98-4.69,2.51.65-.65,2.07-1.2,2.94-1.2.87.22,2.07,1.53,1.42,2.51l-.87.55Z"/>
    <path id="path276" class="cls-6" d="M730.76,650.05c1.75,6.65-12.22-56.39,1.75-69.91,0,0,7.31-.65,9.38,7.53,0,0-10.25,18.76,1.09,50.28l-12.22,12.11Z"/>
    <path id="path277" class="cls-1" d="M730.76,650.05c1.75,6.65-12.22-56.39,1.75-69.91,0,0,7.31-.65,9.38,7.53,0,0-10.25,18.76,1.09,50.28l-12.22,12.11Z"/>
    <path id="path278" class="cls-6" d="M807.84,975.84c20.61-48.32,46.35-204.39-1.42-269.69,0,0-6.98-13.63-24.65-25.52-16.25-10.36-28.68-17.67-29.56-50.93-.87-34.68,16.8-63.04,16.8-63.04-1.75-6.76-9.82-3.82-9.82-3.82-12.43,21.16-21.16,52.13-24.32,72.64-3.27,20.83-9.6,22.25-18.32,26.07,0,0-26.94,5.45-45.48,25.52-16.25,17.34-21.49,41.66-16.8,65.33,2.94,16.8,14.18,34.79,16.25,41.66,2.29,7.31,8.94,19.74,23.78,18.87,15.6-1.2,19.63-9.6,19.09-14.51,0-.55-.33-.87-.33-.87,16.03-.87,16.25-21.05,6.76-31.19-7.63-7.85-14.29-7.53-20.07-18.87-8.4-15.92,3.82-43.41,42.32-31.19,44.94,14.4,72.2,104.7,35.12,223.37-4.69,15.38-14.83,48.97-24.98,74.71-9.82,8.07-15.38,1.75-22.9-.55-8.07-2.62-19.96-2.4-19.96-2.4-9.27,2.4-2.62,9.27-2.62,9.27,6.33-1.09,19.96-.22,23.99,2.94,4.14,3.16-4.91,3.49-25.74,12.43-21.49,8.94-22.9,26.94-22.9,26.94l8.07,3.49c3.27-9.93,5.56-14.18,8.51-17.12,18.54-18.54,45.48-15.92,45.48-15.92l.55.55c-7.2,19.41-14.51,41.77-21.7,66.97-1.75,5.78-10.14,20.5-56.28,40.14,0,0-2.29,6.98,0,15.71,0,0,24.98-9.05,43.52-19.74,8.07-4.91,11.23-6.33,12.76-.22,0,43.41,7.2,76.67,8.4,99.58,2.84,57.59,17.67,89.65,13.31,127.61,0,0,15.38,8.62,23.45,1.75.87-14.18-1.96-24.32.65-20.29,0,0,4.04,8.73,6,20.83,0,0,16.03,4.04,29.88-8.07-60.31-146.8-33.05-265.99-33.05-265.99,7.55-42.62,23.45-85.81,36.21-116.43Z"/>
    <path id="path279" class="cls-7" d="M695.96,1048.56c-2.51,2.62-5.45,8.4-8.4,16.47l2.62,1.2c3.27-9.82,5.56-14.18,8.4-17.12,12.54-12.65,29.34-15.27,38.61-15.92-3.16-.22-23.78-1.64-41.23,15.38ZM706.43,1019.87c0,.33.33.65.33.65.87-.33,1.75-.33,2.62-.33-.87-.33-2.07-.33-2.94-.33ZM689.64,812.45c1.42.33,2.94.33,4.69.33,15.6-1.2,19.63-9.6,19.09-14.51,0-.55-.33-.87-.33-.87,15.92-.87,16.25-21.05,6.65-31.19-7.53-7.85-14.18-7.53-19.96-18.76-6.65-12.76-.55-32.5,21.16-34.25-27.27-1.96-35.12,20.29-27.81,34.25,5.78,11.23,12.43,10.91,19.96,18.76,9.6,10.14,9.27,30.32-6.65,31.19,0,0,.33.33.33.87.55,4.69-3.16,12.76-17.12,14.18ZM807.84,975.73c20.61-48.32,46.35-204.28-1.42-269.69,0,0-6.98-13.63-24.65-25.41-16.25-10.47-28.68-17.67-29.56-50.93-.87-34.79,16.8-63.15,16.8-63.15-1.75-6.65-9.82-3.71-9.82-3.71h0c2.84-.55,8.07-.33,8.73,1.75,0,0-23.23,30.32-22.36,65.11.87,33.27,13.31,40.46,29.56,50.93,17.67,11.78,24.32,25.41,24.32,25.41,48.1,65.44,22.03,221.4,1.75,269.69-12.76,30.65-28.68,73.73-36.54,116.26,0,0-26.94,119.21,33.37,265.88-6.98,5.78-14.18,8.07-19.96,8.4,5.45.55,16.47.33,26.61-8.4-60.31-146.69-33.05-265.88-33.05-265.88,7.55-42.56,23.45-85.64,36.21-116.26ZM761.51,1365.39c-1.42,1.2-3.16,2.07-4.91,2.29,3.71.55,8.07.55,11.34-1.96.55-11.02-.87-22.03-.87-22.03-2.62-4.36-4.69,7.53-5.56,21.7Z"/>
    <path id="path280" class="cls-4" d="M749.08,716.15c-8.4-2.62-15.38-3.49-21.49-2.94,4.36.33,9.05,1.2,14.51,2.94,44.94,14.4,73.95,100.12,32.5,235.04-4.69,15.38-12.22,37.3-22.36,63.15-2.29,1.64-4.04,2.84-6,3.38,3.71,1.2,7.74.87,12.98-3.38,10.14-25.85,13.31-41.45,18.87-56.17,46.87-123.68,15.9-227.62-29.01-242.02ZM670.55,794.02c2.29,7.2,8.94,19.63,23.78,18.76.87-.33,1.42-.33,1.96-.33-11.23-1.64-16.8-12.11-18.76-18.43-2.07-6.98-13.42-24.98-16.25-41.77-4.69-23.67.55-47.99,16.8-65.44,18.54-19.96,45.48-25.41,45.48-25.41,8.73-3.82,13.09-6.11,16.25-26.61,3.16-20.83,10.69-50.93,23.23-72.09-2.94-1.53-3.82,0-3.82,0-12.43,21.16-21.16,52.13-24.32,72.64-3.16,20.83-9.6,22.25-18.32,26.07,0,0-26.94,5.45-45.48,25.41-16.25,17.45-21.49,41.77-16.8,65.44,2.94,16.8,14.18,34.79,16.25,41.77ZM712,1036.01c21.7-6.98,26.07-13.96,22.36-16.8-7.31-5.56-45.26,1.42-18,1.09,5.78.33,11.89,1.53,14.51,3.16,4.04,3.27-5.02,3.49-25.85,12.54-21.49,8.94-22.9,26.83-22.9,26.83l8.18,3.49c.22-1.09.55-1.75.87-2.62l-5.56-2.29s3.49-18.54,26.39-25.41ZM729.99,1100.8c7.2-25.19,11.89-42.21,19.09-61.62v-.33s-.87-5.78-5.24-5.45h.33l.55.55c-7.2,19.41-14.51,41.66-21.7,66.86-1.75,5.78-10.14,20.61-56.28,40.25,0,0-2.29,6.98,0,15.6,0,0,2.4-.76,6.43-2.51-8.18,1.75.55-13.09.55-13.09,46.14-19.63,54.53-34.46,56.28-40.25Z"/>
    <path id="path281" class="cls-2" d="M825.83,752.69l.44.44"/>
    <path id="path282" class="cls-1" d="M677.1,785.51s16.36,17.34,28.9,5.56c12.54-12.22.33-27.92.33-27.92"/>
    <path id="path283" class="cls-1" d="M713.31,798.06c-2.4-2.94-5.67-4.69-7.85-7.42"/>
    <path id="path284" class="cls-1" d="M768.71,1345.98c-1.09-2.62-6.98-11.34-10.91-8.73"/>
    <path id="path285" class="cls-1" d="M807.84,975.84c20.61-48.32,46.35-204.39-1.42-269.69,0,0-6.98-13.63-24.65-25.52-16.25-10.36-28.68-17.67-29.56-50.93-.87-34.68,16.8-63.04,16.8-63.04-1.75-6.76-9.82-3.82-9.82-3.82-12.43,21.16-21.16,52.13-24.32,72.64-3.27,20.83-9.6,22.25-18.32,26.07,0,0-26.94,5.45-45.48,25.52-16.25,17.34-21.49,41.66-16.8,65.33,2.94,16.8,14.18,34.79,16.25,41.66,2.29,7.31,8.94,19.74,23.78,18.87,15.6-1.2,19.63-9.6,19.09-14.51,0-.55-.33-.87-.33-.87,16.03-.87,16.25-21.05,6.76-31.19-7.63-7.85-14.29-7.53-20.07-18.87-8.4-15.92,3.82-43.41,42.32-31.19,44.94,14.4,72.2,104.7,35.12,223.37-4.69,15.38-14.83,48.97-24.98,74.71-9.82,8.07-15.38,1.75-22.9-.55-8.07-2.62-19.96-2.4-19.96-2.4-9.27,2.4-2.62,9.27-2.62,9.27,6.33-1.09,19.96-.22,23.99,2.94,4.14,3.16-4.91,3.49-25.74,12.43-21.49,8.94-22.9,26.94-22.9,26.94l8.07,3.49c3.27-9.93,5.56-14.18,8.51-17.12,18.54-18.54,45.48-15.92,45.48-15.92l.55.55c-7.2,19.41-14.51,41.77-21.7,66.97-1.75,5.78-10.14,20.5-56.28,40.14,0,0-2.29,6.98,0,15.71,0,0,24.98-9.05,43.52-19.74,8.07-4.91,11.23-6.33,12.76-.22,0,43.41,7.2,76.67,8.4,99.58,2.84,57.59,17.67,89.65,13.31,127.61,0,0,15.38,8.62,23.45,1.75.87-14.18-1.96-24.32.65-20.29,0,0,4.04,8.73,6,20.83,0,0,16.03,4.04,29.88-8.07-60.31-146.8-33.05-265.99-33.05-265.99,7.55-42.62,23.45-85.81,36.21-116.43"/>
    <path id="path286" class="cls-6" d="M690.95,1065.57c-.33,1.42-2.62,1.64-4.91,1.09-2.4-.87-4.14-2.29-3.82-3.38.33-1.42,2.62-1.75,4.91-1.09,2.62.76,4.36,2.18,3.82,3.38Z"/>
    <path id="path287" class="cls-1" d="M690.95,1065.57c-.33,1.42-2.62,1.64-4.91,1.09-2.4-.87-4.14-2.29-3.82-3.38.33-1.42,2.62-1.75,4.91-1.09,2.62.76,4.36,2.18,3.82,3.38"/>
    <path id="path288" class="cls-7" d="M689.09,1065.35c0,.65-1.64.98-3.27.33-1.31-.33-2.62-1.31-2.29-2.29.33-.65,1.64-.98,3.27-.33,1.64.33,2.51,1.31,2.29,2.29Z"/>
    <path id="path289" class="cls-1" d="M730.76,1025.76c2.4-1.42,4.8-3.93,3.38-6.98"/>
    <path id="path293" class="cls-6" d="M669.02,1149.01c0,4.69-1.31,8.07-2.84,8.07-1.64,0-2.62-3.71-2.62-8.07.33-4.25,1.64-8.07,3.16-8.07,1.31,0,2.51,3.82,2.29,8.07Z"/>
    <path id="path294" class="cls-1" d="M669.02,1149.01c0,4.69-1.31,8.07-2.84,8.07-1.64,0-2.62-3.71-2.62-8.07.33-4.25,1.64-8.07,3.16-8.07,1.31,0,2.51,3.82,2.29,8.07"/>
    <path id="path295" class="cls-7" d="M667.93,1148.79c-.22,2.94-.87,5.24-1.75,5.24-.65,0-1.31-2.29-1.31-5.24.33-2.84.98-5.24,1.85-5.24.65,0,1.2,2.4,1.2,5.24Z"/>
    <path id="path299" class="cls-1" d="M719.41,1132.65c5.78,1.53,8.94,2.62,10.91,8.73"/>
    <path id="path300" class="cls-1" d="M742.97,1033.5c3.71-1.2,4.36,3.27,5.24,4.91"/>
    <path id="path310" class="cls-3" d="M734.68,718.98c-.76.22-3.38-1.2-4.58-1.2-1.75-.22-3.16-.22-4.91.65-3.49,1.42-6.65,3.71-9.27,5.89,2.4-2.51,6.11-5.89,9.6-6.76,1.42-.33,3.16-.65,4.91-.33s2.84,1.75,4.25,1.96v-.22Z"/>
    <path id="path332" class="cls-4" d="M674.48,776.24c3.16,12.22,25.19,21.81,31.52,8.51,1.42-2.94,3.38-7.63-1.09-7.85-3.16-.33-6.87,3.71-9.82,4.58-4.58,1.53-16.58,2.4-19.09-3.16l-1.53-2.07Z"/>
    <path id="path333" class="cls-4" d="M713.41,782.35c-.22,2.62-1.75,5.78-4.47,6.98v1.64c2.4,1.75,4.47,3.16,7.53,2.62,2.62-.22,6.43-3.16,5.89-6-4.47,1.42-7.74.87-8.62-3.16l-.33-2.07Z"/>
    <path id="path334" class="cls-6" d="M724.21,1158.82s-21.38,55.84-20.72,85.29c0,0,1.96,3.71,5.67,1.42,0,0,3.93-46.46,22.9-76.78l-7.85-9.93Z"/>
    <path id="path335" class="cls-1" d="M724.21,1158.82s-21.38,55.84-20.72,85.29c0,0,1.96,3.71,5.67,1.42,0,0,3.93-46.46,22.9-76.78"/>
    <path id="path336" class="cls-1" d="M724.21,1158.82s-21.38,55.84-20.72,85.29c0,0,1.96,3.71,5.67,1.42,0,0,3.93-46.46,22.9-76.78"/>
    <path id="path337" class="cls-4" d="M724.21,1166.24s-16.14,35.66-20.07,76.78c0,0,9.82-56.17,20.07-76.78Z"/>
    <path id="path338" class="cls-6" d="M745.15,1251.31s-8.07,25.3-33.37,23.01l-3.27-11.45s20.72,5.13,25.96-22.03l10.69,10.47Z"/>
    <path id="path339" class="cls-1" d="M745.15,1251.31s-8.07,25.3-33.37,23.01l-3.27-11.45s20.72,5.13,25.96-22.03"/>
    <path id="path340" class="cls-1" d="M745.15,1251.31s-8.07,25.3-33.37,23.01l-3.27-11.45s20.72,5.13,25.96-22.03"/>
    <path id="path341" class="cls-6" d="M708.72,1262.87c-2.4.55-3.27,3.71-2.4,6.98,1.2,3.16,3.49,5.45,5.89,4.91,1.96-.87,2.84-3.82,1.96-7.31-.87-3.16-3.49-5.24-5.45-4.58Z"/>
    <path id="path342" class="cls-1" d="M708.72,1262.87c-2.4.55-3.27,3.71-2.4,6.98,1.2,3.16,3.49,5.45,5.89,4.91,1.96-.87,2.84-3.82,1.96-7.31-.87-3.16-3.49-5.24-5.45-4.58"/>
    <path id="path343" class="cls-7" d="M708.94,1264.72c-1.09.55-1.75,2.62-1.09,4.58.55,1.96,1.96,3.38,3.49,2.84,1.42-.22,1.96-2.29,1.42-4.25s-2.29-3.49-3.82-3.16Z"/>
    <path id="path344" class="cls-4" d="M715.49,1264.4s16.8-.76,19.74-22.69c0,0,2.51,19.63-19.74,22.69Z"/>
    <path id="path345" class="cls-4" d="M724.21,1135.7c-.87,7.31,1.2,15.05-.55,22.03,1.96-3.71,4.8,5.56,5.34,6.33-.55-2.29-.55-5.45-1.64-7.74-1.2-2.29-1.96-2.62-1.96-5.78,0-4.91-.87-9.27-1.42-13.96l.22-.87Z"/>
  </g>
</svg>