<?xml version="1.0" encoding="UTF-8"?>
<svg id="svg3" xmlns="http://www.w3.org/2000/svg" viewBox="0 0 1398.49 3639.87">
  <defs>
    <style>
      .cls-1 {
        fill: #bd3c67;
      }

      .cls-1, .cls-2, .cls-3 {
        fill-rule: evenodd;
      }

      .cls-2 {
        fill: #efd9dc;
      }

      .cls-4 {
        stroke-width: .68px;
      }

      .cls-4, .cls-5 {
        fill: none;
        stroke: #1a171b;
        stroke-linecap: round;
        stroke-linejoin: round;
      }

      .cls-5 {
        stroke-width: .52px;
      }

      .cls-3 {
        fill: #d3899a;
      }
    </style>
  </defs>
  <g id="_식도" data-name="식도">
    <path id="path1133" class="cls-2" d="M699.7,913.6c5.48,0,9.48-1.48,12.73-3.11h6.22c.89-104.82.89-278.93,2.37-418.51-.74,4.74-10.22,7.99-22.21,7.99-11.1,0-18.95-3.26-19.84-7.99,1.63,111.19,2.52,302.77,2.52,418.51h6.22c2.37,1.63,6.37,3.11,11.99,3.11Z"/>
    <path id="path1134" class="cls-3" d="M714.51,497.87c-3.85,1.63-9.33,2.37-15.55,2.37-4.74,0-9.48-.74-12.58-1.48h-.89v15.69c0,5.48.89,10.22.89,15.84s-.89,10.96-.89,16.43,1.63,11.1,1.63,16.58c0,4.74-.74,10.22-.74,15.69s.74,11.1.74,16.58-.74,10.22-.74,15.69.74,11.1.74,16.58-.74,10.96-.74,16.58c0,4.74,1.48,10.22,1.48,15.69,0,4.74-.74,10.22-.74,15.69s.74,11.1.74,15.84c0,5.48-.74,10.96-.74,16.43s.74,11.1.74,16.58c0,4.74-.74,10.22-.74,14.95,0,5.48.74,11.1.74,15.84,0,5.48-.74,10.22-.74,15.69s.74,10.22.74,15.69c.89,4.74-.74,10.22-.74,15.84,0,4.74,1.63,10.22,1.63,14.95,0,5.48-.89,10.96-.89,16.43s.89,11.1.89,15.84c0,5.48-.89,10.96-.89,15.69,0,5.48.89,11.1.89,15.69,0,5.63-.89,10.36-.89,15.84v13.32h0c2.37,1.63,7.11,3.11,11.84,3.11,5.48,0,9.33-1.48,12.58-3.11h0c0-5.48.74-10.22.74-15.69s-.74-11.1-.74-15.84c0-5.48.74-10.96.74-16.43s-.74-10.22-.74-16.58c0-4.74.74-10.22.74-15.69s-.74-11.1-.74-16.58.74-10.96.74-16.58c0-4.74-.74-10.22-.74-15.69s.74-10.96.74-16.58c0-4.74-.74-10.22-.74-15.69s1.48-10.96,1.48-16.58c0-4.74-.74-10.22-.74-15.69,0-4.74.74-10.22.74-15.69,0-4.74-.74-10.36-.74-15.84s.74-10.22.74-15.69-.74-11.1-.74-15.84c0-5.48.74-10.96.74-16.43s-.74-11.1-.74-15.84c0-5.48.74-10.96.74-16.43,0-4.74-.74-10.22-.74-14.95,0-5.63,1.48-10.22,1.48-15.84,0-4.74-.74-10.22-.74-14.95,0-5.48.74-10.22.74-15.69,0-4.74-.74-10.22-.74-15.69,0-4.74.74-10.36.74-14.95v-15.1Z"/>
    <path id="path1135" class="cls-1" d="M712.29,910.5h0c0-5.48.74-10.22.74-15.69s-.74-11.1-.74-15.84c0-5.48.74-10.96.74-16.43s-.74-10.22-.74-16.58c0-4.74.74-10.22.74-15.69s-.74-11.1-.74-16.58.74-10.96.74-16.58c0-4.74-.74-10.22-.74-15.69s.74-10.96.74-16.58c0-4.74-.74-10.22-.74-15.69s1.48-10.96,1.48-16.58c0-4.74-.74-10.22-.74-15.69,0-4.74.74-10.22.74-15.69,0-4.74-.74-10.36-.74-15.84s.74-10.22.74-15.69-.74-11.1-.74-15.84c0-5.48.74-10.96.74-16.43s-.74-11.1-.74-15.84c0-5.48.74-10.96.74-16.43,0-4.74-.74-10.22-.74-14.95,0-5.63,1.48-10.22,1.48-15.84,0-4.74-.74-10.22-.74-14.95,0-5.48.74-10.22.74-15.69,0-4.74-.74-10.22-.74-15.69,0-4.74.74-10.36.74-14.95v-15.1h0c-3.85,1.63-9.33,2.37-15.55,2.37-4.74,0-9.48-.74-12.58-1.48h-.89v15.69c0,5.48.89,10.22.89,15.84s-.89,10.96-.89,16.43,1.63,11.1,1.63,16.58c0,4.74-.74,10.22-.74,15.69s.74,11.1.74,16.58-.74,10.22-.74,15.69.74,11.1.74,16.58-.74,10.96-.74,16.58c0,4.74,1.48,10.22,1.48,15.69,0,4.74-.74,10.22-.74,15.69s.74,11.1.74,15.84c0,5.48-.74,10.96-.74,16.43s.74,11.1.74,16.58c0,4.74-.74,10.22-.74,14.95,0,5.48.74,11.1.74,15.84,0,5.48-.74,10.22-.74,15.69s.74,10.22.74,15.69c.89,4.74-.74,10.22-.74,15.84,0,4.74,1.63,10.22,1.63,14.95,0,5.48-.89,10.96-.89,16.43s.89,11.1.89,15.84c0,5.48-.89,10.96-.89,15.69,0,5.48.89,11.1.89,15.69,0,5.63-.89,10.36-.89,15.84v13.32h0c2.37,1.63,7.11,3.11,11.84,3.11,5.48,0,9.33-1.48,12.58-3.11ZM711.4,537.25v14.95l-.74,7.99.74,7.85v14.95l-.74,7.85.74,7.85v7.11l-.74,7.85v17.32l.74,7.11-.74,7.85v17.32l.74,7.11-.74,7.85-.74,7.99.74,8.59v14.95l-.74,8.74.74,7.85v15.69l-.74,7.85.74,8.74v7.85l-.74,15.69v8.74l.74,7.85-.74,15.69v8.74l.74,7.85-.74,16.58v8.59l.74,7.85-1.63,15.84.89,8.59v19.69c-2.37.89-4.74,1.63-7.85,1.63s-5.48,0-7.11-.74c0-2.37-.74-11.1-.74-11.1l.74-7.11.74-7.85-1.48-15.69.74-7.85v-7.99l-.74-16.43.74-7.99v-16.43l-.74-7.11.74-7.11v-16.58l-.74-7.85v-7.11l.74-7.85-.74-8.59v-14.95l.74-7.99-.74-8.59v-15.69l.74-7.99-.74-8.59-.89-7.85.89-7.11v-17.32l-.89-7.11.89-7.85v-8.74l-.89-8.59v-14.95l.89-8.74-.89-8.59-.74-7.85.74-7.11v-17.32l-.74-7.85.74-16.58-.74-7.85-.74-7.99s.74-8.59.74-9.33c2.37,0,5.48.74,8.59.74,4,0,7.11-.74,10.22-1.63,0,.89.89,8.74.89,8.74l-.89,7.11-.74,7.85.74,8.59Z"/>
    <path id="path1136" class="cls-4" d="M678.98,490.77c0,4.89,7.99,8.88,19.84,8.88,12.73,0,22.21-3.11,22.21-7.99"/>
    <path id="path1138" class="cls-4" d="M699.7,913.6c5.48,0,9.48-1.48,12.73-3.11h6.22c.89-104.82.89-278.93,2.37-418.51-.74,4.74-10.22,7.99-22.21,7.99-11.1,0-18.95-3.26-19.84-7.99,1.63,111.19,2.52,302.77,2.52,418.51h6.22c2.37,1.63,6.37,3.11,11.99,3.11"/>
    <path id="path1139" class="cls-5" d="M714.8,498.17c-3.85,1.63-9.33,2.37-15.55,2.37-4.74,0-9.48-.74-12.58-1.48h-.89v15.69c0,5.48.89,10.22.89,15.84s-.89,10.96-.89,16.43,1.63,11.1,1.63,16.58c0,4.74-.74,10.22-.74,15.69s.74,11.1.74,16.58-.74,10.22-.74,15.69.74,11.1.74,16.58-.74,10.96-.74,16.58c0,4.74,1.48,10.22,1.48,15.69,0,4.74-.74,10.22-.74,15.69s.74,11.1.74,15.84c0,5.48-.74,10.96-.74,16.43s.74,11.1.74,16.58c0,4.74-.74,10.22-.74,14.95,0,5.48.74,11.1.74,15.84,0,5.48-.74,10.22-.74,15.69s.74,10.22.74,15.69c.89,4.74-.74,10.22-.74,15.84,0,4.74,1.63,10.22,1.63,14.95,0,5.48-.89,10.96-.89,16.43s.89,11.1.89,15.84c0,5.48-.89,10.96-.89,15.69,0,5.48.89,11.1.89,15.69,0,5.63-.89,10.36-.89,15.84v13.32h0c2.37,1.63,7.11,3.11,11.84,3.11,5.48,0,9.33-1.48,12.58-3.11h0c0-5.48.74-10.22.74-15.69s-.74-11.1-.74-15.84c0-5.48.74-10.96.74-16.43s-.74-10.22-.74-16.58c0-4.74.74-10.22.74-15.69s-.74-11.1-.74-16.58.74-10.96.74-16.58c0-4.74-.74-10.22-.74-15.69s.74-10.96.74-16.58c0-4.74-.74-10.22-.74-15.69s1.48-10.96,1.48-16.58c0-4.74-.74-10.22-.74-15.69,0-4.74.74-10.22.74-15.69,0-4.74-.74-10.36-.74-15.84s.74-10.22.74-15.69-.74-11.1-.74-15.84c0-5.48.74-10.96.74-16.43s-.74-11.1-.74-15.84c0-5.48.74-10.96.74-16.43,0-4.74-.74-10.22-.74-14.95,0-5.63,1.48-10.22,1.48-15.84,0-4.74-.74-10.22-.74-14.95,0-5.48.74-10.22.74-15.69,0-4.74-.74-10.22-.74-15.69,0-4.74.74-10.36.74-14.95v-15.1"/>
  </g>
</svg>