<?xml version="1.0" encoding="UTF-8"?>
<svg id="svg3" xmlns="http://www.w3.org/2000/svg" viewBox="0 0 1398.49 3639.87">
  <defs>
    <style>
      .cls-1 {
        fill: #156b21;
      }

      .cls-1, .cls-2, .cls-3, .cls-4, .cls-5, .cls-6 {
        fill-rule: evenodd;
      }

      .cls-2 {
        fill: #218127;
      }

      .cls-3 {
        fill: #29932b;
      }

      .cls-7 {
        stroke: #81b083;
      }

      .cls-7, .cls-8 {
        stroke-width: .16px;
      }

      .cls-7, .cls-8, .cls-9, .cls-10, .cls-11 {
        fill: none;
        stroke-linecap: round;
        stroke-linejoin: round;
      }

      .cls-4 {
        fill: #fff;
      }

      .cls-5 {
        fill: #bfd394;
      }

      .cls-8 {
        stroke: #6ba46f;
      }

      .cls-9 {
        stroke-width: .68px;
      }

      .cls-9, .cls-10 {
        stroke: #1a171b;
      }

      .cls-6 {
        fill: #74aa21;
      }

      .cls-10, .cls-11 {
        stroke-width: .52px;
      }

      .cls-11 {
        stroke: #74aa21;
      }
    </style>
  </defs>
  <g id="_담낭" data-name="담낭">
    <path id="path375" class="cls-6" d="M680.86,1311.28c5.32,3.68,11.19,12.6,15.42,19.34,9.87,12.01,21.34,56.93,22.57,70.04,1.63-1.36,2.47-1.64,4.09-3,1.15-2.23,4.35-5.12,6.57-7.52-2.37-13.75-9.91-40.02-9.91-40.02-8.12-28.11-33.68-70.18-50-92.93-3.2,2.89-6.51,4.8-9.95,6.92,6.11,9.68,14.04,21.46,21,33.75-10.4-10.16-20.13-18.84-41.73-17.27-22.87,1.13-20.64-4.14-44.98-5.25-23.95-2.24-51.58,12.07-50.23,37.8.61,36.77,30.18,34.33,56.72,23.08,27.39-11.53,31.83-22.75,45.58-27.18,15.44-5,19.55-10.89,34.84,2.25Z"/>
    <path id="path376" class="cls-9" d="M680.86,1311.28c5.32,3.68,11.19,12.6,15.42,19.34,9.87,12.01,21.34,56.93,22.57,70.04,1.63-1.36,2.47-1.64,4.09-3,1.15-2.23,4.35-5.12,6.57-7.52-2.37-13.75-9.91-40.02-9.91-40.02-8.12-28.11-33.68-70.18-50-92.93-3.2,2.89-6.51,4.8-9.95,6.92,6.11,9.68,14.04,21.46,21,33.75-10.4-10.16-20.13-18.84-41.73-17.27-22.87,1.13-20.64-4.14-44.98-5.25-23.95-2.24-51.58,12.07-50.23,37.8.61,36.77,30.18,34.33,56.72,23.08,27.39-11.53,31.83-22.75,45.58-27.18,15.44-5,19.55-10.89,34.84,2.25"/>
    <path id="path377" class="cls-5" d="M552.29,1328.07c-4.98-15.45-4.7-33.77,16.41-43.27,21.41-8.58,29.62-2.29,48.28-.21-14.31-.79-62.29-2.53-64.69,43.48Z"/>
    <path id="path378" class="cls-4" d="M603.27,1281.59c-9.68-2.12-18.48-3.84-34.4,3.15-13.26,5.95-19.21,15.99-19,26.55,5.45-15.09,19.59-34,53.39-29.7Z"/>
    <path id="path379" class="cls-10" d="M664.67,1294.21c-1.82,7.17-5.47,9.2-18.68,14.12"/>
    <path id="path380" class="cls-3" d="M571.96,1337.94c13.7-1.71,30.77-4.52,48.61-18.37,20.64-16.78,30.28-15.33,35.54-20.57,4.35-5.12,2.23-11.69-1.33-13.41,3.55,1.73-2.17,8.97-14.36,14.76s-20.34,8.41-29.02,15.77c-8.1,6.3-24.91,19.83-39.45,21.81Z"/>
    <path id="path381" class="cls-4" d="M704,1336.57c6.79,12.33,12.91,28.42,14.12,37.99-2.25-12.79-6.17-27.89-11.56-38.81-5.39-10.92-10.31-17.44-16.96-23.58,3.31,4.51,8.77,12.72,14.41,24.4Z"/>
    <path id="path382" class="cls-11" d="M666.43,1295c-1.35-1.25-3.5-1.57-5.07-.05-2.4,2.45,2.33,4.31,5.22,3.38"/>
    <path id="path1480" class="cls-5" d="M641.66,1307.7c-1.87.6-3.01-.05-4.04.28-1.4,1.47-3.09,2.62-3.09,2.62,0,0-6.97,2.25-7.94,2.56-.82.26-1.38,1.26-2.36,1.57-.53,1.14-1.33,1.4-2.31,1.72-.82.26-.58,1-1.38,1.26-1.55,1.31-3.33,1.88-4.84,3.33-1.38,1.26-2.94,2.55-4.44,4.01-1.79.58-3.41,1.1-4.96,2.41-1.79.58-2.36,1.57-4.15,2.15-1.51,1.46-3.41,1.1-5.2,1.68-.53,1.14-2.08,2.44-3.87,3.02l-6.97,2.25c-2.59.84-4.96,2.41-6.97,2.25-2.59.84-4.38,1.41-7.21,1.51-1.62.52-4.67.53-6.28,1.05-2.03-.16-4.32-1.19-6.19-1.4-2.03-.16-4.08-.45-5.37-1.66-2.07-.3-2.54-1.76-3.86-3.11-1.21-.42-2.54-1.76-3.06-3.36-1.44-1.14-.99-3.07-1.51-4.68-.47-1.46-1.97-2.76-2.48-4.36.53-1.79.83-3.66.31-5.26l-.92-2.86c.53-1.84.83-3.78.59-4.54.3-1.94-.23-3.61.54-4.69.3-1.94.9-2.97,1.67-4.05.55-1.18,1.07-3.03,1.62-4.21,1.61-1.36,2.45-1.63,4.06-2.97.55-1.18,1.15-2.21,1.92-3.3,1.56-1.51,4.25-2.37,5.93-2.92,2.45-1.63,4.06-2.97,5.62-4.49,1.86-.6,3.83-.23,6.69-1.15l6.23-2.01c2.1.16,4.19.32,5.87-.23,2.15.31,3.99-.28,5.92-.07,1.26.43,2.4,1.07,3.4.75,1.09.49,2.94-.11,4.03.37.84-.27,2.15.31,3.24.8,1.02-.33,2.1.16,2.94-.11,1.31.58,2.4,1.07,3.48,1.56,1.02-.33,1.86-.6,2.15.31,2.1.16,3.19.64,5.33.97,1.09.49,2.1.16,4.03.37,1.31.58,2.64,1.83,4.78,2.15,1.09.49,2.7-.87,4.54-1.46,1.09.49,3.19.64,4.03.37,1.31.58,2.99.04,3.99-.28.84-.27,1.93.22,4.03.37.84-.27,1.86-.6,3.99-.28,1.09.49,1.63,2.16,2.71,2.64,1.26.43,2.94-.11,4.24.48.25.76.49,1.51,1.87,2.91.25.76,1.38,1.4,1.63,2.16.54,1.67-.06,2.7-.66,3.72-.72,1.24-.23,2.76-1.92,3.3-.72,1.24-1.56,1.51-3.41,2.1-.6,1.03-1.37,2.11-2.21,2.38l-2.08.67s-.82,1.15-1.68,1.43Z"/>
    <path id="path1481" class="cls-3" d="M576.76,1336.6l-1.87.6-1.87.6-4.77.31c-4.53-1.24-4.25-.36-4.25-.36l-.86.28-1.55-1.32-4.36-1.3-2.7-1.84-.3-.92-1.03-.51c-2.05-2.88-1.58-3.03-1.58-3.03l-1.03-3.21-.54-1.68-.54-1.68-.79-2.45-.49-1.52.55-2.88-.54-1.68-.49-1.52.79-2.11-.54-1.68.11-1.72.31-1.96,1.08-3.05.61-1.04.77-1.09,1.33-2.29,1.15-2.23.77-1.09,1.45-1.31.72-1.25c3.32-1.91,3.54-1.23,3.54-1.23l2.71-.87,2.25-2.32c2.59-1.85,2.49-2.16,2.49-2.16l3.57-1.15,1.87-.6,2.71-.87,3.55-1.15,4.6,1.47,2.32-.75,1.85.21,2.88.05,3.23.54,3.69-.22,2.26.88,1.9.36,1.21.42,2.03.16,1.1.62,2.03.16,1.24-.4,1.35,1.26,3.21-.02,2.21.99,1.98-.64,1.35,1.36s2.06.16,3.16.78c1.23.43,3.05-.16,3.05-.16l1.76-.57,1.02-.33,2.91-.27c2.17.32,2.11.13,2.11.13l1.7-.55,1.32.62c1.94.21,1.82-.16,1.82-.16l1.87-.6,1.43.97,1.1.49,4.6,2.06,1.56,1.36c1.1.49,1.45.37,1.45.37l.25.76,1.04,1.52h0c.25.76-.61,1.04-1.15,2.23.49,1.52-.52,1.85-.95,3.45l-1.87.6-.74.64c-1.63,1.36-1.56,1.58-1.56,1.58l-1.87.6-1.7.55-1.44,1.94-.86.28h0l-1.02.33-2.71.87-2.71.87-.86.28-1.02.33-2.71.87-1.46,1.47.14.43-.92.3-2.04.66-1.53,1.6-.84,1.19-4.74,2.44-2.64,1.96-2.43,2.63c-2.97.96-1.4.45-1.4.45l-2.71.87-1.87.6-2.28,2.21-1.87.6-2.71.87-2.39,1.86c-1.63,1.36-1.76.95-1.76.95l-3.57,1.15-2.73.88-2.71.87-4.58,1.48-4.59,1.49h0Z"/>
    <path id="path1482" class="cls-2" d="M645.24,1302.51h0l1.63-1.36c.56-1.2.74-.64.74-.64l1.87-.6c.43-1.6,1.44-1.93.95-3.45.56-1.2,1.4-1.47,1.15-2.23h0c-1.4-1.41-1.04-1.52-1.04-1.52l-.25-.76-1.45-.37-1.56-1.36-4.6-2.06-1.1-.49c-1.31-.59-1.43-.97-1.43-.97l-1.87.6-1.82.16-1.32-.62-1.7.55-2.11-.13c-2.96.11-2.91.27-2.91.27l-1.16.37-1.64.53s-1.82.59-3.05.16c-1.12-.63-3.16-.78-3.16-.78l-1.35-1.36-1.94.62-2.21-.99-3.21.02-1.35-1.26-1.31.42-2.03-.16-1.1-.62-2.03-.16-1.21-.42-1.9-.36-2.26-.88-3.7.2-3.22-.57-2.88-.05-1.85-.21-2.27.73-4.6-1.47-3.57,1.15-2.71.87-1.87.6-3.57,1.15-2.49,2.16c-2.47,1.64-2.25,2.32-2.25,2.32l-2.71.87-3.54,1.23-.72,1.25-1.45,1.31-.77,1.09-1.15,2.23-1.33,2.29-.77,1.09-.61,1.04-1.08,3.05-.31,1.96-.09,1.73.54,1.68-.79,2.11.49,1.52.54,1.68-.55,2.88.49,1.52.79,2.45.54,1.68.54,1.68,1.03,3.21,1.58,3.03,1.03.51.3.92,2.73,1.82,4.36,1.3,1.55,1.32.86-.28,4.25.36c4.65-.66,4.77-.31,4.77-.31l1.87-.6,1.87-.6,5.01-.14,4.58-1.48,2.71-.87,2.71-.87,3.55-1.15,1.33-2.29,1.96-3.2,2.71-.87,1.87-.6,3.14.46,1.87-.6,2.28-2.21,1.4-.45,2.43-2.63,2.64-1.96,4.74-2.44.84-1.19,1.53-1.6,2.04-.66.92-.3c-.27-.84-.14-.43-.14-.43l1.46-1.47,2.71-.87,1.02-.33.42-1.61,2.71-.87,2.71-.87,1.02-.33h0l.86-.28,2.3.73,1.7-.55,1.02-.33c-.5-1.55-1.52-1.22-1.76-1.98h0l2.12.19ZM637.4,1303.18c-11.11,2.74-19.01,12.54-28.53,17.29-5.6,1.8-8.87,3.88-14.31,5.63-3.74,1.21-7.83,4.21-12.24,5.63-10.18,3.28-22.34-3.6-21.63-13.62.09-12.52,6.11-21.72,18.85-25.82,12.73-4.1,25.36.78,29.64,1.25,7-.4,14.06.02,19.98-.2,5.84-1.04,10.56-1.55,12.07-.35-2.17,2.56-1.87,7.02-.35,8.21-.76,1.12-1.6,1.39-3.47,1.99Z"/>
    <path id="path1483" class="cls-2" d="M561.91,1306.06c1.56,1.36,2.71-.87,4.04-.28,1.94.21,1.84,2.78,1.48,4.58-1.76-1.97-2.86-2.46-5.22-3.38l-.3-.92Z"/>
    <path id="path1484" class="cls-2" d="M561.1,1310.04c1.4-1.47,2.73,2.66,2.14,3.71-.49-1.52-2.19-.98-3.04-.7l.9-3.01Z"/>
    <path id="path1485" class="cls-2" d="M560.44,1320.56c1.82-1.18,1.94-1.26,3.75-2.45,3.81,2.9-6.52,6.1-2.58,8.66l-1.18-6.21Z"/>
    <path id="path1486" class="cls-2" d="M568.72,1318.05c-1.11,2.38-1.67,6.45,1.73,5.36,3.64-.33-1.13-3.51-1.43-4.44l-.3-.92Z"/>
    <path id="path1487" class="cls-2" d="M577.99,1322.93c-1.94-.21-2.55.82-3.15,1.86-.61,1.04-1.01,2.68.49,1.52.86-.28.61-1.04,1.45-1.31.61-1.04,0,0,.86-.28.61-1.04,2.55-.82,1.21-2.07l-.86.28Z"/>
    <path id="path1488" class="cls-2" d="M582.04,1331.99c2.03-.65,1.44-2.49.13-3.08,1.73-1.58,3.36-.06,3.65.84l-3.78,2.24Z"/>
    <path id="path1489" class="cls-2" d="M576.03,1328.52c-1.87.6-3.44,2.13-1.33,2.29,1.1.49,2.71-.87,3.32-1.91l-1.99-.38Z"/>
    <path id="path1490" class="cls-2" d="M563.94,1327.01c1.15.65,2.55-.82,3.94.59.93.54.99,3.06.38,4.1l-4.31-4.69Z"/>
    <path id="path1491" class="cls-2" d="M580.25,1309.61c.25.76-1.63,1.36-2.4,2.45,1.26.43,3.13-.17,4.39.27.61-1.04.36-1.8.11-2.57l-2.11-.15Z"/>
    <path id="path1492" class="cls-2" d="M584.47,1311.99l.54,1.68c1.79-1.42,4.32-.55,3.53-3l-4.08,1.31Z"/>
    <path id="path1493" class="cls-2" d="M589.65,1307.93c-.72,1.25.59,1.83,1.61,1.5l-1.61-1.5Z"/>
    <path id="path1494" class="cls-2" d="M593.67,1303.94c-.86.28-1.7.55-2.42,1.8.25.76,1.51,1.2,2.36.92l.59-1.05s-.54-1.67-.54-1.67Z"/>
    <path id="path1495" class="cls-2" d="M596.23,1311.89c2.17.32,3.5,1.57,1.09,3.37-1.54,2.18-.54-1.68-.79-2.45l-.3-.92Z"/>
    <path id="path1496" class="cls-2" d="M601.49,1311.54c-.7,1.91-.2,3.44,3.19,2.35-1.26-.43-1.51-1.2-.74-2.3l-2.45-.05Z"/>
    <path id="path1497" class="cls-2" d="M610.57,1306.59c.86-.28,3.14,1.01,3.39-1.09-.86.28-1.99-.38-2.29-1.28l-1.11,2.38Z"/>
    <path id="path1498" class="cls-2" d="M615.64,1301.94c-2.55.82-.31,1.96,1.64,2.17.44-.98-.79-2.45-.11-2.66l-1.54.5Z"/>
    <path id="path1499" class="cls-2" d="M612.38,1297.91c1.1.49,1.4,1.41,2.49,1.9.86-.28,1.15-2.23.91-2.99-.59-1.83-3.14-1.01-3.69.17l.3.92Z"/>
    <path id="path1500" class="cls-2" d="M613.9,1293.66c1.15.65,1.64,2.17,3.34,1.62.61-1.04.07-2.72.74-2.94l-4.08,1.31Z"/>
    <path id="path1501" class="cls-2" d="M623.59,1293.48c.4,1.23,1.64,2.17,2.49,1.9s.07-2.72,1.59-3.21l-4.08,1.31Z"/>
    <path id="path1502" class="cls-2" d="M632.13,1292.66c.3.92-1.08,3.05.79,2.45.86-.28.61-1.04,1.21-2.07l2.55-.82-4.55.45Z"/>
    <path id="path1503" class="cls-2" d="M634.76,1304.87c.77-1.09.52-1.85.23-2.77,1.87-.6,4.04-.28,4.28.48l-4.51,2.29Z"/>
    <path id="path1504" class="cls-2" d="M628.99,1299.12l.54,1.68c.61-1.04,3.94.59,3.15-1.86.09-2.05-1.7.55-2.85-.1l-.84.27Z"/>
    <path id="path1505" class="cls-2" d="M635.91,1296.06c-1.45,1.31.43,4.26,1.89,2.93l-.54-1.68c-.25-.76.36-1.8.36-1.8q-1.15-.65-1.71.55Z"/>
    <path id="path1506" class="cls-2" d="M614.62,1308.66c-.52,1.85.25.76,1.35,1.25,1.1.49,2.36.92,2.96-.11.61-1.04-2.38-4.47-3.7-2.19l-.61,1.05Z"/>
    <path id="path1507" class="cls-2" d="M614.78,1316.97c.86-.28.36-1.8.91-2.99.3.92,1.15.65,1.7-.55l.79,2.45-3.39,1.09Z"/>
    <path id="path1508" class="cls-2" d="M606.03,1322.74c.51-4.22,1.66-3.58,4.08-1.31l-4.08,1.31Z"/>
    <path id="path1509" class="cls-2" d="M594.68,1327.06c1.57-1.52.18-2.93,1.87-3.48,1.57-1.52,3.26.81,2.96,2.76l-4.83.72Z"/>
    <path id="path1510" class="cls-2" d="M589.87,1325.41c-1.51-1.2-.13-3.34.96-2.85l.49,1.52c-.85.29-1.69.56-1.45,1.32Z"/>
    <path id="path1511" class="cls-2" d="M591.21,1312.77c.25.76-.27,2.63.99,3.06,0,0,1.45-1.31,1.21-2.07s-1.1-.49-1.35-1.25l-.84.27h0Z"/>
    <path id="path1512" class="cls-2" d="M579.82,1294.21c-.72,1.25.79,2.45,2.49,1.9l-.49-1.52-1.99-.38Z"/>
    <path id="path1513" class="cls-2" d="M580.44,1292.15q2.12.16,2.61,1.7c2.71-.87,1.13-2.9,2.58-4.21l-5.19,2.51Z"/>
    <path id="path1514" class="cls-2" d="M587.52,1289.71c.49,1.52-1.21,2.07,1.84,2.78.61-1.04,2.06-2.35,3.76-2.89l-5.6.11Z"/>
    <path id="path1515" class="cls-2" d="M600.49,1291.6c2.28.11.99,3.06,3.87,2.13-1.35-1.25.27-2.63,1.13-2.9l-5,.77Z"/>
    <path id="path1516" class="cls-2" d="M578.66,1307.71c.86-.28,2.9-2.62,1.76-3.27l-1.7.55c.3.92.54,1.68-.31,1.96l.25.76Z"/>
    <path id="path1517" class="cls-2" d="M578.22,1300.98c-.11,2.57,1.6,2.02,3.04.7-.86.28-2.8.06-2.44-1.75l-.61,1.05Z"/>
    <path id="path1518" class="cls-2" d="M582.38,1296.44c.3.92.59,1.83,1.95,1.39l-.59-1.83-1.36.44Z"/>
    <path id="path1519" class="cls-2" d="M567.52,1303.25c.25.76,1.51,1.2,2.52.87-.49-1.52-.79-2.45-1.8-2.12l-.72,1.25Z"/>
    <path id="path1520" class="cls-2" d="M570.24,1298.88s-.47,2.01.79,2.45c.52-1.85,2.03-.65,2.81-1.75q-1.26-.43-2.57-1.03s-1.03.33-1.03.33Z"/>
    <path id="path1521" class="cls-2" d="M573.87,1311.32l1.49.54c-.3-.92.89-1.31,1.56-2.7-.34-1.07-1.02.33-2.2.71l-.84,1.45Z"/>
    <path id="path1522" class="cls-2" d="M559.6,1313.56c1.2.79,3.06.19,3.7,2.19-1.87.6-3.15,3.04-4.17,3.36l.47-5.55Z"/>
    <path id="path1523" class="cls-2" d="M578.37,1315.95c-.89,1.31-.35,2.99,1.09,3.37l-.25-.76s.89-1.31.65-2.07q.72-1.25.43-2.16l-1.91,1.62Z"/>
    <path id="path1524" class="cls-2" d="M594.23,1298.34c.25.76-.36,1.8-1.38,2.13,1.02-.33,2.12.16,2.36.92-.25-.76-.49-1.52.36-1.8l-1.35-1.25Z"/>
    <path id="path1525" class="cls-2" d="M584.02,1300.34c.3.92-.31,1.96.79,2.45.86-.28,1.45-1.31,1.7-.55.61-1.04-.49-1.52-.79-2.45l-1.7.55Z"/>
    <path id="path1526" class="cls-2" d="M589.7,1295.08c.25.76.49,1.52-.03,3.39,1.02-.33,1.79-1.42,1.54-2.18l-.25-.76-1.27-.45Z"/>
    <path id="path1527" class="cls-2" d="M602.05,1303.38s.3.92,1.61,1.5q.56-1.2,1.11-2.38l-2.71.87Z"/>
    <path id="path1528" class="cls-2" d="M601.34,1297.7c.72-1.25,3.44-2.13,3.99-.44,0,0-1.63,1.36-2.47,1.64-1.26-.43-1.51-1.2-2.52-.87l1-.32Z"/>
    <path id="path1529" class="cls-2" d="M621.84,1304.37l1.19-.38c1.19-.38,3.32-1.91,1.59-3.21.3.92-2.08,1.69-3.27,2.07l.49,1.52Z"/>
    <path id="path1530" class="cls-2" d="M582.27,1318.75c2.25-1.74,2.55-.82,3.88.43-.86.28-2.55.82-2.8.06l-1.09-.49Z"/>
    <path id="path1531" class="cls-2" d="M594.81,1320.46c.54,1.68,2.15,2.01,2.33.27q-.68.22-1.66-.48l-.67.22Z"/>
    <path id="path1532" class="cls-2" d="M571.3,1316.89l.49,1.52c1.02-.33,2.22-2.4,1.08-3.05l-1.57,1.52Z"/>
    <path id="path1533" class="cls-2" d="M569.65,1306.94c.3.92-.31,1.96-.31,1.96,1.1.49,3.64-.33,3.15-1.86l-2.84-.1Z"/>
    <path id="path1534" class="cls-2" d="M572.97,1303.85c1.49.54,2.38-.77,3.39-1.09.3.92-.47,2.01-1.42,3.16l-1.98-2.06Z"/>
    <path id="path1535" class="cls-2" d="M624.31,1310.26h0q-.25-.76-1.68-1.14c.7-1.91,4.65-.66,5.68-.99l-4,2.13Z"/>
    <path id="path1536" class="cls-2" d="M621.1,1295.1c.3.92.59,1.83,1.27,1.61l.38-1.14c-.68.22-1.36.44-1.66-.47Z"/>
    <path id="path1537" class="cls-1" d="M596.79,1287.06c.25.76,1.51,1.2,2.12.16-.49-1.52.11-2.57-1.6-2.02l-.52,1.86Z"/>
    <path id="path1538" class="cls-1" d="M561.18,1295.9s-.72,1.25.59,1.83c.86-.28.56-1.2,1.4-1.47l-.3-.92-1.7.55h0Z"/>
    <path id="path1539" class="cls-1" d="M555.63,1304.71c-1.02.33-.82.94-.62,1.56,0,0,1.02-.33,1.83-1.27h0l-1.21-.29Z"/>
    <path id="path1540" class="cls-1" d="M555.31,1309.59c1.61,1.5,3.01.05,1.87-.6l-1.87.6Z"/>
    <path id="path1541" class="cls-1" d="M555.07,1312.32c-.04,1.03-.72,1.25-1.04,1.35l.89,2.75c.7-1.24.41-2.15.45-3.18l-.3-.92Z"/>
    <path id="path1542" class="cls-1" d="M553.9,1324.79c.3.92.79,2.45,1.8,2.12-.25-.76-.49-1.52.52-1.85l-.3-.92-2.03.65Z"/>
    <path id="path1543" class="cls-1" d="M564.5,1332.23q.3.92-.72,1.25c.25.76,2.36.92,2.36.92.61-1.04-.49-1.52-.49-1.52l-1.15-.65Z"/>
    <path id="path1544" class="cls-1" d="M575.66,1333.37c-1.57,1.52-.31,1.96,1.64,2.17l-.49-1.52-1.15-.65Z"/>
    <path id="path1545" class="cls-1" d="M568.74,1290.64l.4,1.23,2.71-.87-3.11-.36Z"/>
    <path id="path1546" class="cls-1" d="M577.15,1289.28l.4,1.23c.82-.94.62-1.56,1.63-1.88l-2.03.65Z"/>
    <path id="path1547" class="cls-1" d="M583.46,1282.91q1.31.59,1.61,1.5c-.3-.92.56-1.2,1.4-1.47l-3.01-.03Z"/>
    <path id="path1548" class="cls-1" d="M588.8,1285.52q1.21.29,1.41.9c.66-.89,1.7-.55,1.5-1.16s-.86.28-1.05-.34l-1.86.6Z"/>
    <path id="path1549" class="cls-1" d="M606.32,1291.07c-.3-.92,1.11-2.38,1.4-1.47,1.99.38-.56,1.2-1.4,1.47Z"/>
    <path id="path1550" class="cls-1" d="M620.89,1289.75c.2.61,1.21.29,1.41.9q.66-.89,1.5-1.16l-2.91.26Z"/>
    <path id="path1551" class="cls-1" d="M644.81,1291.07c.2.61,1.41.9,2.43.57l-.4-1.23-2.03.65Z"/>
    <path id="path1552" class="cls-1" d="M559.19,1302.22c-1.02.33-.72,1.25-1.73,1.58,1.31.59,2.33.27,2.92,2.1-.3-.92-.89-2.77-1.18-3.67Z"/>
    <path id="path1553" class="cls-1" d="M567.24,1295.42c1.31.59,2.66,1.84,3.26.81-.86.28-1.4-1.41-2.24-1.14l-1.02.33Z"/>
    <path id="path1554" class="cls-1" d="M592.12,1288.87c1.19-.38,1.39.23,1.39.23,1.19-.38.99-1,2.01-1.33l-3.39,1.09Z"/>
    <path id="path1555" class="cls-1" d="M552.74,1300.49s.06.17-.17-.52h0c-.72-2.24,1.99-2.34,2.7-3.35.77-.25.55-.94,1.33-1.19.66-1.14.94-.3,1.71-.55l-.37-1.14q.61-1.04,1.41-2.13c1.72-.56,3-.13,3.61-1.16.86-.28,1.35-2.3,3.24-2.9.86-.28,1.1.49,2.27,1.13,1.27.43,2.75-.89,3.48-2.14l2.75-.89c1.72-.56,2.51-1.65,4.48-1.44,1.03-.33,1.33.59,2.44,1.07q-.54-1.68.31-1.96c1.03-.33,2.19.31,2.44,1.07.61-1.04,1.65-1.37,2.75-.89l.32.99,2.31-.75c1.83-.74,2.3.73,2.3.73l3.59-1.16s.82-.26,1.05.47q.82-.26,1.1.62c.98-.31,2.03.16,2.84-.1,2.03.16,3.13.78,5.39,1.67,0,0,1.1.62,2.07.3,0,0-.28-.88.82-.26,0,0,.24.73,1.05.47q1.21.42,2.03.16c1.1.62,2.31,1.04,3.13.78.24.73,1.34,1.35,2.55,1.77.82-.26,1.79-.58,2.84-.1.28.88.52,1.62,1.1.62l1.79-.58.82-.26.49,1.52,6.57-2.12c.86-.28,1.94.21,2.96-.11,1.15.65,3.86-.23,4.53-1.03l-.86.28-2,.22-1.16-.67-1.87.6-1.88-.03c-3.01-.05-2.96.11-2.96.11l-.98.31-1.71.55s-1.88.61-2.99.11c-1.28-.44-3.29-.81-3.29-.81l-1.52-1.21-1.94.62-2.17-1.1-2.87.1-1.51-1.31-1.4.45-2.03-.16-1.1-.62-2.03-.16-1.05-.47-2.07-.3-2.09-.94-3.81.27-3.06-.62-2.88-.05-2.03-.16-2.1.68-4.6-1.47-3.57,1.15-2.71.87-1.87.6-3.57,1.15-2.32,2.1c-2.47,1.64-2.25,2.32-2.25,2.32l-2.71.87-3.72,1.29-.56,1.2-1.63,1.36-.61,1.04-1.33,2.29-1.15,2.23-.77,1.09-.61,1.04-1.08,3.05-.31,1.96v1.88s.48,1.52.48,1.52l-.79,2.11.54,1.68.49,1.52-.55,2.88.54,1.68.79,2.45.54,1.68.49,1.52,1.09,3.37,1.58,3.03,1.03.51.3.92s1.33.41,2.43.9h0c-3.75-2.33-5.81-5.22-5.02-9.18-.25-.76-1.89-1.07-1.89-1.07l-.43-1.32-.25-.79c-.56-1.75.81-4.13,1.44-5.2-.25-.79-1.45-1.47-1.7-2.25s1.76-.57,1.2-2.32c-.25-.79-1.14-.5-1.39-1.31.32-2.03,1.63-1.57,2.26-2.66-1.94.62-2.19-.16-1.7-2.25.63-1.07,2.57-1.7,3.14-2.94-.88.28-1.63,1.57-1.94.62-.88.28-.51-1.59-.51-1.59.76-1.31,1.95-.64,2.52-1.88Z"/>
    <path id="path1556" class="cls-1" d="M648.3,1293.41c-.52,1.85.02,3.53-1.74,4.47l-2.71.87c-.63,1.53.63,1.96-.38,2.29-.61,1.04-2.23,2.97-2.23,2.97l2.03-.65.86-.28c-.16-.51-1.02-.23-1.27-1.01h0l2.12.16h0l1.63-1.36c.61-1.04.84-.33.84-.33l1.87-.6c.54-1.8,1.4-2.07.9-3.61.77-1.09,1.63-1.36,1.33-2.29h0c-1.35-1.25-.99-1.36-.99-1.36l-.25-.76-1.62-.32c-1.35-1.25-.45-1.54-.45-1.54l-.3-.92-1.6,1.53q1.48,1.2,1.97,2.73Z"/>
    <path id="path1557" class="cls-1" d="M553.26,1298.55c2.12.16,2.59-1.85,4.46-2.46.86-.28,1.87-.6,1.63-1.36q.56-1.2-.59-1.83l-5.49,5.65Z"/>
    <path id="path1558" class="cls-1" d="M560.62,1291.12c.3.92,1.56,1.36,2.57,1.03l.61-1.04c1.02-.33,1.57-1.52,1.57-1.52,2.03-.65,1.31.59,2.57,1.03-.25-.76-.54-1.68.31-1.96.77-1.09,1.63-1.36.47-2.01-1.31-.59-2.17-.32-3.18,0-1.57,1.52-3.15,3.04-4.93,4.47Z"/>
    <path id="path1559" class="cls-1" d="M572.59,1286.41s2.12.16,2.96-.11c1.31.59,2.17.32,3.01.05,1.02-.33,1.57-1.52,2.71-.87,1.02-.33,2.12.16,2.96-.11-1.1-.49-2.24-1.14-2.78-2.82-2.71.87-4.88.56-7.3,2.35l-1.56,1.52Z"/>
    <path id="path1560" class="cls-1" d="M585.21,1283.73c1.02-.33,1.7,1.81,2.86,2.46.86-.28.56-1.2,1.57-1.52.86-.28,1.99.38,1.99.38-.64-1.99-3.01-.05-3.7-2.19,0,0-2.73.88-2.73.88Z"/>
    <path id="path1561" class="cls-1" d="M591.43,1284.39q1.26.43,1.51,1.2c1.26.43,0,0,2.03-.65.86-.28,2.36.92,2.56,1.54,1.02-.33.57-1.7,1.67-1.22-.25-.76-2.61-1.7-3.63-1.37l-4.14.51Z"/>
    <path id="path1562" class="cls-1" d="M598.48,1286.83c1.02-.33,1.33-2.29,3.57-1.15l.86-.28c1.1.49.86-.28,1.7-.55-1.4-1.41-5.38-2.14-7.24-1.55l1.12,3.52h0Z"/>
    <path id="path1563" class="cls-1" d="M608.37,1285.78c.3.92.54,1.68,1.8,2.12.52-1.85,3.55.54,4.64,1.04l1.02-.33,1.26.43q1.02-.33,1.63-1.36c-2.12-.16-3.38-.59-5.5-.77-1.26-.43-2.52-.87-3.55-.54l-1.3-.6Z"/>
    <path id="path1564" class="cls-1" d="M551.81,1299.86c1.05.34,2.07.01,3.28.3,1.05.34.2.61-.82.94-1.87.6-4.1.64-4.92,1.58l2.45-2.83Z"/>
    <path id="path1565" class="cls-1" d="M549.59,1312.73c.86-.28,2.17.32,2.71-.87.79,2.45-3.44,2.13-4.46,2.46l1.75-1.58Z"/>
    <path id="path1566" class="cls-1" d="M551.35,1326.35c.3.92,1.69,2.33,2.78,2.82.3.92.54,1.68,1.56,1.36,1.15.65,1.99.38,1.99.38-.31,1.96-.07,2.72,1.03,3.21-.86.28-3.5-1.57-3.75-2.33q-1.15-.65-1.4-1.41c-1.15-.65-2.71-2-2.96-2.76l.73-1.25Z"/>
    <path id="path1567" class="cls-2" d="M574.23,1293.8c1.02-.33,1.63-1.36,1.87-.6.86-.28,1.1.49,1.1.49l1.02-.33c1.45-1.31,3.57-1.15,4.85-.04,1.67-1.22,1.18-2.74,1.53-4.55l-10.37,5.04Z"/>
    <path id="path1568" class="cls-2" d="M573.4,1293.58c-.77,1.09-1.54,2.18-1.04,3.71-1.02.33-3.06.99-4.57-.21l5.61-3.5Z"/>
    <path id="path1569" class="cls-2" d="M565.56,1299.49c1.53,4.74-2.11,5.08-5.01,7.69l5.01-7.69Z"/>
    <path id="path1570" class="cls-2" d="M562.29,1316.07c.86-.28,1.45-1.31.07-2.72-2.29-1.28-4.25,1.37-5.02,2.46l4.95.26Z"/>
    <path id="path1571" class="cls-2" d="M575.57,1332.88c.18-2.93,2.17-2.56,4.29-2.4.3.92,4.95,3.13,2.48,4.78l-6.77-2.38Z"/>
    <path id="path1572" class="cls-2" d="M613.58,1317.11c-.25-.76-1.26-.43-.49-1.52.86-.28,1.7-.55,2.42-1.8l.86-.28c.86-.28,3.01.05,3.86-.23l-6.64,3.82Z"/>
    <path id="path1573" class="cls-2" d="M629.13,1306.03c-.25-.76,2.47-1.64,3.5-1.97q.61-1.04,1.21-2.07l2.71-.87c1.02-.33,3.5-1.97,4.83-.72,1.1.49.49,1.52-1.38,2.13-1.7.55-4.41,1.42-6.94,2.91l-3.93.59Z"/>
    <path id="path1574" class="cls-2" d="M628.77,1293.29c1.02-.33,2.46,1.23,3.3.96.72-1.25.98-3.36,1.53-4.55l-4.83,3.59Z"/>
    <path id="path1575" class="cls-2" d="M616.84,1295.79c.67-1.4,1.69-1.72,3.56-2.33,1.2.79,1.5,1.72,2.81,2.3,1.02-.33,3.44-2.13,1.95-3.83-.3-.92-3.18,0-3.18,0-2.22-.47-3.23-.14-5.1.46l-.03,3.39Z"/>
    <path id="path1576" class="cls-2" d="M605.84,1291.9c1.4,1.41,3.09.86,4.18,1.35,1.1.49,1.35,1.25,2.44,1.75.86-.28,3.64-.33,4.25-1.37,1.03-2.01-4.38-1.97-5.48-2.45l-5.39.72Z"/>
    <path id="path1577" class="cls-2" d="M595.7,1290.67c2.17.32,2.46,1.23,3.55,1.73,1.4,1.41,2.24,1.14,3.94.59-.54-1.68-1.64-2.17-1.38-4.28l-6.11,1.97h0Z"/>
    <path id="path1578" class="cls-10" d="M642.15,1308.05c-1.87.6-3.01-.05-4.04.28-1.4,1.47-2.42,1.8-3.03,2.83l-7.62,2.45c-.82.26-1.38,1.26-2.36,1.57-.53,1.14-1.33,1.4-2.31,1.72-.82.26-.58,1-1.38,1.26-1.55,1.31-3.33,1.88-4.84,3.33-1.38,1.26-2.94,2.55-4.44,4.01-1.79.58-3.41,1.1-4.96,2.41-1.79.58-2.36,1.57-4.15,2.15-1.51,1.46-3.41,1.1-5.2,1.68-.53,1.14-2.08,2.44-3.87,3.02l-6.97,2.25c-2.59.84-4.96,2.41-6.97,2.25-2.59.84-4.38,1.41-7.21,1.51-1.62.52-4.67.53-6.28,1.05-2.03-.16-4.32-1.19-6.19-1.4-2.03-.16-4.08-.45-5.37-1.66-2.07-.3-2.54-1.76-3.86-3.11-1.21-.42-2.54-1.76-3.06-3.36-1.44-1.14-.99-3.07-1.51-4.68-.47-1.46-1.97-2.76-2.48-4.36.51-1.77.8-3.65.28-5.25l-1.35-4.2c.53-1.84.83-3.78.59-4.54.3-1.94-.23-3.61.54-4.69.3-1.94.9-2.97,1.67-4.05.55-1.18,1.07-3.03,1.62-4.21,1.61-1.36,2.45-1.63,4.06-2.97.55-1.18,1.15-2.21,1.92-3.3,1.56-1.51,4.25-2.37,5.93-2.92,2.45-1.63,4.06-2.97,5.62-4.49,1.86-.6,3.83-.23,6.69-1.15l6.23-2.01c2.1.16,4.19.32,5.87-.23,2.15.31,3.99-.28,5.92-.07,1.26.43,2.4,1.07,3.4.75,1.09.49,2.94-.11,4.03.37.84-.27,2.15.31,3.24.8,1.02-.33,2.1.16,2.94-.11,1.31.58,2.4,1.07,3.48,1.56,1.02-.33,1.86-.6,2.15.31,2.1.16,3.19.64,5.33.97,1.09.49,2.1.16,4.03.37,1.31.58,2.64,1.83,4.78,2.15,1.09.49,2.7-.87,4.54-1.46,1.09.49,3.19.64,4.03.37,1.31.58,2.99.04,3.99-.28.84-.27,1.93.22,4.03.37.84-.27,1.86-.6,3.99-.28,1.09.49,1.63,2.16,2.71,2.64,1.26.43,2.94-.11,4.24.48.25.76.49,1.51,1.87,2.91.25.76,1.38,1.4,1.63,2.16.54,1.67-.06,2.7-.66,3.72-.72,1.24-.23,2.76-1.92,3.3-.72,1.24-1.56,1.51-3.41,2.1-.6,1.03-1.37,2.11-2.21,2.38l-2.42.78s-.72,1.25-1.57,1.52"/>
    <path id="path1579" class="cls-7" d="M581.76,1306.76c.89,2.75,3.9,2.8,6.62,1.92"/>
    <path id="path1580" class="cls-7" d="M583.43,1309.6c.49,1.52.3,3.28-.38,3.5"/>
    <path id="path1581" class="cls-7" d="M587.99,1307.45c.25.76.99,3.06,2.55,3.24"/>
    <path id="path1582" class="cls-7" d="M592.37,1309.42c-1.45,1.31-2.65,3.39-2.21,4.77"/>
    <path id="path1583" class="cls-7" d="M580.14,1313.36c2.12.16,2.61,1.7,3.9,2.8"/>
    <path id="path1584" class="cls-7" d="M579.44,1308.85c1.45-1.31,3.29-3.76,2.7-5.59"/>
    <path id="path1585" class="cls-7" d="M584.96,1305.05c1.61,1.5,3.22,3.02,5.94,2.14"/>
    <path id="path1586" class="cls-7" d="M591.45,1307.69c-1.15,2.23,1.33,4.13,3.27,4.34"/>
    <path id="path1587" class="cls-7" d="M600.05,1312.34c.49,1.52-.71,3.61-2.41,4.15"/>
    <path id="path1588" class="cls-7" d="M600.17,1315c.88.4,1.76.79,1.95,1.39"/>
    <path id="path1589" class="cls-7" d="M597.43,1311.16c1.61,1.5,4.67.52,6.4-1.05"/>
    <path id="path1590" class="cls-7" d="M595.47,1309.76c-.27,2.11.28,3.79-1.33,5.15"/>
    <path id="path1591" class="cls-7" d="M589.58,1304.24c-.03,3.39,2.59,4.56,5.32,3.68"/>
    <path id="path1592" class="cls-7" d="M588.37,1303.95c1.61,1.5,4.04-.28,5.74-.83"/>
    <path id="path1593" class="cls-7" d="M591.17,1301.03c2.17.32,3.9,2.8,3.64,4.9"/>
    <path id="path1594" class="cls-7" d="M578.45,1303.43c1.51,1.2,3.9-1.26,4.46-2.46"/>
    <path id="path1595" class="cls-7" d="M577.96,1301.91c.3.92,1.13,3.51.02,4.72"/>
    <path id="path1596" class="cls-7" d="M573.64,1302.46c2.45.05,5.44-1.75,4.9-3.44"/>
    <path id="path1597" class="cls-7" d="M582.4,1318.03c.56-1.2,1.96-2.65,2.8-2.92"/>
    <path id="path1598" class="cls-7" d="M584.61,1313.26c.54,1.68,2.1,3.04,4.29,4.02"/>
    <path id="path1599" class="cls-7" d="M587.92,1314.23c2.03-.65,2.87,1.95,3.41,3.62"/>
    <path id="path1600" class="cls-7" d="M597.89,1305.62c-.44.98.06,2.52,1.67,2.84"/>
    <path id="path1601" class="cls-7" d="M598.48,1307.45c-1.02.33-1.83,1.27-1.63,1.88"/>
    <path id="path1602" class="cls-7" d="M605.48,1305.87c.54,1.68,1.33,4.13,4.29,4.02"/>
    <path id="path1603" class="cls-7" d="M607.52,1309.93c-.86.28-1.5,1.16-2.32,2.1"/>
    <path id="path1604" class="cls-7" d="M612.96,1308.18c.49,1.52.17,4-2.02,5.37"/>
    <path id="path1605" class="cls-7" d="M613.26,1311.46c1.87-.6,2.91-.26,3.11.36"/>
    <path id="path1606" class="cls-7" d="M600.69,1302.68c-.44.98.74,2.3,1.67,2.84"/>
    <path id="path1607" class="cls-7" d="M598.94,1301.9c2.29,1.28,3.52-.12,5.05-.61"/>
    <path id="path1608" class="cls-7" d="M602.82,1299.97c1.26.43,1.76,1.97,3.02,2.41"/>
    <path id="path1609" class="cls-8" d="M549.9,1314.83c3.31-.22,4.92-1.58,6.25-3.87"/>
    <path id="path1610" class="cls-8" d="M552.84,1310c1.49.54,4.18,1.35,5.98-.07"/>
    <path id="path1611" class="cls-7" d="M608.78,1306.83c2.38.41,6.08,1.42,6.45-.9"/>
    <path id="path1612" class="cls-8" d="M550.01,1310.57c2.5.21,4.41-1.42,5.14-2.67"/>
    <path id="path1613" class="cls-8" d="M557.67,1306.42c.79,2.45,3.34,1.62,4.86,1.13"/>
    <path id="path1614" class="cls-7" d="M566.5,1303.58c1.22,1.46,2.45,2.93,1.58,4.89"/>
    <path id="path1615" class="cls-7" d="M567.97,1305.8c1.7-.55,2.55-.82,3.79.14"/>
    <path id="path1616" class="cls-7" d="M563.99,1305.05c1.7-.55,3-2.32,3.29-3.76"/>
    <path id="path1617" class="cls-7" d="M561.26,1305.93c1.95,1.39,2.25,2.31,3.14,5.07"/>
    <path id="path1618" class="cls-8" d="M552.52,1306.73c1.61,1.5,4.67.52,6.3-1.35"/>
    <path id="path1619" class="cls-8" d="M551.37,1307.78c2.03-.65,3.33-3.61,3.09-4.37"/>
    <path id="path1620" class="cls-8" d="M550.87,1303.88c2.03-.65,5.09-1.64,6.89.48"/>
    <path id="path1621" class="cls-7" d="M613.08,1302.74c-.52,1.85,2.86,2.46,4.73,1.85"/>
    <path id="path1622" class="cls-7" d="M614.58,1301.58c-1.33,1.11-2.66,2.22-4.56,2.15"/>
    <path id="path1623" class="cls-7" d="M612.23,1298.96c.49,1.52,3.54,2.24,4.82.98"/>
    <path id="path1624" class="cls-7" d="M582.65,1328.08c-.44-1.38-2.2-3.35-5.26-2.36"/>
    <path id="path1625" class="cls-7" d="M579.62,1325.68c.77-1.09,1.54-2.18,1.24-3.1"/>
    <path id="path1626" class="cls-7" d="M574.19,1327.43c-.49-1.52-1.03-3.21-.21-5.33"/>
    <path id="path1627" class="cls-7" d="M573.4,1324.98c-.86.28-1.9-.07-3.11-.36"/>
    <path id="path1628" class="cls-7" d="M587.03,1330.05c-.49-1.52-.74-2.3-1.67-2.84"/>
    <path id="path1629" class="cls-8" d="M589.45,1330.61c-2.29-1.28-3.86.23-5.44,1.75"/>
    <path id="path1630" class="cls-8" d="M585.3,1333.98c-.3-.92-1.67-2.84-2.35-2.62"/>
    <path id="path1631" class="cls-7" d="M577.88,1327.26c-1.7.55-4.55.45-5.62,3.49"/>
    <path id="path1632" class="cls-8" d="M575.77,1332.32c-1.35-1.25-3.5-1.57-5.54-.91"/>
    <path id="path1633" class="cls-8" d="M574.12,1334.21c.52-1.85,2.1-3.38,3.97-3.98"/>
    <path id="path1634" class="cls-8" d="M576.95,1335.99c-.79-2.45-3.5-1.57-5.15.3"/>
    <path id="path1635" class="cls-8" d="M560.04,1313.76c.46-1.5,2.55-.82,4.27-.7"/>
    <path id="path1636" class="cls-8" d="M559.88,1301.66c.54,1.68,2.49,1.9,3.94.59"/>
    <path id="path1637" class="cls-8" d="M561.02,1303.32l.43,1.34"/>
    <path id="path1638" class="cls-8" d="M642.93,1296.5c-1.11,2.38-2.51,3.85-.78,6.33"/>
    <path id="path1639" class="cls-8" d="M641.59,1301.65c-1.25-.95-2.95-.41-3.79-.14"/>
    <path id="path1640" class="cls-7" d="M572.57,1313.1c-1.11,2.38-2.98,2.98-5.14,2.67"/>
    <path id="path1641" class="cls-7" d="M571.11,1316.3l.43,1.34"/>
    <path id="path1642" class="cls-8" d="M644.46,1291.95c-2.2.71-3.1,2.02-2.61,3.54"/>
    <path id="path1643" class="cls-8" d="M643.19,1290.34c.59,1.83,2.83,2.97,4.77,3.18"/>
    <path id="path1644" class="cls-8" d="M648.05,1291.47c-.44.98-.62,2.74-.38,3.5"/>
    <path id="path1645" class="cls-7" d="M564.79,1312.23c-.44.98-.87,1.96-.38,3.5"/>
    <path id="path1646" class="cls-8" d="M552.85,1314.72c.93.54,1.42,2.08,1.67,2.84"/>
    <path id="path1647" class="cls-8" d="M553.91,1299.36c1.26.43,4.76-1.53,4.21-3.22"/>
    <path id="path1648" class="cls-8" d="M555.99,1298.85c.2.61,1.08,1.01,1.27,1.61"/>
    <path id="path1649" class="cls-8" d="M560.52,1292c.49,1.52,1.76,1.97,3.7,2.19"/>
    <path id="path1650" class="cls-8" d="M561.99,1294.22c-.68.22-1.16,1.05-.97,1.67"/>
    <path id="path1651" class="cls-8" d="M567.93,1296.36c.54,1.68,2.82,1.79,4.86,1.13"/>
    <path id="path1652" class="cls-7" d="M569.52,1297.64l.86,2.67"/>
    <path id="path1653" class="cls-7" d="M570.22,1310.48c2.4-.1,4.41-1.42,5.24-2.37"/>
    <path id="path1654" class="cls-7" d="M573.39,1309.66l.86,2.67"/>
    <path id="path1655" class="cls-7" d="M578.42,1317.29c.69,2.14,1.03,3.21,2.06,4.06"/>
    <path id="path1656" class="cls-7" d="M579.4,1320.35c-1.36.44-2.71.87-2.32,2.1"/>
    <path id="path1657" class="cls-8" d="M550.95,1322.77c.59,1.83,2.62,1.18,4.67.52"/>
    <path id="path1658" class="cls-8" d="M552.83,1323.66l1.29,4.01"/>
    <path id="path1659" class="cls-8" d="M559.38,1318.69c.2.61.4,1.23-.09,2.05"/>
    <path id="path1660" class="cls-8" d="M559.78,1319.92c.82-.94,1.83-1.27,1.83-1.27"/>
    <path id="path1661" class="cls-7" d="M582.79,1298.33c.3.92,1.95,1.39,2.62,1.18"/>
    <path id="path1662" class="cls-7" d="M584.64,1297.05c.59,1.83,2.15,3.19,4.09,3.4"/>
    <path id="path1663" class="cls-7" d="M585.68,1293.34c2.12.16,3.45,1.42,3.9,2.8"/>
    <path id="path1664" class="cls-7" d="M588.52,1295.13c.82-.94,1.67-1.22,2.51-1.49"/>
    <path id="path1665" class="cls-7" d="M593.49,1298.92c.72-1.25,1.28-2.43,1.53-4.55"/>
    <path id="path1666" class="cls-7" d="M594.46,1297.27c.68-.22.98.7,1.95,1.39"/>
    <path id="path1667" class="cls-8" d="M558.26,1308.25c.49,1.52.74,2.3-.38,3.5"/>
    <path id="path1668" class="cls-8" d="M548.8,1320.76c.86-.28,3.2-1.71,3-2.32"/>
    <path id="path1669" class="cls-8" d="M550.16,1320.32c1.36-.44,1.66.48,1.95,1.39"/>
    <path id="path1670" class="cls-7" d="M563.72,1322.87c1.2.79,3.05-2.16,3.04-4.52"/>
    <path id="path1671" class="cls-7" d="M565.51,1321.45q1.08,1.01,2.15,2.01"/>
    <path id="path1672" class="cls-7" d="M586.5,1321.44c1.15.65,2.29,1.28,3.98.74"/>
    <path id="path1673" class="cls-7" d="M587.77,1323.05s-.38,1.14.59,1.83"/>
    <path id="path1674" class="cls-7" d="M595.1,1322.55c2.12.16,3.5-1.97,4.9-3.44"/>
    <path id="path1675" class="cls-7" d="M597.87,1321.82c1.56.18,1.76.79,1.95,1.39"/>
    <path id="path1676" class="cls-7" d="M593.69,1322.29l.86,2.67"/>
    <path id="path1677" class="cls-7" d="M605.34,1319.41c.86-.28,2.06-2.35,2.61-3.54"/>
    <path id="path1678" class="cls-7" d="M606.3,1317.76c1.02-.33,2.33.27,2.62,1.18"/>
    <path id="path1679" class="cls-7" d="M619.85,1308.65c.25.76,2,2.73,3.7,2.19"/>
    <path id="path1680" class="cls-7" d="M621.81,1310.06c-1.02.33-1.73,1.58-1.44,2.49"/>
    <path id="path1681" class="cls-7" d="M625.58,1305.47c2.13-1.53,1.59-3.21,2.02-5.37"/>
    <path id="path1682" class="cls-7" d="M627.02,1302.97c1.19-.38,3-2.32,3.79.14"/>
    <path id="path1683" class="cls-7" d="M601.54,1295.99c1.4-1.47,3.64-.33,3.88.43"/>
    <path id="path1684" class="cls-7" d="M605.91,1295.6c-1.61-.32-.79-2.45.57-2.88"/>
    <path id="path1685" class="cls-8" d="M611.14,1293.23c1.31.59,1.8,2.12,3.5,1.57"/>
    <path id="path1686" class="cls-7" d="M612.22,1294.24c-.86.28-1.4,1.47-2.12,2.7"/>
    <path id="path1687" class="cls-7" d="M619.03,1296.77c2.28.11,3.02,2.41,2.2,3.35"/>
    <path id="path1688" class="cls-7" d="M621.85,1298.56q.29-1.45.97-1.67"/>
    <path id="path1689" class="cls-7" d="M631.36,1295.49c2.12.16,3.45,1.42,2.86,2.46"/>
    <path id="path1690" class="cls-7" d="M633.11,1296.28c.82-.94,1.47-1.83,2.51-1.49"/>
    <path id="path1691" class="cls-7" d="M630.77,1293.66c.25.76.74,2.3-.18,4.11"/>
    <path id="path1692" class="cls-8" d="M627.75,1293.62c1.15.65,3.1-2.02,3.78-2.24"/>
    <path id="path1693" class="cls-8" d="M608.52,1292.06c2.17.32,3.3.96,5.74-.83"/>
    <path id="path1694" class="cls-7" d="M583.17,1294.83c1.7-.55,2.9-2.62,2.41-4.15"/>
    <path id="path1695" class="cls-8" d="M567.82,1293.7c1.83-1.27,2.86-1.6,3.88-1.93"/>
    <path id="path1696" class="cls-8" d="M570.47,1291.43l-.43-1.34"/>
    <path id="path1697" class="cls-8" d="M574.98,1288.01c1.05.34,3.59-.48,4.27-.7"/>
    <path id="path1698" class="cls-8" d="M576.72,1287.94l.43,1.34"/>
    <path id="path1699" class="cls-7" d="M575.5,1296.62c1.7-.55,3.58-2.84,3.29-3.76"/>
    <path id="path1700" class="cls-7" d="M578.02,1295.13c.2.61.88.4,1.08,1.01"/>
    <path id="path1701" class="cls-8" d="M578.39,1291.63c.4,1.23,1.41.9,2.62,1.18"/>
    <path id="path1702" class="cls-8" d="M582.73,1284.16c.2.61,1.41.9,2.62,1.18"/>
    <path id="path1703" class="cls-8" d="M585.85,1284.51c-.77,1.09-1.54,2.18-1.04,3.71"/>
    <path id="path1704" class="cls-8" d="M588.86,1286.92c1.31.59,2.57,1.03,1.8,2.12"/>
    <path id="path1705" class="cls-8" d="M590.14,1288.53c.82-.94,1.67-1.22,2.51-1.49"/>
    <path id="path1706" class="cls-8" d="M558.16,1326.52c.93.54,1.42,2.08.99,3.06"/>
    <path id="path1707" class="cls-8" d="M559.62,1328.75s1.16-1.05,2.51-1.49"/>
    <path id="path1708" class="cls-8" d="M560.43,1333.55c1.31.59,2.76-1.91,3.78-2.24"/>
    <path id="path1709" class="cls-8" d="M563.24,1332.98c.2.61.4,1.23,1.08,1.01"/>
    <path id="path1710" class="cls-8" d="M564.44,1328.55c-.43,2.16,1.13,3.51,3.08,3.73"/>
    <path id="path1711" class="cls-8" d="M595.76,1287.39c.25.76,1.76,1.97,3.02,2.41"/>
    <path id="path1712" class="cls-8" d="M597.03,1289c-.68.22-1.36.44-1.83,1.27"/>
    <path id="path1713" class="cls-8" d="M599.08,1288.34c-.44.98.06,2.52,1.18,3.67"/>
    <path id="path1714" class="cls-8" d="M605.38,1286.99c1.31.59,1.56,1.36,3.5,1.57"/>
    <path id="path1715" class="cls-8" d="M606.65,1288.6c-.68.22-.48.83-.48.83"/>
    <path id="path1716" class="cls-8" d="M608.29,1286.73c.25.76.74,2.3,1.67,2.84"/>
    <path id="path1717" class="cls-8" d="M619.29,1290.61c1.61.32,2.1,1.86,2.55,3.24"/>
    <path id="path1718" class="cls-8" d="M621.44,1292.61c1.02-.33,1.63-1.88,2.03-.65"/>
    <path id="path1719" class="cls-8" d="M635.21,1288.85c.93.54,2.52.87,3.02,2.41"/>
    <path id="path1720" class="cls-8" d="M637.65,1289.42l1.16-1.05"/>
    <path id="path1721" class="cls-8" d="M631.11,1306.38c1.05.34,2.35-1.44,3.88-1.93"/>
    <path id="path1722" class="cls-8" d="M633.16,1305.72q1.36-.44,1.56.18"/>
    <path id="path1723" class="cls-8" d="M603.33,1324.79c1.02-.33,1.63-1.36,1.92-3.32"/>
    <path id="path1724" class="cls-8" d="M603.8,1323.96c1.21.29,2.23-.04,2.23-.04"/>
    <path id="path1725" class="cls-8" d="M613.83,1316.67c1.21.29.59,1.83-1.79,2.6"/>
    <path id="path1726" class="cls-7" d="M611.45,1317.44c1.02-.33,2.76-1.91,3.49-3.14"/>
    <path id="path1727" class="cls-7" d="M574.52,1314.49c1.39.23,2.58-.15,3.59-.48"/>
    <path id="path1728" class="cls-7" d="M576.07,1314.67s-1.07,1.36-.77,2.27"/>
    <path id="path1729" class="cls-7" d="M577.57,1336.34l-2.32.75-1.87.6-4.67.62c-4.53-1.24-4.34-.66-4.34-.66l-.86.28-1.45-1.01-4.36-1.3-3.06-1.71-.3-.92-.69-.62c-2.05-2.88-1.93-2.92-1.93-2.92l-1.03-3.21-.54-1.68-.54-1.68-.79-2.45-.49-1.52.55-2.88-.54-1.68-.49-1.52.79-2.11-.54-1.68.44-1.82.31-1.96,1.08-3.05.61-1.04.77-1.09,1.33-2.29,1.15-2.23.77-1.09,1.45-1.31.72-1.25c3.32-1.91,3.44-1.54,3.44-1.54l2.71-.87,2.35-2.01c2.59-1.85,2.82-1.13,2.82-1.13l3.57-1.15,1.87-.6,2.71-.87,3.57-1.15,4.17.13,2.32-.75,1.85.21,2.88.05,3.22.52,3.69-.22,2.26.88,1.9.36,1.21.42,2.03.16,1.1.62,2.03.16,1.24-.4,1.35,1.26,3.21-.02,2.21.99,1.98-.64,1.35,1.36s2.06.16,3.16.78c1.23.43,3.05-.16,3.05-.16l1.76-.57,1.02-.33,3.01.03c2.17.32,2.01-.18,2.01-.18l1.7-.55,1.42.93c1.94.21,1.72-.47,1.72-.47l1.87-.6,1.53,1.28,1.1.49,4.6,2.06,1.56,1.36c1.1.49,1.11.48,1.11.48l.25.76,1.37,1.42h0c.25.76-.61,1.04-1.15,2.23.49,1.52-.52,1.85-1.05,3.14l-1.87.6-.64.94c-1.63,1.36-1.66,1.27-1.66,1.27l-1.87.6-1.7.55-1.87.6-.86.28h0l-1.02.33-2.71.87-2.71.87-.42,1.61-1.02.33-2.71.87-1.71,1.88.04.13-.92.3-2.04.66-1.53,1.6-.84,1.19-4.74,2.44-2.64,1.96-2.43,2.63c-2.97.96-1.07.34-1.07.34l-2.28,2.21-1.87.6-2.28,2.21-1.87.6-2.71.87-2.73.83c-1.63,1.36-1.43,1.98-1.43,1.98l-3.57,1.15-2.71.87-2.71.87-4.58,1.48-4.83.72"/>
  </g>
</svg>