<?xml version="1.0" encoding="UTF-8"?>
<svg id="svg3" xmlns="http://www.w3.org/2000/svg" viewBox="0 0 1398.49 3639.87">
  <defs>
    <style>
      .cls-1 {
        fill: #e39dbe;
      }

      .cls-1, .cls-2, .cls-3, .cls-4, .cls-5, .cls-6, .cls-7, .cls-8, .cls-9, .cls-10, .cls-11, .cls-12, .cls-13, .cls-14, .cls-15, .cls-16, .cls-17, .cls-18, .cls-19, .cls-20, .cls-21, .cls-22 {
        fill-rule: evenodd;
      }

      .cls-2 {
        fill: #e5aabc;
      }

      .cls-3 {
        fill: #de869e;
      }

      .cls-23, .cls-24, .cls-25, .cls-26, .cls-27, .cls-28, .cls-29, .cls-30 {
        fill: none;
      }

      .cls-23, .cls-26 {
        stroke-linejoin: round;
      }

      .cls-23, .cls-26, .cls-27, .cls-29, .cls-30 {
        stroke-linecap: round;
      }

      .cls-23, .cls-26, .cls-29, .cls-30 {
        stroke: #494e4e;
      }

      .cls-23, .cls-27, .cls-29 {
        stroke-width: .52px;
      }

      .cls-4 {
        fill: #ebc3d1;
      }

      .cls-5 {
        fill: #fff;
      }

      .cls-24 {
        stroke: #e5aabc;
      }

      .cls-24, .cls-25, .cls-27, .cls-28, .cls-29, .cls-30 {
        stroke-miterlimit: 8;
      }

      .cls-24, .cls-25, .cls-28 {
        stroke-width: .84px;
      }

      .cls-25 {
        stroke: #f3d6cc;
      }

      .cls-26 {
        stroke-width: .32px;
      }

      .cls-6 {
        fill: #dc7890;
      }

      .cls-7 {
        fill: #ce8bae;
      }

      .cls-27 {
        stroke: #bb8777;
      }

      .cls-8 {
        fill: #f3d6cc;
      }

      .cls-28 {
        stroke: #e39dbe;
      }

      .cls-9 {
        fill: #edcdc5;
      }

      .cls-10 {
        fill: #f3e1e7;
      }

      .cls-11 {
        fill: #f9f6f3;
      }

      .cls-12 {
        fill: #e5bbae;
      }

      .cls-30 {
        stroke-width: .68px;
      }

      .cls-13 {
        fill: #e8a0b5;
      }

      .cls-14 {
        fill: #be597b;
      }

      .cls-15 {
        fill: #ecc4d1;
      }

      .cls-16 {
        fill: #e096ac;
      }

      .cls-17 {
        fill: #e9c8be;
      }

      .cls-18 {
        fill: #f1dbd5;
      }

      .cls-19 {
        fill: #e4b9ac;
      }

      .cls-20 {
        fill: #f0cbbd;
      }

      .cls-21 {
        fill: #e5b1c7;
      }

      .cls-22 {
        fill: #edb9c8;
      }
    </style>
  </defs>
  <g id="_생식기" data-name="생식기">
    <path id="path5" class="cls-17" d="M635.67,2026.61c0-30.3,16.91-54.88,37.71-54.88s37.71,24.58,37.71,54.88-16.84,54.88-37.71,54.88-37.71-24.51-37.71-54.88Z"/>
    <path id="path6" class="cls-19" d="M647.44,1986.62s-1.37,5.53,2.93,6.5c7.48,1.63,18.86,9.1,23.41,2.6,4.23-6.5,16.65-15.93,20.87-9.43,3.9,6.5,5.53,19.18,11.7,23.08,6.18,4.29-2.93,13.72,1.95,18.6,4.88,4.88-3.9,29.58-3.9,29.58,0,0,7.15-2.6,8.45-12.68.98-10.4,13.33-14.3,7.8-26.33-6.5-15.02-2.93-17.62-9.75-25.42-8.78-10.73-1.3-18.86-11.05-21.13-9.75-2.6-18.92-12.74-28.35-8.78-9.43,4.23-14.63,24.71-24.06,23.41Z"/>
    <path id="path7" class="cls-9" d="M701.73,2059.83c-7.8,15.28-23.73,22.69-35.76,16.58-12.35-5.85-7.15-18.86.33-34.07,7.8-15.28,17.23-30.56,29.58-24.38,12.03,5.85,13.65,26.33,5.85,41.87Z"/>
    <path id="path8" class="cls-11" d="M666.36,2073.29s26.33,16.26,37.97-29c0,0-10.34,35.18-37.97,28.35,0,0,0,.65,0,.65Z"/>
    <path id="path9" class="cls-12" d="M651.21,1971.21c-5.85-.98-7.48,17.23,0,19.51,7.48,2.6,18.86,9.1,23.41,2.6,4.23-6.5,16.58-15.93,20.81-9.43,3.9,6.5,6.5,19.18,12.68,23.08,6.18,4.23-2.6,13,2.28,17.88s-5.53,32.45-5.53,32.45c0,0,9.75-1.95,11.05-12.29.98-10.08,11.05-16.91,5.53-28.93-5.2-11.7,2.6-15.93-6.5-26.66-8.78-10.4-4.55-17.56-14.3-19.83-9.75-2.6-18.86-12.68-28.28-8.78-9.43,4.23-11.7,11.7-21.13,10.4Z"/>
    <path id="path10" class="cls-27" d="M655.83,1973.94c6.44,2.34,8.32,9.88,8.32,16.13"/>
    <path id="path11" class="cls-27" d="M693.28,1976.02c-4.75-5.2-10.86,1.24-12.48,5.72"/>
    <path id="path12" class="cls-27" d="M663.69,1983.56c-.33-2.67,2.34-4.68,4.29-5.66,1.63-.72,2.93-1.37,4.55-1.69.98,0,2.6.65,3.58-.72"/>
    <path id="path13" class="cls-27" d="M687.3,1974.46c-1.63-.33-2.93-1.95-4.55-2.6-1.95-1.04-3.25-1.04-5.59-1.04"/>
    <path id="path14" class="cls-27" d="M702.9,1990.33c0,4.62,2.02,7.87,4.94,10.47,2.99,2.28,6.24,5.2,5.92,8.78"/>
    <path id="path15" class="cls-27" d="M682.88,1964.51c-2.86.33-5.46-1.24-8.71-.26-2.28.59-4.23,3.06-5.85,4.23"/>
    <path id="path16" class="cls-27" d="M660.51,1977.39c-2.21.65-4.42-.33-6.63.98-1.63,1.3-2.93,3.25-3.25,5.46"/>
    <path id="path17" class="cls-27" d="M705.57,1997.87c-.33,1.95,4.88.98,6.11,1.3,2.28.33,5.2,1.3,5.79,3.9"/>
    <path id="path18" class="cls-27" d="M675.33,1964.06c2.28.98,3.58,3.38,6.5,3.38"/>
    <path id="path19" class="cls-27" d="M700.82,1974.72c5.14,3.64,6.11,8.65,7.02,14.56"/>
    <path id="path20" class="cls-27" d="M718.12,2018.41c-.33.33.59,1.63.91,2.6.26,1.63,0,3.58-.33,5.2-.59,3.25-2.41,5.85-3.32,9.1"/>
    <path id="path21" class="cls-27" d="M702.51,1977.06c1.95,2.99-2.93,4.36-3.25,7.28"/>
    <path id="path22" class="cls-27" d="M718.77,2020.76c-.91,4.42-5.4,2.08-7.02,4.42"/>
    <path id="path23" class="cls-27" d="M709.14,2051.71c3.64-.91,6.24-8,5.92-10.92"/>
    <path id="path24" class="cls-27" d="M712.39,2048.06c1.69-.98-1.43-4.55-1.04-6.5"/>
    <path id="path25" class="cls-23" d="M651.4,1971.4c-5.92-.98-7.54,16.91,0,19.51,7.15,2.28,18.86,9.1,23.08,2.28,4.55-6.5,16.91-15.93,21.13-9.1,3.9,6.5,6.5,19.18,12.68,23.02,5.85,4.23-2.6,12.68,2.28,17.56,4.88,4.88-5.53,32.77-5.53,32.77,0,0,9.75-1.89,10.73-12.29,1.3-10.08,11.05-17.23,5.85-28.93-5.2-11.96,2.6-15.87-6.5-26.59-9.1-10.73-4.55-17.56-14.3-20.16-9.75-2.28-18.86-12.68-28.28-8.45-9.43,4.23-11.7,11.38-21.13,10.4"/>
    <path id="path26" class="cls-29" d="M704.72,2057.17c-6.76,14.69-18.08,24.45-31.02,24.45-21.07,0-37.91-24.77-37.91-55.07,0-15.67,4.55-29.71,11.7-39.86"/>
    <path id="path27" class="cls-11" d="M664.02,1994.16c5.27,3.32,10.47-1.3,12.74-6.31-1.63,2.02-2.93,4.03-5.2,5.33-2.28,1.37-4.23.98-7.22.98h-.33Z"/>
    <path id="path28" class="cls-11" d="M669.48,1978.3c-1.95-.33-3.64.98-4.62,2.28-1.37,2.21-.33,3.51-.33,5.72,0-1.89,0-3.19.65-5.07.98-2.28,1.69-1.63,3.64-2.93,0,0,.65,0,.65,0Z"/>
    <path id="path29" class="cls-11" d="M654.14,1978.95c1.04-.33,3.77-1.24,4.81-.91,1.69.33,2.34,2.67,2.99,3.84-.33-.85-2.02-2.67-2.99-2.93-1.37-.33-2.73.59-4.42,0h-.39Z"/>
    <path id="path30" class="cls-11" d="M703.55,1992.8c.65,1.3.98,2.93,1.95,3.9s2.28.65,3.25,1.3c-2.28-.98-2.93-2.6-4.88-4.23l-.33-.98Z"/>
    <path id="path31" class="cls-11" d="M709.6,2007.88c.65,1.69,1.24,3.32.98,5.59,0,1.63-.98,3.9-1.3,5.85.65-2.6,3.12-7.8.65-10.08l-.33-1.37Z"/>
    <path id="path32" class="cls-11" d="M699.65,1975.11c1.11,0,1.82,1.3,2.15,2.28.72,1.3,0,1.95-1.04,2.93.72-1.95,1.43-3.9-.72-4.88l-.39-.33Z"/>
    <path id="path33" class="cls-11" d="M690.55,1974.59c-.98,0-2.28,0-3.32.39-.98.33-1.63,1.63-2.67,1.95.72,0,1.37-.65,2.02-.98s.98-.33,1.69-.65c.65,0,1.63-.33,2.28-.33v-.39Z"/>
    <path id="path34" class="cls-11" d="M691.59,1966.53c1.37.98,3.32,1.63,4.94,2.28,1.37.65,3.32.65,4.94,1.63-1.95-.65-3.9-.65-5.59-1.63-1.3-.65-2.6-1.63-4.29-2.28Z"/>
    <path id="path35" class="cls-11" d="M651.99,1971.66c-.65-.33-1.63-.65-2.28-.33s-1.3,1.63-1.95,2.28c-.98,1.63-1.69,4.49-1.3,6.7,0-2.54,1.95-9.62,5.85-8.32l-.33-.33Z"/>
    <path id="path42" class="cls-6" d="M668.38,1820.77c-5.53-2.93-10.4-6.5-13-9.75-8.45-9.1-18.92-3.25-16.58,9.75,1.63,8.78,23.08,23.41,37.06,28.28,13.98,5.2,45.58,28.28,64.76,8.13,19.18-20.48,20.16-44.21,14.3-51.37-1.95-2.6-4.88-2.28-8.78-.65l-77.77,15.61Z"/>
    <path id="path43" class="cls-6" d="M746.21,1805.03c-9.75,4.29-25.03,19.57-44.86,23.47-9.75,2.28-22.76-1.95-32.9-7.8l77.77-15.67Z"/>
    <path id="path46" class="cls-22" d="M709.53,1861.47s12.68,7.15,13,10.73c0,0-16.91-6.18-36.41,2.28-19.51,8.78-108.85,49.42-94.22,169.04,0,0-16.58,7.48-7.8,30.89,8.78,23.41,26.01,54.55,39.01,52.02,0,0,15.93,9.69,23.41-10.08,7.48-19.83,17.82-45.19,3.58-60.14,0,0-14.3-66.97,26.59-99.48,41.29-32.51,79.91-15.61,79.91-59.17,0-15.28-29.19-26.66-29.19-26.66,0,0-6.83-6.18-6.5-10.73l-11.38,1.32Z"/>
    <path id="path47" class="cls-1" d="M651.67,1877.01c-5.2,2.28-10.73,17.88-27.63,32.84-24.71,21.85-48.18,76.27-31.86,133.88,0,0,7.8-5.53,16.91.33,9.1,5.53,24.71,11.7,29.26,11.05,4.88-.65-28.28-94.41,60.47-151.43,22.76-14.3,25.03-16.26,20.81-22.11-4.23-5.92-15.93,3.9-26.98,6.18-10.73,2.28-39.34,9.1-47.14,19.18,0,0,18.86-19.51,12.68-28.61-2.6-3.32-6.5-1.3-6.5-1.3Z"/>
    <path id="path48" class="cls-30" d="M645.55,1906.97s-60.6,48.51-43.69,132.38"/>
    <path id="path53" class="cls-6" d="M709.27,1860.62c.33.98,1.63.98,2.28,1.3,1.63.98,3.58,1.63,4.88,2.93.65.33,1.24.65,1.89,1.3.98.33,1.63.98,2.28,1.63.33.33.65.65.98.98.65,0,.98,0,1.3.33.65.33,1.3,2.28,1.95,1.63.59-.65,0-1.3-.33-1.63-.33-.65-.98-.98-1.3-1.63-.65-.33-.65-.98-.98-1.3-.33-.65-.65-.98-.65-1.3-.33-.33-.33-.98-.65-1.3-.33-.98-.33-1.63-.33-2.6,0-.33.33-.65.33-.98,0-1.63-2.28-2.28-3.25-2.28-2.21-.65-5.79-.65-7.41.98l-.98,1.95Z"/>
    <path id="path54" class="cls-15" d="M604.59,2043.64c3.25-.65,7.8,3.9,10.4,5.53,3.97,2.28,7.87,3.25,12.09,4.23,3.97.98,8.52,2.28,12.74,3.25,3.64.98,8.19,1.63,11.12,4.23,5.53,4.88,5.53,13,4.88,19.83-1.63-3.9-2.28-8.45-5.2-12.03-2.6-3.25-7.54-5.85-11.77-6.83-4.88-1.3-10.14-.65-15.02-2.28-4.23-1.63-8.19-3.58-11.77-6.83-3.25-2.6-6.18-7.8-10.47-8.45,1.04-.65,2.34-.33,3.64,0l-.65-.65Z"/>
    <path id="path55" class="cls-11" d="M607.32,2046.11c6.57,1.69,15.35,8.91,25.42,9.88,14.63,1.3,20.16,5.27,22.43,12.48-4.23-8.84-9.43-9.82-17.88-11.18-3.9-.65-7.48-.65-11.38-1.63-3.58-1.3-15.93-8.84-17.95-9.56h-.65Z"/>
    <path id="path56" class="cls-2" d="M590.43,2085.65s17.62,39.53,31.28,39.53c0,0,1.63-.33,2.6.65,1.3.98,17.23,12.35,25.68-20.22,0,0-15.61,29.97-22.76,16-7.15-14.37-6.5-.72-13.33-6.24-3.27-2.28-20.16-22.17-23.47-29.71Z"/>
    <path id="path57" class="cls-29" d="M709.99,1861.6s12.35,7.15,12.68,11.05c0,0-16.91-6.5-36.41,2.28-5.2,2.28-16.26,7.15-28.61,15.54"/>
    <path id="path58" class="cls-29" d="M591.99,2043.58s-16.26,7.48-7.8,30.89c8.78,23.41,26.01,54.62,39.01,52.02,0,0,16.26,9.75,23.41-10.08,7.48-19.83,17.88-45.19,3.58-60.14,0,0-14.3-66.97,26.98-99.48,40.96-32.51,79.59-15.28,79.59-59.17,0-15.28-28.87-26.66-28.87-26.66,0,0-7.15-6.18-6.83-10.4"/>
    <path id="path59" class="cls-30" d="M651.67,1877.01c-5.2,2.28-10.73,17.88-27.63,32.84-24.71,21.85-48.18,76.27-32.19,133.88,0,0,8.13-5.53,17.23.33,9.1,5.53,24.71,11.7,29.26,11.05,4.88-.65-28.28-94.74,60.47-151.43,22.43-14.3,25.03-16.26,20.81-22.11-4.55-5.92-16.26,3.9-26.98,6.18-11.05,2.28-39.34,8.78-47.14,19.18,0,0,18.86-19.51,12.35-28.61-2.28-3.32-6.18-1.3-6.18-1.3"/>
    <path id="path60" class="cls-28" d="M598.62,2034.28c.65.98,4.23,3.9,5.53,2.6.98-.98-1.3-2.93-1.63-3.58-1.3-.98-2.28-1.95-3.9-2.28q.33,0,.33-.39"/>
    <path id="path61" class="cls-28" d="M597.84,2026.35c1.24.91,3.06-1.3,3.9-1.95"/>
    <path id="path62" class="cls-28" d="M597.06,2012.43c.98,1.37,3.25,2.73,4.16,4.42"/>
    <path id="path63" class="cls-29" d="M650.88,2057.43c-1.63-2.47-5.2-2.47-7.8-3.12"/>
    <path id="path64" class="cls-11" d="M599.27,2043.51s-17.43,1.37-16.06,21.85c0,0,1.95-17.88,16.06-21.85Z"/>
    <path id="path65" class="cls-21" d="M640.09,1893.98s-12.03,14.63-18.21,19.83c-14.63,11.7-46.56,66.97-28.93,124.78,0,0-11.38-62.36,28.93-115.02,12.68-16.6,14.3-20.5,18.21-29.58Z"/>
    <path id="path66" class="cls-11" d="M616.16,1919.97s-35.37,43.95-26.85,103.77c.02,0-7.79-52.02,26.85-103.77Z"/>
    <path id="path67" class="cls-21" d="M685.87,1890.6s-25.03,5.59-37.71,14.69c-12.68,9.1-49.42,52.08-47.79,105.46,0,0,8.13-67.04,42.26-89.53,25.68-16.92,43.24-30.63,43.24-30.63Z"/>
    <path id="path68" class="cls-11" d="M671.3,1895.54s-27.31,3.9-47.86,39.01c0-.02,19.25-31.23,47.86-39.01Z"/>
    <path id="path69" class="cls-11" d="M709.53,1882.47s6.63-3.58,9.56,0c2.93,3.51.98,4.75.98,4.75,0,0,1.63-2.21-2.28-5.07-2.67-2.28-8.26.33-8.26.33Z"/>
    <path id="path70" class="cls-5" d="M650.23,1879.29s1.63-2.73,5.4-2.02c3.45.65,2.54,6.31,2.54,6.31,0,0,0-5.01-2.86-5.66-2.54-.65-5.07,1.37-5.07,1.37Z"/>
    <path id="path71" class="cls-7" d="M637.17,2052.55s-17.36-81.99,32.32-127.64c0,0-46.04,12.74-42.78,124.71,0,0,6.89,4.55,10.47,2.93Z"/>
    <path id="path72" class="cls-11" d="M642.69,1967.83s-12.48,24.06-6.57,77.25c0,0-8.26-43.43,6.57-77.25Z"/>
    <path id="path73" class="cls-29" d="M620.98,2119.59c.39,1.63,1.04,3.25,1.37,4.49.33.98.65,1.95.98,2.54"/>
    <path id="path74" class="cls-24" d="M622.67,2120.63c-.65.33-1.3,0-1.63.33-.65,0-.98.33-1.37,1.24,0,1.3,2.67,1.56,3.64.98"/>
    <path id="path75" class="cls-2" d="M731.9,1874.47s20.29,8.84,23.21,20.94c2.54,11.7-3.58,31.6-28.41,36.8,0,0,20.03-13.98,20.03-29.65s-8.71-25.75-14.82-28.09Z"/>
    <path id="path76" class="cls-4" d="M737.95,1891.31c10.08,2.28,1.95,22.11-14.63,28.61-24.45,9.1-47.53,18.86-56.7,34.14,0,0,11.12-20.48,38.1-35.44,12.42-6.52,23.15-29.58,33.23-27.31Z"/>
    <path id="path77" class="cls-10" d="M738.6,1895.48c-1.3-2.02-2.6,5.53-14.69,14.63-4.23,3.58-38.82,22.76-43.76,28.61,0,0,34.33-21.78,39.21-24.38,3.9-1.97,22.17-13.65,19.25-18.86Z"/>
    <path id="path78" class="cls-5" d="M736.58,1899.18s-12.42,14.17-23.93,18.73c0-.02,15.41-9.51,23.93-18.73Z"/>
    <path id="path79" class="cls-5" d="M731.38,1902.94c0-.46.59-.91,1.17-.91.65,0,1.17.46,1.17.91,0,.52-.52.91-1.17.91-.59,0-1.17-.39-1.17-.91Z"/>
    <path id="path80" class="cls-5" d="M733.98,1901.39c0-.33.33-.65.65-.65.39,0,.65.33.65.65,0,.39-.26.65-.65.65-.33,0-.65-.26-.65-.65Z"/>
    <path id="path81" class="cls-2" d="M693.67,1944.42s-27.83,10.4-41.42,46.43c-11.38,29.84-3.58,62.29-3.58,62.29l-3.58-1.56s-9.43-32.84,7.48-68.53c13.26-28.87,41.09-38.62,41.09-38.62Z"/>
    <path id="path82" class="cls-11" d="M643.99,2051.06s-6.76-35.76,8.58-76.2c0,0-16.65,36.48-8.58,76.2Z"/>
    <path id="path83" class="cls-3" d="M755.11,1810.04c-1.63-3.9-3.9-5.53-7.15-3.58-4.55,2.6-10.08,11.7-14.63,14.63-5.2,3.58-10.99,5.53-16.84,7.8-5.2,1.95-9.75,2.6-15.61,4.55-4.88,1.63-.65,7.15,5.53,7.8,6.5.65,13.98,2.54,19.44,0,5.85-2.6,11.38-3.25,16.91-6.18,3.25-1.63,7.15-3.58,9.75-6.5,2.6-2.6,3.84-5.85,3.84-9.43,0-1.63,0-7.48-.91-8.45l-.33-.65Z"/>
    <path id="path84" class="cls-16" d="M747.83,1812.57c1.3.33,2.6.72,3.25,2.34.59,1.63.26,3.25-.33,4.55-1.63,2.93-4.88,4.55-7.48,5.85-3.25,2.02-6.44,4.29-9.69,6.24-3.9,2.6-10.99,4.23-15.54,5.85-1.3.65-6.18-.33-7.8-1.63-.98-.98,1.3-2.28,1.95-2.93,2.93-2.6,9.75.33,13.26-1.63,6.18-2.93,12.61-5.59,16.84-10.79,1.3-1.3,3.25-7.87,5.53-7.54v-.33h0Z"/>
    <path id="path85" class="cls-5" d="M748.03,1817.26s-3.9,7.15-16.39,13.26c0,0,13.46-9.04,16.39-13.26Z"/>
    <path id="path86" class="cls-5" d="M743.61,1821.55c0-.33.52-.65,1.04-.65.59,0,1.04.33,1.04.65,0,.39-.46.65-1.04.65-.52,0-1.04-.26-1.04-.65Z"/>
    <path id="path87" class="cls-5" d="M741.52,1823.5c0-.39.52-.78,1.04-.78.59,0,1.04.39,1.04.78,0,.46-.46.78-1.04.78-.52,0-1.04-.33-1.04-.78Z"/>
    <path id="path88" class="cls-3" d="M649.71,1808.93c-6.83-1.3-10.4,7.09-8.45,12.61,1.63,3.84,5.2,7.41,9.75,7.41,3.9,0,8.45.26,12.35,0,8.45-1.3-1.95-9.69-4.55-11.64-3.25-2.28-5.85-5.79-9.43-7.74,0,0-.33-.33-.65-.33l.98-.33Z"/>
    <path id="path89" class="cls-16" d="M648.22,1811.79c-5.79-2.6-5.46,12.74-1.63,9.56.65-.33.65-1.56.98-1.89.33-.98.98-1.3,1.63-1.95s1.56-1.56,1.56-2.86c-.26-1.63-1.89-2.54-3.51-2.86h.98Z"/>
    <path id="path90" class="cls-5" d="M647.05,1813.48c-.85,0-1.76,1.11-1.43,2.21.85-.33,2.02-1.82,1.17-2.6l.26.39Z"/>
    <path id="path91" class="cls-13" d="M708.17,1858.8c.33.65,1.3.65,1.89.98.65.65,1.3,1.3,1.95,1.63.59.65,1.56.98,2.21,1.3.59.33,1.89,1.63,2.54.98.59-.65,0-.98,0-1.3-.65-.33-.65-.65-.98-1.3-.33-.98-.65-1.95-1.24-2.93-.98-1.3-3.51-1.63-5.07-1.3-.65.33-2.28,1.63-1.3,2.28,0,0,0-.33,0-.33Z"/>
    <path id="path92" class="cls-5" d="M709.4,1857.96c-.33-.39-.91.33-.33.98.33,0,.59.33.91.65.26,0,.59.33.59,0,.26,0-.59-.98-.59-1.3-.33-.33-.59-.72-.91-.33h.33Z"/>
    <path id="path93" class="cls-14" d="M652.58,1808.61s24.45,29.97,57.09,21.26c32.9-9.04,38.1-28.74,38.1-28.74,0,0-43.63,18.14-95.19,7.48Z"/>
    <path id="path95" class="cls-29" d="M655.18,1811.14c-8.13-9.1-18.6-3.25-16.26,9.75,1.63,8.78,23.08,23.41,36.8,28.28,8.78,3.25,24.45,13.33,39.4,15.54"/>
    <path id="path96" class="cls-29" d="M722.67,1864.98c6.57-.33,12.74-2.54,18.01-8.06,18.92-20.16,20.22-43.82,14.37-50.98-1.95-2.6-4.88-2.6-8.52-.98"/>
    <path id="path117" class="cls-8" d="M686.39,2023.23c0-34.46,19.44-62.42,43.3-62.42s43.3,27.96,43.3,62.42-19.38,62.42-43.3,62.42c-23.86,0-43.3-27.89-43.3-62.42Z"/>
    <path id="path118" class="cls-19" d="M700.5,1977.97s-1.63,6.18,3.25,7.48c8.45,1.95,21.46,10.08,26.33,2.6,5.2-7.48,19.18-18.21,23.73-10.73,4.88,7.48,6.5,21.78,13.33,26.66,7.15,4.55-3.25,15.28,2.28,20.81,5.53,5.53-4.23,33.81-4.23,33.81,0,0,8.13-2.93,9.43-14.63s15.28-16.26,9.1-29.58c-7.48-17.23-3.58-20.16-11.05-29.26-10.4-12.03-1.63-21.13-12.68-24.06-11.05-2.6-21.46-14.3-32.19-9.75-10.73,4.55-16.58,27.96-27.31,26.66Z"/>
    <path id="path119" class="cls-18" d="M762.2,2060.81c-8.71,17.62-27.18,26.4-40.77,19.25-13.98-6.83-8.13-21.52.65-39.08,8.71-17.62,19.38-34.92,33.29-27.7,13.65,6.83,15.54,30.3,6.83,47.53Z"/>
    <path id="path120" class="cls-11" d="M721.76,2076.48s29.84,18.53,43.43-32.97c0,0-11.96,39.79-43.43,31.99v.98Z"/>
    <path id="path121" class="cls-20" d="M704.46,1960.16c-6.5-.98-8.45,19.44,0,22.37,8.45,2.6,21.46,10.08,26.59,2.6,4.88-7.48,18.86-18.14,23.73-10.73,4.49,7.48,7.41,22.11,14.24,26.59,7.15,4.55-2.93,14.3,2.93,20.16,5.53,5.53-6.83,36.93-6.83,36.93,0,0,11.38-2.21,12.68-13.91,1.63-11.7,12.61-19.44,6.5-33.1-5.85-13.26,2.93-17.82-7.48-30.17-10.08-11.96-4.88-19.77-16.26-22.69-10.99-2.6-21.39-14.3-32.12-9.75-10.66,4.55-13.26,13-23.99,11.7Z"/>
    <path id="path122" class="cls-27" d="M709.66,1963.54c7.41,2.6,9.62,11.25,9.62,17.95"/>
    <path id="path123" class="cls-27" d="M752.84,1965.75c-5.59-5.85-12.48,1.56-14.82,6.37"/>
    <path id="path124" class="cls-27" d="M718.9,1974.46c-.65-3.25,2.28-5.53,4.49-6.5,1.63-.65,3.19-1.63,5.14-1.63,1.24-.33,2.86.33,3.77-.72"/>
    <path id="path125" class="cls-27" d="M745.82,1964.06c-1.95-.59-3.58-2.21-5.53-3.19-2.28-.98-3.58-.98-6.18-.65"/>
    <path id="path126" class="cls-27" d="M763.24,1982c0,5.01,2.34,8.58,5.92,11.57,3.32,2.99,6.57,6.24,6.57,10.53"/>
    <path id="path127" class="cls-27" d="M740.35,1952.42c-3.25.33-6.18-1.63-9.75-.33-2.6.98-4.88,3.58-6.89,5.2"/>
    <path id="path128" class="cls-27" d="M715.39,1967.31c-2.6.65-5.2-.65-7.48.98-2.28,1.3-3.64,3.9-3.97,6.18"/>
    <path id="path129" class="cls-27" d="M766.43,1990.33c-.33,2.34,5.53,1.37,7.15,1.69,2.6.33,5.85,1.3,6.83,4.29"/>
    <path id="path130" class="cls-27" d="M732.03,1952.09c2.34,1.24,4.03,3.64,7.28,3.64"/>
    <path id="path131" class="cls-27" d="M760.9,1964.32c5.79,3.9,7.09,9.69,8.32,16.13"/>
    <path id="path132" class="cls-27" d="M780.54,2013.73c-.33.72.98,2.02,1.3,2.99.65,1.95.33,4.23-.33,6.18-.65,3.58-3.25,6.5-4.23,10.08"/>
    <path id="path133" class="cls-27" d="M762.79,1966.66c2.54,3.58-3.19,5.14-3.19,8.32"/>
    <path id="path134" class="cls-27" d="M781.19,2017.11c-.91,4.68-5.92,2.02-7.54,4.68"/>
    <path id="path135" class="cls-27" d="M770.26,2051.71c4.16-.91,7.02-8.97,7.02-12.22"/>
    <path id="path136" class="cls-27" d="M774.17,2047.8c1.82-1.3-1.3-5.4-.98-7.8"/>
    <path id="path137" class="cls-23" d="M704.59,1960.35c-6.5-.98-8.45,19.44,0,22.04,8.13,2.93,21.46,10.34,26.27,2.93,5.2-7.48,19.18-18.21,23.73-10.73,4.81,7.48,7.41,21.72,14.56,26.59,6.83,4.55-2.93,14.24,2.6,19.77,5.85,5.53-6.5,37.26-6.5,37.26,0,0,11.38-2.21,12.68-13.91,1.3-11.64,12.61-19.44,6.5-33.03-6.18-13.33,2.93-18.21-7.48-30.17-10.08-12.03-5.2-20.09-16.26-22.69-10.99-2.93-21.39-14.63-32.12-9.75-10.66,4.55-13.26,13-23.99,11.7"/>
    <path id="path138" class="cls-29" d="M765.84,2057.95c-7.8,16.58-20.87,27.57-35.89,27.57-23.86,0-43.17-27.89-43.17-62.29,0-17.82,4.94-33.75,13.07-45.12"/>
    <path id="path139" class="cls-11" d="M719.16,1986.36c5.98,3.84,11.96-1.63,14.56-7.09-1.95,2.28-3.25,4.23-5.92,5.79-2.67,1.63-5.01,1.3-8.26,1.3h-.39Z"/>
    <path id="path140" class="cls-11" d="M724.88,1968.22c-1.95-.39-3.9.98-4.88,2.93-1.37,2.34-.33,3.97-.33,6.57,0-2.6-.33-3.9.65-6.24.98-2.28,1.95-1.95,3.9-3.25,0,0,.65,0,.65,0Z"/>
    <path id="path141" class="cls-11" d="M707.97,1969.06c1.37-.39,4.29-1.76,5.66-1.37,1.95.33,2.28,3.38,2.93,5.07-.33-.98-2.28-3.71-3.25-4.1-1.69-.33-2.99,1.04-4.62.39,0,0-.72,0-.72,0Z"/>
    <path id="path142" class="cls-11" d="M764.15,1984.99c.39,1.37,1.04,2.99,2.02,4.36.98.98,2.67.98,3.97,1.63-2.99-1.3-3.64-2.99-5.59-4.94l-.39-1.04Z"/>
    <path id="path143" class="cls-11" d="M771.04,2002.42c.65,1.95,1.3,3.58,1.3,6.18-.33,1.95-1.3,4.55-1.95,6.83.98-2.93,3.9-8.78,1.3-11.38l-.65-1.63Z"/>
    <path id="path144" class="cls-11" d="M759.99,1964.97c.98,0,1.95,1.3,2.28,2.28.33,1.89-.33,2.54-1.3,3.45.65-1.89,1.3-4.1-.65-5.4l-.33-.33Z"/>
    <path id="path145" class="cls-11" d="M749.33,1964.19c-.98,0-2.6,0-3.58.33-1.3.33-1.95,1.63-2.93,2.28.65-.33,1.3-.98,1.95-1.3s1.3-.33,1.95-.65c.65,0,1.63-.65,2.6-.33,0,0,0-.33,0-.33Z"/>
    <path id="path146" class="cls-11" d="M750.63,1954.82c1.63.98,3.9,1.95,5.46,2.54,1.63.98,3.9.65,5.46,1.89-1.89-.59-4.16-.59-6.05-1.89-1.63-.91-3.25-1.56-4.55-2.21l-.33-.33Z"/>
    <path id="path147" class="cls-11" d="M705.63,1960.74c-.91,0-1.89-.33-2.86-.33-.65.33-1.56,1.63-1.89,2.6-1.3,1.95-2.28,5.14-1.3,7.67-.33-2.86,1.95-10.92,6.05-9.62,0,0,0-.33,0-.33Z"/>
    <path id="path153" class="cls-26" d="M645.81,1806.33c-.65-1.17-.98-2.41-1.3-3.64"/>
    <path id="path154" class="cls-26" d="M675.46,1879.68c-3.58-11.7-8.13-24.38-14.3-37.45"/>
    <path id="path155" class="cls-26" d="M683.53,1961.33c.39-2.86.72-6.05,1.04-9.62"/>
    <path id="path156" class="cls-26" d="M693.15,1945.98c0,6.5-.26,13-.52,19.77"/>
    <path id="path157" class="cls-26" d="M673.12,1848.47c3.64,8.13,7.22,17.23,10.14,27.31"/>
    <path id="path162" class="cls-5" d="M698.09,1984.21s-13,18.86-9.43,45.51c0,0-.98-25.36,9.43-45.51Z"/>
    <path id="path164" class="cls-11" d="M670.26,1849.77s7.87,16.71,8.84,24.19c0,0-7.48-19.25-8.84-24.19Z"/>
    <path id="path185" class="cls-25" d="M704.4,1999.75c-1.3,0-4.88-.33-4.55,2.28,0,2.28,4.23,2.28,6.18,2.86"/>
    <path id="path186" class="cls-25" d="M705.5,2010.61c-1.95.52-4.55,0-6.5,0"/>
  </g>
</svg>