<?xml version="1.0" encoding="UTF-8"?>
<svg id="svg3" xmlns="http://www.w3.org/2000/svg" xmlns:xlink="http://www.w3.org/1999/xlink" viewBox="0 0 1398.49 3639.87">
  <defs>
    <style>
      .cls-1 {
        stroke: #602228;
      }

      .cls-1, .cls-2, .cls-3, .cls-4 {
        fill: none;
      }

      .cls-1, .cls-2, .cls-4 {
        stroke-linecap: round;
        stroke-linejoin: round;
        stroke-width: 1.32px;
      }

      .cls-5 {
        fill: #ba8981;
      }

      .cls-5, .cls-6, .cls-7, .cls-8, .cls-9, .cls-10, .cls-11, .cls-12, .cls-13, .cls-14, .cls-15, .cls-16, .cls-17, .cls-18, .cls-19, .cls-20, .cls-21, .cls-22, .cls-23, .cls-24, .cls-25, .cls-26, .cls-27, .cls-28, .cls-29, .cls-30, .cls-31, .cls-32, .cls-33, .cls-34, .cls-35, .cls-36, .cls-37, .cls-38, .cls-39 {
        fill-rule: evenodd;
      }

      .cls-6 {
        fill: #aa6863;
      }

      .cls-7 {
        fill: #b8728f;
      }

      .cls-8 {
        fill: #cb8290;
      }

      .cls-9 {
        fill: #b37a73;
      }

      .cls-2 {
        stroke: #8f5e5a;
      }

      .cls-10 {
        fill: #98445a;
      }

      .cls-11 {
        fill: #ad6764;
      }

      .cls-12 {
        fill: #e7b68a;
      }

      .cls-13 {
        fill: #c59b93;
      }

      .cls-14 {
        fill: #b97f97;
      }

      .cls-15 {
        fill: #c8a099;
      }

      .cls-16 {
        fill: #bd8851;
      }

      .cls-17 {
        fill: #fff;
      }

      .cls-18 {
        fill: #bfd8e4;
      }

      .cls-19 {
        fill: #b15d63;
      }

      .cls-20 {
        fill: #964f61;
      }

      .cls-21 {
        fill: #ecc5a1;
      }

      .cls-22 {
        fill: #e2a86f;
      }

      .cls-40 {
        clip-path: url(#clippath-1);
      }

      .cls-23 {
        fill: #995862;
      }

      .cls-24 {
        fill: #8f4e4c;
      }

      .cls-25 {
        fill: #cb8ba4;
      }

      .cls-26 {
        fill: #b17f4d;
      }

      .cls-41 {
        clip-path: url(#clippath-3);
      }

      .cls-27 {
        fill: #b87e95;
      }

      .cls-28 {
        fill: #d29d65;
      }

      .cls-29 {
        fill: #a45d5a;
      }

      .cls-30 {
        fill: #a16e84;
      }

      .cls-31 {
        fill: #995854;
      }

      .cls-32 {
        fill: #b0756d;
      }

      .cls-4 {
        stroke: #370b12;
      }

      .cls-33 {
        fill: #f7af50;
      }

      .cls-42 {
        clip-path: url(#clippath-2);
      }

      .cls-34 {
        fill: #a55b7a;
      }

      .cls-35 {
        fill: #b65e83;
      }

      .cls-36 {
        fill: #b67e78;
      }

      .cls-37 {
        fill: #d1764b;
      }

      .cls-38 {
        fill: #f6e5d4;
      }

      .cls-43 {
        clip-path: url(#clippath);
      }

      .cls-39 {
        fill: #8a4646;
      }
    </style>
    <clipPath id="clippath">
      <rect class="cls-3" x="458.96" y="1452.69" width="143.96" height="256.94"/>
    </clipPath>
    <clipPath id="clippath-1">
      <rect class="cls-3" x="458.96" y="1452.69" width="143.96" height="256.94"/>
    </clipPath>
    <clipPath id="clippath-2">
      <rect class="cls-3" x="458.96" y="1452.69" width="143.96" height="256.94"/>
    </clipPath>
    <clipPath id="clippath-3">
      <rect class="cls-3" x="458.96" y="1452.69" width="143.96" height="256.94"/>
    </clipPath>
  </defs>
  <g id="_콩팥_왼쪽" data-name="콩팥 왼쪽">
    <g class="cls-43">
      <path id="path2" class="cls-32" d="M579.91,1599.5c5.53,9.96,10.79,23.5,4.7,34.29-6.09,11.05-9.13,21.01-26.54,32.05-17.41,11.05-37.89,3.32-47.54-3.87-9.96-7.45-17.98-10.22-28.2-22.39-9.96-11.88-9.13-14.09-13-29.28-4.16-15.5-8.58-15.5-9.41-32.08-.83-16.86.28-19.9,2.49-30.12,2.22-10.51,4.42-18.24,6.92-27.65,2.22-9.39,11.62-20.73,16.87-27.37,5.24-6.89,5.51-11.33,21.01-24.58,15.47-13.28,34.29-17.98,53.64-13.28,15.47,4.98,40.08,26.82,40.08,47.82s-5.51,29.84-12.43,36.76c-6.64,6.64-6.92,6.36-8.58,14.37-1.66,8.03-3.32,10.23-3.05,15.22.28,4.96,2.49,11.05,0,17.69-2.49,6.36.27,6.89,3.04,12.43Z"/>
    </g>
    <g class="cls-40">
      <path id="path3" class="cls-22" d="M600.64,1602.59c-3.87-22.64-6.36-21.81-8.86-32.59-2.49-11.06-3.05-21.84-8.3-25.15-1.94,2.49-2.49,4.15-3.59,9.41-1.66,8-3.32,10.22-3.05,15.2.28,4.96,2.49,11.05,0,17.67-2.49,6.36.28,6.92,3.05,12.43,1.94,3.59,4.15,8.03,5.53,12.43,5.26,5.53,6.36,17.14,6.09,22.39-.28,5.24-.83,14.92-1.39,27.62s3.87,16.03,4.42,24.58.28,11.88-1.11,19.6h6.09c1.39-6.34,0-17.67-2.22-31.75-2.22-14.37.28-18.51,3.05-34.54,2.78-16.01,1.67-28.44.28-37.29Z"/>
    </g>
    <path id="path4" class="cls-6" d="M560.84,1463.04c5.53,2.22,11.33,4.15,15.75,8.86,4.15,4.13,6.36,9.94,9.13,14.9,3.32,5.26,6.64,11.34,7.47,17.41,1.08,5.81-.55,12.7-2.49,18.24-1.39,4.96-3.32,11.33-7.75,14.62-4.15,3.59-8.58,3.59-12.73,7.19-4.13,3.85-8.56,7.17-11.6,11.88-3.32,5.79-2.77,11.05-1.39,17.39,2.49,12.43,12.17,21.54,18.51,32.05,3.05,4.96,6.64,11.33,7.19,16.83.55,6.09-4.15,12.15-6.92,17.41-5.53,10.49-12.15,18.77-23.22,23.75-5.53,2.22-11.6,3.02-17.69,2.22-6.09-.55-10.23-4.15-16.03-6.36-11.06-4.7-21.28-11.6-31.25-18.5-9.69-6.92-10.23-18.79-12.17-29.56,2.77.55,3.32,5.81,4.15,8.28,1.39,3.32,3.05,6.36,5.81,8.86,6.09,4.96,12.17,9.94,18.79,14.34,4.42,2.77,7.47,6.64,12.17,8.86,6.06,2.49,11.33,2.75,17.69,1.66,11.06-1.66,23.22-4.7,31.25-12.98,5.51-5.81,6.34-13.53,4.41-20.73-1.92-7.45-1.92-12.43-7.17-17.94-2.77-3.05-4.98-5.81-7.75-8.83-2.77-3.05-8.58-3.87-10.77-7.47-4.15-7.17-2.22-15.73-2.49-23.48-.55-9.11-1.11-13.26,5.51-20.7,5.26-6.09,11.62-9.66,18.81-12.98,6.89-3.32,10.49-9.94,11.6-17.67,1.11-7.47-1.66-14.37-1.66-21.84-.28-5.24-2.22-8.83-4.42-13.53-1.39-3.02-3.02-9.94-7.17-9.94l-3.58-2.24Z"/>
    <path id="path5" class="cls-6" d="M569.37,1554.45c2.49-2.77,7.42-5.26,11.28-5.26-.53,2.49-3.85,4.7-4.94,7.47-1.39,3.05-1.39,6.36-1.39,9.96.55,7.17,1.94,14.92-.83,21.81-3.85-4.41-12.94-15.75-7.7-21.81.55,3.02.55,7.17,3.58,9.11,3.85-2.49,1.11-8,1.66-11.6.55-4.15,5.24-8.03-.28-10.51l-1.39.83Z"/>
    <path id="path6" class="cls-6" d="M527.89,1458.87c-21.01,6.09-32.07,26.8-45.06,42.54-3.32,3.88-8.03,9.11-9.4,13.81-1.39,5.26-2.77,10.49-4.42,15.47-3.32,10.49-6.36,22.09-7.47,33.14-.55,7.19-1.94,13.26-.28,20.45,1.39,6.34,5.53,12.43,7.47,19.05-.83-5.51-2.77-10.49-3.32-15.73-.83-4.7.55-8.86.55-13.26.55-9.41,2.49-16.3,8.03-24.05,4.98-7.45,11.34-15.17,14.92-23.48,4.98-11.33,11.06-19.33,19.92-27.9,8.28-7.72,15.47-18.77,26.82-22.64,6.34-2.22,14.92-4.98,21.56-3.32,7.19,1.94,14.64,7.75,17.41,14.37,2.77,6.64,4.98,18.79,4.15,26.25-.55,7.47-10.51,13.53-17.14,17.97,20.73-1.94,33.16-11.6,31.52-29.01-1.39-17.69-8.86-24.31-11.9-29.28-3.32-5.24-9.69-10.22-15.2-13.26-5.83-3.34-11.36-3.34-17.72-3.34h-8.83c-3.32,0-6.09,1.11-9.41,1.66l-2.21.55Z"/>
    <path id="path7" class="cls-29" d="M475.66,1511.93c-2.75,2.49-3.02,9.11-4.41,12.7-1.39,4.15-2.77,8.28-4.15,12.43-2.49,9.13-4.42,17.41-4.7,27.62,3.05-9.39,3.87-19.6,9.41-27.62,3.85-5.51,9.11-8.83,10.77-15.47,1.94-6.62,3.87-10.22,8.56-15.75,3.87-5.24,8.58-9.11,12.7-14.09,4.7-5.53,8.58-11.6,13.81-16.58,4.98-4.98,11.88-7.45,18.79-8.83,14.92-2.77,29.01-2.49,39.5,10.22,8.56,10.49,12.43,21.01,13.26,34.26.28,6.34-.83,12.15-3.59,17.69-1.11,2.49-1.94,6.06-3.85,7.72-1.94,1.94-6.36,4.42-8.58,5.81,12.43,4.42,20.73-17.69,21.84-26.25,1.64-13,1.11-25.15-7.19-35.37-7.45-9.13-13.26-16.58-24.03-21.28-11.6-4.69-24.31-3.87-35.9-.82-11.9,3.05-20.45,11.06-28.45,20.17-4.7,5.26-7.75,11.6-12.15,16.86-1.94,2.77-3.87,6.34-6.36,8.83-3.05,3.05-4.98,4.42-6.34,8.58-.28.55-.55,1.11-.83,1.39l1.91-2.22Z"/>
    <path id="path8" class="cls-29" d="M573.8,1550.62c1.66-.55,3.87-1.94,5.81-1.66.28,3.59-3.87,7.75-4.42,11.33-.83,4.15-.28,8.83.28,12.98.55,4.13-.28,8.83-.83,12.96-1.11,6.89-4.42-3.02-5.56-5.24,2.79,3.85,4.73.83,4.73-2.49s0-7.17-.83-10.22c-.83-3.3-.83-6.06.55-9.39.83-2.47,4.98-7.17,0-8l.28-.27Z"/>
    <path id="path9" class="cls-29" d="M558.31,1574.09c1.11,4.96,5.26,9.66,8.3,13.8,3.32,4.7,6.06,9.39,8.83,14.37,4.15,7.45,9.39,15.17,6.64,24.01-5.26,16-15.75,34.22-33.44,38.37-8.28,1.94-18.51,2.47-25.97-1.94-4.7-2.77-9.11-5.79-13.81-8.56s-9.94-4.98-14.37-8c-1.94-1.39-4.15-2.77-5.53-4.7,5.81,1.39,10.23,5.81,15.75,8,5.53,1.94,9.69,6.09,15.2,8.03,6.36,1.92,12.98,1.36,19.34.81,6.34-.55,12.98-1.64,19.05-4.41,5.81-2.77,9.69-9.11,12.98-14.37,3.32-4.96,6.64-9.39,7.19-15.45.28-4.13-.55-9.94-2.49-13.52-2.77-4.98-7.17-8.56-9.94-13.53-2.22-3.59-3.32-7.17-5.81-10.49-2.77-3.58-6.06-7.72-6.62-12.41-.83-6.09.28-15.75,3.05-20.98,1.92-3.59,6.06-5.53,10.49-5.53-5.53,1.11-7.47,6.64-8.58,11.33-.55,2.49-1.11,5.26-1.11,8,.28,1.94,1.11,4.99.83,7.19Z"/>
    <path id="path10" class="cls-31" d="M557.22,1559.69c-1.94,5.26-.28,12.17,1.39,17.43.83,2.49,2.77,6.09,4.98,8.03,1.11.83,2.47.83,3.85,1.66,1.11.55,2.22,1.92,2.77,2.75-1.39-5.51-5.79-9.66-8-15.2-2.22-5.53-1.94-11.9,0-17.43,1.66-4.42,11.05-8.3,14.62-10.79-2.47,0-11.86,1.94-13.8,3.87-1.11.83-4.42,3.32-4.15,5.26l-1.66,4.42Z"/>
    <path id="path11" class="cls-31" d="M559.67,1561.36c1.11-9.66,11.88-14.92,18.79-17.69,7.72-3.32,13.24-9.94,16-17.69,5.51-16.3,4.98-34.82-6.62-48.65-11.33-13.53-26.25-21.28-43.63-21.28-5.24,0-9.66,1.11-14.64,1.66,6.09,2.77,14.92,0,21.26,1.11,5.53,1.11,10.49,3.59,15.75,5.26,4.96,1.39,7.72,4.98,11.05,8.86,3.85,4.13,8,8.28,10.77,13.26,2.47,4.7,3.02,9.41,3.58,14.37.55,5.26,1.94,10.23,1.11,15.5-1.39,8.56-6.62,17.97-14.34,22.11-10.22,5.51-19.07,10.49-21.81,22.92l2.74.28Z"/>
    <path id="path12" class="cls-31" d="M492.78,1488.71c-4.42,6.91-11.06,13.26-15.76,20.17-2.2,3.59-4.42,6.63-5.52,11.06-1.11,3.86-1.94,7.73-2.77,11.88-.83,3.32-2.49,6.36-3.32,9.67-1.11,3.59-.83,7.19-2.49,10.77,4.98-10.22,8.03-21.27,12.73-31.48,2.2-4.98,4.97-9.95,8.56-14.37,3.59-4.42,8.56-7.73,11.89-12.72,6.09-9.39,12.44-22.64,21.56-29.28-8.56,2.22-17.14,13.55-22.94,19.9l-1.93,4.41Z"/>
    <path id="path13" class="cls-31" d="M492.03,1643.92c4.7,6.09,12.43,10.22,18.51,14.64,7.17,4.96,14.06,8,22.37,9.94,17.39,4.13,33.39-9.94,42.78-23.48,5.26-7.45,9.39-16.28,8.58-25.39-.83-8.3-4.42-16.58-9.41-23.48-3.58-4.98-6.89-9.11-10.49-13.53-1.92-2.22-3.02-3.32-4.13-6.06-1.11-2.49-1.11-6.09-2.49-8.3-1.39,8.86,3.32,18.51,8.56,25.69,5.81,7.72,12.98,14.09,14.37,24.03,1.39,9.39-4.15,17.67-8.83,25.39-4.15,6.64-11.05,13.81-18.22,17.14-8.58,3.85-18.79,4.13-27.35,1.64-4.41-1.36-8.28-2.47-12.15-4.69-3.85-2.49-7.45-4.7-11.6-6.62-2.47-1.11-5.51-2.49-7.45-4.7l-3.03-2.22Z"/>
    <path id="path14" class="cls-9" d="M533.4,1484.28c-5.26,3.05-11.62,12.7-16.33,16.86-4.41,3.59-8,7.19-11.33,11.9-6.36,8.56-14.09,18.24-18.79,28.18-6.36,12.98-12.73,29.31-11.34,44.5.55,6.34,3.05,12.7,5.53,18.79,1.66,4.7,3.05,9.94,5.81,14.09,3.32,4.98,10.22,9.69,14.37,14.09,4.15,4.42,12.43,5.81,17.41,8.86,11.06,7.17,32.35,2.22,38.7-8.03,5.81-9.66.55-25.14-5.24-32.89-7.47-9.94-20.73-11.6-22.94-24.33-2.49-14.92-2.49-41.18,9.39-50.29,5.26-4.15,15.47-1.94,21.28-5.53,4.7-3.05,11.06-10.22,12.17-15.75,1.92-8.86-3.05-19.62-9.41-23.5-3.05-1.94-10.22-4.15-13.81-3.32-3.05.55-11.06,2.22-13,4.7l-2.46,1.67Z"/>
    <path id="path15" class="cls-36" d="M564.12,1497.6c-.28-.55-.55-1.11-1.11-1.66,1.11-1.08-.83-1.08-.55-2.47,0,.28-.28.28-.55.28-2.22-.83.83-4.15-1.94-3.32.28-.28-.55-1.66-1.11-2.22-.28-.83-1.11-1.66-1.94-1.11.55,3.05-1.08.28-2.19,1.11,0-.28-.55-.55-.55-.83-.83,0-1.39-.28-1.94-.55,0,.28-.28.55-.28.55-.55.28-1.39,0-1.66-.55-.83.28-4.13-1.66-4.13.28-1.39.55-2.77,1.39-4.15,1.66-.83.28-1.66,0-2.49,0s-1.36.55-2.19.83c-.83.55-1.11.55-1.94.55-.28.28-.83,0-1.39.28s0,.28-.55.83c-.83.83-2.77,1.11-3.59,1.94,1.39.83,0,1.11-.53,1.39-.28.28-1.66,0-.83,1.11-1.39.81-.83,1.36-1.39,2.47,0,0-.55,1.11-.83,1.11,0,0,.28.28.28.55-.28.28-.83.28-1.11.55-1.39,1.39-1.94,3.32-3.32,4.7-.55.28-.83.28-1.11.55-.53.55-.53.83-1.08,1.08-.28.28-.83.28-1.39.83-.28.55-.28,1.11-.55,1.39-.83.83-2.22.55-3.32,1.66-.55.83-.55,1.94-.83,2.49-.55.83-1.66.83-2.22,1.66-.53.55-.81,1.11-1.36,1.66-.55.55-.83.55-1.11,1.36v-.28c-1.11,1.11-1.66,2.49-3.05,3.32-.55.28-1.11.28-1.66.83-.55.55-.28,1.39-.83,1.94-.55.28-1.36,0-1.64.55-.83.55-.55,1.11-.83,1.94-.28,1.11,0,.83-.83,1.66-.28.53-1.11.53-1.66,1.36-1.39,1.94-1.94,4.98-3.32,7.19-.55,1.39-1.92,1.94-2.47,3.02-.28.28-.28,1.66-.55,1.94,0,.28-.55.28-.55.55,0,.55.28.83.28,1.39,0,2.22-1.39,4.42-2.77,6.36.83,1.36-.83,1.64-1.11,2.75-.55,1.66.83,1.94,0,3.32-.83,1.39-2.22,1.94-2.22,3.32-.28,1.39.55,2.19.28,3.58-.28.55-1.11,1.11-1.11,1.94s.55.83.55,1.39c.28,1.66,0,1.94-.55,3.59-.28,1.11-.28,1.94.55,3.02.55.55,1.66.83,2.49,1.11v.55c0,.83-.83.83-1.11,1.94-.55,1.11.28,1.39.28,2.49.28,1.11-.83,1.66-.83,2.77.28.83,1.11,1.11,1.11,2.47,0,1.66-1.66,3.05-.55,4.7.55,1.39,3.05,2.77,1.66,4.15,1.66,2.47,4.15,3.85,2.77,7.45.55,0,.83.55,1.11.83-.28,1.11-.55,1.39-.28,2.49,0,.28.55.55.83,1.08,0,.28-.28,1.11-.28,1.39s1.64,3.59,1.92,3.87c.55.55,1.66-.28,2.22.28.83.55.55,1.39.83,2.49s.55,1.39.83,1.94c.55,1.08,1.11.81,1.11,2.19,1.66,0,2.77,2.49,4.41,3.32,1.11.55,1.66.55,2.22,1.94.28,1.39-.55,1.39.83,2.22,1.39,1.11,3.87,1.92,2.77,4.41-.55.83-2.22.83-.28,1.94.83.55,2.19-.55,2.75.83.83-.28,2.49-.28,1.94,1.11.83.55,3.05-.55,4.42-.28.55.28.55,0,1.11.28.28.28,0,1.11.28,1.39.81.28,1.92-.55,2.75-.28.55,1.94,1.94,1.11,3.32,1.66.83.55.83,1.39,1.66,1.64.83,0,1.64-.25,2.47-.53,1.39-.28,3.05-.28,4.42,0,1.94.28,1.66.81,3.59-.83,1.36-1.11,1.92-.55,3.3-1.11.83-.28,2.22-1.66,2.77-2.77.83,0,1.39.55,1.94-1.11,0-.28-.28-.83,0-1.39,0-.28.55-.28.83-.55,0-.55,0-1.66.25-2.22.55-.81,1.11-.28,1.66-.81.83-.83,0-.55,0-1.66s.55-3.05,2.22-2.49c-.55-.83-1.39-2.77-1.66-3.59-.55-1.66.28-1.94.55-3.3,0-1.94-1.11-1.39-2.22-2.49-.28-.55.28-.83-.28-1.66-.53-.28-1.36,0-1.64-.55,1.92-2.22-2.77-1.94-3.59-2.22-.28,0-.55-.28-.83-.28-.28-.55-.55-.83-1.11-1.39-.55-.55-1.66,0-1.66-1.39-1.64,0-4.69-2.47-4.69,0-1.94-.28-4.15-.53-6.06-1.08-.55-.28-1.39-.55-1.94-.83.55-1.66-2.22-2.49-1.94-.55-1.11.28-2.22,0-3.32-.28.28-.83.55-1.66-.28-2.49-.53.55-1.64.55-2.47-.28,1.66-1.39.28-2.77-1.66-1.94.55.83.55,2.22-.55,2.22h-.28c-.28-.28-.83-.83-1.11-1.11-.28-.28-.28-.55-.55-1.11-.55-.83-1.66-1.39-2.22-2.22-.53-1.11.28-2.19-1.36-2.19.28-1.39-.83-1.11-.83-1.66-.28-.83,0-1.39,0-2.22-1.11,0-1.66-.83-1.66-1.94,2.22,0,1.39-2.49,1.11-3.87q-.28,0-.55.28c-.28-.28,0-.55,0-.55-.28,0-.55,0-.83-.25.55-1.39-.28-1.66-.28-2.49-.28-1.11.28-1.66.28-2.77,0-1.39-.28-1.39.28-2.49.28-.83,1.11-1.66.28-2.49-1.11,1.11-2.22.28-2.49-1.08,0-.83.83-1.94,1.11-3.05.28-.83.55-2.22.55-3.32-.28-.28-.83-.55-1.11-1.11,0-.55.55-.83.55-1.39-.28-1.11-1.11-1.92-.28-3.02.55-.83,2.22-.28,2.49-2.22.28-1.39-.83-1.11,0-2.49.55-1.39,1.66-1.11.83-2.49-.83-1.39-2.22-1.39-1.39-3.3.28-.28.83-.28.83-.55l.28-.83c0-.28.55-1.11.83-1.39.55-1.39.55-2.49,1.36-3.59.55-.55,1.39-.55,1.66-1.11.55-.83,0-1.39.28-1.94.28-1.08,1.11-1.64,1.39-3.02.28-.83,0-.83.55-1.66.28-.83,1.11-.55,1.39-1.66.28-.55-.28-1.39-.28-1.94.28-.28.55-.55.55-.83.55-.28,1.11-.55,1.39-.83.83-.83.83-1.64.83-2.47.55-.55.83-1.11,1.08-1.94h.28c0,.55.28.83.83.83,1.11,0,.28-.83.55-1.11,0-.55,1.11-2.22,1.39-.55.83-.55,2.22.55,2.22-1.11,0-1.11-1.39-1.11.28-2.22.28-.28.55-.28.83-.28.28.28.55.28.55.55,1.11-.55.55-1.39,1.11-1.94.55-.55,1.08-.28,1.64-.83,1.11-.83.55-2.47,2.49-2.47,0,1.39,1.11.55,1.66,0,.55-.83,0-1.39,1.39-1.66l.55.55c.55,0,1.11-.55,1.66-.55.81.28,1.08.83,1.64,1.11v.83c.28.28.83.28,1.39.28,0-.55.28-.83.28-1.11.83-.28,1.66.55,1.66,1.39.83,0,1.66,0,2.22.55.55-.55.55-1.39,1.11-1.66.55-.28,1.36,0,1.92.28,0,.28.28.55.28.55.83.28,1.39.28,2.22.55,0-.83.55-1.39,1.39-1.94h1.39c.55-.28.83-.83,1.11-.83,1.39-.28,1.39.55,2.47-.28.55-.55.83-1.39,1.39-1.94s1.39-.28,1.94-.83c.83-.55.28-1.39,1.11-1.94.55-.55.83,0,1.11-.28.55,0,.55-.28.83-.55,0,.28,0-.55,0-.55.28,0,.55,0,.83-.28s.55-.28.83-.83c-1.11-1.08-.83-3.85-.83-5.51,0-1.39.28-1.39.83-2.77.5-1.06-.86-1.34-1.14-.78Z"/>
    <path id="path16" class="cls-5" d="M559.43,1497.52c-.83-1.11-2.49-.55-3.05-1.66,1.66-.83-.55-1.94-1.66-1.94-.55,0-.83.28-1.39,0-.28-.28,0-.83-.28-.83-.28-.28-.83-.28-1.39-.28-.28-.28-.55.28-.83-.28-.28-.28.55-.83.55-.83-.28-.83-.55-.55-1.39-.55-.55.28-1.39.83-1.92.83-.55.28-1.39-.28-1.94-.28-.83.83-2.77,1.66-2.49-.28h-.83l.28-.28c-2.22-.28-.55,1.39-1.39,2.22-1.11.83-2.77-.28-3.59.28l.28-.28c-.55-.28-1.11-.28-1.65,0,.82,1.39-1.11,2.22-2.22,2.22,0-.28-.28-.55-.28-.83-1.39-.28-1.11,1.66-1.66,2.49-.28,0,0-.28-.28-.28-1.39.28-.55,2.49-1.94,3.05,0,0,0-.28-.28-.28-1.66.55-1.11,1.65-1.66,3.03-1.66-1.11-1.11,1.11-1.94,1.94s-1.92,1.39-2.75,2.22c-.83,1.11-4.15,5.25-5.26,3.86-.28.28-.28.83-.28,1.39q-.28,0-.28-.28c-.28,1.11-.28,2.22-1.39,2.77-.55.28-1.94,0-2.48.83-.83.55-.28,1.94-.83,2.77-.55.55-1.39.83-1.11,1.92h-.83c-.28,1.39-.55,1.66-1.11,2.77-.28.55,0,.83-.83,1.39-.28,0-.83.28-1.11.28-1.39.55-1.39,1.11-1.94,1.94-.28,1.11-.83,1.39-.83,2.48-.55,0-.55.28-.83.55.83.83-.83,1.39-1.39.28-1.09.83.28,1.39.28,2.22,0,1.11-.83.28-1.37,1.11.28.28.28.83.28,1.11-.55.28,0,1.11-.55,1.39-.83.28-.83-.83-1.39-.55-1.11.83.55,3.05-.55,2.77-.55,1.37-.28,2.48-.28,3.59.28.28.55.55.55,1.39l-1.39,1.66c-.55,0-1.94.28-2.22.83-.55.83.55,1.11.55,1.94,0,.55-.83.82-1.11,1.37-.28.83.55,1.11,0,1.94-.28.83-1.11.55-1.39,1.39-.28.28,0,1.66-.28,2.22,0,.28-.55.83-.83,1.39,0,.28.55,1.39.55,2.2s-.28,3.05-.83,3.87c-.28.83-1.11,1.11-1.39,1.66-.28,1.11,0,.83.28,1.66.28,1.66.55,3.03.55,4.42,0,1.66-.83,2.49-.83,3.87,0-.28.28,1.66.28,1.66,0,0,.55,1.39.55,1.65,0,.55-.55,1.11-.83,1.66,0,1.11.83,1.39.83,2.22,0,.55-.55.83-.83,1.66,0,1.11.28.55.55,1.39.83,1.39,1.11,2.48,1.11,3.86.28,1.66,1.11,2.77,1.39,4.42.28,1.39.28,2.49.83,3.59.28.55.83,1.09.83,1.65s-.55.83-.28,1.11c0,.55.55.55.55.83.28,1.39.55,2.77.83,4.15.55,1.66,1.66,2.2,1.66,3.86,0,.55-.55,2.22,0,2.49.83.55,1.39-.55,1.66-1.11.83.28.83,1.11.28,1.66h1.11c0,.55-.28,1.66,0,1.94.27.55,1.09.28,1.37.83.28.28,0,1.39.28,1.66.83.55,1.11,0,1.94.27,1.94.55.55,1.11,1.94,2.22.55.55,1.39,0,1.94.55.83.55.28,1.11.83,1.66.83.83,1.94.28,3.05,1.11.55.55.28,1.39.82,1.66.55.55,1.39.28,1.94.55,1.11.28,1.39,1.39,2.77,1.65,1.39.28,2.22-.55,3.59-.82-.28-.55-.83-1.11-1.39-1.39-.28.28-1.11.55-1.39.83-.28-1.39-1.66-.28-2.22-1.39-.83-1.66.55-1.39,1.11-2.77-.28,0-.55-.55-1.11-.55.83-1.66-6.63-.83-4.14-4.14-2.49.55-1.11-3.32-1.66-4.15s-4.7.28-3.87-2.22c-1.94-.28,1.11-3.31-1.66-3.31.28-.28.55-.83.83-1.11-1.39,0-5.25-4.15-2.49-4.7,0-1.11-1.39-1.39-1.66-2.49-.28-.82.83-1.65-.82-1.65,0-1.39,1.37-1.11,1.65-1.94,0-.28-1.11-1.94-1.39-2.22,0,0,.55-.83.28-1.11,0-.28-.82-.55-1.09-.83-.55-.83-.55-1.66-1.66-2.48.83-1.39-1.11-1.94-.83-3.59h.83c0-1.39-.28-2.22-1.39-3.32.83-.28,1.39-.55,1.94-.83-.28-.55-.83-1.11-1.11-1.65,1.11-.55.55-2.22.83-3.32,0-.55.55-.83.28-1.66,0-.83-.83-1.11-1.11-1.94-.28-1.66.83-2.75.55-4.14,0-1.11-1.66-2.49.83-2.77.28-2.22-1.11-3.59-.28-5.8,1.39-.28.55-1.39,0-2.22,1.66-.83.55-1.94,1.66-2.49.27.28,1.09.28,1.37-.28.28-.83-1.11-.83-1.11-1.39,0-1.11,1.11-2.22,1.39-3.03.28-.55.55-1.11.55-1.66s-.55-1.39-.55-1.94c.28-1.39,1.66-1.11,1.66-2.49,0-1.66-1.39-1.39,0-3.03v-.28h0c.55-.83,1.66-1.66.83-2.22.28-.55,1.11-.28,1.39-1.11.28-.55-.28-1.11,0-1.94.55-.55,1.11-.55,1.39-.83,1.39-1.11,2.77-1.11,3.05-2.77.28-.55.28-1.09.55-1.92.28-.55.83-.55.55-1.39.55,0,1.09-.28,1.37-.83-1.37-.55-.55-1.66.55-1.66-.28.83.83,1.66,1.39.83.55-.83-.28-1.66,0-2.49.28-.28.83-.55.83-.83.28-.55.28-.83.55-1.39.28-.27.83-.27,1.11-.82.28-.28,0-.55.55-1.11.83-.55,1.94,0,2.77-1.11.55-.28.55-.83.83-1.39.28-.28.83-.28.83-.55.83-1.11.83-1.94,2.2-2.49,1.39-.83,1.11-.55,1.39-2.22,1.66.55,1.11-.55,1.39-1.65.28-1.11.83-1.66,2.22-1.94l-.83-.28c.55-.28.83-.28,1.11-.55-.28.28-.28.83-.28,1.11l.28.28c-.28,0-.28.28,0,.55.83-.28.55-.83,1.11-1.39.55-.28.83-.55,1.66-.83v.28c.28.28.83,0,1.39-.28-.28,1.39,1.09.55,1.37-.28,1.39.28,1.94-.55,2.49-1.66.83-1.39.83-1.11,1.66,0,.28,0,.55-.83.55-1.11.83-.28,1.11,0,.83.83,1.11-1.39,1.11,1.11,1.94,1.39,1.11.28,2.77-.83,1.94-1.94.83-.28,1.65-.28,1.92.55.55,0,1.11-.28,1.66,0-.28.83,3.59,1.11,2.77-.83,1.11-.55,1.66,1.11,2.77,0,1.39,1.39,3.32-1.11,1.94-2.2h0c.82-.55,2.18-1.1,1.65-2.21Z"/>
    <path id="path17" class="cls-9" d="M569.68,1556.96c-2.19,1.39-3.02,5.26-3.3,7.75,0,1.13-.28,9.43,2.19,7.77.28,0,.28-7.77.55-8.87.55-1.94,3.28-7.5,1.64-7.77l-1.08,1.12Z"/>
    <path id="path18" class="cls-13" d="M540.09,1499.73c0,.83,1.92-1.11,3.03.28.28-1.39,1.39-.83,2.2-.83.28,0,.83-.55,1.39-.55.28,0,.83.55,1.39.55,1.39,0,3.59-1.11,5.52,0,.82-.55.82-1.66.28-2.49-.83.83-1.11,0-1.94-.28-.28-.28-.55-.55-.83-.55-.83-.28-.83.55-1.65.55s-1.11-.55-1.94-.83c-1.11-.28-1.66.28-2.75.55-.83.55-1.66,1.11-2.49,1.66-.83.55-1.11,1.66-1.92,1.94-.83.55-1.66-.28-2.49.28-.83.55-1.11,1.39-1.66,1.94.83-.28,1.66-.83,2.49-1.11l1.39-1.11Z"/>
    <path id="path19" class="cls-13" d="M541.42,1498.94c2.77-1.92,10.25-3.3,13.01-.55-2.77-1.09-12.46-.28-14.14,2.19l1.12-1.64Z"/>
    <path id="path20" class="cls-13" d="M495.82,1572.74c-1.4,3.86-.56,9.94.28,13.8.84,4.69,2.23,9.65,4.19,14.06-1.12-3.03-1.12-6.62-1.67-9.65-.56-2.77-1.68-5.8-2.25-8.56-.83-5.52.84-11.6.28-17.12-1.95,1.39-1.68,4.42-1.68,6.63l.84.82Z"/>
    <path id="path21" class="cls-13" d="M497,1562.47c-.27.83.55.83.55,1.66,0,.55-.28,1.39-.28,1.94,0,.28.28,1.11.28,1.66s-.28,1.11-.28,1.94c0,.55.28,1.11.28,1.94,0,.55-.55,1.39-.28,2.22,0,.55.83.55.83,1.09.28.83-.28,1.39-.28,1.94,0,.83.55,1.11.28,1.66,0,.83-.55,1.39-.55,1.94s.55,1.11.83,1.66c.28.83,0,1.39,0,2.22,0,.55.55,1.11.55,1.66,0,.82-.28,1.37-.28,2.2,0,1.11.83,2.77,1.39,3.59.28.83.82,1.66.82,2.49.28,1.11-.28,1.94,0,3.05,0,1.11,1.11,1.66,1.39,2.75.28.83.28,1.66.55,2.49.55,1.94.55,3.59,1.92,4.98,1.11,1.11,3.31,2.22,3.31,4.14-1.09-1.09-2.2-1.09-3.31-1.92-1.09-1.11-.55-2.49-1.92-3.05-1.66-.83-2.48-.83-2.75-2.77-.55-1.66-.55-3.05-1.39-4.42-.55-1.09,0-2.75-.28-3.86-.28-1.11-1.39-1.94-1.39-3.05,0-.83.28-1.94.28-2.77-.28-.83-1.37-1.66-1.37-2.22-.28-.55.28-1.92,0-2.48,0-.55-1.11-1.11-1.39-1.66-.55-1.39-1.11-2.77-.83-4.42.28-.83.83-1.39.55-2.49s-1.11-.83-.83-1.94c.55-1.09,1.11-.27.83-1.92,0-1.11-.83-1.11-.28-2.22,0-.55.83-.55.83-.83,0-.55-.55-.83-.28-1.39,0-1.11.28-1.39.83-2.22l1.64-3.6Z"/>
    <path id="path22" class="cls-13" d="M496.69,1559.17c-.28,1.12-.83,1.95,0,2.79,1.39-1.12,1.39-2.79,1.39-3.92l-1.39,1.13Z"/>
    <path id="path23" class="cls-13" d="M501.61,1604.17c-.55.85.28,1.98,1.66,1.98,0-1.13-.28-1.98-1.11-2.56l-.55.58Z"/>
    <path id="path24" class="cls-17" d="M546.94,1496.68v.83c.58,0,1.7,0,2.28-.28.28-.55,0-.55,0-.83l-2.28.28Z"/>
    <path id="path25" class="cls-17" d="M551.12,1497.52c.28.59.58.3.85,0h-.85Z"/>
    <path id="path26" class="cls-39" d="M597.55,1503.56c.81,7.19.53,14.37-1.39,21.01-1.94,6.09-6.64,12.7-11.33,17.41-3.87,3.59-7.75,6.06-13.26,8.28-5.53,1.94-8.03,4.15-10.51,10.23,0,.53.28-.28,0,.25,1.94-7.72,3.32-10.49,9.69-13.81,4.96-2.75,11.05-6.62,14.9-10.77,3.05-3.05,5.26-6.34,6.92-10.22,1.66-3.32,3.32-5.53,4.42-10.49l.55-11.89Z"/>
    <path id="path27" class="cls-39" d="M561.84,1574.14c1.4,5.81,6.39,9.69,9.7,14.92,2.77,4.42,6.64,9.39,8.86,14.37,2.22,5.51,4.42,9.39,4.98,15.17.55,6.09-2.22,13.26-4.7,18.79-.55,1.11-1.11,2.49-1.94,3.58-.28-3.58,1.66-8.28,2.49-11.86.83-3.32,1.39-7.75.83-11.33-.83-6.09-4.7-11.6-7.19-17.41-1.94-4.41-4.42-8.83-6.64-13.26-1.94-3.58-6.39-8.28-5.53-12.7l-.85-.27Z"/>
    <path id="path28" class="cls-31" d="M572.14,1585.67c.3.55,1.95,3.02,2.79,2.75,1.11-.25,1.11-3.02,1.11-3.85.85-2.77.85-5.53.58-8.56-.85-5.81-.85-11.6,1.11-17.14.83-3.02,2.77-6.62,2.22-9.94-.55,1.66-1.39,2.77-1.94,4.42-.55,1.66-1.39,3.59-2.23,4.98-1.66,3.3-1.11,5.24-.83,8.83.55,4.69,1.95,14.06-2.22,17.39,0,.28-.28.28-.58.55v.56h0Z"/>
    <path id="path29" class="cls-24" d="M570.18,1582.39c1.66,1.66,2.49,4.15,4.13,5.53,2.22-1.39,3.02-8.86,2.22-11.06-.83,1.39-.28,4.42-1.39,6.09s-3.58,1.39-4.13-.28l-.83-.28Z"/>
    <path id="path30" class="cls-24" d="M573.85,1550.02c2.19-.55,4.38-1.66,6.3-1.94-.53,2.77-.81,7.42-2.72,9.62.55-1.36,1.08-3.83.81-5.22-.53-1.36-2.72-2.75-4.38-1.92v-.55h0Z"/>
    <path id="path31" class="cls-9" d="M569.97,1552.25c-2.79.55-5.58,3.59-6.68,6.09-1.95,3.85-.55,6.06,1.39,9.39.85,1.36,3.34,8.53,5.03,4.96.55-1.39-.28-3.87-.55-5.24-.28-1.66-.55-3.59,0-5.26s2.22-3.3,2.22-4.69c.28-2.22-2.22-2.22-1.39-4.98v-.28h0Z"/>
    <path id="path32" class="cls-5" d="M568.54,1555.6c-4.42.83-5,12.45-1.39,14.11,1.39-4.15-.55-8.03,2.22-11.62.55-.83,3.87-2.77,3.87-3.59-.28-2.49-4.15.28-4.7.83v.27Z"/>
    <path id="path33" class="cls-13" d="M568.54,1555.83c-4.15,1.94-3.05,6.06-3.05,9.62.55-1.36.55-3.83,1.11-5.49.55-1.08,3.32-3.85,3.05-4.13h-1.11Z"/>
    <path id="path34" class="cls-13" d="M571.01,1554.45c-.28.28-.55,0-.55.53.55-.25.55-.53.83-.81-.55-.55-1.11,0-1.11.81l.83-.53Z"/>
    <path id="path35" class="cls-13" d="M565.5,1567.16c.51,0,.77-.28.77-.83,0-.28-.25-.28-.25-.28-.51.28,0,.28,0,.55l-.51.55Z"/>
    <path id="path36" class="cls-17" d="M566.91,1558.32c-.58.58-1.15,1.7-1.15,2.53,1.15-.83,1.15-2.53,2.56-3.36,0,0-.55-.3-.28-.3l-1.13,1.13Z"/>
    <path id="path37" class="cls-17" d="M565.5,1563.24c.51,0,.77,0,.77-.25l-.25-.25-.51.51Z"/>
    <path id="path38" class="cls-17" d="M570.18,1555.24s.3.25.85-.25c0,0-.55-.25-.55,0l-.3.25Z"/>
    <path id="path39" class="cls-28" d="M583.49,1549.21c-3.59,4.15-2.49,10.22-4.15,14.92-.83,3.02-.28,5.24.28,8.28.55,2.77.55,6.06.28,9.11,0,1.66-.28,3.3-.83,4.96-.55,1.39-2.49,2.77-1.94,4.42,2.22-2.49,4.42-3.59,4.98-7.17,0-2.22.28-3.05,2.47-4.42,3.05-2.22,6.92,9.94,7.72,12.7,2.22,7.45,3.59,11.3,4.42,19.05.55,5.24,2.49,9.94,1.66,15.17-.55,3.87-.55,8.28-1.39,13.8,1.39-4.41,2.22-10.19,2.22-14.9.25-3.59,0-7.45-.28-11.05-.28-3.3-.28-6.89-.28-10.22,0-4.13-.55-7.72-1.66-11.58-1.94-6.92-4.15-13.26-6.34-20.16-2.22-6.62-2.49-12.98-3.87-19.88-.28-1.39-1.66-3.59-3.02-4.42l-.28,1.39Z"/>
    <path id="path40" class="cls-28" d="M598.38,1599.77c1.39,8.3,3.05,24.86.83,35.9-2.22,11.05-4.42,20.44-4.42,27.61s2.22,14.09,2.77,19.33c-2.22-8-4.73-14.9-4.42-19.88,0-4.96,3.32-20.98,4.98-31.48l.27-31.48Z"/>
    <path id="path41" class="cls-28" d="M580.15,1595.67c1.68,4.15,5.56,11.33,6.39,14.34.55,3.05,6.36,6.34,6.36,19.58s-1.39,22.62-1.39,25.92c1.94-8.81,4.98-29.22,3.05-38.61-1.94-9.09-4.7-6.34-6.64-11.58-1.95-4.95-6.37-7.16-7.77-9.66Z"/>
    <path id="path42" class="cls-16" d="M579.05,1569.69c-.28-2.22-.28-4.42.28-6.64.83-2.22.83-4.42,1.39-6.64s.83-4.42,1.66-6.64c1.39-3.05,3.02-.28,3.58,1.66,1.11,4.42,2.22,8.3,2.77,12.73s2.49,9.96,4.41,14.11c1.39,2.77,1.39,5.26,2.22,8.3,1.39,4.15,2.49,8.3,3.02,12.43-1.36-2.47-1.36-5.24-2.19-7.72-.55-2.77-1.94-4.98-3.05-7.75-3.02-6.36-3.85-13.56-6.34-20.2-.83-1.66-3.02-9.13-4.96-4.7-.28,1.39-.28,2.77-.55,4.15-.55,1.66-1.66,3.05-1.66,4.7l-.56,2.22Z"/>
    <path id="path43" class="cls-16" d="M594.83,1663.78c0-5.51,3.87-19.58,5.53-38.35,1.66-12.98-3.05-35.89-6.09-42.53l-1.11.55c2.77,8.03,8.03,29.54,6.09,42.53-1.94,13.24-4.98,32.84-4.42,37.27v.53h0Z"/>
    <path id="path44" class="cls-9" d="M536.77,1526.04c1.11.28,2.77-1.36,2.49,1.11,1.39-.55,1.66-2.47,3.05-1.39.83-.53,1.66-1.08,2.77-.53.55-1.39,1.39-.55,2.49-.55.53-.28.81-.55,1.08-.55.83,0,1.39.28,1.94.28.55-.83,1.39-.28,2.22-.28,1.11.28,1.66-.28,2.49-.55.55-.28.83-.55,1.39-.28.28.28.28,1.11.55,1.11.83.55,1.94-.28,1.39-1.39,1.11-.55,1.94-.28,2.75-.83.55-.28.28-.83.83-1.39.28-.28.83-.28,1.11-.28.55-.83,1.11-1.39,1.66-1.94.28-.28.83-.28,1.11-.83.28-.28-.55-.28-.28-.83.55-1.11,1.94,0,2.49-.28,1.66-.28.55-.83.28-1.66,0-.83,1.66-3.32,2.49-3.87.83-.83,1.11,0,1.11-1.66.28-.83.28-2.22,1.39-1.94-1.11-.55.28-1.94.55-2.77.25-.28.53-1.11.25-1.66,0-.55-.81-.55-.81-1.11-.28-1.11,1.08-1.94,1.08-3.05,0-.83-.53-.83-.81-1.39v-1.66c0-1.11-.55-1.94-.83-3.32,0-1.11.83-1.94-.28-3.05-.83-1.11-1.66-.83-2.22-2.49q-.28-1.39-1.39-2.22h0c-.28-1.11-1.39-1.11-1.94-1.94-.28-.55.28-.83,0-1.39-.28-.83-.55-.55-1.11-.83-1.66-1.11-1.39-2.77-3.59-2.49-2.19,0-3.85-1.11-5.79-2.49-.55-.28-.83-.83-1.66-.83s-.28.28-.83.55c-.55.28-.28.55-1.11.55-.28.28-.83,0-1.39,0v-.28c-.83-.28-1.94,0-1.66.83-.55.55-2.47.83-3.02,0,.28-.28,0-.28.28-.55-.55,0-1.11.28-1.39.55.28.28.28.55.55.55-.55.83-.83,0-1.39,0-.55.28-.55.55-1.11.55-1.11.28-1.94.28-3.05.55-.83.28-2.77.28-3.59,1.11-.55.55-.28.55-.55,1.11v.83c0,.28-.55.28-.55.55-.83,2.22,1.66.83,3.05.55,3.59-.83,7.47-1.39,11.05-1.11,3.59.28,7.75.28,11.05,1.94,2.22.83,3.87,3.59,4.98,5.53,3.05,4.7,3.87,9.96,2.49,15.22-.83,3.87-2.22,8.86-5.53,11.06-4.69,2.77-10.22,4.42-15.45,5.81-4.15.83-9.41,1.66-12.73,4.7l1.62.57Z"/>
    <path id="path45" class="cls-9" d="M535.71,1482.9c-1.11.55-2.22-.28-3.59,0-1.11.55-.83,1.66-1.94,2.22-.55.28-1.11.28-1.39.55-.55.55-.55,1.11-.83,1.39-.84,1.37-1.67.82-2.78.55-1.11.55-.28,1.11.28,1.39-.28.28-.83.55-1.11.83,0,.28.28.28.28.55-.28.55-.83.55-1.11.55,0,1.37-.55,1.11-1.11,1.92-.83.83-.28,1.11-1.39,1.94-1.67.83-4.16,0-3.06,2.48-.55.28-1.11.55-1.39.83.55.28.28.28.83.55-.55.55-.83.55-1.39.55,1.11,1.94-3.87.28-2.22,2.77-.28,0-1.11.27-1.39.27-.55.55,0,1.11,0,1.39-.55.83-2.22,1.11-2.78,1.39.28,0,.55.55.55.55-.28.28-.83.55-1.39.83-1.11.82-.28.55-.28,1.37-.28.83,0,.28-.83,1.11-.55.28-1.39.28-1.94.83-.28.28-.28,1.11-.83,1.39-.55.55-1.11.55-1.67.82-1.39.55-1.66,1.39-1.39,2.77-1.94.28-1.66,2.2-2.49,3.31-1.66-.55-2.77,1.11-2.22,2.49-2.22.55-2.22,3.03-3.61,4.97,0,.28-.55.83-.83,1.09,0,.28-.28.55-.28.83s.83.55.83.83c-.28.55-.83.83-1.11,1.11-.28.55.28.83-.28,1.39-.28.28-.83,0-1.11.55-.28.55.28,1.09,0,1.65-.28.28-1.11.28-1.39.55-.55.28-.83,1.11-1.11,1.39-1.12,2.2-1.67,4.14-3.06,6.08-.55,1.09-1.39,1.92-2.22,2.75s-1.66,1.39-1.39,2.48c-2.22.28-1.66,3.32-2.5,4.42-.83,1.37-3.59,1.65-2.49,3.86-.83.55-1.39,1.11-1.94,1.92-.83,1.39,0,1.66,0,2.77.28,1.11-2.22,3.03-.55,3.31-.83,1.11-1.94,1.11-.83,2.22-1.66-.28-1.39,1.09-1.39,2.2,0,.55,0,1.11-.28,1.39,0,.28-.28.55-.28.55,0,.55.28.55.28.55,0,0,.55.28.83.28,0,.28-.28.55-.28.83s.28,1.09.28,1.65c.28.83-.55,1.94-.55,2.77.28,1.09,1.39,1.37,1.94,2.48.28,1.11,0,2.49,1.66,2.77,2.22.27,4.16-3.59,4.44-5.25,0-3.87-.28-7.19.55-11.05,1.11-3.59,2.77-6.91,4.15-10.49,1.11-2.75,2.77-5.25,4.16-8,1.39-3.32,2.22-6.91,4.15-9.94,2.22-3.59,4.99-6.36,7.48-9.66,4.99-6.08,9.42-12.43,14.41-18.5,2.77-3.31,5.55-7.17,8.59-10.2,3.32-3.05,7.76-5.52,10.8-9.12l1.42-5Z"/>
    <path id="path46" class="cls-9" d="M474.26,1576.52c0,.28-1.11,1.94-1.11,2.77,0,.55.55.55.55,1.11.28.83-.28,1.39-.28,1.94,0,.83,1.11,1.39.83,2.49s-1.39,1.92-1.39,3.03,1.11,1.94,1.11,2.77c.28.55-.28,1.11-.28,1.66.28.83.55.55,1.11,1.39.83,1.39,1.94,3.31,1.39,4.97-.28.83-2.22,3.32-.28,3.05.55-.28.28-1.66,1.11-1.11.83.55,0,1.39-.28,1.94.28.28.83.55.83,1.11,0,.28-.55.55-.55.83s.55.28.55.55.55.28.55.55c.28.28,0,.55,0,.83.28.83.28,1.11.28,1.94-.28.55-1.11.83-.55,1.39.55.83.83,0,1.39,0s.55-1.11,1.11,0c.27.55,0,1.11,0,1.66,1.65-.28.82,1.66.55,2.49,1.39.28.28,1.92.83,2.48.83,1.11,1.94-.28,2.49,1.39.28.55,0,1.11,0,1.39.28.83.55.55.55,1.11.28.55.55.55.55,1.11.28.55,0,.55.28,1.11.83,1.66,3.86,1.66,4.42,3.03.83,1.39-.83,1.66-.83,2.49,0,1.39,1.66.83,2.22.28,1.11.55,1.11,1.39,1.39,2.49.28-.28.55,0,.83-.28.55,2.49,4.97,0,6.08,1.94.55.83.28,1.94,1.39,2.2,1.11.28,3.31-.27,3.31-1.37s-2.75-3.59-3.31-4.42c-2.49-3.32-4.15-7.19-6.36-10.5-3.32-4.69-6.63-9.12-9.12-14.37-3.05-7.19-5.25-14.93-6.91-22.67l-4.45-4.76Z"/>
    <path id="path47" class="cls-9" d="M505.48,1633.75c.83,1.11,0,1.39,0,2.22.28.83,1.11.83,1.94.55,0,.55,0,1.39.28,1.94.55-.28,2.49-.28,2.77.83,0,.55-.83.83-.55,1.39.28.28,1.11,0,1.66,0,0-.28,0-1.11.55-.83.55.28.28,1.11.55,1.39-.28-.28,1.39,1.11.83,1.11.55,0,1.11-.55,1.11-.83,0,0,0-.28-.28-.28.83-.83,1.11.28,1.39.83,0,.28-.28.55,0,.83,0,.55.55.28.83.55.28.28.55,0,.83.55.28.28.28.83.28,1.11.55.83.55,1.11,1.39,1.39,1.11.28.83-.55,1.66.28.83.28.55,1.39,1.11,1.66.28.53,1.39.81,1.94.53.83-.28.55-1.36,1.39-1.64,0,.28.28.83.28.83,0,.28,0,0,.28,0,0,.28,0,.53.28.53.55,0,1.11.28,1.66.28-.83-1.64,1.66-1.36,1.66-.28.55.28.83,0,1.11-.25-.55-1.66.83-.55,1.39,0,1.39-.83,1.66-2.22,3.3-1.94,1.39.28,2.22,1.11,3.59.83,1.39-.28,2.22-1.39,3.32-1.66,1.11,0,3.32,1.11,3.05-.83.28.28.83.28.83.55.55-.28,1.11-.28,1.39-.55,0,0,.28.55.83.28.28,0-.28-.55.28-.83s1.11,0,1.66-.28.83-.83,1.11-1.39c.28-.28.83-1.11,1.39-1.39.83-.28,1.11.28,1.94.28s1.94-1.39.83-2.22c.28-.28.55-.28.83-.28.28.28.55.55.83.83-.28-1.11.55-1.39,1.39-.83-.28-.83,0-1.66.28-2.49.28-1.39.55-1.11,1.39-1.94,1.39-1.11,0-.83,0-1.94.28-.83,1.66-.83,2.22-1.66-.28,0-.55-.55-.55-.83.83-.81.83-1.64,1.11-2.75.28-.55.55-1.11.55-1.66s-.55-.55-.55-1.39c0-.55.55-.55.55-1.11.28-.83.28-.55,0-1.39,0-.28-.28-.28-.28-.55s.28-.55.28-.83c0-.55.53-.83,0-1.39,1.36-.55.53-2.77-1.11-2.22.28-1.39-1.11-2.22-.28-3.32-.28,0-.83-.28-1.11-.28,0-1.11-1.39-.83-2.49-.83-1.66,0-1.11.28-.83,1.94,1.39,4.98-.83,12.17-3.87,16.03-4.42,5.26-11.9,8.86-18.54,10.23-4.13.83-8,.28-12.15-.83-4.15-.83-8.58-3.59-13-3.59l-4.48-2.48Z"/>
    <path id="path48" class="cls-9" d="M543.94,1525.21c-1.09-.55-2.2,0-2.48,1.11-.28.83.28,1.37-.28,1.92-.28.28-1.11,0-1.39.55-.82.83.28,2.22-1.09,3.05-.83.83-2.49.28-1.94,1.92-1.11.28-.28,1.39-1.37,1.94-.28,0-.83-.55-1.39,0-.28.83.55,1.11.55,1.39-.28.55-.83.83-1.11,1.39,0,.28.55.82.28,1.37,0,.28-.28.55-.55,1.11,0,.55.55,1.11.28,1.66,0,1.66-.83.28-1.66,1.39-.82,1.09,1.66.83,2.22,1.09,1.39,1.66-1.66,1.39-1.94,1.66-.55.83.55.83.28,1.11-.28.83-.55.55-1.09.83-.28.55-.55,1.11-.28,1.66-.83.28-1.39,1.92-.28,1.92-.28.83-.83.83-.83,1.94.28.55.83.83.83,1.39-.28.55-.83,1.09-.83,1.37-.28,1.11.28,1.94.28,2.77,0,.55-.55.83-.55,1.39s.28,1.11.28,1.39c-1.11.55-1.94.55-1.11,1.92.28.55.55.28.83.83.28.83-.28,1.11,0,1.66.28.83,1.94.83,1.66,2.2,0,.83-.83.55-.83,1.39s.55.55,1.11,1.11c.82,1.66-.83,4.14-.55,6.08.28,1.39,1.09,1.39,1.92,1.66.55.28.83,0,1.11.82.28.55-.55,1.11-.28,1.39.28.83.83.55,1.11.83s0,1.39.28,1.94c0,.28.28,0,.55.28v1.11c.55.55.83.82,1.39.82,0-.28.28-.82.28-1.09.55,0,.83.55.28,1.09.55,1.11.83,0,1.39.28.28,0,1.37.28.55.83-.55,1.66,3.31,2.77,4.13,3.87.83.82.83,1.92,2.22,2.2,1.11,0,2.2-1.11,3.03,0,.28.55-.28,1.11,0,1.66.28.55.55,0,1.11.55.55.83.55,1.66,1.65,2.2,1.11.83,1.39.83,1.66,2.22,0,.55-.28.83.28,1.39.28.28.83.28,1.11.55.55.55.28.83.28,1.37.27.55,1.09.83,1.37,1.39.55.83,1.11,1.94,1.39,3.05.28,1.11,1.37,5.8,0,6.63-1.66.82-2.49-3.32-2.75-4.15-1.39-3.86-3.86-6.63-6.91-9.39-3.86-3.32-8.28-6.08-12.14-9.39-4.69-3.87-8.27-8.29-11.03-13.81-2.48-5.25-3.03-11.05-3.86-16.57-.83-5.52.28-12.43,1.94-17.67,2.2-6.91,6.34-12.43,9.93-18.5,1.39-1.66,3.31-3.59,5.52-3.59l5.49,3.55Z"/>
    <path id="path49" class="cls-32" d="M549.18,1540.6c0-.81,1.11-1.64,1.94-1.92.55-.28.83.28,1.39-.28.28-.28.55-1.11.83-1.39.28-.55,1.11-1.39,1.94-1.94,1.11-.83,1.39.28,2.51-.28.28,0,.28-.83.55-1.11.83-.28.83,0,1.39,0,.28-.28,1.11-.55,1.39-.55s.83.55,1.11.28c1.66,0,1.66-.83,2.49-1.66.55-.83,1.66-1.11,2.49-1.39.55-.25,1.11-.81,1.95-.81,1.11-.28,2.22.28,2.77-.83.28-.28,0-1.11,0-1.39,0-.55.28-.55.55-1.11.28-.83.83-1.94,1.94-1.39.28-.28.28-.83.55-1.11.55-.55.83-.28,1.11-1.11.28-.28,0-.83.28-1.39s.83-.55,1.11-1.08c.83-.83,0-1.66.28-2.77.28-.28.83-.55.83-.83.28-.55-.28-.83-.28-1.39,0-1.11,1.11-1.94,1.11-3.32,0-1.11.28-2.19.28-3.3.28-.83.83-2.22.55-3.32,0-1.11-.55-1.66-.55-3.05,0-.28.55-.28.55-.55s-.28-.28-.28-.55c0-.55-.28-.83-.55-1.64,0-.28.55-1.11.28-1.39-.28-.55-.83-.28-1.11-1.11,0-.28.55-.83.28-1.39,0-.55-.55-.83-.83-1.11-.55-1.11-.28-1.94-.83-3.32-.28-1.92-1.39-3.58-1.94-5.51-.28-.28-.28-1.11-.55-1.39-.28-.83-.83-.55-1.39-.83-.55-.55,0-.83-.55-1.39-.28-.28-1.11-.28-1.66-.55-.55-.28-1.11-.83-1.39-1.11.55,1.39,2.22,2.22,3.05,3.59.83,1.66.83,3.32,1.11,4.98.83,4.69,2.22,9.39,2.49,14.06.28,2.77-.28,5.81-.55,8.56-.28,2.77-1.11,5.26-3.05,7.19-1.94,2.47-5,4.41-7.5,6.62-2.49,2.22-4.7,3.59-7.75,4.96-3.06,1.66-5.83,3.87-8.6,6.36-1.11,1.11-3.32,2.49-4.17,3.85h4.43v.03Z"/>
    <path id="path50" class="cls-32" d="M548.12,1540.08c-.83.83-.83,1.39-1.11,2.22,0,.83.28,1.11-.83,1.39.28.27.28.55.55.82-.83-.28-1.11.55-.83,1.11-.28,0-.55.28-.83.28.28.55.28.83.28,1.11-.28.83-.83,1.39-1.39,2.22q-.83,1.11-.28,2.49c0,.28.55.55.28,1.11,0,.55-.83.28-1.11.82-.55.83.83,1.39-.83,1.94,1.39.83.28,1.11.28,2.22,0,.28.28.83.28,1.11,0,.55-.55,1.11-.55,1.39,0,.83.55,1.94.55,2.75-.28.28-.55.55-.55,1.11.28.55.55.83.55,1.39,0,1.11-.28,1.66,0,2.77.55,1.39.28,1.11-.28,2.49-.28,1.65.55,1.11.55,2.2,0,.83-1.39,1.94,0,2.22-1.11,1.66.55,3.32.28,5.26,0,1.39-.55,1.92.83,2.48.28,0,.83-.83,1.11-.28s-.83,1.39-1.11,1.66c.55.28.83.55,1.39.55-.55.83,0,1.39.83,1.11,0,.55.28.83.83.83.28.83,1.11,1.11,1.94,1.39.28,0,.28.55.55.55.55.28,1.11-.28,1.66.28.55.28.55,1.66,0,2.22-1.11.55-3.87-1.11-4.7-1.66-6.64-4.98-8.03-14.1-9.41-21.84-1.94-11.89,1.94-23.78,9.13-33.17l1.93,5.49Z"/>
    <path id="path51" class="cls-32" d="M552.82,1592.57s1.39-.55,1.94-.55c1.39.28.83.55,1.39,1.66.28,0,.81,0,1.36-.28,0,1.39,0,1.94.83,2.77.55.28,1.11.28,1.39.55.28.55.28,1.39.55,1.66,0,.28.53,1.11.81,1.11.28.28,1.11,0,1.39.28.83.83,0,1.66.83,2.49.55.55,1.11.55,1.39.83.53.55.25.83.53,1.39s.83.55,1.11,1.11c.28.28,0,.83.28,1.11.83,1.11,1.39,1.11,1.39,2.22.28,1.39-.55,1.94.55,3.05.53.55.81.28,1.08.83s-.28,1.11-.28,1.66c0,.83,0,.28.83,1.11.28.55.28,1.11.55,1.66.55.83.83.28.83,1.11s-.83.83-.28,1.94c.28.55,1.11.28,1.64,1.11,0,.55,0,1.39-.25,1.94-.28-.28-.55-.28-.83-.28-.28.55,0,.83.28,1.11-.55.28-.28.55-.55.83.28,0,.28.55.55.55-.55.55-.55.83-.55,1.39s.28,1.11,0,1.66c0,.28-.28.55-.28.55,0,.55.28.55.28.83.28,1.11.55.55-.28,1.66-.28.28-.55.28-.83,1.11-.28.55.28,1.11,0,1.66-.55.81-2.47,1.36-3.3,2.19,1.11-1.64,1.11-4.13,1.39-6.34.25-4.15.53-8.58-.83-12.73-.83-3.59-3.02-5.26-4.13-8.58-.83-3.05-1.39-8.3-3.58-10.51l-7.18-5.86Z"/>
    <path id="path52" class="cls-32" d="M521.83,1652.8c.83,1.39,3.32.83,4.42,1.39.83.28,1.11.55,1.66,1.11,1.11.81.55,0,1.66-.28,1.39,0,.55.55,1.39,1.08.55.28,1.39,0,1.94,0,1.11-.25,1.11.28,1.94-.53.55-.28.83-1.11,1.66-1.39,0,.28.28.55.28.83h1.08c.55-1.11,1.39-.55,1.66.28.55,0,1.39.55,1.94.28-.28-1.11,1.11-1.66.83-.28,1.39-.28,2.77.81,2.22-1.39h1.66c-.28,1.11.83.83,1.39.55.83-.55.55-1.11,1.11-1.66.55-.55,1.39-.83,1.94-.83.83-.28,1.39.28,1.94,0,.55,0,.55-.55.83-.83.25-.28.81-.55,1.08-.83,1.11-.55.28-.83,1.66-.55,1.94.28,2.77.83,2.49-1.39,1.11-.28,3.05-1.94,3.87-2.77.55-.28,1.66-.83,1.94-1.39.55-.53.55-1.64,1.11-2.19.55-.83,1.11-1.11,1.66-1.66,1.11-.83.83-1.11,1.11-2.22.55-1.66,1.92-3.59,1.64-5.53-1.36.28-3.58,2.49-4.69,3.32-2.49,2.22-4.98,4.7-7.75,6.92-6.06,4.41-12.98,5.24-20.44,6.62l-15.24,3.34Z"/>
    <path id="path53" class="cls-32" d="M542.27,1569.71c0,1.92-.83,5.78.83,7.7,1.39,1.39,1.66.28,2.22,1.92.55.83-1.11,2.75,1.65,2.48-.55.83-.28,1.37-.55,2.2.55-.28,1.39,0,1.94-.28,0,.83.28,2.2.83,2.75.82,1.11,1.65.55,2.48,1.11,1.94,1.37,1.94,3.02,3.03,5.22-2.48,3.02-6.34-1.65-8-3.3-4.69-4.69-10.22-10.46-7.72-17.89l3.31-1.92Z"/>
    <path id="path54" class="cls-32" d="M542.01,1559.16c.55-3.02,1.4-10.19,5.28-11.3,1.94,2.19,2.49-3.32,3.32-4.98.28.55.83.55,1.11,1.39,2.22-.55.55-3.32,2.49-3.32v.83c.83-.55,1.39-1.39,2.22-1.92.28.53.55.53.83,1.08,1.66-.83,1.11-2.47-.28-3.02,1.11-2.22,3.59-.55,4.42-2.77,3.05,1.11,4.15-3.05,6.64-3.87,1.66-.81,3.05.28,4.15-1.64.55-1.11,0-3.32.28-4.42-4.98-3.59-13.28,3.32-17.15,5.51-3.32,1.94-6.92,3.87-9.96,6.09-2.22,1.66-2.22,3.05-3.06,5.79l-.28,16.56Z"/>
    <path id="path55" class="cls-9" d="M532.61,1543.75c-1.67-1.66,1.66-4.99,3.32-5.82,1.66-.83,1.66,0,3.05-1.39.83-1.11.55-2.22,2.49-2.5l.55.55c.28-.83.83-1.39.83-2.22,1.66-.28,1.66,1.66,2.49,1.66,1.39-.28,1.39-1.66.56-2.49,1.11-.83,2.22-1.67,3.32-2.5,1.11-.55,2.77-1.11,3.59-1.66,1.66-1.39,1.11-2.22,3.05-3.06,1.66-.55,3.32.55,3.32-1.94.28-5.56-13-1.39-14.95-.55-6.09,2.49-9.41,8.03-13.29,12.47l1.67,9.43Z"/>
    <path id="path56" class="cls-17" d="M495.59,1575.44c-.58,1.11-.28,2.75-.58,4.13.58.28,1.14,2.48,1.42,3.02.28,1.65-.28,2.2,1.13,3.3,0-1.37-1.13-1.92-1.13-3.3-.28-1.09,0-2.47,0-3.85,0-1.09.28-2.47,0-3.58,0-.55-.85-1.09-.85-1.65s.28-1.65.56-1.92c-.56.55-.28,1.66-.28,2.75l-.27,1.09Z"/>
    <path id="path57" class="cls-17" d="M497.73,1588.69c.28.56,0,1.12,0,1.68.28.55.83.83,1.11,1.39l-1.11-3.06Z"/>
    <path id="path58" class="cls-17" d="M542.85,1498.37c.83-.55,1.65-1.95,2.47-1.12l-2.47,1.12Z"/>
    <path id="path59" class="cls-32" d="M504.37,1503.56c.28-.81.28-1.64.83-2.47,0-.28.83-.28,1.11-.83.28-.28-.28-1.11,0-1.39,1.11-1.36,3.05-1.36,3.87-3.3.55-1.11.28-1.11,1.11-1.92q1.11-1.11,1.66-2.49c.28-1.66-.28-.83,1.11-1.66,1.11-.53,1.94-.25,1.66-1.92,1.11,0,1.94-.83,2.49-1.39.83-.55,1.66-1.11,2.49-1.92,1.39-1.11,1.94-4.15,3.87-4.15.55-1.08.83-2.75,1.66-3.58,1.39-1.36,2.22.28,3.87-.28,1.39-.28,1.66-1.36,3.32-1.36,1.11-.28,3.05.28,3.87-1.11,1.08.83,3.3-1.11,4.69-1.66,1.66-.28,3.05-.55,4.7-.55.83-.28,1.66,0,2.77,0,.83,0,1.66-.55,2.49-.83,1.11,0,4.15.28,5.26.55.28,1.94,3.05,1.39,4.42,1.39.28,1.11,1.94,1.94,2.49,2.49,1.11.81,1.94,1.36,3.05,1.92,2.22.83,5.24,3.3,4.96,6.06-1.64.55-2.47-2.22-3.58-3.3-1.39-1.11-2.77-1.66-4.15-2.49-3.05-1.66-6.36-3.3-9.96-3.3-3.32,0-7.19,0-10.51.83-3.87.53-7.72,3.02-11.05,5.22-1.94,1.11-3.59,2.49-5.53,3.59-1.94,1.08-3.87,1.92-5.53,3.3-4.98,3.85-7.19,10.47-13,13.49l-4.45,3.04Z"/>
    <path id="path60" class="cls-32" d="M501.95,1506.12c-1.11.55-2.49,1.11-3.59,1.94-1.11.83-1.11,1.94-1.66,3.31-1.11,1.94-2.22,4.15-4.15,6.08-.83,1.39-1.39,1.66-1.94,3.05-.28.82-.28,1.09-.83,1.65-.55.83-1.11,1.11-1.39,1.94-.55,1.11-.55,2.2-1.39,3.31-.28.55-1.11.83-1.39,1.39s.28,1.39,0,1.94c-.28.82-1.11,1.09-1.94,1.65-.28.28-.83.28-1.11.83,0,.28.55.83.55,1.39-.83,1.66-2.77.83-2.49,3.59-.83.28-1.11,2.22-1.66,3.05-.55.82-1.39,1.65-2.49,2.48-1.11,1.11-1.94,2.22-2.77,3.03-1.11,1.39-2.49.83-2.22,2.49.28.83,1.11.55,1.11,1.39s-.83.82-1.11,1.37c-.83,1.11-1.94,1.66-2.49,3.05-.55,1.11-.55,2.2-1.39,3.59-.83,1.11-1.94,2.22-1.94,3.59,0,.55.55,1.11.28,1.66,0,.83-.55,1.66-.55,2.22-.28.55,0,1.37,0,1.92-.28.55-1.11.55-1.39,1.39-.28.55.55,1.11.55,1.94,0,.55-1.11,1.37-1.39,1.92-.55,1.66.28,2.22.55,3.86,0,1.39-.55,3.05,0,4.42.55.82,1.39,1.09,1.66,1.65,0,.83-1.11,1.66-1.11,2.22-.55,1.65.55,3.03,1.11,4.69.55,1.92.83,4.14,1.66,6.08,0,.28,0,.55.28.82.28-3.03-1.11-6.34-1.66-9.39-1.11-4.69,0-8.83.83-13.53.83-4.97,1.94-10.49,4.15-15.19,3.32-7.46,8.58-13.8,13-20.98,1.39-2.2,3.05-4.42,4.42-6.89,1.39-2.22,2.22-4.42,3.87-6.63,1.94-2.49,3.87-4.69,5.53-7.46,1.39-2.75,2.49-6.62,4.98-8.56l-.51-2.22Z"/>
    <path id="path61" class="cls-32" d="M475.35,1611.34q-.28,0-.55.28c1.94,2.49,1.66,6.09,2.49,9.13.28,1.11,1.11,2.77,1.66,4.15.83,1.39,1.94,1.94,2.49,3.59,0,.83-.28,1.11.55,1.94,0,0,.83,0,.83.28l.83.55v.82c.55.28.83.28,1.11.28.28.28.83.83,1.39,1.11,1.39.55,1.66,1.39,2.77,2.49,1.11.83,2.49.55,3.59,1.39.55.55.55,1.66,1.39,2.22.83.28,2.22,0,3.05.83.82.83.82,1.66,1.92,2.22.83.28,1.94.55,2.77,1.11,1.66.83,2.77,1.94,4.15,3.05,1.94,1.66,2.49,2.22,4.98,1.39,1.11,1.11.28,1.39,1.94,1.94.55.28,1.39.28,1.94.55.28.28.28,1.11.83,1.39.83.55,1.11.28,1.66.28.55.28,1.11.82,1.39,1.09,1.11.28,2.77,0,3.59-1.09-3.86-1.11-8.01-4.15-10.78-6.64-3.87-3.32-7.47-6.64-11.62-9.41-4.42-3.05-8.84-6.36-13.27-9.67-1.94-1.66-3.87-3.05-5.53-5.26-1.66-2.22-.83-7.19-2.22-9.69-.83-1.39-3.87.28-4.42-1.11l1.08.81Z"/>
    <path id="path62" class="cls-6" d="M580.49,1482.96c1.39,1.11,1.66.55,2.47,2.49.28.83.55,1.39.83,2.22,0,.55,0,1.11.28,1.66.83,2.75,3.02,4.69,3.55,7.45.28.81-.28,1.36,0,1.92,0,1.11.28,1.11.55,2.22.55,1.39.55,2.77.83,4.41.53,2.22,2.72,4.42,1.92,6.89-.55,1.11-.83,1.11-.83,2.49,0,1.11-.55,1.94-.81,3.05,0,1.08.53,1.92.53,3.02,0,.55-.53,1.94-.81,2.77-.55,1.94-2.47,2.75-3.02,4.69s-.28,4.15-2.75,5.24c.55-1.36,1.11-2.75,1.66-4.13,1.64-3.3,1.92-6.89,2.19-10.22.81-7.45-1.11-14.62-1.66-21.8l-4.94-14.37Z"/>
    <path id="path63" class="cls-6" d="M498.08,1497.52c.83-.28,1.39-1.64,1.66-2.75,2.49-.55,3.05-4.7,4.98-6.09,0,0,1.39-.55,1.39-.83.83-1.11,0-.83,0-1.66.28-.83,0-.55.83-1.39,0-.28,1.39.83.83-.83,1.66-.55,2.77-2.49,3.32-3.87,1.11-1.64,3.59-3.02,3.59-4.69.28-1.11-.83-1.94,0-2.77.28-.28,1.39,0,1.66-.28s.55-.83.83-1.11c1.08-.83,1.08-.55,1.92-1.94.28-.83.28-1.66,1.66-1.39.55.83,1.66,0,2.22-.55.83.55,2.22,0,3.05-.55,1.11.28,2.22-.28,3.05-.83.55,0,.83-.55,1.39-.55.55-.28,1.11-.28,1.66-.55.83.55,1.39,0,2.22,0,.55,0,1.39.55,2.22.28,1.39-.28,1.39-2.49,3.02-2.22,0,1.39,1.94,2.49,2.77,1.11,1.39,1.11,3.59-.55,5.26-.55,1.39,0,1.94.55,3.05.83.83,0,1.66-.83,2.49-1.11.83.55,2.22,1.11,3.32,1.39,1.39.28,2.47.55,3.58.83,2.49.28,5.26.83,7.47,2.22,1.11.83,1.66,1.39,2.77,2.49.83,1.11,2.22,1.11,3.05,1.94.55.55.28,1.39.55,1.66.55.55,1.66.55,2.22,1.11.55.55.28.83.55,1.66.55.55,1.11.83,1.66,1.11,1.64,1.66,1.08,3.85,1.08,6.06-1.36-1.39-2.19-3.32-3.58-4.41-2.22-2.22-5.26-4.15-7.75-5.81-3.05-2.22-6.92-5.26-10.49-6.09-3.59-.83-8.03-.83-11.62-.55-3.59,0-8.28.28-11.33,3.05l-36.53,27.63Z"/>
    <path id="path64" class="cls-6" d="M496.97,1500.24c-1.66.84-5.82,2.5-6.94,4.16-.28.55-.28,1.11-.55,1.66-.28.56-1.11.84-1.39,1.39-.28,0,0,.55-.28.83,0,.28-.55.28-.83.55-.28.55-.55,1.39-.83,1.94-.83,1.11-2.22,1.11-2.78,2.78-.55,1.39-.28,2.77-.83,4.42-.28,1.39-1.12,1.95-1.95,3.33-.28.55-.28,1.11-.55,1.94,0,.28.28.83.28,1.11-.28.28-.83.28-1.11.84-.56,1.11-.28,1.39-1.12,2.49-.55.83-1.11,1.94-1.94,2.49-1.12,1.12-1.95,1.39-2.78,2.78-.55,1.39-.84,2.77-.84,4.15,1.67-3.59,5.28-4.7,8.06-7.2,1.95-1.66,2.5-3.87,3.33-6.37,1.12-3.32,2.78-6.09,5-8.59l8.05-14.71Z"/>
    <path id="path65" class="cls-6" d="M517.4,1655.56c.83.28,2.77,1.92,3.87,2.72,1.39,1.39,1.11.83,2.77.83,1.39,0,2.75.28,3.85.55,1.11,0,1.11-.28,1.94,0,.83.53,1.11,1.08,1.66,1.36,1.11.53,2.22.53,3.59.53,1.64,0,1.92-.25,3.3-.81,1.11-.55,2.49-.28,3.87-.83,1.39-.25,2.75-1.36,3.85-1.36.83,0,1.39.28,2.22.28.28,0,1.39-.28,1.94-.55,1.66-.25,3.05-.53,4.69-1.08,3.87-1.36,6.09-4.36,8-7.38-2.47.83-4.41,3.02-6.89,4.11-1.66.83-3.85,1.36-5.51,1.92-4.7,1.08-9.11,1.92-13.81,1.36l-19.34-1.64Z"/>
    <path id="path66" class="cls-29" d="M559.46,1550.55c-2.49.28-3.87,3.59-5.27,5.26-.55,1.39-.55,2.49-1.11,4.15-.83,1.66-.55,2.22-.83,3.87-.28,1.65-1.39,2.2-1.11,3.86.28.55.83,1.11.83,1.66.28.55-.28,1.66-.28,2.22.28.83.83.83,1.11,1.39.55.83.55,1.39.55,2.49.28.83,1.39,3.03,3.06,2.49v.27c-2.22-.82-1.67-6.91-1.95-8.84-.28-1.66-.55-3.05-.28-4.7.28-2.2.83-5.52,1.67-7.73l3.6-6.38Z"/>
    <path id="path67" class="cls-31" d="M563.29,1549.19c-1.11.83-2.22,1.11-3.32,2.22-.83,1.11-1.66,2.49-2.49,3.59q-.83.83-.83,1.66c0,.83,0,1.11-.28,1.66-.55.83-.55,1.11-.55,1.66-.28.83.28,1.39-.83,1.66,0,.55.28.83.28,1.39s-.58.83-.58,1.11c0,.83.58,1.66.3,2.77q-.3,1.39.28,2.77c.28,1.11.83,2.22,1.11,3.32.28,1.11.55,2.22,1.11,3.05.55.55,1.11,1.11,1.39,1.66.55.55.55,1.11.83,1.94,1.11,1.66.28-2.22,0-2.77-1.39-5.53-4.15-11.34-1.11-16.6l4.7-11.09Z"/>
    <path id="path68" class="cls-12" d="M583.98,1583.12c-1.66,2.22-3.32,5.53-3.05,8.3,0,2.49,2.77,4.98,4.15,7.19,1.66,2.47,2.49,5.24,3.87,7.45,1.66,2.22,2.49,1.94,4.15,4.15,3.32,4.7,2.77,11.88,3.05,17.97.28,2.77,0,5.53-.55,8.28-.55,2.77-2.22,13.83-2.22,16.86,1.11-4.13,3.05-16.03,3.59-19.6.28-3.59.28-6.92.28-10.51,0-6.36-.83-11.33-2.22-17.41-.55-1.94-1.39-3.87-1.94-6.09-.83-2.19-1.11-4.69-1.66-7.17-.83-2.22-1.94-4.42-2.77-6.64-.28-1.11-.55-1.94-1.39-3.05-.55-.55-2.22-1.39-2.49-.28l-.8.55Z"/>
    <path id="path69" class="cls-21" d="M585.47,1587.33c-3.87,4.15,3.02,7.47,3.85,11.6.28,2.22.28,3.87,1.66,5.81,1.11,1.94,2.22,3.32,3.3,5.24-2.75-3.58-2.19-8.56-3.85-12.13-.83-1.66-2.22-3.05-3.02-4.42-.55-1.11-.28-1.94-.28-3.05-.28-1.11-.83-1.66-1.11-2.49l-.55-.55Z"/>
    <path id="path70" class="cls-26" d="M581.59,1551.96c.83-1.11,1.39-2.49,1.64-3.59.28-.28.55-.28.55-.28,1.08,1.11,2.47,3.59,2.72,5.24.55,1.66.55,8.28,1.64,9.92-.81-4.41-2.17-11-5.45-12.11l-1.11.82Z"/>
    <path id="path71" class="cls-12" d="M581.85,1587.61c-2.19,1.94-2.47,4.7-1.36,7.19.83,1.39,1.64,1.39,2.75,2.22.81.83,1.36,2.22,2.45,2.75-.25-2.19-1.92-4.41-2.45-6.62-.83-2.49-.28-3.32.53-5.81l-1.92.27Z"/>
    <path id="path72" class="cls-21" d="M591.74,1606.15c1.11.55,2.49,3.58,2.77,4.94.83,1.64,1.39,4.38,1.11,6.3,1.39-2.72,0-6.85-1.11-9.6-.55-1.36-1.39-2.47-2.22-3.83-.83-1.11-1.11-2.47-1.94-3.85l1.39,6.05Z"/>
    <path id="path73" class="cls-38" d="M585.1,1589.55c-.28,2.22,1.39,4.45,2.77,5.83,1.39,1.95,2.22,3.89,2.22,5.83.28-1.11.28-2.77-.28-3.87-.28-.85-1.66-1.4-2.22-2.51-.28-1.11-.83-2.23-1.11-3.34-.28-.83,0-2.79-1.39-2.22v.27Z"/>
    <path id="path74" class="cls-38" d="M593.93,1608.87c1.11,1.94,1.36,4.15,1.64,6.09.28,1.39.28,2.22.28,3.32s.55,1.94.55,2.77c.25-1.94-.28-3.87-.55-6.09,0-1.66-.28-3.59-1.64-5.26l-.28-.83Z"/>
    <path id="path75" class="cls-38" d="M592.51,1657.48c-1.39,4.15-.28,12.73,1.39,16.62,1.66,4.42,2.22,9.41,2.77,14.11,0-3.05-.28-6.36-.55-9.13-.55-2.77-1.66-4.98-2.22-7.5-.83-4.98-1.94-10.23-1.11-15.5.28-.55.28-1.11.55-1.68l-.83,3.07Z"/>
    <path id="path76" class="cls-22" d="M593.93,1706.13v.55c1.61,0,.28-2.21,0-.55Z"/>
    <path id="path77" class="cls-22" d="M595,1707.29c-.28,0-.55.58-.28.85.55,0,.83-.85.28-.55v-.3Z"/>
    <path id="path78" class="cls-22" d="M595.34,1705.59c-.55.28-.55,1.11.28,1.11.53,0,.53-.83,0-1.11l-.28.28v-.28Z"/>
    <path id="path79" class="cls-22" d="M596.72,1705.93c-1.34.51,1.04.77-.28,0v.25l.28-.25Z"/>
    <path id="path80" class="cls-22" d="M597.81,1705.63c-.58,0-1.15.85-.3,1.13.58.28.85-1.42,0-.85l.3-.28Z"/>
    <path id="path81" class="cls-22" d="M596.15,1707.03c0,.51.51.51.51,0h-.51Z"/>
    <path id="path82" class="cls-22" d="M598.11,1705.59c-.51.3-.51,1.45.25,1.45.51-.28.25-1.15,0-1.45h-.25Z"/>
    <path id="path83" class="cls-22" d="M598.15,1707.58c-.28.28-.55.81,0,.81.55-.25.55-1.36,0-.81Z"/>
    <path id="path84" class="cls-22" d="M596.17,1706.18c-1.39,1.36,1.94,0,.28,0h-.28Z"/>
    <path id="path85" class="cls-22" d="M596.1,1708.12c-.55.28-.28,1.13.28.58.28-.58,0-1.15-.55-.85l.28.28Z"/>
    <path id="path86" class="cls-22" d="M597.58,1706.69c-.53.3-1.08,1.4-.28,1.68.81.28.81-1.39.28-1.39v-.29Z"/>
    <path id="path87" class="cls-22" d="M595.04,1706.43c-.51,0-.77.58-.25.85.51,0,.76-.55.25-.85Z"/>
    <path id="path88" class="cls-22" d="M593.93,1706.43c-1.11,1.7,1.11,1.42.28.3l-.28-.3Z"/>
    <path id="path89" class="cls-22" d="M594.53,1708.4c0,.25-.25.25,0,.25s.25-.25.25-.25h-.25Z"/>
    <path id="path90" class="cls-22" d="M598.7,1707.29h.17c0-.25-.17-.25-.17-.25v.25Z"/>
    <path id="path91" class="cls-22" d="M596.7,1706.71c-.28-.28-.55.55,0,.55.55.28.55-.55.28-.83l-.28.28Z"/>
    <path id="path92" class="cls-22" d="M595.91,1706.99c-.58,0-.87.87-.28.87.85.28.58-.87.58-1.17l-.3.3Z"/>
    <path id="path93" class="cls-22" d="M595.04,1708.94v.3c0-.3.51-.59,0-.59v.29Z"/>
    <path id="path94" class="cls-20" d="M580.99,1536.79c-2.22-1.08-4.7,1.11-5.26,3.3-2.49-.28-5,1.36-5.56,3.83,7.5-1.36,14.96-7.13,18.56-13.45l-7.75,6.32Z"/>
    <path id="path95" class="cls-23" d="M557.48,1566.88c-.28.28-1.11,1.11-1.39,1.66-.55,1.39.28,1.11.28,1.94v2.22c0,.55.83,1.11.83,1.94.53,2.47.28,3.02,1.64,5.24,1.08,1.66,1.92,3.59,3,5.51-.25-5.51-4.11-11.03-3.83-16.83,0-2.49,0-3.58-.28-6.06-.53-2.49,1.66-4.7,1.11-6.64l-1.36,11.03Z"/>
    <path id="path96" class="cls-23" d="M572.69,1602.31c4.42,6.62,7.47,11.88,7.47,20.44,3.3-2.19,1.39-5.24.28-8.28-1.11-3.05-1.11-6.36-2.77-8.83-.83-1.39-1.66-2.49-2.22-3.87-1.11-1.94-1.11-1.11-2.77-2.49-1.39-1.39-1.39-3.05-2.49-4.42-.83-1.11-2.49-1.66-3.59-2.49,2.77,2.22,4.7,7.19,6.64,10.23l-.55-.28Z"/>
    <path id="path97" class="cls-10" d="M488.92,1500.86c1.39-1.65,2.49-4.42,4.7-5.52,1.39-1.09,2.22-.55,3.05-2.2.55-1.11.28-1.94,1.39-3.03,2.22-3.05,4.15-8.29,8.03-9.95-1.39.83-3.05.55-4.15,1.39-1.11,1.11-1.39,2.77-2.22,4.14-1.11,1.11-2.77,1.94-3.87,3.05-1.11,1.39-1.94,2.75-3.05,4.14-4.42,4.14-10.51,11.6-11.06,17.94l7.19-9.95Z"/>
    <path id="path98" class="cls-23" d="M509.74,1478.7c1.39-3.56,1.92-7.14,5.24-9.05,3.02-1.92,5.77-3.02,9.07-4.67-3.3-.83-7.97,1.37-9.62,4.12l-4.69,9.61Z"/>
    <path id="path99" class="cls-19" d="M492.54,1503.05c1.92-1.09,6.61-3.85,7.72-5.78.55-.82-.28-1.65,0-2.2.27-.82,1.09-.82,1.37-1.37,1.09-1.39,2.48-1.92,2.75-3.59-2.19.83-3.58,3.31-4.95,4.96-1.09,1.39-3.3,2.48-4.13,4.13l-2.75,3.84Z"/>
    <path id="path100" class="cls-19" d="M555.29,1552.77c-1.68,1.94-3.89,3.32-4.73,6.09-.83,2.19.55,3.58.55,5.79,0,1.94-1.95,3.59-1.66,5.53.28,1.39,1.94,3.05,3.05,4.13-1.39-2.75-1.66-6.06-.83-8.83.55-2.49.83-5.53,1.94-7.72.55-1.39,1.68-2.77,2.51-4.15.55-1.11.83-2.77,1.39-3.59,1.68-1.94,5.56-1.66,6.39-3.87-2.22.28-5.28,1.66-6.39,3.32l-2.22,3.32Z"/>
    <path id="path101" class="cls-19" d="M584.57,1528.5c-1.39.3-4.13,5-5.79,6.39,3.32-1.94,6.06-2.77,5.79-7.22,2.75-.55,4.94-2.77,4.69-5.56l-4.69,6.39Z"/>
    <path id="path102" class="cls-19" d="M574.61,1607.77c0,1.39,1.13,2.49,1.4,3.87.3,1.66.85,2.77,1.4,4.42.85,3.32.85,9.41-.55,12.73,2.23-3.59,2.51-5.53,1.68-9.69-.55-2.49.55-9.69-2.81-10.23l-1.12-1.1Z"/>
    <path id="path103" class="cls-19" d="M484.05,1630.66c-.28,1.95,1.39,1.95,2.49,3.06,1.37,1.39,1.92,2.77,3.31,4.16,1.92,1.66,2.2.55,4.14,1.11,1.65.55,2.2,2.22,3.58,3.59-1.37-1.11-2.2-2.77-3.58-3.87-1.39-.83-2.77-.83-3.86-1.95-1.39-1.11-1.11-2.49-1.94-3.59-1.09-1.66-2.75-1.94-4.42-2.5h.28Z"/>
    <path id="path104" class="cls-19" d="M509.74,1650.59c1.65.28,3.85,2.22,5.22,3.33,2.2,1.95,2.48,2.22,4.95,2.5,3.02.28,8.25,2.77,11.53,1.66-3.56,0-6.31-3.05-10.16-2.77-2.2.28-2.2.55-4.12-.28-1.11-.84-1.92-2.22-3.3-2.78l-4.12-1.67Z"/>
    <path id="path105" class="cls-19" d="M537.57,1462.48c.56-.55,3.33-2.22,4.72-2.22,1.95,0,2.78,1.94,4.99,1.66-1.11.28-1.94.83-3.05,1.11-.28-1.66-1.39-3.32-3.33-2.22l-3.33,1.66Z"/>
    <path id="path106" class="cls-34" d="M556.96,1559.41c-1.4,2.2-2.53,5.79-1.68,8.26h1.12c0-2.47-.28-4.95.84-7.15l-.28-1.1Z"/>
    <path id="path107" class="cls-34" d="M576.33,1631.26c-1.13,2.22-1.68,4.7-2.81,6.92-1.39,3.02-4.19,5.79-5.04,9.09,4.21-1.08,6.45-11.03,8.68-14.06l-.83-1.94Z"/>
    <path id="path108" class="cls-34" d="M565.46,1652.03c-2.45,1.39-5.72,4.11-7.11,6.55,2.47-.25,6.3-3.81,7.91-5.72l-.81-.83Z"/>
    <path id="path109" class="cls-34" d="M500.23,1644.25c1.39.83,3.34,2.75,4.73,3.02-1.39-1.92-4.18-2.19-5.03-3.58l.29.55Z"/>
    <path id="path110" class="cls-8" d="M565.46,1629.88c-.83,6.09-5.79,12.2-11.03,15.51,5.24-1.94,9.36-6.64,11.3-11.64.83-2.22,1.64-5.53,1.64-7.77,0-2.77-1.92-5.81-2.47-8.6,0,2.23.83,4.73,1.39,6.94l-.83,5.56Z"/>
    <path id="path111" class="cls-27" d="M567.44,1632.88c-.55,1.95-1.66,3.34-2.79,5.28,2.51-.83,4.17-2.77,3.62-4.98l-.83-.3Z"/>
    <path id="path112" class="cls-27" d="M576.82,1506.88c-.83,1.4-.55,4.17-1.11,6.11-.55,1.95-1.39,3.62-1.94,5.28-1.11,2.79-2.49,5.56-5.81,6.66.83-1.66,3.05-1.66,4.15-3.05,1.11-1.39.28-2.79.55-4.17.55-1.66,1.94-2.77,2.49-4.15.55-1.68.55-3.34,1.11-5l.55-1.69Z"/>
    <path id="path113" class="cls-27" d="M577.16,1513.01c-.58,1.95-1.13,4.21-2.56,5.87,3.66-1.11,1.7-3.06,2.56-5.3v-.57Z"/>
    <path id="path114" class="cls-25" d="M508.06,1501.46c-1.92,1.66-6.89,4.98-7.17,7.47,2.22-.55,3.86-3.59,4.97-5.26,1.37-2.22,3.03-3.87,4.96-5.82,1.39-1.66,5.51-7.47,7.44-7.75-1.65-1.95-4.41,1.94-5.24,3.32-.55.83-.28,1.39-.82,2.22-.83.83-1.94.83-2.49,1.94l-1.65,3.88Z"/>
    <path id="path115" class="cls-7" d="M516.01,1494.54c1.11-1.39,1.39-3.59,2.77-4.98,1.66-1.66,4.72-1.94,6.09-3.87-2.78-.55-4.16,1.39-5.55,3.32-1.39,1.66-2.22,2.49-3.89,3.87,3.33-2.77,4.99-7.75,8.6-10.51,1.39-1.39,4.7-3.05,6.64-3.32-.83,2.22-3.59,2.77-4.7,4.7l-9.96,10.79Z"/>
    <path id="path116" class="cls-27" d="M467.08,1568.76c-1.09,2.77-.82,7.19-.82,10.23,0,2.49.55,5.26,1.37,7.73.82,2.22,1.92,3.59,2.2,6.09.28,2.22,0,3.05,2.19,4.14-2.47-7.73-7.15-19.34-3.02-27.08-3.3-3.59.28-10.78,2.48-14.37-3.3,1.94-4.69,6.36-4.41,9.96v3.32h.02Z"/>
    <path id="path117" class="cls-25" d="M468.96,1571.92c1.95.83.84,1.66.28,3.59-.84,2.47,0,3.02.55,4.95.28,1.65.28,3.31.56,4.96.28,2.2,1.68,4.41,2.51,6.6-3.36-4.12-5.87-12.66-4.19-17.89l.28-2.21Z"/>
    <path id="path118" class="cls-27" d="M471.44,1598.06c-1.12,1.95.84,8.06,1.4,10.28.55,2.22,4.46,4.45,3.9,6.39-2.23.28-3.36-5.27-3.62-6.94-.28-1.39.28-3.06,0-4.17-.28-1.11-1.39-1.66-1.68-2.78,0,0,0-2.78,0-2.78Z"/>
    <path id="path119" class="cls-35" d="M465.98,1561.62c0-2.77,1.11-6.09,2.49-8.58,1.09-1.94,4.41-4.7,4.14-6.92-2.22.83-3.05,3.32-4.14,5.26-1.66,3.05-3.59,5.26-3.32,9.13l.82,1.11Z"/>
    <path id="path120" class="cls-25" d="M477.34,1560c-1.66,1.67-6.09,10.81-2.22,11.92,0-1.94-.55-3.87-.28-5.82.28-2.49,1.94-3.87,3.05-5.82,1.11-1.94,1.39-3.87,1.94-5.82.83-1.94,3.05-3.59,3.59-5.27-2.49.56-5.53,6.11-6.09,8.6,0,0,0,2.21,0,2.21Z"/>
    <path id="path121" class="cls-14" d="M474.24,1574.04c-.56,1.94-1.42,8.31.28,9.97,2.26-2.77-1.99-7.2,0-10.81l-.28.84Z"/>
    <path id="path122" class="cls-14" d="M475.6,1587.58c-.85,3.06,1.95,7.22,1.95,9.7l-1.95-9.7Z"/>
    <path id="path123" class="cls-14" d="M530.17,1487.04c2.75-1.95,6.58-5.03,10.13-4.73-2.74,1.95-6.57,2.51-9.3,4.46l-.83.28Z"/>
    <path id="path124" class="cls-25" d="M530.06,1546.99c-3.32,3.31-5.26,9.36-3.59,14.03.55-4.13,1.11-8.53,2.77-12.39-1.66-2.48.83-6.88,2.22-8.81-.83,1.11-1.66,2.2-2.22,3.59l.82,3.58Z"/>
    <path id="path125" class="cls-14" d="M526.26,1548.34c-2.19,1.12-3.58,5-2.19,7.22h.55q0-.28,0,0c-.27.28-.55.83-.82,1.39.28-.55.28-.83.55-1.11l1.92-7.5Z"/>
    <path id="path126" class="cls-14" d="M525.15,1564.94c.55,1.67.28,5.83,2.22,6.39-.28-.83-.28-1.66-.55-2.22l-1.66-4.17Z"/>
    <path id="path127" class="cls-30" d="M535.64,1547.52c-1.68,2.5-1.68,5.83-1.95,8.61-.28,3.06-1.13,7.5.55,10.26.28-4.16-1.12-7.77,0-11.93.56-2.77,3.36-5.55,3.64-8.04-.28,0-.56.28-.84.28,0-1.11.56-1.94,1.39-2.78l-2.79,3.6Z"/>
    <path id="path128" class="cls-30" d="M542.05,1544.8c-1.64.83-2.75,3.06-3.02,4.99,1.11-1.11,1.39-2.77,2.48-4.16,1.09-1.39,2.47-2.22,3.56-3.33l-3.02,2.5Z"/>
    <path id="path129" class="cls-30" d="M537.57,1543.4c1.39-.83,2.77-2.49,4.42-3.32,3.32-2.22,6.36-3.05,9.96-4.42l-14.38,7.74Z"/>
    <path id="path130" class="cls-11" d="M540.94,1552.81c-1.92,3.02-4.13,12.94-1.65,15.96,1.65-1.09.82-5.22.82-6.88,0-2.48.28-4.14.83-6.61,1.09-4.14,2.2-6.06,5.49-8.82-2.19.83-4.67,1.94-6.05,3.86l.55,2.49Z"/>
    <path id="path131" class="cls-11" d="M546.43,1545.96c1.12-1.12,2.79-1.95,4.17-2.81-1.39,0-3.89.85-3.89,1.97l-.28.84Z"/>
    <path id="path132" class="cls-11" d="M540.96,1562.69c0,2.22-.83,4.42-.83,6.92,0,1.94.83,2.77,1.66,4.7-.55-1.66-.83-3.87.28-4.98-1.94-3.05-.55-8.86.28-11.62l-1.39,4.98Z"/>
    <path id="path133" class="cls-11" d="M489.82,1525.44c1.94-4.42,5.81-8.28,7.75-12.43-1.66,0-4.15,2.22-4.15,4.15l-3.6,8.28Z"/>
    <path id="path134" class="cls-11" d="M476.79,1543.91c1.39-1.37,5.28-3.56,4.45-5.77-.55-.28-.28.28-.55.28l-3.89,5.49Z"/>
    <path id="path135" class="cls-11" d="M551.46,1652.26c2.48-1.66,8-4.69,9.1-7.46-2.48,0-4.69,4.14-6.62,5.25-1.92,1.11-4.96,1.94-7.17,2.75l4.69-.54Z"/>
    <path id="path136" class="cls-11" d="M563.52,1643.97c-.25.28-.53.28-.81.55,0-1.11.55-1.94,1.34-2.49q0-.3,0,0c-1.34.55-2.41,1.66-3.49,2.77l2.96-.83Z"/>
    <path id="path137" class="cls-11" d="M569.6,1618.83c-.28,4.41,1.08,8.53-1.64,12.94,1.36-2.47,0-5.49,1.36-7.7l.28-5.24Z"/>
    <path id="path138" class="cls-37" d="M580.95,1561.69c-.28,1.08.28,2.19-.28,3.58-.28,1.08-1.11,1.64-1.39,2.75-.85,2.47.83,6.05,1.11,8.52.28-1.64.28-3.83.28-5.49-.28-.83-.28-1.39,0-2.19,0-.55.55-1.11.55-1.66.28-1.11-.55-1.92,0-3.02.55-1.11,1.94-1.39,2.49-2.19-1.94-.55-1.39-2.22-1.11-3.32l-1.66,3.04Z"/>
    <path id="path139" class="cls-33" d="M581.29,1587.57c-1.08,1.11-1.92,3.05-1.92,4.73.28,2.49,3.81,3.32,4.08,5.26-2.17-.28-3-6.09-2.45-8.04.28-1.39,1.36-4.7,2.71-5.26-.25-.28,0-.28-.25-.58-.55,1.4-1.36,3.34-2.45,4.17l.27-.28Z"/>
    <path id="path140" class="cls-6" d="M566.59,1552.53c-1.94,1.66-3.87,4.15-4.7,6.34-1.39,2.77-1.66,5.81-1.39,8.83,0,2.49.55,4.7,1.39,6.89.83,2.22,2.49,4.15,3.87,6.34-.83-.53-1.39-3.02-1.66-3.85-.83-1.94-1.66-3.59-1.94-5.79-.83-4.15-.28-8.83,1.66-12.7.83-2.19,1.94-3.85,3.59-5.51,1.11-.83,2.22-1.39,3.32-1.94.83-.28,2.49-.55,2.77-1.11-1.11,0-2.77.83-3.87,1.11-1.11.55-2.77,1.11-3.59,1.94l.55-.55Z"/>
    <path id="path141" class="cls-18" d="M496.92,1565.49c-1.4,2.2-.55,4.41-.28,6.61.56-3.3,0-6.33,1.68-9.36l-1.4,2.75Z"/>
    <path id="path142" class="cls-17" d="M498.33,1587.33c-.81,1.65-1.36,3.55-.81,5.19l.81-5.19Z"/>
    <path id="path143" class="cls-15" d="M520.98,1513.58c-1.66,2.22-4.42,3.87-6.34,6.08-2.2,2.49-3.31,4.7-4.69,7.46-2.48,4.42-4.96,9.12-6.34,13.81,2.77-3.31,2.22-8.56,5.25-11.88,1.65-1.94,3.03-2.22,3.59-4.97h.82c0-3.87,1.66-2.49,3.86-4.15,1.66-1.09,1.11-3.03,3.86-3.86-.28-1.11.28-2.22,1.09-3.32l-1.1.82Z"/>
    <g class="cls-42">
      <path id="path144" class="cls-2" d="M599.53,1706.18c1.39-6.34,0-17.67-2.22-31.75-2.22-14.37.28-18.51,3.05-34.54,2.77-16,1.66-28.44.28-37.29-3.87-22.64-6.36-21.81-8.86-32.59-2.49-11.06-3.05-21.84-8.3-25.15-1.94,2.49-2.49,4.15-3.59,9.41-1.66,8-3.32,10.22-3.05,15.2.28,4.96,2.49,11.05,0,17.67-2.49,6.36.28,6.92,3.05,12.43,1.94,3.59,4.15,8.03,5.53,12.43,5.26,5.53,6.36,17.14,6.09,22.39-.28,5.24-.83,14.92-1.39,27.62-.55,12.7,3.87,16.03,4.42,24.58s.28,11.88-1.11,19.6"/>
    </g>
    <g class="cls-41">
      <path id="path145" class="cls-1" d="M566.93,1458c15.2,7.75,33.99,26.54,33.99,45.06,0,21.01-5.51,29.84-12.43,36.76-6.64,6.64-6.92,6.36-8.58,14.37-1.66,8.03-3.32,10.23-3.05,15.22.28,4.96,2.49,11.05,0,17.69-2.49,6.36.28,6.89,3.05,12.43,5.53,9.96,10.79,23.5,4.7,34.29-6.09,11.05-9.13,21.01-26.54,32.05-17.41,11.05-37.89,3.32-47.54-3.87-9.96-7.45-17.98-10.22-28.2-22.39-9.96-11.88-9.13-14.09-13-29.28-4.16-15.5-8.58-15.5-9.41-32.09-.83-16.86.28-19.9,2.49-30.12,2.22-10.51,4.42-18.24,6.92-27.65,2.22-9.39,11.62-20.73,16.87-27.37,5.24-6.89,5.51-11.33,21.01-24.58,15.47-13.28,34.29-17.98,53.64-13.28,1.93.83,4.15,1.66,6.09,2.77"/>
    </g>
    <path id="path146" class="cls-1" d="M574.95,1549.79c6.06-2.19,6.62-3.58,10.47-7.15"/>
    <path id="path147" class="cls-1" d="M571.29,1586.83c1.66,3.3,3.85,4.94,4.94,6.3"/>
    <path id="path148" class="cls-4" d="M566.94,1458.1c15.2,7.75,33.97,26.52,33.97,45.01,0,20.98-5.51,29.81-12.43,36.73-6.62,6.62-6.89,6.34-8.56,14.34-1.66,8-3.32,10.22-3.05,15.2.28,4.96,2.49,11.05,0,17.67-2.49,6.34.28,6.89,3.05,12.43,5.53,9.94,10.77,23.48,4.7,34.25-6.09,11.03-9.13,20.98-26.54,32.01-16.03,10.22-34.52,4.42-45.03-2.19"/>
  </g>
</svg>