<?xml version="1.0" encoding="UTF-8"?>
<svg id="svg3" xmlns="http://www.w3.org/2000/svg" xmlns:xlink="http://www.w3.org/1999/xlink" viewBox="0 0 1398.49 3639.87">
  <defs>
    <style>
      .cls-1 {
        stroke: #602228;
      }

      .cls-1, .cls-2, .cls-3, .cls-4 {
        fill: none;
      }

      .cls-1, .cls-2, .cls-4 {
        stroke-linecap: round;
        stroke-linejoin: round;
        stroke-width: 1.32px;
      }

      .cls-5 {
        fill: #ba8981;
      }

      .cls-5, .cls-6, .cls-7, .cls-8, .cls-9, .cls-10, .cls-11, .cls-12, .cls-13, .cls-14, .cls-15, .cls-16, .cls-17, .cls-18, .cls-19, .cls-20, .cls-21, .cls-22, .cls-23, .cls-24, .cls-25, .cls-26, .cls-27, .cls-28, .cls-29, .cls-30, .cls-31, .cls-32, .cls-33, .cls-34, .cls-35, .cls-36, .cls-37, .cls-38, .cls-39 {
        fill-rule: evenodd;
      }

      .cls-6 {
        fill: #aa6863;
      }

      .cls-7 {
        fill: #b8728f;
      }

      .cls-8 {
        fill: #cb8290;
      }

      .cls-9 {
        fill: #b37a73;
      }

      .cls-2 {
        stroke: #8f5e5a;
      }

      .cls-10 {
        fill: #98445a;
      }

      .cls-11 {
        fill: #ad6764;
      }

      .cls-12 {
        fill: #e7b68a;
      }

      .cls-13 {
        fill: #c59b93;
      }

      .cls-14 {
        fill: #b97f97;
      }

      .cls-15 {
        fill: #c8a099;
      }

      .cls-16 {
        fill: #bd8851;
      }

      .cls-17 {
        fill: #fff;
      }

      .cls-18 {
        fill: #bfd8e4;
      }

      .cls-19 {
        fill: #b15d63;
      }

      .cls-20 {
        fill: #964f61;
      }

      .cls-21 {
        fill: #ecc5a1;
      }

      .cls-22 {
        fill: #e2a86f;
      }

      .cls-40 {
        clip-path: url(#clippath-1);
      }

      .cls-23 {
        fill: #995862;
      }

      .cls-24 {
        fill: #8f4e4c;
      }

      .cls-25 {
        fill: #cb8ba4;
      }

      .cls-26 {
        fill: #b17f4d;
      }

      .cls-41 {
        clip-path: url(#clippath-3);
      }

      .cls-27 {
        fill: #b87e95;
      }

      .cls-28 {
        fill: #d29d65;
      }

      .cls-29 {
        fill: #a45d5a;
      }

      .cls-30 {
        fill: #a16e84;
      }

      .cls-31 {
        fill: #995854;
      }

      .cls-32 {
        fill: #b0756d;
      }

      .cls-4 {
        stroke: #370b12;
      }

      .cls-33 {
        fill: #f7af50;
      }

      .cls-42 {
        clip-path: url(#clippath-2);
      }

      .cls-34 {
        fill: #a55b7a;
      }

      .cls-35 {
        fill: #b65e83;
      }

      .cls-36 {
        fill: #b67e78;
      }

      .cls-37 {
        fill: #d1764b;
      }

      .cls-38 {
        fill: #f6e5d4;
      }

      .cls-43 {
        clip-path: url(#clippath);
      }

      .cls-39 {
        fill: #8a4646;
      }
    </style>
    <clipPath id="clippath">
      <rect class="cls-3" x="804.49" y="1398.34" width="135.08" height="241.08"/>
    </clipPath>
    <clipPath id="clippath-1">
      <rect class="cls-3" x="804.49" y="1398.34" width="135.08" height="241.08"/>
    </clipPath>
    <clipPath id="clippath-2">
      <rect class="cls-3" x="804.49" y="1398.34" width="135.08" height="241.08"/>
    </clipPath>
    <clipPath id="clippath-3">
      <rect class="cls-3" x="804.49" y="1398.34" width="135.08" height="241.08"/>
    </clipPath>
  </defs>
  <g id="_콩팥_오른쪽" data-name="콩팥 오른쪽">
    <g class="cls-43">
      <path id="path2" class="cls-32" d="M828.93,1524.43c-2.34-6.23-.26-11.94,0-16.6.26-4.67-1.3-6.75-2.86-14.28-1.56-7.51-1.82-7.25-8.05-13.48-6.49-6.49-11.66-14.78-11.66-34.49s23.09-40.2,37.6-44.87c18.15-4.41,35.81,0,50.33,12.46,14.54,12.44,14.8,16.6,19.71,23.07,4.93,6.23,13.76,16.88,15.84,25.68,2.34,8.83,4.41,16.08,6.49,25.94,2.08,9.59,3.12,12.44,2.34,28.26-.78,15.56-4.93,15.56-8.83,30.1-3.63,14.26-2.86,16.34-12.2,27.48-9.59,11.42-17.11,14.02-26.46,21.01-9.07,6.75-28.28,14-44.61,3.63-16.34-10.36-19.19-19.71-24.9-30.08-5.71-10.12-.78-22.83,4.41-32.17,2.59-5.19,5.19-5.69,2.85-11.66Z"/>
    </g>
    <g class="cls-40">
      <path id="path3" class="cls-22" d="M806.89,1573.98c2.6,15.04,4.93,18.93,2.86,32.41-2.08,13.22-3.38,23.84-2.08,29.8h5.71c-1.3-7.25-1.56-10.36-1.04-18.39.52-8.03,4.67-11.14,4.15-23.07-.52-11.92-1.04-21.01-1.3-25.92-.26-4.93.78-15.82,5.71-21.01,1.3-4.13,3.37-8.29,5.19-11.66,2.6-5.17,5.19-5.69,2.86-11.66-2.34-6.21-.26-11.92,0-16.58.26-4.67-1.3-6.75-2.86-14.26-1.04-4.93-1.56-6.49-3.37-8.83-4.93,3.12-5.45,13.22-7.79,23.61-2.34,10.11-4.67,9.33-8.31,30.57-1.29,8.31-2.33,19.97.27,34.99Z"/>
    </g>
    <path id="path4" class="cls-6" d="M840.6,1410.12c-3.89,0-5.43,6.49-6.73,9.33-2.08,4.41-3.89,7.79-4.15,12.7,0,7.01-2.6,13.48-1.56,20.49,1.04,7.25,4.41,13.46,10.88,16.58,6.75,3.12,12.72,6.47,17.65,12.18,6.21,6.99,5.69,10.88,5.17,19.43-.26,7.27,1.56,15.3-2.34,22.03-2.06,3.38-7.51,4.15-10.11,7.01-2.6,2.84-4.67,5.43-7.27,8.29-4.93,5.17-4.93,9.85-6.73,16.84-1.82,6.75-1.04,14,4.13,19.45,7.53,7.77,18.93,10.62,29.32,12.18,5.97,1.02,10.9.78,16.6-1.56,4.41-2.08,7.27-5.71,11.42-8.31,6.21-4.13,11.92-8.81,17.63-13.46,2.6-2.34,4.15-5.19,5.45-8.31.78-2.32,1.3-7.25,3.89-7.77-1.82,10.11-2.34,21.25-11.42,27.74-9.35,6.47-18.93,12.94-29.32,17.35-5.43,2.08-9.33,5.45-15.04,5.97-5.71.76-11.4,0-16.6-2.08-10.38-4.67-16.6-12.44-21.79-22.29-2.6-4.93-7.01-10.62-6.49-16.34.52-5.17,3.89-11.14,6.75-15.8,5.95-9.87,15.04-18.41,17.37-30.08,1.3-5.95,1.82-10.88-1.3-16.32-2.86-4.41-7.01-7.53-10.88-11.14-3.89-3.37-8.05-3.37-11.94-6.75-4.15-3.1-5.97-9.07-7.27-13.72-1.82-5.19-3.36-11.66-2.34-17.11.78-5.69,3.89-11.4,7.01-16.34,2.6-4.65,4.67-10.11,8.57-13.98,4.15-4.41,9.59-6.23,14.78-8.31l-3.34,2.1Z"/>
    <path id="path5" class="cls-6" d="M834.66,1493.04c-5.17,2.34-.78,5.97-.26,9.87.52,3.38-2.06,8.55,1.56,10.88,2.84-1.82,2.84-5.71,3.36-8.55,4.91,5.69-3.61,16.34-7.23,20.47-2.6-6.47-1.3-13.74-.78-20.47,0-3.37,0-6.49-1.3-9.35-1.02-2.6-4.13-4.67-4.63-7.01,3.61,0,8.25,2.34,10.58,4.93l-1.3-.77Z"/>
    <path id="path6" class="cls-6" d="M872.81,1403.61c-3.12-.52-5.71-1.56-8.83-1.56h-8.29c-5.97,0-11.16,0-16.62,3.12-5.17,2.86-11.14,7.53-14.26,12.44-2.85,4.67-9.86,10.88-11.15,27.48-1.54,16.34,10.12,25.4,29.58,27.22-6.21-4.15-15.56-9.85-16.08-16.86-.78-6.99,1.3-18.39,3.89-24.62,2.6-6.21,9.59-11.66,16.34-13.48,6.23-1.56,14.28,1.04,20.23,3.12,10.64,3.63,17.39,14,25.16,21.25,8.31,8.05,14.02,15.56,18.69,26.18,3.36,7.79,9.33,15.04,14,22.03,5.19,7.27,7.01,13.74,7.53,22.57,0,4.13,1.3,8.03.52,12.44-.52,4.91-2.34,9.59-3.12,14.76,1.82-6.21,5.71-11.92,7.01-17.87,1.56-6.75.26-12.44-.26-19.19-1.04-10.36-3.89-21.25-7.01-31.09-1.56-4.67-2.86-9.59-4.15-14.52-1.3-4.41-5.71-9.33-8.83-12.96-12.18-14.78-22.57-34.21-42.28-39.92l-2.07-.54Z"/>
    <path id="path7" class="cls-29" d="M925.69,1455.99c-.26-.26-.52-.78-.78-1.3-1.28-3.89-3.1-5.19-5.95-8.05-2.34-2.34-4.15-5.69-5.97-8.29-4.13-4.93-6.99-10.88-11.4-15.82-7.51-8.55-15.54-16.08-26.7-18.93-10.88-2.86-22.81-3.63-33.69.78-10.11,4.42-15.56,11.41-22.55,19.98-7.79,9.59-8.29,20.99-6.75,33.19,1.04,8.03,8.83,28.78,20.49,24.62-2.08-1.3-6.23-3.63-8.05-5.45-1.8-1.56-2.58-4.91-3.61-7.25-2.6-5.19-3.63-10.64-3.37-16.6.78-12.44,4.41-22.31,12.44-32.15,9.85-11.92,23.07-12.18,37.07-9.59,6.49,1.3,12.96,3.61,17.63,8.29,4.91,4.67,8.55,10.36,12.96,15.56,3.87,4.67,8.29,8.31,11.92,13.22,4.39,5.19,6.21,8.57,8.03,14.78,1.56,6.23,6.49,9.35,10.11,14.52,5.19,7.53,5.97,17.11,8.83,25.92-.26-9.59-2.08-17.35-4.41-25.92-1.3-3.89-2.6-7.77-3.89-11.66-1.3-3.37-1.56-9.59-4.13-11.92l1.77,2.07Z"/>
    <path id="path8" class="cls-29" d="M832.07,1490.48c-4.67.78-.78,5.19,0,7.51,1.3,3.12,1.3,5.71.52,8.81-.78,2.86-.78,6.47-.78,9.59s1.82,5.95,4.43,2.34c-1.06,2.08-4.17,11.38-5.21,4.91-.52-3.87-1.3-8.29-.78-12.16.52-3.89,1.04-8.29.26-12.18-.52-3.36-4.41-7.25-4.15-10.62,1.82-.26,3.89,1.04,5.45,1.56l.26.24Z"/>
    <path id="path9" class="cls-29" d="M847.13,1505.5c0-2.58-.52-5.17-1.04-7.51-1.04-4.39-2.86-9.59-8.05-10.62,4.15,0,8.05,1.82,9.85,5.19,2.6,4.91,3.63,13.98,2.86,19.69-.52,4.39-3.61,8.29-6.21,11.64-2.34,3.12-3.38,6.47-5.45,9.85-2.6,4.67-6.73,8.03-9.33,12.7-1.82,3.36-2.6,8.81-2.34,12.68.52,5.69,3.63,9.85,6.75,14.5,3.1,4.93,6.73,10.88,12.18,13.48,5.69,2.6,11.92,3.61,17.87,4.13,5.97.52,12.18,1.04,18.15-.76,5.17-1.82,9.07-5.71,14.26-7.53,5.17-2.06,9.33-6.21,14.78-7.51-1.3,1.82-3.38,3.12-5.19,4.41-4.15,2.84-9.07,4.91-13.48,7.51-4.41,2.6-8.55,5.43-12.96,8.03-6.99,4.13-16.6,3.63-24.36,1.82-16.6-3.89-26.44-20.99-31.37-36.01-2.58-8.29,2.34-15.54,6.23-22.53,2.6-4.67,5.17-9.07,8.29-13.48,2.86-3.87,6.75-8.29,7.79-12.94-.27-2.07.51-4.92.77-6.74Z"/>
    <path id="path10" class="cls-31" d="M845.81,1494.58c.26-1.82-2.86-4.15-3.89-4.93-1.82-1.82-10.62-3.63-12.94-3.63,3.36,2.34,12.16,5.97,13.72,10.12,1.82,5.19,2.08,11.16,0,16.36-2.08,5.19-6.21,9.09-7.51,14.26.52-.78,1.56-2.06,2.6-2.58,1.3-.78,2.58-.78,3.61-1.56,2.08-1.82,3.89-5.19,4.67-7.53,1.56-4.93,3.12-11.42,1.3-16.36l-1.56-4.15Z"/>
    <path id="path11" class="cls-31" d="M847.65,1500.05c-2.58-11.66-10.88-16.34-20.47-21.51-7.25-3.89-12.16-12.72-13.46-20.75-.78-4.93.52-9.61,1.04-14.54.52-4.65,1.04-9.07,3.36-13.48,2.6-4.67,6.49-8.57,10.11-12.44,3.12-3.63,5.71-7.01,10.36-8.31,4.93-1.56,9.59-3.89,14.78-4.93,5.95-1.04,14.24,1.56,19.95-1.04-4.67-.52-8.83-1.56-13.74-1.56-16.33,0-30.33,7.27-40.95,19.97-10.89,12.99-11.38,30.36-6.21,45.66,2.6,7.27,7.77,13.48,15.02,16.6,6.49,2.6,16.6,7.53,17.63,16.6l2.58-.27Z"/>
    <path id="path12" class="cls-31" d="M906.02,1428c-5.45-5.96-13.49-16.6-21.53-18.67,8.56,6.23,14.52,18.67,20.23,27.48,3.12,4.67,7.78,7.78,11.15,11.93,3.37,4.14,5.97,8.81,8.04,13.48,4.41,9.59,7.27,19.96,11.94,29.55-1.56-3.37-1.3-6.74-2.34-10.11-.78-3.12-2.34-5.96-3.12-9.08-.78-3.88-1.56-7.52-2.6-11.14-1.04-4.15-3.12-7-5.18-10.37-4.41-6.48-10.64-12.44-14.79-18.92l-1.8-4.15Z"/>
    <path id="path13" class="cls-31" d="M905.68,1579.85c-1.82,2.08-4.67,3.38-6.99,4.41-3.89,1.8-7.27,3.87-10.88,6.21-3.63,2.08-7.27,3.12-11.4,4.39-8.03,2.34-17.61,2.08-25.66-1.54-6.73-3.12-13.2-9.85-17.09-16.08-4.39-7.25-9.59-15.02-8.29-23.82,1.3-9.33,8.03-15.3,13.48-22.55,4.91-6.73,9.33-15.8,8.03-24.1-1.3,2.08-1.3,5.45-2.34,7.79-1.04,2.58-2.08,3.61-3.87,5.69-3.38,4.15-6.49,8.03-9.85,12.7-4.67,6.47-8.05,14.24-8.83,22.03-.76,8.55,3.12,16.84,8.05,23.82,8.81,12.7,23.82,25.9,40.14,22.03,7.79-1.82,14.26-4.67,20.99-9.33,5.71-4.15,12.96-8.03,17.37-13.74l-2.86,2.09Z"/>
    <path id="path14" class="cls-9" d="M867.4,1426.42c-1.82-2.34-9.35-3.89-12.2-4.41-3.38-.78-10.11,1.3-12.96,3.12-5.97,3.63-10.62,13.74-8.83,22.05,1.04,5.19,7.01,11.92,11.42,14.78,5.45,3.37,15.04,1.3,19.97,5.19,11.14,8.55,11.14,33.19,8.81,47.19-2.08,11.94-14.52,13.5-21.53,22.83-5.43,7.27-10.36,21.79-4.91,30.85,5.95,9.61,25.92,14.26,36.31,7.53,4.67-2.86,12.44-4.15,16.34-8.31,3.89-4.13,10.36-8.55,13.48-13.22,2.6-3.89,3.89-8.81,5.45-13.22,2.34-5.71,4.67-11.68,5.19-17.63,1.3-14.26-4.67-29.58-10.64-41.76-4.41-9.33-11.66-18.41-17.63-26.44-3.12-4.41-6.49-7.79-10.62-11.16-4.41-3.89-10.38-12.96-15.32-15.82l-2.33-1.57Z"/>
    <path id="path15" class="cls-36" d="M839.86,1441.26c.52,1.3.78,1.3.78,2.6,0,1.56.26,4.15-.78,5.17.26.52.52.52.78.78s.52.26.78.26c0,0,0,.78,0,.52.26.26.26.52.78.52.26.26.52-.26,1.04.26.78.52.26,1.3,1.04,1.82.52.52,1.3.26,1.82.78s.78,1.3,1.3,1.82c1.02.78,1.02,0,2.32.26.26,0,.52.52,1.04.78h1.3c.78.52,1.3,1.04,1.3,1.82.78-.26,1.3-.26,2.08-.52,0,0,.26-.26.26-.52.52-.26,1.28-.52,1.8-.26s.52,1.04,1.04,1.56c.52-.52,1.3-.52,2.08-.52,0-.78.78-1.56,1.56-1.3,0,.26.26.52.26,1.04.52,0,1.04,0,1.3-.26v-.78c.52-.26.78-.78,1.54-1.04.52,0,1.04.52,1.56.52l.52-.52c1.3.26.78.78,1.3,1.56.52.52,1.56,1.3,1.56,0,1.82,0,1.3,1.54,2.34,2.32.52.52,1.02.26,1.54.78.52.52,0,1.3,1.04,1.82,0-.26.26-.26.52-.52.26,0,.52,0,.78.26,1.56,1.04.26,1.04.26,2.08,0,1.56,1.3.52,2.08,1.04.26-1.56,1.3,0,1.3.52.26.26-.52,1.04.52,1.04.52,0,.78-.26.78-.78h.26c.24.78.5,1.3,1.02,1.82,0,.78,0,1.54.78,2.32.26.26.78.52,1.3.78,0,.26.26.52.52.78,0,.52-.52,1.3-.26,1.82.26,1.04,1.04.78,1.3,1.56.52.78.26.78.52,1.56.26,1.3,1.04,1.82,1.3,2.84.26.52-.26,1.04.26,1.82.26.52,1.04.52,1.56,1.04.76,1.04.76,2.08,1.28,3.38.26.26.78,1.04.78,1.3l.26.78c0,.26.52.26.78.52.78,1.8-.52,1.8-1.3,3.1s.26,1.04.78,2.34c.78,1.3-.26,1.04,0,2.34.26,1.82,1.82,1.3,2.34,2.08.78,1.04,0,1.8-.26,2.84,0,.52.52.78.52,1.3-.26.52-.78.78-1.04,1.04,0,1.04.26,2.34.52,3.12.26,1.04,1.04,2.08,1.04,2.86-.26,1.28-1.3,2.06-2.34,1.02-.78.78,0,1.56.26,2.34.52,1.04.26,1.04.26,2.34,0,1.04.52,1.56.26,2.6,0,.78-.78,1.04-.26,2.34-.26.24-.52.24-.78.24,0,0,.26.26,0,.52q-.26-.26-.52-.26c-.26,1.3-1.04,3.63,1.04,3.63,0,1.04-.52,1.82-1.56,1.82,0,.78.26,1.3,0,2.08,0,.52-1.04.26-.78,1.56-1.54,0-.78,1.02-1.28,2.06-.52.78-1.56,1.3-2.08,2.08-.26.52-.26.78-.52,1.04-.26.26-.78.78-1.04,1.04h-.26c-1.04,0-1.04-1.3-.52-2.08-1.82-.78-3.12.52-1.56,1.82-.78.78-1.82.78-2.32.26-.78.78-.52,1.56-.26,2.34-1.04.26-2.08.52-3.12.26.26-1.82-2.34-1.04-1.82.52-.52.26-1.3.52-1.82.78-1.8.52-3.87.76-5.69,1.02,0-2.32-2.86,0-4.39,0,0,1.3-1.04.78-1.56,1.3s-.78.78-1.04,1.3c-.26,0-.52.26-.78.26-.78.26-5.17,0-3.38,2.08-.26.52-1.04.26-1.54.52-.52.78,0,1.04-.26,1.56-1.04,1.04-2.08.52-2.08,2.34.26,1.28,1.04,1.54.52,3.1-.26.78-1.04,2.6-1.56,3.38,1.56-.52,2.08,1.3,2.08,2.34s-.78.78,0,1.56c.52.5,1.04,0,1.56.76.24.52.24,1.56.24,2.08.26.26.78.26.78.52.26.52,0,1.04,0,1.3.52,1.56,1.04,1.04,1.82,1.04.52,1.04,1.82,2.34,2.6,2.6,1.3.52,1.82,0,3.1,1.04,1.82,1.54,1.56,1.04,3.38.78,1.3-.26,2.86-.26,4.15,0,.78.26,1.54.5,2.32.5.78-.24.78-1.02,1.56-1.54,1.3-.52,2.6.26,3.12-1.56.78-.26,1.82.52,2.58.26.26-.26,0-1.04.26-1.3.52-.26.52,0,1.04-.26,1.3-.26,3.37.78,4.15.26-.52-1.3,1.04-1.3,1.82-1.04.52-1.3,1.8-.26,2.58-.78,1.82-1.04.26-1.04-.26-1.82-1.04-2.34,1.3-3.1,2.6-4.13,1.3-.78.52-.78.78-2.08.52-1.3,1.04-1.3,2.08-1.82,1.54-.78,2.58-3.12,4.13-3.12,0-1.3.52-1.04,1.04-2.06.26-.52.52-.78.78-1.82.26-1.04,0-1.82.78-2.34.52-.52,1.56.26,2.08-.26.26-.26,1.8-3.37,1.8-3.63s-.26-1.04-.26-1.3c.26-.5.78-.76.78-1.02.26-1.04,0-1.3-.26-2.34.26-.26.52-.78,1.04-.78-1.3-3.38,1.04-4.67,2.6-6.99-1.3-1.3,1.04-2.6,1.56-3.89,1.04-1.56-.52-2.86-.52-4.41,0-1.28.78-1.54,1.04-2.32,0-1.04-1.04-1.56-.78-2.6,0-1.04.78-1.3.26-2.34-.26-1.04-1.04-1.04-1.04-1.82v-.52c.78-.26,1.82-.52,2.34-1.04.78-1.02.78-1.8.52-2.84-.52-1.56-.78-1.82-.52-3.38,0-.52.52-.52.52-1.3s-.78-1.3-1.04-1.82c-.26-1.3.52-2.06.26-3.36,0-1.3-1.3-1.82-2.08-3.12s.52-1.56,0-3.12c-.26-1.04-1.82-1.3-1.04-2.58-1.3-1.82-2.6-3.89-2.6-5.97,0-.52.26-.78.26-1.3,0-.26-.52-.26-.52-.52-.26-.26-.26-1.56-.52-1.82-.52-1.02-1.8-1.54-2.32-2.84-1.3-2.08-1.82-4.93-3.12-6.75-.52-.78-1.3-.78-1.56-1.28-.78-.78-.52-.52-.78-1.56-.26-.78,0-1.3-.78-1.82-.26-.52-1.02-.26-1.54-.52-.52-.52-.26-1.3-.78-1.82s-1.04-.52-1.56-.78c-1.3-.78-1.82-2.08-2.86-3.12v.26c-.26-.76-.52-.76-1.04-1.28s-.78-1.04-1.28-1.56c-.52-.78-1.56-.78-2.08-1.56-.26-.52-.26-1.56-.78-2.34-1.04-1.04-2.34-.78-3.12-1.56-.26-.26-.26-.78-.52-1.3-.52-.52-1.04-.52-1.3-.78-.52-.24-.52-.5-1.02-1.02-.26-.26-.52-.26-1.04-.52-1.3-1.3-1.82-3.12-3.12-4.41-.26-.26-.78-.26-1.04-.52,0-.26.26-.52.26-.52-.26,0-.78-1.04-.78-1.04-.52-1.04,0-1.56-1.3-2.32.78-1.04-.52-.78-.78-1.04-.5-.26-1.8-.52-.5-1.3-.78-.78-2.6-1.04-3.37-1.82-.52-.52,0-.52-.52-.78s-1.04,0-1.3-.26c-.78,0-1.04,0-1.82-.52-.78-.26-1.28-.78-2.06-.78s-1.56.26-2.34,0c-1.3-.26-2.6-1.04-3.89-1.56,0-1.82-3.1,0-3.87-.26-.26.52-1.04.78-1.56.52,0,0-.26-.26-.26-.52-.52.26-1.04.52-1.82.52,0,.26-.52.52-.52.78-1.04-.78-2.58,1.82-2.06-1.04-.78-.52-1.56.26-1.82,1.04-.52.52-1.3,1.82-1.04,2.08-2.6-.78.26,2.34-1.82,3.12-.26,0-.52,0-.52-.26.26,1.3-1.56,1.3-.52,2.32-.52.52-.78,1.04-1.04,1.56-.28-.58-1.56-.32-1.06.72Z"/>
    <path id="path16" class="cls-5" d="M846.86,1442.47h0c-1.3,1.03.52,3.37,1.82,2.07,1.04,1.04,1.56-.52,2.6,0-.78,1.82,2.86,1.56,2.6.78.52-.26,1.04,0,1.56,0,.26-.78,1.03-.78,1.81-.52-.78,1.04.78,2.08,1.82,1.82.78-.26.78-2.6,1.82-1.3-.26-.78,0-1.04.78-.78,0,.26.26,1.04.52,1.04.78-1.04.78-1.3,1.56,0,.52,1.04,1.04,1.82,2.34,1.56.26.78,1.55,1.56,1.29.26.52.26,1.04.52,1.3.26v-.26c.78.26,1.04.52,1.56.78.52.52.26,1.04,1.04,1.3.26-.26.26-.52,0-.52l.26-.26c0-.26,0-.78-.26-1.04.26.26.52.26,1.04.52l-.78.26c1.3.26,1.82.78,2.08,1.82s-.26,2.07,1.3,1.55c.26,1.56,0,1.3,1.3,2.08,1.29.52,1.29,1.3,2.07,2.34,0,.26.52.26.78.52.26.52.26,1.04.78,1.3.78,1.04,1.82.52,2.6,1.04.52.52.26.78.52,1.04.26.52.78.52,1.04.77.26.52.26.78.52,1.3,0,.26.52.52.78.78.26.78-.52,1.56,0,2.34s1.56,0,1.3-.78c1.04,0,1.81,1.04.52,1.56.26.52.77.78,1.29.78-.26.78.26.78.52,1.3.26.78.26,1.3.52,1.81.26,1.56,1.56,1.56,2.86,2.6.26.26.78.26,1.3.78.26.78-.26,1.3,0,1.82.26.78,1.04.52,1.3,1.04-.78.52.26,1.3.78,2.08h0v.26c1.3,1.55,0,1.29,0,2.85,0,1.3,1.3,1.04,1.56,2.34,0,.52-.52,1.3-.52,1.82s.26,1.04.52,1.56c.26.77,1.3,1.81,1.3,2.85,0,.52-1.3.52-1.04,1.3.26.52,1.04.52,1.29.26,1.04.52,0,1.56,1.56,2.34-.52.78-1.3,1.82,0,2.08.78,2.07-.52,3.37-.26,5.44,2.34.26.78,1.56.78,2.6-.26,1.3.78,2.33.52,3.88-.26.78-1.04,1.04-1.04,1.82-.26.78.26,1.04.26,1.56.26,1.04-.26,2.6.78,3.12-.26.51-.78,1.03-1.04,1.55.52.26,1.04.52,1.82.78-1.04,1.04-1.3,1.82-1.3,3.12h.78c.26,1.56-1.56,2.08-.78,3.37-1.04.77-1.04,1.55-1.56,2.33-.26.26-1.03.52-1.03.78-.26.26.26,1.04.26,1.04-.26.26-1.3,1.82-1.3,2.08.26.78,1.55.52,1.55,1.82-1.55,0-.51.78-.77,1.55-.26,1.04-1.56,1.3-1.56,2.34,2.59.52-1.04,4.41-2.34,4.41.26.26.52.78.78,1.04-2.6,0,.26,2.85-1.56,3.11.78,2.34-3.12,1.3-3.63,2.08-.52.78.78,4.41-1.56,3.89,2.34,3.11-4.66,2.33-3.88,3.88-.52,0-.78.52-1.04.52.52,1.3,1.82,1.04,1.04,2.6-.52,1.04-1.82,0-2.08,1.3-.26-.26-1.04-.52-1.3-.78-.52.26-1.04.78-1.3,1.3,1.3.26,2.08,1.03,3.38.77,1.3-.25,1.56-1.29,2.6-1.55.52-.26,1.3,0,1.82-.52.51-.26.26-1.04.77-1.56,1.04-.78,2.08-.26,2.86-1.04.52-.52,0-1.04.78-1.56.52-.52,1.3,0,1.82-.52,1.3-1.04,0-1.56,1.82-2.08.78-.25,1.04.26,1.82-.25.26-.26,0-1.3.26-1.56.26-.52,1.04-.26,1.29-.78.26-.26,0-1.3,0-1.82h1.04c-.52-.52-.52-1.3.26-1.56.26.52.78,1.56,1.56,1.04.52-.26,0-1.82,0-2.34,0-1.56,1.04-2.07,1.56-3.62.26-1.3.52-2.6.78-3.89,0-.26.52-.26.52-.78.26-.26-.26-.52-.26-1.04s.52-1.04.78-1.55c.52-1.04.52-2.08.78-3.37.26-1.56,1.04-2.6,1.3-4.15,0-1.3.26-2.33,1.04-3.62.26-.78.52-.26.52-1.3-.26-.78-.78-1.04-.78-1.56,0-.78.78-1.04.78-2.08-.26-.52-.78-1.04-.78-1.56,0-.25.52-1.55.52-1.55,0,0,.26-1.82.26-1.56,0-1.3-.78-2.08-.78-3.63,0-1.3.26-2.59.52-4.14.26-.78.52-.52.26-1.56-.26-.52-1.04-.78-1.3-1.56-.52-.78-.78-2.86-.78-3.63s.52-1.81.52-2.07c-.26-.52-.78-1.04-.78-1.3-.26-.52,0-1.82-.26-2.08-.26-.78-1.04-.52-1.3-1.3-.52-.78.26-1.04,0-1.82-.26-.52-1.04-.78-1.04-1.29,0-.78,1.04-1.04.52-1.82-.26-.52-1.56-.78-2.08-.78l-1.3-1.56c0-.78.26-1.04.52-1.3,0-1.04.26-2.08-.26-3.37-1.04.26.52-1.82-.52-2.6-.52-.26-.52.78-1.3.52-.52-.26,0-1.04-.52-1.3,0-.26,0-.78.26-1.04-.51-.78-1.29,0-1.29-1.04,0-.78,1.29-1.3.26-2.08-.52,1.04-2.08.52-1.3-.26-.26-.26-.26-.52-.78-.52,0-1.03-.52-1.29-.78-2.33-.52-.78-.52-1.3-1.82-1.82-.26,0-.78-.26-1.04-.26-.78-.52-.52-.78-.78-1.3-.52-1.04-.78-1.3-1.04-2.6h-.78c.26-1.03-.52-1.29-1.04-1.81-.52-.78,0-2.08-.78-2.6-.51-.78-1.81-.52-2.33-.78-1.04-.52-1.04-1.56-1.3-2.6q0,.26-.26.26c0-.52,0-1.04-.26-1.3-1.04,1.3-4.15-2.59-4.93-3.62-.78-.78-1.81-1.3-2.59-2.08s-.26-2.86-1.82-1.82c-.52-1.3,0-2.34-1.56-2.85-.26,0-.26.26-.26.26-1.3-.52-.52-2.6-1.82-2.86-.26,0,0,.26-.26.26-.52-.78-.26-2.6-1.56-2.34,0,.26-.26.52-.26.78-1.04,0-2.85-.78-2.08-2.08-.51-.26-1.03-.26-1.55,0l.26.26c-.78-.52-2.34.52-3.38-.26-.78-.78.78-2.34-1.3-2.08l.26.26h-.78c.26,1.82-1.56,1.04-2.34.26-.52,0-1.3.52-1.82.26-.51,0-1.29-.52-1.81-.78-.78,0-1.04-.26-1.3.52,0,0,.78.52.52.78-.26.52-.52,0-.78.26-.52,0-1.04,0-1.3.26-.26,0,0,.52-.26.78-.52.26-.78,0-1.3,0-1.04,0-3.12,1.04-1.56,1.82-.52,1.04-2.08.52-2.86,1.56-.54,1.02.75,1.53,1.53,2.05Z"/>
    <path id="path17" class="cls-9" d="M834.66,1495.12c-1.54.26,1.02,5.47,1.54,7.29.26,1.04.26,8.33.52,8.33,2.32,1.56,2.06-6.23,2.06-7.29-.26-2.34-1.04-5.97-3.1-7.27l-1.02-1.06Z"/>
    <path id="path18" class="cls-13" d="M864.74,1443.51c.78.26,1.56.78,2.34,1.04-.52-.52-.78-1.3-1.56-1.82s-1.56.26-2.34-.26c-.77-.26-1.03-1.3-1.81-1.82s-1.56-1.04-2.34-1.56c-1.03-.26-1.55-.78-2.59-.52-.78.26-1.04.78-1.82.78s-.77-.78-1.55-.52c-.26,0-.52.26-.78.52-.78.26-1.04,1.04-1.82.26-.51.78-.51,1.82.26,2.34,1.82-1.04,3.88,0,5.18,0,.52,0,1.04-.52,1.3-.52.52,0,1.04.52,1.3.52.77,0,1.81-.52,2.07.78,1.04-1.3,2.85.52,2.85-.26l1.31,1.04Z"/>
    <path id="path19" class="cls-13" d="M863.24,1443.27c-1.57-2.32-10.66-3.09-13.26-2.06,2.6-2.58,9.62-1.29,12.21.52l1.05,1.54Z"/>
    <path id="path20" class="cls-13" d="M905.77,1510.2c0-2.08.26-4.92-1.58-6.22-.52,5.18,1.05,10.88.27,16.07-.53,2.59-1.58,5.43-2.11,8.03-.52,2.85-.52,6.21-1.57,9.06,1.84-4.14,3.15-8.8,3.93-13.2.79-3.62,1.58-9.33.26-12.95l.8-.79Z"/>
    <path id="path21" class="cls-13" d="M905.42,1504.72c.52.78.78,1.04.78,2.08.26.52-.26.78-.26,1.3,0,.26.78.26.78.78.52,1.04-.26,1.04-.26,2.08-.26,1.56.26.78.78,1.81.26,1.04-.52.78-.78,1.82s.26,1.56.52,2.34c.26,1.56-.26,2.86-.78,4.15-.26.52-1.3,1.04-1.3,1.56-.26.52.26,1.81,0,2.33,0,.52-1.03,1.3-1.29,2.08,0,.78.26,1.82.26,2.6,0,1.04-1.04,1.82-1.3,2.86s.26,2.6-.26,3.62c-.78,1.3-.78,2.6-1.3,4.15-.26,1.82-1.03,1.82-2.59,2.6-1.3.52-.78,1.82-1.81,2.86-1.04.78-2.08.78-3.11,1.81,0-1.81,2.07-2.85,3.11-3.88,1.29-1.3,1.29-2.86,1.81-4.67.26-.78.26-1.56.52-2.34.26-1.03,1.3-1.55,1.3-2.59.26-1.04-.26-1.82,0-2.86,0-.78.51-1.56.77-2.34.52-.78,1.3-2.34,1.3-3.38,0-.78-.26-1.3-.26-2.07,0-.52.52-1.04.52-1.56,0-.78-.26-1.3,0-2.08.26-.52.78-1.04.78-1.56s-.52-1.04-.52-1.82c-.26-.52.26-.78.26-1.56,0-.52-.52-1.04-.26-1.82,0-.51.78-.51.78-1.03.26-.78-.26-1.56-.26-2.08,0-.78.26-1.3.26-1.82,0-.78-.26-1.3-.26-1.82s.26-1.3.26-1.56c0-.52-.26-1.3-.26-1.82,0-.78.77-.78.52-1.56l1.55,3.39Z"/>
    <path id="path22" class="cls-13" d="M902.86,1497.19c0,1.06,0,2.63,1.3,3.67.78-.78.26-1.57,0-2.62l-1.3-1.05Z"/>
    <path id="path23" class="cls-13" d="M899.03,1539.93c-.78.54-1.04,1.34-1.04,2.4,1.3,0,2.08-1.06,1.56-1.86l-.52-.54Z"/>
    <path id="path24" class="cls-17" d="M854.88,1439.36c0,.26-.26.26,0,.78.54.26,1.6.26,2.14.26v-.78l-2.14-.26Z"/>
    <path id="path25" class="cls-17" d="M852.3,1440.4c.26.28.53.56.8,0h-.8Z"/>
    <path id="path26" class="cls-39" d="M810.04,1457.23c1.04,4.65,2.6,6.73,4.15,9.85,1.56,3.63,3.63,6.73,6.49,9.59,3.61,3.89,9.33,7.53,13.98,10.11,5.97,3.12,7.27,5.71,9.09,12.96-.26-.5,0,.26,0-.24-2.34-5.71-4.67-7.79-9.87-9.61-5.17-2.08-8.81-4.39-12.44-7.77-4.39-4.41-8.81-10.62-10.62-16.34-1.8-6.23-2.06-12.96-1.3-19.71l.52,11.16Z"/>
    <path id="path27" class="cls-39" d="M842.23,1512.55c.8,4.15-3.38,8.57-5.19,11.92-2.08,4.15-4.41,8.31-6.23,12.44-2.34,5.45-5.97,10.62-6.75,16.34-.52,3.36,0,7.51.78,10.62.78,3.36,2.6,7.77,2.34,11.12-.78-1.02-1.3-2.32-1.82-3.36-2.34-5.19-4.93-11.92-4.41-17.63.52-5.43,2.6-9.07,4.67-14.24,2.08-4.67,5.71-9.33,8.31-13.48,3.12-4.91,7.79-8.55,9.11-14l-.81.27Z"/>
    <path id="path28" class="cls-31" d="M833.37,1522.6c-.28-.26-.54-.26-.54-.52-3.91-3.12-2.6-11.92-2.08-16.32.26-3.38.78-5.19-.78-8.29-.8-1.3-1.58-3.12-2.1-4.67-.52-1.56-1.3-2.6-1.82-4.15-.52,3.12,1.3,6.49,2.08,9.33,1.84,5.19,1.84,10.62,1.04,16.08-.26,2.84-.26,5.43.54,8.03,0,.78,0,3.37,1.04,3.61.78.26,2.34-2.06,2.62-2.58,0,0,0-.52,0-.52Z"/>
    <path id="path29" class="cls-24" d="M834.43,1520.3c-.52,1.56-2.84,1.82-3.87.26-1.04-1.56-.52-4.41-1.3-5.71-.76,2.08,0,9.09,2.08,10.38,1.54-1.3,2.32-3.63,3.87-5.19l-.78.26Z"/>
    <path id="path30" class="cls-24" d="M831.77,1490.18c-1.56-.78-3.61.52-4.11,1.8-.26,1.3.24,3.61.76,4.89-1.8-2.06-2.06-6.43-2.56-9.03,1.8.26,3.85,1.3,5.91,1.82v.52Z"/>
    <path id="path31" class="cls-9" d="M835.4,1492.02c.78,2.6-1.56,2.6-1.3,4.67,0,1.3,1.56,2.84,2.08,4.39.52,1.56.26,3.38,0,4.93-.26,1.28-1.04,3.61-.52,4.91,1.58,3.36,3.91-3.38,4.71-4.65,1.82-3.12,3.14-5.19,1.3-8.81-1.04-2.34-3.65-5.19-6.27-5.71v.27Z"/>
    <path id="path32" class="cls-5" d="M836.74,1494.64c-.52-.52-4.15-3.12-4.41-.78,0,.78,3.12,2.6,3.63,3.38,2.6,3.38.78,7.01,2.08,10.9,3.39-1.56,2.86-12.46-1.3-13.24,0,0,0-.26,0-.26Z"/>
    <path id="path33" class="cls-13" d="M835.7,1495.12c-.26.26,2.34,2.86,2.86,3.87.52,1.56.52,3.87,1.04,5.15,0-3.34,1.04-7.21-2.86-9.03h-1.04Z"/>
    <path id="path34" class="cls-13" d="M835.2,1494.32c0-.76-.52-1.28-1.04-.76.26.26.26.52.78.76,0-.5-.26-.24-.52-.5l.78.5Z"/>
    <path id="path35" class="cls-13" d="M839.12,1505.22c0-.26.48-.26,0-.52,0,0-.24,0-.24.26,0,.52.24.78.72.78l-.48-.52Z"/>
    <path id="path36" class="cls-17" d="M837.22,1496.39c.26,0-.26.28-.26.28,1.32.78,1.32,2.38,2.4,3.16,0-.78-.54-1.84-1.08-2.38l-1.06-1.06Z"/>
    <path id="path37" class="cls-17" d="M839.12,1501.59l-.24.24c0,.24.24.24.72.24l-.48-.48Z"/>
    <path id="path38" class="cls-17" d="M834.92,1494.32c0-.24-.52,0-.52,0,.52.48.8.24.8.24l-.28-.24Z"/>
    <path id="path39" class="cls-28" d="M822.46,1487.61c-1.28.78-2.58,2.86-2.84,4.15-1.3,6.47-1.56,12.44-3.63,18.65-2.06,6.47-4.13,12.42-5.95,18.91-1.04,3.61-1.56,6.99-1.56,10.86,0,3.12,0,6.49-.26,9.59-.26,3.38-.5,6.99-.26,10.36,0,4.41.78,9.85,2.08,13.98-.78-5.17-.78-9.31-1.3-12.94-.78-4.91,1.04-9.33,1.56-14.24.78-7.27,2.08-10.88,4.15-17.87.76-2.6,4.39-14,7.25-11.92,2.06,1.3,2.32,2.08,2.32,4.15.52,3.36,2.6,4.39,4.67,6.73.52-1.56-1.3-2.86-1.82-4.15-.52-1.56-.78-3.1-.78-4.65-.26-2.86-.26-5.95.26-8.55.52-2.86,1.04-4.93.26-7.77-1.56-4.41-.52-10.11-3.89-14l-.26-1.29Z"/>
    <path id="path40" class="cls-28" d="M809,1565.87c1.56,9.85,4.67,24.88,4.67,29.54.28,4.67-2.08,11.14-4.15,18.65.52-4.91,2.6-11.12,2.6-18.13s-2.08-15.54-4.15-25.9c-2.08-10.36-.52-25.9.78-33.69l.25,29.53Z"/>
    <path id="path41" class="cls-28" d="M818.57,1541.57c-1.82,4.91-4.41,2.34-6.23,10.86-1.82,8.81,1.04,27.96,2.86,36.23,0-3.1-1.3-11.9-1.3-24.32s5.45-15.52,5.97-18.37c.78-2.84,4.41-9.57,5.99-13.46-1.32,2.33-5.47,4.4-7.29,9.06Z"/>
    <path id="path42" class="cls-16" d="M826.36,1506.04c0-1.56-1.04-2.86-1.56-4.41-.26-1.3-.26-2.6-.52-3.89-1.82-4.15-3.87,2.86-4.65,4.41-2.34,6.23-3.12,12.98-5.95,18.95-1.04,2.6-2.34,4.67-2.86,7.27-.78,2.34-.78,4.93-2.06,7.25.5-3.87,1.54-7.77,2.84-11.66.78-2.86.78-5.19,2.08-7.79,1.8-3.89,3.61-9.09,4.13-13.24.52-4.15,1.56-7.79,2.6-11.94.52-1.82,2.06-4.41,3.36-1.56.78,2.08,1.04,4.15,1.56,6.23s.52,4.15,1.3,6.23c.52,2.08.52,4.15.26,6.23l-.53-2.08Z"/>
    <path id="path43" class="cls-16" d="M812.08,1595.91c.52-4.15-2.34-22.55-4.15-34.97-1.82-12.18,3.12-32.37,5.71-39.9l-1.04-.52c-2.86,6.23-7.27,27.72-5.71,39.9,1.56,17.61,5.19,30.81,5.19,35.99,0,0,0-.5,0-.5Z"/>
    <path id="path44" class="cls-9" d="M868.12,1466.66c-3.12-2.86-8.05-3.63-11.94-4.41-4.91-1.3-10.11-2.86-14.5-5.45-3.12-2.08-4.41-6.75-5.19-10.38-1.3-4.93-.52-9.87,2.34-14.28,1.04-1.82,2.6-4.41,4.67-5.19,3.1-1.56,6.99-1.56,10.36-1.82,3.36-.26,6.99.26,10.36,1.04,1.3.26,3.63,1.56,2.86-.52,0-.26-.52-.26-.52-.52v-.78c-.26-.52,0-.52-.52-1.04-.78-.78-2.6-.78-3.38-1.04-1.04-.26-1.82-.26-2.86-.52-.52,0-.52-.26-1.04-.52-.52,0-.78.78-1.3,0,.26,0,.26-.26.52-.52-.26-.26-.78-.52-1.3-.52.26.26,0,.26.26.52-.52.78-2.32.52-2.84,0,.26-.78-.78-1.04-1.56-.78v.26c-.52,0-1.04.26-1.3,0-.78,0-.52-.26-1.04-.52s0-.52-.78-.52-1.04.52-1.56.78c-1.82,1.3-3.38,2.34-5.43,2.34-2.08-.26-1.82,1.3-3.38,2.34-.52.26-.78,0-1.04.78-.26.52.26.78,0,1.3-.52.78-1.56.78-1.82,1.82h0q-1.04.78-1.3,2.08c-.52,1.56-1.3,1.3-2.08,2.34-1.04,1.04-.26,1.82-.26,2.86-.26,1.3-.78,2.08-.78,3.12v1.56c-.26.52-.76.52-.76,1.3,0,1.04,1.28,1.82,1.02,2.86,0,.52-.76.52-.76,1.04-.26.52,0,1.3.24,1.56.26.78,1.56,2.08.52,2.6,1.04-.26,1.04,1.04,1.3,1.82,0,1.56.26.78,1.04,1.56.78.52,2.34,2.86,2.34,3.63-.26.78-1.3,1.3.26,1.56.52.26,1.82-.78,2.34.26.26.52-.52.52-.26.78.26.52.78.52,1.04.78.52.52,1.04,1.04,1.56,1.82.26,0,.78,0,1.04.26.52.52.26,1.04.78,1.3.76.52,1.54.26,2.58.78-.52,1.04.52,1.82,1.3,1.3.26,0,.26-.78.52-1.04.52-.26.78,0,1.3.26.78.26,1.3.78,2.34.52.78,0,1.56-.52,2.08.26.52,0,1.04-.26,1.82-.26.26,0,.52.26,1.02.52,1.04,0,1.82-.78,2.34.52,1.04-.52,1.82,0,2.6.5,1.3-1.02,1.56.78,2.86,1.3-.26-2.32,1.3-.78,2.34-1.04l1.55-.56Z"/>
    <path id="path45" class="cls-9" d="M868.85,1431.34c2.86,3.38,7.02,5.7,10.13,8.56,2.86,2.85,5.46,6.47,8.06,9.58,4.68,5.7,8.84,11.66,13.52,17.36,2.34,3.11,4.94,5.69,7.02,9.07,1.82,2.85,2.6,6.21,3.89,9.33,1.31,2.59,2.87,4.92,3.9,7.51,1.3,3.37,2.86,6.48,3.89,9.85.78,3.62.52,6.73.52,10.36.26,1.55,2.09,5.17,4.16,4.92,1.56-.26,1.3-1.56,1.56-2.6.52-1.04,1.56-1.3,1.82-2.33,0-.78-.78-1.82-.52-2.6,0-.52.26-1.3.26-1.55s-.26-.52-.26-.78c.26,0,.78-.26.78-.26,0,0,.27,0,.27-.52,0,0-.27-.26-.27-.52-.26-.26-.26-.78-.26-1.3,0-1.04.26-2.33-1.3-2.07,1.04-1.04,0-1.04-.78-2.08,1.56-.26-.78-2.07-.52-3.11,0-1.04.78-1.3,0-2.6-.52-.77-1.04-1.29-1.82-1.81,1.04-2.08-1.56-2.34-2.34-3.62-.79-1.04-.26-3.89-2.35-4.15.26-1.03-.52-1.55-1.3-2.33s-1.56-1.56-2.08-2.59c-1.3-1.82-1.82-3.63-2.87-5.7-.26-.26-.52-1.04-1.04-1.3-.26-.26-1.04-.26-1.3-.52-.26-.52.26-1.04,0-1.55-.26-.52-.78-.26-1.04-.52-.52-.52,0-.78-.26-1.3-.26-.26-.78-.52-1.04-1.04,0-.26.78-.52.78-.78s-.26-.52-.26-.78c-.26-.25-.78-.77-.78-1.03-1.3-1.82-1.3-4.14-3.38-4.66.52-1.3-.52-2.86-2.08-2.34-.78-1.04-.52-2.85-2.34-3.11.26-1.3,0-2.08-1.3-2.6-.53-.25-1.05-.25-1.57-.77-.52-.26-.52-1.04-.78-1.3-.52-.52-1.3-.52-1.82-.78-.78-.78-.52-.26-.78-1.04,0-.78.78-.52-.26-1.29-.52-.26-1.04-.52-1.3-.78,0,0,.26-.52.52-.52-.52-.26-2.09-.52-2.61-1.3,0-.26.52-.78,0-1.3-.26,0-1.04-.25-1.3-.25,1.56-2.34-3.12-.78-2.08-2.6-.52,0-.78,0-1.3-.52.52-.26.26-.26.78-.52-.26-.26-.78-.52-1.3-.78,1.04-2.33-1.3-1.55-2.87-2.33-1.04-.78-.52-1.04-1.3-1.82-.52-.77-1.04-.52-1.04-1.81-.26,0-.78,0-1.04-.52,0-.26.26-.26.26-.52-.26-.26-.78-.52-1.04-.78.52-.26,1.3-.78.26-1.3-1.04.26-1.82.78-2.61-.51-.26-.26-.26-.78-.78-1.3-.26-.26-.78-.26-1.3-.52-1.04-.52-.78-1.56-1.82-2.08-1.3-.26-2.34.52-3.37,0l1.38,4.75Z"/>
    <path id="path46" class="cls-9" d="M921.06,1518.94c-1.56,7.26-3.62,14.52-6.48,21.27-2.34,4.92-5.44,9.08-8.56,13.48-2.07,3.12-3.62,6.74-5.96,9.86-.52.78-3.11,3.12-3.11,4.15s2.07,1.55,3.11,1.29c1.04-.25.78-1.29,1.3-2.07,1.04-1.82,5.18.52,5.7-1.82.26.26.52,0,.78.26.26-1.04.26-1.82,1.3-2.34.52.52,2.08,1.04,2.08-.26,0-.78-1.56-1.04-.78-2.34.52-1.29,3.37-1.29,4.14-2.85.26-.52,0-.52.26-1.04,0-.52.26-.52.52-1.04,0-.52.26-.26.52-1.04,0-.26-.26-.78,0-1.3.52-1.56,1.56-.26,2.34-1.3.52-.52-.52-2.07.78-2.33-.26-.78-1.04-2.6.51-2.34,0-.52-.25-1.04,0-1.56.52-1.04.52,0,1.04,0s.78.78,1.3,0c.52-.52-.26-.78-.52-1.3,0-.78,0-1.04.26-1.82,0-.26-.26-.52,0-.78,0-.25.52-.25.52-.51s.52-.26.52-.52-.52-.52-.52-.78c0-.52.52-.78.78-1.04-.26-.52-1.04-1.3-.26-1.82s.52.78,1.04,1.04c1.82.26,0-2.08-.26-2.86-.52-1.56.52-3.37,1.3-4.66.52-.78.78-.52,1.04-1.3,0-.52-.52-1.04-.26-1.56,0-.78,1.04-1.56,1.04-2.6s-1.04-1.81-1.3-2.85.78-1.56.78-2.34c0-.52-.52-1.04-.26-1.82,0-.52.52-.52.52-1.04,0-.78-1.04-2.34-1.04-2.6l-4.17,4.48Z"/>
    <path id="path47" class="cls-9" d="M891.76,1570.56c-4.15,0-8.31,2.6-12.2,3.38-3.89,1.04-7.53,1.56-11.4.78-6.23-1.3-13.24-4.67-17.39-9.61-2.86-3.61-4.93-10.36-3.63-15.04.26-1.56.78-1.82-.78-1.82-1.04,0-2.34-.26-2.34.78-.26,0-.78.26-1.04.26.78,1.04-.52,1.82-.26,3.12-1.54-.52-2.32,1.56-1.04,2.08-.5.52,0,.78,0,1.3,0,.26.26.52.26.78s-.26.26-.26.52c-.26.78-.26.52,0,1.3,0,.52.52.52.52,1.04,0,.78-.52.78-.52,1.3s.26,1.04.52,1.56c.26,1.04.26,1.82,1.04,2.58,0,.26-.26.78-.52.78.52.78,1.82.78,2.08,1.56,0,1.04-1.3.78,0,1.82.78.78,1.04.52,1.3,1.82.26.78.52,1.56.26,2.34.78-.52,1.56-.26,1.3.78.26-.26.52-.52.78-.78.26,0,.52,0,.78.26-1.04.78,0,2.08.78,2.08s1.04-.52,1.82-.26c.52.26,1.04,1.04,1.3,1.3.26.52.52,1.04,1.04,1.3.52.26,1.04,0,1.56.26s0,.78.26.78c.52.26.78-.26.78-.26.26.26.78.26,1.3.52,0-.26.52-.26.78-.52-.26,1.82,1.82.78,2.86.78,1.04.26,1.82,1.3,3.12,1.56s2.08-.52,3.37-.78c1.54-.26,1.8,1.04,3.1,1.82.52-.52,1.82-1.56,1.3,0,.26.24.52.5,1.04.24,0-1.02,2.34-1.28,1.56.26.52,0,1.04-.26,1.56-.26.26,0,.26-.24.26-.5.26,0,.26.26.26,0,0,0,.26-.52.26-.78.78.26.52,1.28,1.3,1.54.52.26,1.56,0,1.82-.5.52-.26.26-1.3,1.04-1.56.78-.78.52,0,1.56-.26.78-.26.78-.52,1.3-1.3,0-.26,0-.78.26-1.04.26-.52.52-.26.78-.52.26-.26.78,0,.78-.52.26-.26,0-.52,0-.78.26-.52.52-1.56,1.3-.78-.26,0-.26.26-.26.26,0,.26.52.78,1.04.78-.52,0,1.04-1.3.78-1.04.26-.26,0-1.04.52-1.3.52-.26.52.52.52.78.52,0,1.3.26,1.56,0,.26-.52-.52-.78-.52-1.3.26-1.04,2.08-1.04,2.6-.78.26-.52.26-1.3.26-1.82.78.26,1.56.26,1.82-.52,0-.78-.78-1.04,0-2.08l-4.23,2.31Z"/>
    <path id="path48" class="cls-9" d="M865,1463c2.08,0,3.88,1.82,5.18,3.38,3.37,5.7,7.25,10.88,9.32,17.36,1.56,4.92,2.6,11.4,1.82,16.59-.78,5.18-1.3,10.62-3.62,15.55-2.6,5.18-5.96,9.33-10.35,12.96-3.62,3.11-7.77,5.69-11.39,8.81-2.86,2.59-5.18,5.18-6.48,8.81-.25.78-1.03,4.66-2.59,3.89-1.29-.78-.26-5.18,0-6.22.26-1.04.78-2.08,1.3-2.86.26-.52,1.04-.78,1.29-1.3,0-.51-.25-.77.26-1.29.26-.26.78-.26,1.04-.52.52-.52.26-.78.26-1.3.26-1.3.52-1.3,1.56-2.08,1.03-.51,1.03-1.29,1.55-2.07.52-.52.78,0,1.04-.52s-.26-1.04,0-1.56c.78-1.04,1.81,0,2.85,0,1.3-.26,1.3-1.3,2.08-2.07.77-1.04,4.39-2.08,3.87-3.63-.77-.52.26-.78.52-.78.52-.26.78.78,1.3-.26-.52-.51-.26-1.03.26-1.03,0,.26.26.77.26,1.03.52,0,.78-.26,1.3-.77v-1.04c.25-.26.51,0,.51-.26.26-.52,0-1.56.26-1.82.26-.26.78,0,1.04-.78.26-.26-.52-.78-.26-1.3.26-.77.52-.51,1.04-.77.78-.26,1.55-.26,1.81-1.56.26-1.82-1.29-4.14-.52-5.7.52-.52,1.04-.26,1.04-1.04s-.78-.52-.78-1.3c-.26-1.29,1.3-1.29,1.56-2.07.26-.52-.26-.78,0-1.56.26-.52.52-.26.78-.78.78-1.3,0-1.3-1.04-1.81,0-.26.26-.78.26-1.3s-.52-.78-.52-1.3c0-.78.52-1.56.26-2.6,0-.26-.52-.77-.78-1.29,0-.52.52-.78.78-1.3,0-1.04-.52-1.04-.78-1.82,1.04,0,.52-1.55-.26-1.81.26-.52,0-1.04-.26-1.56-.51-.26-.77,0-1.03-.78-.26-.26.77-.26.26-1.04-.26-.26-3.12,0-1.82-1.56.52-.25,2.85,0,2.08-1.03-.78-1.04-1.56.26-1.56-1.3-.26-.52.26-1.04.26-1.56-.26-.52-.52-.78-.52-1.04-.26-.52.26-1.03.26-1.29-.26-.52-.78-.78-1.04-1.3,0-.26.78-.52.52-1.3-.52-.52-1.04,0-1.3,0-1.03-.52-.25-1.56-1.29-1.82.52-1.55-1.04-1.03-1.82-1.81-1.29-.78-.26-2.08-1.03-2.86-.26-.52-1.04-.26-1.3-.52-.52-.52,0-1.03-.26-1.81-.26-1.04-1.3-1.56-2.33-1.04l5.15-3.29Z"/>
    <path id="path49" class="cls-32" d="M859.09,1480.82c-.8-1.28-2.88-2.58-3.91-3.61-2.6-2.34-5.19-4.41-8.07-5.97-2.86-1.28-4.93-2.58-7.27-4.65-2.34-2.08-5.21-3.89-7.03-6.21-1.82-1.82-2.6-4.15-2.86-6.75-.26-2.58-.78-5.43-.52-8.03.26-4.39,1.56-8.81,2.34-13.2.26-1.56.26-3.12,1.04-4.67.78-1.3,2.34-2.08,2.86-3.38-.26.26-.78.78-1.3,1.04-.52.26-1.3.26-1.56.52-.52.52,0,.78-.52,1.3-.52.26-1.04,0-1.3.78-.26.26-.26,1.04-.52,1.3-.52,1.82-1.56,3.38-1.82,5.17-.52,1.3-.26,2.08-.78,3.12-.26.26-.78.52-.78,1.04-.26.52.26,1.04.26,1.3-.26.78-.78.52-1.04,1.04-.26.26.26,1.04.26,1.3-.26.76-.52,1.02-.52,1.54,0,.26-.26.26-.26.52s.52.26.52.52c0,1.3-.52,1.82-.52,2.86-.26,1.04.26,2.34.52,3.12,0,1.04.26,2.06.26,3.1,0,1.3,1.04,2.08,1.04,3.12,0,.52-.52.78-.26,1.3,0,.26.52.52.78.78.26,1.04-.52,1.82.26,2.6.26.5.78.5,1.04,1.02s0,1.04.26,1.3c.26.78.52.52,1.04,1.04.26.26.26.78.52,1.04,1.04-.52,1.56.52,1.82,1.3.26.52.52.52.52,1.04,0,.26-.26,1.04,0,1.3.52,1.04,1.56.52,2.6.78.8,0,1.32.52,1.84.76.78.26,1.82.52,2.34,1.3.78.78.78,1.56,2.34,1.56.26.26.78-.26,1.04-.26s1.04.26,1.3.52c.52,0,.52-.26,1.3,0,.26.26.26,1.04.52,1.04,1.06.52,1.32-.52,2.36.26.78.52,1.56,1.3,1.82,1.82.26.26.52,1.04.78,1.3.52.52.78,0,1.3.26.78.26,1.82,1.04,1.82,1.8h4.14s0-.08,0-.08Z"/>
    <path id="path50" class="cls-32" d="M857.73,1475.15c6.75,8.82,10.38,19.97,8.57,31.12-1.3,7.26-2.6,15.82-8.83,20.49-.78.52-3.38,2.07-4.41,1.56-.52-.52-.52-1.82,0-2.08.52-.52,1.04,0,1.56-.26.26,0,.26-.52.52-.52.78-.26,1.56-.52,1.82-1.3.52,0,.78-.26.78-.78.78.26,1.3-.26.78-1.04.52,0,.78-.26,1.3-.52-.26-.26-1.3-1.04-1.04-1.56s.78.26,1.04.26c1.3-.52.78-1.03.78-2.33-.26-1.82,1.3-3.38.26-4.93,1.3-.26,0-1.3,0-2.08,0-1.03.78-.52.52-2.07-.52-1.3-.78-1.04-.26-2.34.26-1.04,0-1.56,0-2.6,0-.52.26-.78.52-1.3,0-.52-.26-.78-.52-1.04,0-.77.52-1.81.52-2.59,0-.26-.52-.78-.52-1.3,0-.26.26-.78.26-1.04,0-1.04-1.04-1.3.26-2.08-1.56-.52-.26-1.04-.78-1.82-.26-.51-1.04-.26-1.04-.77-.26-.52.26-.78.26-1.04q.52-1.3-.26-2.34c-.52-.78-1.04-1.3-1.3-2.08,0-.26,0-.52.26-1.04-.26,0-.52-.26-.78-.26.26-.52,0-1.3-.78-1.04.26-.26.26-.52.52-.77-1.04-.26-.78-.52-.78-1.3-.26-.78-.26-1.3-1.04-2.08l1.81-5.13Z"/>
    <path id="path51" class="cls-32" d="M844.77,1535.04c-2.06,2.08-2.58,7.01-3.36,9.87-1.04,3.12-3.1,4.67-3.87,8.05-1.28,3.89-1.02,8.05-.78,11.94.26,2.08.26,4.41,1.3,5.95-.78-.78-2.58-1.3-3.1-2.06-.26-.52.26-1.04,0-1.56-.26-.78-.52-.78-.78-1.04-.78-1.04-.52-.52-.26-1.56,0-.26.26-.26.26-.78,0,0-.26-.26-.26-.52-.26-.52,0-1.04,0-1.56s0-.78-.52-1.3c.26,0,.26-.52.52-.52-.26-.26,0-.52-.52-.78.26-.26.52-.52.26-1.04-.26,0-.52,0-.78.26-.24-.52-.24-1.3-.24-1.82.5-.78,1.28-.52,1.54-1.04.52-1.04-.26-1.04-.26-1.82s.26-.26.78-1.04c.26-.52.26-1.04.52-1.56.78-.78.78-.26.78-1.04,0-.52-.52-1.04-.26-1.56s.52-.26,1.02-.78c1.04-1.04.26-1.56.52-2.86,0-1.04.52-1.04,1.3-2.08.26-.26,0-.78.26-1.04.26-.52.78-.52,1.04-1.04.26-.52,0-.78.5-1.3.26-.26.78-.26,1.3-.78.78-.78,0-1.56.78-2.34.26-.26,1.04,0,1.3-.26.26,0,.76-.78.76-1.04.26-.26.26-1.04.52-1.56.26-.26.78-.26,1.3-.52.78-.78.78-1.3.78-2.6.52.26,1.02.26,1.28.26.52-1.04,0-1.3,1.3-1.56.52,0,1.82.52,1.82.52l-6.75,5.51Z"/>
    <path id="path52" class="cls-32" d="M866.3,1582.99c-6.99-1.3-13.48-2.08-19.17-6.21-2.6-2.08-4.93-4.41-7.27-6.49-1.04-.78-3.12-2.86-4.39-3.12-.26,1.82,1.02,3.63,1.54,5.19.26,1.04,0,1.3,1.04,2.08.52.52,1.04.78,1.56,1.56.52.52.52,1.56,1.04,2.06.26.52,1.3,1.04,1.82,1.3.78.78,2.6,2.34,3.63,2.6-.26,2.08.52,1.56,2.34,1.3,1.3-.26.52,0,1.56.52.26.26.78.52,1.02.78.26.26.26.78.78.78.52.26,1.04-.26,1.82,0,.52,0,1.3.26,1.82.78s.26,1.04,1.04,1.56c.52.26,1.56.52,1.3-.52h1.56c-.52,2.06.78,1.04,2.08,1.3-.26-1.3,1.04-.78.78.26.52.26,1.3-.26,1.82-.26.26-.78,1.04-1.3,1.56-.26h1.02c0-.26.26-.52.26-.78.78.26,1.04,1.04,1.56,1.3.78.76.78.26,1.82.5.52,0,1.3.26,1.82,0,.78-.5,0-1.02,1.3-1.02,1.04.26.52,1.02,1.56.26.52-.52.78-.78,1.56-1.04,1.04-.52,3.38,0,4.15-1.3l-14.33-3.13Z"/>
    <path id="path53" class="cls-32" d="M864.5,1509.94c2.34,6.97-2.85,12.39-7.25,16.79-1.56,1.55-5.18,5.93-7.51,3.1,1.03-2.07,1.03-3.61,2.85-4.9.78-.52,1.56,0,2.33-1.04.52-.51.78-1.8.78-2.58.52.26,1.3,0,1.82.26-.26-.78,0-1.29-.52-2.07,2.59.26,1.04-1.55,1.55-2.33.52-1.55.78-.51,2.08-1.81,1.56-1.81.78-5.42.78-7.23l3.09,1.81Z"/>
    <path id="path54" class="cls-32" d="M861.39,1482.69c-.8-2.58-.8-3.87-2.88-5.43-2.86-2.08-6.23-3.89-9.35-5.71-3.63-2.06-11.42-8.55-16.1-5.17.26,1.04-.26,3.12.26,4.15,1.04,1.8,2.34.78,3.89,1.54,2.34.78,3.38,4.67,6.23,3.63.78,2.08,3.12.52,4.15,2.6-1.3.52-1.82,2.06-.26,2.84.26-.52.52-.52.78-1.02.78.5,1.3,1.28,2.08,1.8v-.78c1.82,0,.26,2.6,2.34,3.12.26-.78.78-.78,1.04-1.3.78,1.56,1.3,6.73,3.12,4.67,3.63,1.04,4.43,7.77,4.95,10.6l-.25-15.54Z"/>
    <path id="path55" class="cls-9" d="M872.03,1474.93c-3.64-4.16-6.76-9.37-12.47-11.7-1.83-.79-14.29-4.69-14.03.52,0,2.34,1.56,1.3,3.12,1.82,1.82.78,1.3,1.57,2.86,2.87.78.52,2.34,1.04,3.38,1.56,1.04.78,2.08,1.57,3.12,2.35-.78.78-.78,2.08.53,2.34.78,0,.78-1.82,2.34-1.56,0,.78.52,1.3.78,2.08.26-.26.52-.52.52-.52,1.82.26,1.56,1.31,2.34,2.35,1.3,1.3,1.3.52,2.86,1.3,1.56.78,4.68,3.9,3.12,5.46l1.53-8.87Z"/>
    <path id="path56" class="cls-17" d="M904.94,1512.48c0-1.03.26-2.07-.27-2.59.27.26.53,1.3.53,1.81s-.8,1.04-.8,1.55c-.26,1.04,0,2.33,0,3.36,0,1.3.27,2.59,0,3.61,0,1.3-1.06,1.81-1.06,3.1,1.33-1.03.8-1.55,1.06-3.1.27-.51.8-2.58,1.34-2.84-.27-1.29,0-2.84-.54-3.87l-.26-1.03Z"/>
    <path id="path57" class="cls-17" d="M902.14,1528.83c.26-.52.78-.78,1.04-1.3,0-.53-.26-1.05,0-1.58l-1.04,2.88Z"/>
    <path id="path58" class="cls-17" d="M858.53,1440.15c.77-.79,1.54.53,2.32,1.05l-2.32-1.05Z"/>
    <path id="path59" class="cls-32" d="M892.8,1443.23c-5.45-2.84-7.53-9.05-12.2-12.66-1.56-1.3-3.37-2.08-5.19-3.1-1.82-1.04-3.38-2.34-5.19-3.38-3.12-2.06-6.73-4.39-10.36-4.89-3.12-.78-6.75-.78-9.87-.78-3.38,0-6.49,1.54-9.35,3.1-1.3.78-2.6,1.3-3.89,2.34-1.04,1.02-1.82,3.61-3.36,3.1-.26-2.6,2.58-4.91,4.65-5.69,1.04-.52,1.82-1.04,2.86-1.8.52-.52,2.08-1.3,2.34-2.34,1.3,0,3.89.52,4.15-1.3,1.04-.26,3.89-.52,4.93-.52.78.26,1.56.78,2.34.78,1.04,0,1.82-.26,2.6,0,1.56,0,2.86.26,4.41.52,1.3.52,3.38,2.34,4.39,1.56.78,1.3,2.6.78,3.63,1.04,1.56,0,1.82,1.02,3.12,1.28,1.56.52,2.34-1.02,3.63.26.78.78,1.04,2.34,1.56,3.36,1.82,0,2.34,2.86,3.63,3.89.78.76,1.56,1.28,2.34,1.8.52.52,1.3,1.3,2.34,1.3-.26,1.56.52,1.3,1.56,1.8,1.3.78.78,0,1.04,1.56q.52,1.3,1.56,2.34c.78.76.52.76,1.04,1.8.78,1.82,2.6,1.82,3.63,3.1.26.26-.26,1.04,0,1.3.26.52,1.04.52,1.04.78.52.78.52,1.56.78,2.32l-4.16-2.87Z"/>
    <path id="path60" class="cls-32" d="M898.71,1450.54c2.34,1.82,3.38,5.44,4.67,8.03,1.56,2.6,3.38,4.66,5.19,7,1.56,2.07,2.34,4.14,3.63,6.22,1.3,2.33,2.86,4.4,4.15,6.47,4.15,6.74,9.09,12.69,12.2,19.69,2.08,4.4,3.12,9.59,3.89,14.25.78,4.4,1.82,8.29.78,12.69-.52,2.86-1.82,5.96-1.56,8.81.26-.25.26-.51.26-.77.78-1.82,1.04-3.89,1.56-5.7.52-1.56,1.56-2.86,1.04-4.4,0-.52-1.04-1.3-1.04-2.08.26-.52,1.04-.78,1.56-1.55.52-1.3,0-2.86,0-4.15.26-1.55,1.04-2.07.52-3.62-.26-.52-1.3-1.3-1.3-1.81,0-.78.78-1.3.52-1.82-.26-.78-1.04-.78-1.3-1.3,0-.52.26-1.3,0-1.81,0-.52-.52-1.3-.52-2.08-.26-.52.26-1.04.26-1.56,0-1.29-1.04-2.33-1.82-3.37-.78-1.3-.78-2.33-1.3-3.37-.52-1.3-1.56-1.82-2.34-2.86-.26-.52-1.04-.52-1.04-1.29s.78-.52,1.04-1.3c.26-1.56-1.04-1.04-2.08-2.34-.78-.77-1.56-1.81-2.6-2.85-1.04-.78-1.82-1.56-2.34-2.33-.52-.78-.78-2.6-1.56-2.86.26-2.59-1.56-1.81-2.34-3.37,0-.52.52-1.04.52-1.3-.26-.52-.78-.52-1.04-.78-.78-.52-1.56-.78-1.82-1.55-.26-.52.26-1.3,0-1.82s-1.04-.78-1.3-1.3c-.78-1.04-.78-2.07-1.3-3.11-.26-.78-.78-1.04-1.3-1.82-.52-.52-.52-.78-.78-1.55-.52-1.3-1.04-1.56-1.82-2.86-1.82-1.81-2.86-3.88-3.89-5.7-.52-1.29-.52-2.33-1.56-3.11s-2.34-1.3-3.38-1.82l-.46,2.15Z"/>
    <path id="path61" class="cls-32" d="M925.23,1546.42c-.52,1.3-3.38-.26-4.15,1.04-1.3,2.34-.52,7.01-2.08,9.09s-3.38,3.37-5.19,4.93c-4.15,3.12-8.31,6.22-12.45,9.08-3.89,2.6-7.27,5.71-10.9,8.83-2.6,2.34-6.49,5.19-10.12,6.23.77,1.03,2.33,1.29,3.37,1.03.26-.26.78-.77,1.3-1.03.52,0,.78.26,1.56-.26.52-.26.52-1.04.78-1.3.52-.26,1.3-.26,1.82-.52,1.56-.52.78-.78,1.82-1.82,2.34.78,2.86.26,4.67-1.3,1.3-1.04,2.34-2.08,3.89-2.86.78-.52,1.82-.78,2.6-1.04,1.04-.52,1.04-1.3,1.81-2.08.78-.78,2.08-.52,2.86-.78.78-.52.78-1.56,1.3-2.08,1.04-.78,2.34-.52,3.38-1.3,1.04-1.04,1.3-1.82,2.6-2.34.52-.26,1.04-.78,1.3-1.04.26,0,.52,0,1.04-.26v-.77l.78-.52c0-.26.78-.26.78-.26.78-.78.52-1.04.52-1.82.52-1.56,1.56-2.08,2.34-3.38.52-1.3,1.3-2.86,1.56-3.89.78-2.86.52-6.23,2.34-8.57q-.26-.26-.52-.26l.99-.75Z"/>
    <path id="path62" class="cls-6" d="M820.91,1440.2c-.52,6.73-2.32,13.46-1.56,20.45.26,3.12.52,6.49,2.06,9.59.52,1.3,1.04,2.6,1.56,3.87-2.32-1.02-2.06-3.1-2.58-4.91-.52-1.82-2.32-2.58-2.84-4.39-.26-.78-.76-2.08-.76-2.6,0-1.04.5-1.82.5-2.84-.24-1.04-.76-1.82-.76-2.86,0-1.3-.26-1.3-.78-2.34-.76-2.32,1.3-4.39,1.8-6.47.26-1.54.26-2.84.78-4.13.26-1.04.52-1.04.52-2.08.26-.52-.26-1.04,0-1.8.5-2.6,2.56-4.41,3.34-6.99.26-.52.26-1.04.26-1.56.26-.78.52-1.3.78-2.08.76-1.82,1.02-1.3,2.32-2.34l-4.64,13.48Z"/>
    <path id="path63" class="cls-6" d="M868.61,1414.48c-2.86-2.6-7.25-2.86-10.62-2.86-3.38-.26-7.53-.26-10.9.52-3.36.78-6.99,3.63-9.85,5.71-2.34,1.56-5.19,3.37-7.27,5.45-1.3,1.02-2.08,2.84-3.36,4.13,0-2.08-.52-4.13,1.02-5.69.52-.26,1.04-.52,1.56-1.04.26-.78,0-1.04.52-1.56s1.56-.52,2.08-1.04c.26-.26,0-1.04.52-1.56.78-.78,2.08-.78,2.86-1.82,1.04-1.04,1.56-1.56,2.6-2.34,2.08-1.3,4.67-1.82,7.01-2.08,1.04-.26,2.06-.52,3.36-.78,1.04-.26,2.34-.78,3.12-1.3.78.26,1.56,1.04,2.34,1.04,1.04-.26,1.56-.78,2.86-.78,1.56,0,3.63,1.56,4.93.52.78,1.3,2.6.26,2.6-1.04,1.54-.26,1.54,1.82,2.84,2.08.78.26,1.56-.26,2.08-.26.78,0,1.3.52,2.08,0,.52.26,1.04.26,1.56.52.52,0,.78.52,1.3.52.78.52,1.82,1.04,2.86.78.78.52,2.08,1.04,2.86.52.52.52,1.56,1.3,2.08.52,1.3-.26,1.3.52,1.56,1.3.78,1.3.78,1.04,1.8,1.82.26.26.52.78.78,1.04.26.26,1.3,0,1.56.26.78.78-.26,1.56,0,2.6,0,1.56,2.34,2.86,3.37,4.39.52,1.3,1.56,3.12,3.12,3.63-.52,1.56.78.52.78.78.78.78.52.52.78,1.3,0,.78-.78.52,0,1.56,0,.26,1.3.78,1.3.78,1.82,1.3,2.34,5.19,4.67,5.71.26,1.04.78,2.32,1.56,2.58l-34.32-25.91Z"/>
    <path id="path64" class="cls-6" d="M911.45,1456.74c2.09,2.34,3.64,4.94,4.69,8.06.78,2.35,1.3,4.42,3.13,5.98,2.61,2.35,5.99,3.38,7.56,6.76,0-1.3-.27-2.6-.79-3.89-.78-1.3-1.56-1.56-2.61-2.61-.78-.52-1.3-1.56-1.82-2.34-.79-1.04-.52-1.3-1.05-2.34-.26-.53-.78-.53-1.04-.79,0-.26.26-.78.26-1.04-.26-.78-.26-1.3-.52-1.82-.78-1.3-1.57-1.82-1.83-3.13-.52-1.56-.26-2.86-.78-4.15-.52-1.57-1.83-1.57-2.61-2.61-.26-.52-.52-1.3-.78-1.82-.26-.26-.78-.26-.78-.52-.27-.26,0-.78-.27-.78-.26-.52-1.04-.78-1.3-1.31-.26-.52-.26-1.04-.52-1.56-1.05-1.56-4.95-3.12-6.51-3.9l7.57,13.81Z"/>
    <path id="path65" class="cls-6" d="M866.6,1590.23c-4.41.52-8.55-.26-12.96-1.28-1.56-.52-3.61-1.02-5.17-1.8-2.34-1.02-4.15-3.08-6.47-3.85,1.8,2.84,3.87,5.65,7.51,6.93,1.54.52,2.84.78,4.39,1.02.52.26,1.56.52,1.82.52.78,0,1.3-.26,2.08-.26,1.04,0,2.32,1.04,3.61,1.28,1.3.52,2.6.26,3.63.78,1.3.52,1.56.76,3.1.76,1.3,0,2.34,0,3.38-.5.52-.26.78-.78,1.56-1.28.78-.26.78,0,1.82,0,1.04-.26,2.32-.52,3.61-.52,1.56,0,1.3.52,2.6-.78,1.04-.76,2.86-2.3,3.63-2.56l-18.14,1.54Z"/>
    <path id="path66" class="cls-29" d="M848.64,1496.13c.79,2.08,1.31,5.19,1.57,7.26.26,1.56,0,2.86-.26,4.41-.26,1.82.26,7.53-1.83,8.3v-.25c1.57.51,2.61-1.56,2.87-2.34,0-1.04,0-1.56.52-2.34.26-.52.78-.52,1.04-1.3,0-.52-.52-1.56-.26-2.08,0-.52.52-1.04.78-1.56.27-1.56-.78-2.08-1.04-3.62-.26-1.56,0-2.08-.78-3.63-.52-1.56-.52-2.6-1.04-3.89-1.31-1.56-2.61-4.67-4.94-4.93l3.37,5.97Z"/>
    <path id="path67" class="cls-31" d="M846.09,1499.27c2.86,4.93.26,10.38-1.04,15.58-.26.52-1.04,4.15,0,2.6.26-.78.26-1.3.78-1.82.26-.52.78-1.04,1.3-1.56.52-.78.78-1.82,1.04-2.86s.78-2.08,1.04-3.12q.54-1.3.26-2.6c-.26-1.04.28-1.82.28-2.6,0-.26-.54-.52-.54-1.04s.26-.78.26-1.3c-1.04-.26-.52-.78-.78-1.56,0-.52,0-.78-.52-1.56-.26-.52-.26-.78-.26-1.56s0-.78-.78-1.56c-.78-1.04-1.56-2.34-2.34-3.38-1.04-1.04-2.08-1.3-3.12-2.08l4.42,10.42Z"/>
    <path id="path68" class="cls-12" d="M821.48,1520.2c-.26-1.04-1.82-.26-2.34.26-.78,1.04-1.04,1.82-1.3,2.86-.78,2.08-1.82,4.15-2.6,6.23-.52,2.34-.78,4.67-1.56,6.73-.52,2.08-1.3,3.89-1.82,5.71-1.3,5.71-2.08,10.36-2.08,16.34,0,3.38,0,6.49.26,9.87.52,3.36,2.34,14.52,3.37,18.39,0-2.84-1.56-13.22-2.08-15.82-.52-2.58-.78-5.17-.52-7.77.26-5.71-.26-12.44,2.86-16.86,1.56-2.08,2.34-1.82,3.89-3.89,1.3-2.08,2.08-4.67,3.63-6.99,1.3-2.08,3.89-4.41,3.89-6.75.26-2.6-1.3-5.71-2.86-7.79l-.74-.52Z"/>
    <path id="path69" class="cls-21" d="M820.35,1525.19c-.26.78-.78,1.3-1.04,2.34,0,1.04.26,1.82-.26,2.86-.76,1.3-2.06,2.6-2.84,4.15-1.56,3.36-1.04,8.03-3.61,11.38,1.02-1.8,2.06-3.1,3.1-4.91,1.3-1.82,1.3-3.38,1.56-5.45.78-3.87,7.25-6.99,3.61-10.88l-.52.51Z"/>
    <path id="path70" class="cls-26" d="M823.46,1490.7c-3.08,1.04-4.35,7.23-5.11,11.36,1.02-1.54,1.02-7.75,1.54-9.31.24-1.54,1.54-3.87,2.56-4.91,0,0,.26,0,.52.26.24,1.04.76,2.34,1.54,3.38l-1.05-.78Z"/>
    <path id="path71" class="cls-12" d="M822.46,1524.67c.76,2.34,1.28,3.12.5,5.45-.5,2.08-2.06,4.15-2.3,6.21,1.02-.5,1.54-1.8,2.3-2.58,1.04-.78,1.8-.78,2.58-2.08,1.04-2.34.78-4.93-1.28-6.75l-1.8-.25Z"/>
    <path id="path72" class="cls-21" d="M816.27,1536.65c-.78,1.3-1.04,2.58-1.82,3.61-.78,1.28-1.56,2.32-2.08,3.59-1.04,2.58-2.34,6.45-1.04,9.01-.26-1.8.26-4.37,1.04-5.91.26-1.28,1.56-4.11,2.6-4.63l1.3-5.67Z"/>
    <path id="path73" class="cls-38" d="M821.2,1526.49c-1.3-.54-1.04,1.3-1.3,2.08-.26,1.04-.78,2.1-1.04,3.14-.52,1.04-1.82,1.56-2.08,2.36-.52,1.04-.52,2.6-.26,3.63,0-1.82.78-3.63,2.08-5.47,1.3-1.3,2.86-3.39,2.6-5.47v-.27Z"/>
    <path id="path74" class="cls-38" d="M812.66,1545.66c-1.28,1.56-1.54,3.38-1.54,4.93-.26,2.08-.76,3.89-.52,5.71,0-.78.52-1.56.52-2.6s0-1.82.26-3.12c.26-1.82.5-3.89,1.54-5.71l-.26.79Z"/>
    <path id="path75" class="cls-38" d="M813.48,1587.62c.26.54.26,1.06.52,1.58.78,4.93-.26,9.87-1.04,14.54-.52,2.36-1.56,4.43-2.08,7.03-.26,2.6-.52,5.71-.52,8.57.52-4.41,1.04-9.09,2.6-13.24,1.56-3.65,2.6-11.7,1.3-15.6l-.78-2.88Z"/>
    <path id="path76" class="cls-22" d="M812.92,1636.67v-.52c-.26-1.56-1.52.52,0,.52Z"/>
    <path id="path77" class="cls-22" d="M811.92,1637.5c-.52-.28-.26.52.26.52.26-.26,0-.8-.26-.8,0,0,0,.28,0,.28Z"/>
    <path id="path78" class="cls-22" d="M811.6,1635.89l-.26-.26c-.5.26-.5,1.04,0,1.04.78,0,.78-.78.26-1.04,0,0,0,.26,0,.26Z"/>
    <path id="path79" class="cls-22" d="M810.56,1636.19v-.24c-1.24.72,1,.48-.26,0l.26.24Z"/>
    <path id="path80" class="cls-22" d="M809.56,1635.93c-.8-.54-.54,1.06,0,.8.8-.26.26-1.06-.28-1.06l.28.26Z"/>
    <path id="path81" class="cls-22" d="M810.36,1636.99c0,.48.48.48.48,0h-.48Z"/>
    <path id="path82" class="cls-22" d="M808.76,1635.63c-.24.28-.48,1.1,0,1.36.72,0,.72-1.08.24-1.36h-.24Z"/>
    <path id="path83" class="cls-22" d="M808.96,1638.26c.52,0,.26-.5,0-.76-.52-.51-.52.52,0,.76Z"/>
    <path id="path84" class="cls-22" d="M810.56,1636.19c-1.56,0,1.56,1.28.26,0h-.26Z"/>
    <path id="path85" class="cls-22" d="M811.14,1637.74c-.52-.28-.78.26-.52.8.52.52.78-.28.26-.54l.26-.26Z"/>
    <path id="path86" class="cls-22" d="M809.5,1636.95c-.5,0-.5,1.56.26,1.3s.24-1.3-.26-1.58v.28Z"/>
    <path id="path87" class="cls-22" d="M812.12,1637.23c.48-.26.24-.8-.24-.8-.48.28-.24.8.24.8Z"/>
    <path id="path88" class="cls-22" d="M812.66,1636.71c-.78,1.06,1.3,1.32.26-.28l-.26.28Z"/>
    <path id="path89" class="cls-22" d="M812.12,1638.26s0,.24.24.24,0,0,0-.24h-.24Z"/>
    <path id="path90" class="cls-22" d="M808.44,1636.99s-.16,0-.16.24h.16v-.24Z"/>
    <path id="path91" class="cls-22" d="M810.06,1636.43c-.26.26-.26,1.04.26.78.52,0,.26-.78,0-.52l-.26-.26Z"/>
    <path id="path92" class="cls-22" d="M810.78,1636.67c0,.28-.26,1.36.54,1.1.56,0,.28-.82-.26-.82l-.28-.28Z"/>
    <path id="path93" class="cls-22" d="M811.88,1638.5c-.48,0,0,.28,0,.56v-.56Z"/>
    <path id="path94" class="cls-20" d="M817.79,1471.31c3.37,5.93,10.38,11.34,17.41,12.62-.52-2.32-2.88-3.85-5.21-3.59-.52-2.06-2.86-4.11-4.93-3.1l-7.27-5.93Z"/>
    <path id="path95" class="cls-23" d="M845.85,1495.12c-.52,1.82,1.54,3.89,1.04,6.23-.26,2.34-.26,3.36-.26,5.69.26,5.45-3.36,10.62-3.59,15.8,1.02-1.8,1.8-3.61,2.82-5.17,1.28-2.08,1.04-2.6,1.54-4.91,0-.78.78-1.3.78-1.82v-2.08c0-.78.78-.52.26-1.82-.26-.52-1.04-1.3-1.3-1.56l-1.29-10.36Z"/>
    <path id="path96" class="cls-23" d="M832.33,1538.99c1.82-2.86,3.63-7.53,6.23-9.61-1.04.78-2.6,1.3-3.37,2.34-1.04,1.3-1.04,2.86-2.34,4.15-1.56,1.3-1.56.52-2.6,2.34-.52,1.3-1.3,2.34-2.08,3.63-1.56,2.32-1.56,5.43-2.6,8.29-1.04,2.86-2.84,5.71.26,7.77,0-8.03,2.86-12.96,7.01-19.17l-.51.26Z"/>
    <path id="path97" class="cls-10" d="M918.2,1452.86c-.52-5.95-6.23-12.95-10.38-16.84-1.04-1.3-1.82-2.59-2.86-3.88-1.04-1.04-2.6-1.82-3.63-2.86-.78-1.29-1.04-2.85-2.08-3.88-1.04-.78-2.6-.52-3.89-1.3,3.63,1.56,5.45,6.48,7.53,9.34,1.04,1.03.78,1.81,1.3,2.85.78,1.56,1.56,1.04,2.86,2.07,2.08,1.04,3.12,3.63,4.41,5.18l6.74,9.32Z"/>
    <path id="path98" class="cls-23" d="M887.53,1413.73c-1.55-2.58-5.93-4.64-9.03-3.86,3.1,1.55,5.67,2.58,8.51,4.38,3.11,1.8,3.61,5.15,4.91,8.5l-4.39-9.02Z"/>
    <path id="path99" class="cls-19" d="M905.47,1441.97c-.78-1.55-2.85-2.58-3.87-3.87-1.29-1.55-2.59-3.87-4.64-4.65.25,1.56,1.55,2.07,2.58,3.37.26.52,1.04.52,1.29,1.29.26.52-.51,1.3,0,2.07,1.04,1.81,5.43,4.39,7.24,5.42l-2.6-3.63Z"/>
    <path id="path100" class="cls-19" d="M847.11,1489.12c-1.04-1.56-3.91-2.86-5.99-3.12.78,2.08,4.41,1.82,5.99,3.63.52.78.78,2.34,1.3,3.38.78,1.3,1.84,2.6,2.36,3.89,1.04,2.06,1.3,4.91,1.82,7.25.78,2.6.52,5.71-.78,8.29,1.04-1.02,2.6-2.58,2.86-3.87.28-1.82-1.56-3.37-1.56-5.19,0-2.08,1.3-3.37.52-5.43-.78-2.6-2.86-3.89-4.43-5.71l-2.09-3.12Z"/>
    <path id="path101" class="cls-19" d="M817.31,1463.48c-.24,2.62,1.82,4.69,4.39,5.21-.26,4.17,2.32,4.95,5.43,6.77-1.56-1.3-4.13-5.71-5.43-5.99l-4.39-5.99Z"/>
    <path id="path102" class="cls-19" d="M829.99,1544.88c-3.16.52-2.12,7.27-2.64,9.61-.78,3.89-.52,5.71,1.58,9.09-1.32-3.12-1.32-8.83-.52-11.94.52-1.56,1.04-2.6,1.32-4.15.26-1.3,1.32-2.34,1.32-3.63l-1.06,1.02Z"/>
    <path id="path103" class="cls-19" d="M916.28,1565.33c-1.56.53-3.12.79-4.14,2.35-.78,1.04-.52,2.34-1.82,3.38-1.03,1.05-2.33,1.05-3.62,1.83-1.29,1.04-2.07,2.6-3.36,3.63,1.29-1.3,1.81-2.86,3.36-3.38,1.82-.52,2.08.52,3.88-1.04,1.3-1.31,1.82-2.61,3.11-3.9,1.04-1.04,2.6-1.04,2.34-2.87h.25Z"/>
    <path id="path104" class="cls-19" d="M888.05,1585.59c-1.29.52-2.06,1.82-3.1,2.61-1.8.78-1.8.52-3.86.26-3.61-.26-6.19,2.6-9.54,2.6,3.09,1.04,7.99-1.3,10.82-1.56,2.32-.26,2.58-.52,4.64-2.35,1.29-1.04,3.36-2.86,4.9-3.13l-3.86,1.57Z"/>
    <path id="path105" class="cls-19" d="M862.67,1405.97c-1.83-1.04-2.87.52-3.13,2.08-1.04-.26-1.82-.78-2.86-1.04,2.08.26,2.86-1.56,4.68-1.56,1.3,0,3.89,1.56,4.42,2.08l-3.11-1.56Z"/>
    <path id="path106" class="cls-34" d="M847.35,1499.51c1.05,2.07.79,4.39.79,6.71h1.05c.8-2.32-.26-5.68-1.58-7.75l-.26,1.04Z"/>
    <path id="path107" class="cls-34" d="M828.65,1567.71c2.1,2.86,4.19,12.18,8.15,13.2-.8-3.1-3.43-5.69-4.73-8.53-1.06-2.08-1.58-4.41-2.64-6.49l-.78,1.82Z"/>
    <path id="path108" class="cls-34" d="M838.88,1586.16c1.52,1.8,5.11,5.13,7.43,5.37-1.3-2.3-4.37-4.85-6.67-6.15l-.76.78Z"/>
    <path id="path109" class="cls-34" d="M901.11,1577.55c-.79,1.3-3.4,1.56-4.71,3.36,1.31-.25,3.14-2.06,4.44-2.84l.27-.52Z"/>
    <path id="path110" class="cls-8" d="M838.86,1559.38c.52-2.08,1.3-4.41,1.3-6.51-.52,2.62-2.32,5.47-2.32,8.07,0,2.1.76,5.21,1.54,7.29,1.82,4.69,5.69,9.11,10.6,10.92-4.91-3.12-9.57-8.85-10.34-14.56l-.78-5.21Z"/>
    <path id="path111" class="cls-27" d="M837,1567.69c-.52,2.08,1.04,3.89,3.39,4.67-1.06-1.82-2.1-3.12-2.62-4.95l-.77.28Z"/>
    <path id="path112" class="cls-27" d="M829.49,1450.76c.52,1.56.52,3.12,1.04,4.69.52,1.3,1.82,2.34,2.34,3.89.26,1.3-.52,2.62.52,3.91,1.04,1.3,3.12,1.3,3.89,2.86-3.12-1.04-4.41-3.63-5.45-6.25-.52-1.56-1.3-3.12-1.82-4.95-.52-1.82-.26-4.41-1.04-5.73l.52,1.58Z"/>
    <path id="path113" class="cls-27" d="M828.65,1455.47c.8,2.1-1.04,3.93,2.4,4.97-1.34-1.56-1.86-3.67-2.4-5.51v.54Z"/>
    <path id="path114" class="cls-25" d="M891.95,1440.45c-.52-1.04-1.56-1.04-2.34-1.82-.51-.78-.25-1.3-.77-2.08-.78-1.3-3.37-4.94-4.91-3.12,1.81.26,5.68,5.71,6.98,7.27,1.81,1.83,3.37,3.38,4.65,5.46,1.04,1.56,2.59,4.41,4.66,4.93-.26-2.34-4.92-5.45-6.73-7.01l-1.54-3.63Z"/>
    <path id="path115" class="cls-7" d="M876.68,1427.48c-1.04-1.82-3.63-2.34-4.41-4.41,1.82.26,4.93,1.82,6.23,3.12,3.38,2.6,4.94,7.27,8.07,9.87-1.57-1.3-2.35-2.08-3.64-3.63-1.3-1.82-2.6-3.63-5.2-3.12,1.3,1.82,4.16,2.08,5.72,3.63,1.3,1.3,1.56,3.37,2.6,4.67l-9.37-10.13Z"/>
    <path id="path116" class="cls-27" d="M931.95,1504.14c.26-3.38-1.04-7.53-4.13-9.35,2.07,3.38,5.42,10.12,2.33,13.49,3.87,7.26-.52,18.15-2.84,25.41,2.06-1.03,1.8-1.81,2.06-3.88.26-2.34,1.3-3.63,2.07-5.71.78-2.33,1.29-4.92,1.29-7.26,0-2.86.26-7-.77-9.6v-3.1h-.01Z"/>
    <path id="path117" class="cls-25" d="M930.44,1512.28c1.58,4.91-.79,12.92-3.93,16.79.78-2.06,2.1-4.12,2.36-6.19.26-1.55.26-3.11.53-4.65.52-1.81,1.31-2.33.52-4.64-.52-1.81-1.57-2.59.27-3.37l.25,2.06Z"/>
    <path id="path118" class="cls-27" d="M927.86,1537.34c-.27,1.05-1.32,1.57-1.58,2.61-.26,1.05.26,2.61,0,3.91-.26,1.57-1.31,6.77-3.4,6.51-.52-1.82,3.15-3.9,3.66-5.99.53-2.09,2.37-7.82,1.32-9.65v2.61h0Z"/>
    <path id="path119" class="cls-35" d="M933.76,1499.51c.26-3.63-1.56-5.71-3.12-8.57-1.03-1.82-1.81-4.15-3.88-4.93-.25,2.08,2.86,4.67,3.88,6.49,1.3,2.34,2.34,5.45,2.34,8.05l.78-1.04Z"/>
    <path id="path120" class="cls-25" d="M922.32,1496.95c-.52-2.34-3.38-7.54-5.71-8.07.52,1.57,2.6,3.13,3.38,4.94.52,1.83.78,3.64,1.82,5.46,1.04,1.83,2.6,3.13,2.86,5.46.26,1.83-.26,3.64-.26,5.46,3.63-1.04-.52-9.62-2.08-11.18v-2.07h0Z"/>
    <path id="path121" class="cls-14" d="M924.96,1511.41c1.87,3.38-2.13,7.55,0,10.14,1.6-1.56.8-7.54.27-9.36l-.27-.78Z"/>
    <path id="path122" class="cls-14" d="M922.12,1534.02c0-2.34,2.64-6.24,1.84-9.11l-1.84,9.11Z"/>
    <path id="path123" class="cls-14" d="M871.97,1430.31c-2.57-1.83-6.16-2.36-8.73-4.18,3.34-.27,6.93,2.62,9.51,4.44l-.78-.26Z"/>
    <path id="path124" class="cls-25" d="M873.63,1483.46c-.52-1.3-1.3-2.33-2.08-3.37,1.3,1.82,3.63,5.94,2.08,8.27,1.56,3.61,2.08,7.75,2.6,11.62,1.56-4.38-.26-10.07-3.38-13.17l.78-3.35Z"/>
    <path id="path125" class="cls-14" d="M878.22,1495.12c.26.26.26.52.52,1.04-.26-.52-.52-1.04-.77-1.3q0-.26,0,0h.51c1.3-2.08,0-5.72-2.06-6.77l1.8,7.03Z"/>
    <path id="path126" class="cls-14" d="M875.9,1507.58c-.26.52-.26,1.3-.52,2.08,1.82-.52,1.56-4.42,2.08-5.99l-1.56,3.91Z"/>
    <path id="path127" class="cls-30" d="M865,1483.93c.78.79,1.31,1.57,1.31,2.61-.26,0-.53-.26-.79-.26.26,2.35,2.89,4.95,3.41,7.55,1.05,3.9-.26,7.29,0,11.19,1.58-2.6.79-6.76.52-9.63-.26-2.61-.26-5.73-1.84-8.08l-2.61-3.38Z"/>
    <path id="path128" class="cls-30" d="M858.77,1482.41c1.03,1.05,2.32,1.83,3.35,3.13,1.03,1.31,1.29,2.87,2.33,3.9-.26-1.82-1.3-3.9-2.84-4.68l-2.84-2.35Z"/>
    <path id="path129" class="cls-30" d="M852.3,1476.18c3.37,1.3,6.23,2.08,9.35,4.15,1.56.78,2.86,2.34,4.15,3.12l-13.5-7.27Z"/>
    <path id="path130" class="cls-11" d="M863.16,1489.95c-1.29-1.81-3.61-2.85-5.67-3.62,3.09,2.59,4.12,4.39,5.15,8.28.52,2.32.78,3.87.78,6.2,0,1.55-.78,5.42.77,6.45,2.33-2.84.26-12.14-1.55-14.98l.52-2.33Z"/>
    <path id="path131" class="cls-11" d="M857.22,1485.06c0-1.05-2.35-1.85-3.64-1.85,1.3.8,2.87,1.59,3.91,2.64l-.27-.79Z"/>
    <path id="path132" class="cls-11" d="M861.33,1496.87c.78,2.6,2.08,8.05.26,10.9,1.04,1.04.78,3.12.26,4.67.78-1.82,1.56-2.6,1.56-4.41,0-2.34-.78-4.41-.78-6.49l-1.3-4.67Z"/>
    <path id="path133" class="cls-11" d="M907.24,1458.83c0-1.82-2.34-3.89-3.89-3.89,1.82,3.89,5.45,7.52,7.27,11.66l-3.38-7.77Z"/>
    <path id="path134" class="cls-11" d="M919.18,1478.78c-.26,0,0-.52-.52-.26-.78,2.07,2.87,4.12,4.17,5.41l-3.65-5.15Z"/>
    <path id="path135" class="cls-11" d="M857.17,1586.1c-2.08-.77-4.92-1.55-6.73-2.59-1.82-1.04-3.88-4.92-6.21-4.92,1.03,2.6,6.21,5.44,8.54,7l4.4.51Z"/>
    <path id="path136" class="cls-11" d="M844.23,1578.59c-1.02-1.04-2.02-2.08-3.28-2.6q0-.28,0,0c.74.52,1.26,1.3,1.26,2.34-.26-.26-.52-.26-.76-.52l2.78.78Z"/>
    <path id="path137" class="cls-11" d="M836,1559.14c1.28,2.08,0,4.91,1.28,7.23-2.56-4.13-1.28-8.01-1.54-12.14l.26,4.91Z"/>
    <path id="path138" class="cls-37" d="M823.54,1497.75c.26,1.04.78,2.6-1.04,3.12.52.76,1.82,1.02,2.34,2.06s-.26,1.8,0,2.84c0,.52.52,1.04.52,1.56.26.76.26,1.28,0,2.06,0,1.56,0,3.61.26,5.15.26-2.32,1.84-5.67,1.04-7.99-.26-1.04-1.04-1.56-1.3-2.58-.52-1.3,0-2.34-.26-3.36l-1.56-2.86Z"/>
    <path id="path139" class="cls-33" d="M825.04,1525.15c-1.02-.78-1.78-2.6-2.3-3.91-.24.28,0,.28-.24.54,1.26.52,2.28,3.63,2.54,4.93.52,1.84-.26,7.29-2.3,7.55.26-1.82,3.57-2.6,3.83-4.93,0-1.58-.78-3.39-1.8-4.43l.27.25Z"/>
    <path id="path140" class="cls-6" d="M839.1,1492.54c-.78-.78-2.34-1.3-3.37-1.82-1.04-.26-2.6-1.04-3.63-1.04.26.52,1.82.78,2.6,1.04,1.04.52,2.08,1.04,3.12,1.82,1.56,1.56,2.6,3.12,3.38,5.17,1.82,3.63,2.34,8.03,1.56,11.92-.26,2.06-1.04,3.61-1.82,5.43-.26.78-.78,3.12-1.56,3.61,1.3-2.06,2.86-3.87,3.63-5.95.78-2.06,1.3-4.13,1.3-6.47.26-2.84,0-5.69-1.3-8.29-.78-2.06-2.6-4.39-4.41-5.95l.5.53Z"/>
    <path id="path141" class="cls-18" d="M902.62,1501.59c1.58,2.85,1.05,5.69,1.58,8.79.26-2.07,1.06-4.13-.26-6.2l-1.32-2.59Z"/>
    <path id="path142" class="cls-17" d="M903.38,1529.54c.52-1.54,0-3.33-.76-4.87l.76,4.87Z"/>
    <path id="path143" class="cls-15" d="M880.34,1454.7c.77,1.04,1.29,2.08,1.03,3.12,2.59.78,2.07,2.6,3.62,3.62,2.07,1.56,3.62.26,3.62,3.89h.77c.52,2.59,1.82,2.85,3.37,4.66,2.85,3.12,2.33,8.04,4.92,11.14-1.3-4.4-3.62-8.81-5.95-12.96-1.3-2.59-2.34-4.66-4.4-7-1.81-2.07-4.39-3.62-5.95-5.7l-1.03-.77Z"/>
    <g class="cls-42">
      <path id="path144" class="cls-2" d="M813.38,1636.19c-1.3-7.25-1.56-10.36-1.04-18.39.52-8.03,4.67-11.14,4.15-23.07-.52-11.92-1.04-21.01-1.3-25.92-.26-4.93.78-15.82,5.71-21.01,1.3-4.13,3.37-8.29,5.19-11.66,2.6-5.17,5.19-5.69,2.86-11.66-2.34-6.21-.26-11.92,0-16.58.26-4.67-1.3-6.75-2.86-14.26-1.04-4.93-1.56-6.49-3.37-8.83-4.93,3.12-5.45,13.22-7.79,23.61-2.34,10.11-4.67,9.33-8.31,30.57-1.3,8.31-2.34,19.97.26,34.99,2.6,15.04,4.93,18.93,2.86,32.41-2.08,13.22-3.38,23.84-2.08,29.8"/>
    </g>
    <g class="cls-41">
      <path id="path145" class="cls-1" d="M838.26,1403.31c1.82-1.04,3.89-1.82,5.71-2.6,18.15-4.41,35.81,0,50.33,12.46,14.54,12.44,14.8,16.6,19.71,23.07,4.93,6.23,13.76,16.88,15.84,25.68,2.34,8.83,4.41,16.08,6.49,25.94,2.08,9.59,3.12,12.44,2.34,28.26-.78,15.56-4.93,15.56-8.83,30.1-3.63,14.26-2.86,16.34-12.2,27.48-9.59,11.42-17.11,14.02-26.46,21.01-9.07,6.75-28.28,14-44.61,3.63-16.34-10.36-19.19-19.71-24.9-30.08-5.71-10.12-.78-22.83,4.41-32.17,2.6-5.19,5.19-5.69,2.86-11.66-2.34-6.23-.26-11.94,0-16.6.26-4.67-1.3-6.75-2.86-14.28-1.56-7.51-1.82-7.25-8.05-13.48-6.49-6.49-11.66-14.78-11.66-34.49,0-17.37,17.62-35,31.88-42.27"/>
    </g>
    <path id="path146" class="cls-1" d="M820.91,1482.73c3.61,3.36,4.13,4.65,9.83,6.71"/>
    <path id="path147" class="cls-1" d="M829.53,1530.1c1.02-1.28,3.08-2.82,4.63-5.91"/>
    <path id="path148" class="cls-4" d="M888.8,1596.19c-9.87,6.21-27.22,11.64-42.26,2.06-16.34-10.34-19.19-19.69-24.9-30.04-5.69-10.11-.78-22.81,4.41-32.13,2.6-5.19,5.19-5.71,2.86-11.66-2.34-6.21-.26-11.92,0-16.58.26-4.67-1.3-6.75-2.86-14.26s-1.82-7.25-8.03-13.46c-6.49-6.49-11.66-14.78-11.66-34.47,0-17.35,17.61-34.97,31.87-42.24"/>
  </g>
</svg>