<?xml version="1.0" encoding="UTF-8"?>
<svg id="svg3" xmlns="http://www.w3.org/2000/svg" xmlns:xlink="http://www.w3.org/1999/xlink" viewBox="0 0 1398.49 3639.87">
  <defs>
    <style>
      .cls-1, .cls-2, .cls-3, .cls-4, .cls-5, .cls-6 {
        fill: none;
      }

      .cls-2 {
        stroke: #faded4;
      }

      .cls-2, .cls-6 {
        stroke-miterlimit: 8;
        stroke-width: 1.66px;
      }

      .cls-7 {
        clip-path: url(#clippath-1);
      }

      .cls-8 {
        fill: #faded4;
      }

      .cls-8, .cls-9, .cls-10, .cls-11 {
        fill-rule: evenodd;
      }

      .cls-3 {
        stroke-width: 1.16px;
      }

      .cls-3, .cls-4, .cls-5 {
        stroke: #1a171b;
        stroke-linecap: round;
        stroke-linejoin: round;
      }

      .cls-4 {
        stroke-width: .84px;
      }

      .cls-5 {
        stroke-width: .34px;
      }

      .cls-9 {
        fill: #f7c2b0;
      }

      .cls-10 {
        fill: #fdefe9;
      }

      .cls-11 {
        fill: #fdf8f5;
      }

      .cls-12 {
        clip-path: url(#clippath);
      }

      .cls-6 {
        stroke: #f7c2b0;
      }
    </style>
    <clipPath id="clippath">
      <rect class="cls-1" x="415.6" y="1252.44" width="563.06" height="827.27"/>
    </clipPath>
    <clipPath id="clippath-1">
      <rect class="cls-1" x="415.6" y="1252.44" width="563.06" height="827.27"/>
    </clipPath>
  </defs>
  <g id="_대장" data-name="대장">
    <path id="path2" class="cls-9" d="M970.15,1691.58c.86,6.07,2.47,12.99,1.67,19.03-.8,10.38-3.3,8.65-11.57,6.93,8.27-1.75,8.27-7.76,9.1-16.44l.8-9.52Z"/>
    <g class="cls-12">
      <path id="path3" class="cls-8" d="M973.51,1724.65c4.01-7.73,2.41-36.96-5.65-44.69,4.01-5.14.8-35.24-10.47-38.66,3.21-2.59,4.85-26.64-5.65-34.38,2.41-10.29-2.44-40.38-9.66-41.21,6.45-6.87,0-36.13-4.01-45.56,3.21-2.59,4.85-29.23-.8-31.79,4.85-7.73-1.64-26.64-4.01-31.82,4.85-6.01,3.21-21.47,0-33.48,4.85,0,9.66-28.4,2.41-36.96,7.26-6.01,5.65-37.82-3.21-39.52,5.65-7.73,6.45-32.68-.8-40.41,4.01-11.15-13.68-42.97-24.18-48.95-10.47-5.17-18.53-.86-22.57-.86-8.86-1.75-16.09-3.45-29.83,4.28-22.54,11.18-25.78,32.65-23.34,40.38-4.85,0-17.72,18.05-11.3,25.78-8.06,0-17.72,13.74-16.89,25.75-8.09,3.45-16.95,13.77-15.31,23.19-9.66-2.56-24.98,10.32-30.63,16.35-11.3-8.62-37.08-.89-41.1,5.14-8.06-6.87-37.08-.86-38.66,5.14-11.3-7.73-27.42-6.84-39.49-.86-2.44-7.73-28.22-12.88-34.64-6.01-8.09-12.07-25.78-22.36-33.87-18.91-.77-6.87-16.09-20.64-25.75-21.5-7.26-9.43-20.16-23.19-31.43-21.47-14.51-18.05-38.66-11.18-41.93-9.49-2.41,2.59-7.23,7.73-12.07,9.49-10.47,3.39-21.77,12.01-26.61,27.51-4.85,14.57-10.47,35.24,0,53.26-6.45,11.18-5.65,49.84,4.01,57.57-8.95,11.18-3.3,33.51.74,45.56-9.66,8.59-9.66,42.97-4.85,49.84-11.3,7.73-10.47,33.54-4.85,47.25-11.3,11.18-10.47,36.13-2.44,47.25-8.86,12.07-10.47,44.69,3.24,54.15-3.24,23.19,10.47,51.59,22.54,60.19-2.41,17.16,14.51,49.84,35.48,49.84,4.01,16.33,37.08,42.97,58.82,30.09,16.95-11.18,15.31-18.05,21.77-28.4,2.44-3.45,5.65-6.84,8.86-10.29h-1.58c-2.44.86-4.85-.89-4.85-3.45-.8-2.59,0-5.17,2.41-5.17,3.21-1.69,6.45-.86,9.66.89,3.21-6.04,7.26-12.91,8.86-23.19,3.24-23.19-31.4-58.43-48.35-61.88-7.26-10.32-16.12-28.4-24.98-36.13,8.86-16.33,1.64-38.66,1.64-38.66,1.58-16.33,2.41-26.64-3.24-41.21,7.26-12.01,6.45-32.68,0-42.11,6.45-9.49,9.66-32.68,6.45-43.86,2.44-11.15,3.21-20.61-.8-33.48,8.09-9.49,0-30.09-3.21-37.82,5.65,8.59,16.12,27.51,38.66,28.34,19.33,17.22,24.98,12.91,41.1,14.63,4.85,11.18,36.28,12.01,44.31,5.14,4.85,7.73,31.43,14.63,39.49,2.59,4.01,2.59,28.19,9.49,36.28-1.69,6.45,2.56,29.83,4.28,37.05-9.49,8.09,2.59,28.22,0,37.88-9.43,4.85,6.01,32.2-14.63,32.2-24.06,4.07,6.84,22.57-18.91,25.78-30.09,0,0-5.65,24.06,0,26.64-4.01,2.56-2.41,34.38,5.65,38.66-5.65,6.01-.8,36.93,6.45,39.52-4.85,6.01-5.65,38.66,4.85,48.11-4.85,12.91-3.21,33.54,3.21,36.96-3.21,6.01-1.58,33.54,8.86,33.54-7.23,4.28,0,30.93,8.09,29.2,0,0-3.24,5.14-2.44,11.18.8,6.87,4.07,14.63,8.89,18.05-4.07,1.69-5.65,21.47.77,24.92-4.85-.86-10.47,19.77-9.66,26.64-4.01,2.59-8.06,11.18-4.85,21.5-9.66-.89-21.74,18.02-19.33,28.34h-.8c-6.42-.86-22.54,7.73-28.99,13.74-15.31-10.29-20.16-4.28-47.52-12.01-27.42-7.73-50.79-46.42-104.76-5.14-45.94,34.38-33.07,83.38-24.21,103.13-4.01,6.01-10.44,25.75-10.44,55.84,0,25.78,24.18,58.43,33.04,71.34,10.47,13.74,16.95,22.3,16.95,32.65,0,8.59,16.89,9.43,16.89,0,0-12.01,3.24-17.16,16.12-36.96,13.68-19.77,24.98-48.95,24.18-79.04,0-16.33-9.66-19.77-4.85-32.65,7.26-18.05,2.44-24.95-.8-36.13,8.09-2.56,38.66,20.64,58.05,26.64,20.16,5.14,51.56,6.87,58.82-4.28,6.45,2.59,46.72-27.51,42.7-43.8,12.91,4.28,38.72-22.36,31.43-42.11,12.1,1.69,31.43-34.38,29.83-54.15,5.62.83,12.88-33.54,7.26-43Z"/>
    </g>
    <path id="path4" class="cls-9" d="M441.44,1705.68c5.65,6.01,8.89,17.99,12.91,25.72,4.85,8.53,7.26,17.1,4.01,26.52,8.09,0,20.99,23.97,26.64,30.81-1.64-7.7,1.58-17.13-.8-24.83-3.24-8.53-11.3-17.99-16.12-25.69-4.07-6.84-8.89-14.57-12.1-22.27-3.24-10.29,0-22.27-3.24-30.87l-11.3,20.61Z"/>
    <path id="path5" class="cls-9" d="M449.61,1566.33c8.89,7.73,0,18.91-1.64,27.54-2.44,13.77-1.64,13.77-14.63,18.05,10.56,3.45,12.19,9.49,12.19,21.5,0,8.62-1.64,22.39-11.36,24.98,16.21-7.73,5.68,16.35,5.68,20.64-.8,12.01,8.12,16.35-2.44,29.23,6.48-2.56,11.36-1.69,17.84-1.69-4.88-15.49-8.09-30.12-6.45-46.48,2.41-16.33,17.01-84.3,18.61-101.55l-17.81,7.79Z"/>
    <path id="path6" class="cls-9" d="M436.8,1395.2c2.44,9.49,8.92,8.62,14.57,12.91,4.07,2.59,8.92,8.59,12.13,12.01,11.33,12.01,11.33,30.93,9.75,47.25-2.44,18.91-5.68,35.27-4.88,54.18s-.8,36.93-7.26,55.84c-.8-9.43-16.21-12.01-23.52-12.01,11.36-4.28,14.57-3.45,17.84-13.74,1.64-6.04,1.64-28.4.8-34.38-1.64-7.73-4.07-6.04-11.33-3.45,18.61-8.62,16.21-57.57-4.88-42.11,5.68-8.62,17.84-9.49,21.86-19.8,1.64-3.39,1.64-12.01,0-15.46-3.21-6.01-5.65-3.45-11.33-4.28,8.92-12.01-8.89-15.46-7.26-27.51l-6.51-9.46Z"/>
    <path id="path7" class="cls-9" d="M497.1,1457.17c-13.68-3.45-14.51,24.95-14.51,34.38.8,7.73,1.64,12.91-.8,20.64-2.41,6.87-4.85,12.91-7.23,19.77-4.07-18.91-3.24-38.66-2.44-57.57.8-9.49,3.24-18.05,4.01-26.67.8-6.01-2.41-12.01,0-17.22l20.96,26.67Z"/>
    <path id="path8" class="cls-9" d="M883.82,1833.54c-8.09,2.56-16.12,5.14-24.21,8.59-8.86,4.28-16.95,3.45-26.61,5.14-7.26.86-14.51.86-21.77.86s-9.66-3.39-13.74-9.43c5.65,6.87,27.45,2.59,33.1-4.28,7.23,12.88,28.99,1.69,33.84-7.73,8.09,5.14,10.53-5.17,16.18-8.59,4.85-3.45,16.95-6.87,14.51-14.63,12.1,3.45,17.75-18.05,12.1-26.64,12.91-6.87,15.31-17.22,13.68-32.68,8.09-3.45,11.3-27.51,4.07-32.68,5.65-8.59,0-19.77.77-29.2l8.89-.89,2.41,65.36-12.88,36.93-9.66,20.64-30.69,29.23Z"/>
    <path id="path9" class="cls-9" d="M851.65,1427.11c6.45-4.28,21.74-17.22,29.83-7.73,6.42,6.84,4.79,24.92-3.24,29.2,8.06,3.45,8.06,13.77,8.86,21.47.8,7.73,3.24,16.35-3.21,21.5,5.65-.86,8.86,35.24,4.01,40.38,6.45-1.69,8.06,18.05,8.06,23.19,0,7.73-.8,15.46-4.01,22.36,9.66,3.39,8.86,30.9,4.85,37.79,2.44-6.87,9.66,11.18,10.47,13.74,1.58,6.04,3.21,14.63-.8,20.64,8.86-3.45,17.72,22.3,12.88,29.2,10.44,8.59,13.68,20.61,10.44,33.48,12.88-5.14,4.85-25.75,4.07-36.93-.8-18.02-7.26-36.93-12.1-54.09-11.24-42.11-17.72-84.21-20.93-128.04-1.58-18.88-4.01-40.38-.8-59.29.8-9.43.8-18.02,2.44-27.51,1.58-8.59,5.62-16.33,6.42-24.92.8-10.29.8-22.3-.8-31.79-.77-5.14-2.41-18.02-8.06-18.91,5.65,16.35-7.23,28.4-12.88,40.41-4.85,9.43-10.44,33.48-22.54,34.35,0,3.45-3.21,8.59-4.79,12.01l-8.15,9.49Z"/>
    <path id="path10" class="cls-8" d="M571.53,1808.65c-2.44,0-3.24,2.59-2.44,5.14,0,2.59,2.44,4.28,4.85,3.45,1.64,0,3.21.86,6.45,4.28,5.65,4.28,12.88,11.15,24.15,6.87,9.66-3.45,16.12-6.04,19.33-8.59,0,0,5.65-3.45,6.45-5.17.77-2.56.77-5.14-1.64-6.01-3.21-1.69-5.65,0-8.86,1.69-3.21,2.59-8.86,6.04-17.72,9.49-7.23,1.69-11.3-1.75-16.09-6.04-4.04-3.42-8.89-7.7-14.48-5.11Z"/>
    <path id="path11" class="cls-10" d="M573.67,1817.28c-2.44.86-4.85-.86-4.85-3.45-.8-2.56,0-5.14,2.41-5.14,0,0-13.68,4.28-25.75,0s-37.05-26.64-42.7-32.68c-5.62-6.01-16.09-25.75-22.51-29.2-7.26-2.59-17.72-30.09-16.12-37.82.8-6.87-1.58-23.19-4.85-28.34-2.41-6.04-4.01-26.64-.8-30.93,3.24-5.17,3.24-17.22,2.44-21.5,0-5.14,3.21-22.36,4.85-25.78,1.58-3.45,4.01-5.14,4.01-11.18,0-6.87-1.64-24.06,4.85-30.93,5.65-7.73,2.41-12.88,1.58-19.77-1.58-6.87,0-13.77,3.24-24.06,3.21-9.49-4.85-20.64-1.64-31.79,2.44-12.07,2.44-26.64,1.64-36.13-.8-6.01-1.64-16.33-2.44-22.36-4.85-.86-9.66-3.45-14.45-6.87l4.79,12.07c1.64,8.59,1.64,19.77,1.64,30.03,0,6.87-2.41,14.63-2.41,19.8-.8,6.84,0,14.57,0,22.3-.8,6.04-.8,11.18-.8,13.77s-2.44,12.01-3.21,21.5c-.8,12.88.77,26.64-.8,32.65-.8,3.45-5.65,12.88-6.45,21.5-1.64,6.87.8,13.74-.8,20.61-.8,7.73-2.41,14.63-2.41,18.91-.8,5.14-2.44,16.33-3.21,26.64-.8,11.18-4.07,20.61-3.24,25.78.8,3.45,4.01,8.59,4.01,12.01,1.64,10.32,3.24,21.47,8.09,30.09,6.42,11.18,9.63,23.19,15.28,27.51,3.21,1.69,6.45,12.88,12.88,22.36,4.01,5.14,8.86,6.84,12.88,12.88,4.01,5.14,8.09,9.49,11.3,12.88,14.51,14.63,45.08,23.19,56.35,19.8,6.45-.89,8.06-3.45,8.06-5.17h-.83Z"/>
    <path id="path12" class="cls-10" d="M698.83,1793.99c20.16-4.28,37.05,3.45,49.93,12.01,12.88,9.49,22.51,15.46,34.61,18.91,12.07,4.28,13.65,14.63,28.16,18.02,49.9,5.17,63.58-11.15,72.44-20.61,9.66-8.59,16.89-6.84,24.15-17.16,6.45-10.29,8.06-18.02,13.68-27.51,5.65-10.29,6.42-29.2,9.66-41.21,3.21-12.01-.8-30.9-1.64-41.21-.8-11.18-2.41-25.75-4.85-36.07-3.21-10.29-8.86-19.77-12.07-30.9-3.21-11.18-6.42-27.51-9.66-37.82-2.41-10.29.8-28.34-.77-38.63-1.64-10.32-5.65-30.93-5.65-42.11s-5.65-30.03-4.85-37.79c.8-7.73-1.64-23.19,0-34.35.8-11.18,4.01-20.61,4.85-26.64,0-6.01,2.41-27.51,3.21-35.24.8-8.59,4.85-32.65,1.64-42.08h0v-5.14c5.62-3.45,4.85-24.92,3.21-29.2,1.64-.89-1.64,1.69,0,0h0s4.85,18.02,4.85,23.16c-.8,4.28.8,21.5.8,29.23-.8,6.84.77,22.3-.8,26.61-1.64,4.28-.8,19.77-1.64,24.92-.8,6.04-1.58,9.49-1.58,11.18s1.58,9.43,0,17.16c-.8,7.73-5.65,18.05-5.65,22.36s2.41,12.88,2.41,17.16,3.24,12.01,3.24,16.33,2.41,15.46,2.41,21.47c0,7.73.8,17.16.8,24.92,0,6.87,2.41,16.33,3.21,23.19.8,6.87,2.41,14.63,3.21,20.61.8,5.14,0,9.43,1.64,18.91,1.64,8.59,4.01,13.74,4.85,17.16.8,4.28,4.85,6.01,7.23,14.63,1.64,9.43-.8,12.01.8,17.16,1.64,5.14,4.85,11.18,6.42,18.02,1.64,6.87,4.85,27.51,4.85,33.48.8,6.04,3.21,15.46,2.44,22.36,0,7.73-.8,23.19-3.24,34.35-2.41,11.18-9.63,22.36-12.88,29.23-3.21,6.84-8.83,24.03-16.09,30.03-7.23,5.14-19.3,8.59-24.15,16.33-9.66,12.01-24.95,12.01-33.81,17.16-8.06,4.28-20.93,4.28-35.42,4.28s-21.74.86-28.16-9.43c-6.45-9.43-15.31-2.59-22.54-11.18-7.23-8.59-16.89-11.18-28.16-21.47-11.33-9.43-30.63-14.6-41.1-14.6Z"/>
    <path id="path13" class="cls-10" d="M879.81,1266.44c-.77,8.59-12.07,18.88-12.07,29.2-.8,10.32-3.21,15.46-6.45,22.36-2.41,7.73-1.58,15.43-5.62,25.75-3.24,9.43-4.01,18.91-9.66,24.06-6.45,5.14-8.86,10.32-12.88,16.33-3.24,6.87-6.45,21.5-10.47,27.51-4.85,5.14-8.86,11.18-8.86,11.18-14.51.86-25.78,13.74-29.83,19.77-7.23-1.75-23.34,5.14-28.96,12.88-7.26-3.45-28.19-3.45-37.05,4.28-6.45-4.28-25.78-1.69-36.25,1.69-4.85-1.69-24.18-6.01-36.25-3.39-7.26-3.45-29.83-2.59-33.04-4.28-3.24-1.75-11.3-8.62-18.53-10.32-8.06-1.69-16.89-3.45-22.54-10.32-6.45-7.73-23.34-34.35-34.64-36.07-4.01-6.01-12.88-12.88-26.55-18.88-4.01-6.04-19.33-20.64-29.77-24.95-3.24-5.14-10.47-12.88-23.34-14.57l-3.24-3.45c1.64,0,3.24-.86,4.85-1.75,3.24-1.69,7.26-4.28,9.66-6.84,8.09,3.45,27.39,18.88,30.63,20.61,4.01,1.69,13.68,9.43,16.09,12.01,2.44,3.45,12.07,7.73,16.89,10.29,4.85,2.59,11.3,10.32,13.68,12.91,1.64,2.56,15.31,24.06,20.16,26.61,5.65,2.59,13.68,10.32,16.89,13.77,3.24,2.56,17.72,2.56,24.98,5.14,6.42,2.59,16.09,13.77,24.18,13.77s14.45,0,22.54-.89c8.06,0,19.3,6.87,25.75,5.17,5.65-.89,6.45-1.75,16.09-4.28,8.89-2.59,17.75-.89,30.63-2.59,12.07-1.75,20.93-.86,28.96-5.14,8.89-4.28,20.96-.89,25.78-6.87,4.85-6.04,16.89-14.63,26.55-20.61,1.64-6.04,12.88-18.05,13.68-18.91,8.86-8.59,8.86-13.74,12.88-19.77,4.01-6.87,10.47-20.61,13.68-30.93,4.01-10.29,4.01-30.03,9.66-36.93,4.01-5.14,7.26-12.01,8.06-20.61,4.01-5.14,5.65-5.14,8.09-12.88,3.21-8.59,8.86-12.91,9.63-8.59-1.55.8-3.98,5.95-3.98,8.53Z"/>
    <path id="path14" class="cls-11" d="M682.42,1431.42c8.09-.86,16.12-6.01,24.21-7.73,7.23-.86,13.68,0,20.93-1.69,7.26-1.75,12.91-6.04,20.96-6.04,6.45-.86,12.88.86,18.53-2.59,5.65-3.45,11.3-6.87,16.95-10.32,6.45-3.45,8.06-6.04,15.31-6.04,7.23-.86,13.68-6.04,17.72-12.01,2.44-4.34,8.06-16.35,7.26-20.7-3.24.89-4.07,4.34-7.26,6.04-3.21,1.75-4.85,1.75-7.23,4.34-4.85,3.45-3.24,10.32-6.45,15.46-3.21,5.17-9.66,4.28-14.51,4.28-7.26,0-13.68,3.45-18.53,8.62-5.65,5.17-10.47,7.73-18.56,7.73s-15.31-3.45-22.54,2.59c-1.64,1.75-3.21,5.17-4.85,6.04-2.44,1.69-7.26.86-10.47.86-10.47,0-19.33,2.59-28.19,8.62l-3.3,2.53Z"/>
    <path id="path15" class="cls-11" d="M819.56,1377.27c9.63-15.46,19.3-30.93,24.92-48.14,4.01-11.18,4.85-23.25,10.44-33.54,2.41-6.04,4.85-11.21,7.23-17.22.8-3.45,9.63-12.91,7.23-16.35-5.62-6.04-29.74,12.07-28.93,18.91,4.01.89,8.86-4.28,11.24,3.45,1.64,3.45,0,9.49-1.58,12.91-.8,6.04-4.01,7.73-8.06,10.32-7.23,4.28-4.85,4.28-1.64,11.18,2.44,3.45,3.21,6.87.8,11.18-3.21,5.17-6.42,2.59-10.44,6.87-3.21,3.45-.8,6.87-1.64,12.07-.77,9.43-8.83,17.16-11.24,27.51l1.67.86Z"/>
    <path id="path16" class="cls-11" d="M663.86,1403.76c-4.85-1.75-10.47-.86-15.31.89-4.88,1.69-13.77,13.86-7.26,19.03,4.01-2.59,4.85-9.52,8.86-12.99,3.24-3.45,8.89-6.93,12.97-6.93h.74Z"/>
    <path id="path17" class="cls-11" d="M705.02,1399.51c-12.79-5.23-27.24,10.44-16,22.63-3.18-8.71,6.42-22.63,15.23-22.63h.77Z"/>
    <path id="path18" class="cls-11" d="M740.58,1391.81c-4.88.89-17.07.89-18.67,7.73-.8,3.39,1.64,7.7,2.44,11.09,0,3.45-.8,6.84,0,10.26,2.44-.86,7.32-5.95,10.56-7.7-11.36,0-6.48-21.38,1.64-19.66l4.04-1.72Z"/>
    <path id="path19" class="cls-11" d="M595.5,1407.27c4.07-11.18,19.45-12.07,27.54-7.73-9.69-2.59-16.18,1.69-24.29,6.04l-3.24,1.69Z"/>
    <path id="path20" class="cls-11" d="M556.81,1385.92c7.23-1.78,12.01-6.19,20.04-4.4,5.56.89,10.38,3.51,12.76,9.66-9.6-5.26-18.38-6.16-29.59-6.16l-3.21.89Z"/>
    <path id="path21" class="cls-11" d="M560.23,1469.15c.8-8.53,7.2-18.82,15.94-20.55,6.39-1.75,15.17,4.28,21.5,7.7,0,1.69-1.58,0-1.58,1.69-4.76-1.69-7.97-3.39-13.53-3.39-4.76-.86-12.73,2.56-15.94,6.01l-6.39,8.53Z"/>
    <path id="path22" class="cls-11" d="M602.1,1481.85c-3.21-7.64,0-21.26,7.97-22.96,5.62-.86,21.53.86,24.71,6.81-7.17.86-12.73-2.56-19.92-.86-3.98.86-11.95,4.25-12.76,9.37v7.64Z"/>
    <path id="path23" class="cls-11" d="M645.46,1488.96c0-9.43-3.24-18.88,6.45-23.16,5.62-3.45,20.1-3.45,24.95,1.75-9.66,1.69-29.83,0-28.99,17.16l-2.41,4.25Z"/>
    <path id="path24" class="cls-11" d="M688.99,1488.04c0-6.84-1.64-16.24,3.21-20.55,5.62-5.14,16.06-2.56,20.85.86-4.79.89-25.69-4.25-24.06,16.3,0,0,0,3.39,0,3.39Z"/>
    <path id="path25" class="cls-11" d="M725.98,1480.28c-6.42-17.87,11.21-27.24,24.83-17.87-7.2.86-28.81.86-24.83,13.62v4.25Z"/>
    <path id="path26" class="cls-11" d="M520.33,1441.62c.8-8.53,6.48-26.55,13.8-30.87,12.13-6.87,22.69,16.3,26.73,24.03-5.65-5.14-15.4-18.02-23.46-16.3-4.88.86-9.75,6.01-12.19,11.15l-4.88,11.98Z"/>
    <path id="path27" class="cls-11" d="M486.78,1418.42c-.8-11.98,10.44-28.28,21.65-31.67,6.42-1.75,12.85,3.39,16.83,12.85-12.01-12.85-30.42-1.72-36.07,9.43l-2.41,9.4Z"/>
    <path id="path28" class="cls-11" d="M458.45,1395.2c1.64-24.15,13.74-35.3,25.78-31.88,12.88,3.45,16.89,12.91,16.89,12.91-7.23-4.25-28.16-17.22-42.67,18.97Z"/>
    <path id="path29" class="cls-11" d="M434.3,1368.62c1.64-8.53,5.68-17.99,12.13-23.13,8.86-6.87,14.51-2.59,20.96,3.45-9.66-3.45-17.75,1.69-25.84,8.53l-7.26,11.15Z"/>
    <path id="path30" class="cls-11" d="M696.96,1801.1c-19.3,8.59-64.35,47.1-38.6,107.05-4.82-23.97.83-78.77,38.6-107.05Z"/>
    <path id="path31" class="cls-11" d="M656.61,1925.49c-7.26,20.61-7.26,45.53,0,64.44,7.23,18.88,39.4,48.95,41.01,77.26-1.58-32.59-22.51-59.23-32.95-79.87-10.5-20.61-11.33-44.63-8.06-61.82Z"/>
    <path id="path32" class="cls-11" d="M878.26,1788.73c-8.89,3.48-10.53,9.52-10.53,16.38l10.53-16.38Z"/>
    <path id="path33" class="cls-11" d="M861.4,1501.98c3.18-6.81,8.71-9.37,13.47-10.26-11.09.89-18.26,0-18.26,10.26s0,17.9,3.98,21.32c-.77-3.42-1.61-14.48.8-21.32Z"/>
    <path id="path34" class="cls-11" d="M855.69,1463.33c3.3-6.81,9.01-9.37,13.92-10.26-11.48.89-18.88,0-18.88,10.26s0,17.9,4.13,21.32c-.83-3.42-1.67-14.48.83-21.32Z"/>
    <path id="path35" class="cls-11" d="M867.17,1545.64c3.21-6.81,8.77-9.37,13.56-10.2-11.18.86-16.77-2.56-18.38,10.2-.8,10.2,0,17.87,3.98,21.26-.77-3.39-1.58-14.45.83-21.26Z"/>
    <path id="path36" class="cls-11" d="M873.33,1592.02c2.44-6.81,9.01-9.37,13.92-10.26-11.48.89-18.88,0-18.88,10.26s0,17.9,4.13,21.32c-1.67-3.42-1.67-14.48.83-21.32Z"/>
    <path id="path37" class="cls-11" d="M884.75,1621.05c-2.35,0-9.55,0-11.95,1.75-3.21,4.37,3.21,17.4,4.79,20.85-.8-3.45-2.41-8.65-2.41-12.99.8-5.23,3.98-6.1,7.97-7.85l1.61-1.75Z"/>
    <path id="path38" class="cls-11" d="M904.88,1652.92c-7.23,1.75-11.24,0-18.5,1.75-9.66,1.75-2.41,13.89-.8,19.92-5.62-12.1,3.21-17.34,12.88-19.03l6.42-2.65Z"/>
    <path id="path39" class="cls-11" d="M907.46,1683.14c-3.24,0-12.99-1.75-16.24.86-4.91,3.45,0,15.49,4.07,17.22-2.44-2.56-3.24-9.43-.8-12.88,2.44-2.59,10.56-5.17,13.8-5.17h-.83v-.03Z"/>
    <path id="path40" class="cls-11" d="M916.92,1715.76c-5.62.86-11.24-1.69-16.86-2.56q-4.01-.89-5.65,3.39c-.8,3.39-1.64,11.09.8,13.65,0-4.25,0-10.26,3.21-12.79,4.01-1.69,15.28,0,18.5,0v-1.69h0Z"/>
    <path id="path41" class="cls-11" d="M915.37,1747.69c-3.21-.86-7.26-1.69-10.53-3.36-2.44-.86-5.65-3.39-8.09-4.25-6.48-.86-8.92,16.06-8.12,21.11,1.64-4.22,1.64-11.81,5.68-15.2,4.07-1.67,11.33,0,14.57.86l6.48.83Z"/>
    <path id="path42" class="cls-11" d="M966.13,1725.93c-4.88-.86-11.42-4.34-15.49.89-4.91,6.87-1.64,16.38-3.24,24.18.77-12.07,5.68-26.76,18.73-25.07Z"/>
    <path id="path43" class="cls-11" d="M962.09,1683.2c-4.07.86-9.78-.89-13.02,2.56-4.91,5.95-.8,15.34.8,21.32-.8-4.25-1.64-13.65.8-17.9,2.47-3.42,7.37-4.28,11.42-5.98Z"/>
    <path id="path44" class="cls-11" d="M941.75,1667.47c.8-5.95-5.65-13.68-2.41-19.69,4.01-6.01,16.09-3.39,20.87-1.69-4.01,1.69-8.83,0-13.65,1.69-5.65,1.75-4.01,5.14-4.85,10.29v9.4h.03Z"/>
    <path id="path45" class="cls-11" d="M933.75,1631.57c-.8-3.39-.8-6.01-2.44-9.43-.8-1.69-3.24-5.14-3.24-6.87,1.64-5.14,13.8-6.87,17.01-5.14-3.21.86-7.26,0-9.69,3.45-1.64,2.56-3.24,9.43-2.44,12.01l.8,5.98Z"/>
    <path id="path46" class="cls-11" d="M920.91,1592.92c.8-5.11-2.44-11.15,0-15.4,2.41-5.14,9.63-6.87,13.65-6.01-7.23,1.69-13.65,8.53-13.65,17.13v4.28Z"/>
    <path id="path47" class="cls-11" d="M929.62,1525.77c-7.23,2.59-16.09,0-16.09,10.32,0,8.59,5.65,15.43,4.85,24.03-.8-3.39,0-6.84,0-11.15.8-3.45,0-6.04-.8-9.43-.77-6.87,3.24-11.18,8.86-12.88l3.18-.89Z"/>
    <path id="path48" class="cls-11" d="M922.51,1489.79c-4.76,0-7.94-.86-9.52,3.39-3.18,6.81,1.58,13.62,1.58,19.57,0-5.11-.77-8.5,1.58-14.45,2.41-5.08,2.41-5.95,6.36-8.5Z"/>
    <path id="path49" class="cls-11" d="M920.96,1457.14c-3.21,0-6.45-3.45-10.53-1.69-6.48,3.45-3.24,16.33-.8,21.47-1.64-11.15.8-18.91,11.33-19.77Z"/>
    <path id="path50" class="cls-11" d="M911.3,1418.6c4.79,6.81-.77,17.07-2.41,23.02,3.21-4.25,6.39-8.5,7.2-14.51,0-4.25-1.64-8.5,3.95-8.5-1.58-1.75-4.76-1.75-7.17-1.75l-1.58,1.75Z"/>
    <path id="path51" class="cls-11" d="M926.53,1385.74c-4.76,0-8.74-3.51-11.95,1.75-3.21,5.23.8,13.08-2.41,19.18,2.41-5.23,3.21-8.71,4.79-13.95,1.58-6.1,3.98-5.23,8.77-6.1l.8-.89Z"/>
    <path id="path52" class="cls-11" d="M927.45,1349.73c-3.18,0-7.17,0-9.52,3.45-1.64,3.45,0,11.18.77,15.43,0-5.14,1.58-16.3,7.97-17.13l.77-1.75Z"/>
    <path id="path53" class="cls-11" d="M481.64,1561.9c8.15,3.48,20.43-1.78,26.91,8.74-5.68-4.37-14.66-5.26-21.2-5.26l-5.71-3.48Z"/>
    <path id="path54" class="cls-11" d="M503.61,1606.74c-8.06-2.56-19.3-4.25-27.33-.86-8.03,3.39-8.86,17.87-3.21,23.82-2.41-15.31,4.01-22.96,19.3-22.96h11.24Z"/>
    <path id="path55" class="cls-11" d="M497.1,1646.11c-10.44,0-20.87-4.34-30.54,4.28-9.66,9.49,2.41,25.84,6.42,35.3-8.06-19.8-5.62-36.16,16.09-39.61h8.03v.03Z"/>
    <path id="path56" class="cls-11" d="M498.05,1690.93c-10.53-.89-27.54,8.59-25.9,20.61.8,6.84,5.68,17.16,9.75,22.3,4.01,5.14,8.89,6.87,9.69,13.74-1.64-11.98-11.33-20.61-12.13-32.59-1.64-11.18,7.26-17.22,16.21-22.36l2.38-1.69Z"/>
    <path id="path57" class="cls-11" d="M514.14,1757.8c2.44-11.18,14.54-24.95,25.01-26.64,10.47-.89,29.83,13.77,32.2,24.09-5.62-6.87-16.09-13.77-24.98-17.22-8.06-4.34-10.47,1.69-17.72,4.28l-14.51,15.49Z"/>
    <path id="path58" class="cls-11" d="M502.07,1523.18c-5.68-.86-12.22-1.75-16.33,4.34-4.1,5.23-2.44,13.89,1.64,19.92-2.44-10.38,0-10.38,4.91-17.34,4.1-6.04,2.44-6.04,9.78-7.76v.83Z"/>
    <path id="path59" class="cls-11" d="M507,1489.08c-5.68.86-10.56-2.59-15.43,0-6.54,3.39-5.68,13.65-3.24,18.76,2.44-10.2,4.88-13.65,13.8-17.9l4.88-.86Z"/>
    <path id="path60" class="cls-11" d="M450.39,1470.08c-5.62,3.48-11.24,2.59-13.65,10.38-2.44,8.65-.8,19.03,2.41,26.76,2.44-6.04-.8-15.49.8-22.42,2.41-6.93,4.85-9.52,10.44-13.8v-.92Z"/>
    <path id="path61" class="cls-11" d="M453.81,1513.7c-7.23,3.48-12.85,4.34-16.86,12.13-2.44,6.04-7.26,25.96-2.44,30.24.8-12.97,4.85-37.17,18.53-40.65l.77-1.72Z"/>
    <path id="path62" class="cls-11" d="M452.26,1572.37c-4.88-1.75-16.24-1.75-21.11,3.39-4.88,5.11-4.88,23.85-.8,29.83.8-9.37-1.64-17.07,4.07-24.71,2.44-4.25,8.12-8.5,13.8-7.64l4.04-.86Z"/>
    <path id="path63" class="cls-11" d="M444.2,1620.33c-6.45-1.75-11.3-1.75-16.18,4.34-4.88,6.07-4.88,17.34-.8,24.24-1.64-11.24,2.44-26.85,13.77-28.58h3.21Z"/>
    <path id="path64" class="cls-11" d="M439.27,1663.45c-6.42.89-10.47,0-13.68,6.84-4.07,8.5-4.88,19.6-.8,28.1,1.64-5.11,0-11.92,1.64-17.9,2.41-8.5,4.85-14.45,11.3-14.45l1.55-2.59Z"/>
    <path id="path65" class="cls-11" d="M444.17,1711.39c-19.45,8.62-8.12,34.38,1.58,46.42-4.01-8.59-14.54-39.52-1.58-45.53v-.89Z"/>
    <path id="path66" class="cls-11" d="M463.23,1763.07c-9.43,10.32-9.43,30.09,2.32,38.66-6.27-6.84-7.05-24.06-3.12-32.65l.8-6.01Z"/>
    <path id="path67" class="cls-11" d="M534.24,1360.11c4.91-1.75,13.89-2.62,17.93,2.62l-17.93-2.62Z"/>
    <path id="path68" class="cls-11" d="M888.79,1320.41c-4.01-2.59-12.07-3.48-16.12-1.75-2.41,1.75-4.85,4.34-5.65,6.93-.8,2.59-.8,9.49,0,12.07,2.44-3.45,2.44-8.62,4.07-11.21,3.21-4.34,8.06-6.93,12.07-6.93l5.62.89Z"/>
    <path id="path69" class="cls-11" d="M890.96,1290.41c-3.95-3.48-10.29-2.59-13.47,0-4.79,4.28-3.18,11.18-4.79,16.33,3.21-7.73,9.55-18.05,18.26-17.22v.89Z"/>
    <path id="path70" class="cls-11" d="M871.16,1352.41c-4.07-5.14-9.75-5.14-12.19.86-1.64,2.56-1.64,5.95-2.44,8.53-1.64,2.56-3.24,4.25-4.88,6.81,2.44,0,4.88,1.69,6.48,3.39-3.24-6.81,3.24-18.76,8.12-22.15l4.91,2.56Z"/>
    <path id="path71" class="cls-11" d="M848.53,1380.75c-3.21-3.48-7.23,1.69-8.83,3.45-4.01,4.28-4.01,9.43-4.85,14.63-.8,4.28-1.58,7.73-4.01,11.18-1.58,2.59-5.62,4.34-6.42,6.87,3.21-.86,5.65-4.28,9.63-5.14,3.21-.86,3.21,1.69,6.42,2.59-6.42-7.76-4.79-26.67,7.23-24.15-1.58-2.56,0-7.73,2.41-9.43h-1.58Z"/>
    <path id="path72" class="cls-11" d="M793.81,1441.62c1.64-.86,1.64-2.56,2.44-4.28,2.44-3.45,6.45-5.17,9.69-6.04,4.01-1.75,15.34-6.07,16.95.86-7.26-2.59-16.12.86-20.99,6.93l-8.09,2.53Z"/>
    <path id="path73" class="cls-9" d="M742.87,1892.09c4.85,8.62,2.44,14.63,0,24.95-2.44,11.18-4.07,12.88-.8,21.47.8,3.45,4.07,9.49,4.07,19.77.8,14.63-3.24,36.96-12.13,54.15-16.21,30.09-25.9,36.13-28.34,54.15,2.44-18.02,2.44-28.34,9.75-43.8,7.26-14.63,25.87-41.27,19.42-72.2-7.32-34.35.8-40.38-2.44-46.42-2.5-5.17,9.66-15.49,10.47-12.07Z"/>
    <path id="path74" class="cls-9" d="M732.56,1884.99c16.12-10.29,16.95-6.84,32.26.89,14.54,7.73,30.66,21.47,55.64,24.06,24.98,2.56,35.51,1.69,37.88-6.04,3.21-6.87,0-13.74,0-13.74,0,6.84-4.85,15.46-24.18,13.74-19.39-1.69-31.49-6.01-51.62-17.16-20.96-12.04-35.45-20.67-49.99-1.75Z"/>
    <path id="path75" class="cls-9" d="M866.16,1886.95c.8,6.01-2.44,16.24,5.65,11.98,4.85-1.75,11.24-7.73,15.31-11.98,8.86-9.43,15.28-17.99,9.66-31.7-.8,8.59-1.64,14.57-8.09,20.58-6.42,6.84-12.88,6.01-20.93,10.29l-1.61.83Z"/>
    <path id="path76" class="cls-9" d="M903.33,1848.86c2.44,4.34,2.44,9.49,8.12,8.62,4.85,0,8.09-5.17,11.3-8.62,3.24-5.14,16.18-21.53,7.26-26.73,3.24,11.21-9.66,25.01-20.19,25.01l-6.48,1.72Z"/>
    <path id="path77" class="cls-9" d="M932.47,1809.52c7.94,12.01,15.85-1.75,19.83-8.62,4.76-8.59,5.56-17.22,7.94-26.67-4.76,8.62-15.85,39.61-29.38,35.3h1.61Z"/>
    <path id="path78" class="cls-9" d="M970.92,1739.25c.77,6.87-3.24,33.42-15.31,24.03,7.26-1.75,8.86-6.01,12.07-11.98l3.24-12.04Z"/>
    <path id="path79" class="cls-9" d="M962.92,1657.27c.8,3.45,3.21,11.15,1.64,14.54-2.44,3.39-6.45,3.39-10.47,3.39,5.65-1.69,7.26-8.5,7.26-13.65l1.58-4.28Z"/>
    <path id="path80" class="cls-9" d="M945.17,1578.38c2.41,5.14,2.41,11.98,2.41,17.13,0,8.53-.77,6.01-8.06,7.7,7.26-2.56,4.85-11.09,7.26-17.1l-1.61-7.73Z"/>
    <path id="path81" class="cls-9" d="M953.2,1617.95c.86,4.25,3.33,10.2,1.67,14.45-2.47,2.56-5,1.69-9.16,2.56,5.83-2.56,7.49-7.64,7.49-13.62v-3.39Z"/>
    <path id="path82" class="cls-9" d="M937.11,1533.5c.77,6.87,8.59,33.42-6.27,29.17,6.27-4.28,3.95-13.74,5.5-20.58l.77-8.59Z"/>
    <path id="path83" class="cls-9" d="M936.9,1496.69c.77,6.81,0,23.82-10.38,22.96,7.2-3.39,8.77-13.62,9.55-20.43l.83-2.53Z"/>
    <path id="path84" class="cls-9" d="M932.41,1465.76c.77,3.48,4.64,18.26-1.55,17.4,2.32-5.23,1.55-12.19,1.55-17.4Z"/>
    <path id="path85" class="cls-9" d="M928.99,1313.84c5.56,10.26,2.41,19.66,0,24.74v-24.74Z"/>
    <path id="path86" class="cls-9" d="M929.08,1429.87c3.33,11.98,1.67,17.1-2.56,17.93l2.56-17.93Z"/>
    <path id="path87" class="cls-9" d="M795.98,1453.69c2.44,6.81.8,13.62,3.24,20.43,10.44-3.39,20.87-15.31,19.3-27.24-.8,5.11-7.23,21.26-13.68,16.18l-8.86-9.37Z"/>
    <path id="path88" class="cls-9" d="M831.55,1432.99v12.97c7.26-.86,14.54-17.25,13.77-25.07-1.64,5.23-4.07,14.69-10.53,10.41l-3.24,1.69Z"/>
    <path id="path89" class="cls-9" d="M762.2,1468.26c.8,6.07.8,11.3-2.44,16.5,4.88,1.69,17.75-2.62,22.57-5.23,8.06-5.23,5.65-10.44,4.85-19.98.8,7.85-4.01,18.26-12.1,19.09l-12.88-10.38Z"/>
    <path id="path90" class="cls-9" d="M726.04,1484.5c0,11.95,4.07,12.79,14.57,8.53,8.12-3.39,12.97-11.09,11.36-20.49,1.58,10.26-5.68,15.4-14.57,14.54l-11.36-2.59Z"/>
    <path id="path91" class="cls-9" d="M690.36,1489.85c-.8,11.24,1.64,12.1,12.99,10.41,11.36-2.62,11.36-7.82,11.36-19.95.8,11.3-4.07,19.06-14.63,15.61l-9.72-6.07Z"/>
    <path id="path92" class="cls-9" d="M647.15,1494.99c.8,8.59,16.12,9.43,21.77,6.87,8.86-4.28,8.09-13.74,7.26-24.06-1.64,10.32-4.85,18.91-16.12,18.91l-12.91-1.72Z"/>
    <path id="path93" class="cls-9" d="M606.03,1493.27c16.06,3.48,35.27,8.65,28.07-18.26,1.58,16.5-12.01,13.02-21.65,19.09l-6.42-.83Z"/>
    <path id="path94" class="cls-9" d="M564.87,1478.52c6.45,3.39,10.47,11.06,18.56,10.2,8.06-.86,8.06-11.06,8.06-19.57-4.85,16.18-9.66,14.45-20.96,11.06l-5.65-1.69Z"/>
    <path id="path95" class="cls-9" d="M525.26,1451.16c4.85,5.14,11.24,18.91,18.5,20.61,10.44,1.69,4.01-17.16,15.23-21.5-5.62,1.75-9.63,8.62-14.42,10.32-8.06,2.59-11.24-6.87-19.3-7.73,0,0,0-1.69,0-1.69Z"/>
    <path id="path96" class="cls-9" d="M489.07,1428.86c3.24,5.17,11.36,18.94,19.48,14.66,6.48-3.45.8-18.11,6.48-24.18-5.68,5.17-6.48,9.52-8.92,16.38-4.88,0-9.75-.86-13.8-3.45l-3.24-3.42Z"/>
    <path id="path97" class="cls-9" d="M461.84,1410.84c3.98,5.11,8.74,7.64,14.3,8.5,0-7.64-.8-13.62,3.95-20.43-5.53,4.25-8.71,17.87-17.46,10.2l-.8,1.72Z"/>
    <path id="path98" class="cls-9" d="M477.65,1428.83c2.41,10.29,4.85,19.72,12.1,27.45,4.01,5.14,17.72,16.33,8.86,23.16,5.65-3.39,12.91-.86,19.39.86.77-7.7-3.24-18.02-3.24-25.72-12.91,7.7-41.16-13.74-33.87-27.51l-3.24,1.75Z"/>
    <path id="path99" class="cls-9" d="M515.69,1491.72c2.44,5.14,4.01,15.4.8,20.49-4.01,7.64-11.3,1.69-19.39,0,10.53,3.39,16.18-6.01,17.75-15.34l.83-5.14Z"/>
    <path id="path100" class="cls-9" d="M518.13,1528.24c0,5.17,0,23.19-4.85,26.64-4.79,4.28-16.06-3.45-23.28-1.69,6.45-3.45,14.45-1.75,20.07-4.28,6.42-3.45,6.42-12.91,9.63-18.91l-1.58-1.75Z"/>
    <path id="path101" class="cls-9" d="M514.05,1577.42c.77,6.93,3.18,19.83-4.85,22.42-6.39,1.69-15.2-6.04-23.25-3.45,10.44-6.93,28.07,1.69,28.07-17.25v-1.72h.03Z"/>
    <path id="path102" class="cls-9" d="M513.19,1615.49c.8,4.28,5.56,23.13,0,25.69-.77,0-8.74-4.25-10.32-4.25-3.18-.86-8.74-.86-11.95-.86,3.98,0,11.95-.86,15.94-2.59,5.56-3.39,3.98-8.53,6.33-14.54v-3.45Z"/>
    <path id="path103" class="cls-9" d="M514.83,1654.77c0,7.82,2.41,23.4-5.56,25.99-2.41.89-9.63,0-12.79.89-4.01.86-8,1.75-12.01,3.45,6.42-2.59,14.42-7.76,20.04-10.38,7.2-4.34,7.97-9.55,10.38-19.06v-.89h-.06Z"/>
    <path id="path104" class="cls-9" d="M519.58,1697.68c1.64,6.07,13.74,15.58,13.74,21.65-.77,6.93-16.18,14.72-21.02,19.92,6.48-5.17,9.75-14.69,9.75-22.51s-5.68-13.86-4.88-20.82l2.41,1.75Z"/>
    <path id="path105" class="cls-9" d="M530.23,1789.86c7.26,13.74,25.78,13.74,37.85,12.88,8.86-.86,15.31-4.28,16.12-15.46.77-6.87-2.44-18.02-7.26-22.36,2.44,8.62,5.65,22.36-2.41,27.54-10.47,6.84-24.18,9.43-43.5-1.75l-.8-.83Z"/>
    <path id="path106" class="cls-9" d="M494.63,1832.74c8.12,11.15,25.13,19.72,38.09,18.88,9.69-.86,27.51-13.74,25.9-24.92-9.75,7.73-29.17-3.39-38.09-8.59,4.88,4.28,11.36,11.18,4.88,17.16-4.07,4.28-15.4,3.45-19.42-.86l-11.36-1.67Z"/>
    <path id="path107" class="cls-9" d="M491.63,1791.38c-7.26,5.14-10.53,15.43-11.3,23.97-3.24-9.4-.8-14.54,0-23.97.77-7.7-4.88-15.4-4.07-23.97,4.85,8.59,12.91,18.88,21.77,23.13l-6.39.83Z"/>
    <path id="path108" class="cls-4" d="M478.7,1557.02c13.74-1.69,29.08,1.67,37.11,10.05"/>
    <path id="path109" class="cls-4" d="M475.6,1599.82c10.53-.89,31.52,1.75,39.61,8.71"/>
    <path id="path110" class="cls-4" d="M471.59,1641.36c15.31-2.53,34.64-.8,46.72,8.33"/>
    <path id="path111" class="cls-4" d="M517.38,1688.67c-12.01-2.56-30.51-3.39-41.78,5.89"/>
    <path id="path112" class="cls-4" d="M541.5,1724.53c-16.06,5.17-32.92,26.64-33.72,34.35"/>
    <path id="path113" class="cls-3" d="M571.68,1808.8c-2.44,0-3.24,2.59-2.44,5.14,0,2.59,2.44,4.28,4.85,3.45,1.64,0,3.21.86,6.45,4.28,5.65,4.28,12.88,11.15,24.15,6.87,9.66-3.45,16.12-6.04,19.33-8.59,0,0,5.65-3.45,6.45-5.17.77-2.56.77-5.14-1.64-6.01-3.21-1.69-5.65,0-8.86,1.69-3.21,2.59-8.86,6.04-17.72,9.49-7.23,1.69-11.3-1.75-16.09-6.04-4.04-3.42-8.89-7.7-14.48-5.11"/>
    <path id="path114" class="cls-4" d="M463.56,1754.86c-6.48,5.92-12.19,10.94-12.99,21.02"/>
    <path id="path115" class="cls-4" d="M489.22,1800.03c-4.64,6.1-4.64,21.74-3.09,26.91"/>
    <path id="path116" class="cls-4" d="M428.26,1716.17c3.21-6.99,16-9.63,19.18-10.53"/>
    <path id="path117" class="cls-4" d="M424.87,1662.05c8.06-7.11,21.65-4.46,21.65-4.46"/>
    <path id="path118" class="cls-4" d="M427.04,1614.71c7.37-2.8,20.43.92,20.43.92"/>
    <path id="path119" class="cls-4" d="M432.93,1567.37c8.09-1.84,24.21,0,26.61,1.84"/>
    <path id="path120" class="cls-4" d="M436.95,1517.56c7.2-5.29,20.73-6.19,20.73-6.19"/>
    <path id="path121" class="cls-4" d="M494.78,1518.46c13.08-.89,26.91,4.37,26.91,4.37"/>
    <path id="path122" class="cls-4" d="M494.78,1484.77c6.42,0,21.71,0,25.69,4.34"/>
    <path id="path123" class="cls-4" d="M436.32,1471.77c7.94-6.81,18.26-5.95,19.8-5.95"/>
    <path id="path124" class="cls-3" d="M436.32,1386.07c4.85,16.33,9.63,24.03,19.3,21.47.77,11.15,19.27,19.72,27.27,19.72,0,13.74,14.45,26.55,34.49,24.86"/>
    <path id="path125" class="cls-4" d="M504.39,1380.84c-12.76,11.18-24.74,27.54-21.53,46.42"/>
    <path id="path126" class="cls-4" d="M535.94,1402.19c-10.41,6.87-27.24,37.74-18.41,48.89"/>
    <path id="path127" class="cls-4" d="M577.09,1440.22c-11.18,10.29-23.19,10.29-20.76,39.28"/>
    <path id="path128" class="cls-4" d="M602.16,1457.23c-4.79,9.52-8.06,20.73-5.62,37.11"/>
    <path id="path129" class="cls-4" d="M476.55,1357.61c-16.95,6.04-25.07,27.51-21.8,49.81"/>
    <path id="path130" class="cls-4" d="M497.28,1338.76c6.42-5.26,15.17-5.26,15.17-5.26"/>
    <path id="path131" class="cls-4" d="M527.91,1360.41c9.75-7.73,17.01-5.14,17.01-5.14"/>
    <path id="path132" class="cls-4" d="M556.99,1380.84c6.57-6.19,11.45-4.4,11.45-4.4"/>
    <path id="path133" class="cls-4" d="M602.76,1394.43c-7.05.89-9.4,6.07-11.75,12.99"/>
    <path id="path134" class="cls-4" d="M637.73,1399.69c-4.16,7.7-5.89,21.35-5.89,21.35"/>
    <path id="path135" class="cls-4" d="M677.01,1401.56c2.44,6.01,4.01,21.35,4.01,21.35"/>
    <path id="path136" class="cls-4" d="M681.88,1466.54c1.64,12.19,4.1,18.26-.86,35.56"/>
    <path id="path137" class="cls-4" d="M643.91,1464.04c-3.09,9.55-3.09,29.5-2.32,35.56"/>
    <path id="path138" class="cls-4" d="M716.62,1396.92c3.98,8.71,5.56,18.26,5.56,18.26"/>
    <path id="path139" class="cls-4" d="M718.85,1464.99c1.64,13.77,2.41,30.12-1.64,35.27"/>
    <path id="path140" class="cls-4" d="M755.9,1391.33c4.22,5.17,5.06,12.91,5.89,15.46"/>
    <path id="path141" class="cls-4" d="M755.99,1465.91c3.95,13.68,3.18,16.24-1.64,24.74"/>
    <path id="path142" class="cls-4" d="M791.17,1447.03c1.69,9.4,3.39,27.3.86,34.97"/>
    <path id="path143" class="cls-4" d="M787.45,1374.65c6.48,5.23,12.99,21.65,12.99,21.65"/>
    <path id="path144" class="cls-4" d="M825.36,1427.85c3.87,9.55.77,21.65-.77,30.33"/>
    <path id="path145" class="cls-3" d="M850.25,1427.23c4.85-4.28,14.45-14.57,13.65-23.19,11.21,1.75,22.42-26.64,22.42-36.07,11.24-7.73,16.86-30.93,15.23-39.55,5.62-3.45,4.85-24.92,3.21-29.23"/>
    <path id="path146" class="cls-4" d="M883.97,1284.61c12.85.89,19.27,8.65,21.65,16.38"/>
    <path id="path147" class="cls-4" d="M872.85,1313.99c10.53,1.69,25.07,5.03,29.08,14.24"/>
    <path id="path148" class="cls-4" d="M860.48,1342.15c14.63,1.75,25.19,15.4,25.99,24.74"/>
    <path id="path149" class="cls-4" d="M851.8,1377.42c6.45,6.01,12.07,14.51,12.07,28.16"/>
    <path id="path150" class="cls-4" d="M863.25,1409.92c9.63-1.55,20.82-.77,23.19,0"/>
    <path id="path151" class="cls-4" d="M850.25,1453.84c8.09-4.34,37.08-3.45,38.66-3.45"/>
    <path id="path152" class="cls-4" d="M855.22,1491.9c6.39-2.8,32.71-1.84,35.89-1.84"/>
    <path id="path153" class="cls-4" d="M863.25,1532.22c5.62.8,26.41,0,32.8-1.67"/>
    <path id="path154" class="cls-4" d="M903.48,1451.04c7.23,0,24.92,1.78,29.71,5.26"/>
    <path id="path155" class="cls-4" d="M906.57,1412.39c9.69,0,24.21,5.26,26.61,10.53"/>
    <path id="path156" class="cls-4" d="M915.55,1378.96c8.06.89,20.1,7.11,20.1,7.11"/>
    <path id="path157" class="cls-4" d="M914.6,1347.41c8.15-3.72,17.93-.92,17.93-.92"/>
    <path id="path158" class="cls-4" d="M916.47,1306.26c5.62-2.17,15.17,0,15.17,0"/>
    <path id="path159" class="cls-4" d="M937.83,1520.03s-15.97,5.89-23.19,4.22"/>
    <path id="path160" class="cls-4" d="M915.55,1486.49c8.06-1.69,21.65,1.69,21.65,1.69"/>
    <path id="path161" class="cls-4" d="M866.96,1579.42c7.32,1.58,24.35,0,30-2.44"/>
    <path id="path162" class="cls-4" d="M919.57,1569.84c8.89-.86,19.39-2.62,22.57-5.26"/>
    <path id="path163" class="cls-4" d="M870.38,1617.06c8.09,1.67,28.28-2.53,33.1-4.22"/>
    <path id="path164" class="cls-4" d="M929.14,1608.53c8.89-1.69,16.95-3.39,22.57-1.69"/>
    <path id="path165" class="cls-4" d="M879.33,1650.6c5.68,1.55,27.51-.77,29.08-1.55"/>
    <path id="path166" class="cls-4" d="M936.28,1641.95c4.91-.86,17.9-4.34,21.98-.86"/>
    <path id="path167" class="cls-4" d="M887.39,1679.84c5.65,0,25.78.77,30.63-.77"/>
    <path id="path168" class="cls-4" d="M947.73,1679.98c8.86,0,18.53-.92,20.1,0"/>
    <path id="path169" class="cls-4" d="M893.87,1709.07c8.83,2.47,25.6,4.94,32.8,4.13"/>
    <path id="path170" class="cls-4" d="M951.74,1719.3c8.06,3.51,21.65,5.26,21.65,5.26"/>
    <path id="path171" class="cls-4" d="M893.87,1734.13c6.39,4.16,21.5,10.82,27.83,10.02"/>
    <path id="path172" class="cls-4" d="M945.23,1760.42c8.12,3.63,16.21,9.9,21.02,7.23"/>
    <path id="path173" class="cls-4" d="M884.92,1760.42c4.01,8.74,13.62,13.11,19.18,14.84"/>
    <path id="path174" class="cls-4" d="M894.5,1843.95c4.07,7.76,8.92,12.97,10.53,20.73"/>
    <path id="path175" class="cls-4" d="M923.58,1809.61c6.33,4.34,12.7,12.07,12.7,12.07"/>
    <path id="path176" class="cls-4" d="M860.48,1885.11c3.39,6.87,3.39,18.88,1.69,22.27"/>
    <path id="path177" class="cls-3" d="M727.74,1897.18c6.48-7.73,8.92-11.18,19.48-12.07"/>
    <path id="path178" class="cls-4" d="M430.43,1412.39c4.91,11.18,13.86,14.63,21.98,15.46"/>
    <path id="path179" class="cls-5" d="M573.67,1817.28c-2.44.86-4.85-.86-4.85-3.45-.8-2.56,0-5.14,2.41-5.14,0,0-13.68,4.28-25.75,0s-37.05-26.64-42.7-32.68c-5.62-6.01-16.09-25.75-22.51-29.2-7.26-2.59-17.72-30.09-16.12-37.82.8-6.87-1.58-23.19-4.85-28.34-2.41-6.04-4.01-26.64-.8-30.93,3.24-5.17,3.24-17.22,2.44-21.5,0-5.14,3.21-22.36,4.85-25.78,1.58-3.45,4.01-5.14,4.01-11.18,0-6.87-1.64-24.06,4.85-30.93,5.65-7.73,2.41-12.88,1.58-19.77-1.58-6.87,0-13.77,3.24-24.06,3.21-9.49-4.85-20.64-1.64-31.79,2.44-12.07,2.44-26.64,1.64-36.13-.8-6.01-1.64-16.33-2.44-22.36-4.85-.86-9.66-3.45-14.45-6.87l4.79,12.07c1.64,8.59,1.64,19.77,1.64,30.03,0,6.87-2.41,14.63-2.41,19.8-.8,6.84,0,14.57,0,22.3-.8,6.04-.8,11.18-.8,13.77s-2.44,12.01-3.21,21.5c-.8,12.88.77,26.64-.8,32.65-.8,3.45-5.65,12.88-6.45,21.5-1.64,6.87.8,13.74-.8,20.61-.8,7.73-2.41,14.63-2.41,18.91-.8,5.14-2.44,16.33-3.21,26.64-.8,11.18-4.07,20.61-3.24,25.78.8,3.45,4.01,8.59,4.01,12.01,1.64,10.32,3.24,21.47,8.09,30.09,6.42,11.18,9.63,23.19,15.28,27.51,3.21,1.69,6.45,12.88,12.88,22.36,4.01,5.14,8.86,6.84,12.88,12.88,4.01,5.14,8.09,9.49,11.3,12.88,14.51,14.63,45.08,23.19,56.35,19.8,6.45-.89,8.06-3.45,8.06-5.17h-.83"/>
    <path id="path180" class="cls-4" d="M831.7,1823.22c-5.56,5.26,0,19.18,0,19.18"/>
    <path id="path181" class="cls-3" d="M654.44,1910.17c4.07,10.41,10.53,17.34,10.53,17.34"/>
    <path id="path182" class="cls-4" d="M879.96,1782.1c1.67,5.23,4.1,10.41,8.98,12.99"/>
    <path id="path183" class="cls-5" d="M698.83,1793.99c20.16-4.28,37.05,3.45,49.93,12.01,12.88,9.49,22.51,15.46,34.61,18.91,12.07,4.28,13.65,14.63,28.16,18.02,49.9,5.17,63.58-11.15,72.44-20.61,9.66-8.59,16.89-6.84,24.15-17.16,6.45-10.29,8.06-18.02,13.68-27.51,5.65-10.29,6.42-29.2,9.66-41.21,3.21-12.01-.8-30.9-1.64-41.21-.8-11.18-2.41-25.75-4.85-36.07-3.21-10.29-8.86-19.77-12.07-30.9-3.21-11.18-6.42-27.51-9.66-37.82-2.41-10.29.8-28.34-.77-38.63-1.64-10.32-5.65-30.93-5.65-42.11s-5.65-30.03-4.85-37.79c.8-7.73-1.64-23.19,0-34.35.8-11.18,4.01-20.61,4.85-26.64,0-6.01,2.41-27.51,3.21-35.24.8-8.59,4.85-32.65,1.64-42.08h0v-5.14c5.62-3.45,4.85-24.92,3.21-29.2,1.64-.89-1.64,1.69,0,0h0s4.85,18.02,4.85,23.16c-.8,4.28.8,21.5.8,29.23-.8,6.84.77,22.3-.8,26.61-1.64,4.28-.8,19.77-1.64,24.92-.8,6.04-1.58,9.49-1.58,11.18s1.58,9.43,0,17.16c-.8,7.73-5.65,18.05-5.65,22.36s2.41,12.88,2.41,17.16,3.24,12.01,3.24,16.33,2.41,15.46,2.41,21.47c0,7.73.8,17.16.8,24.92,0,6.87,2.41,16.33,3.21,23.19.8,6.87,2.41,14.63,3.21,20.61.8,5.14,0,9.43,1.64,18.91,1.64,8.59,4.01,13.74,4.85,17.16.8,4.28,4.85,6.01,7.23,14.63,1.64,9.43-.8,12.01.8,17.16,1.64,5.14,4.85,11.18,6.42,18.02,1.64,6.87,4.85,27.51,4.85,33.48.8,6.04,3.21,15.46,2.44,22.36,0,7.73-.8,23.19-3.24,34.35-2.41,11.18-9.63,22.36-12.88,29.23-3.21,6.84-8.83,24.03-16.09,30.03-7.23,5.14-19.3,8.59-24.15,16.33-9.66,12.01-24.95,12.01-33.81,17.16-8.06,4.28-20.93,4.28-35.42,4.28s-21.74.86-28.16-9.43c-6.45-9.43-15.31-2.59-22.54-11.18-7.23-8.59-16.89-11.18-28.16-21.47-11.33-9.43-30.63-14.6-41.1-14.6"/>
    <path id="path184" class="cls-4" d="M860.48,1811.48c0,5.03,4.22,7.49,5.89,10.82"/>
    <path id="path185" class="cls-4" d="M803.54,1352.32c8.92-.89,17.07,2.68,19.48,5.29"/>
    <path id="path186" class="cls-4" d="M820.25,1325.76c12.97-4.01,21.02-.77,21.02-.77"/>
    <path id="path187" class="cls-4" d="M850.25,1297.49s-6.39-1.75-19.18,2.59"/>
    <path id="path188" class="cls-4" d="M886.47,1373.11c3.36-.92,5.89-.92,5.89-.92"/>
    <path id="path189" class="cls-4" d="M847.16,1414.56c2.32,2.53,4.64,9.99,2.32,13.29"/>
    <g class="cls-7">
      <path id="path190" class="cls-3" d="M973.66,1724.83c4.01-7.73,2.41-36.96-5.65-44.69,4.01-5.14.8-35.24-10.47-38.66,3.21-2.59,4.85-26.64-5.65-34.38,2.41-10.29-2.44-40.38-9.66-41.21,6.45-6.87,0-36.13-4.01-45.56,3.21-2.59,4.85-29.23-.8-31.79,4.85-7.73-1.64-26.64-4.01-31.82,4.85-6.01,3.21-21.47,0-33.48,4.85,0,9.66-28.4,2.41-36.96,7.26-6.01,5.65-37.82-3.21-39.52,5.65-7.73,6.45-32.68-.8-40.41,4.01-11.15-13.68-42.97-24.18-48.95-10.47-5.17-18.53-.86-22.57-.86-8.86-1.75-16.09-3.45-29.83,4.28-22.54,11.18-25.78,32.65-23.34,40.38-4.85,0-17.72,18.05-11.3,25.78-8.06,0-17.72,13.74-16.89,25.75-8.09,3.45-16.95,13.77-15.31,23.19-9.66-2.56-24.98,10.32-30.63,16.35-11.3-8.62-37.08-.89-41.1,5.14-8.06-6.87-37.08-.86-38.66,5.14-11.3-7.73-27.42-6.84-39.49-.86-2.44-7.73-28.22-12.88-34.64-6.01-8.09-12.07-25.78-22.36-33.87-18.91-.77-6.87-16.09-20.64-25.75-21.5-7.26-9.43-20.16-23.19-31.43-21.47-14.51-18.05-38.66-11.18-41.93-9.49-2.41,2.59-7.23,7.73-12.07,9.49-10.47,3.39-21.77,12.01-26.61,27.51-4.85,14.57-10.47,35.24,0,53.26-6.54,11.15-5.74,49.81,3.93,57.54-8.83,11.18-3.18,33.54.83,45.56-9.66,8.59-9.66,42.97-4.85,49.84-11.3,7.73-10.47,33.54-4.85,47.25-11.3,11.18-10.47,36.13-2.44,47.25-8.86,12.07-10.47,44.69,3.24,54.15-3.24,23.19,10.47,51.59,22.54,60.19-2.41,17.16,14.51,49.84,35.48,49.84,4.01,16.33,37.08,42.97,58.82,30.09,16.95-11.18,15.31-18.05,21.77-28.4,2.44-3.45,5.65-6.84,8.86-10.29h-1.58c-2.44.86-4.85-.89-4.85-3.45-.8-2.59,0-5.17,2.41-5.17,3.21-1.69,6.45-.86,9.66.89,3.21-6.04,7.26-12.91,8.86-23.19,3.24-23.19-31.4-58.43-48.35-61.88-7.26-10.32-16.12-28.4-24.98-36.13,8.86-16.33,1.64-38.66,1.64-38.66,1.58-16.33,2.41-26.64-3.24-41.21,7.26-12.01,6.45-32.68,0-42.11,6.45-9.49,9.66-32.68,6.45-43.86,2.44-11.15,3.21-20.61-.8-33.48,8.09-9.49,0-30.09-3.21-37.82,5.65,8.59,16.12,27.51,38.66,28.34,19.33,17.22,24.98,12.91,41.1,14.63,4.85,11.18,36.28,12.01,44.31,5.14,4.85,7.73,31.43,14.63,39.49,2.59,4.01,2.59,28.19,9.49,36.28-1.69,6.45,2.56,29.83,4.28,37.05-9.49,8.09,2.59,28.22,0,37.88-9.43,4.85,6.01,32.2-14.63,32.2-24.06,4.07,6.84,22.57-18.91,25.78-30.09,0,0-5.65,24.06,0,26.64-4.01,2.56-2.41,34.38,5.65,38.66-5.65,6.01-.8,36.93,6.45,39.52-4.85,6.01-5.65,38.66,4.85,48.11-4.85,12.91-3.21,33.54,3.21,36.96-3.21,6.01-1.58,33.54,8.86,33.54-7.23,4.28,0,30.93,8.09,29.2,0,0-3.24,5.14-2.44,11.18.8,6.87,4.07,14.63,8.89,18.05-4.07,1.69-5.65,21.47.77,24.92-4.85-.86-10.47,19.77-9.66,26.64-4.01,2.59-8.06,11.18-4.85,21.5-9.66-.89-21.74,18.02-19.33,28.34h-.8c-6.42-.86-22.54,7.73-28.99,13.74-15.31-10.29-20.16-4.28-47.52-12.01-27.42-7.73-50.79-46.42-104.76-5.14-45.94,34.38-33.07,83.38-24.21,103.13-4.01,6.01-10.44,25.75-10.44,55.84,0,25.78,24.18,58.43,33.04,71.34,10.47,13.74,16.95,22.3,16.95,32.65,0,8.59,16.89,9.43,16.89,0,0-12.01,3.24-17.16,16.12-36.96,13.68-19.77,24.98-48.95,24.18-79.04,0-16.33-9.66-19.77-4.85-32.65,7.26-18.05,2.44-24.95-.8-36.13,8.09-2.56,38.66,20.64,58.05,26.64,20.16,5.14,51.56,6.87,58.82-4.28,6.45,2.59,46.72-27.51,42.7-43.8,12.91,4.28,38.72-22.36,31.43-42.11,12.1,1.69,31.43-34.38,29.83-54.15,5.65.83,12.88-33.54,7.26-42.97"/>
    </g>
    <path id="path191" class="cls-5" d="M879.81,1266.44c-.77,8.59-12.07,18.88-12.07,29.2-.8,10.32-3.21,15.46-6.45,22.36-2.41,7.73-1.58,15.43-5.62,25.75-3.24,9.43-4.01,18.91-9.66,24.06-6.45,5.14-8.86,10.32-12.88,16.33-3.24,6.87-6.45,21.5-10.47,27.51-4.85,5.14-8.86,11.18-8.86,11.18-14.51.86-25.78,13.74-29.83,19.77-7.23-1.75-23.34,5.14-28.96,12.88-7.26-3.45-28.19-3.45-37.05,4.28-6.45-4.28-25.78-1.69-36.25,1.69-4.85-1.69-24.18-6.01-36.25-3.39-7.26-3.45-29.83-2.59-33.04-4.28-3.24-1.75-11.3-8.62-18.53-10.32-8.06-1.69-16.89-3.45-22.54-10.32-6.45-7.73-23.34-34.35-34.64-36.07-4.01-6.01-12.88-12.88-26.55-18.88-4.01-6.04-19.33-20.64-29.77-24.95-3.24-5.14-10.47-12.88-23.34-14.57l-3.24-3.45c1.64,0,3.24-.86,4.85-1.75,3.24-1.69,7.26-4.28,9.66-6.84,8.09,3.45,27.39,18.88,30.63,20.61,4.01,1.69,13.68,9.43,16.09,12.01,2.44,3.45,12.07,7.73,16.89,10.29,4.85,2.59,11.3,10.32,13.68,12.91,1.64,2.56,15.31,24.06,20.16,26.61,5.65,2.59,13.68,10.32,16.89,13.77,3.24,2.56,17.72,2.56,24.98,5.14,6.42,2.59,16.09,13.77,24.18,13.77s14.45,0,22.54-.89c8.06,0,19.3,6.87,25.75,5.17,5.65-.89,6.45-1.75,16.09-4.28,8.89-2.59,17.75-.89,30.63-2.59,12.07-1.75,20.93-.86,28.96-5.14,8.89-4.28,20.96-.89,25.78-6.87,4.85-6.04,16.89-14.63,26.55-20.61,1.64-6.04,12.88-18.05,13.68-18.91,8.86-8.59,8.86-13.74,12.88-19.77,4.01-6.87,10.47-20.61,13.68-30.93,4.01-10.29,4.01-30.03,9.66-36.93,4.01-5.14,7.26-12.01,8.06-20.61,4.01-5.14,5.65-5.14,8.09-12.88,3.21-8.59,8.86-12.91,9.63-8.59-1.55.8-3.98,5.95-3.98,8.53"/>
    <path id="path192" class="cls-3" d="M905.89,1300.99c2.56-7.76.86-21.59-.86-25.07"/>
    <path id="path193" class="cls-3" d="M907.2,1290.79c3.39-5.38,9.28-8.98,9.28-8.98"/>
    <path id="path194" class="cls-2" d="M758.34,1404.57c3.18.86,7.94-2.56,7.17-6.87-3.18,0-7.17,2.59-10.38,3.45"/>
    <path id="path195" class="cls-2" d="M797.05,1393.65c3.18-2.62,6.33-5.26,5.56-9.66-3.18-1.78-7.17.89-10.38,2.62"/>
    <path id="path196" class="cls-2" d="M819.56,1361.81c1.64-4.28,4.07-7.73,4.88-12.01-4.07-3.45-9.78,5.17-11.45,7.73"/>
    <path id="path197" class="cls-2" d="M839.61,1322.2c-1.64.89-2.47,2.62-2.47,4.34"/>
    <path id="path198" class="cls-2" d="M863.1,1345.39c2.35-11.15,10.2-6.01,7.08,3.39"/>
    <path id="path199" class="cls-2" d="M877.64,1311.08c-1.69.89-2.56,3.51-3.39,5.26"/>
    <path id="path200" class="cls-2" d="M888.7,1281.01c-4.88,9.4,4.07,10.26,5.65-.89"/>
    <path id="path201" class="cls-2" d="M908.89,1279.2c-2.35,0-4.73,0-7.11,1.55"/>
    <path id="path202" class="cls-2" d="M918.56,1311.13c-1.64-3.45-1.64-9.4,2.44-10.29,2.44,4.28,1.64,9.43,1.64,14.54"/>
    <path id="path203" class="cls-2" d="M916.92,1342.63c.92,3.63,0,7.23,0,9.9"/>
    <path id="path204" class="cls-2" d="M918.5,1376.35c-.77,1.69-1.55,4.22-.77,5.89"/>
    <path id="path205" class="cls-2" d="M905.71,1449.5c-1.58,1.67-2.41,4.16-1.58,6.66,3.95-.8,3.95-5.83,6.3-8.36"/>
    <path id="path206" class="cls-2" d="M882.9,1486.49c0,4.16-.62,7.49-.62,10.82"/>
    <path id="path207" class="cls-2" d="M887.12,1527.62c0,2.62,3.21,11.3-.8,12.13-4.07.86-6.48-8.65-5.68-11.24"/>
    <path id="path208" class="cls-2" d="M918.5,1488.04c0-2.62,0-4.4.92-6.19"/>
    <path id="path209" class="cls-2" d="M922.54,1572.16c-1.58-2.47-.77-5.83.8-8.36,1.55,2.53,3.9,5.89,6.27,7.55"/>
    <path id="path210" class="cls-2" d="M906.42,1652c-1.58-9.28-9.6-5.89-4.79,0"/>
    <path id="path211" class="cls-2" d="M913.77,1676.12c-.86,3.6,0,7.2,2.56,8.98"/>
    <path id="path212" class="cls-2" d="M924.21,1708.92c0,3.39-.77,6.81.77,10.2"/>
    <path id="path213" class="cls-2" d="M952.22,1722.54c1.69-.86,2.56-2.56,3.39-3.39"/>
    <path id="path214" class="cls-2" d="M951.59,1682.3c.62-2.62.62-4.4.62-6.19"/>
    <path id="path215" class="cls-2" d="M938.48,1639.19c-.8,1.75-.8,3.45,0,5.14,5.68.86,5.68-6.01,4.88-10.29"/>
    <path id="path216" class="cls-2" d="M931.46,1605.58v5.26"/>
    <path id="path217" class="cls-2" d="M917.66,1745.73c1.58-2.56,2.35-5.14.8-7.73-3.18.89-4.76,4.34-5.56,7.73"/>
    <path id="path218" class="cls-2" d="M944.16,1763.84c1.69-1.69,5.03-7.58,8.36-5.89,2.47,1.67-.86,8.39-1.67,10.05"/>
    <path id="path219" class="cls-2" d="M922.51,1813.71c4.07-11.06,12.99,0,3.24,5.95"/>
    <path id="path220" class="cls-2" d="M899.79,1776.66c7.23-8.53-5.62-11.15-8.86-3.39"/>
    <path id="path221" class="cls-2" d="M883.82,1796.46c.86-4.25,5.03-5.11,8.36-6.81"/>
    <path id="path222" class="cls-2" d="M863.1,1822.15c1.58-2.56,3.98-6.01,7.11-7.73"/>
    <path id="path223" class="cls-2" d="M894.35,1847.52c2.56-1.78,4.22-4.46,5.89-7.11"/>
    <path id="path224" class="cls-2" d="M859.71,1890.22c1.67,0,3.33-.77,4.94-1.55"/>
    <path id="path225" class="cls-2" d="M732.23,1896.41c-4.01-.86-4.01-5.14-3.21-7.73,2.44,0,5.65,0,7.23,2.59"/>
    <path id="path226" class="cls-2" d="M660.77,1926.41c3.33-1.67,4.94-5.89,7.43-9.28"/>
    <path id="path227" class="cls-2" d="M477.21,1695.3c0-3.51-.8-7.88.8-11.45,2.41,2.68,4.85,6.19,6.42,9.69"/>
    <path id="path228" class="cls-2" d="M472.99,1641.89c.8-2.59,1.58-6.07,3.98-7.85,1.58,2.62,3.12,6.1,3.12,9.6"/>
    <path id="path229" class="cls-2" d="M477,1604.04c.86-3.45.86-6.93,4.13-8.65,1.67,1.75,2.47,3.48,3.3,6.96"/>
    <path id="path230" class="cls-2" d="M482.5,1555.12c-.86,2.59-.86,5.14,1.64,6.84,3.33-1.69,4.94-6.84,3.33-11.15"/>
    <path id="path231" class="cls-2" d="M499.6,1516.49c-.62.86-.62,1.69-.62,3.39"/>
    <path id="path232" class="cls-2" d="M498.98,1481.23c0,2.56,0,4.22.62,5.89"/>
    <path id="path233" class="cls-2" d="M457.52,1764.11c-3.09-13.11-13.29,6.07-.77,5.23"/>
    <path id="path234" class="cls-2" d="M490.74,1801.81c-3.95-5.95-6.3-.86-3.12,3.39,1.55,2.56,7.05,1.69,3.9,5.95-.77,1.69-6.27.86-7.08,0"/>
    <path id="path235" class="cls-2" d="M602.61,1460.8c-1.46,0-2.94,0-3.72-2.17"/>
    <path id="path236" class="cls-2" d="M640.67,1467.31c2.44,0,4.07,0,6.48-.92"/>
    <path id="path237" class="cls-2" d="M684.2,1468.53c-4.13,0-5.8,4.16-4.13,7.55,1.67.8,4.13,0,5.77-1.67"/>
    <path id="path238" class="cls-2" d="M720.51,1465.76c-.8,2.59-4.07,2.59-3.24,6.04,1.64.86,3.24,1.69,5.68,0"/>
    <path id="path239" class="cls-2" d="M753.58,1470.08c2.32,0,3.87-.92,4.64-2.8"/>
    <path id="path240" class="cls-2" d="M795.3,1449.35c-10.47.86-6.45,9.28,1.58,3.39"/>
    <path id="path241" class="cls-2" d="M826.61,1430.47c0,.92-.77,1.84-1.55,1.84"/>
    <path id="path242" class="cls-2" d="M849.18,1415c-.68,1.75-1.43,3.48-2.17,4.34"/>
    <path id="path243" class="cls-2" d="M855.69,1377.27c-1.69.86-2.56,2.47-3.39,4.94"/>
    <path id="path244" class="cls-2" d="M722.95,1411.61h-4.94"/>
    <path id="path245" class="cls-2" d="M683.46,1421.04c-2.47.86-7.43,1.69-9.1-1.69,1.67-3.45,9.9-2.59,8.27-7.73"/>
    <path id="path246" class="cls-2" d="M634.9,1419.35c-3.21,0-6.42-.8-7.23-4.22,2.44-2.53,6.42-.86,8.83-2.53,4.79-4.25-3.21-5.11-7.2-5.95"/>
    <path id="path247" class="cls-2" d="M593.95,1406.65c-2.47,0-4.1-.92-4.94-3.72"/>
    <path id="path248" class="cls-2" d="M558.98,1376.35c0,2.47,1.67,4.13,4.94,4.94"/>
    <path id="path249" class="cls-2" d="M534.87,1406.5c-4.67-7.58-10.2,4.16-1.55,3.36"/>
    <path id="path250" class="cls-2" d="M576.94,1443.37c-2.35-2.68-5.5-2.68-8.65-1.78.8,2.68,3.18,5.32,6.3,6.21"/>
    <path id="path251" class="cls-2" d="M473.61,1360.05c-4.76-10.32-12.7,3.45-2.35,5.14"/>
    <path id="path252" class="cls-2" d="M439.89,1385.92c-2.35.86-4.76,3.36-5.56,5.89"/>
    <path id="path253" class="cls-2" d="M448.81,1425.32c-.8,2.59,1.58,8.53-3.24,8.53-5.68-.86-4.88-11.09-2.44-14.54"/>
    <path id="path254" class="cls-2" d="M496.18,1334.27c1.67,4.22,7.43,2.56,9.9,5.89"/>
    <path id="path255" class="cls-2" d="M530.23,1355.62c2.44,1.78,4.07,3.51,6.48,5.26"/>
    <path id="path256" class="cls-2" d="M511.88,1757.18c-11.36-2.59-1.64-14.84,1.64-6.1"/>
    <path id="path257" class="cls-2" d="M437.48,1706.12c.8,1.75,2.41,5.23.8,6.96-4.01,6.96-5.65-4.34-6.45-6.96"/>
    <path id="path258" class="cls-2" d="M439.27,1660.66v-7.73"/>
    <path id="path259" class="cls-6" d="M883.05,1413.16c-.77-2.53-.77-4.16.77-5.89"/>
    <path id="path260" class="cls-6" d="M886.32,1453.69c-.62-1.75-.62-3.48,0-5.26"/>
    <path id="path261" class="cls-6" d="M901.78,1614.56c0,.92-.92.92-1.84.92,0-.92-.92-2.8-.92-3.72"/>
    <path id="path262" class="cls-6" d="M456.9,1513.7c-.77-1.64-1.55-3.3-1.55-4.94"/>
    <path id="path263" class="cls-6" d="M454.43,1463.89c-.77.86-1.55,2.56-.77,3.39"/>
    <path id="path264" class="cls-6" d="M444.2,1617.95c.77-2.68.77-5.32,1.55-7.11"/>
    <path id="path265" class="cls-6" d="M455.98,1570.61c.86-2.59,1.69-6.04,3.39-8.65"/>
    <path id="path266" class="cls-2" d="M505.46,1383.3c-5.68-2.62-8.92,0-3.24,4.4-3.24,3.48-6.48.86-9.75-.89"/>
  </g>
</svg>