<?xml version="1.0" encoding="UTF-8"?>
<svg id="svg3" xmlns="http://www.w3.org/2000/svg" xmlns:xlink="http://www.w3.org/1999/xlink" viewBox="0 0 1398.49 3639.87">
  <defs>
    <style>
      .cls-1 {
        fill: #9c717a;
      }

      .cls-1, .cls-2, .cls-3, .cls-4, .cls-5 {
        fill-rule: evenodd;
      }

      .cls-2 {
        fill: #7d4453;
      }

      .cls-6 {
        clip-path: url(#clippath-4);
      }

      .cls-3 {
        fill: #57152d;
      }

      .cls-4 {
        fill: #fff;
      }

      .cls-7, .cls-8 {
        fill: none;
      }

      .cls-9 {
        clip-path: url(#clippath-1);
      }

      .cls-10 {
        clip-path: url(#clippath-5);
      }

      .cls-5 {
        fill: #b39198;
      }

      .cls-11 {
        clip-path: url(#clippath-3);
      }

      .cls-8 {
        stroke: #1a171b;
        stroke-linecap: round;
        stroke-linejoin: round;
        stroke-width: 1.34px;
      }

      .cls-12 {
        clip-path: url(#clippath-2);
      }

      .cls-13 {
        clip-path: url(#clippath);
      }
    </style>
    <clipPath id="clippath">
      <rect class="cls-7" x="479.01" y="1081.52" width="361.47" height="299.76"/>
    </clipPath>
    <clipPath id="clippath-1">
      <rect class="cls-7" x="479.01" y="1081.52" width="361.47" height="299.76"/>
    </clipPath>
    <clipPath id="clippath-2">
      <rect class="cls-7" x="479.01" y="1081.52" width="361.47" height="299.76"/>
    </clipPath>
    <clipPath id="clippath-3">
      <rect class="cls-7" x="479.01" y="1081.52" width="361.47" height="299.76"/>
    </clipPath>
    <clipPath id="clippath-4">
      <rect class="cls-7" x="479.01" y="1081.52" width="361.47" height="299.76"/>
    </clipPath>
    <clipPath id="clippath-5">
      <rect class="cls-7" x="479.01" y="1081.52" width="361.47" height="299.76"/>
    </clipPath>
  </defs>
  <g id="_간" data-name="간">
    <g class="cls-13">
      <path id="path2" class="cls-2" d="M552.24,1361.61c27.09-20.83,28.99-34.28,46-47.02,16.37-12.78,27.09-24.18,48.5-43,15.76-14.12,42.23-27.53,49.14-37.63,27.09,2.03,40.98-17.47,78.13-44.33,8.2-6.05,23.93-11.44,30.88-18.82,23.32-24.85,38.42-33.58,32.76-38.97-7.56-7.38-30.88,18.15-62.39,30.9-31.51,12.78-35.27,10.77-58.58,14.12-22.68,2.68-28.36,2.01-43.48,10.77-15.12,9.39-34.03,22.82-50.41,33.58-17.01,10.06-28.98,0-50.41,15.46-21.41,15.46-25.2,45.01-26.45,59.77-1.25,14.79-19.53,26.88-31.51,40.33-15.76,16.13-25.84,28.2-16.37,38.26,6.96,8.09,27.12,7.42,54.2-13.39Z"/>
    </g>
    <g class="cls-9">
      <path id="path3" class="cls-1" d="M514.42,1336.69c11.97-13.45,30.24-25.52,31.51-40.31s5.06-44.34,26.47-59.78c21.43-15.47,33.4-5.38,50.41-15.47,16.37-10.73,35.28-24.18,50.41-33.58,15.12-8.72,20.78-8.05,43.48-10.77,23.32-3.35,27.09-1.34,58.6-14.12,31.51-12.74,54.81-38.3,62.39-30.9h.63c-1.25-14.12-24.57-17.47-51.66-24.18-17.62-4.04-40.94-8.05-54.2-4.04-5.66,1.36-11.35,4.04-17.01,3.37-24.57-4.04-121.61-39.66-180.21-16.13-34.03,13.45-46.64,48.36-52.31,91.37-6.94,56.43,2.52,90.71,3.79,110.19,1.27,18.15-8.81,66.52,11.35,82.62-9.48-10.06.6-22.17,16.34-38.28Z"/>
    </g>
    <g class="cls-12">
      <path id="path4" class="cls-4" d="M642.97,1098.25c-22.67-7.38-83.12-16.81-112.73,2.01-28.98,18.82-38.42,57.1-40.94,99.42,4.42-21.48,11.97-82.62,47.25-97.41,34.63-15.44,71.15-10.73,106.42-4.02Z"/>
    </g>
    <path id="path5" class="cls-5" d="M547.96,1112.26c-36.52,16.83-44.08,60.54-46.58,86.11-2.52,24.89-1.9,88.14-6.94,107.63,1.9-14.79-7.56-63.89-5.04-106.28,2.52-42.41,14.47-79.4,43.46-98.24,29.61-18.84,99.49-10.1,121.52-2.01-13.22-2.7-71.15-3.37-106.42,12.78Z"/>
    <path id="path6" class="cls-5" d="M795.97,1116.49c-16.36-6.7-42.18-10.05-51.62-10.05-11.95.67-21.4,4.69-24.55,12.73-3.15,8.02-10.7,20.73-18.89,30.1-8.2,9.36-13.85,16.06-15.76,22.07,8.81-9.36,25.2-19.39,32.76-32.11,7.54-12.71,23.3-34.79,78.06-22.74Z"/>
    <path id="path7" class="cls-4" d="M698.99,1151.97c8.21-10.77,14.51-24.87,20.18-34.3,5.66-8.72,17.01-14.8,38.42-10.77-12.6-.67-27.72,0-36.54,12.8-8.81,14.79-16.37,27.58-22.07,32.27Z"/>
    <g class="cls-11">
      <path id="path8" class="cls-3" d="M513.71,1375.15c-6.31,2.68-15.12,2.68-18.91-4.04-3.79-6.03,1.27-14.08,5.06-19.48,10.06-14.12,23.92-24.18,35.27-36.29,3.79-4.04,6.31-8.05,8.2-12.78,1.89-3.35,1.25-7.38,2.52-11.4,1.89-4.71,5.04-2.7,6.91,1.34,2.52,5.38,1.27,12.11-1.25,17.47-7.56,14.79-21.41,24.87-32.76,36.29-5.66,6.05-19.53,19.49-6.29,21.5,11.32,2.01,26.45-6.72,34.63-14.79,4.41-4.04,17.62-22.17,21.41-26.88,4.41-5.36,8.2-10.06,13.22-14.08,5.04-3.37,10.72-6.72,14.51-11.44,14.47-16.8,66.15-48.36,69.9-49.72l-.63,1.36c-13.85,10.06-45.98,36.25-54.8,46.35-5.66,4.69-10.06,10.73-15.76,15.46-5.66,5.38-13.22,10.73-18.26,16.8-11.35,14.12-24.57,28.89-40.33,37.63-6.29,3.37-43.46,18.14-40.92.67l18.29,6.03Z"/>
    </g>
    <path id="path9" class="cls-3" d="M801.1,1173.58c12.6-15.47,30.88-27.57,33.38-32.29,5.04-7.38.63-10.77-1.89-9.39,1.89,2.68-17.66,24.2-28.98,31.58-11.35,7.38-17.03,9.39-35.28,22.86-14.51,10.73-37.82,26.88-48.5,30.24-10.72,3.35-18.28-8.76-16.37-22.19,1.89-13.45,22.67-3.37,50.39-12.78,27.72-9.43,53.56-31.58,60.49-38.32,3.79-2.7,8.2-7.42,9.46-8.76-11.97,6.72-28.36,20.16-48.5,28.23-31.51,12.78-35.28,10.77-58.6,14.12-17.62,2.01-25.2,2.01-35.28,6.72-1.25.67-2.5,2.03-2.5,3.37-.65,6.05,5.04,15.46,5.04,20.83.63,14.8,6.94,25.54,19.53,25.54,4.41,0,10.06-3.35,15.76-4.02,15.1-6.72,29.61-21.52,54.8-39.67,6.91-5.32,18.89-10.72,27.07-16.07Z"/>
    <path id="path10" class="cls-3" d="M678.24,1205.21c1.25,4.71,1.25,10.1,3.15,14.79,1.89,4.71,5.66,8.72,4.41,14.12-.63,4.69-6.94,8.72-10.72,11.4-5.66,4.04-13.25,10.73-20.18,12.07,8.21-3.35,21.43-14.75,23.34-24.16,1.9-8.72-5.04-18.14-1.25-26.86l1.25-1.36Z"/>
    <path id="path11" class="cls-3" d="M671.23,1191.04c-4.41,1.34-9.45,4.02-12.6,6.72-9.45,7.38-22.01,16.13-32.11,21.5-5.66,2.68-8.16,4.69-13.84,6.05-.65.67-1.9.67-2.52.67-1.25,0-2.52.67-3.79.67-2.5,0-4.41.67-6.29,1.34l.63-1.34c-8.2.67-17.01,2.01-28.32,10.06-21.4,15.46-25.17,45.03-26.45,59.82-.63,6.72-4.39,12.78-9.45,18.81,5.06-.67,11.35-2.68,15.12-8.72,8.81-14.12,28.32-16.13,36.5-32.92,8.2-16.8-1.89-30.23,12.6-35.62,8.2-3.35,17.01-7.38,24.55-10.06,5.04-2.68,10.06-5.38,14.47-8.72,4.41-3.37,8.2-7.38,12.6-10.77,5.04-3.35,11.95-12.78,18.26-8.05,5.04,4.04,2.5,15.46,7.54,18.82.63-6.72-.63-15.47-1.89-22.19-.62-3.37-.62-6.73-5.02-6.05Z"/>
    <path id="path12" class="cls-2" d="M712.29,1111.01c0,8.09-5.04,21.5-18.26,34.95-13.25,13.45-19.56,28.22-17.66,36.29-5.06-10.73,3.15-26.19,10.72-35.62,12.62-16.8,23.95-19.48,25.2-35.62Z"/>
    <path id="path13" class="cls-2" d="M714.88,1171.34c16.37-4,23.92,0,44.68-8,15.74-6.68,27.05-16.02,40.27-21.34,13.2-4.67,21.4-11.35,25.15-13.36-10.7,1.34-15.74,5.34-26.42,8.69-10.7,3.33-19.49,6.01-27.05,12.65-7.54,6.01-13.84,8.69-26.42,12.02-12.57,4-27.67,6.68-30.21,9.34Z"/>
    <path id="path14" class="cls-3" d="M757.59,1196.4c3.15-3.35,3.79-8.71,6.31-12.74,2.52-4.69,6.94-9.39,10.1-12.74,7.56-8.05,18.91-12.74,28.98-14.08,4.41,0,13.22-.69,7.56,5.36-3.79,4.71-10.1,7.38-15.12,10.06-11.97,6.72-22.68,14.79-34.03,22.82l-3.79,1.32Z"/>
    <path id="path15" class="cls-1" d="M704.7,1205.78c3.15,7.44,7.54,23.63,44.61-6.1-9.43,6.1-37.7,22.31-44.61,6.1Z"/>
    <path id="path16" class="cls-5" d="M532.17,1309.29c5.66-5.36,6.94-13.45,12.58-36.96,5.66-22.86,16.36-50.41,58.48-49.74-16.34-1.34-33.33-3.37-44.63,8.72-11.95,11.44-11.95,15.47-16.36,37.65-4.42,22.19-5.04,33.61-10.08,40.33Z"/>
    <g class="cls-6">
      <path id="path17" class="cls-8" d="M552.24,1361.61c27.09-20.83,28.99-34.28,46-47.02,16.37-12.78,27.09-24.18,48.5-43,15.76-14.12,42.23-27.53,49.14-37.63,27.09,2.03,40.98-17.47,78.13-44.33,8.2-6.05,23.93-11.44,30.88-18.82,23.32-24.85,38.42-33.58,32.76-38.97-7.56-7.38-30.88,18.15-62.39,30.9-31.51,12.78-35.27,10.77-58.58,14.12-22.68,2.68-28.36,2.01-43.48,10.77-15.12,9.39-34.03,22.82-50.41,33.58-17.01,10.06-28.98,0-50.41,15.46-21.41,15.46-25.2,45.01-26.45,59.77-1.25,14.79-19.53,26.88-31.51,40.33-15.76,16.13-25.84,28.2-16.37,38.26,6.96,8.09,27.12,7.42,54.2-13.39"/>
    </g>
    <g class="cls-10">
      <path id="path18" class="cls-8" d="M514.42,1336.69c11.97-13.45,30.24-25.52,31.51-40.31s5.06-44.34,26.47-59.78c21.43-15.47,33.4-5.38,50.41-15.47,16.37-10.73,35.28-24.18,50.41-33.58,15.12-8.72,20.78-8.05,43.48-10.77,23.32-3.35,27.09-1.34,58.6-14.12,31.51-12.74,54.81-38.3,62.39-30.9h.63c-1.25-14.12-24.57-17.47-51.66-24.18-17.62-4.04-40.94-8.05-54.2-4.04-5.66,1.36-11.35,4.04-17.01,3.37-24.57-4.04-121.61-39.66-180.21-16.13-34.03,13.45-46.64,48.36-52.31,91.37-6.94,56.43,2.52,90.71,3.79,110.19,1.27,18.15-8.81,66.52,11.35,82.62-9.48-10.06.6-22.17,16.34-38.28"/>
    </g>
    <path id="path19" class="cls-8" d="M711.73,1111.01c3.15,10.73-12.69,28.85-24.09,44.27-11.4,15.42-12.69,24.82-11.4,28.16"/>
    <path id="path20" class="cls-8" d="M675.83,1185.51c8.81,5.41,5.04,42.51,22.65,47.89"/>
  </g>
</svg>