<?xml version="1.0" encoding="UTF-8"?>
<svg id="svg3" xmlns="http://www.w3.org/2000/svg" xmlns:xlink="http://www.w3.org/1999/xlink" viewBox="0 0 1398.49 3639.87">
  <defs>
    <style>
      .cls-1 {
        fill: #d7aab8;
      }

      .cls-1, .cls-2, .cls-3, .cls-4, .cls-5 {
        fill-rule: evenodd;
      }

      .cls-6 {
        stroke: #fff;
      }

      .cls-6, .cls-7, .cls-8, .cls-9, .cls-10, .cls-11 {
        fill: none;
      }

      .cls-6, .cls-7, .cls-9 {
        stroke-miterlimit: 8;
        stroke-width: 1.66px;
      }

      .cls-7 {
        stroke: #e1c0ca;
      }

      .cls-8 {
        stroke: #333;
      }

      .cls-8, .cls-10 {
        stroke-linecap: round;
        stroke-linejoin: round;
        stroke-width: .84px;
      }

      .cls-9 {
        stroke: #d7aab8;
      }

      .cls-10 {
        stroke: #8b576c;
      }

      .cls-2 {
        fill: #fff;
      }

      .cls-12 {
        clip-path: url(#clippath-1);
      }

      .cls-3 {
        fill: #e1c0ca;
      }

      .cls-13 {
        clip-path: url(#clippath-3);
      }

      .cls-14 {
        clip-path: url(#clippath-2);
      }

      .cls-4 {
        fill: #c6869e;
      }

      .cls-15 {
        clip-path: url(#clippath);
      }

      .cls-5 {
        fill: #b6cfe4;
      }
    </style>
    <clipPath id="clippath">
      <rect class="cls-11" x="410.51" y="622.41" width="584.41" height="554.7"/>
    </clipPath>
    <clipPath id="clippath-1">
      <rect class="cls-11" x="410.51" y="622.41" width="584.41" height="554.7"/>
    </clipPath>
    <clipPath id="clippath-2">
      <rect class="cls-11" x="410.51" y="622.41" width="584.41" height="554.7"/>
    </clipPath>
    <clipPath id="clippath-3">
      <rect class="cls-11" x="410.51" y="622.41" width="584.41" height="554.7"/>
    </clipPath>
  </defs>
  <g id="_오른쪽_폐" data-name="오른쪽 폐">
    <g class="cls-15">
      <path id="path2" class="cls-3" d="M872.08,708.79c34.95,34.92,64.71,83.37,78.1,109.55,12.64,25.39,17.12,42.86,17.86,53.17,7.43,5.58,11.9,46.85,12.64,58.75,0,0,1.49,3.96,2.96,7.14,17.12,38.88,8.2,173.05,1.49,204.82-5.96,28.55-21.59-.8-89.28-11.92-1.49,0-2.24-1.57-3.73-1.57s-2.98.77-4.47.77c-6.68-.77-12.64-1.57-20.07-1.57-90.77-5.53-128.7-63.5-141.34-87.32-13.39-23.03-11.92-71.47-8.92-94.47,0,0-.75-7.92-1.49-26.19-1.49-40.47,10.43-93.67,23.8-129.39-18.58-87.32,11.92-130.19,43.92-135.76,31.25-4.78,53.53,18.25,88.53,53.99Z"/>
    </g>
    <path id="path23" class="cls-5" d="M729.91,890.65c-8.97,2.36-15.7,3.96-13.47,11.85,2.24,7.92,13.47,0,18.71-1.57,5.24-1.59,12.75-2.36,10.48-8.69-2.24-7.14-6.73-3.98-15.73-1.59Z"/>
    <path id="path102" class="cls-8" d="M745.54,892.35c-2.26-7.12-6.76-3.96-15.73-1.59-8.97,2.36-15.7,3.96-13.47,11.85,2.24,7.92,13.47,0,18.71-1.57,5.24-1.59,12.75-2.36,10.48-8.69"/>
    <g class="cls-12">
      <path id="path127" class="cls-3" d="M872.08,708.79c34.95,34.92,64.71,83.37,78.1,109.55,12.64,25.39,17.12,42.86,17.86,53.17,7.43,5.58,11.9,46.85,12.64,58.75,0,0,1.49,3.96,2.96,7.14,17.12,38.88,8.2,173.05,1.49,204.82-5.96,28.55-21.59-.8-89.28-11.92-1.49,0-2.24-1.57-3.73-1.57s-2.98.77-4.47.77c-6.68-.77-12.64-1.57-20.07-1.57-90.77-5.53-128.7-63.5-141.34-87.32-13.39-23.03-11.92-71.47-8.92-94.47,0,0-.75-7.92-1.49-26.19-1.49-40.47,10.43-93.67,23.8-129.39-18.58-87.32,11.92-130.19,43.92-135.76,31.25-4.78,53.53,18.25,88.53,53.99Z"/>
    </g>
    <path id="path128" class="cls-6" d="M717.35,931.02c-2.24-40.42,9.61-105.47,23.72-141.96"/>
    <path id="path130" class="cls-1" d="M744,1067.61c2.96,18.3-2.96,69.98,64.01,77.94,64.73,7.97,147.35,15.88,167.45,8.74-11.15,0-33.49-15.88-79.64-23.85-1.52,0-2.24-1.57-3.73-1.57s-2.98.77-4.47.77c-6.71-.77-12.64-1.57-20.1-1.57-64.71-3.96-102.64-34.98-123.53-60.47Z"/>
    <path id="path132" class="cls-2" d="M805.13,663.76c49.93,16.63,123.71,120.4,138.62,155.24-45.46-78.38-123.74-143.35-138.62-155.24Z"/>
    <path id="path135" class="cls-2" d="M870.64,931.08c-20.84,7.14-77.33,7.94-88.48,8.71-11.18.8-37.19,3.96-49.08,6.32,5.94-2.36,25.24-8.69,41.61-9.48,16.4-.77,60.24-2.34,84.78-7.12,24.52-4.75,65.43-18.19,80.31-25.31-14.11,10.28-48.36,19.79-69.13,26.88Z"/>
    <path id="path136" class="cls-2" d="M977.85,1000.9c-2.26,21.46-32.77,108.78-75.12,124.64,52.04-14.29,75.84-104.8,75.12-124.64Z"/>
    <path id="path139" class="cls-1" d="M752.17,721.53c-12.54-8.74,0-26.19,2.21-36.49-9.59,9.53-12.54,26.19-14.01,39.65-2.96,15.86-4.42,37.24,2.21,51.5,6.6-17.42.72-38.83,11.02-54.66,0,0-1.44,0-1.44,0Z"/>
    <path id="path140" class="cls-1" d="M980.14,949.42c0,34.13-20.89,152.39-91.82,178.55,56.72-24.59,87.32-144.42,91.82-178.55Z"/>
    <path id="path141" class="cls-1" d="M758.08,1065.94c-32.77-33.41-37.98-73.14-38.73-87.48,1.49,29.42-.75,58.05,34.98,93.82,35.75,35.77,69.23,44.54,93.82,47.7-11.9,0-57.33-20.66-90.07-54.04Z"/>
    <path id="path142" class="cls-1" d="M904.89,905.56c-10.43,3.21-35,9.59-57.36,13.57-13.41,2.42-26.83,3.19-33.54,3.98-40.22,2.42-61.8,9.61-78.95,16.76,33.51-10.36,77.48-7.94,100.58-10.36,23.08-3.19,46.18-11.15,65.56-17.55,19.38-7.17,38.75-12.75,51.42-21.54-5.24,3.24-31.3,10.41-47.72,15.14Z"/>
    <path id="path143" class="cls-1" d="M741.79,823.89c5.91-22.23,12.57-50.86,12.57-76.27-1.49,19.86-9.59,38.93-16.24,62.76-8.84,32.56-17.71,72.29-16.96,111.99-2.93-16.65,15.47-77.04,20.64-98.48Z"/>
    <path id="path144" class="cls-1" d="M779.9,934.21c-11.9.8-23.08-1.59-34.98.8-5.22,1.59-11.18,5.55-17.14,2.39-12.64-6.35-3.73-42.89-4.47-55.61-.77,24.64,23.05,55.61,47.62,46.87l8.97,5.55Z"/>
    <path id="path145" class="cls-1" d="M979.21,1129.65c-5.94,3.96-8.17,11.1-17.09,9.53-7.4-.8-8.15-5.58-13.36-9.53-7.4-6.35-10.36.8-20.04,0-7.4-.77-13.34-5.55-20.02-.77,14.83-.8,33.38,8.71,47.49,14.29,15.6,6.32,25.26,6.32,24.52-14.29l-1.49.77Z"/>
    <path id="path148" class="cls-1" d="M759,933.26l-29.06-6.32-6.68-26.08,6.68-50.63,10.46-24.54c-2.24,11.85-10.43,43.51,10.43,71.18,20.87,26.88,59.59,26.11,80.46,22.92l-72.29,13.47Z"/>
    <path id="path151" class="cls-4" d="M955.65,1153.34c-2.24,4.81-38.21,1.62-41.99-3.21,13.49-5.6-5.99-12-10.48-14.42,6.73-2.42,22.49,4.81,29.99,7.2,8.25,2.42,19.51,9.64,27.01,10.43h-4.52Z"/>
    <path id="path152" class="cls-4" d="M767.25,1096.19c-5.24-10.33-10.48-1.59-9.74,3.96.75,8.74,4.47,17.45,7.48,25.39-6.76-6.35-11.98-21.41-14.98-30.14-2.24-7.17-2.98-13.52-2.24-20.66,6.73,6.35,13.49,14.31,21,20.66l-1.52.8Z"/>
    <g class="cls-14">
      <path id="path153" class="cls-8" d="M783.42,654.9c31.25-4.78,53.56,18.27,88.53,53.99,34.95,34.92,64.71,83.37,78.1,109.55,12.64,25.39,17.12,42.86,17.86,53.17,7.43,5.58,11.9,46.85,12.64,58.75,0,0,1.49,3.96,2.96,7.14,17.12,38.88,8.2,173.05,1.49,204.82-5.96,28.55-21.59-.8-89.28-11.92-1.49,0-2.24-1.57-3.73-1.57s-2.98.77-4.47.77c-6.68-.77-12.64-1.57-20.07-1.57-90.77-5.53-128.7-63.5-141.34-87.32-13.39-23.03-11.92-71.47-8.92-94.47,0,0-.75-7.92-1.49-26.19-1.49-40.48,10.43-93.67,23.8-129.39-18.58-87.32,11.92-130.19,43.92-135.76"/>
    </g>
    <path id="path154" class="cls-8" d="M739.37,791.41c5.94-18.99,14.88-45.1,11.87-57"/>
    <path id="path155" class="cls-8" d="M717.24,945.47c4.47.77,29.01-9.53,44.69-11.15,38.73-3.98,79.69-2.39,116.93-14.31,21.61-7.17,37.26-11.92,57.36-20.69,20.87-7.94,34.28-20.66,32.05-27.83"/>
    <path id="path156" class="cls-8" d="M891.32,1128.72c11.15-2.34,41.68-25.36,64.04-72.93,22.31-48.39,27.55-103.13,25.31-125.33"/>
    <path id="path160" class="cls-8" d="M867.42,1128.18c-64.73-3.96-102.69-34.98-123.53-60.47,2.96,18.3-2.96,69.98,64.01,77.94,64.73,7.97,147.35,15.88,167.45,8.74-11.15,0-33.49-15.88-79.64-23.85-1.52,0-2.24-1.57-3.73-1.57s-2.98.77-4.47.77c-6.68-.77-12.62-1.57-20.1-1.57"/>
    <path id="path162" class="cls-10" d="M902.61,842.85c8.2-5.53,10.43-16.58,10.43-25.29"/>
    <path id="path163" class="cls-10" d="M919.9,836.66c-3.06-.67-6.91-1.34-9.97-1.34"/>
    <path id="path164" class="cls-10" d="M874.88,778.09c5.27-4.75,11.31-10.31,9.79-19.07"/>
    <path id="path165" class="cls-10" d="M880.86,771.46c3.06,1.64,5.35,3.29,6.89,5.76"/>
    <path id="path166" class="cls-10" d="M813.23,735.72c-.72-7.81-2.88-14.88,0-21.95"/>
    <path id="path167" class="cls-10" d="M801.25,724.87c3.73,0,6.68.67,10.43,1.34"/>
    <path id="path168" class="cls-10" d="M762.68,712.9c-2.29-5.53-3.78-11.85-3.78-18.19"/>
    <path id="path169" class="cls-10" d="M749.8,708.22c3.03-1.57,6.89-3.19,9.97-3.98"/>
    <path id="path170" class="cls-10" d="M794.62,689.15c4.42-4.75,4.42-11.92,3.67-19.07"/>
    <path id="path171" class="cls-10" d="M805.9,681.85c-2.26-.67-4.52-1.34-7.53-.67"/>
    <path id="path172" class="cls-10" d="M837,793.85c-.77-7.07-2.26-17.32,3.06-22.85"/>
    <path id="path173" class="cls-10" d="M827.21,783.41h8.43"/>
    <path id="path174" class="cls-10" d="M779.05,771.44c6.68-3.88,10.43-10.92,9.69-19.51"/>
    <path id="path175" class="cls-10" d="M791.49,773.21c-1.49-2.36-3.75-3.93-5.99-5.55"/>
    <path id="path176" class="cls-10" d="M941.2,873.23c5.35-3.14,8.43-8.63,7.66-14.19"/>
    <path id="path177" class="cls-10" d="M945.19,869.32c2.08-.72,3.47,0,4.88,2.16"/>
    <path id="path178" class="cls-10" d="M865.91,835.32c-1.41-5.58-2.11-15.16,1.44-19.97"/>
    <path id="path179" class="cls-10" d="M856.48,828c2.88-.9,5.81-.9,7.99,0"/>
    <path id="path180" class="cls-10" d="M838.51,878.11c3.67,3.16,10.33,7.09,15.52,5.55"/>
    <path id="path181" class="cls-10" d="M842.96,889.21c0-1.59.77-4.01,1.54-6.42"/>
    <path id="path182" class="cls-10" d="M885.31,886.8c1.54-4.83,1.54-10.46,0-15.32"/>
    <path id="path183" class="cls-10" d="M891.32,882.79h-5.11"/>
    <path id="path184" class="cls-10" d="M820.78,837.53c-3.11-5.6-3.11-12.77,0-18.4"/>
    <path id="path185" class="cls-10" d="M810.35,829.54c2.9-.87,5.11,0,7.32.9"/>
    <path id="path186" class="cls-10" d="M774.63,803.38c.72,5.55,5.94,7.09,10.43,6.32"/>
    <path id="path187" class="cls-10" d="M775.96,816.26c.72-2.44,1.46-4.88,2.21-7.32"/>
    <path id="path188" class="cls-10" d="M775.96,865.26c4.42,1.59,11.13,3.98,14.85.8"/>
    <path id="path189" class="cls-10" d="M783.52,874.8v-7.09"/>
    <path id="path190" class="cls-10" d="M758.23,840.64c-.85-4.81-2.44-9.59-1.64-14.42"/>
    <path id="path191" class="cls-10" d="M750.68,835.76h5.99"/>
    <path id="path192" class="cls-10" d="M752.24,917.61c-3.75-2.36-5.99-8.69-5.24-12.64"/>
    <path id="path193" class="cls-10" d="M743.38,917.61c1.49-.77,2.96-2.34,4.45-3.11"/>
    <path id="path194" class="cls-10" d="M794.62,910.49c3.65,1.62,8.81,4.01,11.74,1.62"/>
    <path id="path195" class="cls-10" d="M799.92,919.15v-5.32"/>
    <path id="path196" class="cls-10" d="M921.91,922.44c5.22-.85,11.92-.85,16.42,3.37"/>
    <path id="path197" class="cls-10" d="M930.15,922.49c0-1.62.77-3.24,1.54-4.88"/>
    <path id="path198" class="cls-10" d="M865.34,946.21c-2.44-3.11-2.44-8.53,0-10.87"/>
    <path id="path199" class="cls-10" d="M855.6,941.54c2.96,0,5.96.9,8.2.9"/>
    <path id="path200" class="cls-10" d="M799.04,949.53c3.7-4.7,9.64-7.09,14.85-7.09"/>
    <path id="path201" class="cls-10" d="M797.47,940.69c2.26,1.54,4.55,2.31,5.32,4.65"/>
    <path id="path202" class="cls-10" d="M760.98,970.19c-.77-4.01.8-7.22,2.34-10.43"/>
    <path id="path203" class="cls-10" d="M754.22,964.41c2.24,0,4.5,0,5.99,2.44"/>
    <path id="path204" class="cls-10" d="M732.05,1006.76c-3.7-4.86-4.42-10.51-2.96-16.19"/>
    <path id="path205" class="cls-10" d="M723.18,1002.54c1.49-.77,3.8-1.54,5.32-.77"/>
    <path id="path206" class="cls-10" d="M825.23,978.16c2.93-1.57,3.65-5.55,5.11-9.53"/>
    <path id="path207" class="cls-10" d="M832.53,979.7c-.77-2.49-2.24-3.32-4.45-3.32"/>
    <path id="path208" class="cls-10" d="M762.65,999.43c5.11-.77,8.79-3.96,9.53-9.53"/>
    <path id="path209" class="cls-10" d="M772.21,1002.54c-.72-2.26-2.13-3.8-3.55-5.32"/>
    <path id="path210" class="cls-10" d="M962.07,961.94c3.75-3.14,5.99-8.63,5.99-14.19"/>
    <path id="path211" class="cls-10" d="M968.91,961.97c-.8-1.44-2.42-2.16-3.98-2.88"/>
    <path id="path212" class="cls-10" d="M914.38,951.97c2.24,3.16,7.53,7.09,11.31,5.55"/>
    <path id="path213" class="cls-10" d="M916.82,964.41c1.41-2.34,2.11-3.88,3.55-6.22"/>
    <path id="path214" class="cls-10" d="M880.22,978.16c-4.6-2.42-8.43-5.65-8.43-11.31"/>
    <path id="path215" class="cls-10" d="M871.79,981.03c1.57-1.54,2.36-3.11,3.98-4.65"/>
    <path id="path216" class="cls-10" d="M909.03,1006.76c-2.85-1.64-3.55-5.78-3.55-9.1"/>
    <path id="path217" class="cls-10" d="M899.52,1008.09c1.46-2.34,3.7-3.11,6.66-3.11"/>
    <path id="path218" class="cls-10" d="M823.66,1028.04c4.45-3.14,6.66-8.63,5.91-14.19"/>
    <path id="path219" class="cls-10" d="M832.53,1025.85c-1.52-1-2.98-1-4.45-2"/>
    <path id="path220" class="cls-10" d="M802.82,1004.98c0-2.42,0-4.01,1.54-6.42"/>
    <path id="path221" class="cls-10" d="M799.02,999.43c1.52,0,3.01.82,3.78,2.44"/>
    <path id="path222" class="cls-10" d="M779.07,1053.35c-1.64-3.91-2.44-8.61-2.44-13.31"/>
    <path id="path223" class="cls-10" d="M768.69,1047.13c3.67,0,6.66,0,8.87,2.44"/>
    <path id="path224" class="cls-10" d="M946.52,1011.41c3.7-1.59,7.45-4.01,8.2-8.87"/>
    <path id="path225" class="cls-10" d="M954.77,1014.54c-.77-2.36-1.57-3.93-3.11-5.55"/>
    <path id="path226" class="cls-10" d="M917.46,1037.57c.72,5.53,8.17,7.89,12.64,8.66"/>
    <path id="path227" class="cls-10" d="M919.93,1049.57c.72-1.62,2.16-3.24,2.88-4.88"/>
    <path id="path228" class="cls-10" d="M875.78,1033.36c-3.08-3.11-6.86-7.81-5.35-11.74"/>
    <path id="path229" class="cls-10" d="M865.34,1032.94c2.98-.82,5.24-2.52,5.99-4.21"/>
    <path id="path230" class="cls-10" d="M880.92,1065.3c2.21,6.45,8.2,10.43,14.19,10.43"/>
    <path id="path231" class="cls-10" d="M884.69,1079.51c0-1.54.77-3.88,1.54-4.65"/>
    <path id="path232" class="cls-10" d="M831.22,1066.97c3.67.77,8.12-2.36,8.87-6.32"/>
    <path id="path233" class="cls-10" d="M838.51,1071.52c0-1.54-1.64-3.11-2.44-4.65"/>
    <path id="path234" class="cls-10" d="M852.06,1103.46c3.62,3.16,7.99,6.32,12.41,7.09"/>
    <path id="path235" class="cls-10" d="M854.94,1115.44c.77-2.42,1.54-4.01,1.54-6.42"/>
    <path id="path236" class="cls-10" d="M795.93,1088.14c-2.13-3.88-2.85-7.76-3.55-12.41"/>
    <path id="path237" class="cls-10" d="M787.04,1082.83h6.89"/>
    <path id="path238" class="cls-10" d="M922.8,1087.71c2.21-2.44,4.42-4.91,3.67-8.2"/>
    <path id="path239" class="cls-10" d="M927.89,1087.71c-.77-1.64-1.57-2.49-3.11-3.32"/>
    <path id="path240" class="cls-10" d="M744.95,1036.72c2.16-2.36,2.88-5.5,2.88-8.66"/>
    <path id="path241" class="cls-10" d="M749.37,1037.57c0-1.64-.82-3.32-2.44-3.32"/>
    <path id="path242" class="cls-10" d="M976.93,1045.36c4.5-3.19,6.76-6.37,7.53-11.98"/>
    <path id="path243" class="cls-10" d="M983.79,1047.8c-.77-1.62-.77-3.24-1.54-4.88"/>
    <path id="path244" class="cls-10" d="M962.07,1072.39c0,3.16,2.98,6.3,5.99,8.66"/>
    <path id="path245" class="cls-10" d="M961.38,1082.83c1.57-1.54,2.34-3.11,3.11-4.65"/>
    <path id="path246" class="cls-10" d="M973.35,1109.01c3.65-1.59,5.11-4.81,5.11-8.87"/>
    <path id="path247" class="cls-10" d="M980.01,1111.45c-.77-1.59-1.57-3.93-3.11-5.55"/>
    <path id="path248" class="cls-10" d="M947.19,1115.46c-2.88-4.03-2.88-9.66-2.88-15.32"/>
    <path id="path249" class="cls-10" d="M939.66,1112.12c1.59-1.62,3.16-2.44,5.55-2.44"/>
    <path id="path250" class="cls-10" d="M956.06,1128.75c.75,3.98,8.22,9.53,11.98,6.37"/>
    <path id="path251" class="cls-10" d="M956.96,1137.61c.77-.8,1.57-2.44,3.11-2.44"/>
    <path id="path252" class="cls-10" d="M957.65,918.51c2.93-2.39,4.42-6.42,3.67-10.43"/>
    <path id="path253" class="cls-10" d="M962.97,917.61c-.72-.67-1.44-1.34-2.88-1.34"/>
    <path id="path254" class="cls-10" d="M934.78,983.48c.72-3.14,1.44-5.5,2.88-8.66"/>
    <path id="path255" class="cls-10" d="M932.34,978.16c1.44,0,2.16.82,2.88,2.44"/>
    <path id="path256" class="cls-10" d="M851.16,1004.98c0-3.91,2.26-7.04,3.78-10.2"/>
    <path id="path257" class="cls-10" d="M845.17,997.99c3.01-.77,4.55,0,5.32,3.01"/>
    <path id="path258" class="cls-10" d="M843.6,722.43c6.12-3.24,8.43-8.87,8.43-15.32"/>
    <path id="path259" class="cls-10" d="M854.06,720.86c-.77-3.37-2.21-4.21-5.11-4.21"/>
    <path id="path362" class="cls-10" d="M820.81,1131.19c5.86,3.21,11.74,10.43,18.4,5.63"/>
    <path id="path363" class="cls-10" d="M822.09,1140.72c2.18-1.57,3.65-3.19,5.11-3.98"/>
    <path id="path364" class="cls-10" d="M769.33,1103.46c1.46,7.2,6.68,13.57,12.64,17.53"/>
    <path id="path365" class="cls-10" d="M767.07,1117.65c2.18-1.54,3.65-3.11,5.11-4.65"/>
    <path id="path366" class="cls-10" d="M874.26,1141.52c5.99-.8,11.98,0,17.96,3.19"/>
    <path id="path367" class="cls-10" d="M884.64,1142.5v-6.66"/>
    <path id="path368" class="cls-7" d="M889.86,766.68c-3.67-.77-8.81-2.36-9.53-6.3,2.9-.82,6.6.77,9.53,1.57"/>
    <path id="path369" class="cls-7" d="M844.6,782.64c-3.75-2.42-9.74-3.21-11.98-8.04,3.01-.82,8.22-.82,11.23,1.62"/>
    <path id="path370" class="cls-7" d="M794.83,761.8c-3.78-.75-7.53-1.52-10.54-3.78,1.49-3.78,8.27-2.26,11.31-3.78"/>
    <path id="path371" class="cls-7" d="M777.61,766.66c2.24,1.62,4.45,4.81,4.45,7.99"/>
    <path id="path372" class="cls-7" d="M785.16,776.22c2.18-3.16,5.86-5.55,7.32-9.53"/>
    <path id="path373" class="cls-7" d="M771.65,807.03c1.49-1.46,3.75-1.46,5.99-2.21"/>
    <path id="path374" class="cls-7" d="M819.24,827.9c-2.24-.8-11.23-5.55-5.24-7.94,3.01-1.59,7.5,3.98,9.77,5.55"/>
    <path id="path375" class="cls-7" d="M870.66,825.69c-2.24,0-12.75-4.01-8.25-8.02,2.29-2.42,6.78,2.42,9.05,3.21"/>
    <path id="path376" class="cls-7" d="M918.9,827.87c-2.24-.8-14.19-2.39-13.47-6.45.75-4.86,8.25-.8,10.48-.8"/>
    <path id="path377" class="cls-7" d="M902.73,836.53c2.24,2.34,4.5,4.68,5.99,6.22"/>
    <path id="path378" class="cls-7" d="M916.02,841.41c.9-3.16,0-6.35.9-9.53"/>
    <path id="path379" class="cls-7" d="M941.31,858.94c3.75.77,8.22,4.65,11.98,3.88"/>
    <path id="path380" class="cls-7" d="M940.64,866.7c1.46,2.42,3.65,4.81,5.11,6.42"/>
    <path id="path381" class="cls-7" d="M879.43,876.24c3.73-.77,6.68-.77,10.43-1.54"/>
    <path id="path382" class="cls-7" d="M850.59,889.11c.67-3.96,2-7.14,1.34-11.1"/>
    <path id="path383" class="cls-7" d="M838.62,884.23c.77-2.39,2.34-5.58,3.11-7.99"/>
    <path id="path384" class="cls-7" d="M840.85,885.8c2.21.75,4.45,1.49,6.66,2.21"/>
    <path id="path385" class="cls-7" d="M789.61,872.25c-.77-2.36-1.57-4.7-3.11-7.09"/>
    <path id="path386" class="cls-7" d="M776.07,871.35c3.01-2.39,3.78-5.55,3.01-9.53"/>
    <path id="path387" class="cls-7" d="M753.89,830.34c2.24.77,4.5.77,5.99,1.54"/>
    <path id="path388" class="cls-7" d="M754.35,841.41c0-3.16,0-6.35-1.34-9.53"/>
    <path id="path389" class="cls-7" d="M816.88,722.33c-2.93-.77-6.55-2.39-7.99-5.58,2.88-2.42,5.81-.82,7.99,1.57"/>
    <path id="path390" class="cls-7" d="M806.47,730.29c0-2.42,0-5.63-.44-8.87"/>
    <path id="path391" class="cls-7" d="M808.91,731.86c2.98.9,5.27.9,7.53,0"/>
    <path id="path392" class="cls-7" d="M757.46,698.58c1.49-.9,3.01-.9,5.32,0"/>
    <path id="path393" class="cls-7" d="M759.88,710.35c1.49,0,2.96-.67,4.45-1.34"/>
    <path id="path394" class="cls-7" d="M754.35,711.23c-.67-3.19-.67-5.58-2-7.99"/>
    <path id="path395" class="cls-7" d="M802.92,677.07c-3.01,0-7.48,0-10.43-2.44,2.24-2.44,7.43-1.59,10.43-.8"/>
    <path id="path396" class="cls-7" d="M789.61,684.19c2.93.82,5.14,3.32,8.87,3.32"/>
    <path id="path397" class="cls-7" d="M843.73,718.99c1.52,1.64,2.26,3.29,3.78,5.76"/>
    <path id="path398" class="cls-7" d="M847.51,710.33c2.24.82,3.75,1.64,5.99,2.44"/>
    <path id="path399" class="cls-7" d="M875.88,773.11c2.24.82,3.7,2.44,4.45,4.88"/>
    <path id="path400" class="cls-7" d="M834.86,791.28c1.49-.72,3.01-1.46,5.32-2.21"/>
    <path id="path401" class="cls-7" d="M831.29,779.53c.67,2.42,2,4.81.67,7.99"/>
    <path id="path402" class="cls-7" d="M861.03,832.78c2.18,0,5.11,0,7.32-.9"/>
    <path id="path403" class="cls-7" d="M803.59,909.52c1.54,1.64,1.54,3.26,0,4.88"/>
    <path id="path404" class="cls-7" d="M810.89,947.65c0-2.36,0-4.7-.44-7.09"/>
    <path id="path405" class="cls-7" d="M767.89,992.24c2.21,1.57,5.19,3.11,8.2,3.11"/>
    <path id="path406" class="cls-7" d="M826.87,971.4c2.16,1.64,4.32,1.64,5.76,2.44"/>
    <path id="path407" class="cls-7" d="M869.92,973.14c2.98,0,6.01-1.54,7.53-4.65"/>
    <path id="path408" class="cls-7" d="M915.38,957.21c2.93-.8,4.37-3.11,5.11-6.22"/>
    <path id="path409" class="cls-7" d="M971.07,957.21c-1.46,0-9.53-3.14-8.09-6.27,1.46-3.96,6.63,0,8.09,1.57"/>
    <path id="path410" class="cls-7" d="M932.44,927.02c1.49-2.31,1.49-4.65,4.45-4.65"/>
    <path id="path411" class="cls-7" d="M925.79,924.81c1.54-2.44.77-4.88.77-7.32"/>
    <path id="path412" class="cls-7" d="M928.02,1051.01c0-3.96,0-7.92.9-11.1"/>
    <path id="path413" class="cls-7" d="M914.04,1043.69c2.85-1.54,4.27-4.7,6.42-7.09"/>
    <path id="path414" class="cls-7" d="M890.76,1081.82c.72-3.91,2.16-7.81,2.88-11.74"/>
    <path id="path415" class="cls-7" d="M880.33,1073.19c3.75-.8,5.99-4.78,5.99-7.99"/>
    <path id="path416" class="cls-7" d="M837.07,1062.78c3.03.8,6.04,3.21,9.1,3.98"/>
    <path id="path417" class="cls-7" d="M828.18,1016.19c2.16,0,5.09,1.34,7.99,1.34"/>
    <path id="path418" class="cls-7" d="M822.89,1025.72c1.49,2.29,3.75,3.78,5.99,3.78"/>
    <path id="path419" class="cls-7" d="M773.86,1043.69c2.18.77,5.11,1.54,7.32.77"/>
    <path id="path420" class="cls-7" d="M788.07,1077.17c2.98.67,5.27,1.34,7.53.67"/>
    <path id="path421" class="cls-7" d="M852.6,1109.58c2.24.82,3.75,2.49,5.99,3.32"/>
    <path id="path422" class="cls-7" d="M861.03,1112.89c0-3.14.72-6.27,2.88-8.66"/>
    <path id="path423" class="cls-7" d="M951.74,1003.34c1.57.77,3.19,3.11,3.98,4.65"/>
    <g class="cls-13">
      <path id="path424" class="cls-7" d="M978.57,1035.03c2.18.77,4.39,2.34,7.32,3.11"/>
    </g>
    <path id="path425" class="cls-7" d="M975.49,1102.46c1.54,0,3.88.82,4.65,2.44"/>
    <path id="path426" class="cls-7" d="M957.75,1078.07c3.67-.82,5.11-4.16,7.32-6.66"/>
    <path id="path427" class="cls-7" d="M941.31,1104.9c3.06,0,6.12,0,8.43-.67"/>
    <path id="path428" class="cls-7" d="M759.9,961.43c.72,1.49,2.96,2.21,4.45,2.21"/>
    <path id="path429" class="cls-7" d="M733.72,997.12c-2.26-1.62-4.52-2.44-7.53-2.44"/>
    <path id="path430" class="cls-7" d="M860.92,947.01c.77-2.39.77-5.58-.77-7.99"/>
    <path id="path431" class="cls-7" d="M867.04,1023.72c2.21,2.49,5.91,3.34,8.87,1.67"/>
    <path id="path432" class="cls-7" d="M852.16,995.35c1.39,2.39,2.78,4.73,4.88,7.09"/>
    <path id="path433" class="cls-7" d="M911.6,1000.87c-1.52.9-4.52.9-7.53.9"/>
    <path id="path434" class="cls-7" d="M814.9,836.53c2.88-1.57,5.09-3.11,7.99-3.11"/>
    <path id="path494" class="cls-9" d="M741.97,906.61c2.93,0,5.91.67,8.87,1.34"/>
    <path id="path495" class="cls-9" d="M743.92,913.7c1.57.77,2.34,2.29,3.11,3.78"/>
    <path id="path496" class="cls-9" d="M767.2,1109.58c2.24-.75,5.24-.75,5.99-3.78"/>
    <path id="path497" class="cls-9" d="M776.74,1119.99c.77-1.54,2.34-3.11,3.11-4.65"/>
    <path id="path498" class="cls-9" d="M820.88,1135.07c2.24-.77,4.5-1.57,5.99-3.11"/>
    <path id="path499" class="cls-9" d="M836.18,1140.62c0-1.59,0-3.93.9-5.55"/>
    <path id="path500" class="cls-9" d="M877.91,1142.83c-.44-.75-.44-2.26,0-3.78"/>
    <path id="path508" class="cls-7" d="M750.19,743.07c11.02.77,7.35-9.66-.72-4.83"/>
  </g>
</svg>