<?xml version="1.0" encoding="UTF-8"?>
<svg id="svg3" xmlns="http://www.w3.org/2000/svg" xmlns:xlink="http://www.w3.org/1999/xlink" viewBox="0 0 1398.49 3639.87">
  <defs>
    <style>
      .cls-1 {
        fill: #d7aab8;
      }

      .cls-1, .cls-2, .cls-3, .cls-4, .cls-5 {
        fill-rule: evenodd;
      }

      .cls-6 {
        stroke: #fff;
      }

      .cls-6, .cls-7, .cls-8, .cls-9, .cls-10, .cls-11 {
        fill: none;
      }

      .cls-6, .cls-7, .cls-9 {
        stroke-miterlimit: 8;
        stroke-width: 1.66px;
      }

      .cls-7 {
        stroke: #e1c0ca;
      }

      .cls-8 {
        stroke: #333;
      }

      .cls-8, .cls-10 {
        stroke-linecap: round;
        stroke-linejoin: round;
        stroke-width: .84px;
      }

      .cls-9 {
        stroke: #d7aab8;
      }

      .cls-10 {
        stroke: #8b576c;
      }

      .cls-2 {
        fill: #fff;
      }

      .cls-12 {
        clip-path: url(#clippath-1);
      }

      .cls-3 {
        fill: #e1c0ca;
      }

      .cls-13 {
        clip-path: url(#clippath-3);
      }

      .cls-14 {
        clip-path: url(#clippath-2);
      }

      .cls-4 {
        fill: #c6869e;
      }

      .cls-15 {
        clip-path: url(#clippath);
      }

      .cls-5 {
        fill: #b6cfe4;
      }
    </style>
    <clipPath id="clippath">
      <rect class="cls-11" x="409.83" y="623.34" width="584.41" height="554.7"/>
    </clipPath>
    <clipPath id="clippath-1">
      <rect class="cls-11" x="409.83" y="623.34" width="584.41" height="554.7"/>
    </clipPath>
    <clipPath id="clippath-2">
      <rect class="cls-11" x="409.83" y="623.34" width="584.41" height="554.7"/>
    </clipPath>
    <clipPath id="clippath-3">
      <rect class="cls-11" x="409.83" y="623.34" width="584.41" height="554.7"/>
    </clipPath>
  </defs>
  <g id="_왼쪽_폐" data-name="왼쪽 폐">
    <g class="cls-15">
      <path id="path2" class="cls-3" d="M621.18,655.75c31.99,5.58,62.5,48.44,43.92,135.76,13.36,35.72,25.29,88.92,23.8,129.39-.75,18.27-1.49,26.19-1.49,26.19,3.01,23,4.47,71.44-8.92,94.47-12.64,23.82-50.57,81.8-141.34,87.32-7.43,0-13.39.8-20.07,1.57-1.49,0-2.96-.77-4.47-.77s-2.24,1.57-3.73,1.57c-67.69,11.13-83.31,40.47-89.28,11.92-6.71-31.76-15.62-165.93,1.49-204.82,1.46-3.19,2.96-7.14,2.96-7.14.75-11.9,5.22-53.17,12.64-58.75.75-10.31,5.22-27.78,17.86-53.17,13.39-26.19,43.15-74.63,78.1-109.55,35-35.75,57.28-58.77,88.53-53.99Z"/>
    </g>
    <path id="path23" class="cls-5" d="M659.08,893.2c-2.26,6.32,5.24,7.09,10.48,8.69,5.24,1.57,16.47,9.48,18.71,1.57,2.24-7.89-4.5-9.48-13.47-11.85-8.99-2.39-13.49-5.55-15.73,1.59Z"/>
    <path id="path102" class="cls-8" d="M659.18,893.31c-2.26,6.32,5.24,7.09,10.48,8.69,5.24,1.57,16.47,9.48,18.71,1.57,2.24-7.89-4.5-9.48-13.47-11.85-8.97-2.36-13.47-5.53-15.73,1.59"/>
    <g class="cls-12">
      <path id="path127" class="cls-3" d="M621.18,655.75c31.99,5.58,62.5,48.44,43.92,135.76,13.36,35.72,25.29,88.92,23.8,129.39-.75,18.27-1.49,26.19-1.49,26.19,3.01,23,4.47,71.44-8.92,94.47-12.64,23.82-50.57,81.8-141.34,87.32-7.43,0-13.39.8-20.07,1.57-1.49,0-2.96-.77-4.47-.77s-2.24,1.57-3.73,1.57c-67.69,11.13-83.31,40.47-89.28,11.92-6.71-31.76-15.62-165.93,1.49-204.82,1.46-3.19,2.96-7.14,2.96-7.14.75-11.9,5.22-53.17,12.64-58.75.75-10.31,5.22-27.78,17.86-53.17,13.39-26.19,43.15-74.63,78.1-109.55,35-35.75,57.28-58.77,88.53-53.99Z"/>
    </g>
    <path id="path128" class="cls-6" d="M663.68,790.02c14.11,36.49,25.96,101.53,23.72,141.96"/>
    <path id="path130" class="cls-1" d="M537.19,1129.04c-7.45,0-13.39.8-20.1,1.57-1.49,0-2.96-.77-4.47-.77s-2.21,1.57-3.73,1.57c-46.15,7.97-68.49,23.85-79.64,23.85,20.1,7.14,102.72-.77,167.45-8.74,66.97-7.97,61.06-59.65,64.01-77.94-20.87,25.49-58.8,56.51-123.53,60.47Z"/>
    <path id="path132" class="cls-2" d="M460.97,819.96c14.91-34.85,88.69-138.62,138.62-155.24-14.88,11.9-93.16,76.86-138.62,155.24Z"/>
    <path id="path135" class="cls-2" d="M464.96,905.15c14.88,7.12,55.79,20.56,80.31,25.31,24.54,4.78,68.38,6.35,84.78,7.12,16.37.8,35.67,7.12,41.61,9.48-11.9-2.36-37.91-5.53-49.08-6.32-11.15-.77-67.64-1.57-88.48-8.71-20.76-7.09-54.99-16.6-69.13-26.88Z"/>
    <path id="path136" class="cls-2" d="M501.99,1126.49c-42.35-15.86-72.85-103.18-75.12-124.64-.72,19.84,23.1,110.35,75.12,124.64Z"/>
    <path id="path139" class="cls-1" d="M651.12,722.49c10.31,15.83,4.42,37.24,11.02,54.66,6.63-14.26,5.17-35.64,2.21-51.5-1.46-13.47-4.42-30.12-14.01-39.65,2.21,10.31,14.75,27.75,2.21,36.49h-1.44Z"/>
    <path id="path140" class="cls-1" d="M516.4,1128.93c-70.93-26.16-91.82-144.42-91.82-178.55,4.5,34.13,35.1,153.96,91.82,178.55Z"/>
    <path id="path141" class="cls-1" d="M556.57,1120.94c24.59-3.16,58.08-11.92,93.82-47.7,35.72-35.77,33.49-64.4,34.98-93.82-.75,14.34-5.96,54.07-38.73,87.48-32.74,33.38-78.17,54.04-90.07,54.04Z"/>
    <path id="path142" class="cls-1" d="M452.11,891.38c12.67,8.79,32.05,14.37,51.42,21.54,19.38,6.4,42.48,14.37,65.56,17.55,23.1,2.42,67.07,0,100.58,10.36-17.14-7.14-38.73-14.34-78.95-16.76-6.71-.8-20.12-1.57-33.54-3.98-22.36-3.98-46.93-10.36-57.36-13.57-16.42-4.73-42.48-11.9-47.72-15.14Z"/>
    <path id="path143" class="cls-1" d="M683.6,923.32c.75-39.7-8.12-79.43-16.96-111.99-6.66-23.82-14.75-42.89-16.24-62.76,0,25.42,6.66,54.04,12.57,76.27,5.14,21.43,23.57,81.82,20.64,98.48Z"/>
    <path id="path144" class="cls-1" d="M633.82,929.62c24.57,8.74,48.39-22.23,47.62-46.87-.75,12.72,8.17,49.26-4.47,55.61-5.96,3.16-11.92-.8-17.14-2.39-11.9-2.39-23.08,0-34.98-.8l8.97-5.55Z"/>
    <path id="path145" class="cls-1" d="M424.02,1129.83c-.75,20.61,8.92,20.61,24.52,14.29,14.11-5.58,32.66-15.08,47.49-14.29-6.68-4.78-12.62,0-20.02.77-9.69.8-12.64-6.35-20.04,0-5.22,3.96-5.96,8.74-13.36,9.53-8.92,1.57-11.15-5.58-17.09-9.53l-1.49-.77Z"/>
    <path id="path148" class="cls-1" d="M573.43,920.75c20.87,3.19,59.59,3.96,80.46-22.92,20.87-27.68,12.67-59.34,10.43-71.18l10.46,24.54,6.68,50.63-6.68,26.08-29.06,6.32-72.29-13.47Z"/>
    <path id="path151" class="cls-4" d="M444.55,1154.3c7.5-.8,18.76-8.02,27.01-10.43,7.5-2.39,23.26-9.61,29.99-7.2-4.5,2.42-23.98,8.81-10.48,14.42-3.78,4.83-39.76,8.02-41.99,3.21h-4.52Z"/>
    <path id="path152" class="cls-4" d="M635.95,1096.35c7.5-6.35,14.26-14.31,21-20.66.75,7.14,0,13.49-2.24,20.66-3.01,8.74-8.22,23.8-14.98,30.14,3.01-7.94,6.73-16.65,7.48-25.39.75-5.55-4.5-14.29-9.74-3.96l-1.52-.8Z"/>
    <g class="cls-14">
      <path id="path153" class="cls-8" d="M621.31,655.85c31.99,5.58,62.5,48.44,43.92,135.76,13.36,35.72,25.29,88.92,23.8,129.39-.75,18.27-1.49,26.19-1.49,26.19,3.01,23,4.47,71.44-8.92,94.47-12.64,23.82-50.57,81.8-141.34,87.32-7.43,0-13.39.8-20.07,1.57-1.49,0-2.96-.77-4.47-.77s-2.24,1.57-3.73,1.57c-67.69,11.13-83.31,40.47-89.28,11.92-6.71-31.76-15.62-165.93,1.49-204.82,1.46-3.19,2.96-7.14,2.96-7.14.75-11.9,5.22-53.17,12.64-58.75.75-10.31,5.22-27.78,17.86-53.17,13.39-26.19,43.15-74.63,78.1-109.55,34.98-35.72,57.28-58.77,88.53-53.99"/>
    </g>
    <path id="path154" class="cls-8" d="M653.48,735.36c-3.01,11.9,5.94,38.01,11.87,57"/>
    <path id="path155" class="cls-8" d="M436.48,872.44c-2.24,7.17,11.18,19.89,32.05,27.83,20.1,8.76,35.75,13.52,57.36,20.69,37.24,11.92,78.2,10.33,116.93,14.31,15.68,1.62,40.22,11.92,44.69,11.15"/>
    <path id="path156" class="cls-8" d="M424.07,931.42c-2.24,22.2,3.01,76.94,25.31,125.33,22.36,47.57,52.89,70.59,64.04,72.93"/>
    <path id="path160" class="cls-8" d="M537.3,1129.14c-7.45,0-13.39.8-20.1,1.57-1.49,0-2.96-.77-4.47-.77s-2.21,1.57-3.73,1.57c-46.15,7.97-68.49,23.85-79.64,23.85,20.1,7.14,102.72-.77,167.45-8.74,66.97-7.97,61.06-59.65,64.01-77.94-20.84,25.49-58.8,56.51-123.53,60.47"/>
    <path id="path162" class="cls-10" d="M491.68,818.52c0,8.71,2.24,19.76,10.43,25.29"/>
    <path id="path163" class="cls-10" d="M494.79,836.28c-3.06,0-6.91.67-9.97,1.34"/>
    <path id="path164" class="cls-10" d="M520.05,759.98c-1.52,8.76,4.52,14.31,9.79,19.07"/>
    <path id="path165" class="cls-10" d="M516.97,778.18c1.54-2.47,3.83-4.11,6.89-5.76"/>
    <path id="path166" class="cls-10" d="M591.5,714.73c2.88,7.07.72,14.13,0,21.95"/>
    <path id="path167" class="cls-10" d="M593.04,727.17c3.75-.67,6.71-1.34,10.43-1.34"/>
    <path id="path168" class="cls-10" d="M645.82,695.66c0,6.35-1.49,12.67-3.78,18.19"/>
    <path id="path169" class="cls-10" d="M644.95,705.19c3.08.8,6.94,2.42,9.97,3.98"/>
    <path id="path170" class="cls-10" d="M606.43,671.04c-.75,7.14-.75,14.31,3.67,19.07"/>
    <path id="path171" class="cls-10" d="M606.35,682.14c-3.01-.67-5.27,0-7.53.67"/>
    <path id="path172" class="cls-10" d="M564.67,771.96c5.32,5.53,3.83,15.78,3.06,22.85"/>
    <path id="path173" class="cls-10" d="M569.09,784.37h8.43"/>
    <path id="path174" class="cls-10" d="M615.99,752.89c-.75,8.58,3.01,15.62,9.69,19.51"/>
    <path id="path175" class="cls-10" d="M619.22,768.62c-2.24,1.62-4.5,3.19-5.99,5.55"/>
    <path id="path176" class="cls-10" d="M455.86,860c-.77,5.55,2.31,11.05,7.66,14.19"/>
    <path id="path177" class="cls-10" d="M454.65,872.44c1.41-2.16,2.8-2.88,4.88-2.16"/>
    <path id="path178" class="cls-10" d="M537.37,816.31c3.55,4.81,2.85,14.39,1.44,19.97"/>
    <path id="path179" class="cls-10" d="M540.25,828.96c2.18-.9,5.11-.9,7.99,0"/>
    <path id="path180" class="cls-10" d="M550.69,884.62c5.19,1.54,11.85-2.39,15.52-5.55"/>
    <path id="path181" class="cls-10" d="M560.22,883.75c.77,2.42,1.54,4.83,1.54,6.42"/>
    <path id="path182" class="cls-10" d="M519.41,872.44c-1.54,4.86-1.54,10.48,0,15.32"/>
    <path id="path183" class="cls-10" d="M518.51,883.75h-5.11"/>
    <path id="path184" class="cls-10" d="M583.94,820.09c3.11,5.63,3.11,12.8,0,18.4"/>
    <path id="path185" class="cls-10" d="M587.05,831.4c2.21-.9,4.42-1.77,7.32-.9"/>
    <path id="path186" class="cls-10" d="M619.66,810.66c4.5.77,9.71-.77,10.43-6.32"/>
    <path id="path187" class="cls-10" d="M626.55,809.89c.75,2.44,1.49,4.88,2.21,7.32"/>
    <path id="path188" class="cls-10" d="M613.9,867.02c3.73,3.19,10.43.8,14.85-.8"/>
    <path id="path189" class="cls-10" d="M621.2,868.66v7.09"/>
    <path id="path190" class="cls-10" d="M648.13,827.18c.8,4.83-.8,9.61-1.64,14.42"/>
    <path id="path191" class="cls-10" d="M648.06,836.72h5.99"/>
    <path id="path192" class="cls-10" d="M657.72,905.92c.75,3.96-1.49,10.28-5.24,12.64"/>
    <path id="path193" class="cls-10" d="M656.92,915.46c1.49.77,2.96,2.34,4.45,3.11"/>
    <path id="path194" class="cls-10" d="M598.36,913.07c2.93,2.39,8.09,0,11.74-1.62"/>
    <path id="path195" class="cls-10" d="M604.81,914.79v5.32"/>
    <path id="path196" class="cls-10" d="M466.4,926.77c4.5-4.21,11.2-4.21,16.42-3.37"/>
    <path id="path197" class="cls-10" d="M473.05,918.57c.77,1.64,1.54,3.26,1.54,4.88"/>
    <path id="path198" class="cls-10" d="M539.38,936.3c2.44,2.34,2.44,7.76,0,10.87"/>
    <path id="path199" class="cls-10" d="M540.92,943.39c2.24,0,5.24-.9,8.2-.9"/>
    <path id="path200" class="cls-10" d="M590.83,943.39c5.22,0,11.15,2.39,14.85,7.09"/>
    <path id="path201" class="cls-10" d="M601.93,946.3c.77-2.34,3.06-3.11,5.32-4.65"/>
    <path id="path202" class="cls-10" d="M641.4,960.71c1.54,3.21,3.11,6.42,2.34,10.43"/>
    <path id="path203" class="cls-10" d="M644.51,967.81c1.49-2.44,3.75-2.44,5.99-2.44"/>
    <path id="path204" class="cls-10" d="M675.63,991.53c1.46,5.68.75,11.33-2.96,16.19"/>
    <path id="path205" class="cls-10" d="M676.22,1002.73c1.52-.77,3.83,0,5.32.77"/>
    <path id="path206" class="cls-10" d="M574.41,969.58c1.46,3.98,2.18,7.97,5.11,9.53"/>
    <path id="path207" class="cls-10" d="M576.64,977.34c-2.21,0-3.67.82-4.45,3.32"/>
    <path id="path208" class="cls-10" d="M632.54,990.86c.75,5.58,4.42,8.76,9.53,9.53"/>
    <path id="path209" class="cls-10" d="M636.08,998.18c-1.41,1.52-2.83,3.06-3.55,5.32"/>
    <path id="path210" class="cls-10" d="M436.69,948.71c0,5.55,2.24,11.05,5.99,14.19"/>
    <path id="path211" class="cls-10" d="M439.8,960.05c-1.57.72-3.19,1.44-3.98,2.88"/>
    <path id="path212" class="cls-10" d="M479.04,958.48c3.78,1.54,9.07-2.39,11.31-5.55"/>
    <path id="path213" class="cls-10" d="M484.36,959.15c1.44,2.34,2.13,3.88,3.55,6.22"/>
    <path id="path214" class="cls-10" d="M532.93,967.81c0,5.65-3.83,8.89-8.43,11.31"/>
    <path id="path215" class="cls-10" d="M528.95,977.34c1.62,1.54,2.42,3.11,3.98,4.65"/>
    <path id="path216" class="cls-10" d="M499.24,998.62c0,3.32-.69,7.45-3.55,9.1"/>
    <path id="path217" class="cls-10" d="M498.57,1005.94c2.96,0,5.19.77,6.66,3.11"/>
    <path id="path218" class="cls-10" d="M575.15,1014.81c-.75,5.55,1.46,11.05,5.91,14.19"/>
    <path id="path219" class="cls-10" d="M576.64,1024.81c-1.46,1-2.93,1-4.45,2"/>
    <path id="path220" class="cls-10" d="M600.36,999.52c1.54,2.42,1.54,4.01,1.54,6.42"/>
    <path id="path221" class="cls-10" d="M601.93,1002.83c.77-1.62,2.26-2.44,3.78-2.44"/>
    <path id="path222" class="cls-10" d="M628.09,1041c0,4.7-.8,9.41-2.44,13.31"/>
    <path id="path223" class="cls-10" d="M627.19,1050.53c2.21-2.44,5.19-2.44,8.87-2.44"/>
    <path id="path224" class="cls-10" d="M450,1003.5c.75,4.86,4.5,7.27,8.2,8.87"/>
    <path id="path225" class="cls-10" d="M453.08,1009.95c-1.54,1.62-2.34,3.19-3.11,5.55"/>
    <path id="path226" class="cls-10" d="M474.62,1047.19c4.47-.77,11.92-3.14,12.64-8.66"/>
    <path id="path227" class="cls-10" d="M481.92,1045.65c.72,1.64,2.16,3.26,2.88,4.88"/>
    <path id="path228" class="cls-10" d="M534.29,1022.57c1.52,3.93-2.26,8.63-5.35,11.74"/>
    <path id="path229" class="cls-10" d="M533.39,1029.69c.75,1.7,3.01,3.39,5.99,4.21"/>
    <path id="path230" class="cls-10" d="M509.65,1076.69c5.99,0,11.98-3.98,14.19-10.43"/>
    <path id="path231" class="cls-10" d="M518.51,1075.82c.77.77,1.54,3.11,1.54,4.65"/>
    <path id="path232" class="cls-10" d="M564.67,1061.61c.75,3.96,5.19,7.09,8.87,6.32"/>
    <path id="path233" class="cls-10" d="M568.65,1067.82c-.8,1.54-2.44,3.11-2.44,4.65"/>
    <path id="path234" class="cls-10" d="M540.25,1111.51c4.42-.77,8.79-3.93,12.41-7.09"/>
    <path id="path235" class="cls-10" d="M548.24,1109.97c0,2.42.77,4.01,1.54,6.42"/>
    <path id="path236" class="cls-10" d="M612.34,1076.69c-.69,4.65-1.41,8.53-3.55,12.41"/>
    <path id="path237" class="cls-10" d="M610.79,1083.78h6.89"/>
    <path id="path238" class="cls-10" d="M478.24,1080.47c-.75,3.29,1.46,5.76,3.67,8.2"/>
    <path id="path239" class="cls-10" d="M479.94,1085.35c-1.54.82-2.34,1.67-3.11,3.32"/>
    <path id="path240" class="cls-10" d="M656.92,1029.02c0,3.16.72,6.3,2.88,8.66"/>
    <path id="path241" class="cls-10" d="M657.8,1035.21c-1.62,0-2.44,1.67-2.44,3.32"/>
    <path id="path242" class="cls-10" d="M420.27,1034.34c.77,5.6,3.03,8.79,7.53,11.98"/>
    <path id="path243" class="cls-10" d="M422.48,1043.87c-.77,1.64-.77,3.26-1.54,4.88"/>
    <path id="path244" class="cls-10" d="M436.69,1082.01c3.01-2.36,5.99-5.5,5.99-8.66"/>
    <path id="path245" class="cls-10" d="M440.23,1079.13c.77,1.54,1.54,3.11,3.11,4.65"/>
    <path id="path246" class="cls-10" d="M426.25,1101.1c0,4.06,1.46,7.27,5.11,8.87"/>
    <path id="path247" class="cls-10" d="M427.82,1106.86c-1.54,1.62-2.34,3.96-3.11,5.55"/>
    <path id="path248" class="cls-10" d="M460.41,1101.1c0,5.65,0,11.28-2.88,15.32"/>
    <path id="path249" class="cls-10" d="M459.53,1110.64c2.39,0,3.96.82,5.55,2.44"/>
    <path id="path250" class="cls-10" d="M436.69,1136.08c3.75,3.16,11.23-2.39,11.98-6.37"/>
    <path id="path251" class="cls-10" d="M444.65,1136.13c1.54,0,2.34,1.64,3.11,2.44"/>
    <path id="path252" class="cls-10" d="M443.42,909.03c-.75,4.01.75,8.04,3.67,10.43"/>
    <path id="path253" class="cls-10" d="M444.65,917.23c-1.44,0-2.16.67-2.88,1.34"/>
    <path id="path254" class="cls-10" d="M467.06,975.77c1.44,3.16,2.16,5.53,2.88,8.66"/>
    <path id="path255" class="cls-10" d="M469.5,981.55c.72-1.62,1.44-2.44,2.88-2.44"/>
    <path id="path256" class="cls-10" d="M549.79,995.74c1.52,3.16,3.78,6.3,3.78,10.2"/>
    <path id="path257" class="cls-10" d="M554.23,1001.96c.77-3.01,2.31-3.78,5.32-3.01"/>
    <path id="path258" class="cls-10" d="M552.69,708.07c0,6.45,2.31,12.08,8.43,15.32"/>
    <path id="path259" class="cls-10" d="M555.77,717.61c-2.9,0-4.34.85-5.11,4.21"/>
    <path id="path362" class="cls-10" d="M565.54,1137.78c6.66,4.81,12.54-2.42,18.4-5.63"/>
    <path id="path363" class="cls-10" d="M577.52,1137.7c1.46.8,2.93,2.42,5.11,3.98"/>
    <path id="path364" class="cls-10" d="M622.77,1121.94c5.96-3.96,11.18-10.33,12.64-17.53"/>
    <path id="path365" class="cls-10" d="M632.54,1113.95c1.46,1.54,2.93,3.11,5.11,4.65"/>
    <path id="path366" class="cls-10" d="M512.52,1145.66c5.99-3.19,11.98-3.98,17.96-3.19"/>
    <path id="path367" class="cls-10" d="M520.08,1136.8v6.66"/>
    <path id="path368" class="cls-7" d="M514.86,762.91c2.93-.8,6.63-2.39,9.53-1.57-.72,3.93-5.86,5.53-9.53,6.3"/>
    <path id="path369" class="cls-7" d="M560.86,777.18c3.01-2.44,8.22-2.44,11.23-1.62-2.24,4.83-8.22,5.63-11.98,8.04"/>
    <path id="path370" class="cls-7" d="M609.12,755.2c3.03,1.52,9.82,0,11.31,3.78-3.01,2.26-6.76,3.03-10.54,3.78"/>
    <path id="path371" class="cls-7" d="M622.67,775.61c0-3.19,2.21-6.37,4.45-7.99"/>
    <path id="path372" class="cls-7" d="M612.23,767.64c1.46,3.98,5.14,6.37,7.32,9.53"/>
    <path id="path373" class="cls-7" d="M627.09,805.78c2.24.75,4.5.75,5.99,2.21"/>
    <path id="path374" class="cls-7" d="M580.96,826.46c2.26-1.57,6.76-7.14,9.77-5.55,5.99,2.39-3.01,7.14-5.24,7.94"/>
    <path id="path375" class="cls-7" d="M533.26,821.84c2.26-.8,6.76-5.63,9.05-3.21,4.5,4.01-6.01,8.02-8.25,8.02"/>
    <path id="path376" class="cls-7" d="M488.8,821.58c2.24,0,9.74-4.06,10.48.8.72,4.06-11.23,5.65-13.47,6.45"/>
    <path id="path377" class="cls-7" d="M496,843.71c1.49-1.54,3.75-3.88,5.99-6.22"/>
    <path id="path378" class="cls-7" d="M487.8,832.84c.9,3.19,0,6.37.9,9.53"/>
    <path id="path379" class="cls-7" d="M451.44,863.78c3.75.77,8.22-3.11,11.98-3.88"/>
    <path id="path380" class="cls-7" d="M458.97,874.08c1.46-1.62,3.65-4.01,5.11-6.42"/>
    <path id="path381" class="cls-7" d="M514.86,875.65c3.75.77,6.71.77,10.43,1.54"/>
    <path id="path382" class="cls-7" d="M552.79,878.97c-.67,3.96.67,7.14,1.34,11.1"/>
    <path id="path383" class="cls-7" d="M563,877.19c.77,2.42,2.34,5.6,3.11,7.99"/>
    <path id="path384" class="cls-7" d="M557.21,888.96c2.21-.72,4.45-1.46,6.66-2.21"/>
    <path id="path385" class="cls-7" d="M618.22,866.12c-1.54,2.39-2.34,4.73-3.11,7.09"/>
    <path id="path386" class="cls-7" d="M625.65,862.78c-.77,3.98,0,7.14,3.01,9.53"/>
    <path id="path387" class="cls-7" d="M644.84,832.84c1.49-.77,3.75-.77,5.99-1.54"/>
    <path id="path388" class="cls-7" d="M651.71,832.84c-1.34,3.19-1.34,6.37-1.34,9.53"/>
    <path id="path389" class="cls-7" d="M587.85,719.28c2.18-2.39,5.11-3.98,7.99-1.57-1.44,3.19-5.06,4.81-7.99,5.58"/>
    <path id="path390" class="cls-7" d="M598.69,722.39c-.44,3.24-.44,6.45-.44,8.87"/>
    <path id="path391" class="cls-7" d="M588.28,732.82c2.26.9,4.55.9,7.53,0"/>
    <path id="path392" class="cls-7" d="M641.94,699.54c2.31-.9,3.83-.9,5.32,0"/>
    <path id="path393" class="cls-7" d="M640.4,709.97c1.49.67,2.96,1.34,4.45,1.34"/>
    <path id="path394" class="cls-7" d="M652.37,704.19c-1.34,2.42-1.34,4.81-2,7.99"/>
    <path id="path395" class="cls-7" d="M601.8,674.79c3.01-.8,8.2-1.64,10.43.8-2.96,2.44-7.43,2.44-10.43,2.44"/>
    <path id="path396" class="cls-7" d="M606.25,688.46c3.73,0,5.94-2.49,8.87-3.32"/>
    <path id="path397" class="cls-7" d="M557.21,725.7c1.52-2.47,2.26-4.11,3.78-5.76"/>
    <path id="path398" class="cls-7" d="M551.23,713.73c2.24-.8,3.75-1.62,5.99-2.44"/>
    <path id="path399" class="cls-7" d="M524.4,778.95c.75-2.44,2.21-4.06,4.45-4.88"/>
    <path id="path400" class="cls-7" d="M564.54,790.02c2.31.75,3.83,1.49,5.32,2.21"/>
    <path id="path401" class="cls-7" d="M572.76,788.48c-1.34-3.19,0-5.58.67-7.99"/>
    <path id="path402" class="cls-7" d="M536.37,832.84c2.21.9,5.14.9,7.32.9"/>
    <path id="path403" class="cls-7" d="M601.13,915.36c-1.54-1.62-1.54-3.24,0-4.88"/>
    <path id="path404" class="cls-7" d="M594.27,941.52c-.44,2.39-.44,4.73-.44,7.09"/>
    <path id="path405" class="cls-7" d="M628.65,996.31c3.01,0,5.99-1.54,8.2-3.11"/>
    <path id="path406" class="cls-7" d="M572.09,974.8c1.44-.8,3.6-.8,5.76-2.44"/>
    <path id="path407" class="cls-7" d="M527.27,969.45c1.52,3.11,4.55,4.65,7.53,4.65"/>
    <path id="path408" class="cls-7" d="M484.26,951.95c.75,3.11,2.18,5.42,5.11,6.22"/>
    <path id="path409" class="cls-7" d="M433.68,953.47c1.46-1.57,6.63-5.53,8.09-1.57,1.44,3.14-6.63,6.27-8.09,6.27"/>
    <path id="path410" class="cls-7" d="M467.83,923.32c2.96,0,2.96,2.34,4.45,4.65"/>
    <path id="path411" class="cls-7" d="M478.17,918.44c0,2.44-.77,4.88.77,7.32"/>
    <path id="path412" class="cls-7" d="M475.83,1040.87c.9,3.19.9,7.14.9,11.1"/>
    <path id="path413" class="cls-7" d="M484.26,1037.55c2.16,2.39,3.57,5.55,6.42,7.09"/>
    <path id="path414" class="cls-7" d="M511.08,1071.04c.72,3.93,2.16,7.84,2.88,11.74"/>
    <path id="path415" class="cls-7" d="M518.41,1066.15c0,3.21,2.24,7.2,5.99,7.99"/>
    <path id="path416" class="cls-7" d="M558.55,1067.72c3.06-.77,6.06-3.19,9.1-3.98"/>
    <path id="path417" class="cls-7" d="M568.55,1018.48c2.9,0,5.83-1.34,7.99-1.34"/>
    <path id="path418" class="cls-7" d="M575.84,1030.46c2.24,0,4.5-1.49,5.99-3.78"/>
    <path id="path419" class="cls-7" d="M623.54,1045.42c2.21.77,5.14,0,7.32-.77"/>
    <path id="path420" class="cls-7" d="M609.12,1078.8c2.26.67,4.55,0,7.53-.67"/>
    <path id="path421" class="cls-7" d="M546.14,1113.85c2.24-.82,3.75-2.49,5.99-3.32"/>
    <path id="path422" class="cls-7" d="M540.82,1105.19c2.16,2.39,2.88,5.53,2.88,8.66"/>
    <path id="path423" class="cls-7" d="M449,1008.95c.8-1.54,2.42-3.88,3.98-4.65"/>
    <g class="cls-13">
      <path id="path424" class="cls-7" d="M418.83,1039.09c2.93-.77,5.14-2.34,7.32-3.11"/>
    </g>
    <path id="path425" class="cls-7" d="M424.58,1105.86c.77-1.62,3.11-2.44,4.65-2.44"/>
    <path id="path426" class="cls-7" d="M439.67,1072.37c2.21,2.49,3.65,5.83,7.32,6.66"/>
    <path id="path427" class="cls-7" d="M454.99,1105.19c2.31.67,5.37.67,8.43.67"/>
    <path id="path428" class="cls-7" d="M640.4,964.59c1.49,0,3.73-.72,4.45-2.21"/>
    <path id="path429" class="cls-7" d="M678.54,995.64c-3.01,0-5.27.82-7.53,2.44"/>
    <path id="path430" class="cls-7" d="M544.6,939.97c-1.54,2.42-1.54,5.6-.77,7.99"/>
    <path id="path431" class="cls-7" d="M528.84,1026.35c2.96,1.67,6.66.82,8.87-1.67"/>
    <path id="path432" class="cls-7" d="M547.68,1003.4c2.11-2.36,3.49-4.7,4.88-7.09"/>
    <path id="path433" class="cls-7" d="M500.68,1002.73c-3.01,0-6.01,0-7.53-.9"/>
    <path id="path434" class="cls-7" d="M581.83,834.38c2.9,0,5.11,1.54,7.99,3.11"/>
    <path id="path494" class="cls-9" d="M653.92,908.91c2.96-.67,5.94-1.34,8.87-1.34"/>
    <path id="path495" class="cls-9" d="M657.69,918.44c.77-1.49,1.54-3.01,3.11-3.78"/>
    <path id="path496" class="cls-9" d="M631.53,1106.76c.75,3.03,3.75,3.03,5.99,3.78"/>
    <path id="path497" class="cls-9" d="M624.88,1116.29c.77,1.54,2.34,3.11,3.11,4.65"/>
    <path id="path498" class="cls-9" d="M577.85,1132.92c1.49,1.54,3.75,2.34,5.99,3.11"/>
    <path id="path499" class="cls-9" d="M567.65,1136.03c.9,1.62.9,3.96.9,5.55"/>
    <path id="path500" class="cls-9" d="M526.84,1140.01c.44,1.52.44,3.03,0,3.78"/>
    <path id="path508" class="cls-7" d="M655.25,739.19c-8.07-4.83-11.74,5.6-.72,4.83"/>
  </g>
</svg>