<?xml version="1.0" encoding="UTF-8"?>
<svg id="svg3" xmlns="http://www.w3.org/2000/svg" xmlns:xlink="http://www.w3.org/1999/xlink" viewBox="0 0 1398.49 3639.87">
  <defs>
    <style>
      .cls-1 {
        fill: #f4d589;
      }

      .cls-1, .cls-2, .cls-3, .cls-4 {
        fill-rule: evenodd;
      }

      .cls-5 {
        stroke: #333;
      }

      .cls-5, .cls-6, .cls-7, .cls-8 {
        fill: none;
      }

      .cls-5, .cls-7 {
        stroke-linecap: round;
        stroke-linejoin: round;
        stroke-width: .84px;
      }

      .cls-2 {
        fill: #fff;
      }

      .cls-9 {
        clip-path: url(#clippath-1);
      }

      .cls-7 {
        stroke: #be8e03;
      }

      .cls-8 {
        stroke: #fee8b0;
        stroke-miterlimit: 8;
        stroke-width: 1.68px;
      }

      .cls-3 {
        fill: #fee8b0;
      }

      .cls-4 {
        fill: #dec26f;
      }

      .cls-10 {
        clip-path: url(#clippath-2);
      }

      .cls-11 {
        clip-path: url(#clippath);
      }
    </style>
    <clipPath id="clippath">
      <rect class="cls-6" x="668.12" y="1449.96" width="247.15" height="104.78"/>
    </clipPath>
    <clipPath id="clippath-1">
      <rect class="cls-6" x="668.12" y="1449.96" width="247.15" height="104.78"/>
    </clipPath>
    <clipPath id="clippath-2">
      <rect class="cls-6" x="679.94" y="1457.8" width="223.5" height="94.76"/>
    </clipPath>
  </defs>
  <g id="_췌장" data-name="췌장">
    <g class="cls-11">
      <path id="path2" class="cls-3" d="M680.47,1480.99c-9.76,3.48-11.24,18.69-11.51,22.45-.5,3.19-.24,13.36.26,16.56.5,3.22,4.25,6.15,4.25,9.9.24,4.28.75,4.81,2.24,8.56,3,8.53,9.51,12.81,18.03,14.42,4.25.79,6.77.79,11.27,1.06,1.76,0,4.5-.26,6.51-.79,2.5-.53,3.75-1.06,6.01-1.87,2.5-.79,4.76-1.06,6.99-2.14,4.25-2.4,4.76-1.87,9.28-2.66,5-.79,8.24-4.28,12.02-6.68,3.24-1.87,5.24-2.93,8.75-5.07,3-1.87,6.01-9.9,4.02-13.09l.5.53c4.25,0,8.5-.26,13-.53,9.25-.26,20.28-.53,29.3-3.19,5.5-1.61,11.75-2.96,17.52-3.22,6.24-.26,10.26-1.87,16.51-3.72,9.25-2.69,18.53-13.92,27.28-16.58,1.99-.79,4.52-2.66,6.76-3.46,1.76-.55,4.02-.55,5.77-1.08,4.25-1.32,14.25-5.6,18.03-7.47,6.76-2.93,24.01-14.15,20.77-29.13-1.01-5.36-10.51-2.93-18.77,0-5.77,2.14-13.77,1.32-20.02,1.32-5.26,0-8,.29-13.03.55-3.75,0-7.26.79-11.01,1.06-4.02,0-6.01,1.34-10.02,1.87-4.5.53-10.26-.79-14.99-1.34-5.26-.53-12.78,0-18.29,1.34-10,2.14-21.78,1.34-32.78.53-11.51-.53-21.27-2.66-32.78-.79-9.76,1.61-23.79-.26-32.8,5.07-3.49,2.14-13.26,4.81-16.25,7.47-4.28,4.02-8.77,6.42-13.03,10.17h.2v-.02Z"/>
    </g>
    <path id="path3" class="cls-1" d="M727,1529.65c4.52-1.06,8.8-4.25,13.31-5.87,3.99-1.32,8.77-1.87,12.78-.79,8.5,2.14,1.25,9.59-3.03,12.52-5.26,3.49-11.03,8-17.04,9.35-8.53,1.85-16.8,5.07-25.57,6.92-4.02.79-7.52.26-11.54-.79-2.26-.53-7.79-.53-9.3-2.14,4.78,0,10.04,0,14.3-2.4,3.5-2.12,4.02-.53,7.79,0,3.5.26,9.01-.79,11.77-2.66,2.52-1.32,3.77-4.25,6.03-5.6,4.02,4.81,9.78,2.14,14.03,0,3.5-1.85,10.02-1.32,11.03-6.92-.24-.26-.5,0-.75-.26-2.52-5.34-10.52-2.93-14.8-1.34-3.27,1.34-5.26,2.4-8.77,2.4-2.76,0-5.26.79-7.79,1.34,2.02-2.4,4.52-2.93,7.04-3.49l.49-.27Z"/>
    <path id="path4" class="cls-1" d="M740.08,1528.26c3-.29,4.25,3.75,3.27,6.44,1.23-1.06,1.73-2.96,2.98-3.75,1.99-1.08,3.5.53,5,0,5.48-1.63-3.5-5.12-5.74-5.67l-5.51,2.98Z"/>
    <path id="path5" class="cls-1" d="M727.48,1531.52c-1.23,1.61-1.73,3.46-1.97,5.57-1.99-2.65-3.72-3.7-6.97-2.91l8.93-2.66Z"/>
    <path id="path6" class="cls-1" d="M718.47,1529.39c5.26.55,9.01-3.75,13.51-5.62,4.73-2.14,10-2.4,14.73-4.02-1.99-.53-3.99-2.66-4.73-4.56-3.75,1.9-3.75,3.49-8,3.49-3.99,0-5,1.87-7.26,4.83-1.99,2.69-7.24,1.87-8.75,3.75-1.25,1.61.26,1.87-2.5,4.28l3-2.14Z"/>
    <path id="path7" class="cls-1" d="M751.03,1519.75c3.27,0,5.26-3.22,8.03-3.75,2.02-.26,4.76.79,7.28.53,3.75-.53,7.26-.26,11.01-.79,4.52-.53,6.03-3.22,9.54-5.36,2.24,4.02,7.77,3.22,11.51,3.22,3.51-.26,7.77.79,11.27,1.34-3.75,0-7.77,1.85-11.27,2.4-4.25.79-7.26,1.59-11.27,1.85-6.01.82-11.77.55-17.54,1.08-4.02.53-13.29,1.06-17.04-.26l-1.52-.27Z"/>
    <path id="path8" class="cls-1" d="M818.32,1513.93c2.26-.79,3.03-2.93,5.29-3.46,1.99-.53,4.25-.26,6.24-.79,4.28-1.61,12.55-3.75,15.31-8.03,1.25-1.59,1.49-4.81,1.76-6.94,0-3.46,0-2.66,3.27-2.66,4.25,0,8.5-1.06,12.28-2.14,2.26-.53,8.03-2.12,8.5-4.52,2.76.79,4.78.26,7.52-.29,2.02,0,4.28.82,5.77,0-1.76,1.87-4.25,1.87-6.51,2.69-2.76,1.06-6.77,1.85-9.28,2.66-5.26,1.32-10.77,4.54-15.29,7.21-2.76,1.85-4.52,4.54-7.02,6.4-2.02,1.61-4.52,2.96-6.54,4.28-4.5,2.93-10.26,4.02-15.29,4.81-1.51.26-4.02.79-5.03.53l-.99.26Z"/>
    <path id="path9" class="cls-1" d="M882.51,1486.1c3.24-.79,5.48-2.66,8.48-3.99,2.74-1.34,5.74-1.87,8.22-3.75,3.5-2.4,9.73-7.21,10.72-12.02-1.99,2.4-4.98,4.02-7.98,4.28,0,3.75-6.23,7.74-9.2,8-3.5.55-4.25,1.08-6.76,3.22-2.98,2.4-5.72,3.99-9.23,4.78l5.75-.52Z"/>
    <path id="path10" class="cls-1" d="M905.24,1452.98c3.97-.29,6.71-.29,7.19,5.09,0,2.14-.48,4.02-1.23,5.89-.75,1.9-2.48,6.18-3.72,6.71,1.25-3.22,1.49-6.15-2.74-5.09.5-2.4,5.22-4.02,5.48-8.05,0-2.4-2.74-4.02-4.73-4.83l-.24.29Z"/>
    <path id="path11" class="cls-1" d="M867.93,1475.72c1.01,1.06,1.76,2.38,1.99,3.41.24-1.82.24-4.47.98-6.06l-2.98,2.65Z"/>
    <path id="path12" class="cls-1" d="M886.28,1460.39c.98.82,2.21.82,3.66,1.11-.72.26-1.2,1.34-1.2,2.16l-2.45-3.27Z"/>
    <path id="path13" class="cls-1" d="M851.39,1461.83c1.76.26,3.24-1.06,5.48-.26-.98.53-1.49,1.59-.98,2.38l-4.5-2.12Z"/>
    <path id="path14" class="cls-1" d="M814.88,1477.6c.26,1.87,1.51,3.22,1.99,4.81-.75-.53-1.73-1.06-2.5-.79l.5-4.02Z"/>
    <path id="path15" class="cls-1" d="M820.1,1512.03c1.78-.26,5.56,0,7.07-1.34-1.01-1.34-3.77-1.61-5.29-2.43-1.28,1.63-2.52,2.98-3.55,4.03l1.77-.26Z"/>
    <path id="path16" class="cls-1" d="M847.93,1487.5c-1.28,1.87-1.78,3.99-3.55,5.05,1.54,1.08,1.54,4.25.77,6.1.77-1.32,2.29-2.91,4.03-2.91-.75-2.66-1.51-4.25-1.51-7.69l.26-.55Z"/>
    <path id="path17" class="cls-1" d="M755.55,1485.5c2.26,0,4.02,2.98,5.26,4.59-.26-1.87.24-4.03.98-5.67-.98,1.08-2.74.82-3.99.29l-2.25.8Z"/>
    <path id="path18" class="cls-1" d="M764.78,1468.46c1.28.82,1.28,2.43,1.78,3.75,1.01-.79,2.02-1.06,3.03-1.32-1.51.26-2.76-.82-3.53-2.14l-1.28-.29Z"/>
    <path id="path19" class="cls-1" d="M784.1,1478.65c1.01.79,1.51,1.85,2.02,3.17.24-1.06,1.51-1.59,2.5-2.38-.98.26-2.26,0-2.74-1.08l-1.77.29Z"/>
    <path id="path20" class="cls-1" d="M782.27,1499.22c3.53,2.14,1.28,5.62,2.79,8.27-.26-2.12.5-3.46,2.5-4.78l-5.29-3.49Z"/>
    <path id="path21" class="cls-1" d="M755.74,1518.07c1.01-1.28,2.26-2.83,3.27-4.13.75,1.82,2.5,2.6,4.23,3.36l-7.5.77Z"/>
    <path id="path22" class="cls-1" d="M722.67,1499.22c-1.73,1.61-.48,4.25-1.49,5.57-1.23,1.06-3.22.53-4.47,2.12.75-2.91,3.99-3.97,4.98-7.14l.98-.55Z"/>
    <path id="path23" class="cls-1" d="M700.18,1518.07c1.03,1.08,2.83,1.08,3.85,1.9-.77.82-1.28,1.63-2.04,2.43v-.79l-1.81-3.54Z"/>
    <path id="path24" class="cls-1" d="M701.72,1482.4c-.5,2.16,1.01,2.43,1.76,3.49,1.01,1.34,1.76,2.43,1.99,4.02-.98-1.59-3-1.87-4.52-2.4l.77-5.1Z"/>
    <path id="path25" class="cls-1" d="M715.17,1470c1.03,2.98,4.56.82,5.57,3.24-1.25,0-2.52.29-3.29,1.08l-2.28-4.33Z"/>
    <path id="path26" class="cls-1" d="M674.61,1532.01c1.01,6.97,4.02,11.77,9.54,15.77,3.5,2.69,21.31,4.81,18.82-3.19-2.5,0-5.03,1.87-8.03.79-3-1.06-4.25-3.99-5.03-6.94-3.5.26-6.77,3.22-10.52.82-2.52-1.61-2.02-6.42-3.77-7.24h-1.01Z"/>
    <path id="path27" class="cls-1" d="M721.76,1531.71c-2.24,1.08-3.72,1.08-5.72,1.9,1.01,1.61,4.5,2.14,6.23,2.4,2.48.53,3.97.79,3.22-2.96l-3.72-1.34Z"/>
    <path id="path28" class="cls-1" d="M684.12,1507.49c.77.53,1.28,1.32,1.54,2.12,1.01-.79,2.29-1.59,3.55-1.85-1.01-.26-2.29-.26-3.29-.26h-1.8Z"/>
    <path id="path29" class="cls-2" d="M861.2,1458.09c4.02,0,18.03-2.96,20.79,1.08,1.99-2.96,6.76-1.61,9.76-2.16,4.25-.79,8.75-1.87,13-2.96-3.49,1.9-7.26,5.12-11.24,5.12-2.5,0-5.26-1.34-8-.82-2.26.55-3.77,2.96-5.77,3.22-1.25.26-5-2.14-6.99-2.4-1.51-.26-3.27-.26-4.52-.26l-7.03-.82Z"/>
    <path id="path30" class="cls-2" d="M830.62,1459.4c3.03.26,6.03,1.08,9.28.82,3.5,0,7.52-1.37,11.01-.29-3.24,0-6.76,1.37-9.76,3.24-1.99-1.61-4.76-1.61-6.51-2.43l-4.02-1.34Z"/>
    <path id="path31" class="cls-2" d="M797.85,1461.25c6.01,0,12.52-.82,18.26-1.63-1.25.29-1.73,1.34-2.5,1.9-1.49.79-.75.53-2.26.79-3,.55-4.76.55-7.5,2.69-1.01-2.69-4.52-2.69-6.77-2.96l.76-.79Z"/>
    <path id="path32" class="cls-2" d="M741.23,1460.53c7.28-1.87,12.55-1.32,20.07-.79,6.76.53,14.03,1.85,20.79,1.59-1.25,0-2.74.26-3.99.79-.77.53-1.01,1.59-1.76,1.59-1.76.53-5.77-1.59-7.79-1.85-3.75-.26-13.53-2.91-16.3.79-2.26-2.12-9.01-2.65-10.77-1.32l-.26-.8Z"/>
    <path id="path33" class="cls-2" d="M693.16,1473.27c2.76-4.76,11.77-5.82,16.53-8.48,5.77-2.91,10.29-3.44,16.53-3.72-2.5.82-5.5,1.87-7.26,3.99-2.5-2.91-10.77.79-7.52,4.78-3-2.38-6.76-.53-9.51.79-2.5,1.32-5.26,1.85-7.77,2.65h-1Z"/>
    <path id="path34" class="cls-2" d="M679.51,1483.17c-10.09,9.61-10.09,23.99-7.81,37.3.75-3.46-.26-7.45,2.76-9.85-4.28-1.32,0-17.04,1.76-20.5.26.53.77.53,1.28,1.32.5-3.72,2.02-5.6,4.52-7.98-.48-.29-.48,0-.75,0l-1.76-.29Z"/>
    <path id="path35" class="cls-2" d="M686.69,1481.05c-.26-2.19,1.99-3.85,3.97-3.85l-3.97,3.85Z"/>
    <path id="path36" class="cls-2" d="M713.73,1470.67c2.31,1.59,1.54,4.2,1.54,6.54l-1.54-6.54Z"/>
    <path id="path37" class="cls-2" d="M739.74,1482.89c-1.01,2.69.24,6.71,1.49,8.56l-1.49-8.56Z"/>
    <path id="path38" class="cls-2" d="M741.23,1465.58c1.78-1.32,4.3-2.12,6.82-2.12l-6.82,2.12Z"/>
    <path id="path39" class="cls-2" d="M794.77,1469.23c.26-2.4,2.04-3.49,4.33-4.03l-4.33,4.03Z"/>
    <path id="path40" class="cls-2" d="M828.13,1466.35c1.25-1.37,3.27-1.92,5-1.92l-5,1.92Z"/>
    <path id="path41" class="cls-2" d="M848.22,1464.74c2.5-1.08,4.98-.79,7.69.26l-7.69-.26Z"/>
    <path id="path42" class="cls-2" d="M812.17,1487.98c1.28-1.87,1.78-3.46,4.52-3.75l-4.52,3.75Z"/>
    <path id="path43" class="cls-2" d="M820.82,1504.51c1.01,2.12,4.28,3.94,6.54,3.7l-6.54-3.7Z"/>
    <path id="path44" class="cls-2" d="M783.81,1497.59c2.5,2.12,7.02,3.17,10,1.85l-10-1.85Z"/>
    <path id="path45" class="cls-2" d="M786.6,1508.26c.5-2.88,2.48-3.68,5.19-3.94l-5.19,3.94Z"/>
    <path id="path46" class="cls-2" d="M788.33,1485.29c0-1.59,0-3.72,1.82-4.81l-1.82,4.81Z"/>
    <path id="path47" class="cls-2" d="M764.3,1484.8c-1.49,2.38-2.5,7.66-1.25,9.23l1.25-9.23Z"/>
    <path id="path48" class="cls-2" d="M769.3,1473.27c-1.54,1.08-1.54,2.71-1.28,4.33l1.28-4.33Z"/>
    <path id="path49" class="cls-2" d="M785.06,1463.94c1.76-1.34,4.02-1.63,6.24-.53l-6.24.53Z"/>
    <path id="path50" class="cls-2" d="M730.55,1462.31c1.73-1.25,3.7-.98,5.67-.24l-5.67.24Z"/>
    <path id="path51" class="cls-2" d="M716.71,1479.14c.77-2.67,3.77-4.81,6.54-4.81l-6.54,4.81Z"/>
    <path id="path52" class="cls-2" d="M698.16,1492.79c1.29-1.85,3.58-3.17,5.87-1.85l-5.87,1.85Z"/>
    <path id="path53" class="cls-2" d="M682.15,1489.61c-.53-2.12,1.78-4.81,3.8-4.81l-3.8,4.81Z"/>
    <path id="path54" class="cls-2" d="M686.43,1515.47c0-1.87,1.03-5.39,3.55-5.09l-3.55,5.09Z"/>
    <path id="path55" class="cls-2" d="M703.47,1525.08c-.5-1.59.5-2.65,1.99-3.46l-1.99,3.46Z"/>
    <path id="path56" class="cls-2" d="M717.67,1508.84c2.02-1.95,4.54-2.79,7.3-2.79l-7.3,2.79Z"/>
    <path id="path57" class="cls-2" d="M759.37,1507.97c-.26,2.45,1.68,5.4,3.87,5.67l-3.87-5.67Z"/>
    <path id="path58" class="cls-2" d="M839.37,1492.01c2.79-.26,4.78-1.85,6.54-4.52l-6.54,4.52Z"/>
    <path id="path59" class="cls-2" d="M861.87,1474.04c2.02,1.63,5.03-.26,7.02-1.63l-7.02,1.63Z"/>
    <path id="path60" class="cls-2" d="M885.42,1462.6c1.51,1.34,2.5,4.3,1.76,6.15l-1.76-6.15Z"/>
    <path id="path61" class="cls-2" d="M898.78,1466.64c1.76.96,4.47.96,6.44.24l-6.44-.24Z"/>
    <path id="path62" class="cls-2" d="M898.78,1471.63c-1.28,1.63-1.78,4.33-3.85,4.33l3.85-4.33Z"/>
    <path id="path63" class="cls-2" d="M860.72,1461.54c-1.29.55-1.82,1.34-1.82,2.4l1.82-2.4Z"/>
    <path id="path64" class="cls-2" d="M693.71,1540.37c-.26,3.17,3.55,2.38,5.31,1.59l-5.31-1.59Z"/>
    <path id="path65" class="cls-2" d="M703.71,1537.1c-.26,3.22,1.49,5.89,3.97,7.21l-3.97-7.21Z"/>
    <path id="path66" class="cls-2" d="M728.8,1533.35c-.75,1.87.24,4.25,1.46,5.57l-1.46-5.57Z"/>
    <path id="path67" class="cls-1" d="M784.1,1502.4c1.49,5.07-3.77,7.21-7.02,9.08-1.99,1.34-3.75,2.93-6.01,4.02-1.49.53-3.49.53-4.76,1.59,3.27.79,9.01-.79,12.76-1.59,2.02-.29,4.25-.55,6.01-1.87-.5-2.14-1.76-7.21.75-8.82l-1.73-2.41Z"/>
    <path id="path68" class="cls-1" d="M784.63,1504.51c.48,3.75,1.23,5.36,2.93,8.03-1.23.79-3.92,1.59-4.42,0l1.49-8.03Z"/>
    <path id="path69" class="cls-1" d="M813.13,1511.96c3.49.53,9.71-3.99,4.5-6.4,1.73,2.93-2.24,3.75-3.24,5.6l-1.25.8Z"/>
    <path id="path70" class="cls-1" d="M838.87,1495.45c1.99.26,3-1.06,4.76-1.61.48,1.34-.5,2.14-.26,3.19,0,1.61.75,2.66.75,4.02.75,5.05-4.98,5.84-8.48,6.63,2.26-1.59,6.01-3.46,5.5-7.45,0-1.32-1.25-3.72-2.74-3.99l.47-.79Z"/>
    <path id="path71" class="cls-1" d="M862.71,1477.81c1.49.79,2.74-1.08,4.25-.26.98.79,1.99,3.19,2.24,4.52.26,1.59.75,4.78-.24,6.13-1.25,2.38-5.5,2.38-7.77,3.44,3-1.32,6.76-4.25,6.51-8.24-.5-4.52-4.76-2.38-5.26-5.57h.27Z"/>
    <path id="path72" class="cls-1" d="M869.2,1481.83c.24,2.14,2.26,2.14,2.76,3.75.48,2.14-3.77,2.93-5.29,3.46l2.52-7.21Z"/>
    <path id="path73" class="cls-1" d="M738.24,1461.06c.77,1.08,2.02,1.87,3.03,2.4,1.01-.79,2.26-1.06,3.5-1.32-1.76,0-3.5.26-5.26,0l-1.27-1.08Z"/>
    <path id="path74" class="cls-1" d="M793.81,1462.03c.77,1.11,1.28,2.19,2.29,2.98.75-1.61,2.76-1.87,3.77-1.61-1.76-.26-3.53-1.08-5.05-1.08l-1.01-.29Z"/>
    <path id="path75" class="cls-4" d="M717.27,1533.86c.5-.53,1.99-1.06,2.26-1.59.5-.55.98-1.08,1.49-1.34.77-.53,1.76-1.08,2.76-1.34,1.76-.53,3.5,0,5.03-1.61,1.49-1.32,2.74-2.66,4.5-3.46,2.02-.82,4.02-1.08,5.77-1.61,1.76-.55,3.5-1.08,5.26-1.61,1.76-.53,3-.82,4.76-.82,1.76.29,3.5.82,5.26,1.08,1.01.26,3.5,0,4.28.79.48.82.24,3.22,0,4.02,0,1.08,0,2.16-.26,3.22-.24,1.08-1.01,1.87-1.49,2.69,0-1.87,0-4.03-1.51-5.62-1.25-1.34-3.5-2.14-5.5-2.14-3.27,0-7.52.53-10.79,2.14-1.49.79-3.24,1.06-5,1.87-2.26.79-4.78,1.06-6.77,1.87-1.01.26-1.25.79-1.99,1.59-.77.82-1.28.29-2.02.82-1.01.53-2.26,1.06-3.24,1.32-.77,0-2.52-.26-3.03,0l.25-.25Z"/>
    <path id="path76" class="cls-4" d="M760.26,1520.33c2.76.82,6.29,0,9.03-.26,3.03,0,5.79-.29,8.8-.29,3-.26,6.03,0,9.03-.26,3.5-.29,6.77-1.37,10.52-2.21-4.52,2.21-10.02.84-14.54.55-3.03-.26-5.53.29-8.29.84-1.99.53-4.52,1.08-6.51.82l-8.04.81Z"/>
    <path id="path77" class="cls-4" d="M848.67,1501.56c4.02-3.7,9.03-7.66,14.06-9.54-1.25,0-2.74,1.08-4.25,1.61-1.51.53-3.27,1.06-4.78,1.59-1.76.79-2.26,1.85-3.27,3.17-.75.53-1.25,1.32-1.76,2.12s-.75,2.12-1.51,2.38l1.51-1.33Z"/>
    <path id="path78" class="cls-4" d="M683.94,1547.82c3,.79,5.53,2.65,8.5,3.44,3.27.79,6.27.79,9.76,1.06,3.27.26,6.51.26,9.76-.53,1.76-.79,3.27-1.32,5.03-1.85,1.49-.79,3.24-1.85,4.73-2.65-6.99,3.17-10.74,3.7-17.5,3.7-1.76.26-6.76-.26-8.27-.79-2.26-.26-3.75-.53-5.74-1.06-2.02-.53-4.52-1.06-6.27-1.85v.53Z"/>
    <g class="cls-9">
      <path id="path79" class="cls-5" d="M680.52,1481.03c-9.76,3.49-11.25,18.7-11.51,22.45-.5,3.19-.24,13.36.26,16.56.5,3.22,4.25,6.15,4.25,9.9.24,4.28.75,4.81,2.24,8.56,3,8.53,9.51,12.81,18.03,14.42,4.25.79,6.77.79,11.27,1.06,1.76,0,4.5-.26,6.51-.79,2.5-.53,3.75-1.06,6.01-1.87,2.5-.79,4.76-1.06,6.99-2.14,4.25-2.4,4.76-1.87,9.28-2.66,5-.79,8.24-4.28,12.02-6.68,3.24-1.87,5.24-2.93,8.75-5.07,3-1.87,6.01-9.9,4.02-13.09l.5.53c4.25,0,8.5-.26,13-.53,9.25-.26,20.28-.53,29.3-3.19,5.5-1.61,11.75-2.96,17.52-3.22,6.24-.26,10.26-1.87,16.51-3.72,9.25-2.69,18.53-13.92,27.28-16.58,1.99-.79,4.52-2.66,6.76-3.46,1.76-.55,4.02-.55,5.77-1.08,4.25-1.32,14.25-5.6,18.03-7.47,6.76-2.93,24.01-14.15,20.77-29.13-1.01-5.36-10.51-2.93-18.77,0-5.77,2.14-13.77,1.32-20.02,1.32-5.26,0-8,.29-13.03.55-3.75,0-7.26.79-11.01,1.06-4.02,0-6.01,1.34-10.02,1.87-4.5.53-10.26-.79-14.99-1.34-5.26-.53-12.78,0-18.29,1.34-10,2.14-21.78,1.34-32.78.53-11.51-.53-21.27-2.66-32.78-.79-9.76,1.61-23.79-.26-32.8,5.07-3.49,2.14-13.26,4.81-16.25,7.47-4.28,4.02-8.77,6.42-13.03,10.17"/>
    </g>
    <path id="path80" class="cls-7" d="M780.68,1497.64c4.5,4.23,9.73,6.06,15.96,3.7"/>
    <path id="path81" class="cls-7" d="M787.9,1502.44c-2.02,1.32-2.79,3.7-2.52,6.06"/>
    <path id="path82" class="cls-7" d="M813.66,1474.86c2.21,4.03.48,8.87-2.5,11.82"/>
    <path id="path83" class="cls-7" d="M814.23,1481.58c1.99.26,4.2.79,5.67,2.12"/>
    <path id="path84" class="cls-7" d="M836.44,1494.49c4.52.26,11.54-2.69,11.3-8.39"/>
    <path id="path85" class="cls-7" d="M844.71,1492.54c1.06,1.87,1.06,4.02,0,6.15"/>
    <path id="path86" class="cls-7" d="M846.24,1464.55c2.76-2.43,9.51-3.24,11.24,1.08"/>
    <path id="path87" class="cls-7" d="M855.95,1463.51c.5-1.87,1.76-2.69,3.75-2.69"/>
    <path id="path88" class="cls-7" d="M859.71,1475.43c3.75,2.69,10.77-.26,11.24-5.39"/>
    <path id="path89" class="cls-7" d="M867.49,1475.72c2.24,1.08,2.98,3.49,2.5,5.87"/>
    <path id="path90" class="cls-7" d="M892.48,1477.07c4.56,1.06,8.1-2.93,8.84-7.21"/>
    <path id="path91" class="cls-7" d="M897.96,1468.25c3.03,1.8,7.52,1.03,9.51-1.56"/>
    <path id="path92" class="cls-7" d="M885.75,1460.44c2.5,1.9,3.75,5.14,2.5,8.36"/>
    <path id="path93" class="cls-7" d="M888.83,1464.28c.75-1.59,1.73-2.4,3.46-2.12"/>
    <path id="path94" class="cls-7" d="M808.18,1513.14c4.25,3.24,12.02.26,13.75-4.64"/>
    <path id="path95" class="cls-7" d="M819.43,1505.32c1.78,2.16,4.06,4.33,6.82,3.8"/>
    <path id="path96" class="cls-7" d="M782.61,1463.97c4.02-3.53,10.52-3.53,14.03,1.08"/>
    <path id="path97" class="cls-7" d="M801.35,1464.04c-3.97-.82-6.68,1.32-7.69,5.82"/>
    <path id="path98" class="cls-7" d="M744.06,1515.25c3.29,6.9,11.82,1.85,15.09-2.14"/>
    <path id="path99" class="cls-7" d="M758.09,1509.65c.77,3.22,2.79,7.21,6.54,6.15"/>
    <path id="path100" class="cls-7" d="M763.09,1483.22c-1.73,3.49-2.98,9.11-.48,12.3"/>
    <path id="path101" class="cls-7" d="M761.08,1489.95c-2.24-2.66-5.24-5.09-8.75-4.28"/>
    <path id="path102" class="cls-7" d="M728.59,1462.93c3.77-5.67,9.54-1.34,13.56,1.06"/>
    <path id="path103" class="cls-7" d="M739.25,1465.92c3.03-3.27,7.55-5.48,11.05-1.37"/>
    <path id="path104" class="cls-7" d="M691,1475.72c-4.28,0-7.3,3.19-6.8,7.98"/>
    <path id="path105" class="cls-7" d="M687.73,1483.77c-4.23-1.9-7.98,4.28-7.71,8.29"/>
    <path id="path106" class="cls-7" d="M701.26,1480.05c1.46,4.54-.75,10.17-4.69,12.02"/>
    <path id="path107" class="cls-7" d="M700.71,1487.79c3.55-.53,6.82,1.85,6.82,5.82"/>
    <path id="path108" class="cls-7" d="M714.07,1469.09c2.74,2.4,4.71,7.16,1.49,9.81"/>
    <path id="path109" class="cls-7" d="M716.76,1475.53c2.02-1.87,4.52-2.69,7.02-2.14"/>
    <path id="path110" class="cls-7" d="M716.09,1524.58c3.97,2.66,10.67-1.34,11.15-6.46"/>
    <path id="path111" class="cls-7" d="M723.78,1515.71c1.51,5.48,8.56,3.03,11.82.29"/>
    <path id="path112" class="cls-7" d="M716.28,1509.65c.77-5.03,7.28-5.29,10.77-4.23"/>
    <path id="path113" class="cls-7" d="M721.76,1504.37c0-2.43.53-5.43,2.79-6.24"/>
    <path id="path114" class="cls-7" d="M738.29,1483.7c-1.25,3.22-.48,6.97,2.5,8.84"/>
    <path id="path115" class="cls-7" d="M738.29,1488.79c-1.73,0-3.72,0-5.48.48"/>
    <path id="path116" class="cls-7" d="M674.49,1520.52c-2.82,4.86-2.04,10.79,3.53,12.4"/>
    <path id="path117" class="cls-7" d="M678.5,1528.4c-.77,2.93-1.82,8.24,1.54,10.09"/>
    <path id="path118" class="cls-7" d="M683.21,1506.96c3.03,2.16,3.27,6.2,1.51,9.42"/>
    <path id="path119" class="cls-7" d="M685.71,1510.71c1.51-1.29,3.53-1.82,5.29-1.56"/>
    <path id="path120" class="cls-7" d="M691.48,1541.19c2.76,5.57,8.53,4.25,12.78,1.61"/>
    <path id="path121" class="cls-7" d="M702.73,1538.98c0,2.71,1.28,4.87,3.55,5.96"/>
    <path id="path122" class="cls-7" d="M699.27,1517.34c2.24,2.43,3.46,5.65,2.48,8.84"/>
    <path id="path123" class="cls-7" d="M702.25,1522.44c.75-1.37,1.99-1.92,3.46-1.92"/>
    <path id="path124" class="cls-7" d="M783.38,1477.94c2.71,1.32,3.94,5.56,2.96,8.17"/>
    <path id="path125" class="cls-7" d="M786.36,1482.06c.5-1.25,1.49-2.02,2.98-2.02"/>
    <path id="path126" class="cls-7" d="M818.85,1461.33c2.79-3.29,9.61-2.19,10.87,2.19"/>
    <path id="path127" class="cls-7" d="M827.21,1465.25c1.49-1.85,3.72-2.4,5.96-2.12"/>
    <path id="path128" class="cls-7" d="M763.57,1468.03c2.52,2.38,3.27,5.82,2.79,9.23"/>
    <path id="path129" class="cls-7" d="M766.36,1472.83c1.25-.87,2.71-1.15,3.94-1.15"/>
    <path id="path130" class="cls-7" d="M743.58,1535.8c3.27,1.06,8.03-1.06,8.27-4.81"/>
    <path id="path131" class="cls-7" d="M742.82,1530.99c1.25,2.98.26,5.96-2.5,7.02"/>
    <path id="path132" class="cls-7" d="M727.28,1533.69c-1.01,2.43-.5,5.12,1.49,6.73"/>
    <path id="path133" class="cls-7" d="M726.76,1537.15c-1.46.29-3.22.82-4.71,1.63"/>
    <path id="path134" class="cls-5" d="M716.09,1533.71c3,.26,3.5-2.14,5.77-3.49,1.99-1.08,4.02-.55,5.77-1.34,1.99-.82,2.98-2.98,5-4.03,1.25-.55,3.24-.55,4.5-1.08,3.75-1.61,8-2.96,12.02-2.96,3.5-.29,7.02,1.61,10.51,1.06"/>
    <path id="path135" class="cls-8" d="M706.5,1493.27c.5-.53,3-1.59,2.76-2.65-.5-1.87-3.77.26-4.28.79"/>
    <path id="path136" class="cls-8" d="M738.24,1492.49c.77-.26,1.28-.53,2.02-1.34"/>
    <path id="path137" class="cls-8" d="M753.84,1483.73c-1.76,4.54,2.96,2.96,2.48-.55"/>
    <path id="path138" class="cls-8" d="M765.25,1476.44c.77-.5,1.51-.77,2.5-.77"/>
    <path id="path139" class="cls-8" d="M765.25,1467.12c-.45.84-.92,1.4-1.15,1.92"/>
    <path id="path140" class="cls-8" d="M749.59,1462.62c0,1.32-.5,2.38-1.82,2.38.26-1.06.26-2.12.53-3.17"/>
    <path id="path141" class="cls-8" d="M739.02,1464.42c.5.58.77.87,1.25,1.45"/>
    <path id="path142" class="cls-8" d="M728.25,1461.06c.77.53,1.51,1.32,2.02,2.12"/>
    <path id="path143" class="cls-8" d="M713.54,1470c.72-.24,1.2-.77,1.92-1.54"/>
    <path id="path144" class="cls-8" d="M722.48,1471.93c.19.55.19,1.11.19,1.63"/>
    <path id="path145" class="cls-8" d="M715.17,1477.89c.29.48.82.72,1.34.96"/>
    <path id="path146" class="cls-8" d="M703.45,1480.48c-1.25.29-2.74.29-3.75,1.08.5,1.32,2.26,1.32,3.75,1.06"/>
    <path id="path147" class="cls-8" d="M696.98,1493.55c-1.51-2.12-.26-4.52.98-2.12"/>
    <path id="path148" class="cls-8" d="M679.41,1490.62c1.76,1.87,3.75-1.06.26-1.87"/>
    <path id="path149" class="cls-8" d="M686.15,1483.94c.26-.24.53-.75,1.06-1.25"/>
    <path id="path150" class="cls-8" d="M690.18,1474.62c.48,1.56-.24,2.6-1.46,1.82-.26-.26,0-.26.24-.77"/>
    <path id="path151" class="cls-8" d="M698.16,1518.45c.77,0,1.54-.53,2.31-1.34"/>
    <path id="path152" class="cls-8" d="M684.51,1514.96c1.49,2.14,2.69-.55,0-1.9"/>
    <path id="path153" class="cls-8" d="M689.7,1509.9c0-.79.26-1.59.77-2.4"/>
    <path id="path154" class="cls-8" d="M682.68,1508.45c.77-.24,1.51-.77,2.5-1.54"/>
    <g class="cls-10">
      <path id="path155" class="cls-8" d="M684.71,1521.56c3.45,1.74-.67,4.17-1.15,1.48"/>
    </g>
    <path id="path156" class="cls-8" d="M676.65,1528.55c.98,0,2.24.82,2.48,1.87-.98.53-2.24.26-2.98-.26"/>
    <path id="path157" class="cls-8" d="M692,1542.77c.24-.29.48-.87.96-1.45"/>
    <path id="path158" class="cls-8" d="M704.99,1544.5c.53,0,1.03-.48,1.54-.96"/>
    <path id="path159" class="cls-8" d="M726.52,1534.7c.26.19.77.19,1.25,0"/>
    <path id="path160" class="cls-8" d="M723.06,1537.67c0,.53.45,1.29.67,1.54"/>
    <path id="path161" class="cls-8" d="M734.69,1517.11c-.72-.55-1.45-1.37-1.92-2.21"/>
    <path id="path162" class="cls-8" d="M723.06,1517.34c1.25-.53,2.24-1.59,3.22-1.87.24,1.34-.75,2.4-1.73,3.46"/>
    <path id="path163" class="cls-8" d="M726.23,1503.45c-.43,1.11-.67,2.19-.43,2.98"/>
    <path id="path164" class="cls-8" d="M722.67,1497.3c.26,1.34,1.29,2.16,2.6,2.69"/>
    <path id="path165" class="cls-8" d="M700.18,1524.8c.5.29,1.28.29,2.02.29"/>
    <path id="path166" class="cls-8" d="M705.47,1520.86c-.72-.53-.96-1.08-.48-1.92"/>
    <path id="path167" class="cls-8" d="M716.23,1525.95c1.03-1.11,1.54-2.24,2.31-3.08"/>
    <path id="path168" class="cls-8" d="M744.2,1516.27c.79-.53,1.85-1.08,2.65-1.37.24,1.37-.26,2.48-.53,3.55"/>
    <path id="path169" class="cls-8" d="M741.71,1537.1c-.67-.24-.92-.77-1.15-1.54"/>
    <path id="path170" class="cls-8" d="M780.64,1498.65c.75-.5,1.23-1.29,1.97-1.82,1.2,1.32,0,3.39-1.23,4.42"/>
    <path id="path171" class="cls-8" d="M795.58,1503.45c.24-1.06.24-2.12.24-3.46-1.49.29-2.5,2.14-1.49,3.46"/>
    <path id="path172" class="cls-8" d="M811.59,1485.33c1.51,3.13,3.27-2.65.77-1.59"/>
    <path id="path173" class="cls-8" d="M813.61,1476.73c.75-.79,1.49-1.32,2.21-2.4"/>
    <path id="path174" class="cls-8" d="M819.38,1459.64c.26,5.56,4.52.26,2.02-.79"/>
    <path id="path175" class="cls-8" d="M831.87,1462.31c-.43.55-.67,1.4-.43,1.92"/>
    <path id="path176" class="cls-8" d="M837.38,1496.25c-.5-1.32-.24-2.91.5-4.23,1.01.53,1.25,1.85,1.49,2.91"/>
    <path id="path177" class="cls-8" d="M809.09,1514.12c.26-.79.5-1.32,1.25-2.12"/>
    <path id="path178" class="cls-8" d="M760.6,1495.16c2.74.79,3.22-4.3-1.01-2.14"/>
    <path id="path179" class="cls-8" d="M761.8,1482.89c.24.77.72,1.54,1.45,1.54"/>
    <path id="path180" class="cls-8" d="M738.24,1484.8c0-1.08-1.01-1.63-2.02-1.08"/>
    <path id="path181" class="cls-8" d="M734.07,1490.67c-1.01-1.08-.5-3,.48-3.85,1.25.84,1.49,2.48,1.97,3.85"/>
    <path id="path182" class="cls-8" d="M759.1,1510.09c-.5.29-1.28.58-1.54.58"/>
    <path id="path183" class="cls-8" d="M827.36,1463.66c0,.77.26,1.29.77,1.54"/>
    <path id="path184" class="cls-8" d="M793.32,1468.27h1.25"/>
    <path id="path185" class="cls-8" d="M783.33,1461.83c0,.79,0,1.32.48,1.82"/>
    <path id="path186" class="cls-8" d="M860.23,1477.02c0-1.06,0-2.38.94-3.17.7,1.59,0,2.91,0,4.23"/>
    <path id="path187" class="cls-8" d="M869.47,1470.39c.48.53,1.2.77,1.92.77"/>
    <path id="path188" class="cls-8" d="M887.92,1467.6c.5.39,1.28.39,2.02,0"/>
    <path id="path189" class="cls-8" d="M899.45,1467.99c-.67.77-.92,1.28-1.15,2.02"/>
    <path id="path190" class="cls-8" d="M846.92,1462.79c-.24.84,0,1.4.43,1.92"/>
    <path id="path191" class="cls-8" d="M856.2,1464.42c.26,0,.77-.24,1.25-.48"/>
    <path id="path192" class="cls-8" d="M857.98,1459.62c-.24.84,0,1.66.24,2.21"/>
    <path id="path193" class="cls-8" d="M846.68,1486.34c.26,1.11.75,1.63,1.73,1.63"/>
    <path id="path194" class="cls-8" d="M869.17,1480.48c.75,0,1.49-.24,2.21-.48"/>
    <path id="path195" class="cls-8" d="M893.74,1477.89c-.24-.55-.24-1.37.24-2.21"/>
    <path id="path196" class="cls-8" d="M716.52,1532.01c.19,1.11.19,2.48.19,3.55"/>
    <path id="path197" class="cls-8" d="M704.02,1539.98c-.77-.29-1.28-.29-1.54.58"/>
    <path id="path198" class="cls-8" d="M819.66,1506.43c.24-.29.45-.58.67-.87"/>
    <path id="path199" class="cls-8" d="M825.63,1509.6v-.77"/>
  </g>
</svg>