<?xml version="1.0" encoding="UTF-8"?>
<svg id="svg3" xmlns="http://www.w3.org/2000/svg" viewBox="0 0 1398.49 3639.87">
  <defs>
    <style>
      .cls-1 {
        fill: #b1dff5;
        fill-rule: evenodd;
        stroke: #000;
        stroke-miterlimit: 10;
        stroke-width: 2px;
      }
    </style>
  </defs>
  <path id="path2" class="cls-1" d="M1391.79,2026.14c-6.22-17.34-7.51-37.27-13.73-44.71-6.4-7.44-16.35-51.05-27.64-64.65-11.46-15.09-54.16-78.42-65.45-88.28-3.78-6.34-1.33-31.11-6.22-48.63-5.07-17.34-3.78-34.85-8.84-54.74-5.07-21.03-5.07-60.9-6.4-88.28-2.44-47.13-2.44-231.34-30.08-298.41-5.07-21.25-11.29-54.74-10.17-103.19-2.44-131.89-32.52-207.67-30.08-248.86,8.84-59.58-5.07-123.13-16.35-172.86-23.9-106.94-76.73-135.41-100.59-140.42-25.19-5.02-62.82-8.76-79.18-24.95-12.62-9.86-96.86-48.41-120.72-50.87-62.82-11.18-51.54-123.13-51.54-145.66h0c1.33-2.42,1.33-4.84,2.44-6.16v-1.32c1.33-1.1,1.33-3.74,2.62-6.16v-1.32c1.11-2.42,1.11-4.84,2.44-7.44v-1.1c0-2.6,1.33-5.02,1.33-7.44h1.33c0-3.92,1.11-6.34,1.11-8.76h0c0-2.6,1.33-6.34,1.33-8.76h0c1.33-2.42,1.33-5.02,1.33-7.44h0c1.11-2.42,1.11-5.02,1.11-6.16h0v-2.6h0c2.62-1.1,5.07-2.42,8.84-4.84h0c.89-.88,1.7-1.32,2.44-1.32v-1.32c1.33,0,1.33-1.1,1.33-1.1,1.33,0,1.33-1.32,1.33-1.32,0,0,1.11,0,1.11-1.32l1.33-1.32c3.78-4.84,5.07-11.18,10.17-17.34,3.78-7.44,2.44-12.5,6.22-23.68,3.78-11.18,6.4-28.52,6.4-34.85,0-7.44,7.51-26.1,7.51-34.85,0-6.16-2.62-11.18-5.07-12.5h0s1.33,0,1.33-1.1h0c1.11,0,1.11-1.32,1.11-1.32,0-8.76-3.78-29.79-2.44-38.55,0-6.16,1.33-24.78,1.33-32.21,0-13.77-7.73-27.37-11.46-39.87-3.78-13.77-3.78-28.69-7.51-40.97-4.89-16.19-16.35-26.27-31.41-34.85-11.29-6.34-25.19-7.44-31.41-17.51-3.78-5.02,0-6.16-7.51-9.86-3.78-2.6-11.29-3.74-15.06-5.02-11.46-2.42-26.53-8.76-23.9-22.36-16.35-3.74-42.88,9.86-56.6-3.74h-10.17c-8.84,2.42-20.13,1.1-28.79-2.6-3.95,7.66-21.46,15.09-31.59,15.09-12.4,0-26.35,2.42-33.86,13.6,5.07-1.32,11.29-3.74,13.73,0-32.52,17.51-72.78,42.29-76.55,82.16-1.33,17.34-10.17,31.11-11.46,48.41-1.11,17.51-15.06,26.1-8.66,43.57-1.33,11.18,2.44,11.18,2.44,21.03-3.78,11.18,6.22,24.95,6.22,24.95h0c-1.11,0-2.44,2.42-3.78,5.02h0c-.74.73-1.11,1.54-1.11,2.42v1.32c-1.33,1.1-1.33,2.42-1.33,4.84,0,8.76,8.84,27.37,8.84,34.85,0,6.34,1.11,23.68,6.22,34.85,3.78,11.18,1.33,16.19,6.4,23.68,3.78,6.16,4.89,12.5,8.66,17.34,1.33,0,1.33,1.32,1.33,1.32l1.33,1.32,1.11,1.32,1.33,1.1,1.33,1.32,1.33,1.32h1.11c2.62,2.42,6.4,4.84,7.51,4.84h0c0,2.6,1.33,5.02,1.33,7.44h0v3.74h0v3.74h0c0,1.32,1.33,2.6,1.33,5.02h0v5.02c0,1.1,1.11,2.42,1.11,3.74v3.74c0,.88.44,1.69,1.33,2.42v5.02s1.33,1.32,1.33,2.42v3.74c.74.88,1.11,1.75,1.11,2.6v2.42l1.33,1.32v2.42l1.33,1.32v2.42l1.33,1.32v1.1c1.11,1.32,1.11,2.6,1.11,3.74,1.33,0,1.33,1.32,2.62,2.6v2.42c0,13.77,2.44,43.57-2.62,73.4v1.32l-1.11,1.1c-5.07,31.11-18.97,59.8-47.94,64.82-25.01,2.42-109.25,40.97-120.54,50.87-16.35,16.19-55.49,19.93-79.35,24.95-25.01,5.02-76.55,33.53-101.75,140.42-11.29,49.73-23.9,113.23-16.35,172.86,3.78,41.15-26.35,116.97-30.08,248.86,1.11,48.41-3.95,81.94-10.17,103.19-27.64,67.07-27.64,251.28-28.97,298.41-1.11,27.37-1.11,67.24-6.22,88.28-5.07,19.93-1.33,37.45-7.51,54.74-5.07,17.51-2.62,42.29-6.4,48.63-9.95,9.86-53.98,73.18-65.27,88.28-10.17,13.6-22.75,57.16-28.97,64.65-6.4,7.44-7.51,27.37-15.06,44.71-6.4,16.19-11.46,31.11,9.95,29.79,17.68-1.1,36.48-31.11,38.92-50.87,6.4-2.6,16.35-15.09,27.64-27.37-2.44,9.86,5.07,21.03,13.91,54.74,0,11.18,9.95,39.69,8.84,52.15-1.33,13.6,7.51,48.41,11.29,65.92,3.78,17.34,20.13,18.61,31.41,13.6,0,0-1.33,14.92,15.06,17.51,15.24,2.42,17.68-24.95,17.68-24.95,0,0,0,10.08,11.29,11.18,17.68,0,20.13-33.53,20.13-33.53l1.33,1.32h0v1.1-1.1,1.1h0c0,1.32,1.11,1.32,1.11,2.6h1.33c0,1.1,1.33,1.1,1.33,1.1h5.07c8.66,0,16.17-35.95,20.13-50.87,3.78-14.92,9.95-27.37,11.29-39.87,1.11-11.18,2.44-18.61,12.62-72.08,9.95-53.47-21.46-110.63-17.68-128.15,5.07-18.61-11.29-45.99-8.84-51.05,2.62-4.84,7.51-24.78,11.29-44.71,2.62-19.93,75.4-196.49,83.13-236.36,13.73-74.5,13.73-108.21,4.89-160.36,1.33-38.55,17.68-143.06,20.13-161.68,1.33-3.74,1.33-22.36,3.78-34.85,1.33-7.44,2.62-21.03,2.62-37.27l1.11,2.42c0,17.51,5.07,47.31,7.73,94.61-1.33,38.55,17.51,109.36,20.13,146.58-5.07,11.35,13.73,206.57,13.73,206.57l-1.33,1.1v1.32h0c-2.44,7.44-8.66,27.37-13.73,53.47l-1.33,1.32c0,1.32,0,3.74-1.33,5.02v2.42c0,1.32-1.11,3.74-1.11,5.02v2.42c-1.33,1.32-1.33,3.74-1.33,5.02,0,1.1-1.33,2.42-1.33,2.42,0,2.42,0,3.74-1.11,5.02v3.74c0,1.32-1.33,2.42-1.33,5.02v2.42c-1.33,2.42-1.33,3.74-1.33,5.02,0,1.1-1.11,2.42-1.11,3.74,0,1.1,0,2.42-1.33,4.84v3.74c0,1.32-1.33,2.6-1.33,3.74v3.74c-1.11,2.6-1.11,3.74-1.11,5.02s-1.33,2.6-1.33,3.74v3.74c-1.33,1.32-1.33,2.6-1.33,5.02v3.74c-1.11,1.32-1.11,2.42-1.11,3.74s0,2.42-1.33,3.74v3.74c0,1.32,0,2.42-1.33,3.74v3.74c0,1.32,0,2.42-1.33,3.74v6.34c-1.11,2.42-1.11,3.74-1.11,4.84v2.6c0,1.1,0,2.42-1.33,3.74v8.58c-1.33,1.32-1.33,2.6-1.33,2.6v12.28c-3.78,22.53,5.07,53.64,2.62,103.37-3.78,62-59.05,310.86,43.99,624.18,6.22,18.61,6.22,80.84,13.73,115.65,1.33,8.76,18.97,47.31,20.13,102.05,1.33,87-7.51,198.91-4.89,261.13,3.78,101.87,46.43,195.21,62.82,261.13,17.51,64.65,23.9,116.97,20.13,129.25-2.62,11.18-5.07,33.71,3.78,52.32,1.33,1.1-28.97,65.92-45.32,77.1-15.06,12.28-20.13,22.36-31.41,28.52-12.62,6.34-18.79,12.5-23.9,26.1-3.78,10.08-15.06,24.95-6.22,32.39,1.11,1.32,2.44,1.32,3.78,2.42h1.11c-1.11,3.74-1.11,6.34,0,8.76,5.07,8.76,13.91,11.18,25.19,10.08l1.33-2.6c1.11,3.74,1.11,7.44,3.78,10.08,7.51,11.18,32.7,16.02,42.7,6.16,1.33,1.32,2.44,1.32,5.07,2.42,1.33,0,2.44,0,3.78,1.32h2.44c2.62,1.32,3.78,1.32,6.4,1.32h0c11.29,1.1,23.9-1.32,30.08-7.44v-1.32c0,1.32,1.33,1.32,1.33,2.42v-1.1c6.22,14.92,26.35,16.02,42.7,13.6h3.78l1.33-1.32h5.07c2.44-1.1,3.78-1.1,6.22-1.1,0-1.32,1.33-1.32,1.33-1.32,1.11,0,2.44-1.32,3.78-1.32l1.33-1.1c1.11,0,2.44-1.32,3.78-1.32,0,0,0-1.32,1.11-1.32,1.33,0,1.33-1.1,2.62-1.1,0-1.32,1.11-1.32,1.11-1.32.89-.88,1.76-1.69,2.62-2.42h1.11c2.62-2.6,3.78-5.02,6.4-6.34h0c1.11-1.1,2.44-2.42,3.78-3.74,9.95-7.44,17.51-13.6,15.06-32.21-3.78-18.61-1.33-18.61,1.33-41.15,1.11-13.6,12.62-17.34,15.06-38.55,1.33-17.34-12.62-92.02-11.29-101.87,3.78-22.36-12.62-40.97-17.68-79.52-6.22-37.45,8.84-166.7,8.84-190.37,0-44.71,23.9-118.11,17.68-208.99-3.78-52.15-30.26-212.51-30.26-248.68,0-6.16-1.33-47.31,1.33-53.47,7.51-24.95,41.36-318.34,41.36-320.94,3.95-29.79,13.91-195.21,17.68-249.96h5.07c3.78,53.47,13.73,220.16,17.51,249.96,0,2.6,34.03,295.99,41.54,320.94,2.44,6.16,1.33,47.31,1.33,53.47,0,36.13-26.53,196.49-30.26,248.68-6.22,90.92,17.68,164.28,17.68,208.99,0,23.68,15.06,152.92,8.84,190.37-5.07,38.55-21.46,57.16-17.68,79.52,1.33,9.86-12.62,84.58-11.29,101.87,2.44,21.26,13.73,24.95,15.06,38.55,2.62,22.53,5.07,22.53,1.33,41.15-2.62,18.61,5.07,24.78,15.06,32.21,1.33,1.32,2.44,2.6,3.78,3.74h0c2.44,1.32,3.78,3.74,6.4,6.34h1.11c.89.73,1.76,1.54,2.62,2.42,1.29,1.32,1.11,0,1.11,1.32,1.33,0,1.33,1.1,2.62,1.1,1.11,0,1.11,1.32,1.11,1.32,1.33,0,2.62,1.32,3.78,1.32l1.33,1.1c1.33,0,2.44,1.32,3.78,1.32,0,0,1.33,0,1.33,1.32,2.44,0,3.78,0,6.22,1.1h5.07l1.33,1.32h7.51c15.06,1.32,32.7,0,38.92-12.5h0c0-.73.44-1.54,1.33-2.42h0c6.22,7.44,18.79,9.86,30.08,8.76h0c2.62,0,3.78,0,6.4-1.32h2.44c1.33-1.32,2.44-1.32,3.78-1.32,2.44-1.1,3.78-1.1,5.07-2.42,9.95,9.86,35.19,5.02,42.7-6.16,2.44-2.6,2.44-6.34,3.78-8.76l1.33,1.32c11.29,1.1,23.9-2.6,25.19-10.08,1.11-2.42,1.11-5.02,1.11-8.76h0c1.33-1.1,2.62-1.1,3.78-2.42,8.84-7.44-2.44-22.36-6.22-32.39-5.07-13.6-11.29-19.76-23.9-26.1-11.29-6.16-16.35-16.19-31.41-28.52-16.35-11.18-46.65-76-45.32-77.1,8.84-18.61,6.22-41.15,3.78-52.32-3.78-12.28,2.44-64.65,20.13-129.25,16.35-65.92,59.05-159.26,62.82-261.13,2.62-62.22-6.22-174.18-4.89-261.13,1.11-54.74,18.79-93.34,20.13-102.05,7.51-34.85,7.51-97.03,13.73-115.65,103.03-313.28,47.76-562.14,43.99-624.18h1.33c-2.62-49.73,6.22-80.84,2.44-103.37v-6.16c0-1.32-1.33-2.42-1.33-3.74v-7.44c0-1.32,0-2.42-1.11-3.74v-6.16c0-.88-.44-1.75-1.33-2.6v-7.44c-1.33-1.32-1.33-2.42-1.33-3.74v-2.42c0-2.6-1.11-3.74-1.11-5.02v-3.74c0-1.32-1.33-2.42-1.33-3.74v-3.74c-1.33-1.32-1.33-2.42-1.33-5.02v-2.42c-1.11-1.32-1.11-3.74-1.11-5.02,0-1.1-1.33-2.42-1.33-2.42v-6.34c-.89-.73-1.33-1.54-1.33-2.42,0-2.42,0-3.74-1.11-5.02v-3.74c0-1.1-1.33-3.74-1.33-4.84,0-1.32,0-2.6-1.33-3.74v-3.74c-1.11-1.32-1.11-2.6-1.11-3.74,0-1.32,0-3.74-1.33-5.02v-3.74c-1.33-1.32-1.33-2.6-1.33-3.74,0-1.32-1.11-2.6-1.11-3.74v-5.02c-1.33-1.32-1.33-2.42-1.33-3.74s-1.33-2.42-1.33-3.74,0-2.42-1.33-3.74v-2.42c0-2.6-1.11-3.74-1.11-5.02v-2.42c-1.33-1.32-1.33-3.74-1.33-5.02l-1.33-1.32c0-2.42,0-3.74-1.11-5.02v-1.1c-3.78-17.51-7.51-31.11-10.17-37.27h0c0-1.32,0-2.6-1.11-2.6h0c0-1.32,1.11-1.32,1.11-1.32l-1.11-1.1s17.51-195.21,13.73-206.57c1.33-37.27,21.46-108.04,18.79-146.58,2.62-47.31,8.84-77.1,8.84-94.61v-2.42c1.33,16.19,2.62,29.79,2.62,37.27,2.44,12.5,2.44,31.11,4.89,34.85,2.62,18.61,17.68,123.13,18.97,161.68-7.73,52.15-8.84,85.86,6.22,160.36,6.22,39.87,79.18,216.42,82.95,236.36,3.78,19.93,8.84,39.87,11.29,44.71,2.62,5.02-15.06,32.39-9.95,51.05,5.07,17.51-27.64,74.68-17.68,128.15,10.17,53.47,11.46,60.9,12.62,72.08,1.33,12.5,8.84,24.95,12.62,39.87,3.78,14.92,10.17,50.87,18.79,50.87h6.4v-1.1h1.11c.89-.88,1.76-1.75,2.62-2.6h0v-1.1h0v1.1-1.1h0v-1.32s2.44,33.53,20.13,33.53c11.29-1.1,11.29-11.18,11.29-11.18,0,0,2.44,27.37,18.79,24.95,15.06-2.6,15.06-17.51,15.06-17.51,10.17,5.02,26.53,3.74,30.26-13.6,3.78-17.51,12.62-52.32,11.29-65.92,0-12.5,8.84-40.97,8.84-52.15,8.84-33.71,17.68-44.89,15.06-54.74,11.29,12.28,21.46,24.78,26.53,27.37,2.44,19.76,22.57,49.73,38.92,50.87,21.24,1.32,16.35-13.6,9.95-29.79l-.22-.04ZM839.83,387.04h0Z"/>
</svg>