<?xml version="1.0" encoding="UTF-8"?>
<svg id="svg3" xmlns="http://www.w3.org/2000/svg" xmlns:xlink="http://www.w3.org/1999/xlink" viewBox="0 0 1398.49 3639.87">
  <defs>
    <style>
      .cls-1 {
        fill: #d18293;
      }

      .cls-1, .cls-2, .cls-3, .cls-4, .cls-5, .cls-6 {
        fill-rule: evenodd;
      }

      .cls-2 {
        fill: #fcf8f8;
      }

      .cls-7 {
        stroke: #e6c1c7;
      }

      .cls-7, .cls-8, .cls-9, .cls-10 {
        fill: none;
      }

      .cls-7, .cls-9 {
        stroke-width: 1.34px;
      }

      .cls-7, .cls-9, .cls-10 {
        stroke-linecap: round;
        stroke-linejoin: round;
      }

      .cls-11 {
        clip-path: url(#clippath-1);
      }

      .cls-3 {
        fill: #dda6b0;
      }

      .cls-4 {
        fill: #f7eced;
      }

      .cls-9, .cls-10 {
        stroke: #1a171b;
      }

      .cls-10 {
        stroke-width: .84px;
      }

      .cls-5 {
        fill: #bb5a74;
      }

      .cls-6 {
        fill: #e6c1c7;
      }

      .cls-12 {
        clip-path: url(#clippath);
      }
    </style>
    <clipPath id="clippath">
      <rect class="cls-8" x="483.47" y="1422.74" width="438.49" height="432.96"/>
    </clipPath>
    <clipPath id="clippath-1">
      <rect class="cls-8" x="483.47" y="1422.74" width="438.49" height="432.96"/>
    </clipPath>
  </defs>
  <g id="_소장" data-name="소장">
    <g class="cls-12">
      <path id="path2" class="cls-6" d="M589.88,1777.49c-1.71,22.63,21.2,63.32,72.15,57.91,50.91-5.41,67.02-30.76,67.02-30.76,3.38,21.73,91.64,84.11,129,19,16.11,1.79,41.55-13.55,55.99-72.35,19.49-79.6-24.62-160.13-34.79-179.13h0c22.91-47.04,5.94-127.53-21.2-142.02-28.85-15.38-53.47,8.14-105.23,45.25-51.78,37.09-122.2,35.3-142.59,12.68-3.38-4.52-8.46-9.03-11.03-12.66-16.97-23.52-44.97-57.91-78.9-35.28-23.76,15.38-22.91,74.18-16.97,111.26-31.42,28.93-16.11,140.23,11.88,185.44,16.97,27.12,38.17,51.54,74.67,40.67Z"/>
    </g>
    <g class="cls-11">
      <path id="path3" class="cls-9" d="M589.88,1777.49c-1.71,22.63,21.2,63.32,72.15,57.91,50.91-5.41,67.02-30.76,67.02-30.76,3.38,21.73,91.64,84.11,129,19,16.11,1.79,41.55-13.55,55.99-72.35,19.49-79.6-24.62-160.13-34.79-179.13h0c22.91-47.04,5.94-127.53-21.2-142.02-28.85-15.38-53.47,8.14-105.23,45.25-51.78,37.09-122.2,35.3-142.59,12.68-3.38-4.52-8.46-9.03-11.03-12.66-16.97-23.52-44.97-57.91-78.9-35.28-23.76,15.38-22.91,74.18-16.97,111.26-31.42,28.93-16.11,140.23,11.88,185.44,16.97,27.12,38.17,51.54,74.67,40.67"/>
    </g>
    <path id="path4" class="cls-6" d="M835.08,1678.93c4.23-6.31,14.41-18.07,23.76-52.41,10.17-48.79,13.55-90.38-3.42-122-16.97-34.35-44.97-41.59-59.41-13.55,0-.9.85-.9.85-1.83-3.38,4.56-12.74,4.56-25.43,1.83-11.07-1.83-21.24-7.24-22.1-13.55-5.94,24.38-16.97,40.65-34.79,51.52-44.11,25.27-72.15,14.45-99.29-5.45-24.62-18.96-50.09-37.93-74.67-27.1-24.62,10.87-19.53,39.76-1.71,64.17h.85c-2.56,0-5.94.9-8.5,1.79-24.62,10.87-23.76,32.55-16.11,54.24,7.65,22.58,7.65,33.41,0,53.31-9.36,23.48-5.09,51.52,33.94,45.17-5.09,7.24-22.06,28.04-28,32.55-5.94,3.62-13.59,13.55-12.74,22.58,0,0-1.71,14.45,19.53,18.96,21.2,5.45,28.85-9.03,28.85-9.03,6.8-7.2,24.62-26.21,26.29-28,5.13,17.17,6.8,40.65,39.92,50.58,32.23,9.03,54.28,2.73,66.17-2.69,5.13-2.73,17.82-8.14,25.47-8.14,10.17-.9,17.82,1.79,28,5.41,17.01,5.41,29.71,2.73,49.24-12.66-2.52,8.14,4.23,29.83,24.62,40.69,26.33,12.61,51.76,0,61.94-24.42,5.13-11.76,7.65-25.31,9.36-37.07,2.52-25.27-7.65-92.17-52.62-84.93Z"/>
    <path id="path5" class="cls-5" d="M696.68,1697.81s-6.8,1.79-20.35-5.45c-12.7-6.31-26.21-30.76-41.47-35.32h-.85c16.11-3.62,25.39-13.59,29.62-19.94h0c.85,9.07,4.23,19.04,11.88,31.74,7.61,11.76,14.36,21.73,21.97,28.97h-.81Z"/>
    <path id="path6" class="cls-5" d="M683.01,1753.93c-30.52,3.58-40.69-9.03-48.34-24.38h0c4.27,16.24,4.27,31.58,16.97,33.37,11.88,1.79,22.06-3.58,32.19-8.99h-.81Z"/>
    <path id="path7" class="cls-5" d="M561.92,1620.17c0,7.24,2.56,14.49.85,21.73-1.71,8.18-4.27,15.38-4.27,15.38h0c6.84-4.52,15.34-7.2,25.56-6.31h.81c-5.09-2.73-9.32-5.45-11.03-9.07-2.56-4.52-6.8-13.55-11.07-21.73h-.85Z"/>
    <path id="path8" class="cls-5" d="M716.9,1610.26c0-12.66,11.11-22.63,19.65-30.76-5.13,5.45-21.36,17.21-26.49,14.49h-.85c2.56,5.41,5.13,11.76,7.69,18.07,0,0,0-1.79,0-1.79Z"/>
    <path id="path9" class="cls-5" d="M633.22,1600.33c3.38-3.62,7.65-8.14,11.88-13.55-19.53-2.73-30.6-14.53-41.67-28.12,11.92,15.42,16.2,37.15,29.79,41.67Z"/>
    <path id="path10" class="cls-3" d="M744.37,1492.57c-19.53,7.24-32.31,29.87-37.44,40.69,2.56-.9,5.13-2.69,7.69-4.52,13.59-8.14,23.81-19.9,29.75-36.18Z"/>
    <path id="path11" class="cls-5" d="M769.76,1747.74c-6.76-.94-23.68,1.79-33,3.62l-.85-.94c6.8,2.73,13.55,4.52,24.58.94,2.52-.94,5.9-1.83,9.28-3.62Z"/>
    <path id="path12" class="cls-3" d="M736.56,1649.96c7.65,21.65,72.15,33.37,79.76-73.09-2.52,24.4-33.94,106.45-79.76,73.09Z"/>
    <path id="path13" class="cls-3" d="M586.5,1645.36c8.5,10.87,58.56,13.55,72.15-8.14,0-11.76,2.52-27.14,7.61-31.7-11.84,11.8-5.9,13.59-19.49,27.18-13.59,13.55-44.11,20.79-60.27,12.66Z"/>
    <path id="path14" class="cls-3" d="M799.06,1802.68c5.98,15.34,33.25,29.75,53.67,18.92,19.61-9.93,37.48-43.3,27.26-100.19.85,22.58,1.71,92.98-42.57,98.4-25.6,1.79-38.37-17.13-38.37-17.13Z"/>
    <path id="path15" class="cls-3" d="M701.93,1788.31c11.03-4.48,15.26-6.31,26.29-.9,10.99,5.41,27.1,9.93,38.13,6.31,11.03-3.58,28.81-21.65,37.28-27.06-11.84,2.73-28.81,18.96-40.65,20.75-11.88,2.73-30.52-8.99-40.69-8.1-9.32,0-5.09-3.62-31.37,8.99-25.43,11.76-63.56,10.82-75.45,4.52,12.76,6.31,38.19,17.13,86.47-4.52Z"/>
    <path id="path16" class="cls-3" d="M687.4,1678.12c7.65,15.34,44.11,44.27,92.46,30.72,49.2-13.55,69.55-56.08,77.15-100.39-7.61,28.97-27.96,83.22-81.39,95.87-53.43,13.55-88.22-26.21-88.22-26.21Z"/>
    <path id="path17" class="cls-3" d="M526.27,1708.68c8.5,3.62,15.3,6.35,26.37,0,11.03-7.24,22.91-22.58,44.15-18.96,21.24,4.52,31.46,18.07,35.69,29.83,4.23,12.66,19.53,28,37.36,28.89-14.41-8.1-22.91-15.34-39.07-46.06-16.97-30.76-50.09-25.31-62.87-14.49-13.59,10.87-22.91,27.14-41.63,20.79Z"/>
    <path id="path18" class="cls-3" d="M545.81,1656.3c-10.13,13.55-10.13,22.63-16.93,32.55,6.8-1.79,10.99-13.55,16.07-21.69,5.05-7.24,6.76-8.18,10.99-15.38,4.19-8.18,4.19-12.7,3.38-23.56-.85-9.93-4.23-14.49-10.13-21.73,4.19,10.89,10.95,31.7-3.38,49.81Z"/>
    <path id="path19" class="cls-3" d="M543.37,1556.75c15.26-2.73,29.71,3.62,39.02,10.87,6.8,4.56,11.07,11.8,15.3,19.04,3.38,6.35,4.23,16.32,11.88,19.04,5.09,1.79,19.53-.9,21.2-6.35-4.23-1.83-6.76-3.62-9.32-6.35-4.23-5.45-4.23-11.8-7.65-17.21.85,6.35,2.56,10.87-4.23,6.35-6.8-3.62-10.17-11.8-15.3-17.25-12.7-14.49-38.17-16.32-54.33-9.03l3.42.9Z"/>
    <path id="path20" class="cls-3" d="M696.68,1697.81h.81c-6.76-7.24-13.55-15.38-19.49-25.35-6.76,0-14.41,0-25.43-1.83,8.5,8.18,16.11,18.11,23.76,21.73,13.55,7.24,20.35,5.45,20.35,5.45Z"/>
    <path id="path21" class="cls-2" d="M820.55,1479.23c-11.88,1.83-22.06,8.14-25.47,37.07-2.52,28.04,0,34.35-1.67,52.41-1.71,18.11-11.07,32.55-21.24,41.59-10.21,9.03-5.94,12.66-4.23,14.45,0-4.52,6.8-9.93,13.55-16.24,8.5-8.14,17.86-22.63,20.39-55.14,1.71-32.55-5.09-71.42,18.68-74.14Z"/>
    <path id="path22" class="cls-2" d="M825.39,1586.66c0,23.56-11.8,70.6-39.68,81.47,16.07.87,45.58-28.99,39.68-81.47Z"/>
    <path id="path23" class="cls-2" d="M556.88,1499.74c-14.41,0-34.83,10.01-24.62,35.48-1.71-11.8,3.42-30.93,24.62-35.48Z"/>
    <path id="path24" class="cls-2" d="M522.08,1611.15c-8.5-19.94-6.8-33.49,10.21-40.73,17.01-8.18,39.11-3.62,49.32,9.03,10.17,12.7,10.17,15.38,14.45,22.63,4.23,7.24,6.8,15.42,24.62,11.8-18.68,6.31-25.47,0-32.27-13.59-5.98-13.59-24.66-33.49-51.03-23.56-11.88,4.56-18.68,12.7-15.3,34.43Z"/>
    <path id="path25" class="cls-2" d="M649.33,1589.26c9.32-12.53,27.1-17.91,46.55-4.48-8.48-3.58-28.77-8.95-46.55,4.48Z"/>
    <path id="path26" class="cls-2" d="M552.64,1668.06c11.88-10.91,22.06-12.74,30.52-11.8,9.32.9,16.97,6.35,37.32,6.35s20.35,2.73,26.25,9.97c-4.23-4.52-4.23-7.24-22.87-6.35-18.64,1.83-35.61-3.62-42.36-5.45-6.8-1.79-22.91,0-28.85,7.28Z"/>
    <path id="path27" class="cls-2" d="M596.8,1702.53c15.26,2.69,28.85,17.09,35.61,37.76-4.23-21.57-11.84-35.08-28.81-42.28-16.97-7.2-36.5,4.52-50.95,20.71,11.07-7.2,23.76-17.99,44.15-16.2Z"/>
    <path id="path28" class="cls-2" d="M837.48,1730.45c-16.97-8.1-50.95,17.09-58.6,17.99,17.01-8.99,42.48-34.18,58.6-18.88v.9Z"/>
    <path id="path29" class="cls-2" d="M673.1,1765.69c9.32-2.69,23.72-17.91,37.28-17.91,13.51.9,21.97,8.06,30.44,8.95-10.99.9-21.97-3.58-30.44-4.48-8.48-.9-27.12,11.64-37.28,13.43Z"/>
    <path id="path30" class="cls-2" d="M842.69,1722.39c10.05,8.14,15.06,25.31,11.72,41.59-1.67,12.61-11.72,28.89-1.67,30.68-3.34-3.58,5.01-17.13,5.82-30.68.85-12.66,3.34-28.93-15.87-41.59Z"/>
    <path id="path31" class="cls-3" d="M734.93,1581.25c11.03-7.24,23.68-16.24,31.29-26.17,5.09-5.45,8.46-13.55,11.84-19.86,3.38-5.41,7.61-10.82,9.28-16.28-1.67,9.93-1.67,19.86-.81,30.68,0,10.87-1.71,32.51-9.32,40.61,2.56-5.41,7.61-19.82-2.52-27.06-10.13-7.2-21.12,7.24-30.44,9.93l-9.32,8.14Z"/>
    <path id="path32" class="cls-2" d="M721.26,1716.86c30.56,14.65,65.35,13.75,95.06-14.65-5.94,4.6-35.65,28.4-95.06,14.65Z"/>
    <path id="path33" class="cls-3" d="M560.13,1766.66c5.09-4.52,10.17-13.55,12.7-19.86,2.56-6.31-.81-14.45,5.09-15.34,7.61-.94,5.94,9.93,4.23,15.34-3.38,9.03-14.36,14.45-21.16,19.86h-.85Z"/>
    <path id="path34" class="cls-1" d="M593.99,1583.08c5.98,7.28,5.13,20.92,15.34,24.58,6.8,1.79,17.86.9,22.1-6.39-5.09-2.73-8.5-5.45-11.03-11.8,3.38,15.46-22.14,5.45-22.99-2.73l-3.42-3.66Z"/>
    <path id="path35" class="cls-1" d="M634.03,1649.87c6.84,0,16.24-5.37,21.36-9.89,5.13-5.41,5.13-13.51,5.98-19.82-1.71,2.73-2.56,6.31-4.27,9.03-3.42,9.89-13.67,17.09-22.22,21.57l-.85-.9Z"/>
    <path id="path36" class="cls-1" d="M671.47,1687.15c9.28,8.18,18.52,11.8,21.85,10.01,4.19-.9-8.38-15.46-8.38-15.46.79,5.45-3.4,10.91-13.47,5.45Z"/>
    <path id="path37" class="cls-1" d="M574.78,1692.4c12.74-4.52,48.3,0,57.62,32.6-1.67-14.49-10.99-35.32-28.81-38.01-16.93-3.66-19.45,0-28.81,5.41Z"/>
    <path id="path38" class="cls-1" d="M765.21,1663.47c13.67-.9,37.6-10.87,45.25-49.81-5.09,15.42-14.49,38.94-45.25,49.81Z"/>
    <path id="path39" class="cls-5" d="M768.14,1549.5c10.09-10.78,17.62-8.1,20.14,2.69,1.67,11.68-.81-33.25-.81-33.25l-19.33,30.56Z"/>
    <path id="path40" class="cls-5" d="M540.92,1497.13c0-8.22,2.56-14.65,10.13-13.71,5.94,0,9.32,5.49,12.66,10.99-6.71-2.77-12.66,1.83-19.41.9l-3.38,1.83Z"/>
    <path id="path41" class="cls-5" d="M820.55,1474.51c17.05-15.46,28.97.9,28.97,19.04-5.09-8.14-14.49-14.53-21.28-19.04,0,0-7.69,0-7.69,0Z"/>
    <path id="path42" class="cls-5" d="M843.3,1667.05c.85,3.62,1.67,8.14,3.3,11.72-3.3-2.69-7.41-2.69-10.74,0l7.45-11.72Z"/>
    <path id="path43" class="cls-5" d="M773.67,1796.37c3.42,8.18,19.65,18.15,27.35,18.15-5.13-4.52-13.67-20.88-11.11-29.95-2.56,2.73-5.98,5.45-9.4,7.28l-6.84,4.52Z"/>
    <path id="path44" class="cls-3" d="M878.29,1577.54c10.21,15.38,38.29,84.15,34.91,145.68-1.71,33.49-17.05,76.91-39.19,92.29,7.69-9.93,22.99-31.66,14.49-85.94,3.42,8.14,13.63-22.63,6.8-68.77-6.8-45.25-27.22-54.28-30.64-34.39-1.71,7.24-3.42,6.35-3.42,6.35,0,0,5.13-27.14,5.98-34.39.85-7.24,9.36-11.76,11.07-20.83Z"/>
    <path id="path45" class="cls-3" d="M857.91,1638.07c-2.6,7.24-4.35,14.45-7.81,20.79-1.75,3.62-3.5,4.52-2.6,8.14,0,2.69,2.6,9.93,4.31,12.61,4.35-1.79,12.17,3.62,14.77,6.31-4.35-3.58-9.56-12.61-10.42-18.92,0-6.35,5.21-15.38,11.27-9.03-1.71-6.35-7.81-10.87-9.52-17.17v-2.73Z"/>
    <path id="path46" class="cls-3" d="M561.11,1776.63c8.55,2.73,18.8,2.73,27.35,0-4.27-5.45-5.13-17.25-5.13-23.64-5.13,1.83-9.4,8.22-13.67,10.95l-8.55,12.7Z"/>
    <path id="path47" class="cls-5" d="M564.69,1771.3c5.01-5.45,11.68-15.5,17.5-17.34,2.48,6.39,3.34,12.78,4.96,18.23-3.3-4.56-8.3-12.74-14.12-6.35l-8.34,5.45Z"/>
    <path id="path48" class="cls-3" d="M613.85,1797.27c3.42,4.56,11.88,4.56,16.93,5.45,6.8,1.83,14.41,2.73,22.02,2.73,10.17,0,20.31.9,30.48-2.73,13.55-4.52,35.57-18.15,49.08-8.18-2.52,2.73-4.23,6.35-6.76,9.07-4.23,5.45-9.32,9.97-14.41,12.7-8.46,5.45-24.54,12.7-33.86,14.49,4.23-2.69,11.88-9.03,11.03-12.66-1.71-3.62-13.55-2.73-22.87-3.62-6.76-.94-43.99-7.28-51.64-14.53v-2.73Z"/>
    <path id="path49" class="cls-3" d="M751.21,1823.59c12.7,18.15,52.45,29.01,72.76,21.77,20.31-6.35,21.97-12.7,21.97-12.7-6.76.9-31.29,0-38.05-10.01,3.38,8.18-7.61,28.16-56.69.94Z"/>
    <path id="path50" class="cls-3" d="M732.28,1805.61c4.27-3.66,2.56-6.39,8.5-6.39,2.56,0,6.8,1.83,9.36,1.83,6.8.9,13.59,1.83,19.57-.9,0,1.79.85,4.52,1.67,7.24-9.32-5.45-28.04-.9-24.66,13.63-3.38-.9-17.01-10.91-11.88-15.42h-2.56Z"/>
    <path id="path51" class="cls-3" d="M502.02,1563.22c1.67,8.14,5.09,15.38,5.09,23.52,0,7.24,0,15.34,2.52,22.58,4.23,15.38,11.03,28.93,8.5,45.21-2.56,14.45-11.88,28.89-5.09,43.38,5.9,12.66,22.02,20.75,34.71,18.07-8.46,9.03-16.93,21.69-27.1,28.89,2.52-6.31-1.71-9.03-4.23-13.55-4.23-5.41-7.65-10.82-10.17-18.07-6.8-18.96-4.23-32.51.85-50.62,5.09-18.96-.85-34.3-5.09-51.48-3.42-14.49,5.09-29.83.85-43.38l-.85-4.56Z"/>
    <path id="path52" class="cls-5" d="M527.25,1716.82c5.98,4.52,6.84,14.53,5.98,20.88,1.71-7.24,10.25-12.7,14.53-19.98-3.42-1.83-9.4-1.83-12.82-.9h-7.69Z"/>
    <path id="path53" class="cls-3" d="M522.04,1525.98c1.71,6.31,1.71,12.66,4.27,18.96,2.56,5.41,4.27,11.72,9.4,15.34-7.69,1.79-16.24,6.31-23.11,11.72,4.31-6.31,6.88-13.51,6.88-21.65-.85-9.93-5.98-29.79,1.71-37.93l.85,13.55Z"/>
    <path id="path54" class="cls-3" d="M520.41,1523.18c-1.71-8.14,3.38-16.28,8.5-20.79,1.71-2.69,5.94-3.62,7.65-6.31,1.71-2.73,1.71-7.24,2.56-10.87,9.36-19,26.37.9,34.02,9.97-5.09-8.14-6.8-17.21-15.3-22.63-8.5-6.35-17.86-5.41-25.51.9-17.05,15.38-18.76,60.59-9.36,66l-2.56-16.28Z"/>
    <path id="path55" class="cls-3" d="M611.89,1521.39c14.45,12.66,55.18,34.35,93.39,10.87,1.71-2.73,11.88-21.73,16.97-25.35-15.26,9.07-15.26,18.11-33.94,23.52-41.59,10.87-54.33-1.79-67.06-5.41l-9.36-3.62Z"/>
    <path id="path56" class="cls-3" d="M884.48,1491.6c2.56,22.63,5.09,61.53-15.38,89.53.85-5.41,5.98-37.07-4.27-60.55,5.13,13.55,11.11,16.28,14.53,11.72,3.42-5.41,7.69-28.93,5.13-40.69Z"/>
    <path id="path57" class="cls-2" d="M717.68,1521.55c6.88-12.66,14.61-19.9,18.88-20.84l-18.88,20.84Z"/>
    <path id="path58" class="cls-2" d="M643.15,1508.97c22.99,3.62,56.2,3.62,77.48-10.87-10.23,4.56-62.99,16.28-77.48,10.87Z"/>
    <path id="path59" class="cls-2" d="M548.41,1438.49c-17.01-.94-43.42.9-44.27,63.2,4.27-25.27,12.78-60.51,44.27-63.2Z"/>
    <path id="path60" class="cls-2" d="M496.65,1678.77c-11.07-43.38-6.8-84.03-3.38-101.25-1.71,13.61-1.71,70.52,3.38,101.25Z"/>
    <path id="path61" class="cls-2" d="M729.92,1641c-.85-5.41-6.84-16.28-7.69-27.14,0-9.93,2.56-19,13.67-26.25-5.13,6.35-10.25,17.21-10.25,27.18s2.56,20.79,4.27,26.21Z"/>
    <path id="path62" class="cls-2" d="M888.51,1724.02c-2.56-12.57-8.55-28.81-18.8-38.74,8.55,2.73,20.51,18.92,18.8,38.74Z"/>
    <path id="path63" class="cls-9" d="M668.66,1606.52c-7.65,17.17-10.21,34.35,6.76,62.38,17.82,28.89,33.08,44.27,72.11,47.9,38.17,2.69,63.64-13.55,87.37-37.97"/>
    <path id="path64" class="cls-9" d="M548.41,1715.84c15.26-18.11,31.37-29.91,51.68-24.46,48.3,12.7,27.14,68,51.68,71.62,24.58,3.62,41.51-22.67,61-19.04,20.35,2.73,26.25,13.59,47.45,7.24,21.16-5.45,49.12-38.98,71.99-30.8,22.87,9.07,19.49,37.15,14.41,54.37-5.09,17.21-4.23,24.46,3.42,23.56"/>
    <path id="path65" class="cls-9" d="M811.43,1755.92c12.7,7.16-13.59,18.8-19.53,28.65"/>
    <path id="path66" class="cls-9" d="M575.43,1728.7c13.02-2.73,7.81,13.47,7.81,23.32"/>
    <path id="path67" class="cls-9" d="M663.66,1637.26c-4.23,7.2-15.26,18.96-36.42,20.75-21.2.9-47.49-5.41-53.43-16.24-5.94-10.87-22.06-47-28-39.76"/>
    <path id="path68" class="cls-9" d="M583.9,1650.97c-25.35-1.83-38.05,16.2-46.47,30.6-8.46,13.47-14.41,10.78-14.41,7.2"/>
    <path id="path69" class="cls-9" d="M634.68,1657.28c15.34,4.52,28.97,28.85,41.75,35.12,13.63,7.2,20.43,5.41,20.43,5.41"/>
    <path id="path70" class="cls-9" d="M765.53,1630.91c-12.7-9.93,0-20.79,7.61-30.76,14.36-21.69,16.03-34.35,14.36-51.56-1.71-18.11,2.52-41.63,5.05-48.87"/>
    <path id="path71" class="cls-9" d="M634.68,1729.55c7.69,15.38,17.91,28,48.51,24.42"/>
    <path id="path72" class="cls-9" d="M562.04,1620.17c0,7.24,2.65,14.49.9,21.73-1.75,8.18-4.44,15.38-4.44,15.38"/>
    <path id="path73" class="cls-9" d="M710.51,1593.9c5.05,2.73,21.04-8.99,26.04-14.41-8.38,8.14-19.29,18.03-19.29,30.6"/>
    <path id="path74" class="cls-9" d="M696.68,1697.81s-6.8,1.79-20.35-5.45c-12.7-6.31-26.21-30.76-41.47-35.32h-.85c16.11-3.62,25.39-13.59,29.62-19.94h0c.85,9.07,4.23,19.04,11.88,31.74,7.61,11.76,14.36,21.73,21.97,28.97h-.81Z"/>
    <path id="path75" class="cls-9" d="M683.01,1753.93c-30.52,3.58-40.69-9.03-48.34-24.38h0c4.27,16.24,4.27,31.58,16.97,33.37,11.88,1.79,22.06-3.58,32.19-8.99h-.81Z"/>
    <path id="path76" class="cls-9" d="M561.92,1620.17c0,7.24,2.56,14.49.85,21.73-1.71,8.18-4.27,15.38-4.27,15.38h0c6.84-4.52,15.34-7.2,25.56-6.31h.81c-5.09-2.73-9.32-5.45-11.03-9.07-2.56-4.52-6.8-13.55-11.07-21.73h-.85Z"/>
    <path id="path77" class="cls-9" d="M769.76,1747.74c-6.76-.94-23.68,1.79-33,3.62l-.85-.94c6.8,2.73,13.55,4.52,24.58.94,2.52-.94,5.9-1.83,9.28-3.62"/>
    <path id="path78" class="cls-9" d="M716.9,1610.26c0-12.66,11.11-22.63,19.65-30.76-5.13,5.45-21.36,17.21-26.49,14.49h-.85c2.56,5.41,5.13,11.76,7.69,18.07,0,0,0-1.79,0-1.79Z"/>
    <path id="path79" class="cls-9" d="M828.04,1554.31c-1.67-1.83-5.9-1.83-8.46,8.99-1.67,10.82,5.09,36.99-12.7,73.04-12.7,25.23-29.67,33.33-49.16,31.54-19.49-1.79-31.33-12.61-35.57-35.16-4.27-21.65-13.59-51.4-33.08-58.6-38.13-14.41-47.45,27.06-64.38,30.64-16.97,4.52-19.49,1.83-29.67-18.92-9.32-18.92-35.61-27.96-55.1-25.23"/>
    <path id="path80" class="cls-9" d="M795.81,1490.62c-15.22,39.02-16.93,56.24-59.25,88.87"/>
    <path id="path81" class="cls-9" d="M590.08,1544.34c5.01,3.58,9.2,8.06,13.35,14.32"/>
    <path id="path82" class="cls-9" d="M633.22,1600.33c3.38-3.62,7.65-8.14,11.88-13.55-19.53-2.73-30.6-14.53-41.67-28.12,11.92,15.42,16.2,37.15,29.79,41.67"/>
    <path id="path83" class="cls-9" d="M652.59,1670.63c10.21,2.93,23.76.98,23.76.98"/>
    <path id="path84" class="cls-9" d="M744.37,1492.57c-19.53,7.24-32.31,29.87-37.44,40.69,2.56-.9,5.13-2.69,7.69-4.52,13.59-8.14,23.81-19.9,29.75-36.18"/>
    <path id="path85" class="cls-7" d="M827.34,1557.77c1.67-3.62,0-9.97-3.38-11.8-5.05,3.66-3.34,19.04,3.38,20.84"/>
    <path id="path86" class="cls-7" d="M849.52,1792.71c-1.95,3.7-1.95,7.41-1.95,11.07"/>
    <path id="path87" class="cls-7" d="M811.11,1759.18c1.75-1.67,3.5-2.52,5.21-4.23"/>
    <path id="path88" class="cls-7" d="M576.41,1729.55c.81-.9.81-2.69,1.63-3.58"/>
    <path id="path89" class="cls-7" d="M666.3,1607.49c2.52,0,4.19.9,5.82,2.69-1.63,3.58-5.82,4.48-7.49,1.79"/>
    <path id="path90" class="cls-7" d="M589.11,1546.94c.85-1.83,3.42-3.62,5.09-4.56.85,3.62-.85,7.24-1.67,9.97,2.52-1.83,5.05-5.41,8.46-5.41.81,3.58-1.71,8.14-2.56,11.72"/>
    <path id="path91" class="cls-7" d="M548.41,1602.93c0-2.69,0-5.37,1.63-7.16"/>
    <path id="path92" class="cls-7" d="M523.71,1687.07c-4.27,11.88,9.4,7.32,4.27-2.77"/>
    <path id="path93" class="cls-9" d="M729.07,1804.75c4.19-6.39,5.86-10.09,5.86-10.09"/>
    <path id="path94" class="cls-9" d="M610.27,1488.02c14.49,23.52,15.34,21.69,28.97,28"/>
    <path id="path95" class="cls-9" d="M879.8,1570.38c-1.67,3.66-3.34,6.39-5.05,9.12-3.38,4.52-5.9,9.07-9.28,12.7"/>
    <path id="path96" class="cls-9" d="M511.95,1581.12c-2.52-3.58-5.9-15.26-8.46-29.62"/>
    <path id="path97" class="cls-9" d="M834.87,1469.01c8.46-1.83,18.56,18.27,15.22,26.49"/>
    <path id="path98" class="cls-9" d="M857.99,1630.91c5.13,16.24,14.53,24.38,16.24,35.16,1.67,10.82-5.13,11.72-5.13,11.72"/>
    <path id="path99" class="cls-9" d="M843.54,1665.42c-.85,4.44,5.01,12.37,5.01,12.37"/>
    <path id="path100" class="cls-9" d="M773.67,1797.27c0,8.22,18.76,17.34,28.97,18.23"/>
    <path id="path101" class="cls-9" d="M541.01,1496.16c-1.71-12.53,12.53-17.91,21.73-3.58"/>
    <path id="path102" class="cls-7" d="M636.76,1519.92c.85-2.73.85-5.45,0-8.18-1.71.9-4.31,1.83-6.02,2.73,1.71-8.22-.85-8.22-8.63-4.56,0-.9,0-1.83-.9-2.73-.85,0-2.56.9-3.46,1.83"/>
    <path id="path103" class="cls-7" d="M866.45,1671.69c3.46.85,6.06,6.1,10.38,3.5,4.27-3.5-4.31-7.89-6.92-8.79"/>
    <path id="path104" class="cls-9" d="M556.71,1780.13c6.8-7.2,24.62-26.21,26.29-28,5.13,17.17,6.8,40.65,39.92,50.58,32.23,9.03,54.28,2.73,66.17-2.69,5.13-2.73,17.82-8.14,25.47-8.14,10.17-.9,17.82,1.79,28,5.41,17.01,5.41,29.71,2.73,49.24-12.66-2.52,8.14,4.23,29.83,24.62,40.69,26.33,12.61,51.76,0,61.94-24.42,5.13-11.76,7.65-25.31,9.36-37.07,2.52-25.27-7.65-92.17-52.62-84.93,4.23-6.31,14.41-18.07,23.76-52.41,10.17-48.79,13.55-90.38-3.42-122-16.97-34.35-44.97-41.59-59.41-13.55,0-.9.85-.9.85-1.83-3.38,4.56-12.74,4.56-25.43,1.83-11.07-1.83-21.24-7.24-22.1-13.55-5.94,24.38-16.97,40.65-34.79,51.52-44.11,25.27-72.15,14.45-99.29-5.45-24.62-18.96-50.09-37.93-74.67-27.1-24.62,10.87-19.53,39.76-1.71,64.17h.85c-2.56,0-5.94.9-8.5,1.79-24.62,10.87-23.76,32.55-16.11,54.24,7.65,22.58,7.65,33.41,0,53.31-9.36,23.48-5.09,51.52,33.94,45.17-5.09,7.24-22.06,28.04-28,32.55-5.94,3.62-13.59,13.55-12.74,22.58"/>
    <path id="path105" class="cls-4" d="M749.34,1475.48c-1.71,6.35,9.36,12.66,22.14,15.38,12.74,2.69,23.81,2.69,26.37-2.73,2.52-6.31-7.65-13.55-22.14-15.38-14.45-1.79-24.66-3.62-26.37,2.73Z"/>
    <path id="path106" class="cls-5" d="M755.11,1478.17c.85,3.66,5.13.9,7.65,3.66,1.71.94,1.71,2.77,5.13,2.77.85,0,1.67-.9,2.52-.9.85.9,1.71,1.83,2.56,1.83,3.38.94,6.8.94,10.17.94,1.71.9,6.8.9,5.98-2.77-.85-4.64-5.13-1.87-7.65-2.77-.85,0-2.56-.94-4.27-.94-1.67-.94-2.52,0-5.09,0-.85-.94-1.71-1.83-3.38-2.77-1.71-.94-2.56,0-4.27.94-1.71,0-3.38-.94-5.09-.94s-2.56.94-3.42.94c0,0-.85,0-.85,0Z"/>
    <path id="path107" class="cls-9" d="M749.34,1475.48c-1.71,6.35,9.36,12.66,22.14,15.38,12.74,2.69,23.81,2.69,26.37-2.73,2.52-6.31-7.65-13.55-22.14-15.38-14.45-1.79-24.66-3.62-26.37,2.73"/>
    <path id="path108" class="cls-10" d="M755.28,1478.33c.85,3.66,5.13.9,7.65,3.66,1.71.94,1.71,2.77,5.13,2.77.85,0,1.67-.9,2.52-.9.85.9,1.71,1.83,2.56,1.83,3.38.94,6.8.94,10.17.94,1.71.9,6.8.9,5.98-2.77-.85-4.64-5.13-1.87-7.65-2.77-.85,0-2.56-.94-4.27-.94-1.67-.94-2.52,0-5.09,0-.85-.94-1.71-1.83-3.38-2.77-1.71-.94-2.56,0-4.27.94-1.71,0-3.38-.94-5.09-.94s-2.56.94-3.42.94"/>
  </g>
</svg>