<?xml version="1.0" encoding="UTF-8"?>
<svg id="svg3" xmlns="http://www.w3.org/2000/svg" xmlns:xlink="http://www.w3.org/1999/xlink" viewBox="0 0 1398.49 3639.87">
  <defs>
    <style>
      .cls-1 {
        fill: #af7d98;
      }

      .cls-1, .cls-2, .cls-3, .cls-4, .cls-5 {
        fill-rule: evenodd;
      }

      .cls-6 {
        stroke: #333;
        stroke-width: .84px;
      }

      .cls-6, .cls-7, .cls-8, .cls-9 {
        fill: none;
      }

      .cls-6, .cls-9 {
        stroke-linecap: round;
        stroke-linejoin: round;
      }

      .cls-2 {
        fill: #834166;
      }

      .cls-10 {
        clip-path: url(#clippath-1);
      }

      .cls-8 {
        stroke: #925577;
        stroke-miterlimit: 8;
        stroke-width: 1.68px;
      }

      .cls-9 {
        stroke: #fff;
        stroke-width: 1.16px;
      }

      .cls-11 {
        clip-path: url(#clippath-2);
      }

      .cls-3 {
        fill: #925577;
      }

      .cls-4 {
        fill: #ba8fa6;
      }

      .cls-12 {
        clip-path: url(#clippath);
      }

      .cls-5 {
        fill: #8a4a6d;
      }
    </style>
    <clipPath id="clippath">
      <rect class="cls-7" x="870.03" y="1185.38" width="122.86" height="201.62"/>
    </clipPath>
    <clipPath id="clippath-1">
      <rect class="cls-7" x="870.03" y="1185.38" width="122.86" height="201.62"/>
    </clipPath>
    <clipPath id="clippath-2">
      <rect class="cls-7" x="870.03" y="1185.38" width="122.86" height="201.62"/>
    </clipPath>
  </defs>
  <g id="_비장" data-name="비장">
    <g class="cls-12">
      <path id="path2" class="cls-3" d="M881.8,1192.23c6.88-6.69,18.26-6.36,26.35-6.06,31.31,1.5,59.06,26.68,74.48,60.97,13.05,29.11,10.93,69.46,3.8,100.4-5.46,24.58-22.06,38.53-42.24,38.53-7.35,0-33.68-5.76-29.65-42.46,3.32-33.37,1.66-54.01-21.84-81.61-7.8-9.1-16.59-19.72-20.62-33.67-4.28-15.15,1.43-29.74,9.72-36.1Z"/>
    </g>
    <path id="path3" class="cls-2" d="M894.58,1204.33c2.39,3.96,10.68,6.09,14.48,6.69,4.99.9,10.68-.9,15.42,1.2,8.54,3.96,17.78,17.91,22.06,27.93,2.37,5.76,2.14,12.42,4.26,18.19.96,2.73,2.37,5.16,3.32,7.89.71,3.03.48,6.06.96,9.09.71,6.39,2.14,12.45,2.85,18.81.48,4.56,3.78,13.35,2.85,17.61-.48,2.43-3.32,4.53-4.28,6.66-1.18,2.43-1.18,4.86-1.66,7.59-.93,5.46-2.12,11.22-3.55,16.38-1.18,4.56-2.85,10.02-6.65,11.52-1.89.6-4.26.3-6.4-.6-2.14-.6-4.74-3.93-6.88-2.73,4.28,2.13,10.68-2.73,12.34-7.59,2.6-7.26,1.18-16.38,3.07-23.97.96-3.93,2.37-6.96,2.14-10.92-.23-3.93-1.66-7.86-1.43-11.82.48-6.66,3.32-13.95.25-20.62-1.43-3.36-2.85-3.36-3.32-6.99-.71-4.26-.96-8.19-2.14-12.12-2.37-8.52-5.44-19.11-10.43-25.8-4.03-5.16-10.43-8.19-14.94-12.42-2.14-1.83-3.8-3.06-6.17-4.56-1.91-1.23-3.32-3.96-5.46-4.86l-10.68-4.56Z"/>
    <path id="path4" class="cls-5" d="M911.4,1241.33c-6.9,11.82,7.35,23.07,11.86,30.97,3.07,4.86,4.74,9.39,5.46,15.48.46,3.03,0,13.95,1.66,16.98.23.6.93.3,1.18.3.93-1.2,2.37-1.2,3.07-2.73,3.55-10.02-.48-25.8-3.07-35.2-1.66-6.09-2.85-12.15-5.94-17.31-2.62-4.56-8.54-11.85-13.53-9.42l-.71.93Z"/>
    <path id="path5" class="cls-2" d="M959.15,1215.9c10.45,13.35,29.19,42.19,30.6,73.72,1.18,31.87-2.85,87.7-40.8,92.83,8.56-4.23,29.67-25.78,32.99-60.37,3.55-34.26-3.57-82.81-22.79-106.18Z"/>
    <path id="path6" class="cls-2" d="M978.16,1256.2c1.66,8.52,2.14,17.61,2.14,26.43,0,5.16-.25,9.99-.73,14.85-.46,3.33-2.37,8.19-2.14,10.62.25,3.03,2.14,6.69,2.62,9.72.25,3.33.25,6.69-.23,9.72-.96,7.59-4.05,15.78-9.04,20.02,2.62,7.89-1.89,17.91-5.72,23.97,13.32-1.2,17.85-32.47,19.26-44.92.96-7.59,2.39-15.48,2.87-23.05.46-8.22-1.43-16.41-1.21-24.3l-7.83-23.07Z"/>
    <path id="path7" class="cls-2" d="M896.01,1199.79c3.07,1.2,5.69,4.23,9.02,5.16,3.32,1.2,6.65.6,9.95,1.2,6.42.9,12.82,6.36,19.22,5.16-2.85,1.2-6.63-3.03-9.24-4.86-3.07-2.43-6.4-3.03-9.97-3.63-3.3-.6-6.15-.6-9.47-.6-3.32-.3-6.88-3.36-9.75-2.73l.25.3Z"/>
    <path id="path8" class="cls-2" d="M891.48,1258.06c9.52,10.95,25.68,27.01,26.39,56.74.48,29.76-4.03,35.83-1.66,45.82,0-9.39,4.28-31.24,4.99-44.29.71-13.05-4.03-39.76-29.72-58.27Z"/>
    <path id="path9" class="cls-4" d="M961.22,1290.28c-.93,4.26.73,15.48,2.85,17.59-3.32-1.2-4.26-9.39-4.51-17.28-.23-7.89-.71-11.52-2.14-15.48,1.91,2.43,3.8,2.43,3.8,15.18Z"/>
    <path id="path10" class="cls-4" d="M957.42,1267.12c-4.69-5.43-6.1-13.33-5.62-22.72.93,3.97,2.35,17.89,5.62,22.72Z"/>
    <path id="path11" class="cls-4" d="M936.1,1218.85c3.32,1.53,11.84,14.88,12.3,19.11l-12.3-19.11Z"/>
    <path id="path12" class="cls-4" d="M902.41,1187.81c6.42.3,29.9-.63,54.56,25.37-3.79-2.4-24.44-19.93-54.56-25.37Z"/>
    <g class="cls-10">
      <path id="path13" class="cls-4" d="M881.1,1243.43c-12.39-15.1-9.04-33.86-5.72-39.32-.93,3.33-5.24,20.29,5.72,39.32Z"/>
    </g>
    <path id="path14" class="cls-4" d="M936.56,1302.95c7.1-28.81-6.4-49.72-10.2-55.81,1.66,4.86,13.28,28.23,10.2,55.81Z"/>
    <path id="path15" class="cls-4" d="M963.15,1314.75c-4.03,2.43-4.99,5.79-7.13,20.04-2.37,14.25-4.99,20.64-10.45,22.45,3.57,0,8.33-2.73,11.18-13.95,2.85-10.92,3.32-27.61,6.4-28.54Z"/>
    <g class="cls-11">
      <path id="path16" class="cls-6" d="M881.85,1192.28c6.88-6.69,18.26-6.36,26.35-6.06,31.31,1.5,59.06,26.68,74.48,60.97,13.05,29.11,10.93,69.46,3.8,100.4-5.46,24.58-22.06,38.53-42.24,38.53-7.35,0-33.68-5.76-29.65-42.46,3.32-33.37,1.66-54.01-21.84-81.61-7.8-9.1-16.59-19.72-20.62-33.67-4.28-15.15,1.43-29.74,9.72-36.1"/>
    </g>
    <path id="path17" class="cls-9" d="M925.68,1350.3c7.38-9.39,13.09,10.59,21.88,1.23,7.83-8.49,4.76-41.53,17.1-41.53"/>
    <path id="path18" class="cls-9" d="M949.17,1247.85c-4.26-12.72-11.13-23.05-20.15-31.87-5.94-5.76-18.03-4.56-24.91-7.29-3.1-1.2-12.34-3.93-12.59-7.59"/>
    <path id="path19" class="cls-9" d="M962.47,1310c-4.05-.3-4.78-24.25-5.97-28.51-1.21-4.53-.48-8.79-1.69-13.65"/>
    <path id="path20" class="cls-9" d="M926.22,1214.1c4.71,2.46,7.51,3.06,10.57,2.46"/>
    <path id="path21" class="cls-9" d="M949.47,1242.39c-.48,10.29,2.37,25.39,9.18,28.4"/>
    <path id="path22" class="cls-1" d="M912.61,1240.48h0c4.28-1.53,8.06,3.33,10.43,7.26,8.74,13.35,15.14,43.36,11.36,53.66-.48,1.8-1.43,2.73-2.37,3.03-.25.3-1.66.3-1.89-1.23-.25-1.8-.25-4.83-.25-7.56,0-4.23-.23-9.09-.93-12.42-1.43-6.06-4.74-9.99-7.81-13.95-2.62-3.03-8.06-9.99-9.72-14.53h0c1.66,4.83,6.4,12.12,8.99,15.46,3.1,3.93,6.17,7.56,7.58,13.63.71,3.03.96,7.59.96,11.82,0,3.63,0,6.06.46,7.89,0,.9.73,2.7,2.85,2.1,1.18-.3,2.37-1.5,3.07-3.63,3.78-10.9-2.37-41.21-11.36-55.16-3.78-5.76-7.56-7.56-11.36-6.36Z"/>
    <path id="path23" class="cls-8" d="M892.87,1201.05c-.71.93-1.41,2.13-1.66,3.63,1.43.6,2.62-1.5,4.03-2.4.71,2.1,0,4.51-.71,6.31"/>
    <path id="path24" class="cls-8" d="M926.18,1348.52c.25.9.48,1.8.73,2.4,0-1.2.23-2.4.46-3.3.71.9,1.18,2.1,1.41,3.6.25-1.8.25-3.6.96-5.13.93,1.53,1.18,3.33,1.64,5.13"/>
    <path id="path25" class="cls-8" d="M964.79,1307.87c-.93,1.8-1.18,4.21-.46,6.01"/>
    <path id="path26" class="cls-8" d="M957.96,1268c-.55,1.53-.82,3.06-.55,4.59"/>
    <path id="path27" class="cls-8" d="M936.74,1217.41c-.93-6.74-4.92-1.53-1.64.9"/>
    <path id="path28" class="cls-8" d="M948.4,1243.43h1.46"/>
  </g>
</svg>