<?xml version="1.0" encoding="UTF-8"?>
<svg id="svg3" xmlns="http://www.w3.org/2000/svg" xmlns:xlink="http://www.w3.org/1999/xlink" viewBox="0 0 1398.49 3639.87">
  <defs>
    <style>
      .cls-1 {
        stroke: #333;
        stroke-linecap: round;
        stroke-linejoin: round;
        stroke-width: .84px;
      }

      .cls-1, .cls-2 {
        fill: none;
      }

      .cls-3 {
        fill: #e5aeba;
      }

      .cls-3, .cls-4, .cls-5, .cls-6, .cls-7 {
        fill-rule: evenodd;
      }

      .cls-4 {
        fill: #fff;
      }

      .cls-5 {
        fill: #d47892;
      }

      .cls-8 {
        clip-path: url(#clippath-1);
      }

      .cls-9 {
        clip-path: url(#clippath-3);
      }

      .cls-10 {
        clip-path: url(#clippath-2);
      }

      .cls-6 {
        fill: #df98a9;
      }

      .cls-11 {
        clip-path: url(#clippath);
      }

      .cls-7 {
        fill: #efcbd2;
      }
    </style>
    <clipPath id="clippath">
      <rect class="cls-2" x="489.78" y="1044.63" width="450.4" height="439.53" transform="translate(-646.529 1770.5441) rotate(-80.9057)"/>
    </clipPath>
    <clipPath id="clippath-1">
      <rect class="cls-2" x="489.78" y="1044.63" width="450.4" height="439.53" transform="translate(-646.529 1770.5441) rotate(-80.9057)"/>
    </clipPath>
    <clipPath id="clippath-2">
      <rect class="cls-2" x="489.78" y="1044.63" width="450.4" height="439.53" transform="translate(-646.529 1770.5441) rotate(-80.9057)"/>
    </clipPath>
    <clipPath id="clippath-3">
      <rect class="cls-2" x="489.78" y="1044.63" width="450.4" height="439.53" transform="translate(-646.529 1770.5441) rotate(-80.9057)"/>
    </clipPath>
  </defs>
  <g id="_위" data-name="위">
    <g class="cls-11">
      <path id="path2" class="cls-3" d="M884.14,1114.43c-50.22-22.22-68.86,11.35-86.5,16.22-16.67,4.95-19.47-51.17-14.6-81.59l-40.39-6.47c-7.12,31.68-10.76,86.2,5.6,111.83,17.24,26.75,23.68,31.03,16.58,52.9-7.1,22.29-20.07,48.66-28.74,68.01-10.55,24-26.44,46.58-53.97,42.66-21-2.8-17.73-10.46-30.71-15.78-12.97-5.39-16.29-.49-23.37-4.31-7.55-3.96-44.62-47.01-101.14-14-45.59,26.01-61.31,104.86-48.44,168.58l53.86-13.75c-14.43-60.18,9.41-109.92,35.37-109.01,16.39-.13,25.83,7.94,30.53,16.88,4.71,8.94,6.86,24.6,14.9,35.2,16.43,21.68,31.37,21.39,47.95,26.23,16.74,4.3,14.01,21.37,63.84,35.84,49.89,14.55,158.81-39.01,196.59-134.51,37.27-95.63,12.78-172.73-37.37-194.95Z"/>
    </g>
    <g class="cls-8">
      <path id="path3" class="cls-6" d="M538.52,1342.35c7.72-12.95,20.26-20.75,30.4-20.19,16.39-.13,28.44,11.04,33.14,19.98,4.71,8.94,6.4,23.96,14.44,34.56,16.58,21.21,29.85,21.15,46.59,25.45,16.58,4.84,15.63,20.5,59.93,34.72,49.33,14.95,157.81-42.41,195.1-137.99,28.12-70.3,17.11-129.37-12.67-164.19,25.22,34.66,41.82,119.18-27.1,201.49-69.48,82.24-137.15,79.59-158.5,63.05-20.93-16.48-29.63-26.05-47.59-28.93-17.96-2.87-52.08-3.96-59.62-24.29-8.72-22.13-26.89-36.47-47.89-30.02-20.93,5.97-21.63,20.04-26.24,26.36Z"/>
    </g>
    <path id="path4" class="cls-7" d="M686.33,1323.45c27.53,3.91,43.28-20.88,53.85-45.44,8.65-18.8,21.7-45.64,28.72-67.45,7.18-22.35,1.42-30.89-16.47-56.69-16.92-25.64-13.59-72.04-6.47-103.71-4.96,15.08-2.55,70.58,11.91,95.34,14.95,24.76,36.96,30.97,22.97,70.79-14.63,40.28-35.86,76.75-49.03,92.08-13.99,16.88-40.44,15.9-45.46,15.09Z"/>
    <path id="path5" class="cls-4" d="M740.27,1277.89c8.65-18.8,21.7-45.64,28.79-67.44,7.11-22.36,1.35-30.9-16.6-56.78,13.29,13.07,28.47,30.24,20.33,59-7.61,25.03-32.53,65.22-32.53,65.22Z"/>
    <path id="path6" class="cls-4" d="M549.06,1280.03c-16.96,3.88-60.62,24.24-70.28,113.51,5.18-25.95,25.92-94.89,70.28-113.51Z"/>
    <path id="path7" class="cls-4" d="M805.58,1133.96c9.44-10.49,41.37-33.18,72.3-17.85-18.98-3.53-35.01-6.1-72.3,17.85Z"/>
    <path id="path8" class="cls-5" d="M663.01,1402.14c16.65,4.85,15.7,20.51,60,34.73,49.26,14.94,157.82-42.48,195.06-138.14-14.33,25.58-83.05,141.89-190.5,128.5-23.93-3.83-45.53-25.35-64.56-25.08Z"/>
    <path id="path9" class="cls-5" d="M550.88,1328.59c9.38-7.21,29.73-12.67,46.22,5.77-2.97-7.04-24.39-26.84-46.22-5.77Z"/>
    <path id="path10" class="cls-5" d="M612.26,1368.34c2.88,10.87,15.48,27.6,37.44,30.59-6.2-2.62-25.33-10.62-37.44-30.59Z"/>
    <g class="cls-10">
      <path id="path11" class="cls-1" d="M532.34,1438.67c-14.43-60.18,9.4-109.85,35.36-108.94,16.39-.13,25.9,7.96,30.6,16.9,4.71,8.94,6.79,24.59,14.84,35.12,16.49,21.76,31.37,21.39,48.02,26.25,16.73,4.37,14.01,21.37,63.9,35.92,49.82,14.54,158.74-39.02,196.59-134.51,37.25-95.59,12.74-172.6-37.48-194.82-50.15-22.21-68.86,11.35-86.49,16.15-16.67,4.95-19.47-51.17-14.61-81.52"/>
    </g>
    <g class="cls-9">
      <path id="path12" class="cls-1" d="M742.76,1042.75c-7.12,31.68-10.76,86.2,5.6,111.83,17.24,26.75,23.68,31.03,16.65,52.91-7.17,22.28-20.07,48.66-28.81,68-10.48,24.01-26.37,46.59-53.9,42.68-21.07-2.81-17.8-10.47-30.78-15.79-12.97-5.39-16.29-.49-23.37-4.31-7.55-3.96-44.62-47.01-101.14-14-45.59,26.01-61.31,104.86-48.44,168.58"/>
    </g>
  </g>
</svg>