<?xml version="1.0" encoding="UTF-8"?>
<svg id="svg3" xmlns="http://www.w3.org/2000/svg" xmlns:xlink="http://www.w3.org/1999/xlink" viewBox="0 0 1398.49 3639.87">
  <defs>
    <style>
      .cls-1 {
        stroke-width: 1.5px;
      }

      .cls-1, .cls-2, .cls-3, .cls-4, .cls-5 {
        fill: none;
      }

      .cls-1, .cls-5 {
        stroke: #fdcf9a;
        stroke-miterlimit: 8;
      }

      .cls-6 {
        fill: #fcbc75;
      }

      .cls-6, .cls-7, .cls-8 {
        fill-rule: evenodd;
      }

      .cls-7 {
        fill: #fff;
      }

      .cls-9 {
        clip-path: url(#clippath-1);
      }

      .cls-3 {
        stroke-width: .68px;
      }

      .cls-3, .cls-4 {
        stroke: #333;
        stroke-linecap: round;
        stroke-linejoin: round;
      }

      .cls-4 {
        stroke-width: .66px;
      }

      .cls-8 {
        fill: #fdcf9a;
      }

      .cls-5 {
        stroke-width: 1.52px;
      }

      .cls-10 {
        clip-path: url(#clippath);
      }
    </style>
    <clipPath id="clippath">
      <rect class="cls-2" x="624.61" y="661.84" width="140.76" height="213.03"/>
    </clipPath>
    <clipPath id="clippath-1">
      <rect class="cls-2" x="624.61" y="661.84" width="140.76" height="213.03"/>
    </clipPath>
  </defs>
  <g id="_흉선" data-name="흉선">
    <g class="cls-10">
      <path id="path2" class="cls-8" d="M626.94,828.13c-3.43,12.42-1.52,15.42,1.5,18.82,1.52,1.51,3.43,1.51,4.57,2.99,1.13,1.51.76,4.52,1.89,6.03,3.41,4.5,7.98,8.66,14.81,9.39,8.35.75,18.59-2.24,24.29-.73,3.8,1.12,8.35,4.89,12.92,5.62,4.55.39,8.72-2.63,12.9-3.75,4.18-.75,5.33-2.26,7.98-3.77-1.13,2.26,3.8,3.77,6.07,6.78,3.8,3.75,17.46,6.37,22.03,3.75,6.83-3.38,12.9-13.54,18.98-18.43,10.24-7.88,4.18-11.65,7.2-21.06,1.52-6.01,4.18-7.13,1.52-13.16-2.65-6.4-3.02-4.13-1.89-11.28,1.13-6.01-1.89-9.39-2.65-15.03-.39-3.77,2.65-9.41,1.52-13.18-1.15-3.75-3.43-5.64-5.33-9.39-2.28-3.77-2.28-9.02-4.94-12.79-2.65-3.01-5.31-6.03-6.07-9.78-1.13-5.28,1.52-9.41-.76-15.42-1.52-4.89-3.41-7.54-4.55-12.04-1.15-4.13-1.52-7.52-4.94-10.16,1.5-4.13.37-8.64.76-13.16.37-2.26-1.52-7.9-.76-10.9.76-12.79-6.85-9.41-12.55-2.65-1.89,2.26-4.18,8.29-5.31,10.92-1.89,3.75,0,8.27-1.52,11.65-1.89,3.77-6.46,6.03-8.35,11.28-.76,3.01-3.02,6.4-3.78,9.41-1.52-4.89-1.52-12.04-4.94-16.56-1.15-1.87-4.94-2.99-6.09-4.5-.76-1.51-.37-6.78-.76-8.27-.74-6.78-4.55-8.66-6.44-13.93-2.28-6.76-5.33-22.57-8.74-22.57s-6.07,6.4-7.59,10.16c-2.28,4.52.37,8.66-.76,13.16-1.52,5.64-6.07,12.42-7.98,18.07-2.65,7.52-4.18,15.78-7.59,22.93-2.65,6.4-2.26,11.28-3.78,18.8-1.52,7.15-6.83,8.66-8.35,16.56-.39,3.75-.39,11.28,0,15.03,1.13,5.28-4.57,10.16-5.33,15.42-1.13,8.29,6.09,12.04.76,18.82-2.65,3.75-7.96,13.52-7.96,16.9Z"/>
    </g>
    <path id="path3" class="cls-6" d="M732.79,713.44c6.46,6.03,7.61,26.74,9.5,36.91-1.89-1.87-3.8-3.38-6.09-1.49,1.91-1.14,2.67-6.42,2.67-9.04-.39-3.77-3.8-4.52-4.57-7.17-.76-4.89,3.8-15.81-2.3-18.82l.78-.39Z"/>
    <path id="path4" class="cls-6" d="M737.77,724.77c1.15,1.89,3.06,6.4,3.43,9.41.76,4.11-.76,7.5-.76,10.88l-2.67-20.29Z"/>
    <path id="path5" class="cls-6" d="M730.53,680.76c1.89.75,1.5,5.23,1.13,6.74-.37,2.63,0,4.87.76,7.11.74,4.87.74,10.12-1.52,14.6-1.5-.37-2.63-.73-4.13-.73,1.5-2.63,4.13-5.62,3.39-9-1.13-3.36-4.15-2.99-6.05-5.23.39-.39,1.13-1.12,1.52-1.87.74,1.12,2.63,3.36,4.13,2.63,1.89-1.14,0-3.38-.37-4.5-.76-1.87-.76-3.38-.37-5.23.37-1.51,1.5-3.01.74-4.89l.76.39Z"/>
    <path id="path6" class="cls-6" d="M743.92,755.52c4.18,1.89,6.09,6.8,7.59,10.94.76,2.26,1.52,4.52,2.67,6.78.76,1.89,2.26,3.4,3.02,5.66,1.52,5.28-1.13,9.43-.37,14.71.37,3.38,1.52,6.4,2.65,9.41,1.15,2.26,1.89,5.28.76,7.54-.37-1.12-2.65-2.63-3.8-2.26,1.52-.37,1.91-3.38,1.91-4.89,0-2.65-1.52-1.89-3.41-3.4-1.52-1.12-2.28-3.38-2.67-5.28-.76-3.01,1.15-3.38,1.52-6.03.39-1.12.76-3.01.39-4.13-.39-1.53-1.52-2.28-2.28-3.4-1.52-2.65.76-6.03,0-9.04-.39-1.14-1.52-1.89-2.28-3.01-.37-.75-.37-2.26-.76-3.4-1.13-4.52-4.55-7.9-7.22-11.69l2.28,1.51Z"/>
    <path id="path7" class="cls-6" d="M713.85,851.12c-.76,2.26-.76,4.13-1.52,6.37-.37,1.49-2.28,3.75-2.28,5.23.39,1.87,2.67,3.36,4.2,4.87,1.13,1.12,2.65,2.24,4.57,2.61,3.78,1.51,9.87,2.99,13.68,2.63,4.18-.75,8.37-4.87,10.63-8.23-.74,0-1.5.37-2.26.37-.76.39-1.91,0-2.67-.37-1.89-.37-3.8-.37-4.94-1.51-.76-.37-1.15-1.49-1.52-1.85-1.13-.75-.37-.75-1.89-.75-1.91,0-3.43.37-5.33-.39.76.75,2.65,2.99,2.65,4.5,0,3.75-4.18,2.63-6.46,1.87-3.41-1.12-6.09-2.99-5.7-6.37,0-2.99-1.52-5.99-1.15-8.98Z"/>
    <path id="path8" class="cls-6" d="M734.39,859.37c1.15,2.99,9.09,2.99,11.37,1.12,1.89-1.12,2.65-3.38,4.15-4.87,1.89-1.51,4.94-2.26,6.83-4.13,3.02-3.77,1.5-8.27,1.89-12.4.37-4.5,5.29-11.63,2.65-16.15,0,3.01-.76,4.52-2.65,6.76-1.15,1.14-1.52,1.89-3.04,2.26-.74.37-2.63.75-3.02,1.12-1.89,1.14.39,2.63.76,4.52.37,2.24.76,4.5.37,6.74-.37,3.38-1.5,4.13-4.15,5.28-2.65,1.49-2.28,2.99-3.02,5.25-1.89,4.13-8.33,6.01-12.13,4.5Z"/>
    <path id="path9" class="cls-6" d="M702.03,792.47c5.68,3.4,7.2,5.28,9.46,9.41,2.26,4.13,1.52,9.39.76,14.28-.76,4.89-1.13,13.16-1.13,19.55s0,18.43-3.41,23.69c-3.41,5.28-7.57,4.52-10.98,6.4s-6.81,3.75-9.85,3.01c-3.02-.75-8.33-4.13-8.33-4.13,0,0,4.94-.75,6.07-1.51,1.13-.75,5.31,2.63,7.57,2.24,2.28-.37,2.65.75,6.44-3.75,3.78-4.52.76-13.54,1.52-15.05.76-1.49,5.29,1.51,5.68-5.62.37-7.15,1.13-14.3-1.52-16.56,3.04-4.5,5.31-10.9,4.55-16.15-.76-5.28-3.41-13.91-6.81-15.81Z"/>
    <path id="path10" class="cls-6" d="M688.49,707.42c4.94,2.65,7.59,4.13,8.72,7.54,1.13,3.38,2.65,10.9,3.78,14.64,1.13,3.77,3.41,7.15,1.52,11.65-1.89,4.52-3.41,9.41-2.65,16.17s3.41,15.42,4.18,20.29c.74,4.89,2.63,10.16,1.89,12.4-1.89-2.99-7.96-3.75-7.96-3.75,3.41-3.01,1.89-11.28,1.13-16.17-.76-4.89-3.02-14.64-2.65-20.29.39-5.64,3.04-10.14,3.04-14.66s-3.04-12.02-3.8-16.54c-.74-4.51-4.15-10.14-7.2-11.28Z"/>
    <path id="path11" class="cls-6" d="M636.01,852.93c.38,3.76,3.04,4.89,7.59,7.89,4.56,3,7.59,2.26,11.76,2.26s11-1.13,11-1.13c-1.51-2.25-3.03-3-3.41-5.64-1.13,3.76-7.97,4.89-12.52,2.64-3.41-1.51-7.21-5.26-6.46-6.77-3.41.38-6.07,1.88-7.97.75Z"/>
    <path id="path12" class="cls-6" d="M627.25,833.12c-1.53,4.88-1.14,11.62,4.96,14.25,5.72,2.62,9.14,1.12,9.14,1.12-3.8,0-13.72-2.62-14.1-15.37Z"/>
    <path id="path13" class="cls-6" d="M661.88,822.93c-.39,1.13-2.35,4.49-2.35,5.61-.4,1.5,1.17,3.74,1.57,5.22,1.17-3.36,1.56-7.1,1.56-10.46l-.78-.38Z"/>
    <path id="path14" class="cls-6" d="M694.5,815.31c-.37,1.14-1.11,1.89-1.48,3.03v4.92c2.22-1.51,3.7-5.68,3.7-8.72l-2.22.76Z"/>
    <path id="path15" class="cls-6" d="M664.8,783.75c-.38,1.9-.76,3.42-1.15,4.95,1.53,1.14,4.6,3.03,4.22,5.32,1.14-.75,2.29-1.52,3.43-1.89-3.43,0-5.74-5.33-5.35-7.98l-1.15-.39Z"/>
    <path id="path16" class="cls-6" d="M682.73,754.34c1.89,3.41.38,7.95,1.51,11.73,1.13-1.88,3.01-6.43,1.13-7.94l-2.64-3.79Z"/>
    <path id="path17" class="cls-6" d="M661.75,751.9c.38,1.48-.38,4.06-1.14,5.16,1.52,0,2.28,1.11,3.04,1.84,0-1.84-1.14-4.42-.38-6.26l-1.52-.74Z"/>
    <path id="path18" class="cls-6" d="M664.88,725.83c.76,1.87,2.64,4.11,4.52,4.48-.37-1.12-.75-2.61-.37-3.73-.76.37-1.89,0-2.64-.75,0,0-1.51,0-1.51,0Z"/>
    <path id="path19" class="cls-6" d="M692.25,727.29c-.38,1.17-.38,2.34-.38,3.5,1.14-.77,2.28-.77,3.04,0-.76-1.16-1.14-2.33-1.9-3.5h-.76Z"/>
    <path id="path20" class="cls-6" d="M712.7,731.12c.76,1.87,1.89,3.01,3.76,4.13-1.13,1.49-1.5,3.36-1.87,5.23-.39-2.99-2.65-5.62-1.13-8.62l-.76-.75Z"/>
    <path id="path21" class="cls-6" d="M673.93,664.16c3.43.38,4.58,10.17,4.96,12.43.76,3.39,1.9,6.41,3.42,9.42,3.42,6.78,7.23,11.68,7.99,19.21-1.14-2.63-3.42-2.63-5.71-3.76,1.9-2.64-.76-7.91-1.9-10.17-.76-1.51-1.9-2.64-3.04-3.77-1.9-1.13-1.9-.38-1.9-2.64,0-1.88.76-3.01.76-4.9-.38-1.51-1.52-3.01-1.52-4.52-.76-3.01-.38-7.91-3.05-10.55v-.75h0Z"/>
    <path id="path22" class="cls-6" d="M722.55,818.05c1.15.75.76,1.51,1.89,1.87.76.75,1.89.75,2.65,1.51-1.89,3.36-.76,8.59,1.87,11.22-2.26,1.49-3,3.36-4.52,5.6,0-3.36-.74-5.6-.37-8.96.37-1.87,1.13-3.38.76-5.25-.39-1.85-1.89-2.99-1.52-4.85l-.76-1.14Z"/>
    <path id="path23" class="cls-6" d="M721.89,773.96c.76,1.14,1.15,2.67,1.15,4.18.37-1.89.76-4.56,1.89-5.7l-3.04,1.53Z"/>
    <path id="path24" class="cls-6" d="M739.7,779.6c-1.93,1.53-3.11,5.32-3.5,7.58,1.17-2.26,2.32-2.26,3.87-3.01l-.37-4.56Z"/>
    <path id="path25" class="cls-7" d="M666.36,693.9c-2.66,3.01-4.95,7.52-6.47,12.4-1.52,4.5-3.42,15.4-5.33,19.53-1.9,3.76-3.42,6.01-3.42,10.51.76-4.5,3.8-6.01,5.33-10.89,1.52-4.89,3.8-12.77,4.95-17.28s2.66-12.77,4.95-14.28Z"/>
    <path id="path26" class="cls-7" d="M645.14,754.34c-2.3,2.26-4.22,6.77-4.61,10.54,0,4.13.77,12.03.77,12.03-.38-3.76,1.92-19.18,3.84-22.57Z"/>
    <path id="path27" class="cls-7" d="M633.78,816.01c-2.32,3.78-4.65,7.55-5.43,13.2l5.43-13.2Z"/>
    <path id="path28" class="cls-7" d="M704.78,747.66c-2.3,5.64-1.91,9.8-.37,15.05,1.52,5.64,2.28,12.42,3.04,15.81.78,2.99,2.3,10.53,1.91,14.28,1.91-6.76.78-10.53-.37-16.93-.76-6.37-2.3-14.28-3.06-18.05-.76-3.77-2.67-6.76-1.15-10.16Z"/>
    <path id="path29" class="cls-7" d="M716.17,820.25c-1.11,5.66-.74,10.16-1.11,13.93-.74,3.77.74,9.41-.37,14.66,3.33-7.88,1.85-10.53,1.85-15.42,0-5.28.37-7.9-.37-13.18Z"/>
    <g class="cls-9">
      <path id="path30" class="cls-3" d="M626.94,828.13c-3.43,12.42-1.52,15.42,1.5,18.82,1.52,1.51,3.43,1.51,4.57,2.99,1.13,1.51.76,4.52,1.89,6.03,3.41,4.5,7.98,8.66,14.81,9.39,8.35.75,18.59-2.24,24.29-.73,3.8,1.12,8.35,4.89,12.92,5.62,4.55.39,8.72-2.63,12.9-3.75,4.18-.75,5.33-2.26,7.98-3.77-1.13,2.26,3.8,3.77,6.07,6.78,3.8,3.75,17.46,6.37,22.03,3.75,6.83-3.38,12.9-13.54,18.98-18.43,10.24-7.88,4.18-11.65,7.2-21.06,1.52-6.01,4.18-7.13,1.52-13.16-2.65-6.4-3.02-4.13-1.89-11.28,1.13-6.01-1.89-9.39-2.65-15.03-.39-3.77,2.65-9.41,1.52-13.18-1.15-3.75-3.43-5.64-5.33-9.39-2.28-3.77-2.28-9.02-4.94-12.79-2.65-3.01-5.31-6.03-6.07-9.78-1.13-5.28,1.52-9.41-.76-15.42-1.52-4.89-3.41-7.54-4.55-12.04-1.15-4.13-1.52-7.52-4.94-10.16,1.5-4.13.37-8.64.76-13.16.37-2.26-1.52-7.9-.76-10.9.76-12.79-6.85-9.41-12.55-2.65-1.89,2.26-4.18,8.29-5.31,10.92-1.89,3.75,0,8.27-1.52,11.65-1.89,3.77-6.46,6.03-8.35,11.28-.76,3.01-3.02,6.4-3.78,9.41-1.52-4.89-1.52-12.04-4.94-16.56-1.15-1.87-4.94-2.99-6.09-4.5-.76-1.51-.37-6.78-.76-8.27-.74-6.78-4.55-8.66-6.44-13.93-2.28-6.76-5.33-22.57-8.74-22.57s-6.07,6.4-7.59,10.16c-2.28,4.52.37,8.66-.76,13.16-1.52,5.64-6.07,12.42-7.98,18.07-2.65,7.52-4.18,15.78-7.59,22.93-2.65,6.4-2.26,11.28-3.78,18.8-1.52,7.15-6.83,8.66-8.35,16.56-.39,3.75-.39,11.28,0,15.03,1.13,5.28-4.57,10.16-5.33,15.42-1.13,8.29,6.09,12.04.76,18.82-2.65,3.75-7.96,13.52-7.96,16.9"/>
    </g>
    <path id="path31" class="cls-3" d="M702.42,728.11c1.91,6.4,3.43,11.67,1.15,16.17-1.91,4.89-1.91,8.27-1.91,12.79,0,4.89,1.91,8.64,3.43,17.29,1.13,8.64,4.18,11.65,2.65,19.55,3.41,1.87,8.72,11.26,7.59,17.29-1.52,6.01-1.52,16.9-2.28,21.43-.76,4.89,2.28,19.92-5.31,30.06"/>
    <path id="path32" class="cls-4" d="M636.83,804.85c.38,3.39,1.14,9.04,1.89,12.06"/>
    <path id="path33" class="cls-4" d="M647.44,825.5c2.64,14.62,14.73,3.75,13.98-7.13"/>
    <path id="path34" class="cls-4" d="M658.79,828.88c1.55,2.63,2.71,5.24,1.55,8.23"/>
    <path id="path35" class="cls-4" d="M658.75,778.79c9.09-1.88,4.55,13.94-1.52,16.2"/>
    <path id="path36" class="cls-4" d="M662.66,789.78c2.62.38,4.11,2.61,4.85,5.21"/>
    <path id="path37" class="cls-4" d="M649.33,754.49c2.29,11.58,16.37,4.11,10.28-5.61"/>
    <path id="path38" class="cls-4" d="M659.95,757.36c3.02.77,4.52,3.45,4.52,6.52"/>
    <path id="path39" class="cls-4" d="M663.36,718.74c-2.26,10.92,13.94,7.16,12.06.38"/>
    <path id="path40" class="cls-4" d="M670.13,725.83c-.39,3.04,1.16,6.09,3.48,7.98"/>
    <path id="path41" class="cls-4" d="M684.63,745.87c-3.04,4.85-1.52,10.06,3.04,13.04"/>
    <path id="path42" class="cls-4" d="M690.3,756.38c-3.06,3.01-6.91,11.3-4.22,15.07"/>
    <path id="path43" class="cls-3" d="M707.74,794.02c-2.67-1.89-4.96-3.42-7.65-4.56"/>
    <path id="path44" class="cls-4" d="M684.63,819.14c4.54,2.25,10.94-3,10.57-8.26"/>
    <path id="path45" class="cls-4" d="M691.88,818.37c1.14,3.03.76,7.21-1.9,8.72"/>
    <path id="path46" class="cls-4" d="M673.93,791.65c-4.9,1.51-9.05,4.5-9.05,9.37"/>
    <path id="path47" class="cls-4" d="M643.57,849.92c-3.37.74-8.26,1.85-11.27-.75"/>
    <path id="path48" class="cls-4" d="M665.21,857.48c2.29,8.72,14.86,8.72,20.57,3.41"/>
    <path id="path49" class="cls-4" d="M685.02,856.34c-1.13,6.43,5.28,7.93,10.55,8.31"/>
    <path id="path50" class="cls-4" d="M695.24,837.92c2.67,3.75,4.2,8.23,2.67,12.71"/>
    <path id="path51" class="cls-4" d="M699.11,845.09c1.13-1.17,2.64-1.96,4.52-1.56"/>
    <path id="path52" class="cls-4" d="M667.57,683.71c-.38,3.36,0,6.72,2.99,8.96"/>
    <path id="path53" class="cls-4" d="M673.27,689.66c-3.76,2.26-4.52,8.29-3.01,12.06"/>
    <path id="path54" class="cls-4" d="M686.44,704.73c2.28,1.13,4.57,1.51,6.09,3.01"/>
    <path id="path55" class="cls-4" d="M690.7,726.64c.78,2.63,1.16,6-1.55,7.5"/>
    <path id="path56" class="cls-4" d="M691.87,731.12c1.53,0,3.05,0,4.2,1.22"/>
    <path id="path57" class="cls-4" d="M690.39,795c-1.89,3.06-1.13,7.25,2.63,8.39"/>
    <path id="path58" class="cls-4" d="M689.48,799.6c-1.86-1.1-4.09-.73-5.59,1.1"/>
    <path id="path59" class="cls-3" d="M728.31,710.82c1.93-.39,3.85,0,5.76.75"/>
    <path id="path60" class="cls-3" d="M713.15,721.27c-1.54,4.93-.76,10.22,4.22,12.87"/>
    <path id="path61" class="cls-3" d="M720.33,729.66c-3.8,4.13-5.35,8.27-4.57,13.52"/>
    <path id="path62" class="cls-3" d="M732.09,723.63c2.63,4.15,1.89,12.06-2.63,15.07"/>
    <path id="path63" class="cls-3" d="M733.16,734.46c1.97,0,3.56,1.14,3.95,3.01"/>
    <path id="path64" class="cls-3" d="M712.76,771.37c1.91,4.56,11,3.42,12.5-1.14"/>
    <path id="path65" class="cls-3" d="M721.07,774.46c2.26,1.85,2.63,4.44,1.52,7.01"/>
    <path id="path66" class="cls-3" d="M741.94,773.89c-3.85,4.95-2.3,11.39,3.06,14.42"/>
    <path id="path67" class="cls-3" d="M740.81,784.49c-2.61.77-5.24,2.69-6.75,4.97"/>
    <path id="path68" class="cls-3" d="M721.77,809.33c-1.93,5.64,1.54,9.76,6.54,12.38"/>
    <path id="path69" class="cls-3" d="M731.68,816.58c-3.39,4.5-6.42,10.84-1.87,15.32"/>
    <path id="path70" class="cls-3" d="M735.88,830.43c-7.16.39-8.66,6.03-10.94,11.65"/>
    <path id="path71" class="cls-3" d="M751.08,824.4c1.5,5.62-.37,14.24-6.4,15.72"/>
    <path id="path72" class="cls-3" d="M750.77,834.91c1.44,2.26,2.14,5.25,1.79,8.23"/>
    <path id="path73" class="cls-3" d="M732.01,859.35c2.3,6.03,11.48,4.52,16.04,2.26"/>
    <path id="path74" class="cls-3" d="M725.92,859.39c3.04,1.1,7.96-1.49,10.61-3.71"/>
    <path id="path75" class="cls-3" d="M755.62,808.52c1.91.39,5.33,4.5,6.09,7.5"/>
    <path id="path76" class="cls-3" d="M756.85,803.71c-.76,4.56-2.28,7.21-6.09,9.86"/>
    <path id="path77" class="cls-3" d="M727.09,686.73c-1.17,1.16,0,4.6,1.54,6.52"/>
    <path id="path78" class="cls-3" d="M726.74,690.56c-1.52.77-3.04,1.55-4.2,2.69"/>
    <path id="path79" class="cls-3" d="M740.81,751.9c3.43.73,6.5,3.65,8.39,5.46"/>
    <path id="path80" class="cls-1" d="M650.8,754.95c-1.14.37-2.28,1.1-2.66,2.19,1.52.37,2.66-.73,4.19-.73.75,1.82-1.52,3.28-3.42,4"/>
    <path id="path81" class="cls-1" d="M664.21,720.27c-1.15-.75-3.07,0-3.07,1.51,1.54.75,3.07.38,4.61,0"/>
    <path id="path82" class="cls-1" d="M676.69,720.65c-.36,0-1.08-.33-1.81-.33"/>
    <path id="path83" class="cls-1" d="M670.27,733.36c1.1-.74,2.57-1.5,4.03-1.87"/>
    <path id="path84" class="cls-1" d="M685.49,747.38c-1.15-1.1-2.7-1.47-3.87-.37.39,1.47,2.32,2.2,3.87,2.57"/>
    <path id="path85" class="cls-1" d="M686.97,769.45c-.76.39-1.9.76-3.04,1.14"/>
    <path id="path86" class="cls-1" d="M702.19,789.01c-.38.81-.76,1.22-1.15,2.04"/>
    <path id="path87" class="cls-5" d="M711.98,774.38c1.17-1.1,1.93-2.57,3.5-2.57.37,1.47-.39,2.57-.78,3.67"/>
    <path id="path88" class="cls-5" d="M735.59,789.01c-.37-.35-.74-1.06-1.48-1.79"/>
    <path id="path89" class="cls-5" d="M742.33,775.61c-1.13-.73-3.04-1.1-4.2,0,.78,1.47,1.54,2.57,3.43,2.57"/>
    <path id="path90" class="cls-5" d="M714.29,722.51c-1.52-.39-4.2-.39-3.43,1.93,1.52.37,2.67,0,4.18,0"/>
    <path id="path91" class="cls-5" d="M729.5,709.82c0,1.06,0,1.75.33,2.44"/>
    <path id="path92" class="cls-5" d="M733.2,724.32c-.37,0-.76.49-1.15.49"/>
    <path id="path93" class="cls-5" d="M713.13,741.67h3.7"/>
    <path id="path94" class="cls-5" d="M729.01,737.19c1.15.39,1.91.77,3.04,1.14"/>
    <path id="path95" class="cls-5" d="M723.41,691.74c.37.33.37.65.74.98"/>
    <path id="path96" class="cls-1" d="M667.94,700.29c5.71,0,3.04-4.07-.38-2.59"/>
    <path id="path97" class="cls-1" d="M658.84,750.39c1.15,0,1.92-.38,2.3-1.14"/>
    <path id="path98" class="cls-1" d="M663.36,763.1c.8,0,1.59-.38,2.39-1.14"/>
    <path id="path99" class="cls-1" d="M688.86,732.71c.74.37,1.48,1.1,2.22,1.47"/>
    <path id="path100" class="cls-1" d="M670.93,689.7c0,.81.78,1.63,1.56,2.04"/>
    <path id="path101" class="cls-1" d="M687.71,704.77c-.37.79-.74,1.58-.74,2.36"/>
    <path id="path102" class="cls-1" d="M658.18,793.65c.74,3.42,5.18.39,1.11-2.28"/>
    <path id="path103" class="cls-1" d="M661.14,777.85c-.41,1.12-.82,2.23-.82,3.34"/>
    <path id="path104" class="cls-1" d="M636.81,816.05c3.76-.37,3.76-4.81-.76-2.95"/>
    <path id="path105" class="cls-1" d="M648.62,826.64c-5.34.77,0,6.52,1.9.77"/>
    <path id="path106" class="cls-1" d="M660.32,820.61c1.14-.33,1.9-.65,3.04-.65"/>
    <path id="path107" class="cls-1" d="M686.97,817.6c-.76,1.92-1.15,3.85-.76,5.38"/>
    <path id="path108" class="cls-1" d="M690.44,803.75c4.19-1.89.38-5.7-1.9-.75"/>
    <path id="path109" class="cls-1" d="M689.19,825.09c.78.81,1.94,1.63,2.71,2.04"/>
    <path id="path110" class="cls-1" d="M697.95,837.96c-1.48.39-2.96,1.52-3.33,3.02,1.11,1.13,3.7,0,5.18-1.13"/>
    <path id="path111" class="cls-1" d="M658.84,835.28c1.16.41,2.71,1.22,3.87,1.22"/>
    <path id="path112" class="cls-1" d="M664.92,859.07c.39,0,1.54-.9,2.3-.9"/>
    <path id="path113" class="cls-1" d="M683.11,857.52c1.16.33,2.71,0,3.87,0"/>
    <path id="path114" class="cls-1" d="M642.2,849.21c-.39.76,0,1.53.76,2.28"/>
    <path id="path115" class="cls-5" d="M723,810.94c-4.18-1.89-4.94,6.01.74,2.26"/>
    <path id="path116" class="cls-5" d="M729.5,817.27c1.54.77,3.09.77,4.61,1.14"/>
    <path id="path117" class="cls-5" d="M753.07,825.97c-1.56-.39-3.52-.39-4.32,1.51.8,1.12,3.54,1.12,5.1,1.12"/>
    <path id="path118" class="cls-5" d="M747.76,841.31c0-1.51-.76-3.01-2.71-2.63"/>
    <path id="path119" class="cls-5" d="M723.41,840.16c2.65,3.83,7.16-1.55.76-1.55"/>
    <path id="path120" class="cls-5" d="M736.58,857.52c-.66-.39-.99-1.18-.99-2.36"/>
    <path id="path121" class="cls-5" d="M751.14,812.06c.72.75,1.44,1.51,2.14,1.87"/>
    <path id="path122" class="cls-5" d="M757.55,804.89h-3.04"/>
    <path id="path123" class="cls-5" d="M721.11,779.96h4.2"/>
    <path id="path124" class="cls-5" d="M718.06,730.02c.76,1.08,1.91,1.79,3.04,1.79"/>
    <path id="path125" class="cls-1" d="M688.92,755.28c-.38,1.83.76,3.67,2.66,3.67"/>
    <path id="path126" class="cls-7" d="M690.63,758.58c-1.48,3.4-3.7,6.42-2.59,10.18l2.59-10.18Z"/>
    <path id="path127" class="cls-7" d="M673.56,792.8c-4.13,1.87-7.53,4.5-7.15,9.37.75-3.37,4.51-7.12,7.52-8.62l-.37-.75Z"/>
    <path id="path128" class="cls-7" d="M691.42,795.38c-1.94,4.2.39,5.72,3.49,8-.38-2.67-3.88-4.57-2.71-8.39l-.77.39Z"/>
    <path id="path129" class="cls-7" d="M676.93,723.63c-2.25,1.49-6.38,7.04-1.87,8.15-1.5-2.22.75-5.92,2.24-7.4l-.37-.74Z"/>
    <path id="path130" class="cls-7" d="M691.04,735.36c1.53-2.36,1.91-1.97,4.2-1.57l-4.2,1.57Z"/>
    <path id="path131" class="cls-7" d="M743.07,774.67c-3,3.42-.39,9.88,2.59,11.77-2.22-2.28-2.98-9.49-2.22-12.55l-.37.77Z"/>
    <path id="path132" class="cls-7" d="M730.98,820.57c-2.67,2.69-2.28,6.11-.76,9.53,0-3.42,0-6.48,1.13-9.53h-.37Z"/>
    <path id="path133" class="cls-7" d="M725.92,842.08c.78-4.13,4.98-10.18,9.95-9.8-1.91.39-7.26,4.91-7.26,6.78l-2.69,3.01Z"/>
    <path id="path134" class="cls-7" d="M720.37,731.51q.37-.39,0-.39c-1.56,3.38-3.91,7.15-1.95,10.51l1.95-10.12Z"/>
    <path id="path135" class="cls-7" d="M658.14,761.59c1.11-1.16,2.22-1.55,3.7-1.16l-3.7,1.16Z"/>
    <path id="path136" class="cls-1" d="M672.82,792.84c-.99-1.48-.66-2.95-.99-4.81"/>
    <path id="path137" class="cls-1" d="M696.76,812.38c-1.12,0-2.24-.33-3.37,0"/>
    <path id="path138" class="cls-5" d="M743.9,786.81c-1.13,0-1.89,1.1-1.89,2.2"/>
  </g>
</svg>