<?xml version="1.0" encoding="UTF-8"?>
<svg id="svg3" xmlns="http://www.w3.org/2000/svg" xmlns:xlink="http://www.w3.org/1999/xlink" viewBox="0 0 1398.49 3639.87">
  <defs>
    <style>
      .cls-1 {
        fill: #fbb9af;
      }

      .cls-1, .cls-2, .cls-3 {
        fill-rule: evenodd;
      }

      .cls-4 {
        stroke: #333;
        stroke-width: .84px;
      }

      .cls-4, .cls-5, .cls-6 {
        fill: none;
      }

      .cls-4, .cls-6 {
        stroke-linecap: round;
        stroke-linejoin: round;
      }

      .cls-7 {
        clip-path: url(#clippath-1);
      }

      .cls-6 {
        stroke: #fbb9af;
        stroke-width: 1.16px;
      }

      .cls-2 {
        fill: #fef2f0;
      }

      .cls-3 {
        fill: #fa9b92;
      }

      .cls-8 {
        clip-path: url(#clippath);
      }
    </style>
    <clipPath id="clippath">
      <rect class="cls-5" x="629.29" y="499.6" width="129.98" height="123.16"/>
    </clipPath>
    <clipPath id="clippath-1">
      <rect class="cls-5" x="629.29" y="499.6" width="129.98" height="123.16"/>
    </clipPath>
  </defs>
  <g id="_갑상선" data-name="갑상선">
    <g class="cls-8">
      <path id="path2" class="cls-1" d="M661.77,500.88c9.17-2.36,12.46,1.88,14.58,10.59,1.88,6.59.7,15.77,4.47,21.19,3.76,5.17,7.29,2.35,9.17-2.12,1.88-4.24,2.35-4,2.82-5.42.7-1.41.23-2.35.7-3.53,1.64-5.42,2.82-10.59,3.53-11.77,1.41-3.76,3.06-5.18,3.53-4,1.42,3.06.94,7.53.94,10.59-.24,5.42.24,8.71,2.12,14.59,1.64,5.88,3.29,8.01,8.23.24,2.35-3.53,3.29-8.47,4.71-12.47,2.35-7.54,6.11-21.43,16.46-14.83,1.64.94,3.53,2.58,5.41,4.23,2.12,1.89,4.71,2.12,6.81,4.48,1.42,1.64,2.36,5.18,3.76,7.06,4.24,5.41,7.29,11.07,7.53,15.06.48,11.3,3.29,23.55.48,35.08-2.36,9.65-7.53,21.66-12.23,30.84-2.12,4-9.17,11.05-13.4,16-2.82,3.3-8.01,5.42-12.94,5.18-4.71-.46-5.88-.7-8.23-4-2.36-3.29-5.88-8.23-7.53-12.47-1.42-4.48-.94-8.24-2.36-11.07-2.81-6.12-8.23-2.12-9.17-.7-1.41,2.12-3.99,7.29-5.87,9.89-4,5.18-9.87,13.41-16,16.24-8.23,3.76-14.34,1.18-19.99-5.17-5.41-6.36-4.23-13.43-7.75-20.72-3.3-6.6-6.35-10.83-8.01-18.37-1.64-6.59-4.71-14.35-3.29-20.72.94-3.76,2.12-8.71,3.53-12.23,1.88-4.48,2.58-8.72,4.23-12.95,2.36-6.83,8.01-16.01,12.94-21.43,2.12-2.82,4.94-6.11,10.83-7.29Z"/>
    </g>
    <path id="path3" class="cls-3" d="M646.78,603.63c1.88,3.31,1.88,6.61,4.69,9.69,2.11,2.36,4.69,5.19,7.74,5.9,6.11,1.88,14.55-1.89,17.6-7.31-.93,0-3.27-.94-3.75-.72-1.17.24-2.11,2.13-3.05,3.07-3.05,2.12-4.69,1.42-7.28-.24s-4.69,0-7.28-1.66c-2.11-1.18-9.16-6.14-8.68-8.73Z"/>
    <path id="path4" class="cls-3" d="M706.52,608.65c2.36,3.09,4,7.6,6.83,10.21,3.06,2.84,6.59,1.66,10.34.94-2.81-.72-2.81-3.55-3.99-5.7-1.18,3.56-10.82-2.85-11.52-5.46h-1.66Z"/>
    <path id="path5" class="cls-3" d="M754.2,572.16c-.7,8.23-5.86,16-9.15,23.29-1.63,3.53-4.22,7.29-6.8,10.35-1.41,1.88-3.27,3.3-4.92,4.94-1.41,1.64-2.11,3.99-4.23,4.93.72-1.88,1.64-4.23,2.58-6.11.94-1.41,3.51-3.53,3.51-5.41,0-1.18-.93-1.64-1.17-2.82-.46-1.42-.24-3.06-.24-4.71.24-2.36,0-5.18.94-7.29,0,1.88,1.64,2.58,1.88,4.23.23,1.64-1.64,3.76-.94,5.65,1.87,5.65,5.86-2.82,7.26-5.17.94-1.88,1.41-3.54,2.11-5.42.72-2.11,3.05-4.23,2.82-6.35-.24-4-4.45-8.23-3.75-12.47.93.48,1.87,1.18,2.81,1.66-.7,1.17-1.41,5.41.7,6.11,1.18.48,4.93-3.06,5.63-4l.93-1.41Z"/>
    <path id="path6" class="cls-3" d="M700.35,513.65c.48,4.47-.94,9.17,0,13.41.48,1.88,1.18,4,1.88,5.65.72,1.64,2.58,3.53,2.58,5.18-1.64,0-3.75.46-4.69,2.11,1.41-3.29.94-6.81-2.36-8.47.94-.94,2.12-3.06,1.42-4.23-.94-1.66-2.6-.24-2.36-3.06.24-1.64,1.42-3.3,1.64-5.18.24-2.35.24-4.47,1.42-7.06l.46,1.66Z"/>
    <path id="path7" class="cls-3" d="M663.88,501.13c3.53,0,6.11.7,8.47,3.53,1.87,2.12,2.58,6.35,2.81,8.93.48,3.54,1.18,7.06,1.88,10.35.24,1.64.48,3.53.94,4.94.48,1.18,0,2.12,1.64,3.99-1.64-1.17-4.47-1.87-6.35-.7,4.71-4.93-.46-10.82-3.29-15.04,1.42-.72,3.53-2.12,1.64-4-1.41-1.18-3.29.7-4.93,0,.94-3.06,1.17-12.47-4.24-10.82l1.42-1.18Z"/>
    <path id="path8" class="cls-3" d="M632.65,565.59c2.13,4.48,1.42,9.89,3.07,14.6,1.64,4,5.18,7.77,6.36,12,.46-1.41.7-2.82,1.41-4.23-2.12-1.18-2.35-4.48-3.53-5.88-2.12-2.6-4.48-5.88-4.72-9.42l-2.6-7.06Z"/>
    <path id="path9" class="cls-3" d="M675.51,608.15c5.61.7,9.34-5.18,7.7-10.14-.46,1.89.24,3.54-1.39,5.19-.94,1.18-3.27,3.53-4.44,3.76l-1.87,1.18Z"/>
    <path id="path10" class="cls-3" d="M684.15,592.44c1.42.95,3.53,3.09,3.76,4.97.23-3.07,2.57-6.85,5.4-7.57,2.35-.48,6.8-.24,7.74,2.6.46-4.49-4.69-4.73-7.74-4.02-.7,0-.94.48-1.64.24-.94-.24-.94-1.19-2.11-.95-1.88.24-2.58,2.85-3.76,3.79l-1.64.94Z"/>
    <path id="path11" class="cls-3" d="M754.7,533.34c.48,3.3.48,6.6.7,9.9.48,2.12.7,4.25.7,6.6,0,1.42.7,3.78.24,5.19-1.87-.94-3.27-.48-5.16.23.94-.94,1.88-2.58,2.35-4,.24-1.64-.7-2.36-.94-3.76-.46-1.66.48-3.54,0-5.43-.46-1.41-1.41-1.64-2.57-2.58,5.38-3.3,2.35-11.78-.24-16.04.94,1.89,2.35,3.54,3.29,5.43l1.63,4.47Z"/>
    <path id="path12" class="cls-2" d="M648.86,515.91c2.11-2.58,4.23-4.94,7.28-5.42-3.29,0-6.34.24-9.16,4.48-2.82,4.24-7.29,12.71-8.46,17.19-1.18,4.47-2.36,8.71-2.36,11.05.94-4.23,3.53-9.89,5.18-13.89,1.17-2.58,3.75-8.71,7.52-13.41Z"/>
    <path id="path13" class="cls-2" d="M727.4,503.46c-2.58,0-6.34,3.79-8.22,10.87-1.88,7.09-4.24,18.66-9.65,21.96,6.35-2.82,8.01-9.67,9.87-16.29,1.88-6.61,3.3-16.3,7.99-16.54Z"/>
    <path id="path14" class="cls-2" d="M706.02,593.59c-4.22,1.18-3.27,6.61-1.63,9.44-.7-2.36-1.18-7.54,1.63-8.96v-.48Z"/>
    <path id="path15" class="cls-2" d="M657.25,599.52c1.19-2.16,5.45-3.61,7.33-1.2-2.12-.72-3.78.49-5.67,0l-1.66,1.2Z"/>
    <path id="path16" class="cls-2" d="M668.19,569.2c-.46,2.56-4.52,4.18-2.85,6.73.24-1.84,2.38-3.48,2.85-5.56v-1.17Z"/>
    <path id="path17" class="cls-2" d="M664.91,542.81c-1.64,3.74.7,6.54,3.98,7.93-2.33-2.56-3.74-3.26-3.98-6.99,0,0,0-.94,0-.94Z"/>
    <path id="path18" class="cls-2" d="M698.73,552.68c-2.35,1.66-1.41,4.94.46,6.59-.7-2.11-1.41-5.17.7-6.83l-1.17.24Z"/>
    <path id="path19" class="cls-2" d="M715.44,543.21c-1.39,2.36.23,5.42.92,7.53l-.92-7.53Z"/>
    <path id="path20" class="cls-2" d="M696.19,530.56c-1.51,1.67-1.51,4.03-1.51,5.92l1.51-5.92Z"/>
    <path id="path21" class="cls-2" d="M672.3,535.56c3.1-.98,6.89-.24,9.74.73l-9.74-.73Z"/>
    <path id="path22" class="cls-2" d="M648.21,532.92c1.87-1.36,4.2-.9,5.82.45-1.39-.68-3.25-.45-4.65-.45h-1.17Z"/>
    <path id="path23" class="cls-2" d="M645,558.52c3.59,0,6.21-.94,6.93-3.78-.48,3.07-1.91,4.72-6.93,3.78Z"/>
    <path id="path24" class="cls-2" d="M644.8,584.86c.48,3.8,1.42,4.99,4.02,7.83l-4.02-7.83Z"/>
    <path id="path25" class="cls-2" d="M682.08,588.37c-.94-2.57,1.39-4.92,4.88-4.92-2.32.48-4.88,1.88-4.88,4.92Z"/>
    <path id="path26" class="cls-2" d="M718.77,598.29c-1.88-.48-2.6-.24-3.31,1.63l3.31-1.63Z"/>
    <path id="path27" class="cls-2" d="M723.2,573.52c-1.92,1.91-1.19,5.24,2.4,5.72-2.4-.48-3.11-3.58-2.4-5.72Z"/>
    <path id="path28" class="cls-2" d="M718.97,568.4c-1.41-.92-4.02-3.01-3.54-6.73.48,1.63,2.36,6.27,3.54,6.73Z"/>
    <path id="path29" class="cls-2" d="M736.14,533.19c-2.57-.46-6.09-1.42-7.03,4,.7-1.64,3.29-4.47,7.03-4Z"/>
    <path id="path30" class="cls-2" d="M738.08,590.78c-.95-1.88-2.15-4.47.46-5.42-1.18.72-.7,4.02-.46,5.42Z"/>
    <path id="path31" class="cls-3" d="M699,573.32c1.18,1.88,2.35,2.36,4.22,3.06-.93,1.42-.93,3.06-.93,4.47-.24-1.88-1.41-3.53-2.58-5.17l-.7-2.36Z"/>
    <path id="path32" class="cls-3" d="M681.34,582.95c1.41,0,2.81-.7,4.22-.46-.46-.94-.46-1.64-.46-2.35-.7.94-1.64,1.64-2.81,1.41l-.94,1.41Z"/>
    <path id="path33" class="cls-3" d="M682.52,545.12c-.24.48-.24,1.19-.48,1.66.7.72,1.41,1.19,2.11,1.66-.7-.94-1.17-2.12-.46-2.84l-1.17-.48Z"/>
    <path id="path34" class="cls-3" d="M736.14,547.02c.24.73.24,1.69.24,2.41.24-.95.94-1.68,1.87-2.16l-2.11-.25Z"/>
    <path id="path35" class="cls-3" d="M745.32,567.29c1.19,2.11,3.56,3.04,3.34,4.91,0,.94-1.19,1.87-1.19,2.81-.24,1.39.24,2.56.48,3.73-2.38-1.17-5.48-9.34-3.1-11.44h.48Z"/>
    <path id="path36" class="cls-3" d="M719.87,577.13c.72,1.89,2.13,3.07,4.02,3.54-.23.48-.7,1.66-.94,1.88-.7-.94-1.88-1.64-2.12-2.82l-.95-2.6Z"/>
    <path id="path37" class="cls-3" d="M733.49,564.89c0,.94-.24,1.64-.97,2.35.97.7,1.46,1.64,1.93,2.57.48-1.17.48-3.04.48-4.68l-1.44-.24Z"/>
    <path id="path38" class="cls-3" d="M713,565.99c1.47,0,1.96-1.38.98-2.31-.24.24-.98.7-1.23,1.15l.25,1.15Z"/>
    <path id="path39" class="cls-3" d="M693.98,553.16c.94-.24,1.64-.72,2.81-.48-.7.48-.93,1.19-1.41,1.67l-1.41-1.19Z"/>
    <path id="path40" class="cls-3" d="M712.35,546.56c.25-.46.74-1.17,1.23-1.64-.25.7,0,1.64.48,2.11l-1.71-.46Z"/>
    <path id="path41" class="cls-3" d="M727.8,530.06c.73,1.19.73,2.62.98,3.81.48-.72,1.2-1.43,1.93-2.15l-2.91-1.67Z"/>
    <path id="path42" class="cls-3" d="M660.86,547.93c.24-.92.7-1.84,1.64-2.31.24.46.46,1.39.46,1.86l-2.11.45Z"/>
    <path id="path43" class="cls-2" d="M746.98,564.66c-.7,1.66.48,3.78,2.11,4.24-1.17-1.18-1.63-3.06-1.87-4.72l-.24.48Z"/>
    <path id="path44" class="cls-3" d="M633.31,548.63c-.94,4.72-2.36,9.43-1.41,13.91.94,4.96,2.12,10.39,3.54,15.09.23-2.58-.72-5.66-.72-8.48-.24-2.12-.24-4.25-.46-6.61-.48-2.82-1.89-10.6-.72-13.2l-.24-.71Z"/>
    <path id="path45" class="cls-3" d="M634.23,564.68c.7,6.11,3.3,12.21,4.94,18.07-4.47-3.05-5.42-11.73-5.42-16.65l.48-1.42Z"/>
    <g class="cls-7">
      <path id="path46" class="cls-4" d="M661.82,500.93c9.17-2.36,12.46,1.88,14.58,10.59,1.88,6.59.7,15.77,4.47,21.19,3.76,5.17,7.29,2.35,9.17-2.12,1.88-4.24,2.35-4,2.82-5.42.7-1.41.23-2.35.7-3.53,1.64-5.42,2.82-10.59,3.53-11.77,1.41-3.76,3.06-5.18,3.53-4,1.42,3.06.94,7.53.94,10.59-.24,5.42.24,8.71,2.12,14.59,1.64,5.88,3.29,8.01,8.23.24,2.35-3.53,3.29-8.47,4.71-12.47,2.35-7.54,6.11-21.43,16.46-14.83,1.64.94,3.53,2.58,5.41,4.23,2.12,1.89,4.71,2.12,6.81,4.48,1.42,1.64,2.36,5.18,3.76,7.06,4.24,5.41,7.29,11.07,7.53,15.06.48,11.3,3.29,23.55.48,35.08-2.36,9.65-7.53,21.66-12.23,30.84-2.12,4-9.17,11.05-13.4,16-2.82,3.3-8.01,5.42-12.94,5.18-4.71-.46-5.88-.7-8.23-4-2.36-3.29-5.88-8.23-7.53-12.47-1.42-4.48-.94-8.24-2.36-11.07-2.81-6.12-8.23-2.12-9.17-.7-1.41,2.12-3.99,7.29-5.87,9.89-4,5.18-9.87,13.41-16,16.24-8.23,3.76-14.34,1.18-19.99-5.17-5.41-6.36-4.23-13.43-7.75-20.72-3.3-6.6-6.35-10.83-8.01-18.37-1.64-6.59-4.71-14.35-3.29-20.72.94-3.76,2.12-8.71,3.53-12.23,1.88-4.48,2.58-8.72,4.23-12.95,2.36-6.83,8.01-16.01,12.94-21.43,2.12-2.82,4.94-6.11,10.83-7.29"/>
    </g>
    <path id="path47" class="cls-4" d="M692.92,526.4c1.41,2.81,3.04,2.81,5.82,2.58"/>
    <path id="path48" class="cls-4" d="M695.53,529.01c-.94,1.87-2.61,3.96-1.89,6.52"/>
    <path id="path49" class="cls-4" d="M731.67,510.14c2.86-.95,6.42-1.91,9.03-.24"/>
    <path id="path50" class="cls-4" d="M748.87,519.07c.46,3.06-.46,5.88-1.64,8.23"/>
    <path id="path51" class="cls-4" d="M726.35,522.38c.24,2.13.24,5.9,1.88,7.55,1.63,1.64,7.03,2.12,9.36,2.58"/>
    <path id="path52" class="cls-4" d="M730.76,531.32c-1.37,1.88-2.27,4.45-2.51,7.03"/>
    <path id="path53" class="cls-4" d="M733.58,544.26c.94,2.85,5.62,3.31,8.43,3.31"/>
    <path id="path54" class="cls-4" d="M738.8,547.28c-1.43,1.64-1.91,3.51-1.91,5.62"/>
    <path id="path55" class="cls-4" d="M746.12,544.47c3.86-.93,4.32-7.99,0-8.93"/>
    <path id="path56" class="cls-4" d="M749.13,537.84c.93-.95,1.84-1.67,3.21-1.91"/>
    <path id="path57" class="cls-4" d="M714.25,542.86c-1.46,2.81.24,5.37.95,7.93"/>
    <path id="path58" class="cls-4" d="M714.1,547.28c-1.67-.48-3.58-1.2-5.02,0"/>
    <path id="path59" class="cls-4" d="M714.28,561.42c-.48,3.32.94,5.93,3.54,7.83"/>
    <path id="path60" class="cls-4" d="M715.01,565.84c-1.64.24-3.3.94-4.02,2.11"/>
    <path id="path61" class="cls-4" d="M726.75,569.25c5.88-.94,6.36-2.13,8.23-7.83"/>
    <path id="path62" class="cls-4" d="M732.17,567.34c3.1,2.11,3.81,4.92,2.15,8.43"/>
    <path id="path63" class="cls-4" d="M722.78,572.66c-5.47,4.03.72,9.23,5.47,8.53"/>
    <path id="path64" class="cls-4" d="M724.64,580.69c-.68,1.2-1.37,2.41-1.61,3.61"/>
    <path id="path65" class="cls-4" d="M700.2,567.04c-1.18,3.78-1.66,5.19,1.43,7.79,3.07,2.35,3.78,1.64,6.85-.48"/>
    <path id="path66" class="cls-4" d="M704.17,576.48c-.7,1.89-.7,3.78-.7,5.42"/>
    <path id="path67" class="cls-4" d="M672.35,534.55c4.07-1.43,6.69-.95,10.74.48"/>
    <path id="path68" class="cls-4" d="M663.72,541.96c-.95,3.75-1.91,5.4,1.19,7.97,2.13,1.64,3.09,3.27,5.93,2.81"/>
    <path id="path69" class="cls-4" d="M668.44,552.7c-.5,1.18-.75,2.35-1,3.51"/>
    <path id="path70" class="cls-4" d="M677.07,550.09c3.86-1.63,5.55-3.02,6.02-7.23"/>
    <path id="path71" class="cls-4" d="M681.79,547.28c3.64,1.43,4.12,2.85,3.88,5.22"/>
    <path id="path72" class="cls-4" d="M699.94,550.79c-3.01,1.42-4.4,2.84-3.48,6.37.7,2.6,2.08,3.76,5.09,3.76"/>
    <path id="path73" class="cls-4" d="M697.14,559.52c-.49.95-1.47,1.91-2.21,2.61"/>
    <path id="path74" class="cls-4" d="M695.73,554.2c-1.19-.6-3.1-.6-3.81-.3"/>
    <path id="path75" class="cls-4" d="M701.42,597.16c-.46-2.82,2.05-4,3.85-4.72"/>
    <path id="path76" class="cls-4" d="M703.06,605.39c1.64,2.41,5.86,1.46,7.73,0"/>
    <path id="path77" class="cls-4" d="M714.1,592.04c1.43,2.58,1.91,5.86,0,8.43"/>
    <path id="path78" class="cls-4" d="M715.51,597.46c.95-.5,2.13-.25,3.31,0"/>
    <path id="path79" class="cls-4" d="M722.27,611.81c-.24,3.76,1.67,6.12,4.98,7.53"/>
    <path id="path80" class="cls-4" d="M749.13,557.7c1.89.23,4.02-.69,5.67-.23,1.41.45,3.54,1.37,3.76,2.05"/>
    <path id="path81" class="cls-4" d="M745.82,564.94c-1.41,3.78,1.15,4.72,3.71,6.12"/>
    <path id="path82" class="cls-4" d="M751.04,568.95c-.94,1.66-2.61,4.24-2.37,6.12"/>
    <path id="path83" class="cls-4" d="M740.7,583.71c-2.41.24-4.34.94-4.83,3.3-.49,1.64.97,5.41,2.66,6.34"/>
    <path id="path84" class="cls-4" d="M740.9,591.84c-2.82,1.64-4.02,4.2-3.3,7.23"/>
    <path id="path85" class="cls-4" d="M644.45,590.13c-.95,2.13-1.91,5.45-1.43,7.33"/>
    <path id="path86" class="cls-4" d="M672.65,609.7c1.64,1.91,5.37,1.43,7.23.72"/>
    <path id="path87" class="cls-4" d="M686.3,602.18c.9-1.67.45-5.02-.9-6.22"/>
    <path id="path88" class="cls-4" d="M681.37,590.13c-3.3-4.28,3.54-9.03,7.54-6.89"/>
    <path id="path89" class="cls-4" d="M686.1,582.6c0-1.41.24-3.3.7-4.02"/>
    <path id="path90" class="cls-4" d="M635.01,539.55c-.5,2.36-.25,5.88.5,8.23"/>
    <path id="path91" class="cls-4" d="M639.03,553.2c2.11,2.81,2.58,4.92,6.32,4.45,2.81-.24,5.4-1.17,6.32-3.98"/>
    <path id="path92" class="cls-4" d="M658.8,549.18c1.43-.72,3.1-1.2,4.52-1.2"/>
    <path id="path93" class="cls-4" d="M649.16,510.34c3.54-1.61,5.18-.92,8.93-.92"/>
    <path id="path94" class="cls-4" d="M664.62,511.84c3.41,1.87,2.69,6.31,1.47,10.04"/>
    <path id="path95" class="cls-4" d="M667.43,514.85c.98-.46,1.94-.7,2.91-.7"/>
    <path id="path96" class="cls-4" d="M649.16,525.39c.95,4.08,2.6,5.27,6.12,6.22"/>
    <path id="path97" class="cls-4" d="M651.07,529.91c-1.67.24-3.1,1.19-3.81,2.61"/>
    <path id="path98" class="cls-4" d="M643.95,557.61c.7,1.91-.23,3.8-1.41,5.22"/>
    <path id="path99" class="cls-4" d="M655.79,571.51c2.33,0,5.58,1.66,7.67,1.19,2.1-.72,3.25-2.85,4.18-4.76"/>
    <path id="path100" class="cls-4" d="M663.32,572.66c.6,1.18.4,3.07,0,4.72"/>
    <path id="path101" class="cls-4" d="M674.76,604.68c-1.63,2.58-2.57,8.43-6.32,9.13"/>
    <path id="path102" class="cls-4" d="M643.54,584.91c0,3.78,1.39,6.61,3.91,9.44"/>
    <path id="path103" class="cls-4" d="M660.71,590.13c1.18,3.09,2.13,4.74,5.42,6.62"/>
    <path id="path104" class="cls-4" d="M662.82,594.15c-2.61,1.62-4.99,2.08-6.42,4.62"/>
    <path id="path105" class="cls-4" d="M705.67,535.53c1.87,2.81,4.43,2.35,6.52,2.35"/>
    <path id="path106" class="cls-6" d="M654.76,531.82c.23-.48.23-.72.23-1.2-.94-.24-1.18.97-1.89,1.2-.72-.72-.24-1.68.24-2.41"/>
    <path id="path107" class="cls-6" d="M647.96,532.28c-1.41.24-1.41-2.17.7-.97"/>
    <path id="path108" class="cls-6" d="M649.89,525.59c-.46,0-1.63.25-1.63,1.23.24.98,2.56,0,3.01-.24"/>
    <path id="path109" class="cls-6" d="M667.42,521.28c-.89,0-1.77-.25-1.99-.75.66-.75,1.33-.25,2.21-.5"/>
    <path id="path110" class="cls-6" d="M669.84,513.75c-.3.45-.3.68,0,.9"/>
    <path id="path111" class="cls-6" d="M665.61,512.24c-1.19,0-.72,1.71.72.98"/>
    <path id="path112" class="cls-6" d="M657.6,509.84c0-.46-.48-1.41-.95-1.41-.72.24-.72,1.64-.72,2.11-.72-.7-.48-2.33-1.44-2.81"/>
    <path id="path113" class="cls-6" d="M673.36,534.63c-.2-.24-.4-.72-.4-1.2"/>
    <path id="path114" class="cls-6" d="M664.22,542.9c-.48-.94-1.91-.46-1.91.46.48.48,1.19.48,1.91.7"/>
    <path id="path115" class="cls-6" d="M659.7,547.98c0,.73-.2,1.69.2,2.41"/>
    <path id="path116" class="cls-6" d="M638.32,554.6c2.15-2.11,2.61-.23.72,1.41"/>
    <path id="path117" class="cls-6" d="M642.24,562.36c.49-.24.97.46,1.46.24.95-.48-.49-2.15-.97-2.38"/>
    <path id="path118" class="cls-6" d="M651.67,554.6c0-.23-.4-.46-.6-.7"/>
    <path id="path119" class="cls-6" d="M666.73,555.28c.74.43,1.97.21,2.21-.44-.49-.44-1.47-.44-2.21-.44"/>
    <path id="path120" class="cls-6" d="M669.84,552.29c-.3.45-.3.89,0,1.1"/>
    <path id="path121" class="cls-6" d="M677.32,549.45c-.25,2.15,3.16,1.19.98-.97"/>
    <path id="path122" class="cls-6" d="M683.69,543.26c-.7,0-1.41-.2-2.11,0"/>
    <path id="path123" class="cls-6" d="M684.6,551.77c.74.23,1.97-.23,2.21-.92-.49-.46-1.22-.23-1.96-.23"/>
    <path id="path124" class="cls-6" d="M692.9,553.2c-.24.46-.48,1.38.23,1.61"/>
    <path id="path125" class="cls-6" d="M699.45,551.58c-.7-2.4-2.81.48-1.17.72"/>
    <path id="path126" class="cls-6" d="M698.31,529.89c.24-2.08-1.67-2.08-1.19.23"/>
    <path id="path127" class="cls-6" d="M694.01,534.87c-.7.46-1.63.24-2.1-.48.46-.72,1.86-.24,2.32-.94.69-1.19-.93-1.43-1.86-1.19"/>
    <path id="path128" class="cls-6" d="M711.29,537.2c-.49.7-.24,1.39-.24,1.86-1.23.69-1.97-1.39-1.47-2.32"/>
    <path id="path129" class="cls-6" d="M709.79,546.37c.24,2.31,2.61,1.15,1.43-.7"/>
    <path id="path130" class="cls-6" d="M714.3,543.46c-.72-.2-1.43-.4-1.91-.4"/>
    <path id="path131" class="cls-6" d="M724.84,522.86c.25,0,1.96-.48,2.2.23.25.7-1.22,1.41-1.46,1.64.49,0,2.2-.24,2.43.24.24.93-1.94,1.41-2.43,1.63"/>
    <path id="path132" class="cls-6" d="M737.09,532.9c0-.68-.21-1.13-.43-1.58-.65.45-.88,1.13-.88,1.81"/>
    <path id="path133" class="cls-6" d="M732.21,509.43c-.24.69,0,1.38.7,1.61.24-.69-.24-2.07.46-2.31.94,0,1.41,1.39,1.41,1.86"/>
    <path id="path134" class="cls-6" d="M746.83,526.61c.46.72,1.39,1.19,1.86.24-.24-.72-2.56-1.44-2.1-2.4.46-.97,1.86,0,2.55.24"/>
    <path id="path135" class="cls-6" d="M727.65,537.84h1.51"/>
    <path id="path136" class="cls-6" d="M733.37,544.94c.48-.24.94-.48,1.41-.24-.23.48-.93,1.67-.23,2.15.93.23,1.63-1.43,2.33-1.91"/>
    <path id="path137" class="cls-6" d="M736.46,552.7c2.13-.43,1.43-1.3-.48-1.3"/>
    <path id="path138" class="cls-6" d="M741.08,548.48c.46-.72.93-1.68.46-2.41-.94.25-1.41,1.46-1.64,2.17"/>
    <path id="path139" class="cls-6" d="M746.29,543.52c-.46,1.84,4.15,1.62.69-1.17"/>
    <path id="path140" class="cls-6" d="M747.63,535.03c-.65,0-1.3.45-1.3.9"/>
    <path id="path141" class="cls-6" d="M751.94,536.54c-.5-.48-1-.95-1.51-1.2"/>
    <path id="path142" class="cls-6" d="M715.51,549.89c-.7.45-1.41.9-2.11.68,0-.68.94-1.58,1.88-1.58"/>
    <path id="path143" class="cls-6" d="M694.73,561.12c.49.49.98,1.2,1.71,1.2"/>
    <path id="path144" class="cls-6" d="M700.92,561.9c.24-.69.24-1.62-.24-2.08-.73.24-.73,1.62-.73,2.31"/>
    <path id="path145" class="cls-6" d="M711.69,568.25c-.23-.46-.7-.7-.7-1.41"/>
    <path id="path146" class="cls-6" d="M714.28,562.13c-1.88,0-.7,2.41.23,1.2"/>
    <path id="path147" class="cls-6" d="M727.93,569.93c-.7-.24-1.18-1.66-.48-1.89.7.46.48,2.12,1.88,1.66.93-.24.7-2.13.46-2.85"/>
    <path id="path148" class="cls-6" d="M735.75,561.85c-2.15-.93-2.87,1.38.24,1.15"/>
    <path id="path149" class="cls-6" d="M749.77,556.97c-.24.48-.24,1.67.24,1.91,1.17.24.93-1.19,1.17-1.91.24-.48,0-.97.7-.24.46.24.46,1.91.46,2.38"/>
    <path id="path150" class="cls-6" d="M746.27,565.64c-.7-.5-1.39-.25-1.86.5.7.5,1.39.5,2.31.25"/>
    <path id="path151" class="cls-6" d="M751.74,570.16c-.73-.45-1.47-.68-2.21-.9"/>
    <path id="path152" class="cls-6" d="M733.58,575.07c0,.9,1.66.68,2.13.23,1.18-1.13-1.18-1.13-1.89-1.13"/>
    <path id="path153" class="cls-6" d="M722.53,573.37c-.45-.23-.9-.46-.9-.7"/>
    <path id="path154" class="cls-6" d="M700.95,568.27c-.98-.46-1.97-.93-2.71-.46,0,1.17,1.73.93,2.22,1.63-.74.92-1.97.69-2.72.46"/>
    <path id="path155" class="cls-6" d="M707.53,573.57c.48.5.95,1.23.95,1.97-.95.24-1.68-.98-2.41-1.23"/>
    <path id="path156" class="cls-6" d="M702.76,581.1c.48.3,1.19.6,1.91.3"/>
    <path id="path157" class="cls-6" d="M687.01,579.29c-.46-.2-.93-.2-1.41-.2"/>
    <path id="path158" class="cls-6" d="M688.21,583.51c0-.23.2-.45.2-.9"/>
    <path id="path159" class="cls-6" d="M681.79,589.23c-.43.23-.87.45-1.3.9"/>
    <path id="path160" class="cls-6" d="M685.4,596.93c.24-.46,1.38-1.38,1.61-.46,0,.69-1.14,1.37-1.61,1.59"/>
    <path id="path161" class="cls-6" d="M705.27,593.14c-.46-1.91-2.81-.48-1.41.7"/>
    <path id="path162" class="cls-6" d="M713.2,592.71c.46,0,1.39-.68,2.1-.23.92.9-.93,1.36-1.39,1.36"/>
    <path id="path163" class="cls-6" d="M718.12,597.66c0-.44.2-.65.4-1.1"/>
    <path id="path164" class="cls-6" d="M709.87,604.48c.48.7.72,1.41.72,1.88-.95.23-1.67-.7-1.91-1.64"/>
    <path id="path165" class="cls-6" d="M721.58,612.46c.48-.23,1.68-.45,1.92.23s-1.92,1.13-2.17,1.13"/>
    <path id="path166" class="cls-6" d="M736.69,598.32c.48.44,1.18.44,1.41-.21-.23-.45-.93-.45-1.41-.45"/>
    <path id="path167" class="cls-6" d="M739.7,591.23c.25.49.5.97,1,1.2"/>
    <path id="path168" class="cls-6" d="M740.7,584.31c-.5-.5-.75-1.25-1.51-1.51"/>
    <path id="path169" class="cls-6" d="M675.16,605.69c-.46-1.61-3.71.45-.46.9"/>
    <path id="path170" class="cls-6" d="M669.17,614.42c-.23-.5-.23-1-.23-1.51.45,0,.89.25,1.1.5"/>
    <path id="path171" class="cls-6" d="M656.19,597.5c.25.46.97,1.87,1.69,1.17.72-.7-.24-1.63-.73-2.11"/>
    <path id="path172" class="cls-6" d="M661.81,590.13c-.43.48-.87.7-1.3.7"/>
    <path id="path173" class="cls-6" d="M665.15,596.96c.49-.23.98-.93.74-1.41-.49-.7-1.72.48-1.97.94"/>
    <path id="path174" class="cls-6" d="M646.83,594.35c.46,0,.93-.68.7-1.14-.48-.46-1.64.46-1.88.69"/>
    <path id="path175" class="cls-6" d="M643.95,585.61c-.23,0-.68,0-.9-.2"/>
    <path id="path176" class="cls-6" d="M655.99,572.48c.24-.69.93-2.32,1.86-1.62.46.23-.23,2.31,1.15,1.86"/>
    <path id="path177" class="cls-6" d="M662.31,576.5c.48.48,1.64.48,2.11,0-.23-.74-1.41-.98-2.11-1.23"/>
    <path id="path178" class="cls-6" d="M667.43,569.25c-.23-.5-.45-.75-.9-1"/>
    <path id="path179" class="cls-6" d="M722.48,583.76c.48.95,1.68.95,2.16.24-.48-.95-1.44-1.19-2.41-1.19"/>
    <path id="path180" class="cls-6" d="M727.25,580.49c0,.72-.3,1.19,0,1.91"/>
    <path id="path181" class="cls-6" d="M716.91,569.45c.25-.53.73-.8,1.2-.8"/>
    <path id="path182" class="cls-6" d="M634.56,547.78c.72-.24,1.19-.72,1.66-1.44-.7-.72-2.13-.97-2.61-.24"/>
  </g>
</svg>