<?xml version="1.0" encoding="UTF-8"?>
<svg id="svg3" xmlns="http://www.w3.org/2000/svg" viewBox="0 0 1398.49 3639.87">
  <defs>
    <style>
      .cls-1 {
        fill: #a15a3f;
      }

      .cls-1, .cls-2, .cls-3, .cls-4, .cls-5, .cls-6, .cls-7 {
        fill-rule: evenodd;
      }

      .cls-2 {
        fill: #f9c6aa;
      }

      .cls-3 {
        fill: #7aa9cf;
      }

      .cls-8, .cls-9, .cls-10, .cls-11, .cls-12, .cls-13 {
        fill: none;
      }

      .cls-8, .cls-11 {
        stroke: #fbddcf;
      }

      .cls-8, .cls-11, .cls-12, .cls-13 {
        stroke-linecap: round;
        stroke-linejoin: round;
      }

      .cls-8, .cls-12 {
        stroke-width: .68px;
      }

      .cls-4 {
        fill: #fff;
      }

      .cls-9 {
        stroke-width: .34px;
      }

      .cls-9, .cls-10 {
        stroke-miterlimit: 8;
      }

      .cls-9, .cls-10, .cls-12, .cls-13 {
        stroke: #333;
      }

      .cls-10 {
        stroke-width: .32px;
      }

      .cls-5 {
        fill: #ebf1f7;
      }

      .cls-6 {
        fill: #fbddcf;
      }

      .cls-11, .cls-13 {
        stroke-width: .66px;
      }

      .cls-7 {
        fill: #b6cfe4;
      }
    </style>
  </defs>
  <g id="_폐포" data-name="폐포">
    <path id="path1" class="cls-7" d="M700.09,705.33c8.6,0,14.6-.43,17.18-3.63,3.01-2.73,3.85-8.19.43-10.93-2.58-1.38-3.45.92-17.61.92h0c-14.14,0-15.01-2.3-17.59-.92-3.45,2.73-2.58,8.19.43,10.93,2.58,3.19,8.58,3.63,17.16,3.63Z"/>
    <path id="path2" class="cls-7" d="M700.09,686.56c8.6,0,14.6-.43,17.18-3.19,3.01-3.22,3.85-11.46.43-14.22-2.58-1.38-3.45.92-17.61.92h0c-14.14,0-15.01-2.3-17.59-.92-3.45,2.76-2.58,11,.43,14.22,2.58,2.76,8.58,3.19,17.16,3.19Z"/>
    <path id="path3" class="cls-7" d="M700.09,665.11c8.6,0,14.6-.43,17.18-3.17,3.01-3.17,3.85-9.5.43-11.77-2.58-1.81-3.45.92-17.61.92h0c-14.14,0-15.01-2.73-17.59-.92-3.45,2.27-2.58,8.6.43,11.77,2.58,2.73,8.58,3.17,17.16,3.17Z"/>
    <path id="path4" class="cls-7" d="M700.09,645.51c8.6,0,14.6-.89,17.18-3.65,3.01-3.19,3.85-11.41.43-14.17-2.58-1.38-3.45,1.38-17.61,1.38h0c-14.14,0-15.01-2.76-17.59-1.38-3.45,2.76-2.58,10.98.43,14.17,2.58,2.76,8.58,3.65,17.16,3.65Z"/>
    <path id="path5" class="cls-7" d="M700.09,624.06c8.6,0,14.6-.46,17.18-3.68,3.01-3.24,3.85-9.73.43-12.02-2.58-1.86-3.45.92-17.61.92h0c-14.14,0-15.01-2.78-17.59-.92-3.45,2.3-2.58,8.78.43,12.02,2.58,3.22,8.58,3.68,17.16,3.68Z"/>
    <path id="path6" class="cls-7" d="M700.09,604.05c8.6,0,14.6-.46,17.18-3.68,3.01-3.24,3.85-9.73.43-12.02-2.58-1.86-3.45.92-17.61.92h0c-14.14,0-15.01-2.78-17.59-.92-3.45,2.3-2.58,8.78.43,12.02,2.58,3.22,8.58,3.68,17.16,3.68Z"/>
    <path id="path7" class="cls-7" d="M700.09,709.32c14.17,0,15.04-2.76,17.61-.92,3.42,2.27,2.58,7.74-.43,10.93-2.58,3.19-8.58,5-17.18,5h0c-8.58,0-14.58-1.81-17.16-5-3.01-3.19-3.88-8.65-.43-10.93,2.58-1.84,3.45.92,17.59.92Z"/>
    <path id="path8" class="cls-7" d="M700.09,741.69c8.6,0,14.6-2.27,17.18-5.44,3.01-3.19,3.85-8.63.43-10.9-2.58-1.84-3.45,2.71-17.61,2.71h0c-14.14,0-15.01-4.54-17.59-2.71-3.45,2.27-2.58,7.71.43,10.9,2.58,3.17,8.58,5.44,17.16,5.44Z"/>
    <path id="path9" class="cls-7" d="M700.09,759.86c8.6,0,14.6-3.17,17.18-6.33,3.01-3.17,3.85-8.58.43-10.85-2.58-1.81-3.45,2.73-17.61,2.73h0c-14.14,0-15.01-4.54-17.59-2.73-3.45,2.27-2.58,7.68.43,10.85,2.58,3.17,8.58,6.33,17.16,6.33Z"/>
    <path id="path10" class="cls-6" d="M700.09,724.33h0c-8.17,0-13.73-1.84-16.75-4.6.43.46,1.3,2.76,0,5.05,2.14-.46,4.29,3.22,16.75,3.22h0c14.14,0,15.01-4.6,17.56-2.76-1.71-2.76-1.71-4.14,0-6.43h0l-.41.46c-2.58,3.22-8.58,5.05-17.16,5.05Z"/>
    <path id="path11" class="cls-6" d="M717.19,701.67c-2.55,3.11-8.55,3.57-17.1,3.57h0c-8.58,0-14.55-.46-17.13-3.57.87,2.68.87,4.47-.43,6.69,2.58-1.79,3.45.87,17.56.87h0c14.12,0,14.96-2.66,17.54-.87.43,0,.43.43.84.43h0c-1.28-1.79-1.71-4.88-.84-7.12t-.43,0Z"/>
    <path id="path12" class="cls-6" d="M700.09,724.33h0c-8.17,0-13.73-1.84-16.75-4.6.43.46,1.3,2.76,0,5.05,2.14-.46,4.29,3.22,16.75,3.22h0c14.14,0,15.01-4.6,17.56-2.76-1.71-2.76-1.71-4.14,0-6.43h0l-.41.46c-2.58,3.22-8.58,5.05-17.16,5.05Z"/>
    <path id="path13" class="cls-6" d="M717.19,701.67c-2.55,3.11-8.55,3.57-17.1,3.57h0c-8.58,0-14.55-.46-17.13-3.57.87,2.68.87,4.47-.43,6.69,2.58-1.79,3.45.87,17.56.87h0c14.12,0,14.96-2.66,17.54-.87.43,0,.43.43.84.43h0c-1.28-1.79-1.71-4.88-.84-7.12t-.43,0Z"/>
    <path id="path14" class="cls-6" d="M716.78,620.8c-2.99,2.81-8.58,3.27-16.72,3.27h0c-7.28,0-12.84-.46-15.85-2.78.87,2.32,0,4.65-.87,6.51,2.14-.94,3.88,1.38,16.72,1.38h0c14.14,0,15.01-2.78,17.59-1.38q.41.46.41.92v-.46c-1.71-.92-2.55-4.65-1.28-7.45Z"/>
    <path id="path15" class="cls-6" d="M717.22,600.17c-2.99,3.22-8.55,3.68-17.13,3.68h0c-7.71,0-12.84-.46-15.83-2.76.84,2.76,0,5.97-1.74,7.35,2.58-1.84,3.45.92,17.56.92h0c14.14,0,14.99-2.76,17.56-.92.41,0,.41.46.41.46v-.46c-1.71-1.38-2.55-5.51-.84-8.27Z"/>
    <path id="path16" class="cls-6" d="M700.09,691.46h0c14.14,0,15.01-2.25,17.56-.89-1.28-1.81-1.71-5-.41-7.28-3.01,2.73-8.58,3.19-17.16,3.19h0c-7.74,0-12.87,0-15.88-2.27.87,2.27.43,4.54-.87,5.9,2.14-.46,4.29,1.35,16.75,1.35Z"/>
    <path id="path17" class="cls-6" d="M700.06,665.22h0c-7.74,0-12.87,0-16.31-2.3.87,1.84.87,4.57,0,5.95,2.14-.46,4.29,1.35,16.31,1.35h0c13.71,0,15.01-2.27,17.16-.89-1.3-2.3-1.71-5.95.84-8.25v-.46c0,.46-.41.92-.84,1.38-2.58,2.76-8.58,3.22-17.16,3.22Z"/>
    <path id="path18" class="cls-6" d="M718.06,640.4c0,.49-.41.94-.84,1.4-2.58,2.76-8.58,3.68-17.16,3.68h0c-7.71,0-13.28-.46-16.29-3.22,1.3,2.76.87,5.54-.43,7.38,2.14-.92,3.88,1.38,16.72,1.38h0c14.14,0,15.01-2.76,17.59-.92.41,0,.41.46.41.46h0c-1.71-1.84-2.99-6.92,0-9.68v-.49h0Z"/>
    <path id="path19" class="cls-6" d="M684.18,587.97c1.74-.46,4.72,1.38,15.9,1.38h0c12.46,0,14.6-1.84,16.75-1.38h0c-2.14-1.86-1.28-6.99-1.28-6.99h-30.51c.87,2.35.43,5.13-1.3,6.54l.43.46Z"/>
    <path id="path20" class="cls-5" d="M707.03,591.56c-5.57,1.38-11.56-.46-17.16-.92-1.71,0-3.85-.49-5.57.46-3.01,1.84-.43,7.38,2.14,7.84-.87-1.84-2.14-4.14-.43-5.54,2.14-1.38,6.87-.92,9.01-.92,3.85,0,8.58.92,12-.46v-.46h0Z"/>
    <path id="path21" class="cls-5" d="M706.62,611.17c-5.59,1.38-11.59-.46-17.16-.46-1.71-.46-3.85-.94-5.57,0-3.01,1.84-.43,7.38,2.14,7.84-.87-1.84-2.14-4.14,0-5.54,1.71-1.38,6.43-.92,8.58-.92,3.85,0,8.55.92,12.41-.46l-.41-.46Z"/>
    <path id="path22" class="cls-5" d="M706.21,630.96c-5.57,1.35-11.56-.46-17.16-.92-1.71,0-3.85-.46-5.57.46-3.01,1.81-.87,8.6,1.71,9.5-.84-1.79-1.71-5.87.43-7.22,1.71-1.81,6.43-.92,8.58-.92,3.85,0,8.58.92,12-.46v-.43h0Z"/>
    <path id="path23" class="cls-5" d="M706.21,652.81c-5.57,1.35-11.56-.46-17.16-.46-2.14-.46-3.85-.92-5.57,0-3.01,1.81-.43,7.22,2.14,7.66-.87-1.79-2.14-4.06-.43-5.41,2.14-1.35,6.43-.89,8.58-.89,4.29,0,8.58.89,12.43-.46v-.43Z"/>
    <path id="path24" class="cls-5" d="M705.8,693.43c-5.62,1.38-11.67,0-17.28-.46-1.74,0-3.88-.49-5.62.46-3.04,1.38-.43,6.92,2.14,7.84-.41-1.84-2.14-4.62,0-6,1.74-1.38,6.48-.92,8.65-.92,3.88.46,8.63,1.38,12.51-.46l-.41-.46Z"/>
    <path id="path25" class="cls-5" d="M705.8,711.21c-5.62,1.35-11.67-.46-17.28-.92-1.74,0-3.88-.46-5.62.46-3.04,1.35-.43,6.77,2.14,7.66-.41-1.79-2.14-4.49,0-5.85,1.74-1.35,6.48-.92,8.65-.46,3.88,0,8.63.89,12.51-.89h-.41Z"/>
    <path id="path26" class="cls-5" d="M706.21,729.51c-5.57,1.35-12,0-17.56-1.35-1.74-.46-3.45-1.38-5.16-.46-3.01,1.81-.43,7.22,2.14,7.66-.87-1.79-2.14-3.6-.43-4.95,2.14-1.35,6.87.46,9.01.46,4.29,0,8.58.89,12-.92v-.43Z"/>
    <path id="path27" class="cls-5" d="M706.21,671.96c-5.57,1.35-11.56,0-17.16-.46-2.14,0-3.85-.46-5.57.46-3.01,1.35-.87,9.06,1.71,9.5-.84-1.79-1.71-6.33,0-7.68,2.14-1.35,6.43-.92,8.58-.92,4.29.46,8.58,1.38,12.43-.43v-.46Z"/>
    <path id="path28" class="cls-5" d="M704.78,747.66c-9.8,3.7-17.08,0-18.79,1.38-1.28.92,2.14,6.02,4.7,8.78,0,0-.84-.92-5.11-4.62-4.29-3.7-4.29-6.02-2.14-7.86,1.71-1.4,2.55.92,7.25,1.38,5.13.46,11.11,1.86,14.09.94Z"/>
    <path id="path29" class="cls-3" d="M698.25,601.24c6.43-1.4,21.85,3.22,18.43-10.67-.43,4.65-4.7,6.94-8.14,7.89-3.42,1.38-6.84,2.3-10.29,2.78Z"/>
    <path id="path30" class="cls-3" d="M698.68,620.87c6-1.35,21.42,3.19,18.43-10.49-.87,4.57-4.72,6.84-8.58,8.22-3.42.92-6.84,1.84-10.29,2.27h.43Z"/>
    <path id="path31" class="cls-3" d="M698.68,662.33c6-1.35,21.42,3.19,18.43-10.49-.87,4.57-4.72,6.84-8.58,8.22-3.42.92-6.84,1.84-10.29,2.27h.43Z"/>
    <path id="path32" class="cls-3" d="M699.09,683.78c6-1.35,21.42,3.19,18.43-10.49-.87,4.57-4.72,6.84-8.58,8.22-3.42.92-6.84,1.84-10.29,2.27h.43Z"/>
    <path id="path33" class="cls-3" d="M698.66,703.37c6-1.35,21.85,3.19,18.43-10.49-.43,4.57-4.7,6.84-8.14,7.76-3.42,1.39-6.84,2.31-10.29,2.73Z"/>
    <path id="path34" class="cls-3" d="M698.66,722.62c6-1.38,21.85.89,18.87-12.79-.87,4.57-3.01,6.41-7.28,9.14-3.01,1.81-8.14,3.65-11.59,3.65Z"/>
    <path id="path35" class="cls-3" d="M698.66,739.57c6-1.38,21.85.89,18.87-12.79-.87,4.57-3.01,6.41-7.28,9.14-3.01,1.81-8.14,3.19-11.59,3.65Z"/>
    <path id="path36" class="cls-3" d="M698.66,643.59c6.02-1.38,21.44.89,18.02-13.2-.43,4.57-4.29,8.19-8.14,9.55-3.45.92-6.43,3.19-9.88,3.65Z"/>
    <path id="path37" class="cls-3" d="M705.19,756.8c10.26-3.68,13.68-7.81,12.84-10.11-1.28-2.76-3.85-1.38-4.7-.46-.87.46,5.13,2.3-8.14,10.57Z"/>
    <path id="path38" class="cls-6" d="M700.09,741.89h0c-8.58,0-14.58-2.3-17.16-5.51,1.3,1.84,1.3,4.6.43,6.43,2.14-.92,3.85,2.76,16.72,2.76h0c12.87,0,14.6-3.68,16.75-2.76-1.3-2.3-.87-4.14.41-6.43-2.55,3.22-8.58,5.51-17.16,5.51Z"/>
    <path id="path39" class="cls-6" d="M613.63,769.59c-2.12-.46-4.26-.46-6.41-.46,3.42-1.84,6.41-4.57,7.71-9.14.41-.92,0-1.84-.87-2.3-1.28-.46-2.14.46-2.14,1.38-1.28,3.19-3.42,5.49-6.84,7.76-.84,0-2.55.92-4.26,1.38-10.26,0-17.1,2.3-21.8,4.6.84-3.22.84-6.87.84-10.08,0-.92,0-3.19.43-5.03,1.71-3.22,3.42-5.95,6-6.41.84,0,1.71-.92,1.28-2.3,0-.92-.87-1.38-1.71-1.38-3.85.46-6.41,4.14-8.12,7.79-.87-2.27-1.71-4.57-2.58-5.95-.84-.92-1.71-1.38-2.55-.46-.87.46-.87,1.84-.43,2.3,1.28,2.3,2.55,7.79,2.55,14.65-.41,5.03-1.71,10.52-3.83,15.09-.87,1.38-1.3,3.22-1.71,5.05h-.43c-3.85-3.22-8.99-5.97-14.12-8.25-2.14-.46-9.39-2.76-11.11-4.6-.87-.89-1.71-2.27-3.01-3.19l-2.55-3.65c-.43-.46-1.71-.92-2.14,0-.84.43-.84,1.81-.43,2.73l2.58,3.22c.84.89,1.28,1.81,2.14,2.73-3.01-.46-6.43-.92-9.85-.92-.84,0-1.71.92-1.71,1.84s.87,1.84,1.71,1.84c3.01,0,6,0,8.55.46,7.28.46,14.12,4.11,17.1,5.95,3.85,1.84,9.42,6.87,15.39,17.84,1.3,2.76,2.14,5.03,3.01,7.79,3.83.92,7.25,1.84,9.83,2.27v-.43c-1.71-5.51-4.29-12.38-8.12-18.79-.87-.89-2.14-3.19-1.71-5.49,0-.92,0-1.81.41-2.73h.43c0-.46,0-.92.43-1.38,0-.46.43-.46.84-.92,2.58-4.11,7.71-6.87,14.99-7.79,3.42-.92,19.22-1.81,21.8-1.38.84,0,1.71-.89,1.71-1.81.41-.92-.43-1.84-1.3-1.84Z"/>
    <path id="path40" class="cls-13" d="M613.63,769.59c-2.12-.46-4.26-.46-6.41-.46,3.42-1.84,6.41-4.57,7.71-9.14.41-.92,0-1.84-.87-2.3-1.28-.46-2.14.46-2.14,1.38-1.28,3.19-3.42,5.49-6.84,7.76-.84,0-2.55.92-4.26,1.38-10.26,0-17.1,2.3-21.8,4.6.84-3.22.84-6.87.84-10.08,0-.92,0-3.19.43-5.03,1.71-3.22,3.42-5.95,6-6.41.84,0,1.71-.92,1.28-2.3,0-.92-.87-1.38-1.71-1.38-3.85.46-6.41,4.14-8.12,7.79-.87-2.27-1.71-4.57-2.58-5.95-.84-.92-1.71-1.38-2.55-.46-.87.46-.87,1.84-.43,2.3,1.28,2.3,2.55,7.79,2.55,14.65-.41,5.03-1.71,10.52-3.83,15.09-.87,1.38-1.3,3.22-1.71,5.05h-.43c-3.85-3.22-8.99-5.97-14.12-8.25-2.14-.46-9.39-2.76-11.11-4.6-.87-.89-1.71-2.27-3.01-3.19l-2.55-3.65c-.43-.46-1.71-.92-2.14,0-.84.43-.84,1.81-.43,2.73l2.58,3.22c.84.89,1.28,1.81,2.14,2.73-3.01-.46-6.43-.92-9.85-.92-.84,0-1.71.92-1.71,1.84s.87,1.84,1.71,1.84c3.01,0,6,0,8.55.46,7.28.46,14.12,4.11,17.1,5.95,3.85,1.84,9.42,6.87,15.39,17.84,1.3,2.76,2.14,5.03,3.01,7.79,3.83.92,7.25,1.84,9.83,2.27v-.43c-1.71-5.51-4.29-12.38-8.12-18.79-.87-.89-2.14-3.19-1.71-5.49,0-.92,0-1.81.41-2.73h.43c0-.46,0-.92.43-1.38,0-.46.43-.46.84-.92,2.58-4.11,7.71-6.87,14.99-7.79,3.42-.92,19.22-1.81,21.8-1.38.84,0,1.71-.89,1.71-1.81.41-.92-.43-1.84-1.3-1.84"/>
    <path id="path41" class="cls-6" d="M806.69,852.69c1.28,2.3,2.09,4.6,2.55,7.3.87-1.38,2.14-2.71,3.01-4.08,1.68-2.76,5.97.46,3.83,3.63-2.55,3.68-4.7,7.3-4.7,10.98-.46,5.92-.46,11.39.41,16.44,0,1.38-.41,3.63,2.6,2.25,5.11-2.25,9.39-3.17,15.42-4.08,1.28,0,13.28-3.22,15.42-7.3.82-1.38,2.55-1.84,3.83-1.38.87.92,1.28,2.3.87,3.22v.92c-2.14,3.63-5.57,6.38-8.99,8.17,3.83,1.38,7.25,3.68,9.85,6.89.82.46.82,1.33.41,2.25,0,.46,0,.92-.41,1.38-1.28.92-3.01.92-3.88,0-3.01-4.08-10.72-6.84-14.96-5.92-7.71.92-13.33,3.63-20.17,7.3l-3.83,2.76c-5.16,3.17-9.85,5.92-15.42,7.76-1.74.87-8.17,1.79-11.59,5.46-1.28.92-1.68,2.76-2.55,4.08-.87,2.3-1.74,4.14-3.42,5.97-1.28.87-3.01.87-3.88,0-.41-.92-.87-1.84-.41-2.76,0-.46.41-.92.87-1.38.82-.92,1.28-2.3,2.14-4.08.82-1.84,1.68-4.14,3.83-5.97-2.55-.46-5.16-1.33-7.71-3.17-1.28-.46-1.74-2.3-.87-3.68.87-1.38,2.14-1.79,3.42-.92,3.01,1.84,8.17,2.76,13.28.92,4.75-1.38,10.72-5.46,16.75-9.55,1.68-1.38,1.28-2.76,1.28-3.22-.87-7.76-.46-15.52,0-23.74.41-4.08.41-10.06-.87-13.68-1.28-2.76,2.55-5.51,3.88-2.76Z"/>
    <path id="path42" class="cls-12" d="M806.69,852.69c1.28,2.3,2.09,4.6,2.55,7.3.87-1.38,2.14-2.71,3.01-4.08,1.68-2.76,5.97.46,3.83,3.63-2.55,3.68-4.7,7.3-4.7,10.98-.46,5.92-.46,11.39.41,16.44,0,1.38-.41,3.63,2.6,2.25,5.11-2.25,9.39-3.17,15.42-4.08,1.28,0,13.28-3.22,15.42-7.3.82-1.38,2.55-1.84,3.83-1.38.87.92,1.28,2.3.87,3.22v.92c-2.14,3.63-5.57,6.38-8.99,8.17,3.83,1.38,7.25,3.68,9.85,6.89.82.46.82,1.33.41,2.25,0,.46,0,.92-.41,1.38-1.28.92-3.01.92-3.88,0-3.01-4.08-10.72-6.84-14.96-5.92-7.71.92-13.33,3.63-20.17,7.3l-3.83,2.76c-5.16,3.17-9.85,5.92-15.42,7.76-1.74.87-8.17,1.79-11.59,5.46-1.28.92-1.68,2.76-2.55,4.08-.87,2.3-1.74,4.14-3.42,5.97-1.28.87-3.01.87-3.88,0-.41-.92-.87-1.84-.41-2.76,0-.46.41-.92.87-1.38.82-.92,1.28-2.3,2.14-4.08.82-1.84,1.68-4.14,3.83-5.97-2.55-.46-5.16-1.33-7.71-3.17-1.28-.46-1.74-2.3-.87-3.68.87-1.38,2.14-1.79,3.42-.92,3.01,1.84,8.17,2.76,13.28.92,4.75-1.38,10.72-5.46,16.75-9.55,1.68-1.38,1.28-2.76,1.28-3.22-.87-7.76-.46-15.52,0-23.74.41-4.08.41-10.06-.87-13.68-1.28-2.76,2.55-5.51,3.88-2.76"/>
    <path id="path43" class="cls-12" d="M781.37,910.18c-2.04.46-3.27,1.79-4.08,2.65"/>
    <path id="path44" class="cls-12" d="M837.33,889.14c2.2-.41,3.88,0,3.88,0"/>
    <path id="path45" class="cls-13" d="M578.99,772.32c-.46,1.84-1.38,4.57-1.84,5.92"/>
    <path id="path46" class="cls-13" d="M578.17,754.55c-.92,2.3-1.84,5.05-1.38,7.35"/>
    <path id="path47" class="cls-6" d="M659.01,915.74c-1.28-.92-2.14-1.84-2.99-3.22-1.3-1.81-2.58-3.65-4.29-5.03q-.43-.46-.87-.46c2.58-.89,5.57-2.27,8.14-4.57.43-.46.84-1.35.84-1.81,0-.92,0-1.38-.41-1.84-.87-1.38-2.58-1.38-3.42-.46-3.45,2.3-9.85,3.65-11.13,3.65-5.57,0-12.84-3.65-18.84-6.38-.87-.46-3.01-1.84-3.42-5.49-.43-8.22-3.85-18.74-4.29-24.69.43-6.41,1.71-12.79,4.7-15.55.43-.89.87-1.35.87-2.27,0-.46-.43-1.38-.87-1.84-.84-.92-2.55-.92-3.83,0-3.01,3.22-4.72,8.68-5.16,13.71-5.57-6.84-13.25-12.33-17.1-14.17-1.3-.92-2.58,0-3.45,1.38v.92c0,1.38.43,2.27,1.74,2.73,3.42,1.38,8.99,5.95,13.25,10.98,4.29,5.03,5.57,16.9,6,24.69,0,1.81-.43,3.65-2.99,4.11-6.43-.46-13.71-.92-18.84-1.38-5.13-1.35-9.85-3.19-12.84-7.3-.87-1.38-2.58-1.38-3.42-.46-.87.46-1.3,1.38-1.3,2.27,0,.46.43.92.43,1.38,2.58,3.65,6,5.95,9.85,7.33-3.42,1.81-6.84,4.11-8.99,7.76-.43.46-.43.92-.43,1.84,0,.43.43,1.35.87,2.27,1.28.46,2.99.46,3.83-.92,2.14-3.65,6.87-6.38,11.13-7.3,2.58-.46,6,0,9.42.46,4.72.92,10.29,2.73,14.14,4.57l4.26,1.81c7.71,3.68,15.85,7.79,23.97,7.79,1.71,0,3.85.92,4.72,1.35,1.28,1.38,2.55,2.76,3.42,4.14,1.28,1.35,2.55,3.19,4.29,4.57.84.89,2.55.46,3.42-.46.41-.46.41-1.38.41-1.84,0-.92-.41-1.38-.84-2.27Z"/>
    <path id="path48" class="cls-13" d="M659.01,915.74c-1.28-.92-2.14-1.84-2.99-3.22-1.3-1.81-2.58-3.65-4.29-5.03q-.43-.46-.87-.46c2.58-.89,5.57-2.27,8.14-4.57.43-.46.84-1.35.84-1.81,0-.92,0-1.38-.41-1.84-.87-1.38-2.58-1.38-3.42-.46-3.45,2.3-9.85,3.65-11.13,3.65-5.57,0-12.84-3.65-18.84-6.38-.87-.46-3.01-1.84-3.42-5.49-.43-8.22-3.85-18.74-4.29-24.69.43-6.41,1.71-12.79,4.7-15.55.43-.89.87-1.35.87-2.27,0-.46-.43-1.38-.87-1.84-.84-.92-2.55-.92-3.83,0-3.01,3.22-4.72,8.68-5.16,13.71-5.57-6.84-13.25-12.33-17.1-14.17-1.3-.92-2.58,0-3.45,1.38v.92c0,1.38.43,2.27,1.74,2.73,3.42,1.38,8.99,5.95,13.25,10.98,4.29,5.03,5.57,16.9,6,24.69,0,1.81-.43,3.65-2.99,4.11-6.43-.46-13.71-.92-18.84-1.38-5.13-1.35-9.85-3.19-12.84-7.3-.87-1.38-2.58-1.38-3.42-.46-.87.46-1.3,1.38-1.3,2.27,0,.46.43.92.43,1.38,2.58,3.65,6,5.95,9.85,7.33-3.42,1.81-6.84,4.11-8.99,7.76-.43.46-.43.92-.43,1.84,0,.43.43,1.35.87,2.27,1.28.46,2.99.46,3.83-.92,2.14-3.65,6.87-6.38,11.13-7.3,2.58-.46,6,0,9.42.46,4.72.92,10.29,2.73,14.14,4.57l4.26,1.81c7.71,3.68,15.85,7.79,23.97,7.79,1.71,0,3.85.92,4.72,1.35,1.28,1.38,2.55,2.76,3.42,4.14,1.28,1.35,2.55,3.19,4.29,4.57.84.89,2.55.46,3.42-.46.41-.46.41-1.38.41-1.84,0-.92-.41-1.38-.84-2.27"/>
    <path id="path49" class="cls-13" d="M584.91,892.21c3.04-.82,5.21-1.63,6.94-1.63"/>
    <path id="path50" class="cls-13" d="M613.5,859.12c1.35,2.73,2.25,6.33,2.25,6.33"/>
    <path id="path51" class="cls-6" d="M844.17,771.51c.87-1.79,1.74-4.08,2.55-5.92-3.83-5.46-10.62-9.09-14.04-10.47-8.12-3.22-15.78-2.76-22.16-2.76-1.68.46-11.08.92-15.78,2.76-1.68.46-2.14,1.84-2.14,2.3,0,1.33,1.33,2.71,3.01,2.71,2.14,0,4.7-.92,7.25-1.38,2.14-.46,3.83-.87,5.97-.87,8.53-.46,16.19.41,22.16,2.71,4.24,1.38,11.49,6.38,13.17,10.93Z"/>
    <path id="path52" class="cls-12" d="M844.17,771.51c.87-1.79,1.74-4.08,2.55-5.92-3.83-5.46-10.62-9.09-14.04-10.47-8.12-3.22-15.78-2.76-22.16-2.76-1.68.46-11.08.92-15.78,2.76-1.68.46-2.14,1.84-2.14,2.3,0,1.33,1.33,2.71,3.01,2.71,2.14,0,4.7-.92,7.25-1.38,2.14-.46,3.83-.87,5.97-.87,8.53-.46,16.19.41,22.16,2.71,4.24,1.38,11.49,6.38,13.17,10.93"/>
    <path id="path53" class="cls-6" d="M940.25,899.25c-4.75-3.17-8.58-5.92-12-7.76,3.83-.46,8.12-1.79,10.26-5.92,0-.46.46-.92.46-.92,0-.92-.46-1.38-.87-1.79-.87-.46-2.14,0-2.6.87-.82,1.38-2.09,2.3-3.83,3.22-2.14.92-8.12,1.38-17.1.46-8.58-1.38-20.98-3.22-29.97-5-5.57-1.84-9.85-2.76-18.84-5.97-2.55-.92-5.57-2.25-8.99-4.08-2.55-1.38-8.53-4.6-13.68-10.98-5.16-6.38-12.87-14.6-21.85-20.53-2.55-1.38-.82-2.3,0-2.76,4.29-2.71,8.58-6.38,12.46-10.47,9.39-7.3,21.39-2.3,27.78.92,6.02,3.17,9.85,8.22,13.28,11.39,3.01,3.22,6.43,6.84,8.12,10.52,3.01,5,3.88,13.22,3.47,14.6-.46.92,0,2.3.82,2.71.87,0,1.74,0,2.14-.87.46-.92.46-2.3.46-4.14,0-4.08-1.74-9.14-3.01-13.68,3.83,2.76,8.58,5.92,9.85,10.52.41.87,1.28,1.33,2.14,1.33,1.28-.46,1.68-1.33,1.28-2.25-2.14-7.76-9.45-12.36-14.55-15.52-.87-.92-2.14-2.3-3.01-3.22,2.55.92,8.99,1.84,13.28,2.3,2.14.46,7.71,1.84,9.39,2.71.87.92,1.74,1.84,2.6,3.22.41.92,1.68.92,2.14.46.82,0,.82-.92.82-1.38v-.92c-2.14-3.17-4.7-5-7.25-6.38,2.55-.92,5.11-1.84,7.25-3.63.46-.46.46-.92.46-1.38s0-.92-.46-1.38c-.41-.46-1.28-.92-2.14,0-2.55,1.84-5.57,3.68-8.53,3.68-2.6.41-5.16,0-5.16,0-6.84-1.38-16.7-3.22-21.39-6.89-.41,0-2.55-2.25-3.42-3.17,4.7.92,9.85,0,14.55-.92,13.28-2.76,26.55-.46,34.26,1.84,3.42.92,5.11,4.08,5.97,5,.87,1.38,1.68,2.76,2.55,3.68l2.14,3.63c.46.92,1.74.92,2.55.46.46-.46.46-.92.46-1.38v-.92l-2.14-3.63c-1.28-1.38-2.14-2.76-3.01-4.6,1.28.46,3.01.92,4.29,1.84.87,0,1.74-.46,2.14-1.38s0-1.79-.87-2.25c-2.96-1.38-20.98-6.84-27.37-7.3,4.29-2.76,8.53-5.97,11.13-9.6,1.28-1.84,2.55-3.22,2.55-3.22,2.55-1.38,4.29-1.79,6.43-.92.82,0,1.68-.46,2.14-1.33.41-.92,0-1.84-.87-2.3-3.42-1.38-6.02,0-8.58,1.38v-.92c0-1.38,0-2.76-.41-4.14,0-.92-.87-1.33-2.14-1.33-.87.41-1.28,1.33-1.28,2.25.87,1.84.87,4.14,0,6.38v.46c-1.28,3.22-4.29,5.97-7.71,8.22-2.14,1.38-18.43,3.22-22.26,4.14-3.83.46-8.58.46-12.41.46,4.29-2.76,7.71-5.51,8.99-10.06.87-2.76,4.29-5.92,4.29-5.92l2.14-2.76c.82-.92.82-2.3,0-2.76-.87-.87-1.74-.41-2.6,0l-2.14,3.22s-.82.92-1.68,1.84v-1.84c0-2.76-.41-5.92-1.74-9.14-.41-.92-1.68-1.38-2.09-.92-.87.46-1.33,1.84-.87,2.76,1.28,2.76,1.28,5.92,1.28,9.14,0,0,.41,9.14-9.85,12.3-4.29,1.84-16.24-4.54-29.1-2.3,4.7-8.17,14.96-20.07,23.13-25.99,4.7-3.22,10.67-5.92,16.24-5,4.29.46,7.3.87,8.99,1.79.87,0,1.74-.46,2.14-1.33.46-.92,0-1.84-.87-2.3-2.55-.92-9.8-3.22-17.1-2.3,2.14-2.3,4.29-4.54,6.43-6.84l5.57-5.46c.41-.46.41-.92.41-1.38s0-.92-.41-1.38c-.46-.46-1.74-.92-2.14,0l-5.97,5.92c-2.14,2.3-4.29,4.6-6.89,6.84-1.28,1.38-5.97,4.6-7.25,5.51-5.57,3.17-12,8.68-17.1,15.06.82-4.14,2.14-8.22,2.96-12.36l2.14-8.22c2.6-10.01,5.57-19.15,13.73-26.91.82-.46,3.83-3.68,9.39-4.14h4.7c.87,0,1.74-.87,1.74-1.79s-.87-1.84-1.74-1.84c-3.42,0-7.25,0-10.67.92,0,0-.46.46-.87.46.41-.46.87-.92,1.28-1.38,1.28-2.3,3.01-5,4.29-7.3v-.92c0-.92-.46-1.38-.87-1.84-.87-.46-1.74,0-2.14.92-1.28,2.3-2.55,4.6-4.29,6.84-1.28,1.84-8.53,10.52-10.26,13.28-4.7,6.38-8.12,16.39-10.26,22.36-1.74,5.46-7.71,22.82-10.72,31.45,0-9.09-1.28-15.93-3.42-22.82-1.68-5-1.68-11.39-1.68-13.68.41-13.22,2.96-23.74,7.25-34.21,1.74-3.68,3.88-7.3,6.02-10.98.82-1.84,1.68-3.63,2.55-5,1.28-1.84,3.42-5.92,6.43-7.76,2.55-2.3,8.53-4.14,11.95-3.68.87,0,1.74-.92,1.74-1.79.41-.92-.41-1.84-1.28-1.84-3.88-.46-9.45.46-13.68,3.17,0,0-.46,0-.46-.46v-1.33c.46-1.84.87-3.68.87-5.51,0-1.33,0-2.25-.41-3.17-.46-1.38-1.33-1.84-2.14-1.38-.87.46-1.33,1.38-.87,2.3.41,2.25-2.14,8.63-2.14,9.55-1.74,5.05-4.29,9.14-6.84,13.73-2.55,3.63-4.7,7.76-6.43,11.85-4.29,10.52-6.84,20.07-7.71,32.42-2.96-7.3-6.43-13.68-10.26-20.58l-3.83-6.84c-3.88-6.38-7.3-12.76-8.99-19.61-.46-1.84-1.33-7.3,1.28-11.44,2.14-4.54,5.11-9.55,8.53-11.85.87-.46,1.28-1.38.87-2.3s-1.68-1.38-2.55-.92c-5.16,3.68-11.59,15.52-12,15.52h0c-2.14-2.25-5.11-4.08-7.71-5.46l-.41-.46c-.87-.46-1.74,0-2.14.92-.41.92-.41,1.84.41,2.3l.46.46c1.28.92,2.55,1.33,3.83,2.25,3.42,2.76,3.42,6.84,3.42,8.68,1.28,9.6,5.57,16.9,8.99,24.66,4.29,9.6,12.41,27.83,16.7,41.56.87,3.17,3.42,11.85,4.29,17.31.87,7.3-.41,15.06-3.83,20.58-2.14,3.17-4.75,5.92-7.71,7.3-3.42.92-10.72,2.71-19.3,2.25-6.84-.92-16.24-5.46-24.35-11.39-1.74-1.38-15.42-15.52-19.71-20.53-15.42-18.74-27.37-34.26-29.51-46.56-.46.46-.87.92-1.28,1.33-2.6,3.22-8.58,6.43-17.16,6.43h0c-8.53,0-14.55-3.22-17.1-6.43-.41,0-.41-.41-.87-.41-1.28,4.08-8.12,21.44-13.68,29.66-2.55,4.08-5.57,8.22-8.12,12.76-1.28,1.84-5.16,7.3-6.02,8.22-14.09,16.44-30.38,17.82-48.76,13.68-1.28,0-4.29-1.38-5.57-5.92-1.28-5-2.6-13.22-.46-25.12v-1.38c.87-6.38,2.6-15.06,4.29-24.61,0-1.38,1.74-9.14,5.16-14.19,3.42-5,7.25-10.93,8.99-19.61.41-2.76,2.14-7.3,3.42-9.6,2.55-4.08,5.57-6.38,8.58-9.14l3.83-2.71c.87-.92.87-1.84.41-2.76-.41-.92-1.68-.92-2.55-.46l-3.42,3.22h-.41c.41-2.3,0-4.14-.46-5.92v-.92c0-.92-.87-1.84-2.14-1.38-.82,0-1.28.92-1.28,1.84v1.33c.46,2.76,1.28,6.89-1.28,9.6h0c-2.14,2.3-3.83,4.6-5.57,7.76,0-4.54-1.28-7.3-3.01-10.06-.41,0-1.28-1.33-.41-2.71.41-1.84,1.28-4.6,3.01-6.84.82-.92.82-2.3,0-2.76-.87-.46-1.74-.46-2.6.46-1.68,2.3-2.96,5-3.42,7.3q-.41,0-.82-.46l-2.14-2.71c-.87-.92-1.74-.92-2.6,0-.82.41-.82,1.79,0,2.25l2.14,3.22c4.7,5,7.71,8.22,6.02,17.77,0,.46,0,1.84-.46,2.3-1.28,7.76-4.7,12.76-8.12,17.82-2.14,2.71-3.83,5.92-5.57,9.14-2.14-7.76-6.43-15.06-12.41-20.58-4.29-3.63-6.43-6.84-6.84-8.22-2.14-6.84-1.74-14.14.41-22.82.46-.87,0-2.25-.87-2.25-.82-.46-2.14,0-2.14.92-.41,1.33-.82,2.71-.82,3.63-1.28-1.38-3.01-3.17-4.7-4.54-.87-.92-1.74-.46-2.6,0-.41.92-.41,2.25.46,2.71,3.42,3.22,5.11,5.05,5.11,7.3,0,.46.46,4.6.46,6.43,0,4.08.82,8.17,2.09,11.85-3.83-2.3-8.53-4.08-13.22-5-.46-.46-1.74-.92-1.74-1.84-.41-1.38-1.28-3.22-.87-5.46.46-.92-.41-2.3-1.28-2.3s-1.68.46-2.14,1.38c-.41,2.71,0,5.46.87,7.3-1.68-.46-3.42-.46-5.16-.92-1.28,0-1.68.92-2.09,1.84,0,.92.82,1.79,1.68,1.79,7.3.46,14.55,2.3,20.53,5.51,6.02,2.71,11.59,8.68,13.73,11.39,2.14,2.76,4.24,6.38,5.97,10.98.87,2.25,1.28,8.22.41,13.68-1.28,7.3-2.14,13.68-2.96,18.74v1.33c-1.74,10.52-1.28,19.2,0,25.58,0,1.38.82,3.63-1.74,2.76-6.43-1.84-26.09-6.84-38.96-9.6-8.53-1.38-18.38-3.22-20.93-4.6-3.01-1.33-9.85-5.92-11.13-10.01-.46-2.3-.87-4.6-.46-5.92.46-.92,0-1.84-.82-2.3-1.33-.46-2.14.46-2.14,1.38-.46.46-.46,1.38-.46,2.25,0,2.76.46,5.05,1.28,7.76-2.09-1.33-4.7-1.79-6.84-2.25-.82,0-1.68.46-2.14,1.33,0,1.38.87,2.3,1.74,2.3,1.68,0,3.83.92,5.57,1.84,1.28.46,3.83,2.76,4.29,3.22,2.96,2.25,5.97,4.08,9.39,5.92-7.71.46-15.83,1.84-22.67,4.08-1.74.46-6.84,1.84-7.71,2.3h-6.43c-.87,0-1.68.46-1.68,1.38-.46,1.38.41,2.25,1.28,2.25h5.97c-3.42,2.3-6.43,5.51-8.53,8.68v.92c0,.46,0,.92.41,1.38.87.46,2.14.46,2.55-.46.87-1.38,2.6-3.22,4.29-5,3.42-3.22,8.12-5.05,9.39-5.51,7.71-2.71,18.84-4.54,27.83-5,8.99-.92,14.14,1.84,16.29,1.84-5.57,2.71-10.26,6.38-14.55,10.47-4.29,4.14-9.45,11.44-9.45,11.44l-4.7,6.38c-.87.92-.87,1.84,0,2.76.87.46,1.74.46,2.6-.46l5.11-6.38,1.74-2.76c0,4.14.41,7.76,1.68,11.44.46.87,1.28,1.33,2.14.87s1.28-1.33.87-2.25c-.87-2.76-1.28-5.92-1.28-8.68,0-5,2.96-7.3,5.57-10.06,4.29-4.08,9.39-6.84,16.7-8.68,2.55-.92,5.57-.46,6.84,0,7.71,2.76,20.12,7.3,21.39,7.76,12,3.68,29.51,12.36,45.34,13.73,4.75,0,5.57,4.54,4.29,6.84-5.57,11.39-11.13,24.15-16.24,37.43-2.14,6.38-8.99,21.44-9.85,22.82-3.42,5.92-9.85,11.85-16.29,15.52-8.99,4.54-16.7,5.46-20.53,5.46-17.56,1.84-36.4,2.3-52.23-3.68-1.28-.87-5.57-2.25-8.53-5-1.28-1.38-3.01-2.76-4.29-4.54-3.42-3.22-6.84-6.38-10.26-9.14-.87-.46-3.88-2.3-5.16-5.46-1.28-2.3-1.68-4.6-1.28-7.3,0-.92-.41-1.84-1.74-1.84-.82-.46-1.68.46-1.68,1.38v1.79c0,3.68.87,6.84,2.55,9.6-4.29-.92-8.99-.92-12.41,0-1.28,0-1.68.92-1.68,1.84.41.92,1.28,1.84,2.09,1.84,2.14-.46,4.75-.92,7.71-.46,2.14,0,5.57,1.38,9.85,4.08,3.01,2.3,5.57,5.05,8.12,7.76,1.74,1.84,3.88,3.68,5.57,5-5.97,1.84-12.41,4.14-17.51,7.76-1.74,1.38-9.45,7.76-12,8.68-3.01.46-6.43.46-8.12,0-1.28-.46-2.14,0-2.14.92-.46.92,0,2.3.87,2.3,4.24,1.38,9.8.46,14.55-1.38-1.74,4.14-2.6,9.14-3.42,13.22l-.46,2.76v.46c0,.46.87,1.38,1.74,1.84.82,0,1.68-.46,1.68-1.84l.46-2.3c.82-3.63,1.28-6.84,2.14-10.01,2.09-5.97,5.97-8.68,7.25-9.6,2.14-1.84,4.29-2.76,6.84-4.14,3.42-1.33,8.58-1.79,21.39,1.84,15.01,4.6,30.84,4.6,46.26,3.22,1.28,0,1.68.92.82,1.38-7.25,5.92-14.55,13.68-19.25,21.44-.41.46-8.58,12.76-11.54,19.15-.87,1.38,0,3.22,1.28,3.68,1.28.92,2.55.46,3.42-.92,2.14-5.05,5.16-8.68,8.12-12.36v.46c0,4.14.87,7.76,2.14,10.52.46,1.38,2.14,1.84,3.42,1.38,1.28-.92,1.74-2.76.87-4.14-.87-1.79-1.28-4.08-1.28-6.84,0-1.79.41-5.46,3.01-9.55,3.42-5.05,8.53-9.6,13.22-13.73,9.45-8.68,18.84-9.09,26.14-13.22,1.68-1.38,3.42-2.3,5.11-3.22-3.42,13.73-5.97,26.96-7.71,38.34-5.11,6.89-19.25,16.9-31.66,21.5-15.42,4.54-33.39,1.33-42.79-4.14h0c-4.29-3.17-8.58-6.84-12.87-10.93l-.82-.92c-.87-.92-2.6-.46-3.42.46-.46.46-.87,1.33-.87,1.79,0,.92.41,1.38.87,1.84l1.28.92c2.96,2.76,5.97,5.46,8.99,8.22-.46,0-.87-.46-.87-.46-3.83,0-7.3.46-10.72.92-2.55.92-5.57,1.38-8.12.92-1.28,0-2.55,1.38-2.55,2.71-.46,1.38.87,2.76,2.14,2.76,3.42.46,6.43-.46,9.39-.92,3.42-.46,6.43-.92,9.45-.92,0,0,3.42.46,6.38,1.38,8.99,3.68,16.29,5.92,25.27,7.3-1.28,1.38-19.25,13.68-22.26,15.06-.87.46-14.96,8.22-21.39,8.68-1.28,0-2.55,1.38-2.14,2.76,0,1.79,1.28,2.71,2.55,2.71,4.29-.46,9.85-1.33,14.55-3.17-2.55,5-3.42,10.01-4.29,13.22v.46c0,1.38.87,2.76,2.14,2.76,1.74.46,3.01-.46,3.01-2.3.41-3.22,2.14-9.6,5.57-13.68.87-1.38,18.84-13.68,22.26-15.52,2.14-.92,12.82-5.92,21.39-9.14,8.99-3.22,18.38-8.68,26.55-14.6-.46,3.17-.87,6.38-1.28,9.14-.87,5-5.57,9.55-5.57,9.55v.46c-6.02,6.43-14.14,15.52-20.98,26.5-.46.92-8.99,10.93-12.87,14.14-4.7,4.14-8.99,7.3-13.22,9.6-1.33.46-3.01,1.84-5.57.92-5.16-2.3-9.45-8.22-12.87-11.9l-.41-.92c-1.28-1.33-2.6-1.33-3.88-.46-.41.46-.82.92-.82,1.84s0,1.38.82,2.3l.87.92c2.55,3.17,5.16,6.38,7.71,9.14h-.41c-3.88-1.38-7.3-.92-10.72-.92-3.01,0-5.97,0-8.58-.46-1.28-.46-2.55.46-2.96,2.25-.46,1.38.82,2.76,2.14,3.22,2.96.46,6.38.46,9.39.46s5.97-.46,8.99.46c-4.29,1.38-9.39,2.76-15.42,2.3l-3.83-.46c-3.42-.46-7.71-1.38-9.45-3.22-.82-.92-2.55-1.38-3.83,0-.41.46-.87.92-.87,1.84s.46,1.38.87,1.84c2.55,3.63,8.12,4.08,12.41,5l3.42.46h.41c-6.84,2.3-13.22,6.38-20.93,12.3-.87.46-1.28,1.38-1.28,2.3,0,.46,0,.92.41,1.38.87,1.38,2.55,1.84,3.83.92,7.3-5.97,13.73-9.6,20.12-11.9l6.02-1.84c1.28-.41,7.25-1.33,8.99-1.79,8.53-2.3,19.25-6.84,29.97-15.06.41-.46,1.28,0,.82.92-1.28,3.17-2.55,6.38-3.83,9.09-.46.92-1.74,3.22-4.7,5.51-.46,0-.87.46-1.74.92v.41c-11.13,7.76-20.98,11.44-29.51,10.98-1.74,0-2.6.92-3.01,2.76,0,1.33,1.28,2.71,2.55,2.71,8.58.46,18.43-2.71,28.69-9.55-5.57,9.55-10.26,13.22-10.26,13.22-.87.92-11.59,10.47-16.7,12.3-1.28.46-2.14,2.3-1.74,3.68.46,1.38,2.14,2.25,3.42,1.79,3.42-1.33,6.89-3.17,9.85-5.46-1.28,3.22-2.14,6.84-2.14,10.06v.46c0,1.38,1.28,2.71,2.6,2.71,1.28-.41,2.55-1.33,2.55-3.17-.41-3.22,4.7-13.22,7.71-17.82,3.83-6.38,16.7-17.36,25.22-42.43,3.01-8.68,25.68-35.18,32.12-42.02,1.28-1.79,1.74,0,2.14.92.87,2.76,1.68,5.46,3.01,7.76.82,1.84,2.96,7.3,1.68,14.14-3.01,16.44-9.85,40.18-26.55,51.16-2.55,1.33-5.97,3.17-8.12,3.63-4.29,1.84-8.12,2.76-11.13,2.3-1.68,0-2.96,1.38-2.96,2.71s1.28,2.76,2.55,2.76c5.11.46,11.13-1.38,16.7-3.63.41-.46,1.28.46.87.87-.87,2.3-1.74,4.6-2.14,6.89-.87,3.63-2.14,7.3-3.88,9.09-.41.46-.41,1.38-.41,1.84,0,.92.41,1.38.87,1.84.82,1.38,2.55,1.38,3.42,0,2.55-2.76,3.83-7.3,5.11-11.44.46-1.79.87-4.08,1.74-5.92,1.68-4.08,3.83-5,4.7-5.92,15.42-11.9,22.67-33.34,26.55-49.78,1.28,7.35,1.28,12.82,0,23.74-.46,7.76-4.29,15.98-7.3,16.44-1.28.46-2.55,1.84-2.14,3.22,0,1.38,1.28,2.71,3.01,2.25,5.57-.87,8.58-7.76,10.67-14.14,1.74,7.76,3.88,12.82,5.57,15.98l.46.92c.87,1.38,2.14,1.84,3.42.92,1.28-.46,1.68-2.3,1.28-3.68l-.41-.87c-1.33-2.3-3.42-6.43-4.75-11.9-1.68-8.68-.82-13.68-.41-15.98.41-7.3-.87-13.22-1.68-18.23,4.7,4.08,13.22,6.84,17.1,11.39,4.29,4.6,7.25,9.6,9.39,14.14.46,1.38,2.14,2.3,3.42,1.38.87-.46,1.28-1.38,1.28-2.3v-1.33c-2.09-4.14-4.7-9.14-8.12-13.28,3.42.92,6.43,1.38,9.85,1.38,1.28,0,2.55-1.38,2.55-2.71-.41-1.84-1.28-2.76-2.96-2.76-3.88,0-13.28-3.22-13.73-3.22-5.11-2.25-9.8-6.38-14.55-11.39-1.68-1.38-10.26-12.82-13.28-26.04,0,0-2.09-5.92-.82-13.22,1.68-10.52,4.29-21.9,7.25-34.72,5.16,9.6,10.26,17.82,12.41,21.95,3.88,6.84,8.99,17.77,5.57,25.07-.82,1.38-.41,2.76.87,3.68s2.55.46,3.42-.92c1.74-2.76,2.14-5.92,2.14-9.14s-2.55-13.68-2.14-13.68c0,0,8.12,7.3,10.26,9.6.87,1.38,2.6,1.38,3.42.46,1.28-.92,1.28-2.76.46-3.68-.87-1.38-3.88-4.08-4.7-5.46-1.33-1.38-12-15.06-13.73-17.82-.41-.92.46-1.84,1.28-1.38,4.29,1.84,8.99,3.22,13.73,3.68,2.14,0,4.24-.92,4.7-3.68,0-2.25-1.74-3.17-4.29-3.63-5.97-.46-11.54-3.22-17.97-5.92,0,0-5.57-2.76-6.84-7.3-1.28-3.68-3.88-10.06-1.74-19.2,15.83-61.17,53.51-105.43,73.22-134.17,2.14-2.76,3.83-6.43,5.57-9.14,1.28-2.3,4.29-2.3,5.97,0,1.74,2.71,6.84,9.6,9.39,11.85,8.99,10.06,19.71,21.44,33.39,36.1,18.84,20.07,39.83,36.97,53.1,61.58,12.82,24.2,22.67,44.32,28.64,68.52,1.74,7.3,5.16,22.36,2.6,33.29-3.01,9.6-9.45,21.9-17.97,26.04-6.43,2.71-14.55,6.38-18.43,5.92-1.28,0-2.55.92-2.55,2.3,0,1.79.87,3.17,2.14,3.17,3.83,0,8.99-1.38,14.55-3.63-5.57,5.46-11.13,11.85-13.28,15.52v1.38c0,.87.41,1.79,1.28,2.25,1.28.92,3.01.46,3.42-.92,1.74-3.17,6.43-8.68,11.54-13.68-1.68,4.14-7.66,23.28-17.1,32.88l-.87.46c-.41.92-.82,1.84,0,2.71.46.92,1.74.92,2.6,0l.41-.46c3.01-2.71,7.3-6.84,12-14.6l.41.46v5.97c0,5.46.41,10.93,4.29,13.22.87.46,2.14.46,2.55-.46.46-.92,0-2.3-.87-2.76-2.96-1.84-.82-17.77-.41-19.15,3.01-10.52,4.7-15.52,8.12-21.44-1.28,9.09-1.68,20.98-.41,32.37.41,1.84,3.01,24.2,4.29,27.88,0,.92,1.68,1.79,2.55,1.33.41,0,1.28-1.33,1.28-1.79v-.92c-.41-.92-1.28-11.44-2.14-17.82,0-1.84,1.74-1.38,3.01,0,4.29,4.6,9.39,9.6,14.14,11.44.82.46,3.42.92,3.83-1.84.87-2.3-.87-3.22-1.68-3.68-3.01-.92-6.43-3.17-9.04-5.92-2.96-2.3-7.66-8.68-8.12-17.36-.87-13.68,2.6-26.45,5.57-32.37,3.88-6.84,5.16-13.73,7.3-19.66.41.92.82,1.38,1.28,1.84,5.57,7.76,10.67,14.6,16.24,25.58,8.17,13.22,15.88,35.13,20.12,46.97.87,1.38,5.16,18.74,3.42,22.87-.41.87-.41,1.79.46,2.25.87.46,2.14,0,2.55-.92.87-2.25,1.28-5.92,1.28-9.55v-4.14c2.6,4.6,5.57,8.68,8.99,11.9.46.46,1.74.46,2.14,0,.87-.92.87-1.84,0-2.76-5.11-4.54-9.39-15.06-12.82-21.9.82-.92,16.24,8.68,16.24,15.52,0,.92.87,1.84,1.74,1.84s1.68-.46,1.68-1.84c.46-3.22-1.68-6.38-3.83-8.68h5.11l.46.46c.87,0,1.68-.92,1.68-1.84s-.41-1.84-1.28-1.84l-.87-.46c-6.38,0-12.41-5.46-16.64-8.63-4.75-3.22-9.85-13.73-11.13-18.74,6.84,9.14,17.97,10.98,22.21,13.22,1.33.46,2.14.92,3.47,1.38l5.51,2.3c4.29,2.25,6.02,4.54,7.71,7.3,1.74,1.84,3.01,3.63,5.57,5.92.46.92,1.74.92,2.14,0,.46-.46.46-.92.46-1.38s0-.92-.46-1.38c-2.14-1.79-3.42-3.63-4.7-5.46-2.14-3.17-4.29-5.92-8.99-8.22,0,0-2.14-.92-3.83-1.38h4.7l3.42-.46c4.29,0,9.39,0,12.41-2.71.87-.92.87-1.84,0-2.76-.41-.92-1.74-.92-2.14,0-2.14,1.84-6.84,1.84-10.26,1.84l-3.88.46c-2.14,0-16.7-2.76-27.78-13.68-3.47-3.68-12.46-18.28-12.87-19.2-5.97-11.85-12-19.15-16.7-26.91-2.14-3.68-4.29-10.06-5.57-14.6-5.57-30.12-15.83-63.92-33.39-97.27-7.71-14.14-16.7-27.83-26.5-41.05-1.28-.92-1.28-3.68.41-3.22,3.01,0,13.28.92,20.12,4.6,7.71,4.54,16.7,12.3,21.39,17.77,3.01,3.68,25.68,27.42,30.84,40.18,1.68,4.54,3.42,12.3,2.96,18.28,0,2.25-1.28,6.84-2.55,8.17-.87,1.38-2.14,2.76-3.83,3.22-.87.46-1.33,1.38-.87,2.3,0,.92,1.28,1.38,2.14,1.38,2.14-.92,3.83-2.76,5.11-4.6.46-.46.87-.92,1.28-1.38h.87c1.28,2.3,2.14,5.05,5.16,5.97.87,0,2.14-.46,2.14-1.38.41-.92,0-1.84-1.28-2.3-1.33-.46-3.88-5.46-3.42-8.68.41-2.3.82-5,.82-7.76,0-3.17-.41-6.38-.82-9.6,3.42,2.3,6.84,3.68,9.8,5.05,0,0,3.42,1.38,6.02,3.17,2.14,2.3,3.42,6.43,4.7,9.14l.41.92c.46.92,1.28,1.38,2.14.92s1.28-.92,1.28-1.84c0,0,0-.46-.41-.46v-.92c-1.28-2.71-3.01-6.84-5.16-9.55,1.74,0,3.42-.46,5.16-.92h1.68c.87-.46,1.33-1.38,1.33-1.84s0-.46,0-.46c0-.92-.87-1.84-1.74-1.38h-2.14c-1.68.46-3.42,1.38-5.57.46l-5.57-2.3c-2.55-1.33-5.11-2.25-7.25-3.17-1.74-1.38-4.7-4.14-6.43-8.22-3.01-6.38-6.43-11.85-9.85-16.9-.41-.92.46-1.38,1.28-.92.46,0,1.33.46,1.74.46,9.39,3.22,11.54,3.22,17.1,5.05,5.16,1.79,8.99,2.25,15.01,6.38,3.42,3.63,5.97,7.76,8.53,12.3,1.74,2.76,3.42,5.46,5.57,8.22,2.14,3.68,3.88,6.84,3.88,8.22.41,2.3.41,4.54.41,7.3v1.84c0,.92.87,1.84,1.74,1.84.82,0,1.68-.92,1.68-1.84v-2.76c0-3.17,0-5.92-.87-9.14.46.46,1.28.92,1.74,1.38,2.55,2.76,5.11,5.46,8.12,5.46.87,0,1.74-.46,1.74-1.79,0-.92-.46-1.84-1.74-1.84s-3.83-2.3-5.97-4.6c-1.28-1.33-5.57-5.92-6.43-7.3-1.74-2.25-3.83-5-5.57-8.17-2.55-4.14-5.16-8.68-8.58-12.36-.41-.46,0-1.38.46-1.38.87,0,1.28.46,1.68.46l7.3,1.38c2.14.46,4.29.46,6.43.46,2.96,0,5.97,0,8.53.92.87,0,5.16,1.38,6.84,2.3,2.6,1.33,4.7,2.71,7.71,5,.46.46,1.74.46,2.14-.46.41-.46.41-.92.41-.92,0-.93-.41-1.39-.82-1.85Z"/>
    <path id="path54" class="cls-4" d="M633.72,849.93c-6,9.16-22.29,45.31-25.73,59.02l25.73-59.02Z"/>
    <path id="path55" class="cls-4" d="M739.09,821.13c4.29,9.14,25.27,27.42,38.55,41.1,13.22,13.68,29.51,37.43,47.02,81.64-5.97-22.31-16.24-51.06-37.22-76.18-20.93-25.12-45.34-41.51-48.35-46.56Z"/>
    <path id="path56" class="cls-4" d="M610.24,820.24c10.24,2.27,23.87,1.81,30.71-3.19,5.95-4.08,13.2-8.63,18.3-18.18-5.12,13.63-18.32,30.43-49.02,21.37Z"/>
    <path id="path57" class="cls-4" d="M595.74,765.38c-1.74,9.16-6.54,28.85-3.91,37.99l3.91-37.99Z"/>
    <path id="path58" class="cls-4" d="M563.26,991.04c15.88-4.54,27.01-15.5,30.43-19.61-3.42,3.19-20.98,15.98-30.43,19.61Z"/>
    <path id="path59" class="cls-4" d="M562.86,1036.59c3.4-7.74,19.04-25.96,23.69-29.61l-23.69,29.61Z"/>
    <path id="path60" class="cls-4" d="M834.06,998.19c-1.28,8.68-10.21,19.66-14.04,27.88s-5.51,11.9-6.38,16.44c3.01-8.22,6.38-12.3,10.67-19.15,4.24-6.89,9.75-20.12,9.75-25.17Z"/>
    <path id="path61" class="cls-4" d="M817.72,849.93c8.12,4.14,17.46,15.57,20.01,21.04l-20.01-21.04Z"/>
    <path id="path62" class="cls-2" d="M838.2,797.44c-.41,3.22-6.38,11.44-3.37,14.19,2.55,3.17,6.38-6.84,7.61-8.68-.41.92-1.68,1.84-2.96,2.3-.41-1.38-.41-3.22-.82-5.05l-.46-2.76Z"/>
    <path id="path63" class="cls-2" d="M855.56,1006.56c-.41,3.17-4.75,10.88-1.74,12.66,2.2-2.25,3.47-5.87,5.16-8.58l-3.42-4.08Z"/>
    <path id="path64" class="cls-2" d="M809.96,1029.79c2.2,3.63,0,7.3.46,10.47,1.74-5,3.06-10.47,5.67-15.52l-6.13,5.05Z"/>
    <path id="path65" class="cls-2" d="M589.58,1007.84c-.89,4.08-.43,7.71-2.22,11.79.89-.43,3.98-4.98,4.44-6.33.87-2.73,0-3.19,0-5.92l-2.22.46Z"/>
    <path id="path66" class="cls-2" d="M608.42,1036.59c4.34,4.14,4.77,4.6,5.64,9.65.43,3.65.87,7.79,1.28,10.98-3.01-5.49-3.01-12.82-7.35-18.33l.43-2.3Z"/>
    <path id="path67" class="cls-2" d="M573.88,804.23c.43,1.84.84,3.19,1.28,4.57,2.09-.92,4.21,0,5.87.89-.82-3.63-2.94-10.47-5.03-13.68,0,1.84-.84,5.03-1.28,5.03l-.84,3.19Z"/>
    <path id="path68" class="cls-2" d="M589.66,770.48c-.46.92-.46,2.76-.46,3.68.89,0,2.2-.46,3.06-1.38l-2.6-2.3Z"/>
    <path id="path69" class="cls-2" d="M716.37,755.58c6.38,11.23-1.28,8.99-8.94,13.48,3.42-.89,8.09-7.17,9.37-10.77l-.43-2.71Z"/>
    <path id="path70" class="cls-2" d="M730.47,780.49c7.81,3.63-3.47,8.17-5.26,10.42,1.33-2.71,2.2-6.79,3.52-9.5l1.74-.92Z"/>
    <path id="path71" class="cls-2" d="M685.59,791.42c2.94,2.3,7.94,4.6,9.19-.92l-9.19.92Z"/>
    <path id="path72" class="cls-2" d="M669.3,804.8c4.72,4.11,12.41,4.57,12.41,4.57-3.42,4.11-29.51,38.32-40.64,62.01,6.87-21.42,30.81-51.52,32.52-57.44,1.71-5.92-2.14-7.76-4.29-9.14Z"/>
    <path id="path73" class="cls-2" d="M841.21,957.14c3.52,6.84,8.78,31.96,9.19,35.13-4.34-8.63-8.27-28.69-9.19-35.13Z"/>
    <path id="path74" class="cls-2" d="M610.65,958.98c-2.12,9.6-9.39,36.07-7.68,44.73-1.71-16.42,1.71-36.05,7.68-44.73Z"/>
    <path id="path75" class="cls-1" d="M536.51,978.17c.46-.41.89-.82,1.76-.41.87,0,1.3.82,1.3,1.23s-.87.82-1.74.41c-.87,0-1.33-.82-1.33-1.23Z"/>
    <path id="path76" class="cls-9" d="M536.51,978.17c.46-.41.89-.82,1.76-.41.87,0,1.3.82,1.3,1.23s-.87.82-1.74.41c-.87,0-1.33-.82-1.33-1.23"/>
    <path id="path77" class="cls-1" d="M552.29,978.15c-.46-.46,0-1.35.92-1.81.92,0,1.84,0,1.84.46.46.46,0,1.35-.92,1.79-.92,0-1.84,0-1.84-.43Z"/>
    <path id="path78" class="cls-9" d="M552.29,978.15c-.46-.46,0-1.35.92-1.81.92,0,1.84,0,1.84.46.46.46,0,1.35-.92,1.79-.92,0-1.84,0-1.84-.43"/>
    <path id="path79" class="cls-1" d="M511.18,1039.78c0-.89.46-1.35,1.33-1.35s1.74.92,1.74,1.35c0,.46-.87.89-1.74.89s-1.33-.43-1.33-.89Z"/>
    <path id="path80" class="cls-9" d="M511.18,1039.78c0-.89.46-1.35,1.33-1.35s1.74.92,1.74,1.35c0,.46-.87.89-1.74.89s-1.33-.43-1.33-.89"/>
    <path id="path81" class="cls-1" d="M483.66,1084.66c0-.49.87-.49,1.74,0,.43.46.87,1.4.43,1.86,0,.92-.87.92-1.74,0-.43-.46-.89-.94-.43-1.86Z"/>
    <path id="path82" class="cls-9" d="M483.66,1084.66c0-.49.87-.49,1.74,0,.43.46.87,1.4.43,1.86,0,.92-.87.92-1.74,0-.43-.46-.89-.94-.43-1.86"/>
    <path id="path83" class="cls-1" d="M524.26,1117.38c0-.43.46-1.35,1.33-1.35s1.74,0,1.74.92c0,.43-.43.89-1.3,1.33-.87,0-1.76-.43-1.76-.89Z"/>
    <path id="path84" class="cls-9" d="M524.26,1117.38c0-.43.46-1.35,1.33-1.35s1.74,0,1.74.92c0,.43-.43.89-1.3,1.33-.87,0-1.76-.43-1.76-.89"/>
    <path id="path85" class="cls-1" d="M566.56,1114.24c0-.46.87-.46,1.74,0,.87.43,1.3,1.33.87,1.76s-.87.43-1.74,0-1.3-.89-.87-1.76Z"/>
    <path id="path86" class="cls-9" d="M566.56,1114.24c0-.46.87-.46,1.74,0,.87.43,1.3,1.33.87,1.76s-.87.43-1.74,0-1.3-.89-.87-1.76"/>
    <path id="path87" class="cls-1" d="M619.04,1091.27c-.43-.46,0-.89.87-1.33.43-.46,1.3-.46,1.74,0,.43.87,0,1.33-.87,1.76s-1.74,0-1.74-.43Z"/>
    <path id="path88" class="cls-9" d="M619.04,1091.27c-.43-.46,0-.89.87-1.33.43-.46,1.3-.46,1.74,0,.43.87,0,1.33-.87,1.76s-1.74,0-1.74-.43"/>
    <path id="path89" class="cls-1" d="M643.13,1067.6c-.43-.46,0-1.35.87-1.81.87,0,1.74,0,1.74.46.43.46,0,1.35-.87,1.79-.43,0-1.3,0-1.74-.43Z"/>
    <path id="path90" class="cls-9" d="M643.13,1067.6c-.43-.46,0-1.35.87-1.81.87,0,1.74,0,1.74.46.43.46,0,1.35-.87,1.79-.43,0-1.3,0-1.74-.43"/>
    <path id="path91" class="cls-1" d="M631.27,1007.43c.46-.46.89-.46,1.76-.46.87.46,1.3,1.33,1.3,1.79,0,.43-.87.87-1.74.43s-1.33-.89-1.33-1.76Z"/>
    <path id="path92" class="cls-9" d="M631.27,1007.43c.46-.46.89-.46,1.76-.46.87.46,1.3,1.33,1.3,1.79,0,.43-.87.87-1.74.43s-1.33-.89-1.33-1.76"/>
    <path id="path93" class="cls-1" d="M576.74,901.04c.46-.46,1.33-.46,1.76,0,.87.43,1.3.87.87,1.76,0,.43-.87.43-1.74,0-.43-.43-.89-1.33-.89-1.76Z"/>
    <path id="path94" class="cls-9" d="M576.74,901.04c.46-.46,1.33-.46,1.76,0,.87.43,1.3.87.87,1.76,0,.43-.87.43-1.74,0-.43-.43-.89-1.33-.89-1.76"/>
    <path id="path95" class="cls-1" d="M656.38,918.83c-.41-.49,0-.94.41-1.43.82-.49,1.63-.49,2.04,0s0,1.43-.82,1.91c-.82.46-1.63,0-1.63-.49Z"/>
    <path id="path96" class="cls-9" d="M656.38,918.83c-.41-.49,0-.94.41-1.43.82-.49,1.63-.49,2.04,0s0,1.43-.82,1.91c-.82.46-1.63,0-1.63-.49"/>
    <path id="path97" class="cls-1" d="M771.41,923.76c.41-.51.87-.51,1.74,0,.87.46,1.28,1.43.87,1.89-.46.46-1.33.46-1.74,0-.87-.46-1.33-1.43-.87-1.89Z"/>
    <path id="path98" class="cls-10" d="M771.41,923.76c.41-.51.87-.51,1.74,0,.87.46,1.28,1.43.87,1.89-.46.46-1.33.46-1.74,0-.87-.46-1.33-1.43-.87-1.89"/>
    <path id="path99" class="cls-1" d="M797.15,1050.37c0-.51.87-.51,1.74,0,.46.46.87,1.38.87,1.84-.41.92-1.28.92-2.14.46-.46-.92-.92-1.38-.46-2.3Z"/>
    <path id="path100" class="cls-10" d="M797.15,1050.37c0-.51.87-.51,1.74,0,.46.46.87,1.38.87,1.84-.41.92-1.28.92-2.14.46-.46-.92-.92-1.38-.46-2.3"/>
    <path id="path101" class="cls-1" d="M846.83,1086.98c-.51-.51-.51-.97-.51-1.94.51-.97,1.43-1.48,1.94-.97.92,0,.92.97.46,1.94s-1.43,1.43-1.89.97Z"/>
    <path id="path102" class="cls-10" d="M846.83,1086.98c-.51-.51-.51-.97-.51-1.94.51-.97,1.43-1.48,1.94-.97.92,0,.92.97.46,1.94s-1.43,1.43-1.89.97"/>
    <path id="path103" class="cls-1" d="M886.33,1103.42c.41-.46.82,0,1.23.46,0,.87-.41,1.74-.82,1.74-.41.41-.82,0-1.23-.46,0-.87.41-1.28.82-1.74Z"/>
    <path id="path104" class="cls-10" d="M886.33,1103.42c.41-.46.82,0,1.23.46,0,.87-.41,1.74-.82,1.74-.41.41-.82,0-1.23-.46,0-.87.41-1.28.82-1.74"/>
    <path id="path105" class="cls-1" d="M847.64,898.49c-.51-.46-.51-1.43.46-1.89.46-.51,1.38-.51,1.84,0,.46.46.46.92-.46,1.89-.46.46-1.38.46-1.84,0Z"/>
    <path id="path106" class="cls-10" d="M847.64,898.49c-.51-.46-.51-1.43.46-1.89.46-.51,1.38-.51,1.84,0,.46.46.46.92-.46,1.89-.46.46-1.38.46-1.84,0"/>
    <path id="path107" class="cls-1" d="M535.74,768.19c-.46-.46,0-.92.43-1.38.89,0,1.33,0,1.76.46,0,0-.43.92-.87.92-.46.46-1.33.46-1.33,0Z"/>
    <path id="path108" class="cls-9" d="M535.74,768.19c-.46-.46,0-.92.43-1.38.89,0,1.33,0,1.76.46,0,0-.43.92-.87.92-.46.46-1.33.46-1.33,0"/>
    <path id="path109" class="cls-1" d="M507.92,793.36c-.41-.46-.41-.94,0-1.43,0-.94.41-1.43.82-.94.41,0,.41.49.41,1.43-.41.49-.82.94-1.23.94Z"/>
    <path id="path110" class="cls-9" d="M507.92,793.36c-.41-.46-.41-.94,0-1.43,0-.94.41-1.43.82-.94.41,0,.41.49.41,1.43-.41.49-.82.94-1.23.94"/>
    <path id="path111" class="cls-1" d="M488.31,823.43c.41-.46.82-.46,1.23,0,.82.46.82.89.82,1.35-.41.43-.82.43-1.23,0-.41-.46-.82-.89-.82-1.35Z"/>
    <path id="path112" class="cls-9" d="M488.31,823.43c.41-.46.82-.46,1.23,0,.82.46.82.89.82,1.35-.41.43-.82.43-1.23,0-.41-.46-.82-.89-.82-1.35"/>
    <path id="path113" class="cls-1" d="M531.45,844.01c-.46-.41,0-.82.43-.82.89-.41,1.33-.41,1.76,0,0,.41-.43.82-.87,1.23-.46,0-1.33,0-1.33-.41Z"/>
    <path id="path114" class="cls-9" d="M531.45,844.01c-.46-.41,0-.82.43-.82.89-.41,1.33-.41,1.76,0,0,.41-.43.82-.87,1.23-.46,0-1.33,0-1.33-.41"/>
    <path id="path115" class="cls-1" d="M612.28,759.46c0-.41.46-.82.92-.82.89,0,1.33,0,1.33.41s-.43.82-.89.82c-.89,0-1.35,0-1.35-.41Z"/>
    <path id="path116" class="cls-9" d="M612.28,759.46c0-.41.46-.82.92-.82.89,0,1.33,0,1.33.41s-.43.82-.89.82c-.89,0-1.35,0-1.35-.41"/>
    <path id="path117" class="cls-1" d="M585.32,748.68c0-.46.82-.46.82.43.41.43.41.89,0,1.33,0,.43-.82,0-1.23-.43,0-.46,0-1.33.41-1.33Z"/>
    <path id="path118" class="cls-9" d="M585.32,748.68c0-.46.82-.46.82.43.41.43.41.89,0,1.33,0,.43-.82,0-1.23-.43,0-.46,0-1.33.41-1.33"/>
    <path id="path119" class="cls-1" d="M569.59,700.22s0-.89.41-1.35.82-.46,1.23,0c.41,0,.41.89,0,1.35-.41.43-1.23.43-1.63,0Z"/>
    <path id="path120" class="cls-9" d="M569.59,700.22s0-.89.41-1.35.82-.46,1.23,0c.41,0,.41.89,0,1.35-.41.43-1.23.43-1.63,0"/>
    <path id="path121" class="cls-1" d="M624.33,698.91c0-.51.41-1.02.82-1.53.41,0,1.23.51,1.23,1.02s-.41,1.02-.82,1.02-1.23,0-1.23-.51Z"/>
    <path id="path122" class="cls-9" d="M624.33,698.91c0-.51.41-1.02.82-1.53.41,0,1.23.51,1.23,1.02s-.41,1.02-.82,1.02-1.23,0-1.23-.51"/>
    <path id="path123" class="cls-1" d="M807.36,693.81c0-.51.46-.51,1.38,0,.41.51.41,1.48,0,1.94,0,0-.92,0-1.38-.46-.46-.51-.46-.97,0-1.48Z"/>
    <path id="path124" class="cls-10" d="M807.36,693.81c0-.51.46-.51,1.38,0,.41.51.41,1.48,0,1.94,0,0-.92,0-1.38-.46-.46-.51-.46-.97,0-1.48"/>
    <path id="path125" class="cls-1" d="M861.43,706.2c.41-.46.82,0,.82.46.41.87,0,1.33,0,1.33-.41.41-.82,0-1.23-.46,0-.87,0-1.33.41-1.33Z"/>
    <path id="path126" class="cls-10" d="M861.43,706.2c.41-.46.82,0,.82.46.41.87,0,1.33,0,1.33-.41.41-.82,0-1.23-.46,0-.87,0-1.33.41-1.33"/>
    <path id="path127" class="cls-1" d="M876.75,742.71c.41,0,.82,0,.82.82.41.41,0,1.23-.41,1.23,0,0-.82,0-.82-.82-.41-.41,0-.82.41-1.23Z"/>
    <path id="path128" class="cls-10" d="M876.75,742.71c.41,0,.82,0,.82.82.41.41,0,1.23-.41,1.23,0,0-.82,0-.82-.82-.41-.41,0-.82.41-1.23"/>
    <path id="path129" class="cls-1" d="M887.97,781.92c.41,0,.82.46.82,1.33,0,.46-.41,1.33-.82,1.33s-.82-.41-.82-1.33c0-.41.41-.87.82-1.33Z"/>
    <path id="path130" class="cls-10" d="M887.97,781.92c.41,0,.82.46.82,1.33,0,.46-.41,1.33-.82,1.33s-.82-.41-.82-1.33c0-.41.41-.87.82-1.33"/>
    <path id="path131" class="cls-1" d="M876.75,794.18c0-.41.46-.82.92-.82.87,0,1.33.41,1.33.82.41.41,0,.82-.92.82-.41,0-.87-.41-1.33-.82Z"/>
    <path id="path132" class="cls-10" d="M876.75,794.18c0-.41.46-.82.92-.82.87,0,1.33.41,1.33.82.41.41,0,.82-.92.82-.41,0-.87-.41-1.33-.82"/>
    <path id="path133" class="cls-1" d="M926.57,804.18c.41,0,.41.97.41,1.43,0,.51-.41,1.43-.82.97-.41,0-.82-.46-.82-.97.41-.92.82-1.43,1.23-1.43Z"/>
    <path id="path134" class="cls-10" d="M926.57,804.18c.41,0,.41.97.41,1.43,0,.51-.41,1.43-.82.97-.41,0-.82-.46-.82-.97.41-.92.82-1.43,1.23-1.43"/>
    <path id="path135" class="cls-1" d="M931.67,838.95c0,.46,0,.92-.41,1.38-.46.41-1.38.41-1.38,0-.46-.46-.46-.92.46-1.38.46-.46.92-.46,1.33,0Z"/>
    <path id="path136" class="cls-10" d="M931.67,838.95c0,.46,0,.92-.41,1.38-.46.41-1.38.41-1.38,0-.46-.46-.46-.92.46-1.38.46-.46.92-.46,1.33,0"/>
    <path id="path137" class="cls-1" d="M910.23,846.31c0,.46,0,.92-.41,1.38-.46.41-1.38.41-1.38,0-.46-.46-.46-.92,0-1.38s1.38-.46,1.79,0Z"/>
    <path id="path138" class="cls-10" d="M910.23,846.31c0,.46,0,.92-.41,1.38-.46.41-1.38.41-1.38,0-.46-.46-.46-.92,0-1.38s1.38-.46,1.79,0"/>
    <path id="path139" class="cls-1" d="M888.78,865.86c0,.41-.41.82-1.23.41-.41,0-.82-.41-.82-.82s.41-.82,1.23-.41c.41,0,.82.41.82.82Z"/>
    <path id="path140" class="cls-10" d="M888.78,865.86c0,.41-.41.82-1.23.41-.41,0-.82-.41-.82-.82s.41-.82,1.23-.41c.41,0,.82.41.82.82"/>
    <path id="path141" class="cls-1" d="M939.64,899.76c.41.46.41.92,0,1.38-.41.87-.82.87-1.23.46-.41,0-.41-.92,0-1.38.41-.46.82-.46,1.23-.46Z"/>
    <path id="path142" class="cls-10" d="M939.64,899.76c.41.46.41.92,0,1.38-.41.87-.82.87-1.23.46-.41,0-.41-.92,0-1.38.41-.46.82-.46,1.23-.46"/>
    <path id="path143" class="cls-1" d="M926.16,926.52c.41,0,.82.46.41,1.38,0,.46-.41.87-.82.87s-.41-.87-.41-1.33.41-.92.82-.92Z"/>
    <path id="path144" class="cls-10" d="M926.16,926.52c.41,0,.82.46.41,1.38,0,.46-.41.87-.82.87s-.41-.87-.41-1.33.41-.92.82-.92"/>
    <path id="path145" class="cls-1" d="M895.32,930.81c0,.41,0,.82-.41,1.23-.46.41-1.38.41-1.38,0-.46,0-.46-.82,0-1.23.46-.41,1.38-.41,1.79,0Z"/>
    <path id="path146" class="cls-10" d="M895.32,930.81c0,.41,0,.82-.41,1.23-.46.41-1.38.41-1.38,0-.46,0-.46-.82,0-1.23.46-.41,1.38-.41,1.79,0"/>
    <path id="path147" class="cls-1" d="M875.52,940.81c.41,0,.41.82,0,1.23-.46.41-.92.41-1.38.41-.46-.41-.46-.82,0-1.23s.92-.82,1.38-.41Z"/>
    <path id="path148" class="cls-10" d="M875.52,940.81c.41,0,.41.82,0,1.23-.46.41-.92.41-1.38.41-.46-.41-.46-.82,0-1.23s.92-.82,1.38-.41"/>
    <path id="path149" class="cls-13" d="M576.33,702.49c-.41,2.35-.82,3.27-.82,3.27"/>
    <path id="path150" class="cls-13" d="M609.83,702.49c1.23,1.48,1.63,2.45,1.63,2.45"/>
    <path id="path151" class="cls-13" d="M628.21,705.33c-.92.41-1.84,1.23-1.84,1.23"/>
    <path id="path152" class="cls-13" d="M558.57,720.45c2.12.41,4.24.82,5.92,1.23"/>
    <path id="path153" class="cls-13" d="M496.48,814.8c1.68-1.38,4.65-2.76,6.74-3.68"/>
    <path id="path154" class="cls-13" d="M530.59,828.49c-.82,1.84-1.23,4.14-1.23,5.51"/>
    <path id="path155" class="cls-13" d="M628.62,965.51c1.33,3.14,3.06,4.9,3.06,4.9"/>
    <path id="path156" class="cls-13" d="M631.68,977.36c.87,1.84,3.04,6.87,3.47,9.6"/>
    <path id="path157" class="cls-13" d="M607.17,1030.05c1.74,3.7,5.16,9.24,8.99,12.46"/>
    <path id="path158" class="cls-13" d="M607.99,1040.26c0,1.81-.41,4.49-.41,4.49"/>
    <path id="path159" class="cls-13" d="M611.46,1067.22c0,2.27.41,7.28.82,8.17"/>
    <path id="path160" class="cls-13" d="M572.05,1092.75c.41,1.38,0,2.27-.41,4.08"/>
    <path id="path161" class="cls-13" d="M635.56,1049.86c1.74.94,3.88,3.27,3.88,3.27"/>
    <path id="path162" class="cls-13" d="M525.48,1106.84c1.3-3.14,3.85-7.66,4.7-8.58"/>
    <path id="path163" class="cls-13" d="M520.78,1063.14c3.42-.89,10.65-3.6,15.73-6.33"/>
    <path id="path164" class="cls-13" d="M504.04,1070.69h4.7"/>
    <path id="path165" class="cls-13" d="M592.67,1003.3c.46,4.57,2.63,10.03,3.06,11.85"/>
    <path id="path166" class="cls-13" d="M601.66,928.76c2.6-1.71,7.33-4.29,8.17-4.29"/>
    <path id="path167" class="cls-13" d="M609.83,952.24c1.63,4.11,2.86,7.76,2.86,7.76"/>
    <path id="path168" class="cls-12" d="M829.77,818.48c4.29-2.81,7.25-4.19,9.8-4.7"/>
    <path id="path169" class="cls-12" d="M898.18,821.13c3.47-1.02,8.17,0,8.17,0"/>
    <path id="path170" class="cls-13" d="M598.8,960.41c-.41,2.3-3.4,5.95-5.11,7.76"/>
    <path id="path171" class="cls-13" d="M591.04,986.96c3.4-2.91,5.51-3.88,5.51-3.88"/>
    <path id="path172" class="cls-12" d="M832.22,807.04c0,2.3,0,5.05.41,5.51"/>
    <path id="path173" class="cls-12" d="M866.53,823.99c1.33,1.84,3.88,3.68,3.88,3.68"/>
    <path id="path174" class="cls-12" d="M822.01,1018.82c-5.62,7.71-8.22,14.5-10.82,20.83"/>
    <path id="path175" class="cls-12" d="M877.15,1044.35c1.74,4.08,3.47,10.82,3.47,10.82"/>
    <path id="path176" class="cls-12" d="M885.52,1072.33c0,3.17,1.63,4.95,2.45,7.15"/>
    <path id="path177" class="cls-12" d="M904.51,1063.95c1.74,1.89,2.55,2.35,5.11,3.27"/>
    <path id="path178" class="cls-12" d="M828.9,1066.2c-.97,1.43,0,6.02.46,12.05"/>
    <path id="path179" class="cls-12" d="M810.78,1052.11c-1.23,5-1.23,8.17-1.23,8.17"/>
    <path id="path180" class="cls-12" d="M870.82,908.95c.82,2.65.82,5.31.82,5.31"/>
    <path id="path181" class="cls-12" d="M923.09,890.16c2.55.41,5.51,1.23,5.51,1.23"/>
    <path id="path182" class="cls-12" d="M856.32,880.57c2.2,2.71,3.88,4.9,3.88,4.9"/>
    <path id="path183" class="cls-12" d="M845.09,1001.05c0,2.3-1.23,5.92-1.23,5.92"/>
    <path id="path184" class="cls-12" d="M847.95,708.4c-1.68,1.43-4.24,4.19-5.51,6.94"/>
    <path id="path185" class="cls-12" d="M795.05,708.4c.41.92,1.23,4.08,1.23,4.08"/>
    <path id="path186" class="cls-12" d="M865.72,743.53c-1.68,1.38-3.83,3.22-4.29,4.08"/>
    <path id="path187" class="cls-12" d="M867.35,780.08c1.74-.92,4.7-1.43,4.7-1.43"/>
    <path id="path188" class="cls-12" d="M867.35,819.3c2.14.97,3.42,1.43,5.51,1.43"/>
    <path id="path189" class="cls-13" d="M700.09,705.33c8.6,0,14.6-.43,17.18-3.63,3.01-2.73,3.85-8.19.43-10.93-2.58-1.38-3.45.92-17.61.92h0c-14.14,0-15.01-2.3-17.59-.92-3.45,2.73-2.58,8.19.43,10.93,2.58,3.19,8.58,3.63,17.16,3.63"/>
    <path id="path190" class="cls-13" d="M700.09,686.56c8.6,0,14.6-.43,17.18-3.19,3.01-3.22,3.85-11.46.43-14.22-2.58-1.38-3.45.92-17.61.92h0c-14.14,0-15.01-2.3-17.59-.92-3.45,2.76-2.58,11,.43,14.22,2.58,2.76,8.58,3.19,17.16,3.19"/>
    <path id="path191" class="cls-13" d="M700.09,665.11c8.6,0,14.6-.43,17.18-3.17,3.01-3.17,3.85-9.5.43-11.77-2.58-1.81-3.45.92-17.61.92h0c-14.14,0-15.01-2.73-17.59-.92-3.45,2.27-2.58,8.6.43,11.77,2.58,2.73,8.58,3.17,17.16,3.17"/>
    <path id="path192" class="cls-13" d="M700.09,645.51c8.6,0,14.6-.89,17.18-3.65,3.01-3.19,3.85-11.41.43-14.17-2.58-1.38-3.45,1.38-17.61,1.38h0c-14.14,0-15.01-2.76-17.59-1.38-3.45,2.76-2.58,10.98.43,14.17,2.58,2.76,8.58,3.65,17.16,3.65"/>
    <path id="path193" class="cls-13" d="M700.09,624.06c8.6,0,14.6-.46,17.18-3.68,3.01-3.24,3.85-9.73.43-12.02-2.58-1.86-3.45.92-17.61.92h0c-14.14,0-15.01-2.78-17.59-.92-3.45,2.3-2.58,8.78.43,12.02,2.58,3.22,8.58,3.68,17.16,3.68"/>
    <path id="path194" class="cls-13" d="M700.09,604.05c8.6,0,14.6-.46,17.18-3.68,3.01-3.24,3.85-9.73.43-12.02-2.58-1.86-3.45.92-17.61.92h0c-14.14,0-15.01-2.78-17.59-.92-3.45,2.3-2.58,8.78.43,12.02,2.58,3.22,8.58,3.68,17.16,3.68"/>
    <path id="path195" class="cls-13" d="M700.09,709.32c14.17,0,15.04-2.76,17.61-.92,3.42,2.27,2.58,7.74-.43,10.93-2.58,3.19-8.58,5-17.18,5h0c-8.58,0-14.58-1.81-17.16-5-3.01-3.19-3.88-8.65-.43-10.93,2.58-1.84,3.45.92,17.59.92"/>
    <path id="path196" class="cls-13" d="M700.09,741.69c8.6,0,14.6-2.27,17.18-5.44,3.01-3.19,3.85-8.63.43-10.9-2.58-1.84-3.45,2.71-17.61,2.71h0c-14.14,0-15.01-4.54-17.59-2.71-3.45,2.27-2.58,7.71.43,10.9,2.58,3.17,8.58,5.44,17.16,5.44"/>
    <path id="path197" class="cls-13" d="M700.09,741.89h0c-8.58,0-14.58-2.3-17.16-5.51,1.3,1.84,1.3,4.6.43,6.43,2.14-.92,3.85,2.76,16.72,2.76h0c12.87,0,14.6-3.68,16.75-2.76-1.3-2.3-.87-4.14.41-6.43-2.55,3.22-8.58,5.51-17.16,5.51"/>
    <path id="path198" class="cls-13" d="M700.09,759.86c8.6,0,14.6-3.17,17.18-6.33,3.01-3.17,3.85-8.58.43-10.85-2.58-1.81-3.45,2.73-17.61,2.73h0c-14.14,0-15.01-4.54-17.59-2.73-3.45,2.27-2.58,7.68.43,10.85,2.58,3.17,8.58,6.33,17.16,6.33"/>
    <path id="path199" class="cls-12" d="M940.25,899.25c-4.75-3.17-8.58-5.92-12-7.76,3.83-.46,8.12-1.79,10.26-5.92,0-.46.46-.92.46-.92,0-.92-.46-1.38-.87-1.79-.87-.46-2.14,0-2.6.87-.82,1.38-2.09,2.3-3.83,3.22-2.14.92-8.12,1.38-17.1.46-8.58-1.38-20.98-3.22-29.97-5-5.57-1.84-9.85-2.76-18.84-5.97-2.55-.92-5.57-2.25-8.99-4.08-2.55-1.38-8.53-4.6-13.68-10.98-5.16-6.38-12.87-14.6-21.85-20.53-2.55-1.38-.82-2.3,0-2.76,4.29-2.71,8.58-6.38,12.46-10.47,9.39-7.3,21.39-2.3,27.78.92,6.02,3.17,9.85,8.22,13.28,11.39,3.01,3.22,6.43,6.84,8.12,10.52,3.01,5,3.88,13.22,3.47,14.6-.46.92,0,2.3.82,2.71.87,0,1.74,0,2.14-.87.46-.92.46-2.3.46-4.14,0-4.08-1.74-9.14-3.01-13.68,3.83,2.76,8.58,5.92,9.85,10.52.41.87,1.28,1.33,2.14,1.33,1.28-.46,1.68-1.33,1.28-2.25-2.14-7.76-9.45-12.36-14.55-15.52-.87-.92-2.14-2.3-3.01-3.22,2.55.92,8.99,1.84,13.28,2.3,2.14.46,7.71,1.84,9.39,2.71.87.92,1.74,1.84,2.6,3.22.41.92,1.68.92,2.14.46.82,0,.82-.92.82-1.38v-.92c-2.14-3.17-4.7-5-7.25-6.38,2.55-.92,5.11-1.84,7.25-3.63.46-.46.46-.92.46-1.38s0-.92-.46-1.38c-.41-.46-1.28-.92-2.14,0-2.55,1.84-5.57,3.68-8.53,3.68-2.6.41-5.16,0-5.16,0-6.84-1.38-16.7-3.22-21.39-6.89-.41,0-2.55-2.25-3.42-3.17,4.7.92,9.85,0,14.55-.92,13.28-2.76,26.55-.46,34.26,1.84,3.42.92,5.11,4.08,5.97,5,.87,1.38,1.68,2.76,2.55,3.68l2.14,3.63c.46.92,1.74.92,2.55.46.46-.46.46-.92.46-1.38v-.92l-2.14-3.63c-1.28-1.38-2.14-2.76-3.01-4.6,1.28.46,3.01.92,4.29,1.84.87,0,1.74-.46,2.14-1.38s0-1.79-.87-2.25c-2.96-1.38-20.98-6.84-27.37-7.3,4.29-2.76,8.53-5.97,11.13-9.6,1.28-1.84,2.55-3.22,2.55-3.22,2.55-1.38,4.29-1.79,6.43-.92.82,0,1.68-.46,2.14-1.33.41-.92,0-1.84-.87-2.3-3.42-1.38-6.02,0-8.58,1.38v-.92c0-1.38,0-2.76-.41-4.14,0-.92-.87-1.33-2.14-1.33-.87.41-1.28,1.33-1.28,2.25.87,1.84.87,4.14,0,6.38v.46c-1.28,3.22-4.29,5.97-7.71,8.22-2.14,1.38-18.43,3.22-22.26,4.14-3.83.46-8.58.46-12.41.46,4.29-2.76,7.71-5.51,8.99-10.06.87-2.76,4.29-5.92,4.29-5.92l2.14-2.76c.82-.92.82-2.3,0-2.76-.87-.87-1.74-.41-2.6,0l-2.14,3.22s-.82.92-1.68,1.84v-1.84c0-2.76-.41-5.92-1.74-9.14-.41-.92-1.68-1.38-2.09-.92-.87.46-1.33,1.84-.87,2.76,1.28,2.76,1.28,5.92,1.28,9.14,0,0,.41,9.14-9.85,12.3-4.29,1.84-16.24-4.54-29.1-2.3,4.7-8.17,14.96-20.07,23.13-25.99,4.7-3.22,10.67-5.92,16.24-5,4.29.46,7.3.87,8.99,1.79.87,0,1.74-.46,2.14-1.33.46-.92,0-1.84-.87-2.3-2.55-.92-9.8-3.22-17.1-2.3,2.14-2.3,4.29-4.54,6.43-6.84l5.57-5.46c.41-.46.41-.92.41-1.38s0-.92-.41-1.38c-.46-.46-1.74-.92-2.14,0l-5.97,5.92c-2.14,2.3-4.29,4.6-6.89,6.84-1.28,1.38-5.97,4.6-7.25,5.51-5.57,3.17-12,8.68-17.1,15.06.82-4.14,2.14-8.22,2.96-12.36l2.14-8.22c2.6-10.01,5.57-19.15,13.73-26.91.82-.46,3.83-3.68,9.39-4.14h4.7c.87,0,1.74-.87,1.74-1.79s-.87-1.84-1.74-1.84c-3.42,0-7.25,0-10.67.92,0,0-.46.46-.87.46.41-.46.87-.92,1.28-1.38,1.28-2.3,3.01-5,4.29-7.3v-.92c0-.92-.46-1.38-.87-1.84-.87-.46-1.74,0-2.14.92-1.28,2.3-2.55,4.6-4.29,6.84-1.28,1.84-8.53,10.52-10.26,13.28-4.7,6.38-8.12,16.39-10.26,22.36-1.74,5.46-7.71,22.82-10.72,31.45,0-9.09-1.28-15.93-3.42-22.82-1.68-5-1.68-11.39-1.68-13.68.41-13.22,2.96-23.74,7.25-34.21,1.74-3.68,3.88-7.3,6.02-10.98.82-1.84,1.68-3.63,2.55-5,1.28-1.84,3.42-5.92,6.43-7.76,2.55-2.3,8.53-4.14,11.95-3.68.87,0,1.74-.92,1.74-1.79.41-.92-.41-1.84-1.28-1.84-3.88-.46-9.45.46-13.68,3.17,0,0-.46,0-.46-.46v-1.33c.46-1.84.87-3.68.87-5.51,0-1.33,0-2.25-.41-3.17-.46-1.38-1.33-1.84-2.14-1.38-.87.46-1.33,1.38-.87,2.3.41,2.25-2.14,8.63-2.14,9.55-1.74,5.05-4.29,9.14-6.84,13.73-2.55,3.63-4.7,7.76-6.43,11.85-4.29,10.52-6.84,20.07-7.71,32.42-2.96-7.3-6.43-13.68-10.26-20.58l-3.83-6.84c-3.88-6.38-7.3-12.76-8.99-19.61-.46-1.84-1.33-7.3,1.28-11.44,2.14-4.54,5.11-9.55,8.53-11.85.87-.46,1.28-1.38.87-2.3s-1.68-1.38-2.55-.92c-5.16,3.68-11.59,15.52-12,15.52h0c-2.14-2.25-5.11-4.08-7.71-5.46l-.41-.46c-.87-.46-1.74,0-2.14.92-.41.92-.41,1.84.41,2.3l.46.46c1.28.92,2.55,1.33,3.83,2.25,3.42,2.76,3.42,6.84,3.42,8.68,1.28,9.6,5.57,16.9,8.99,24.66,4.29,9.6,12.41,27.83,16.7,41.56.87,3.17,3.42,11.85,4.29,17.31.87,7.3-.41,15.06-3.83,20.58-2.14,3.17-4.75,5.92-7.71,7.3-3.42.92-10.72,2.71-19.3,2.25-6.84-.92-16.24-5.46-24.35-11.39-1.74-1.38-15.42-15.52-19.71-20.53-15.42-18.74-27.37-34.26-29.51-46.56-.46.46-.87.92-1.28,1.33-2.6,3.22-8.58,6.43-17.16,6.43h0c-8.53,0-14.55-3.22-17.1-6.43-.41,0-.41-.41-.87-.41-1.28,4.08-8.12,21.44-13.68,29.66-2.55,4.08-5.57,8.22-8.12,12.76-1.28,1.84-5.16,7.3-6.02,8.22-14.09,16.44-30.38,17.82-48.76,13.68-1.28,0-4.29-1.38-5.57-5.92-1.28-5-2.6-13.22-.46-25.12v-1.38c.87-6.38,2.6-15.06,4.29-24.61,0-1.38,1.74-9.14,5.16-14.19,3.42-5,7.25-10.93,8.99-19.61.41-2.76,2.14-7.3,3.42-9.6,2.55-4.08,5.57-6.38,8.58-9.14l3.83-2.71c.87-.92.87-1.84.41-2.76-.41-.92-1.68-.92-2.55-.46l-3.42,3.22h-.41c.41-2.3,0-4.14-.46-5.92v-.92c0-.92-.87-1.84-2.14-1.38-.82,0-1.28.92-1.28,1.84v1.33c.46,2.76,1.28,6.89-1.28,9.6h0c-2.14,2.3-3.83,4.6-5.57,7.76,0-4.54-1.28-7.3-3.01-10.06-.41,0-1.28-1.33-.41-2.71.41-1.84,1.28-4.6,3.01-6.84.82-.92.82-2.3,0-2.76-.87-.46-1.74-.46-2.6.46-1.68,2.3-2.96,5-3.42,7.3q-.41,0-.82-.46l-2.14-2.71c-.87-.92-1.74-.92-2.6,0-.82.41-.82,1.79,0,2.25l2.14,3.22c4.7,5,7.71,8.22,6.02,17.77,0,.46,0,1.84-.46,2.3-1.28,7.76-4.7,12.76-8.12,17.82-2.14,2.71-3.83,5.92-5.57,9.14-2.14-7.76-6.43-15.06-12.41-20.58-4.29-3.63-6.43-6.84-6.84-8.22-2.14-6.84-1.74-14.14.41-22.82.46-.87,0-2.25-.87-2.25-.82-.46-2.14,0-2.14.92-.41,1.33-.82,2.71-.82,3.63-1.28-1.38-3.01-3.17-4.7-4.54-.87-.92-1.74-.46-2.6,0-.41.92-.41,2.25.46,2.71,3.42,3.22,5.11,5.05,5.11,7.3,0,.46.46,4.6.46,6.43,0,4.08.82,8.17,2.09,11.85-3.83-2.3-8.53-4.08-13.22-5-.46-.46-1.74-.92-1.74-1.84-.41-1.38-1.28-3.22-.87-5.46.46-.92-.41-2.3-1.28-2.3s-1.68.46-2.14,1.38c-.41,2.71,0,5.46.87,7.3-1.68-.46-3.42-.46-5.16-.92-1.28,0-1.68.92-2.09,1.84,0,.92.82,1.79,1.68,1.79,7.3.46,14.55,2.3,20.53,5.51,6.02,2.71,11.59,8.68,13.73,11.39,2.14,2.76,4.24,6.38,5.97,10.98.87,2.25,1.28,8.22.41,13.68-1.28,7.3-2.14,13.68-2.96,18.74v1.33c-1.74,10.52-1.28,19.2,0,25.58,0,1.38.82,3.63-1.74,2.76-6.43-1.84-26.09-6.84-38.96-9.6-8.53-1.38-18.38-3.22-20.93-4.6-3.01-1.33-9.85-5.92-11.13-10.01-.46-2.3-.87-4.6-.46-5.92.46-.92,0-1.84-.82-2.3-1.33-.46-2.14.46-2.14,1.38-.46.46-.46,1.38-.46,2.25,0,2.76.46,5.05,1.28,7.76-2.09-1.33-4.7-1.79-6.84-2.25-.82,0-1.68.46-2.14,1.33,0,1.38.87,2.3,1.74,2.3,1.68,0,3.83.92,5.57,1.84,1.28.46,3.83,2.76,4.29,3.22,2.96,2.25,5.97,4.08,9.39,5.92-7.71.46-15.83,1.84-22.67,4.08-1.74.46-6.84,1.84-7.71,2.3h-6.43c-.87,0-1.68.46-1.68,1.38-.46,1.38.41,2.25,1.28,2.25h5.97c-3.42,2.3-6.43,5.51-8.53,8.68v.92c0,.46,0,.92.41,1.38.87.46,2.14.46,2.55-.46.87-1.38,2.6-3.22,4.29-5,3.42-3.22,8.12-5.05,9.39-5.51,7.71-2.71,18.84-4.54,27.83-5,8.99-.92,14.14,1.84,16.29,1.84-5.57,2.71-10.26,6.38-14.55,10.47-4.29,4.14-9.45,11.44-9.45,11.44l-4.7,6.38c-.87.92-.87,1.84,0,2.76.87.46,1.74.46,2.6-.46l5.11-6.38,1.74-2.76c0,4.14.41,7.76,1.68,11.44.46.87,1.28,1.33,2.14.87s1.28-1.33.87-2.25c-.87-2.76-1.28-5.92-1.28-8.68,0-5,2.96-7.3,5.57-10.06,4.29-4.08,9.39-6.84,16.7-8.68,2.55-.92,5.57-.46,6.84,0,7.71,2.76,20.12,7.3,21.39,7.76,12,3.68,29.51,12.36,45.34,13.73,4.75,0,5.57,4.54,4.29,6.84-5.57,11.39-11.13,24.15-16.24,37.43-2.14,6.38-8.99,21.44-9.85,22.82-3.42,5.92-9.85,11.85-16.29,15.52-8.99,4.54-16.7,5.46-20.53,5.46-17.56,1.84-36.4,2.3-52.23-3.68-1.28-.87-5.57-2.25-8.53-5-1.28-1.38-3.01-2.76-4.29-4.54-3.42-3.22-6.84-6.38-10.26-9.14-.87-.46-3.88-2.3-5.16-5.46-1.28-2.3-1.68-4.6-1.28-7.3,0-.92-.41-1.84-1.74-1.84-.82-.46-1.68.46-1.68,1.38v1.79c0,3.68.87,6.84,2.55,9.6-4.29-.92-8.99-.92-12.41,0-1.28,0-1.68.92-1.68,1.84.41.92,1.28,1.84,2.09,1.84,2.14-.46,4.75-.92,7.71-.46,2.14,0,5.57,1.38,9.85,4.08,3.01,2.3,5.57,5.05,8.12,7.76,1.74,1.84,3.88,3.68,5.57,5-5.97,1.84-12.41,4.14-17.51,7.76-1.74,1.38-9.45,7.76-12,8.68-3.01.46-6.43.46-8.12,0-1.28-.46-2.14,0-2.14.92-.46.92,0,2.3.87,2.3,4.24,1.38,9.8.46,14.55-1.38-1.74,4.14-2.6,9.14-3.42,13.22l-.46,2.76v.46c0,.46.87,1.38,1.74,1.84.82,0,1.68-.46,1.68-1.84l.46-2.3c.82-3.63,1.28-6.84,2.14-10.01,2.09-5.97,5.97-8.68,7.25-9.6,2.14-1.84,4.29-2.76,6.84-4.14,3.42-1.33,8.58-1.79,21.39,1.84,15.01,4.6,30.84,4.6,46.26,3.22,1.28,0,1.68.92.82,1.38-7.25,5.92-14.55,13.68-19.25,21.44-.41.46-8.58,12.76-11.54,19.15-.87,1.38,0,3.22,1.28,3.68,1.28.92,2.55.46,3.42-.92,2.14-5.05,5.16-8.68,8.12-12.36v.46c0,4.14.87,7.76,2.14,10.52.46,1.38,2.14,1.84,3.42,1.38,1.28-.92,1.74-2.76.87-4.14-.87-1.79-1.28-4.08-1.28-6.84,0-1.79.41-5.46,3.01-9.55,3.42-5.05,8.53-9.6,13.22-13.73,9.45-8.68,18.84-9.09,26.14-13.22,1.68-1.38,3.42-2.3,5.11-3.22-3.42,13.73-5.97,26.96-7.71,38.34-5.11,6.89-19.25,16.9-31.66,21.5-15.42,4.54-33.39,1.33-42.79-4.14h0c-4.29-3.17-8.58-6.84-12.87-10.93l-.82-.92c-.87-.92-2.6-.46-3.42.46-.46.46-.87,1.33-.87,1.79,0,.92.41,1.38.87,1.84l1.28.92c2.96,2.76,5.97,5.46,8.99,8.22-.46,0-.87-.46-.87-.46-3.83,0-7.3.46-10.72.92-2.55.92-5.57,1.38-8.12.92-1.28,0-2.55,1.38-2.55,2.71-.46,1.38.87,2.76,2.14,2.76,3.42.46,6.43-.46,9.39-.92,3.42-.46,6.43-.92,9.45-.92,0,0,3.42.46,6.38,1.38,8.99,3.68,16.29,5.92,25.27,7.3-1.28,1.38-19.25,13.68-22.26,15.06-.87.46-14.96,8.22-21.39,8.68-1.28,0-2.55,1.38-2.14,2.76,0,1.79,1.28,2.71,2.55,2.71,4.29-.46,9.85-1.33,14.55-3.17-2.55,5-3.42,10.01-4.29,13.22v.46c0,1.38.87,2.76,2.14,2.76,1.74.46,3.01-.46,3.01-2.3.41-3.22,2.14-9.6,5.57-13.68.87-1.38,18.84-13.68,22.26-15.52,2.14-.92,12.82-5.92,21.39-9.14,8.99-3.22,18.38-8.68,26.55-14.6-.46,3.17-.87,6.38-1.28,9.14-.87,5-5.57,9.55-5.57,9.55v.46c-6.02,6.43-14.14,15.52-20.98,26.5-.46.92-8.99,10.93-12.87,14.14-4.7,4.14-8.99,7.3-13.22,9.6-1.33.46-3.01,1.84-5.57.92-5.16-2.3-9.45-8.22-12.87-11.9l-.41-.92c-1.28-1.33-2.6-1.33-3.88-.46-.41.46-.82.92-.82,1.84s0,1.38.82,2.3l.87.92c2.55,3.17,5.16,6.38,7.71,9.14h-.41c-3.88-1.38-7.3-.92-10.72-.92-3.01,0-5.97,0-8.58-.46-1.28-.46-2.55.46-2.96,2.25-.46,1.38.82,2.76,2.14,3.22,2.96.46,6.38.46,9.39.46s5.97-.46,8.99.46c-4.29,1.38-9.39,2.76-15.42,2.3l-3.83-.46c-3.42-.46-7.71-1.38-9.45-3.22-.82-.92-2.55-1.38-3.83,0-.41.46-.87.92-.87,1.84s.46,1.38.87,1.84c2.55,3.63,8.12,4.08,12.41,5l3.42.46h.41c-6.84,2.3-13.22,6.38-20.93,12.3-.87.46-1.28,1.38-1.28,2.3,0,.46,0,.92.41,1.38.87,1.38,2.55,1.84,3.83.92,7.3-5.97,13.73-9.6,20.12-11.9l6.02-1.84c1.28-.41,7.25-1.33,8.99-1.79,8.53-2.3,19.25-6.84,29.97-15.06.41-.46,1.28,0,.82.92-1.28,3.17-2.55,6.38-3.83,9.09-.46.92-1.74,3.22-4.7,5.51-.46,0-.87.46-1.74.92v.41c-11.13,7.76-20.98,11.44-29.51,10.98-1.74,0-2.6.92-3.01,2.76,0,1.33,1.28,2.71,2.55,2.71,8.58.46,18.43-2.71,28.69-9.55-5.57,9.55-10.26,13.22-10.26,13.22-.87.92-11.59,10.47-16.7,12.3-1.28.46-2.14,2.3-1.74,3.68.46,1.38,2.14,2.25,3.42,1.79,3.42-1.33,6.89-3.17,9.85-5.46-1.28,3.22-2.14,6.84-2.14,10.06v.46c0,1.38,1.28,2.71,2.6,2.71,1.28-.41,2.55-1.33,2.55-3.17-.41-3.22,4.7-13.22,7.71-17.82,3.83-6.38,16.7-17.36,25.22-42.43,3.01-8.68,25.68-35.18,32.12-42.02,1.28-1.79,1.74,0,2.14.92.87,2.76,1.68,5.46,3.01,7.76.82,1.84,2.96,7.3,1.68,14.14-3.01,16.44-9.85,40.18-26.55,51.16-2.55,1.33-5.97,3.17-8.12,3.63-4.29,1.84-8.12,2.76-11.13,2.3-1.68,0-2.96,1.38-2.96,2.71s1.28,2.76,2.55,2.76c5.11.46,11.13-1.38,16.7-3.63.41-.46,1.28.46.87.87-.87,2.3-1.74,4.6-2.14,6.89-.87,3.63-2.14,7.3-3.88,9.09-.41.46-.41,1.38-.41,1.84,0,.92.41,1.38.87,1.84.82,1.38,2.55,1.38,3.42,0,2.55-2.76,3.83-7.3,5.11-11.44.46-1.79.87-4.08,1.74-5.92,1.68-4.08,3.83-5,4.7-5.92,15.42-11.9,22.67-33.34,26.55-49.78,1.28,7.35,1.28,12.82,0,23.74-.46,7.76-4.29,15.98-7.3,16.44-1.28.46-2.55,1.84-2.14,3.22,0,1.38,1.28,2.71,3.01,2.25,5.57-.87,8.58-7.76,10.67-14.14,1.74,7.76,3.88,12.82,5.57,15.98l.46.92c.87,1.38,2.14,1.84,3.42.92,1.28-.46,1.68-2.3,1.28-3.68l-.41-.87c-1.33-2.3-3.42-6.43-4.75-11.9-1.68-8.68-.82-13.68-.41-15.98.41-7.3-.87-13.22-1.68-18.23,4.7,4.08,13.22,6.84,17.1,11.39,4.29,4.6,7.25,9.6,9.39,14.14.46,1.38,2.14,2.3,3.42,1.38.87-.46,1.28-1.38,1.28-2.3v-1.33c-2.09-4.14-4.7-9.14-8.12-13.28,3.42.92,6.43,1.38,9.85,1.38,1.28,0,2.55-1.38,2.55-2.71-.41-1.84-1.28-2.76-2.96-2.76-3.88,0-13.28-3.22-13.73-3.22-5.11-2.25-9.8-6.38-14.55-11.39-1.68-1.38-10.26-12.82-13.28-26.04,0,0-2.09-5.92-.82-13.22,1.68-10.52,4.29-21.9,7.25-34.72,5.16,9.6,10.26,17.82,12.41,21.95,3.88,6.84,8.99,17.77,5.57,25.07-.82,1.38-.41,2.76.87,3.68s2.55.46,3.42-.92c1.74-2.76,2.14-5.92,2.14-9.14s-2.55-13.68-2.14-13.68c0,0,8.12,7.3,10.26,9.6.87,1.38,2.6,1.38,3.42.46,1.28-.92,1.28-2.76.46-3.68-.87-1.38-3.88-4.08-4.7-5.46-1.33-1.38-12-15.06-13.73-17.82-.41-.92.46-1.84,1.28-1.38,4.29,1.84,8.99,3.22,13.73,3.68,2.14,0,4.24-.92,4.7-3.68,0-2.25-1.74-3.17-4.29-3.63-5.97-.46-11.54-3.22-17.97-5.92,0,0-5.57-2.76-6.84-7.3-1.28-3.68-3.88-10.06-1.74-19.2,15.83-61.17,53.51-105.43,73.22-134.17,2.14-2.76,3.83-6.43,5.57-9.14,1.28-2.3,4.29-2.3,5.97,0,1.74,2.71,6.84,9.6,9.39,11.85,8.99,10.06,19.71,21.44,33.39,36.1,18.84,20.07,39.83,36.97,53.1,61.58,12.82,24.2,22.67,44.32,28.64,68.52,1.74,7.3,5.16,22.36,2.6,33.29-3.01,9.6-9.45,21.9-17.97,26.04-6.43,2.71-14.55,6.38-18.43,5.92-1.28,0-2.55.92-2.55,2.3,0,1.79.87,3.17,2.14,3.17,3.83,0,8.99-1.38,14.55-3.63-5.57,5.46-11.13,11.85-13.28,15.52v1.38c0,.87.41,1.79,1.28,2.25,1.28.92,3.01.46,3.42-.92,1.74-3.17,6.43-8.68,11.54-13.68-1.68,4.14-7.66,23.28-17.1,32.88l-.87.46c-.41.92-.82,1.84,0,2.71.46.92,1.74.92,2.6,0l.41-.46c3.01-2.71,7.3-6.84,12-14.6l.41.46v5.97c0,5.46.41,10.93,4.29,13.22.87.46,2.14.46,2.55-.46.46-.92,0-2.3-.87-2.76-2.96-1.84-.82-17.77-.41-19.15,3.01-10.52,4.7-15.52,8.12-21.44-1.28,9.09-1.68,20.98-.41,32.37.41,1.84,3.01,24.2,4.29,27.88,0,.92,1.68,1.79,2.55,1.33.41,0,1.28-1.33,1.28-1.79v-.92c-.41-.92-1.28-11.44-2.14-17.82,0-1.84,1.74-1.38,3.01,0,4.29,4.6,9.39,9.6,14.14,11.44.82.46,3.42.92,3.83-1.84.87-2.3-.87-3.22-1.68-3.68-3.01-.92-6.43-3.17-9.04-5.92-2.96-2.3-7.66-8.68-8.12-17.36-.87-13.68,2.6-26.45,5.57-32.37,3.88-6.84,5.16-13.73,7.3-19.66.41.92.82,1.38,1.28,1.84,5.57,7.76,10.67,14.6,16.24,25.58,8.17,13.22,15.88,35.13,20.12,46.97.87,1.38,5.16,18.74,3.42,22.87-.41.87-.41,1.79.46,2.25.87.46,2.14,0,2.55-.92.87-2.25,1.28-5.92,1.28-9.55v-4.14c2.6,4.6,5.57,8.68,8.99,11.9.46.46,1.74.46,2.14,0,.87-.92.87-1.84,0-2.76-5.11-4.54-9.39-15.06-12.82-21.9.82-.92,16.24,8.68,16.24,15.52,0,.92.87,1.84,1.74,1.84s1.68-.46,1.68-1.84c.46-3.22-1.68-6.38-3.83-8.68h5.11l.46.46c.87,0,1.68-.92,1.68-1.84s-.41-1.84-1.28-1.84l-.87-.46c-6.38,0-12.41-5.46-16.64-8.63-4.75-3.22-9.85-13.73-11.13-18.74,6.84,9.14,17.97,10.98,22.21,13.22,1.33.46,2.14.92,3.47,1.38l5.51,2.3c4.29,2.25,6.02,4.54,7.71,7.3,1.74,1.84,3.01,3.63,5.57,5.92.46.92,1.74.92,2.14,0,.46-.46.46-.92.46-1.38s0-.92-.46-1.38c-2.14-1.79-3.42-3.63-4.7-5.46-2.14-3.17-4.29-5.92-8.99-8.22,0,0-2.14-.92-3.83-1.38h4.7l3.42-.46c4.29,0,9.39,0,12.41-2.71.87-.92.87-1.84,0-2.76-.41-.92-1.74-.92-2.14,0-2.14,1.84-6.84,1.84-10.26,1.84l-3.88.46c-2.14,0-16.7-2.76-27.78-13.68-3.47-3.68-12.46-18.28-12.87-19.2-5.97-11.85-12-19.15-16.7-26.91-2.14-3.68-4.29-10.06-5.57-14.6-5.57-30.12-15.83-63.92-33.39-97.27-7.71-14.14-16.7-27.83-26.5-41.05-1.28-.92-1.28-3.68.41-3.22,3.01,0,13.28.92,20.12,4.6,7.71,4.54,16.7,12.3,21.39,17.77,3.01,3.68,25.68,27.42,30.84,40.18,1.68,4.54,3.42,12.3,2.96,18.28,0,2.25-1.28,6.84-2.55,8.17-.87,1.38-2.14,2.76-3.83,3.22-.87.46-1.33,1.38-.87,2.3,0,.92,1.28,1.38,2.14,1.38,2.14-.92,3.83-2.76,5.11-4.6.46-.46.87-.92,1.28-1.38h.87c1.28,2.3,2.14,5.05,5.16,5.97.87,0,2.14-.46,2.14-1.38.41-.92,0-1.84-1.28-2.3-1.33-.46-3.88-5.46-3.42-8.68.41-2.3.82-5,.82-7.76,0-3.17-.41-6.38-.82-9.6,3.42,2.3,6.84,3.68,9.8,5.05,0,0,3.42,1.38,6.02,3.17,2.14,2.3,3.42,6.43,4.7,9.14l.41.92c.46.92,1.28,1.38,2.14.92s1.28-.92,1.28-1.84c0,0,0-.46-.41-.46v-.92c-1.28-2.71-3.01-6.84-5.16-9.55,1.74,0,3.42-.46,5.16-.92h1.68c.87-.46,1.33-1.38,1.33-1.84s0-.46,0-.46c0-.92-.87-1.84-1.74-1.38h-2.14c-1.68.46-3.42,1.38-5.57.46l-5.57-2.3c-2.55-1.33-5.11-2.25-7.25-3.17-1.74-1.38-4.7-4.14-6.43-8.22-3.01-6.38-6.43-11.85-9.85-16.9-.41-.92.46-1.38,1.28-.92.46,0,1.33.46,1.74.46,9.39,3.22,11.54,3.22,17.1,5.05,5.16,1.79,8.99,2.25,15.01,6.38,3.42,3.63,5.97,7.76,8.53,12.3,1.74,2.76,3.42,5.46,5.57,8.22,2.14,3.68,3.88,6.84,3.88,8.22.41,2.3.41,4.54.41,7.3v1.84c0,.92.87,1.84,1.74,1.84.82,0,1.68-.92,1.68-1.84v-2.76c0-3.17,0-5.92-.87-9.14.46.46,1.28.92,1.74,1.38,2.55,2.76,5.11,5.46,8.12,5.46.87,0,1.74-.46,1.74-1.79,0-.92-.46-1.84-1.74-1.84s-3.83-2.3-5.97-4.6c-1.28-1.33-5.57-5.92-6.43-7.3-1.74-2.25-3.83-5-5.57-8.17-2.55-4.14-5.16-8.68-8.58-12.36-.41-.46,0-1.38.46-1.38.87,0,1.28.46,1.68.46l7.3,1.38c2.14.46,4.29.46,6.43.46,2.96,0,5.97,0,8.53.92.87,0,5.16,1.38,6.84,2.3,2.6,1.33,4.7,2.71,7.71,5,.46.46,1.74.46,2.14-.46.41-.46.41-.92.41-.92,0-.93-.41-1.39-.82-1.85"/>
    <path id="path200" class="cls-13" d="M700.09,724.33h0c-8.17,0-13.73-1.84-16.75-4.6.43.46,1.3,2.76,0,5.05,2.14-.46,4.29,3.22,16.75,3.22h0c14.14,0,15.01-4.6,17.56-2.76-1.71-2.76-1.71-4.14,0-6.43h0l-.41.46c-2.58,3.22-8.58,5.05-17.16,5.05"/>
    <path id="path201" class="cls-13" d="M717.19,701.67c-2.55,3.11-8.55,3.57-17.1,3.57h0c-8.58,0-14.55-.46-17.13-3.57.87,2.68.87,4.47-.43,6.69,2.58-1.79,3.45.87,17.56.87h0c14.12,0,14.96-2.66,17.54-.87.43,0,.43.43.84.43h0c-1.28-1.79-1.71-4.88-.84-7.12t-.43,0"/>
    <path id="path202" class="cls-13" d="M716.78,620.8c-2.99,2.81-8.58,3.27-16.72,3.27h0c-7.28,0-12.84-.46-15.85-2.78.87,2.32,0,4.65-.87,6.51,2.14-.94,3.88,1.38,16.72,1.38h0c14.14,0,15.01-2.78,17.59-1.38q.41.46.41.92v-.46c-1.71-.92-2.55-4.65-1.28-7.45"/>
    <path id="path203" class="cls-13" d="M717.22,600.17c-2.99,3.22-8.55,3.68-17.13,3.68h0c-7.71,0-12.84-.46-15.83-2.76.84,2.76,0,5.97-1.74,7.35,2.58-1.84,3.45.92,17.56.92h0c14.14,0,14.99-2.76,17.56-.92.41,0,.41.46.41.46v-.46c-1.71-1.38-2.55-5.51-.84-8.27"/>
    <path id="path204" class="cls-13" d="M700.09,691.46h0c14.14,0,15.01-2.25,17.56-.89-1.28-1.81-1.71-5-.41-7.28-3.01,2.73-8.58,3.19-17.16,3.19h0c-7.74,0-12.87,0-15.88-2.27.87,2.27.43,4.54-.87,5.9,2.14-.46,4.29,1.35,16.75,1.35"/>
    <path id="path205" class="cls-13" d="M700.06,665.22h0c-7.74,0-12.87,0-16.31-2.3.87,1.84.87,4.57,0,5.95,2.14-.46,4.29,1.35,16.31,1.35h0c13.71,0,15.01-2.27,17.16-.89-1.3-2.3-1.71-5.95.84-8.25v-.46c0,.46-.41.92-.84,1.38-2.58,2.76-8.58,3.22-17.16,3.22"/>
    <path id="path206" class="cls-13" d="M718.06,640.4c0,.49-.41.94-.84,1.4-2.58,2.76-8.58,3.68-17.16,3.68h0c-7.71,0-13.28-.46-16.29-3.22,1.3,2.76.87,5.54-.43,7.38,2.14-.92,3.88,1.38,16.72,1.38h0c14.14,0,15.01-2.76,17.59-.92.41,0,.41.46.41.46h0c-1.71-1.84-2.99-6.92,0-9.68v-.49h0Z"/>
    <path id="path207" class="cls-7" d="M671.08,777.81c0,5.87,23.87,13.1,25.99,12.66,2.55,0,2.14-2.71,4.26-2.71s1.71.89,3.42,1.35c3.4.43,23.41-2.27,25.55-12.66.41-1.35-1.28-4.06-2.99-6.33-1.71-2.71-2.99-5.87-4.26-5.41-2.12.46-10.21,7.68-22.16,7.68s-21.29-5.87-22.57-9.04c-.84-2.27-7.25,10.85-7.25,14.45Z"/>
    <path id="path208" class="cls-3" d="M723.11,779.73c4.67-4.57,2.12-8.19.84-12.3,0,0,5.95,6.84,3.83,11.39-2.12,4.08-10.21,6.82-17.9,8.63,2.99-1.35,9.37-4.08,13.22-7.71Z"/>
    <path id="path209" class="cls-5" d="M673.94,776c0-2.25,2.58-8.58,4.72-8.12.87,0,2.14.92,2.58,1.81,1.28.89,2.58,1.35,3.85,1.81,6,2.71,12.87,3.14,18.87,2.71-1.71,0-2.99.89-4.7.89-3.45.89-7.74.89-11.16,0-2.58-.89-7.3-4.06-10.29-3.17-1.74.46-2.14,3.17-3.88,4.06Z"/>
    <path id="path210" class="cls-7" d="M667.51,784.32c.87,3.63,16.64,13.63,26.04,13.17-.84,3.63-4.7,9.55-7.68,10.44-3.4,1.35-24.76-7.28-24.76-13.63-.43-2.27,5.57-11.36,6.41-9.98Z"/>
    <path id="path211" class="cls-7" d="M736.54,784.32c-.82,3.68-15.83,14.09-24.81,14.55,1.33,3.68,5.57,8.22,8.58,9.14,3.42.87,23.08-9.14,22.26-15.47.41-2.3-5.57-9.6-6.02-8.22Z"/>
    <path id="path212" class="cls-13" d="M671.08,777.81c0,5.87,23.87,13.1,25.99,12.66,2.55,0,2.14-2.71,4.26-2.71s1.71.89,3.42,1.35c3.4.43,23.41-2.27,25.55-12.66.41-1.35-1.28-4.06-2.99-6.33-1.71-2.71-2.99-5.87-4.26-5.41-2.12.46-10.21,7.68-22.16,7.68s-21.29-5.87-22.57-9.04c-.84-2.27-7.25,10.85-7.25,14.45"/>
    <path id="path213" class="cls-13" d="M667.51,784.32c.87,3.63,16.64,13.63,26.04,13.17-.84,3.63-4.7,9.55-7.68,10.44-3.4,1.35-24.76-7.28-24.76-13.63-.43-2.27,5.57-11.36,6.41-9.98"/>
    <path id="path214" class="cls-12" d="M736.54,784.32c-.82,3.68-15.83,14.09-24.81,14.55,1.33,3.68,5.57,8.22,8.58,9.14,3.42.87,23.08-9.14,22.26-15.47.41-2.3-5.57-9.6-6.02-8.22"/>
    <path id="path215" class="cls-6" d="M905.53,969.95c-.41-.92-1.68-1.38-2.55-.92-6.43,2.3-22.72.92-30.84-6.43-.87-.46-12-12.3-21.44-19.2-8.99-6.84-14.09-7.76-14.96-10.98-2.14.46-3.01,7.81-3.88,9.65-.87,3.63.87,6.84,4.29,8.22,7.71,2.25,13.28,8.68,15.01,16.9.87,3.68,1.68,17.36-.46,26.96s-5.97,20.12-11.13,31.55c-.82,2.3-.82,4.14,1.28,5.05,2.14,1.33,3.88,0,4.75-2.3,3.83-8.22,8.12-18.28,11.13-28.8,2.14,4.54,6.84,9.14,12,12.3,2.14,1.38,4.29.92,5.16-.87,1.28-2.3,0-4.6-2.14-5.97s-5.57-4.54-6.89-8.22c-3.83-9.6-2.96-25.12-3.42-26.5,0-.92.46-3.22,1.74-1.38,3.83,3.17,8.58,9.6,9.39,11.9,2.14,5,5.16,9.6,9.85,12.3,3.01,1.38,4.75-2.71,2.6-3.63-2.6-.92-4.29-5.51-6.43-9.6-.87-2.3,0-3.22,3.42-3.22,9.45-1.38,17.56,9.14,18.43,14.19.41.92,1.28,1.33,2.14.92.87,0,1.28-.92,1.28-1.38v-.46c-1.28-5.97-4.29-10.06-8.17-13.73v-.92c.46,0,.46-.46.46-.46,3.01,0,5.57-.92,8.58-2.76.82,0,.82-.87.82-1.33v-.92Z"/>
    <path id="path216" class="cls-1" d="M840.44,1027.04c.41-.46,1.28-.46,2.55,0,.87.41,1.28,1.74.87,2.14-.41.87-1.28.87-2.14,0-1.28-.41-1.74-1.28-1.28-2.14Z"/>
    <path id="path217" class="cls-10" d="M840.44,1027.04c.41-.46,1.28-.46,2.55,0,.87.41,1.28,1.74.87,2.14-.41.87-1.28.87-2.14,0-1.28-.41-1.74-1.28-1.28-2.14"/>
    <path id="path218" class="cls-12" d="M836.15,950.3c7.71,2.25,13.28,8.68,15.01,16.9.82,3.68,1.68,17.36-.46,26.96s-5.97,20.12-11.13,31.55c-.87,2.3-.87,4.14,1.28,5.05,2.14,1.33,3.88,0,4.7-2.3,3.88-8.22,8.17-18.28,11.18-28.8,2.14,4.54,6.84,9.14,12,12.3,2.14,1.38,4.29.92,5.11-.87,1.33-2.3,0-4.6-2.14-5.97s-5.57-4.54-6.84-8.22c-3.83-9.6-3.01-25.12-3.42-26.5,0-.92.41-3.22,1.74-1.38,3.83,3.17,8.53,9.6,9.39,11.9,2.14,5,5.16,9.6,9.85,12.3,3.01,1.38,4.75-2.71,2.6-3.63-2.6-.92-4.29-5.51-6.43-9.6-.87-2.3,0-3.22,3.42-3.22,9.45-1.38,17.56,9.14,18.43,14.19.41.92,1.28,1.33,2.14.92.87,0,1.28-.92,1.28-1.38v-.46c-1.28-5.97-4.29-10.06-8.17-13.73v-.92c.46,0,.46-.46.46-.46,3.01,0,5.57-.92,8.58-2.76.82,0,.82-.87.82-1.33v-.92c-.41-.92-1.68-1.38-2.55-.92-6.43,2.3-22.72.92-30.84-6.43-.87-.46-12-12.3-21.44-19.2-8.99-6.84-14.14-7.76-15.01-10.98"/>
    <path id="path219" class="cls-12" d="M858.98,958.57c2.04,3.68,2.45,8.73,2.45,11.44"/>
    <path id="path220" class="cls-12" d="M857.55,995.53c-.41,2.35-.82,5.11-.82,5.11"/>
    <path id="path221" class="cls-12" d="M891.03,973.48c2.6.97,4.7,2.86,4.7,2.86"/>
    <path id="path222" class="cls-12" d="M877.56,972.66c0,2.76,0,5,.82,6.33"/>
    <path id="path223" class="cls-6" d="M845.91,764.97c.82.97,1.63,1.89,1.63,1.89l-2.45,4.6v.46c-.82-1.38-.82-1.84-1.23-2.76l2.04-4.19Z"/>
    <path id="path224" class="cls-8" d="M867.76,778.81c0,.92.46,2.71,1.33,1.84,1.33-.46.92-2.3.46-3.22"/>
    <path id="path225" class="cls-8" d="M868.22,818.99c-.46.41-.46,1.28-.46,1.74,1.84.41,2.25-1.33,2.25-2.66"/>
    <path id="path226" class="cls-8" d="M868.32,823.58c-.87.41-1.79,1.23-1.33,2.45.87,0,1.33-.82,2.2-1.23"/>
    <path id="path227" class="cls-8" d="M898.99,820.32c.46.46.46.92.46,1.84,1.28,0,3.01-2.3,1.74-3.27"/>
    <path id="path228" class="cls-8" d="M858.11,880.97c-.87.46-2.6,1.84-2.14,2.76.87,1.33,3.83-2.3,4.24-2.76"/>
    <path id="path229" class="cls-8" d="M924.42,889.6c-1.33,2.2,1.74,2.2,2.14-.46"/>
    <path id="path230" class="cls-8" d="M872.05,910.64c-2.45-.46-2.45,3.63.82,1.38"/>
    <path id="path231" class="cls-8" d="M837.43,948.77c-.87,1.02-1.74,3.01,0,3.47,1.28,0,2.14-2.45,2.55-3.47"/>
    <path id="path232" class="cls-8" d="M860.1,958.98c-.87.46-1.74,1.38-1.28,2.3.87,0,1.74-.92,2.6-.92.41,1.38-1.33,2.71-2.6,2.71"/>
    <path id="path233" class="cls-8" d="M878.38,973.17c-2.45-.92-2.86,3.57.41,1.33"/>
    <path id="path234" class="cls-8" d="M891.44,974.65c.41-.97.82-2.4,1.63-2.4v2.86"/>
    <path id="path235" class="cls-8" d="M857.96,995.89c-2.45-.97-3.27,2.3.41,1.84"/>
    <path id="path236" class="cls-8" d="M846.72,1002.78c-.87-.87-1.74-.87-2.14-1.33-1.33,1.33-.46,3.47,1.28,2.6"/>
    <path id="path237" class="cls-8" d="M811.19,1053.59c-.82-.46-2.45-.46-2.04,1.33,0,1.28.82.87,1.63.87"/>
    <path id="path238" class="cls-8" d="M829.77,1068.04c-2.55,0-3.88,2.65-.41,2.25"/>
    <path id="path239" class="cls-8" d="M878.12,1045.16c-.87,0-2.2.97-1.74,2.4.87.46,2.14-.46,3.01,0"/>
    <path id="path240" class="cls-8" d="M886.28,1072.73c-3.22.46-2.76,3.47.46,2.2"/>
    <path id="path241" class="cls-8" d="M905.94,1064.36c-.46,0-.92.51-1.43,1.02"/>
    <path id="path242" class="cls-8" d="M830.23,817.05c-.46,2.25,4.24,1.84,2.14-1.84"/>
    <path id="path243" class="cls-8" d="M831,812.15c.92,0,2.2-.97,3.06-1.43-.87-1.02-2.14-.51-3.06,0"/>
    <path id="path244" class="cls-8" d="M861.43,746.23c.46.46,1.79,1.38,2.65.46.41-.92-.87-2.3-1.74-2.76"/>
    <path id="path245" class="cls-8" d="M842.44,714.01c3.06.92,2.2-2.76.46-2.76"/>
    <path id="path246" class="cls-8" d="M795.05,712.48c.82-.41,1.23-.82,1.63-1.63"/>
    <path id="path247" class="cls-11" d="M614.37,865.04c3.01-.46,2.6-5.51-.87-1.38"/>
    <path id="path248" class="cls-11" d="M591.04,891.39c-.46-.41-.46-1.23-.92-1.63-.46.41-.46,1.63-.92,2.45,0-.82,0-2.04-.92-2.45-.92.41-.92,1.63-.92,2.45"/>
    <path id="path249" class="cls-11" d="M529.36,829.3h1.23"/>
    <path id="path250" class="cls-11" d="M575.11,704.93c.82,0,1.63-.41,1.63,0"/>
    <path id="path251" class="cls-11" d="M626.37,705.33c0,.82.97,1.23,1.43,1.23h-.46"/>
    <path id="path252" class="cls-11" d="M501.56,811.13c0,.89,0,1.79.43,2.66-1.76,0-2.66-1.76-2.66-1.76"/>
    <path id="path253" class="cls-11" d="M607.68,922.02c.43.92,2.14,4.14.87,5.05-1.3.46-2.6-2.76-2.6-3.68"/>
    <path id="path254" class="cls-11" d="M609.01,953.05c.82-.46,1.63-1.84,2.86-1.38.41,1.84-1.23,2.3-2.04,3.22"/>
    <path id="path255" class="cls-11" d="M633.01,977.77c-.43,0-1.3.41-1.74,1.23.87.82,2.17.41,3.47.41"/>
    <path id="path256" class="cls-11" d="M596.96,960.82c.46.46,3.06.92,2.63,1.84"/>
    <path id="path257" class="cls-11" d="M595.74,981.85c.41.92.82,3.65,0,4.08-.82-.43-1.63-1.81-2.04-2.71"/>
    <path id="path258" class="cls-11" d="M507.92,1069.87c-.41.97-.41,1.91-.41,2.86"/>
    <path id="path259" class="cls-11" d="M530.59,1098.62c-1.63-2.4-3.27,1.89,0,1.89"/>
    <path id="path260" class="cls-11" d="M572.05,1093.77c.46-.51.92-1.02,1.84-1.02"/>
    <path id="path261" class="cls-11" d="M610.65,1068.96c2.04-1.74,2.04,2.14-.82,1.74"/>
    <path id="path262" class="cls-11" d="M635.97,1051.09c.41-.92,1.23-1.84,1.63-1.84"/>
    <path id="path263" class="cls-11" d="M608.53,1030.05c-.84.46-2.58.92-2.14,2.3.87.46,2.14,0,3.01-.46.84,1.38,0,3.22-1.3,3.68"/>
    <path id="path264" class="cls-11" d="M594.05,1003.3c-.43.49-2.6,1.4-2.17,2.35.43.92,3.04,0,3.45-.46"/>
    <path id="path265" class="cls-13" d="M550.19,961.84c-1.23,3.17-1.23,6.33-1.23,6.33"/>
    <path id="path266" class="cls-13" d="M512.21,985.53c1.76,0,4.39.97,6.13,1.43"/>
    <path id="path267" class="cls-11" d="M517.52,985.94c-.61.89-1.23,1.79-.61,2.65"/>
    <path id="path268" class="cls-11" d="M548.56,963.88c.82-.41,1.63-.41,2.04-.82"/>
    <path id="path269" class="cls-5" d="M663.12,792.8c.43-2.78,3.04-7.4,5.64-4.62,1.3,1.38,2.17,2.78,3.88,4.16,2.6,1.38,6.08,1.84,8.65,3.68-3.88-.46-7.79-1.38-10.8-3.68-2.6-1.38-5.64-.46-7.38.92v-.46h0Z"/>
    <path id="path270" class="cls-5" d="M721.48,800.56c2.96-1.38,10.21-6.84,11.9-10.06-5.92,6.43-15.32,8.22-17.87,9.14-2.55,1.38,1.74,5.97,4.29,6.38-1.74-.87-1.74-3.63,1.68-5.46Z"/>
    <path id="path271" class="cls-3" d="M731.33,802.14c5.67-4.08,9.55-6.84,10.01-9.6.41-2.76-3.47-5.51-3.47-5.51,1.28,1.84,2.6,5.05.87,7.35-1.74,2.3-7.4,7.76-7.4,7.76Z"/>
    <path id="path272" class="cls-3" d="M671.08,800.58c2.99,3.27,12.36,6.05,14.91,5.59s5.11-6.08,5.11-6.08c-.84,1.89-6.38,4.21-9.78,3.27-3.42-.46-10.24-2.78-10.24-2.78Z"/>
    <path id="path273" class="cls-13" d="M685.1,580.97c.89,2.35.46,5.16-1.35,6.54"/>
    <path id="path274" class="cls-13" d="M716.83,587.91c-2.25-1.84-1.33-6.94-1.33-6.94"/>
  </g>
</svg>