<?xml version="1.0" encoding="UTF-8"?>
<svg id="svg3" xmlns="http://www.w3.org/2000/svg" xmlns:xlink="http://www.w3.org/1999/xlink" viewBox="0 0 1398.49 3639.87">
  <defs>
    <style>
      .cls-1 {
        fill: #ef6579;
      }

      .cls-1, .cls-2, .cls-3, .cls-4, .cls-5, .cls-6, .cls-7, .cls-8, .cls-9, .cls-10, .cls-11, .cls-12, .cls-13, .cls-14, .cls-15, .cls-16, .cls-17, .cls-18, .cls-19, .cls-20, .cls-21, .cls-22, .cls-23, .cls-24 {
        fill-rule: evenodd;
      }

      .cls-25, .cls-26 {
        stroke: #333;
      }

      .cls-25, .cls-26, .cls-27, .cls-28, .cls-29, .cls-30 {
        fill: none;
      }

      .cls-25, .cls-26, .cls-28, .cls-29 {
        stroke-miterlimit: 8;
      }

      .cls-25, .cls-28 {
        stroke-width: .68px;
      }

      .cls-31 {
        clip-path: url(#clippath-6);
      }

      .cls-26, .cls-29 {
        stroke-width: .66px;
      }

      .cls-2 {
        fill: #c64262;
      }

      .cls-3 {
        fill: #ef6f8e;
      }

      .cls-32 {
        clip-path: url(#clippath-4);
      }

      .cls-4 {
        fill: #f2d7e0;
      }

      .cls-5 {
        fill: #f4bdcd;
      }

      .cls-6 {
        fill: #fff;
      }

      .cls-7 {
        fill: #dd526d;
      }

      .cls-8 {
        fill: #f4d3cb;
      }

      .cls-33 {
        clip-path: url(#clippath-1);
      }

      .cls-9 {
        fill: #f27c93;
      }

      .cls-34 {
        clip-path: url(#clippath-5);
      }

      .cls-10 {
        fill: #f9c5d5;
      }

      .cls-11 {
        fill: #d84c67;
      }

      .cls-12 {
        fill: #f4cabe;
      }

      .cls-35 {
        clip-path: url(#clippath-3);
      }

      .cls-13 {
        fill: #cc4867;
      }

      .cls-14 {
        fill: #f48ca0;
      }

      .cls-15 {
        fill: #dd4e6a;
      }

      .cls-28, .cls-29, .cls-30 {
        stroke: #fff;
        stroke-linecap: round;
      }

      .cls-16 {
        fill: #f4dad4;
      }

      .cls-17 {
        fill: #9b2748;
      }

      .cls-18 {
        fill: #f4e3df;
      }

      .cls-19 {
        fill: #edac9d;
      }

      .cls-36 {
        clip-path: url(#clippath-2);
      }

      .cls-20 {
        fill: #e03f5e;
      }

      .cls-21 {
        fill: #f492a9;
      }

      .cls-22 {
        fill: #f7a9bf;
      }

      .cls-30 {
        stroke-linejoin: round;
        stroke-width: .84px;
      }

      .cls-23 {
        fill: #f4a4b7;
      }

      .cls-37 {
        clip-path: url(#clippath);
      }

      .cls-24 {
        fill: #bf3758;
      }
    </style>
    <clipPath id="clippath">
      <rect class="cls-27" x="613.92" y="1684.22" width="171.36" height="290.28"/>
    </clipPath>
    <clipPath id="clippath-1">
      <rect class="cls-27" x="613.92" y="1684.22" width="171.36" height="290.28"/>
    </clipPath>
    <clipPath id="clippath-2">
      <rect class="cls-27" x="613.92" y="1684.22" width="171.36" height="290.28"/>
    </clipPath>
    <clipPath id="clippath-3">
      <rect class="cls-27" x="613.92" y="1684.22" width="171.36" height="290.28"/>
    </clipPath>
    <clipPath id="clippath-4">
      <rect class="cls-27" x="613.92" y="1684.22" width="171.36" height="290.28"/>
    </clipPath>
    <clipPath id="clippath-5">
      <rect class="cls-27" x="613.92" y="1684.22" width="171.36" height="290.28"/>
    </clipPath>
    <clipPath id="clippath-6">
      <rect class="cls-27" x="613.92" y="1684.22" width="171.36" height="290.28"/>
    </clipPath>
  </defs>
  <g id="_방광" data-name="방광">
    <path id="path2" class="cls-12" d="M740.97,1684.55s-1.65,30.23,8.64,53.86c12.22,28.29,14.07,49.68,14.07,49.68l9.85,7.08s-3.8-33.43-14.79-56.22c-6.28-12.89-8.02-54.29-8.02-54.29l-9.76-.12Z"/>
    <path id="path3" class="cls-19" d="M761.77,1770.31c-.11,1.4.83,3.55,1.23,5.05.31,1.61.31,3.34.92,4.95.71,2.15,4.82,8.78,7.37,8.25.92-3.53-1.32-8.36-2.14-11.68-.92-3.55-4-5.91-7.37-6.24v-.33h0Z"/>
    <path id="path4" class="cls-12" d="M658.71,1684.55s1.54,30.21-8.66,53.86c-12.26,28.27-14.22,49.67-14.22,49.67l-9.9,7.09s3.82-33.43,14.94-56.22c6.19-12.89,7.93-54.28,7.93-54.28l9.9-.12Z"/>
    <path id="path5" class="cls-19" d="M638.86,1766.2c.3.54-.71,3.54-.92,4.61-.31,1.72-.51,3.43-.82,5.15-.71,3.87-2.14,7.18-5.42,9.54-.92.64-2.76,2.46-3.47,1.18-.51-.96.31-4.08.51-5.03.71-3.87,1.12-8.05,3.98-10.94,1.84-1.93,4.19-2.9,5.93-4.51h.2Z"/>
    <path id="path6" class="cls-12" d="M614.59,1817.03s9.58-64.65,84.32-64.65,85.61,63.16,85.61,63.16l-169.93,1.49Z"/>
    <path id="path7" class="cls-1" d="M617.81,1812.99s27.74-24.71,63.37-27.31c35.54-2.48,65.93-1.71,98.48,27.31,0,0,2.46,42.91-36.97,78.81-23.61,21.51-43.76,15.7-38.31,31.51,5.45,15.79,1.74,44.71-8.51,44.4-10.28-.33,2.06-53-7.62-57.32-9.53-4.3-65.3-23.64-70.44-97.4Z"/>
    <path id="path8" class="cls-15" d="M622.28,1817.08c4.11-4.06,8.02-9.67,14.3-10.3,6.37-.77,2.26,6.98,5.74,7.08,1.97.12,7.62-3.97,9.47-5.05,2.35-1.4,7.68-6.35,10.77-5.28,2.17.77,1.34,1.94,0,4.09-2.66,4.3-6.68,7.31-8.71,12.05-.83,1.73-2.79,6.03-1.97,8.06,1.54,3.88,5.25-3.43,6.88-4.72,2.17-1.61,5.05-2.92,5.45.3.31,2.48-4.51,7.54-2.26,10.11,2.77,3.22,19.52-14.74,21.15-17.1,1.25-1.61,8.02-13.22,10.9-10.63,1.63,1.49-8.02,14.18-8.42,16.77-.42,2.03-2.17,12.89,1.85,12.24,2.97-.42,6.57-13.76,10.68-9.88,1.63,1.61.92,16.33,6.37,13.76,2.37-1.19,2.57-9.04,2.97-11.19.63-2.78.63-10.32,3.91-11.49,2.68-1.07,1.23,2.48,1.85,5.16,1.34,5.16,5.03,9.02,7.59,13.64.74,1.19,2.17,3.99,4.02,3.22,1.54-.63-1.65-14.72-1.74-16.33,0-2.59.4-9.04,3.37-10.32,3.6-1.52,6.79,5.79,8.42,8.06,2.99,4.3,9.87,15.58,16.15,14.3-.63-4.62-14.3-13.76-8.64-17.31,5.25-3.22,14.59,5.61,19.32,6.14.4-4.41-3.28-8.18-2.68-12.71,2.68-.84,5.56,2.06,7.93,3.25,2.06,1.07,4.4,1.61,6.37,2.57,3.89,2.15,1.03,4.95-1.34,7.43-2.77,2.9-5.14,6-8.53,8.15-3.4,2.06-7.19,3.55-10.68,5.37-5.45,2.8-10.7,5.7-16.44,7.76-6.57,2.36-13.36,3.64-20.04,5.7-6.48,1.94-13.87,2.69-20.55,3.32-6.68.54-12.53-.63-19.01-1.61-6.37-.84-13.04-.42-19.1-2.99-3.91-1.73-7.3-3.88-10.9-6.24-5.85-3.67-10.79-10.11-15.41-15.39-2.37-2.69-5.14-6.98-7.91-8.92l-1.14-1.07Z"/>
    <path id="path9" class="cls-15" d="M701.79,1911.76c-1.13,1.3-3.47,1.09-4.8,2.49-1.94,1.82-1.94,4.52-2.14,7.1-.61,7.1-1.03,14.54-2.04,21.54-.93,6.46.4,11.2,2.35,17.12.61,1.94,1.23,4.85,2.76,6.24,3.59,3.45,5.22-3.12,6.03-5.92,1.54-5.38,1.03-10.87,1.23-16.47.2-4.95.92-9.9.51-14.97-.31-3.12-.82-6.56-1.53-9.58-.41-2.27-1.74-4.41-2.16-6.46l-.2-1.09Z"/>
    <path id="path10" class="cls-14" d="M690.67,1786.48c0,11.63,3.17,27-7.51,34.1-5.85,3.88-12,8.18-17.45,13.01-4.22,3.88-2.26,4.84,1.54,8.6,2.26,2.06,4.51,5.58,7.28,2.8,2.17-2.06,2.26-5.91,4.22-8.29,2.26-2.57,5.63-4.51,8.2-7.1,1.34-1.28,4.74-6.87,6.79-6.54,2.57.42,3.17,7.4,3.37,9.46.22,1.82.22,3.85.11,5.79-.11,1.19-1.65,4.53-1.03,5.61,1.54,2.69,7.39,1.71,9.54,1.17,4.11-1.07,5.34-1.38,3.08-5.47-1.83-3.01-2.86-5.82-3.37-9.37-.63-4.09-1.23-8.27-2.77-12.15-1.85-4.3-4.11-6.12-3.71-10.86.4-4.51-.83-8.18-1.85-12.47-.29-1.4-.6-4.2-1.63-5.49-1.54-1.82-2.06-.54-4.42-1.4l-.4-1.4Z"/>
    <path id="path11" class="cls-14" d="M717.9,1787.13c1.14,4.2,2.06,8.41.71,12.59-1.34,4.62-3.69,8.83-4.11,13.66-.83,8.29,2.99,15.07,3.08,23.03,0,4.09-.4,5.47,3.19,6.87,2.86,1.07,7.8,2.15,8.82-.84,2.06-6.14-5.45-15.81-.6-21.3,1.43,3.22,3.8,4.09,5.94,6.77,2.48,2.9,2.48,7.43,3.6,10.86,1.85-2.8,6.37-4.74,8.82-6.56-4.4-1.82-6.77-5.58-10.16-8.83-3.08-2.9-6.68-4.84-9.45-7.73-3.17-3.46-2.86-8.08-2.26-12.92.63-4.95,4.31-9.67,4.42-14.41-3.28-.21-8.33-1.19-11.3-.09l-.71-1.1Z"/>
    <path id="path12" class="cls-14" d="M679.05,1786.79c.51,15.15-24.25,18.8-31.24,30.84-1.13,1.82-8.83,16.86-3.8,17.94,1.24.21,5.24-10.74,6.88-12.15,3.4-3.22,6.58-1.39,4.84,3.22-1.44,3.55-5.75,6.34-5.45,10.32,1.54.85,3.5,1.28,5.04,2.25,2.26-3.55,1.95-8.49,4.52-12.36,1.84-2.79,7.39-9.57,11.19-8.82.1,2.37-1.95,4.95-2.77,7.1-.93,2.69-1.64,5.26-1.95,8.27-.41,4.4-2.06,7.52,3.08,7.95,4.52.32,4.31-2.15,4.52-6.24.3-7.52.82-12.79,5.03-19.24,4.11-6.45,11.51-11.06,12.84-18.7.31-2.03.71-11.28-1.03-12.57-.51-.22-4.72,1.07-5.55,1.07-1.84.11-4.1-.33-5.54.32l-.61.76Z"/>
    <path id="path13" class="cls-14" d="M652.25,1792.56c-.41-.11-.41-.54-.93-.22.73,7.86-8.63,15.38-14.9,17.54-7.3,2.46-13.17,7.52-12.34,15.8,3.08-4.4,7.19-9.36,13.06-9.67-.61,4.4-3.5,8.28-4.01,12.79,4.72-.85,7.92-7.21,9.56-11.4,1.95-4.52,3.29-8.06,7.51-10.76,9.15-5.91,19.84-10.22,22.92-21.95-7.29.76-13.97,4.52-20.86,5.71v2.15Z"/>
    <path id="path14" class="cls-14" d="M699.65,1785.75c1.03,2.15,2.99,3.43,3.91,5.68,1.14,2.59.94,5.79.94,8.6,0,2.36-.71,16.63,3.4,15.79,3.08-.65,3.48-13.97,4.11-16.75.92-3.67,2.66-8.5,1.34-12.15-2.88-1.94-9.78-1.07-12.67-.09l-1.03-1.07Z"/>
    <path id="path15" class="cls-14" d="M739.54,1790.33c-3.19,10.44-.11,17.85,9.14,23.01,4.4,2.48,8.82,4.95,13.13,7.64,2.46,1.49,7.71,3.64,8.51,6.66-2.77.21-7.17.96-9.85,0-3.37-1.07-5.43-5.26-9.23-6.35-2.06,2.27,2.06,8.29,2.26,11.07-5.14-3.85-5.96-8.6-9.14-13.97-2.99-5.16-7.51-6.77-11.3-10.86-3.6-3.85-10.28-11.7-9.02-17.94,1.23-5.82,10.45-2.69,13.76-.33l1.74,1.07Z"/>
    <path id="path16" class="cls-14" d="M746.38,1791.89c2.17,4.09,5.16,7.52,6.08,12.26.83,4.3.2,8.81.71,13.1.83,5.47,2.99,13.22,6.79,16.96,1.14-3.43,5.05-4.39,7.3-6.75-6.05.09-12.04-7.85-10.28-14.18,1.63-6.12,12.84,5.47,14.18,9.13,3.31-2.8,5.14-4.53,2.28-8.18-2.99-3.64-6.5-6.24-10.3-8.81-6.37-4.51-9.05-11.17-16.46-13.22l-.31-.33Z"/>
    <path id="path17" class="cls-9" d="M618.61,1812.94c1.76-.12,3.19.86,4.65,1.82.92,2.92,4.4,4.09,6.99,5.07,2.57.96,4.82,1.82,6.99,3.64,3.17,2.8,5.34,7.1,9.34,8.71,4.53,1.82,8.44,1.17,12.64,3.97,1.65,1.07,1.34,1.4,3.31,1.19,2.26-.33,4-1.85,6.57-1.73,3.4.12,5.25,2.27,8.02,3.97,3.82,2.38,8.53,2.59,12.55.86,2.66-1.07,4-2.15,6.88-1.82,3.19.42,5.87,1.07,9.05.42,5.14-.86,10.28-.09,15.32-.75,8.42-1.19,16.55.86,23.43-4.72,2.28-1.85,4.33-2.8,7.21-2.92,3.8,0,4.4-.09,7.39-2.78,1.23-1.07,1.74-1.73,3.28-2.27,1.54-.42,3.19.33,4.42-.33,2.17-1.17,2.57-4.72,4.42-6.24,1.54-1.28,3.48-1.92,5.14-3.22,1.45-1.17,2.68-1.82,4.11-2.9l.11.12s2.66,42.02-36.81,77.92c-23.63,21.49-43.8,15.7-38.35,31.49,5.45,15.81,1.76,44.71-8.53,44.4-10.28-.33,2.06-53-7.59-57.29-9.56-4.3-65.29-22.47-70.42-96.3l-.12-.33Z"/>
    <path id="path18" class="cls-16" d="M651.8,1685.23c-.51,1.61.1,4.3.2,6.12,0,2.37.2,4.52.2,6.88,0,3.66.41,7.42,0,11.07-.82,7.21-3.99,14.4-5.83,21.28-1.83,6.67-3.77,13.34-6.75,19.56-1.94,4.3-3.57,8.82-4.6,13.44-.2,1.28-.51,2.36-.4,3.64,2.66-2.57,4.09-7.84,5.62-11.39,1.84-4.3,3.47-8.82,4.7-13.33,2.36-8.71,5.73-16.98,7.77-25.69,1.43-6.23,2.35-12.89,1.43-19.34-.61-4.3-.3-8.06-1.13-12.25-.61,0-1.22-.22-1.43.43l.21-.43Z"/>
    <path id="path19" class="cls-16" d="M743.99,1686.58c0,.44,0-1.19,0-.54,0,7.52-.11,14.95,1.23,22.17,1.54,8.39,2.06,17.31,5.23,25.27,2.57,6.35,5.34,12.59,7.19,19.15,1.14,3.97,2.37,12.05,5.65,14.74,4.09,3.32.4-5.16-.2-6.47-2.17-4.39-3.91-8.92-4.94-13.64-.92-3.99-1.74-7.76-2.97-11.63-1.14-3.34-3.08-6.24-4.22-9.58-2.66-7.73-3.17-17.22-4.2-25.27-.31-3.34-.51-6.68-.83-10-.2-1.73.11-4.09-1.23-5.16-.31.09-.2.3-.4.54l-.31.42Z"/>
    <path id="path20" class="cls-6" d="M652.69,1686.69c.1,2.04.7,4.3.9,6.34.4,2.46.3,4.84.1,7.4-.4,5.37,0,10.63-2.02,15.78,1.42-5.9,1.72-12.24,1.72-18.24,0-3.76-.9-7.52-.8-11.17l.1-.12Z"/>
    <path id="path21" class="cls-6" d="M649.79,1722.95c-.71,3.46-2.06,6.47-3.08,9.69-1.03,3.24-1.44,6.9-2.88,10.02-2.98,6.58-5.76,13.36-7.62,20.46,2.48-3.76,3.4-8.61,4.84-12.81,1.14-3.12,2.68-6.14,3.81-9.26,1.24-3.34,1.54-6.89,2.68-10.23.93-2.48,1.95-4.85,2.16-7.44l.1-.43Z"/>
    <path id="path22" class="cls-6" d="M644.61,1738.92c0-.56.47-1.03,1.03-1.03s1.03.47,1.03,1.03-.46,1.03-1.03,1.03c-.56,0-1.03-.46-1.03-1.03Z"/>
    <path id="path23" class="cls-6" d="M645.6,1736.21c0-.3.3-.56.67-.56s.67.26.67.56-.29.56-.67.56-.67-.25-.67-.56Z"/>
    <path id="path24" class="cls-6" d="M652.65,1695.94c0-.77.47-1.4,1.03-1.4s1.03.63,1.03,1.4-.46,1.4-1.03,1.4-1.03-.62-1.03-1.4Z"/>
    <path id="path25" class="cls-6" d="M652.92,1699.31c0-.09.2-.19.45-.19s.45.09.45.19c0,.11-.19.19-.45.19s-.45-.08-.45-.19Z"/>
    <path id="path26" class="cls-6" d="M745.57,1687.72c0,8.95,1.34,17.89,2.26,26.82.31,4.2,1.14,8.18,2.37,12.17.71,2.69,2.86,6.14,3.15,8.39-2.03-5.49-2.86-10.86-3.77-16.56-.6-4.41-2.06-8.74-2.66-13.03-.83-5.82,0-12.05-1.12-17.78,0,0-.22,0-.22,0Z"/>
    <path id="path27" class="cls-6" d="M756.11,1743.87c.11,4.41,2.48,9.79,4.02,13.97,1.03,3.01,2.26,6.03,3.57,9.02-2.97-6.96-4.09-15.14-7.17-21.58l-.42-1.4Z"/>
    <path id="path28" class="cls-6" d="M746.64,1709.96c0-.56.45-1.03.98-1.03s.98.47.98,1.03-.42,1.03-.98,1.03-.98-.44-.98-1.03Z"/>
    <path id="path29" class="cls-6" d="M746.2,1705.05c0-.28.18-.51.36-.51.2,0,.36.23.36.51,0,.3-.16.51-.36.51-.18,0-.36-.21-.36-.51Z"/>
    <path id="path30" class="cls-6" d="M760.05,1759.57c0-.56.4-1.03.89-1.03s.89.47.89,1.03-.38,1.03-.89,1.03c-.49,0-.89-.44-.89-1.03Z"/>
    <path id="path31" class="cls-6" d="M761.83,1762.65c0-.09.09-.19.18-.19.11,0,.18.09.18.19,0,.12-.07.19-.18.19-.09,0-.18-.07-.18-.19Z"/>
    <path id="path32" class="cls-19" d="M744.59,1719.49c.42,2.71,1.76,5.51,2.39,8.2.71,2.57,1.43,5.05,2.17,7.76,1.65,6.66,5.16,12.38,7.42,18.71-1.03-4.39-2.99-9.04-4.42-13.22-.94-2.48-1.76-4.95-2.68-7.43-1.76-4.11-3.51-8.2-4.65-12.5l-.22-1.52Z"/>
    <path id="path33" class="cls-19" d="M655.86,1712.76c.82,1.94-1.13,6.01-1.54,8.05-.61,3-1.33,6.01-2.16,9.02-.71,2.46-1.53,5.15-2.56,7.61-.51,1.18-1.24,2.36-1.85,3.54-.71,1.28-1.13,3.21-2.04,4.29,0,.11-.11.11-.11.11,2.88-4.82,3.91-10.62,4.93-16.08.61-3.33,1.75-6.54,2.88-9.76.71-1.93,2.04-4.61,2.26-6.54l.2-.22Z"/>
    <path id="path34" class="cls-8" d="M621.29,1801.24s12.97-36.28,54.61-44.57c0,0-3.7,22.94,10.07,22.4,0,0-35.16,1.61-64.68,22.17Z"/>
    <path id="path35" class="cls-18" d="M621.83,1800.68s12.13-29.86,42.44-39.43c0,0-19.01,8.06-42.44,39.43Z"/>
    <path id="path36" class="cls-6" d="M626.83,1792.92s11.87-17.53,24.03-24.85c0,0-18.51,15.93-24.03,24.85Z"/>
    <path id="path37" class="cls-8" d="M712.96,1777.79s31.88,2.92,66.2,25.13c0,0-22.71-23.52-66.2-25.13Z"/>
    <path id="path38" class="cls-6" d="M772.82,1798.53s-26.31-15.51-40.92-17.57c0,0,14.61.33,40.92,17.57Z"/>
    <path id="path39" class="cls-11" d="M651.53,1855.47s11.85-8.06,17.93,6.87c0,0-3.91-15.79-17.1-11.17-13.19,4.61-4.32,3.12-.83,4.3Z"/>
    <path id="path40" class="cls-11" d="M746.06,1853.44s-15.32,1.71-12.53,14.04c0,0-7.53-10.72,13.16-17.71,9.25-3.22-.63,3.67-.63,3.67Z"/>
    <path id="path41" class="cls-24" d="M662.64,1861.68c-.3.63-1.33.84-2.35.32-1.03-.42-1.74-1.27-1.43-1.9.2-.63,1.23-.75,2.35-.32,1.03.42,1.63,1.27,1.43,1.9Z"/>
    <path id="path42" class="cls-24" d="M743.16,1860.21c.09.54-.74,1.31-1.88,1.64-1.14.21-2.19,0-2.39-.54-.11-.56.74-1.31,1.88-1.64,1.14-.23,2.19,0,2.39.54Z"/>
    <path id="path43" class="cls-21" d="M686.82,1876.63c-.31,0-.42.33-.94.33.63,1.19,1.97,2.06,2.68,3.25.92,1.49,1.85,2.9,2.66,4.41,1.85,2.9,3.28,5.91,4.22,9.25.4,1.4.92,2.57,1.12,3.97.11.54-.09,3.55.94,2.71.4-.33.6-2.8.8-3.46.42-1.28.74-2.8,1.25-4.09.8-2.06,1.74-3.88,3.06-5.61,1.74-2.24,5.45-3.97,6.05-6.98-1.32-.86-4.71-.44-6.25-.54-2.35-.12-4.62-.44-7.08-.77-1.85-.21-3.48-.42-5.23-1.07-1.54-.63-2.57-1.28-4.22-1.28l.94-.12Z"/>
    <path id="path44" class="cls-21" d="M697.59,1875.79c1.25-.21,2.68.44,4,.56,1.25.09,2.26-.12,3.4-.33,1.94-.56,3.48-.98,5.12-1.99-1.01-1.42-6.14-.42-7.68-.21-1.54.33-3.48.77-4.82,1.54v.42h0Z"/>
    <path id="path45" class="cls-21" d="M639.43,1858.69c1.95,3.24,2.57,7.11,5.34,9.9,2.37,2.15,5.04,4.09,7.49,6.13,2.78,2.27,5.45,3.01,8.93,3.01,2.36.11,5.03-.85,7.18-.21-5.44-5.28-13.75-5.82-19.19-11.08-1.95-1.94-3.91-3.98-5.85-5.7-.93-.86-2.37-1.94-3.6-1.73l-.31-.33Z"/>
    <path id="path46" class="cls-21" d="M657.21,1882.59c1.64.64,3.91.33,5.55.21,1.94-.11,3.9-.21,5.84-.32,3.8-.11,6.78-1.09,10.06,1.4,1.74,1.4,2.97,3.34,4.61,5.07,1.54,1.51,3.18,2.91,4.31,4.85,1.85,3.01,4.82,6.47,5.54,10.02-3.69-3.01-5.84-7.86-9.34-11.21-3.59-3.34-7.59-5.71-11.91-7.76-4.61-2.16-9.64-1.62-14.56-1.62l-.11-.64Z"/>
    <path id="path47" class="cls-21" d="M683.38,1863.9c.74.21,2.68,1.38,3.91,1.68,1.25.23,2.37-.09,3.6-.21,2.68,0,5.45-.09,8.13-.09,5.14,0,10.07,2.1,14.39-1.8-2.66,1.26-6.57.54-9.45.33-2.37-.23-4.31-1.17-6.59-1.59-2.66-.44-5.34.09-8.11.3-1.54.12-3.8,1.05-5.36.42l-.51.96Z"/>
    <path id="path48" class="cls-21" d="M703.22,1859.44c3.51.75,8.11-6.45,11.1-8.27,2.26-1.28,4.71-1.17,7.08-2.15,1.54-.54,4.2-2.48,5.85-1.94,2.46.77,3.57,4.62.8,5.61-2.86,1.07-5.63,1.49-8.4,3.11-4.22,2.48-8.22,3.97-13.04,3.76-1.12,0-2.14-.44-3.4-.44v.33h0Z"/>
    <path id="path49" class="cls-21" d="M668.55,1871.74c1.34-.43,2.38-.54,3.31-1.93.51-.86.51-2.25,1.64-2.58,2.48-.97,4.43,4.51,5.26,6.12,1.44,3.22,3.29,5.69,5.46,8.37,1.34,1.72,3.19,3.33,3.81,5.47-1.74-1.06-2.88-3.21-4.32-4.61-2.07-1.82-4.12-3.54-6.29-5.15-1.75-1.39-3.51-2.46-5.46-3.43-.93-.43-3.09-1.28-3.41-2.03,0,0,0-.22,0-.22Z"/>
    <path id="path50" class="cls-21" d="M729.22,1865.33c-1.34,2.03-2.37,4.09-4.02,5.91-1.34,1.4-2.68,2.8-4.02,4.18-2.57,2.59-6.05,3.88-8.64,6.35-2.37,2.48-4,5.7-6.08,8.39-1.74,2.27-2.97,4.41-3.8,7.19-.2.54-.42.98-.42,1.61,1.76-.84,2.9-3.85,4.22-5.37,1.65-1.82,3.51-3.55,5.47-4.93,4.11-2.8,7.3-6.89,11.32-9.69,2.97-1.94,6.17-3.64,9.36-5.26,1.34-.75,5.56-1.73,6.17-3.01-.92-.65-2.57.42-3.91,0-1.43-.54-2.14-1.94-2.77-3.22-.31-.98-.71-2.69-1.54-3.13-.71-.33-2.06,0-1.65.98h.31Z"/>
    <path id="path51" class="cls-21" d="M740.08,1875.79c-2.68,2.17-5.96,3.34-8.93,5.07-2.48,1.61-5.45,2.48-7.82,4.18,1.97-.21,4.42-1.38,6.37-2.15,1.65-.63,3.31-.75,5.05-1.49,1.43-.54,7.17-2.9,6.97-4.84-.51-.23-.92-.54-1.43-.65l-.2-.12Z"/>
    <path id="path52" class="cls-21" d="M737.06,1884.62c-.71-.33-4.74,2.27-5.96,2.71-1.85.63-3.71,1.4-5.54,1.73-2.88.63-5.99.96-8.56,2.15-2.88,1.28-5.14,4.09-7.08,6.47-1.56,2.03-5.16,3.67-5.99,6.03,1.34.21,2.88-1.4,3.91-2.15,1.76-1.19,3.31-1.94,5.36-2.15,5.14-.54,9.87.21,14.41-2.92,2.88-2.06,5.23-5.07,7.51-7.76,1.03-.98,2.14-2.71,1.94-4.11Z"/>
    <path id="path53" class="cls-21" d="M663.11,1845.34c1.54.65,3.31,3.01,4.62,4.18,1.45,1.28,3.19,2.15,4.94,2.99,3.69,1.94,7.08,3.97,11.19,5.05,3.6,1.05,8.82.21,12.22-.86,3.28-1.07,10.28-2.66,11.79-6.42-1.52-.63-4-.54-5.74-.54-2.88,0-5.65,1.49-8.51,1.28-5.65-.63-10.79-3.11-16.53-2.45-2.68.21-5.85-1.71-8.53-2.24-1.54-.33-3.8.09-4.94-.98h-.51Z"/>
    <path id="path54" class="cls-10" d="M689.55,1879.34c1.55,1.94,3.1,3.45,4.03,5.91.61,1.61,1.34,6.34,2.88,6.98.11-3,1.75-9.13-1.64-10.85-.94-.54-1.97-.43-2.79-.75-.93-.43-1.54-1.18-2.48-1.3Z"/>
    <path id="path55" class="cls-10" d="M700.36,1875.85c1.84,0,4.49.22,5.81-1.11-1.42-.44-4.48-.11-5.81.56v.55Z"/>
    <path id="path56" class="cls-10" d="M707.96,1858.13c.42-.63,1.14-.75,1.76-1.28.71-.54,1.34-1.4,1.94-2.15,1.05-1.19,2.37-3.13,3.82-3.67,1.65-.54,3.6,0,5.36-.33,1.43-.21,2.57-1.31,4-1.64-1.43,1.64-2.97,2.06-4.94,2.71-2.26.65-3.6,1.94-5.45,3.25-1.65,1.07-3.91,2.8-5.87,2.69l-.63.42Z"/>
    <path id="path57" class="cls-10" d="M643.25,1862.07c1.95.11,3.6,3,4.93,4.3,1.33,1.49,2.77,2.57,4.4,3.43,2.16,1.18,4.41,2.03,6.67,2.9,1.23.54,3.59,1.07,4.4,2.25-2.04.75-4.5-.85-6.46-1.61-2.26-.75-4.81-1.18-6.97-2.25-3.69-1.61-4.61-7.19-7.48-9.78l.51.76Z"/>
    <path id="path58" class="cls-10" d="M672.71,1870.51c-.31-3.13,1.87-2.7,3.32-.97,1.87,2.15,3.32,5.82,4.14,8.4-1.03-1.94-2.79-4.62-4.34-6.13-.94-.97-1.98-.97-3-1.4l-.11.11Z"/>
    <path id="path59" class="cls-10" d="M673.06,1883.43c1.56-.44,3.95.43,5.31,1.52,1.35,1.1,3.64,2.84,4.57,4.58-2.08-.11-4.36-2.39-5.92-3.6-1.45-1.19-2.8-1.64-4.27-2.62l.31.12Z"/>
    <path id="path60" class="cls-10" d="M729.62,1868.15c-.09-.77-.6.54-.92.84-.6.86-1.23,1.73-1.83,2.59-1.03,1.28-2.06,2.36-3.28,3.53-2.06,1.82-4.09,3.01-6.46,4.51-1.83,1.07-3.69,2.69-5,4.41-1.43,1.82-4,4.93-4.62,7.17,2.97-1.92,4.42-5.68,7.17-7.71,2.97-2.27,6.14-4.3,9.11-6.56,1.43-1.17,9-7.29,5.94-8.78h-.11Z"/>
    <path id="path61" class="cls-10" d="M739.5,1877.19c-1.03.12-3.08,1.71-4.22,2.24-1.43.65-3.19,1.17-4.53,2.03,2.28.3,4.42-1.71,6.39-2.57.63-.3,2.46-.75,2.37-1.59v-.12h0Z"/>
    <path id="path62" class="cls-10" d="M733.51,1888.15c-1.12-.77-4.69,1.49-5.92,1.71-2.37.54-4.62.63-6.86,1.49-2.57.96-6.86,3.43-8.31,5.89,2.26.42,4.62-2.15,6.57-2.9,2.55-1.05,4.91-2.34,7.46-3.41,2.37-.98,5.12-.98,7.06-2.57v-.21h0Z"/>
    <path id="path63" class="cls-10" d="M668.82,1849.33c1.75-.44,5.46,2.94,7.11,3.7,2.57,1.2,4.95,2.29,7.73,2.72,5.35.98,10.91-1.52,16.16-2.29-6.89-.21-14.52.33-21.52-.86-3.29-.55-5.87-1.86-8.66-3.71l-.83.44Z"/>
    <path id="path64" class="cls-21" d="M653.46,1839.9c-1.85.22-5.46-2.25-7.62-2.9-3.09-.97-6.9-1.62-9.79-3.24-3.19-1.94-3.51-.64-6.29-3.22-2.78-2.59-4.95-2.7-7.21-6.04,2.68,4.2,4.85,6.46,5.87,8.19,1.04,1.72,1.75,2.37,2.38,4.41.71,2.04.1,3.55,1.85,4.41,2.98,1.39,8.14.21,11.22-.33,3.41-.54,6.29,0,9.58,0v-1.3Z"/>
    <path id="path65" class="cls-21" d="M660.78,1848.71c-1.64-1.4-2.56-3.45-4.61-4.2-2.36-.76-4.93.33-7.18.86-3.18.76-5.95,1.83-9.34,1.61-2.97-.21-5.64-.97-8.62-1.51,5.95,3.88,9.96,8.08,17.24,6.26,2.36-.65,4.2-2.16,6.35-2.8,1.85-.43,3.8-.43,5.75-.43l.4.21Z"/>
    <path id="path66" class="cls-21" d="M772.73,1835.06c-.71-.21-2.57,2.15-3.6,2.8-1.94,1.28-4.22,2.15-6.37,3.01-3.19,1.28-6.39,2.45-8.35,5.7-1.74,2.78-1.32,5.79-1.54,9.02-.2,2.9-1.85,5.91-1.43,8.81,5.96-2.03,10.39-9.23,13.78-14.51,2.68-4.41,5.96-10.32,6.48-15.49l1.03.65Z"/>
    <path id="path67" class="cls-10" d="M767.73,1839.83c-3.19,2.83-7.84,3.04-10.92,6.26-3.73,3.88-2.37,9.27-3.73,14.02,2.39-4.95,2.7-9.69,6.61-13.8,2.17-2.36,4.53-4.51,7.24-6.24l.8-.23Z"/>
    <path id="path68" class="cls-10" d="M627.19,1828.8c.93,2.24,5.55,5.01,7.51,6.6,1.33,1.17,2.57,2.02,4.21,2.56,1.23.42,3.18.53,4.1,1.59-2.67-1.59-6.57-1.9-9.24-3.94-1.95-1.38-3.9-3.5-5.65-5l-.93-1.81Z"/>
    <path id="path69" class="cls-21" d="M663.41,1855.61c-4.42-2.15-13.79-1.28-10.8,6.01,1.03,2.25,1.95,2.67,2.98.85.82-1.72.51-3.11,2.47-3.97,1.54-.75,2.98,0,4.52-.54,1.13-.32,2.67-2.03.41-2.36h.41Z"/>
    <path id="path70" class="cls-21" d="M737.62,1859.84c1.94-1.82,5.23-1.28,6.54.75.71,1.17,1.03,3.53,2.77,2.15.83-.65,1.32-3.55,1.23-4.62-.2-3.43-3.89-2.99-6.46-2.45-.92.21-7.57,2.78-4.69,3.97l.6.21Z"/>
    <path id="path71" class="cls-13" d="M693.93,1824.43c-.41-2.36-3.69,1.82-4.2,2.36-1.34,1.6-2.16,2.99-3.7,4.27-1.64,1.39-3.28,2.46-4.82,3.85-1.43,1.39-2.16,3.11-3.18,4.81,1.03-1.49,3.4-2.78,4.82-3.96,1.64-1.17,3.48-1.93,4.82-3.74,1.23-1.72,4.2-7.71,6.97-6.53-.2-.43-.5-.75-.71-1.07Z"/>
    <path id="path72" class="cls-13" d="M670.07,1818.8c-3.6,1.09-6.78,3.89-9.05,7.02-1.23,1.62-5.25,8.42-2.26,9.71-.83-2.04.2-3.77,1.23-5.61.83-1.73,1.54-3.89,2.98-5.17,1.75-1.62,4.62-4.86,6.79-5.62l.3-.33Z"/>
    <path id="path73" class="cls-13" d="M690.44,1802.08c-1.42,2.06-2.45,4.64-4.28,6.35-1.94,1.83-3.98,3.22-5.51,5.38-1.13,1.82-2.36,3.66-3.07,5.7-.7,1.61-.7,3.76-1.53,5.27,1.84-4.3,4.19-9.58,7.35-13.01,1.43-1.51,3.26-2.48,4.39-4.31.92-1.4,1.23-3.12,1.94-4.52l.7-.86Z"/>
    <path id="path74" class="cls-13" d="M714.12,1791.8c-.49,1.52-.6,3.01-1.01,4.51-.42,1.61-.94,3.11-1.03,4.84-.11,2.24-.31,4.18-.83,6.33-.4,1.82-1.34,4.18-1.23,6.1,2.26-3.95,2.06-8.57,2.46-12.75.31-2.9,1.34-5.58,1.34-8.48l.29-.54Z"/>
    <path id="path75" class="cls-13" d="M728.73,1821.98c-.6,2.03-1.03,4.51-.51,6.63.6,2.69,1.23,5.98,2.52,8.22-1.21-2.45-1.41-6.07-1.81-8.76-.2-1.71-.51-3.32-.51-5.02l.31-1.07Z"/>
    <path id="path76" class="cls-13" d="M726.2,1801.14c-.63,1.31-.31,3.01-.42,4.41,0,1.61-.31,2.99,0,4.6.51,2.48,2.37,5.58,4.51,6.96-2.14-1.28-3.89-5.35-4.2-7.71-.2-1.4,0-2.78-.11-4.06,0-1.19-.09-2.36-.09-3.55l.31-.65Z"/>
    <path id="path77" class="cls-13" d="M738.71,1795.26c0,2.59-.11,6.05,1.12,8.32,1.43,2.69,4.49,4.3,5.92,6.45-2.43-2.57-4.18-6.03-5.61-9.25-.83-1.85-.71-3.67-1.23-5.4l-.2-.12Z"/>
    <path id="path78" class="cls-13" d="M758.55,1812.17c-1.32.56-1.54,3.88-1.32,5.19.2.96.6,1.07,1.52,1.61,1.12.42,2.14,1.28,3.26,1.71-1.12-1.38-2.86-2.36-3.57-4.18-.29-1.07-.4-2.8-.4-3.76l.51-.56Z"/>
    <path id="path79" class="cls-13" d="M751.96,1822.4c-.2-.12-.42-.23-.71-.12-.22,1.82,1.12,4.37,1.83,5.86,0-1.59-.6-4.16-1.23-5.65l.11-.09Z"/>
    <path id="path80" class="cls-13" d="M642.05,1821.98c.73-3.12,2.79-6.98,4.66-9.46,1.13-1.61,2.79-3.01,4.33-4.19,2.18-1.83,4.66-3.76,7.24-4.85-3.62,3.13-7.24,6.03-10.86,8.93-2.79,2.15-4.86,5.59-5.58,9.14l.21.42Z"/>
    <path id="path81" class="cls-7" d="M649.15,1797.36c-.52.74-1.66,1.59-2.5,2.13-.83.53-1.76.63-2.6,1.17-.73.53-1.45,1.38-2.29,1.8,1.05-.84,1.88-2.34,3.34-3.18,1.35-.85,2.7-1.92,4.26-2.24l-.2.33Z"/>
    <path id="path82" class="cls-23" d="M643.9,1829.3c.63-4.41,3.21-9.58,6.31-12.7,1.65-1.62,3.41-3.01,5.37-4.2,2.07-1.4,4.55-2.91,6.81-3.88-3.19,1.94-7.13,4.31-9.61,7.11-1.97,2.15-2.48,5.38-3.51,8.18-.31.76-4.14,8.07-5.17,6.03l-.21-.54Z"/>
    <path id="path83" class="cls-23" d="M652.65,1833.02c1.24-1.19,2.37-3.13,3.29-4.64.92-1.51,2.06-3.34,2.67-5.07,1.23-3.67,2.46-7.11,5.74-9.27-2.26,2.06-3.28,5.83-4.51,8.74-.93,2.37-1.95,4.85-3.08,7.22-.41.97-2.77,5.82-4.11,3.02Z"/>
    <path id="path84" class="cls-23" d="M628.17,1818.27c.63-.33,1.14-.96,1.76-1.39.73-.64,1.55-.85,2.48-1.28,1.24-.74,2.38-1.27,3.93-1.27,3.52-.11,1.24,4.16,1.65,6.07,1.55-.11,3.41-4.91,3.93-6.18.61-1.39,1.14-2.78,1.75-4.05.31-.75.93-1.6.83-2.45-1.14-.12-3.1,1.17-4.13,1.81-1.87,1.17-3.72,2.66-5.8,3.52-1.34.54-2.68.75-3.92,1.82-.83.63-1.55,1.92-1.97,2.66l-.52.75Z"/>
    <path id="path85" class="cls-23" d="M672.14,1820.1c-.51,1.93-1.22,3.64-1.73,5.58-.41,1.06-1.23,2.67-1.12,3.85.92.11,1.73-1.61,2.33-2.14.82-.76,1.33-1.07,1.84-2.15.6-1.61,1.52-4.61,1.02-6.33-1.23-.12-2.45,1.39-3.06,2.25l.71-1.07Z"/>
    <path id="path86" class="cls-23" d="M666.06,1835.05c1.55-1.18,3.4-1.61,5.35-1.07,1.34.43,2.78,2.36,4.11,2.46,1.44.21,3.4-3.42,4.74-4.29,2.57-1.82,5.44-3.75,7.39-6.2,1.34-1.72,1.64-3.22-.93-3-2.87.21-5.65,2.67-8.12,4.06-2.67,1.39-5.34,2.67-7.81,4.39-1.34.86-3.08,1.72-3.81,3.21l-.93.43Z"/>
    <path id="path87" class="cls-23" d="M699.04,1836.44c0-4.22.1-9.83-2.59-13.29-.83-1.18-2.48-1.61-3.19-2.91-.94-1.85-.11-6.15.93-7.78,1.65-2.81,4.33-.76,5.68,1.3,1.75,2.59,1.65,6.69,2.48,9.72.61,2.7,1.24,5.51,1.85,8.21.41,1.73,1.14,3.67,1.34,5.4-1.95.11-4.13.97-6.09.43-.11-.64-.52-1.18-.52-1.83l.11.76Z"/>
    <path id="path88" class="cls-23" d="M738.74,1833.29c.2-1.94-1.43-4.95-2.46-6.35-.83-1.19-2.17-1.94-3.31-2.9-1.12-.86-1.94-1.82-2.88-3.01-1.12-1.4-1.32-1.94-2.46-.33-1.34,1.73-2.48,3.88-2.68,6.14-.31,2.24.83,4.3,1.25,6.45.4,2.24-1.05,2.24-2.99,2.9-1.74.54-3.48,1.49-3.91-.96-.6-3.78-.6-7.64-1.34-11.52-.6-3.11-1.34-6.45-.83-9.79.22-1.4,1.25-6.89,3.1-6.45,1.43.33,2.14,4.62,3.17,5.91,1.34,1.73,3.6,2.59,5.25,3.76,1.85,1.28,2.68,3.34,4.31,4.74,1.76,1.49,3.6,2.9,4.85,4.95,1.32,2.15.09,4.39.92,6.45Z"/>
    <path id="path89" class="cls-23" d="M751.54,1829.08c-1.03-2.15-1.85-4.62-1.54-6.98.31-1.73,1.94-3.04,3.26-1.73-.49-.65-.4-1.4-.71-2.15-.4-1.1-.8-.98-1.92-1.52-1.43-.75-5.23-3.78-4.8-.54.2,2.36,1.23,5.61,2.14,7.76.71,1.82,2.03,3.13,3.06,4.62l.51.54Z"/>
    <path id="path90" class="cls-23" d="M758.44,1825.6c.11.21.2.33.31.42-1.72-1.38-1.92-4.81-2.43-6.84-.4-1.82-.71-3.64-.51-5.58.31-2.57,4.15-3.85,2.03-6.63-2.75-3.76-3.75,6.54-3.75,7.92-.11,3.64.8,7.19,2.32,10.39.31.75.63,1.61,1.34,2.03.2-.21.6-.3.69-.42v-1.28Z"/>
    <path id="path91" class="cls-23" d="M762.64,1807.62c-.2-.12-1.34,1.07-1.34,1.82,0,1.28,1.65,2.24,2.48,2.99,1.12.96,2.37,1.71,3.48,2.55.71.54,1.94,2.24,2.97,1.82,2.77-.96-2.26-5.56-3.08-6.4-1.32-1.28-3.17-1.71-4.51-2.9v.12h0Z"/>
    <path id="path92" class="cls-23" d="M758.17,1820.63c0,1.71.11,2.78,1.97,3.53.71.33,2.88,1.28,3.4.23.4-.12.51-.23.8-.65-1.74-1.61-4.11-2.36-5.94-3.34l-.22.23Z"/>
    <path id="path93" class="cls-5" d="M637.13,1813.03c1.13.64,1.84,1.4,2.26,2.59.4-1.73-.83-2.71-2.37-2.59h.11Z"/>
    <path id="path94" class="cls-5" d="M650.06,1817.59c-2.13,3.11-4.98,5.35-5.09,9.72,1.23-2.87,1.94-7.68,4.59-9.28l.5-.43Z"/>
    <path id="path95" class="cls-5" d="M669.71,1832.54c3.09-.75,7-2.66,9.47-4.48-1.33.97-2.98,2.03-4.42,2.88-1.44.75-2.98.54-4.12.97l-.93.63Z"/>
    <path id="path96" class="cls-5" d="M699.74,1819.64c1.94,1.07,2.97,5.89,3.47,7.92.41,1.92.82,4.17.71,6.19-1.12-1.6-1.12-5.02-1.73-6.94-.61-2.14-.71-4.92-1.43-6.84l-1.03-.33Z"/>
    <path id="path97" class="cls-4" d="M717.78,1815.63c.34,3.01.98,6.12,1.3,9.11.34,2.27,0,5.14,1.3,6.96-.74-2.57-.74-5.68-1.07-8.34-.22-2.27-.76-4.3-1.07-6.42l-.45-1.31Z"/>
    <path id="path98" class="cls-4" d="M747.58,1817.22c-.22,1.75.29,4.11,1.3,5.51-.29-1.4-.6-3.22-1.09-4.65l-.2-.86Z"/>
    <path id="path99" class="cls-4" d="M756.2,1809.27c-2.12.77-2.23,8.92-1.21,10.74,0-2.45-.8-7.29.71-9.23l.49-1.52Z"/>
    <path id="path100" class="cls-25" d="M621.47,1813.76c.63.23,1.14.65,1.65.98.94,2.9,4.42,4.09,6.99,5.05,2.57.98,4.85,1.85,6.99,3.67,3.19,2.8,5.36,7.1,9.38,8.71,4.51,1.82,8.42,1.19,12.64,3.99,1.65,1.07,1.34,1.38,3.28,1.17,2.28-.33,4.02-1.82,6.59-1.73,3.4.12,5.25,2.27,8.02,3.99,3.82,2.36,8.53,2.57,12.55.86,2.68-1.07,4.02-2.15,6.9-1.85,3.17.44,5.85,1.1,9.05.44,5.14-.86,10.28-.12,15.32-.75,8.44-1.19,16.57.84,23.45-4.74,2.26-1.82,4.31-2.8,7.19-2.9,3.82,0,4.42-.12,7.42-2.8,1.23-1.07,1.74-1.73,3.28-2.27,1.54-.42,3.19.33,4.42-.33,2.17-1.17,2.59-4.72,4.42-6.24,1.54-1.28,3.51-1.94,5.16-3.22.09-.12.2-.21.29-.21"/>
    <g class="cls-37">
      <path id="path101" class="cls-25" d="M614.77,1817.03s9.56-64.65,84.16-64.65c60.64,0,79.25,41.65,84.16,57.25"/>
    </g>
    <g class="cls-33">
      <path id="path102" class="cls-25" d="M740.88,1684.73s-1.65,30.11,8.62,53.89c6.17,14.41,9.76,26.98,11.7,35.9"/>
    </g>
    <g class="cls-36">
      <path id="path103" class="cls-25" d="M772.38,1787.5c-1.83-11.17-6.05-32.35-13.78-48.38-6.28-12.89-7.93-54.4-7.93-54.4"/>
    </g>
    <g class="cls-35">
      <path id="path104" class="cls-26" d="M658.62,1684.73s1.54,30.11-8.67,53.86c-6.2,14.09-9.71,26.44-11.77,35.36"/>
    </g>
    <g class="cls-32">
      <path id="path105" class="cls-26" d="M627.01,1787.13c1.85-11.29,6.05-32.15,13.74-47.97,6.25-12.9,7.89-54.43,7.89-54.43"/>
    </g>
    <path id="path106" class="cls-17" d="M659.27,1861.03c0-.46.58-.84,1.3-.84s1.3.39,1.3.84-.57.84-1.3.84-1.3-.37-1.3-.84Z"/>
    <path id="path107" class="cls-17" d="M739.76,1860.98c0-.37.51-.7,1.12-.7s1.12.33,1.12.7c0,.4-.49.7-1.12.7s-1.12-.3-1.12-.7Z"/>
    <path id="path108" class="cls-6" d="M658.65,1859.63s-1.15,1.57,1.78,2.8c0,0-3.66-.93-1.78-2.8Z"/>
    <path id="path109" class="cls-6" d="M739.43,1859.82s-2.43,2.01.69,2.52c0,0-3.84-.21-.69-2.52Z"/>
    <path id="path110" class="cls-3" d="M680.49,1788.5c-1.24.65-1.85,5.52-2.88,7.14-1.23,1.85-3.5,2.81-4.32,4.87,1.75,2.7,7.62,2.7,10.5,2.27,1.54-.21,3.08-1.07,4.41-1.94,1.04-.65,2.47-2.49,3.81-1.85,1.44.76.83,3.35,2.78,3.57,1.84.33,2.36-2.38,2.16-3.78-.31-1.83-1.13-3.57-1.23-5.41-.21-1.52.2-3.46-1.14-4.22-1.54-.86-5.34-.21-7.19-.65-2.47-.43-4.84-.21-7.3,0h.41Z"/>
    <path id="path111" class="cls-3" d="M703.93,1787.88c2.59,1.31,1.97,5.84,2.08,8.32.09,1.49.09,2.8,1.43,3.46,1.65.84,2.68-.12,3.08-1.73.51-1.85,2.26-6.26.94-7.87-1.54-2.06-4.94-1.19-7.01-1.94l-.51-.23Z"/>
    <path id="path112" class="cls-3" d="M719.86,1790.63c2.17,2.99-1.54,7.17.42,9.53,3.37,4.16,3.06-4.72,5.83-4.3,1.34.23,2.86,3.43,3.8,4.39,1.23,1.19,3.06,2.15,4.8,2.03,3.89-.42,3.17-6.73,3.08-9.83-.11-3.55-5.74-3.22-8.4-3.11-2.66.09-7.08.33-9.34,1.71l-.2-.42Z"/>
    <path id="path113" class="cls-3" d="M670.07,1787.88c-4.11,1.3-7.92,3.55-12.13,4.52-1.95.54-3.81.42-4.84,2.36-.61,1.07-.71,2.25-1.34,3.22-.51.85-1.13,1.49-1.44,2.46,3.51,1.82,7.82-2.04,10.19-4.18,2.47-2.25,6.06-6.66,9.05-7.63l.51-.76Z"/>
    <path id="path114" class="cls-3" d="M751.91,1799.28c.51,1.1.63,2.41,1.14,3.27,1.01,1.85,1.01.54,2.75.44,2.23-.23,4.38,1.31,6.3,2.27-.4-1.28-3.04-4.11-4.27-4.77-1.23-.65-4.49-1.1-5.7-.98l-.22-.23Z"/>
    <path id="path115" class="cls-20" d="M739.63,1791.61c-.31,2.5,1.05,6.05,2.39,7.87,1.23,1.85,3.08,2.27,5.05,2.92,1.54.54,2.68,1.17,3.31-.44,1.63-3.97-1.65-3.97-4.24-5.37-2.48-1.31-4.53-3.04-6.59-4.65l.09-.33Z"/>
    <path id="path116" class="cls-20" d="M718.39,1790.66c-.2,2.06.2,4.41-.2,6.56-.31,1.73-2.59,3.64-4.45,1.82-1.14-1.07-.09-4.84.42-6.24.71-2.15,1.65-2.69,3.82-1.92l.4-.23Z"/>
    <path id="path117" class="cls-20" d="M696.91,1788.99c1.22.64,2.95-.55,4.37,0,1.13.33,1.83,2.59,2.14,4.11.6,2.81.4,7.58-3.46,6.94-.82-3.14-1.53-7.58-3.26-10.29l.21-.76Z"/>
    <path id="path118" class="cls-20" d="M678.91,1788.32c.1,3-5.76,8.99-8.43,8.68-2.78-.21-2.99-1.82-1.65-3.75,1.44-1.93,2.58-3.53,3.91-5.45,1.44-.76,4.43.32,5.76.85l.41-.33Z"/>
    <path id="path119" class="cls-20" d="M649.96,1795.47c-.51-.12-1.33.42-1.84.64-.82.43-1.64.64-2.36,1.07-.51.32-.82.64-1.13.97-.3.21-.61.42-.82.64-.61.42-1.03.96-1.43,1.49-.21.12-.73.65-.73.86,0,.33.73.43,1.03.54.93.32,2.36.85,3.28,0,.3-.21.61-.75.92-1.07.31-.33.61-.86.93-1.18.51-.76.92-1.4,1.33-2.15.3-.43.92-1.07.92-1.61-.1,0-.1-.11-.1-.11v-.11Z"/>
    <path id="path120" class="cls-15" d="M621,1815.16c2.16.54,3.5,3.12,4.93,4.3,2.37,1.72,4.94,2.15,7.61,3.11,4.41,1.72,8.01,6.97,11.7,9.87-2.26.11-6.05-.96-8.21-1.72-2.57-.96-4.62,1.61-6.58-.32-1.64-1.61-11.3-6.01-9.45-14.91,0,0,0-.33,0-.33Z"/>
    <path id="path121" class="cls-15" d="M664.27,1847.77c-2.06-1.18-2.67-5.17-3.48-7.33-.63-1.95-2.17-3.78-4.01-4.87-1.85-1.18-4.21-.86-6.38-1.07-2.16-.22-4.31-.76-6.47-1.09-1.44-.21-2.88-.64-4.32-.86,2.57,1.19,5.25,1.62,7.92,2.49,2.16.65,4.11,1.83,6.17,2.7,4.31,2.06,6.37,7.57,10.17,10.04h.4Z"/>
    <path id="path122" class="cls-15" d="M660.52,1837.98c2.57.21,6.39-2.06,9.25-1.61,1.45.33,3.6,1.82,4.94,2.48,1.63.86,3.17,2.57,5.03,3.11,3.71.98,10.59-1.17,14.18-2.48,4.62-1.49,3.37.65,8.2.65,5.25,0,3.71-.54,8.73-.86,5.54-.33,19.32-.12,24.75-1.19,4.42-.84,8.93-4.72,13.04-6.03,1.65-.54,2.97-.09,4.62-.42,1.65-.21,2.97-.75,4.2-1.52-.6,1.94-2.46,4.53-3.06,6.47-.74,2.15-1.85,3.43-4.11,4.3-4.02,1.52-8.02,2.38-11.93,4.2-1.63.75-4,3.01-5.54,3.13-2.46.09-3.17-2.59-4.94-3.78-1.74-1.17-2.86.12-4.82.44-2.14.21-4.62.3-6.77.96-2.06.65-4.42,2.59-6.37,3.34-2.17.65-4-.33-6.28-.21-4.71.33-5.43,1.71-10.25,1.17-4.62-.42-12.33-2.36-17.07-2.57-3.69-.12-9.65-2.38-12.62-2.92-1.03-.21-2.37-3.76-2.57-5.16l-.63-1.49Z"/>
    <path id="path123" class="cls-15" d="M683.69,1860.28c1.23.75,2.57.54,3.91.43,1.54-.11,2.98-.43,4.42-.75,2.87-.43,5.85-.43,8.63-1.49,1.23-.54,2.26-1.06,3.18-2.14.73-.85,1.34-2.14,2.16-2.78-1.84,1.39-3.28,3.32-5.75,3.85-2.16.42-4.32.11-6.48.75-2.06.53-4.32,1.27-6.48,1.6-1.23.11-2.37.64-3.6.64h-.21l.21-.12Z"/>
    <path id="path124" class="cls-15" d="M775.85,1816.94c-2.14,1.4-4.4,2.8-5.94,5.05-1.34,1.82-1.74,4.06-4.11,4.72-1.14.3-2.57,0-3.69.42-.94.42-1.97,1.71-2.57,2.57-1.54,2.15-1.97,5.05-3.28,7.38-.51.86-1.54,1.73-1.76,2.57,1.03,0,2.37-1.17,3.51-1.49.92-.3,1.94-.42,2.97-.3,3.19.09,5.96-.54,8.02-3.22,2.03-2.69,3.17-5.35,3.89-8.57.51-2.24,1.45-4.27,2.17-6.42.29-.75.71-1.49.6-2.45l.2-.23Z"/>
    <path id="path125" class="cls-15" d="M739.94,1847.96c-1.54.98-3.17,1.1-4.71,2.38-1.43,1.17-2.77,2.69-4.11,3.97-1.54,1.31-3.48,1.31-4.94,2.48-1.85,1.4-3.48,3.22-5.03,4.95-1.97,2.15-4.53,3.46-6.59,5.37,2.99-1.71,5.56-3.43,8.13-5.7,1.03-.96,1.94-1.82,2.97-2.78,1.03-1.19,2.26-1.52,3.6-2.06,4.31-1.73,7.08-5.16,10.39-8.18l.29-.44Z"/>
    <path id="path126" class="cls-15" d="M666.15,1854.7c3.18,0,6.67,1.71,9.12,3.84,3.07,2.88,5.43,7.47,9.01,9.28-3.69.21-7.07-5.02-9.43-7.37-1.74-1.49-3.37-2.24-5.33-3.2-1.03-.54-2.97-1.49-3.17-2.67l-.21.12Z"/>
    <path id="path127" class="cls-15" d="M645.06,1836.56c.41.43,1.34.55,1.84.76.61.22,1.23.54,1.84.76,1.13.54,2.16,1.18,3.28,1.83.92.43,1.83.97,2.86,1.28.71.33,1.53.55,2.14.97-.5-.32-1.02-.85-1.43-1.18-.61-.43-1.13-.86-1.63-1.19-1.13-.54-2.06-1.18-3.28-1.61-1.73-.64-3.67-1.3-5.52-1.4l-.11-.22Z"/>
    <path id="path128" class="cls-15" d="M699.56,1860.45c3.19-.72,6.57-.3,9.85-.63,2.14-.33,4.2-.84,6.25-1.38,1.43-.33,2.77-1.17,4.09-1.61-1.94,1.49-4.2,2.57-6.46,3.32-1.83.63-3.57,1.26-5.52,1.17-1.65-.12-3.19-.42-4.74-.63-1.01-.23-1.94-.12-2.97-.23h-.51Z"/>
    <path id="path129" class="cls-10" d="M734.34,1861.22c-.74,1.28-.74,2.99-.63,4.48,0,1.49.63,2.57,1.88,3.43,1.34.96,2.99,1.05,4.65.75,1.97-.44,3.42-1.94,5.07-3.11-.71,1.28-3.51,1.4-4.85,1.61-1.05.3-3.02,1.05-4.04.75-1.25-.54-2.28-2.57-2.5-3.74-.09-.96-.09-2.99.31-3.85l.11-.33Z"/>
    <path id="path130" class="cls-10" d="M667.4,1858.97c2.27,2.57,2.67,8.23-1.33,9.31-3.61.96-6.99-.64-9.67-3.21,3.5,1.93,6.48,4.27,10.39,1.93,1.44-.96,1.64-2.24,1.54-3.96-.1-1.17-.2-2.56-.93-3.63v-.43Z"/>
    <path id="path131" class="cls-13" d="M661.44,1838.72c2.46.21,5.01-2.07,7.47-1.52,1.33.21,2.76,1.4,3.89,2.16,1.23.76,2.66,1.31,3.89,2.06-2.66-.64-5.22-2.16-7.97-2.7-2.26-.33-5.33-.22-7.48.54l.21-.54Z"/>
    <path id="path132" class="cls-13" d="M621.47,1816.12c1.75.32,2.37,2.37,3.51,3.67,1.23,1.4,3.08,1.82,4.72,2.48,3.61,1.51,7.4,2.7,9.46,6.35-2.06-1.28-3.28-2.69-5.75-3.22-2.47-.55-5.25-.43-7.62-1.4-2.88-1.3-3.5-5.4-4.32-7.99,0,0,0,.12,0,.12Z"/>
    <path id="path133" class="cls-13" d="M773.81,1819.29c-1.12-.12-1.63,1.19-2.23,1.85-.83.96-1.45,1.71-2.06,2.9-.51,1.07-1.34,2.38-2.06,3.25-.8.96-2.35.96-2.77,1.61,1.23.09,2.17-.33,3.28-.98,1.23-.75,1.65-1.82,2.37-3.13.51-.96,1.32-1.94,1.83-3.01.31-.63.51-1.82,1.23-2.03l.4-.44Z"/>
    <path id="path134" class="cls-13" d="M752.85,1832.52c-2.88-.44-5.65,1.4-8,2.8-3.4,1.94-7.08,3.88-10.9,4.18,4.02,1.07,8.53-.96,11.7-3.43,1.85-1.52,5.25-3.22,7.59-3.13l-.4-.42Z"/>
    <path id="path135" class="cls-15" d="M701.28,1915.29c-7.21-1.85-7.62,11.07-8.24,16.77-.63,7.1-.63,15.81.42,22.8.71,5.16,5.23,19.04,9.45,8.71,4.42-10.65,5.14-25.69,1.65-36.67-1.14-3.76-2.26-7.19-3.71-10.74l.42-.86Z"/>
    <path id="path136" class="cls-2" d="M696.62,1918.7c-.82.54-1.03,3.45-1.23,4.52-.61,2.69-1.23,5.27-1.74,7.95-.83,4.61-1.24,9.12-.51,13.85.61,3.98,1.74,7.85,3.08,11.39.61,1.83,1.23,3.55,1.64,5.48.2.97.3,2.48.92,3.22.51-1.28-.2-3.76-.3-5.15-.2-2.36-.51-4.62-.61-6.98-.1-2.69-.51-5.27-.51-7.95,0-2.9,0-5.69-.1-8.6-.21-4.72.3-9.24-.11-13.85-.2-1.73-.1-3.76-.71-5.37-.2-.12-.2.11-.31.21l.51,1.28Z"/>
    <path id="path137" class="cls-21" d="M700.63,1925.78c1.89,4.41,1.89,8.83,2.21,13.57.1,2.25.2,4.73.1,7.1-.1,2.25-1.05,4.41-1.47,6.67-.31.97-.52,2.27-1.05,3.12-.32-2.69.95-5.37,1.36-8.07.42-3.01.21-5.8.11-8.82-.21-4.31-.21-9.04-1.16-13.14l-.1-.43Z"/>
    <path id="path138" class="cls-30" d="M630.81,1849.59c10.29,5.05,17.99,15.35,27.97,21.03,4.94,2.67,10.39,3.43,15.01,6.75,4.21,3,8.22,7.19,12.13,10.63,9.15,8.15,10.49,17.8,13.16,28.95"/>
    <path id="path139" class="cls-30" d="M677.35,1880.5c-3.48-2.15-8.93.43-12.63.64-4.82.21-10.58-1.61-14.47-4.94-4.42-3.77-8.73-7.21-11.19-12.91-.83-1.94-1.34-4.19-2.17-6.03-.82-1.72-2.04-3.33-2.56-5.06-.63-.54-1.03-.96-1.65-1.51"/>
    <path id="path140" class="cls-30" d="M698.75,1915.46c-1.65-5.16.4-14.09,2.46-18.8,2.88-6.56,5.87-11.73,11.21-16.35,5.54-4.86,10.59-8.62,14.07-14.95,1.45-2.59,2.06-5.19,4.02-7.22,2.26-2.48,5.14-3.76,7.19-6.35,3.6-4.3,5.03-6.87,10.68-7.73,4.74-.65,7.51-3.67,11.7-5.4"/>
    <path id="path141" class="cls-30" d="M742.58,1845.76c-.2,1.31-5.43,2.15-6.88,3.55-2.46,2.27-3.8,4.72-7.17,5.58-3.91.98-6.17,1.28-9.45,3.76-4.02,3.01-7.51,3.64-12.33,3.43-5.34-.09-10.36-2.57-15.73-1.28-4,.86-6.88,1.49-10.68-.96-4.91-3.34-8.31-5.05-13.65-6.03-.83-.09-1.85-.63-2.48-.54"/>
    <path id="path142" class="cls-30" d="M728.01,1855c-5.12,1.31-9.14,8.39-13.76,11.19-6.25,3.85-13.76-.12-20.64.86-6.05.84-9.56.63-13.56-4.3-1.94-2.48-3.8-4.95-6.28-6.89"/>
    <path id="path143" class="cls-30" d="M725.87,1866.73c-5.23-.63-9.14,5.68-13.13,8.36-6.79,4.48-14.9,3.64-22,.42-4.2-1.82-7.8-4.81-12.02-6.75-3.51-1.71-4.82-5.02-7.62-7.5"/>
    <path id="path144" class="cls-30" d="M677.62,1868.08c3.42,2.04,4.56,5.71,6.41,8.93,1.87,3.33,4.24,6.13,6.21,9.14,4.03,6.24,3.93,12.25,5.79,18.92"/>
    <path id="path145" class="cls-30" d="M682.89,1871.38c9.02,7.83,22.87-3.01,32.61.86"/>
    <path id="path146" class="cls-30" d="M697.68,1916.02c-.94-8.9,7.48-16.75,12.84-22,5.85-5.91,13.02-11.82,20.44-15.49,5.12-2.45,9.94-4.72,13.76-9.02,2.26-2.36,5.63-7.1,5.03-10.86"/>
    <path id="path147" class="cls-30" d="M758.48,1863.23c-3.69,2.71-7.59,4.74-10.68,8.41-3.19,3.88-5.56,7.76-9.87,10.56-6.99,4.53-15.84,3.99-23.05,7.76"/>
    <path id="path148" class="cls-30" d="M671.72,1855c-6.88-2.57-10.36-9.33-14.68-13.73-3.19-3.33-6.89-4.29-11.2-5.26-3.9-.97-6.57-2.58-9.86-4.84"/>
    <path id="path149" class="cls-30" d="M696.03,1860.17c5.65,1.38,9.76-5.16,13.54-8.6,2.06-1.92,4.62-3.97,7.28-4.6,2.99-.75,6.28-.54,9.02-2.06"/>
    <path id="path150" class="cls-30" d="M658.51,1843.19c-2.47-.75-5.05-1.61-8.03-1.4-3.82.33-7.21,2.16-11.03,2.27-3.4.21-8.66-.21-11.14-2.59"/>
    <g class="cls-34">
      <path id="path151" class="cls-22" d="M614.41,1819.93s.42-12.03,6.99-16.44c6.59-4.3,75.94-51.3,154.26-.86,5.45,3.55,11.19,7.43,7.91,24.2-3.28,16.86-22.61,67.83-61.13,83.31-9.45,3.88-15.73,2.27-12.64,12.8,3.4,11.17,2.77,22.47-.11,29.34-2.77,6.98,1.65,21.72-5.74,21.72-7.51.09-5.76-9.9-2.88-17.64,2.88-7.85,4.11-23.76-.42-32.35-4.51-8.71.42-17.75,11.93-20.32,11.62-2.59,22.31-7.76,23.54-12.47,1.23-4.84,7.39-4.41,10.68-10,3.28-5.61,11.62-9.46,13.27-17.22,1.63-7.85,7.8-10,9.05-15.16,1.23-5.16,6.17-10.74,4.91-16.44-1.23-5.58,4.11-15.91,1.65-18.92s-12.33-6.89-14.81-10.42c-2.46-3.46-13.65-2.59-17.36-6.89s-12.33-8.18-18.09-5.58c-5.85,2.57-12.84.42-17.36-1.31-4.53-1.71-11.93,1.73-16.95,0-4.94-1.71-12.33.44-18.09-.42-5.85-.86-15.73,5.16-22.72,6.89-6.99,1.71-12.44,11.7-18.61,11.7s-9.02,4.74-11.08,7.31c-2.08,2.59,1.63,14.62,6.17,19.46,4.51,4.74-.83,10.32,3.28,14.2s3.69,16.02,8.22,19.46c4.62,3.43,11.19,15.91,17.78,19.34,6.57,3.46,19.01,11.73,26.83,14.74,7.8,3.01,17.36,6.45,14.07,21.61-3.4,15.07-2.17,25.48,0,32.37,2.06,6.87,2.77,17.61-4.62,17.61-8.02,0-1.34-14.72-4.31-21.49-5.14-11.82-.22-23.76.2-29.78.4-6.12-4.94-10-12.33-13.87,0,0-52.43-18.17-61.47-88.48Z"/>
    </g>
    <g class="cls-31">
      <path id="path152" class="cls-25" d="M614.41,1819.83s.42-12.03,7.1-16.33c6.57-4.41,75.94-51.41,154.23-.86,5.34,3.43,11.19,7.31,7.91,24.08-3.4,16.86-22.61,67.83-61.13,83.31-9.45,3.88-15.73,2.27-12.64,12.8,3.28,11.17,2.68,22.47-.09,29.34-2.79,6.98,1.63,21.72-5.76,21.72-7.51.09-5.85-9.9-2.88-17.64,2.88-7.73,4.11-23.76-.4-32.35-4.62-8.71.4-17.75,11.91-20.32,11.53-2.59,22.31-7.76,23.54-12.47,1.23-4.84,7.39-4.41,10.68-10,3.31-5.61,11.62-9.46,13.27-17.22,1.63-7.85,7.8-10,9.05-15.16,1.23-5.16,6.17-10.74,4.91-16.33-1.23-5.7,4.11-16.02,1.65-19.04s-12.33-6.89-14.79-10.32c-2.48-3.55-13.67-2.69-17.38-6.98-3.69-4.3-12.33-8.18-18.18-5.58-5.76,2.57-12.75.42-17.27-1.31-4.51-1.71-12.02,1.73-16.95,0-4.94-1.71-12.33.44-18.09-.42-5.85-.86-15.73,5.16-22.69,6.89-7.1,1.71-12.44,11.7-18.61,11.7s-9.05,4.74-11.1,7.31c-2.06,2.59,1.65,14.62,6.17,19.46,4.53,4.74-.83,10.32,3.28,14.2s3.71,16.02,8.22,19.46c4.53,3.43,11.21,15.91,17.78,19.34,6.59,3.55,19.01,11.73,26.83,14.74,7.82,3.01,17.36,6.45,13.98,21.61-3.31,15.07-2.06,25.48,0,32.37,2.14,6.87,2.86,17.73-4.53,17.61-8.02,0-1.43-14.72-4.31-21.49-5.14-11.82-.2-23.76.2-29.78.42-6.12-4.94-10-12.33-13.87,0,0-52.4-18.06-61.56-88.48"/>
    </g>
    <path id="path153" class="cls-3" d="M623.34,1804.7c.5.44,4.66,1.85,3.55,2.93-1.32,1.18-3.25-2.17-4.17-2.93h.61Z"/>
    <path id="path154" class="cls-3" d="M616.41,1825.34c.61,1.4,3.48.43,4.61,1.94-1.94.85-4.51.96-5.54-1.28l.93-.65Z"/>
    <path id="path155" class="cls-3" d="M620.88,1806.38c-.6,0,1.51.98,2.11,1.95-1.41.11-2.61-.64-3.13-1.95h1.02Z"/>
    <path id="path156" class="cls-3" d="M625.64,1802.08c-.41.85,1.85,2.77,2.57,3.19.73.42,2.37.74,3.18.53-.3-.42-1.03-.53-1.54-.84-.82-.54-1.43-1.27-2.26-1.71-.83-.53-1.44-.53-2.26-.84l.3-.33Z"/>
    <path id="path157" class="cls-3" d="M618.86,1808.01c-.31-.33,1.04.75,1.35.96.63.64,1.66,1.28,1.98,2.24q-.1.11-.2.21c-1.56-.53-2.93-1.6-3.55-3.2l.42-.21Z"/>
    <path id="path158" class="cls-3" d="M616.13,1824.07c.7.65,3.45,1.65,3.55,0-1.12-.78-2.54.33-3.66-.12l.11.12Z"/>
    <path id="path159" class="cls-3" d="M615.54,1820.89c-.41,0,.1,0,.2,0,.61.22,1.23.46,1.94.56.61.12,1.23.34,1.73.12-.1-1.37-3.16-.79-4.18-.79l.3.12Z"/>
    <path id="path160" class="cls-3" d="M628.73,1800.92c-.11,1.51,3.71,4.3,5.25,4.61-1.23-1.39-1.64-2.9-3.29-3.97-.51-.32-1.75-.75-1.95-1.07v.43Z"/>
    <path id="path161" class="cls-3" d="M633.2,1798.38q0-.11-.11-.22c.11,1.93,1.27,4.27,2.32,5.98.63-1.71-.74-4.37-1.79-5.65l-.42-.11Z"/>
    <path id="path162" class="cls-3" d="M636.12,1797.13c.11,1.94.63,3.98,1.34,5.7,1.43-1.82-1.13-4.19-1.34-5.58v-.12Z"/>
    <path id="path163" class="cls-3" d="M639.33,1795.26c-.52.88-.11,4.47.71,5.23,1.44-1.09-1.03-3.7-1.13-4.91l.41-.33Z"/>
    <path id="path164" class="cls-3" d="M617.6,1810.69c-.32.11.11.11.42.32.42.42.96.74,1.28,1.26.42.53.74,1.05.64,1.78-1.6-.11-1.92-2.51-2.67-3.46l.32.11Z"/>
    <path id="path165" class="cls-3" d="M616.4,1813.76c.7.53,2.84,1.58,2.64,2.52-1.02-.21-2.23-.95-2.75-1.89l.11-.63Z"/>
    <path id="path166" class="cls-3" d="M615.7,1818.17c-.1.11,4.34.72,2.49-.62-.94-.53-2.28.93-2.7.32l.21.3Z"/>
    <path id="path167" class="cls-3" d="M641.6,1794.22c0-.22-.1-.33-.2-.55.4.65,1.5,5.51,2.09,3.68.59-1.62-1.59-2.06-1.99-3.13h.1Z"/>
    <path id="path168" class="cls-3" d="M622.45,1830.06c-.61-.89-1.95-.33-2.78-.12-.83.22-1.76.12-2.49.34,1.14.76,4.03.76,5.07-.12l.2-.11Z"/>
    <path id="path169" class="cls-3" d="M624.36,1832.76c-1.24-.22-2.59-.22-3.83.33-.83.33-1.87,1.09-2.9,1.09.84.33,7.15.33,6.63-1.19l.1-.22Z"/>
    <path id="path170" class="cls-3" d="M627.28,1836.14c-1.43-.89-3.59.65-4.91,1.09-.61.33-1.34.67-2.06.77-.61.22-1.43,0-2.06.33.63-.11,1.24,0,1.85.11,1.23,0,2.36-.11,3.48-.54,1.13-.44,2.06-1.42,3.28-1.54l.4-.21Z"/>
    <path id="path171" class="cls-3" d="M645.66,1796.1c-.42-1.3-1.59-2.6-1.37-4.02,1.16.55,1.57,2.5,1.47,3.81l-.1.21Z"/>
    <path id="path172" class="cls-3" d="M627.81,1838.43c-.61.54-1.45.43-2.18.75-.94.42-1.66.74-2.7.96-1.14.32-2.39.32-3.43.63,1.88.63,3.12.84,4.99,0,.94-.32,3.02-1.48,3.32-2.22,0,0,0-.12,0-.12Z"/>
    <path id="path173" class="cls-3" d="M627.28,1841.79c-1.95.55-4.42,1.21-6.08,2.52,2.17,0,3.92-1.53,5.77-2.41l.3-.12Z"/>
    <path id="path174" class="cls-3" d="M646.42,1791.64c-.11,1.16.2,3.07,1.13,3.81.82-1.16-.93-2.65-1.13-3.92v.12Z"/>
    <path id="path175" class="cls-3" d="M648.63,1791.21v-.32c.11,1.06.11,3.1,1.05,3.62.2-1.17-.42-2.87-1.05-3.74,0,0,0,.43,0,.43Z"/>
    <path id="path176" class="cls-3" d="M650.8,1790.15c.1,1.07.1,3.33,1.16,4.08.42-1.28-.85-3.11-1.27-4.3l.11.22Z"/>
    <path id="path177" class="cls-3" d="M653.18,1789.63c0,.63,0,2.84.82,3.57,1.34-1.16-1.13-2.84-1.34-4.11l.52.54Z"/>
    <path id="path178" class="cls-3" d="M656.53,1787.69c0,1.4-.3,3.33.5,4.39.98-1.06-.3-2.99-.6-4.17l.1-.22Z"/>
    <path id="path179" class="cls-3" d="M659.06,1787.12c-.42.54.32,3.22,1.06,3.75.21-1.39-.74-2.88-1.06-4.17-.1-.22,0,0-.1,0l.1.42Z"/>
    <path id="path180" class="cls-3" d="M661.68,1786.36c0-.44.11,1.2.11,1.31.1.67.31,1.87.95,2.08.64-.98-.52-2.51-.95-3.49l-.11.11Z"/>
    <path id="path181" class="cls-3" d="M665.16,1785.59c-.11-.11-.31-.21-.41-.33,0,.98-.84,4.02.83,4.02.3-1.09-1.35-3.36-.94-3.8l.52.11Z"/>
    <path id="path182" class="cls-3" d="M667.71,1785.58c-.11-.43-.21-.64-.32-.97.11.54.11,4.3.85,3.45.85-.86-.64-2.69-.85-3.45l.32.97Z"/>
    <path id="path183" class="cls-3" d="M670.81,1784.23c-.2.55-.83,4.58.31,4.25.92-.11-.41-3.7-.41-4.13l.1-.12Z"/>
    <path id="path184" class="cls-3" d="M673.4,1784.25c0-.11-.74,4.1.63,3.36,1.14-.63-.42-2.84-.52-3.36h-.1Z"/>
    <path id="path185" class="cls-3" d="M676.81,1782.64c0,1.9-.21,3.91.63,5.7,1.04-.95-.1-3.69-.31-4.95l-.31-.75Z"/>
    <path id="path186" class="cls-3" d="M680.57,1782.8q0-.21,0,0c-.3,1.4-.4,3.43.59,4.61.88-.96-.3-3.85-.49-5.05l-.1.43Z"/>
    <path id="path187" class="cls-3" d="M684.69,1781.36c-.1,0-.21,0-.31-.12-.42,1.1-1.17,5.56.1,5.89.32-1.64.42-3.92,0-5.44l.21-.33Z"/>
    <path id="path188" class="cls-3" d="M686.91,1781.56c-.31,1.31-.85,4.81.1,6.23.84-.54.11-2.94,0-3.82-.1-.88,0-1.75,0-2.63l-.1.22Z"/>
    <path id="path189" class="cls-3" d="M690.98,1781.2v-.33c-1.25.76-.94,6.01-.21,7.19.93-2.36.1-5.05.21-7.19v.33Z"/>
    <path id="path190" class="cls-3" d="M694.25,1780.87c-.3,1.18-1.22,6.97.5,7.29.6-1.93.3-5.47-.2-7.17l-.3-.12Z"/>
    <path id="path191" class="cls-3" d="M698.31,1780.72c-.31,1.81-1.16,5.01.21,6.51,1.04-1.27.63-5.55-.21-6.73v.22Z"/>
    <path id="path192" class="cls-3" d="M701.02,1780.92c.1,0,.1-.33.1-.11.1,1.37-1.03,4.53.3,5.48.82-1.26.31-3.9-.1-5.27l-.3-.11Z"/>
    <path id="path193" class="cls-3" d="M703.98,1781.28c-.4.11-.2,4.66.49,5.2,0-1.83.09-3.68-.49-5.42v.22Z"/>
    <path id="path194" class="cls-3" d="M707.31,1781.01c0,1.26-1.14,6.49.83,6.49.09-2.34-.94-4.48-1.03-6.73l.2.23Z"/>
    <path id="path195" class="cls-3" d="M710.26,1782.36c-.42,1.92-.42,4.3.76,5.89.51-1.82-.42-5.14-.76-7.19v1.31Z"/>
    <path id="path196" class="cls-3" d="M715.19,1782.36c-1.52,1.1-1.01,5.93.2,7.1.69-1.92-.2-4.72-.2-6.87v-.23Z"/>
    <path id="path197" class="cls-3" d="M720.35,1783.81c0-.21.09-.42-.11-.63-.71,1.49-1.65,5.42.11,6.38.09-2.13.29-4.79-.22-6.82l.22,1.07Z"/>
    <path id="path198" class="cls-3" d="M724.46,1783.77c-1.12,1.17-1.23,4.51-.2,5.79,1.12-.63.71-5.05.4-6.35l-.2.56Z"/>
    <path id="path199" class="cls-3" d="M727.99,1783.95c-.63.35-1.36,4.48-.51,5.14,1.03-1.31.31-3.27.71-4.79l-.2-.35Z"/>
    <path id="path200" class="cls-3" d="M731.61,1784.86c-.96.44-.85,2.36-.54,3.11.65-1.05.74-2.34.74-3.64l-.2.54Z"/>
    <path id="path201" class="cls-3" d="M735.03,1786.36c0-.33-.11-.44-.31-.44-.4.75-.4,1.71-.29,2.43.69-.21.49-1.35.6-2.2v.21Z"/>
    <path id="path202" class="cls-3" d="M738,1786.76c-.4.33-.83,1.68-.71,2.52,1.23.19,1.14-1.57,1.23-2.52h-.51Z"/>
    <path id="path203" class="cls-3" d="M741.57,1789.05c-.11-.23.42-.35,0-.44-1.05.33-1.27,2.55-.54,3.2.74-.89.74-2.43,1.05-3.55l-.51.79Z"/>
    <path id="path204" class="cls-3" d="M745.71,1789.96c-1.34-.09-2.28,2.52-1.25,3.34.74-.93,1.45-2.38,1.74-3.55l-.49.21Z"/>
    <path id="path205" class="cls-3" d="M749.9,1790.73c-1.03-.33-2.19,3.76-1.97,4.81,1.14-.63,2.17-3.41,2.37-4.81h-.4Z"/>
    <path id="path206" class="cls-3" d="M754.04,1792.81c.11-.21.22-.33.31-.44-1.47,1.4-2.88,2.9-2.55,5.14,1.7-.75,1.92-3.74,2.97-4.91l-.74.21Z"/>
    <path id="path207" class="cls-3" d="M757.99,1794.49c-.78-.44-1.88,3.08-1.68,4.13,1.09-.51,1.47-2.76,1.76-4.04l-.09-.09Z"/>
    <path id="path208" class="cls-3" d="M760.74,1796.92v-.54c-.92.63-1.76,2.31-1.34,3.36.71-.63,1.45-2.41,1.54-3.36l-.2.54Z"/>
    <path id="path209" class="cls-3" d="M765.05,1797.13c-.94.12-3.13,3.95-2.9,5.42,1.25-.42,2.5-3.18,2.9-4.34v-1.07Z"/>
    <path id="path210" class="cls-3" d="M767.89,1801.17c0-.21-.09-.33-.29-.42-1.34.63-2.28,2.24-2.06,3.74,1.43.21,2.06-3.11,2.55-4.18l-.2.86Z"/>
    <path id="path211" class="cls-3" d="M770.97,1802.08c-.94-1.4-2.61,2.76-2.39,3.92,1.54-.51,2.08-3.62,3.62-4.58l-1.23.65Z"/>
    <path id="path212" class="cls-3" d="M774.25,1803.15c-1.43-.23-3.57,3.76-3.35,5.37,1.32-1.07,1.63-3.43,2.95-4.41l.4-.96Z"/>
    <path id="path213" class="cls-3" d="M776.9,1806.24c.2-.33.51-.44.2-.98-1.03,1.73-3.4,2.8-3.17,5.14,1.32-.09,3.48-3.41,3.89-4.7l-.92.54Z"/>
    <path id="path214" class="cls-3" d="M776.84,1812.01c-.11.54,0,0,.4-.21.63-.44,1.25-.89,1.88-1.33.83-.42,1.54-1.1,2.46-.98-1.54,1.75-4.33,1.42-5.99,3.06l1.25-.54Z"/>
    <path id="path215" class="cls-3" d="M778.16,1815.35c-.2,0-.29.09-.4-.12.83-.54,3.91-2.31,4-.77-1.32.33-2.77.44-4.11.77l.51.12Z"/>
    <path id="path216" class="cls-3" d="M777.35,1817.99c-.11-.09-.2-.21-.31-.33,1.83-.42,4.18-1.85,5.61-.21-.92,1.07-4.29.98-5.72.98l.42-.44Z"/>
    <path id="path217" class="cls-3" d="M776.84,1821.14c1.74,0,3.37.93,5.09.3-.4-1.8-3.95,0-4.78,0l-.31-.3Z"/>
    <path id="path218" class="cls-3" d="M776.57,1823.94c.83.63,4.45.54,4.65,1.96-1.14,0-5.07-.09-5.18-.7l.54-1.26Z"/>
    <path id="path219" class="cls-3" d="M776.08,1827.82c-.22.33,4.56,1.45,5.67,1.24-1.03-1.47-3.82-.91-5.36-.91l-.31-.33Z"/>
    <path id="path220" class="cls-3" d="M776.32,1831.37c-.22-.12-.42-.23-.51-.44,1.03.77,3.48,2.83,4.6,1.52-.92-.75-4.71-1.07-4.82-1.96l.74.89Z"/>
    <path id="path221" class="cls-3" d="M775.77,1834.57c-.22,0-.31-.44-.42,0,1.14.72,2.48,1.14,3.91.93-1.23-.84-2.77-.3-4.02-.93h.54Z"/>
    <path id="path222" class="cls-3" d="M775.81,1837.3c-.31.12-.51.35-.8.23.69.77,1.72,1.54,2.81,1.45-.29-1.45-2.01-1-3.04-1.45l1.03-.23Z"/>
    <path id="path223" class="cls-3" d="M774.36,1841.06c-.22,0-.42-.12-.65-.12,1.05,1.03,2.1,2.24,3.66,2.03-.51-1.35-2.39-1-3.55-1.35l.54-.56Z"/>
    <path id="path224" class="cls-3" d="M772.49,1844.85c.2.23,1.56,1.52,2.39,1.61-.2-1.28-1.65-1.71-2.5-2.15l.11.54Z"/>
    <path id="path225" class="cls-3" d="M770.86,1848.49c-.31-.21-.22-.54-.54-.42.42,1.17,1.88,2.85,3.13,3.06.71-1.35-1.88-2.01-2.59-2.52v-.12Z"/>
    <path id="path226" class="cls-3" d="M769.67,1852.95c-.2-.09-.51-.21-.63-.33.51.98,1.56,2.06,2.7,1.96,0-1.31-2.19-1.64-3.13-1.96l1.05.33Z"/>
    <path id="path227" class="cls-3" d="M766.81,1856.12c-.11-.12-.31-.12-.42-.12.94.84,2.3,2.31,3.75,2.01-.31-1.26-2.59-1.89-3.44-2.22l.11.33Z"/>
    <path id="path228" class="cls-3" d="M763.98,1859.28s2.99,1.66,4.02,1.75c-.8-1.24-2.37-1.42-3.71-1.96l-.31.21Z"/>
    <path id="path229" class="cls-3" d="M762.95,1861.54c-.2,0-.31-.33-.31,0,.83,1.14,2.39,3.04,3.93,2.83.09-1.57-2.37-2.31-3.62-2.62v-.21Z"/>
    <path id="path230" class="cls-3" d="M761.43,1865.98c-.09-.23-.2-.35-.31-.47.42,1.24,2.55,2.9,3.66,2.36-.09-1.45-2.12-1.89-3.15-1.8l-.2-.09Z"/>
    <path id="path231" class="cls-3" d="M759.6,1868.88c.92.42,2.88,1.26,3.4,2.64-1.74.82-3.4-1.8-3.93-2.22l.54-.42Z"/>
    <path id="path232" class="cls-3" d="M756.83,1872.57c.4-.23,2.79,2.08,3.57,2.97-1.18.54-3.57-.21-3.57-1.87v-1.1Z"/>
    <path id="path233" class="cls-3" d="M753.7,1877.26c-.2-.21-.11-.44-.54-.33.96.98,2.32,2.5,3.66,2.59-.2-1.49-2.08-1.61-3.33-2.27h.2Z"/>
    <path id="path234" class="cls-3" d="M750.17,1880.07c-.09-.12-.2-.23-.31-.35.92,1.33,2.66,3.62,4.18,3.83,1.01-1.85-2.75-2.5-3.55-3.27l-.31-.21Z"/>
    <path id="path235" class="cls-3" d="M746.8,1884.39c-.11-.12-.22-.33-.34-.44,1.07,1.21,1.7,3.32,3.4,3.53-.09-1.42-1.79-3.2-3.06-3.64v.56Z"/>
    <path id="path236" class="cls-3" d="M743.43,1886.56c-.2-.12-.4-.12-.71-.12.42,1.61,1.72,5.89,3.55,5.79.29-2.36-2.03-3.64-3.33-5.14l.49-.54Z"/>
    <path id="path237" class="cls-3" d="M739,1889.71c-.09-.33.22-.65-.31-.65.31,2.08,1.97,5.12,3.93,5.98.71-1.94-1.54-5.09-3.51-5.33h-.11Z"/>
    <path id="path238" class="cls-3" d="M736.59,1894.11c-.09-.21-.09-.42-.29-.65-.11,1.82,1.21,3.71,2.5,4.77.6-1.47-1.01-3.69-2.3-4.23l.09.12Z"/>
    <path id="path239" class="cls-3" d="M734.18,1897.26c-.09-.21-.2-.3-.31-.51.85,1.05,1.16,2.71,2.41,3.43.09-1.35-1.36-3.55-2.41-3.43l.31.51Z"/>
    <path id="path240" class="cls-3" d="M731.28,1898.29v-.54c0,1.4,1.05,4.18,2.59,4.39-.09-1.59-1.74-2.34-2.59-3.53v-.33Z"/>
    <path id="path241" class="cls-3" d="M728.75,1900.69c-.51.44.63,3.41,1.63,3.41,0-1.21-1.12-2.97-2.14-3.64l.51.23Z"/>
    <path id="path242" class="cls-3" d="M725.22,1902.05c0-.21-.11-.21-.31-.33.31,1.31.94,3.29,1.99,4.16.63-1.64-1.25-3.39-2.32-4.39l.65.56Z"/>
    <path id="path243" class="cls-3" d="M721.63,1902.89c-.63.56.11,3.81,1.25,4.11,0-1.28-1.25-2.92-1.88-4.11h.63Z"/>
    <path id="path244" class="cls-3" d="M717.27,1904.83c-.22-.12.09-.44-.31-.33-.42,1.4.83,3.01,1.54,4.09.09-.96-.71-2.9-1.45-3.88l.22.12Z"/>
    <path id="path245" class="cls-3" d="M711.73,1905.76c.54,1.19,1.07,3.34,2.21,3.85-.2-1.59-1.79-3.85-2.95-4.39l.74.54Z"/>
    <path id="path246" class="cls-3" d="M708.38,1906.86c-.31-.23-.42-.23-.2,0,1.03,1.19,2.08,3.25,3.62,3.78-.71-1.4-2.37-2.71-3.62-3.69l.2-.09Z"/>
    <path id="path247" class="cls-3" d="M704.87,1908.59c.22,1.07,3.55,3.64,4.78,3.74-1.54-1.17-3.31-2.45-5.09-3.2l.31-.54Z"/>
    <path id="path248" class="cls-3" d="M701.79,1912.05c1.65,1.85,3.82,2.9,6.17,2.69-1.12-2.45-3.48-2.24-5.65-2.69h-.51Z"/>
    <path id="path249" class="cls-3" d="M700.99,1915.34c.74,1.05,5.47,2.31,6.79,1.59-1.03-1.47-4.51-1.8-6.05-1.26l-.74-.33Z"/>
    <path id="path250" class="cls-3" d="M700.72,1920.13c1.03.42,6.88,1.26,5.96-.75-.92-1.73-4.82-.33-5.96,0v.75Z"/>
    <path id="path251" class="cls-3" d="M702.95,1923.61h-.63c1.79-.21,4.6-2.22,6.25-.84-1.25.51-4.47,1.14-5.63.51v.33Z"/>
    <path id="path252" class="cls-3" d="M704.36,1926.81c-.2-.21-.29-.33-.51-.42,1.43.21,3.37-.98,5,0-1.01.3-3.35,0-4.49.51v-.09h0Z"/>
    <path id="path253" class="cls-3" d="M705.59,1931.18c-.22.65,4.07,1.42,3.75,0-.2-1-3.33-.56-3.98-.56l.22.56Z"/>
    <path id="path254" class="cls-3" d="M705.14,1935.5c1.43.54,3.08.84,4.6.21-.51-1.52-3.48-.98-4.82-.98l.22.77Z"/>
    <path id="path255" class="cls-3" d="M705.81,1940.1c1.45.65,3.6,1.75,4.91.21-1.43-.89-3.57.12-4.91-.54v.33Z"/>
    <path id="path256" class="cls-3" d="M706.15,1943.88c-.2,0-.29,0-.51-.09,1.63.51,3.77,1.14,5.18.3-1.12-.09-4.15,0-4.47-.84l-.2.63Z"/>
    <path id="path257" class="cls-3" d="M705.12,1946.99c-.2-.23-.2-.33-.09-.56,1.09.56,2.61,1.4,3.91,1.4-.49-1.4-3.1-.42-3.51-1.28l-.31.44Z"/>
    <path id="path258" class="cls-3" d="M705.57,1951.03c-.22-.09-.42-.09-.63-.33,1.14.12,2.41.77,3.55.33-.51-1.33-2.81-.65-3.98-1.1-.22,0,.11.12.2.21l.85.89Z"/>
    <path id="path259" class="cls-3" d="M703.85,1954.1c-.11,0-.31,0-.41.11.82.43,2.46,1.28,3.27.86-.5-1.19-3.17-1.73-3.48-1.07l.63.11Z"/>
    <path id="path260" class="cls-3" d="M702.66,1956.94c-.21-.11-.21-.21-.21-.21,1.15,0,3.44.11,4.17.97-.94.97-3.44.11-4.38-.76,0-.33.21,0,.42-.21v.21Z"/>
    <path id="path261" class="cls-3" d="M701.98,1960.01c-.1-.11-.2-.11-.41-.11,1.25-.12,3.53.32,4.87.96-1.65.42-3.93.32-5.18-.96l.73.11Z"/>
    <path id="path262" class="cls-3" d="M701.16,1962.69c-.71.12,1.84.33,2.24.43.92.32,2.35.85,2.85,1.92-1.62.74-4.38-.75-5.29-1.39l.2-.96Z"/>
    <path id="path263" class="cls-3" d="M700.45,1966.3c2.26-.44,6.34,2.08,3.79,4.7-1.02-1.41-2.04-1.96-3.57-2.94l-.21-1.75Z"/>
    <path id="path264" class="cls-3" d="M621.83,1846.46c.52-1.09,4.12-2.08,5.45-2.52-1.43.99-3.5,1.44-5.14,1.87l-.31.65Z"/>
    <path id="path265" class="cls-3" d="M622.77,1848.74c.93,1.09,3.71-.55,4.42-1.42-.92-1.32-3.81.88-4.74,1.42h.31Z"/>
    <path id="path266" class="cls-3" d="M624.62,1851.77c1.53.11,3.47-1.19,4.8-1.95-1.02-1.31-3.89,1.19-4.91,1.62l.11.33Z"/>
    <path id="path267" class="cls-3" d="M625.34,1855.05c1.43-.54,4.5-2.07,4.8-3.92-1.53.22-3.69,1.86-4.91,2.84l.11,1.09Z"/>
    <path id="path268" class="cls-3" d="M627.14,1858.17c.71.43,3.79-2.39,4.6-3.17-.92-.98-4.09,2.84-4.91,3.39l.31-.22Z"/>
    <path id="path269" class="cls-3" d="M627.81,1861.22c1.43-1.61,2.96-3.12,5.09-3.55-.5.86-.92,1.83-1.83,2.37s-1.93.54-2.75.97l-.51.21Z"/>
    <path id="path270" class="cls-3" d="M629.39,1864.01c.93-1.6,2.67-2.46,4.41-2.79-1.53.76-2.87,2.79-4.82,2.9,0-.11.11-.11.21-.32l.2.21Z"/>
    <path id="path271" class="cls-3" d="M634.61,1863.86c-.93-.12-4.02,2.24-3.4,3.31.51,1.06,3.09-2.45,3.29-2.99l.1-.32Z"/>
    <path id="path272" class="cls-3" d="M636.02,1866.58c0-.11.1-.11.1-.22-.5.54-3.48,2.36-3.07,3.33.41,1.06,2.46-2.25,2.77-2.79l.2-.32Z"/>
    <path id="path273" class="cls-3" d="M638.51,1869.85c.1-.11,0-.22-.1-.22-.41.22-3.72,2.25-2.58,2.69.83.21,2.58-1.93,2.88-2.57l-.2.11Z"/>
    <path id="path274" class="cls-3" d="M640.59,1871.61c-.93-.12-3.42,1.87-3.84,2.97,1.25.65,2.92-1.97,3.54-2.86l.3-.11Z"/>
    <path id="path275" class="cls-3" d="M641.55,1873.7c.1-.21.2-.32.2-.43-1.01,0-3.84,2.57-3.43,3.74,1.31-.63,2.62-2.35,3.43-3.52l-.2.21Z"/>
    <path id="path276" class="cls-3" d="M643,1875.16c-1.35.21-3.44,2.24-3.75,3.62,1.15-1.27,2.61-2.35,3.75-3.74v.12Z"/>
    <path id="path277" class="cls-3" d="M644.79,1877.19c-1.34,0-3.82,3.11-3.93,4.48,1.66-.21,2.39-2.77,3.52-3.74l.41-.75Z"/>
    <path id="path278" class="cls-3" d="M646.37,1879.58c.1-.11.2-.21.3-.33-1.54,1.19-2.99,2.27-3.31,4.3.94-1.28,2.18-2.36,3-3.76,0,0,0-.21,0-.21Z"/>
    <path id="path279" class="cls-3" d="M648.01,1882.16c-.39-.85-2.59,2.14-2.59,2.87.6.11.4-.32.7-.74.69-.85,1.2-1.71,1.89-2.56v.42Z"/>
    <path id="path280" class="cls-3" d="M649.76,1883.89c.1-.11.3-.11.2-.43-1.21.43-3.02,2.9-3.12,4.18,1.41.21,1.81-3,3.02-3.42l-.1-.33Z"/>
    <path id="path281" class="cls-3" d="M652.18,1886.68c.1-.11.2-.21.2-.33-.92.33-2.77,2.67-2.36,3.74,1.23-.32,1.95-2.66,2.36-3.74l-.2.33Z"/>
    <path id="path282" class="cls-3" d="M655.23,1887.99c0-.11.1-.21.1-.33-1.22.33-3.57,2.92-2.86,4.2,1.23-.21,1.74-2.91,2.76-3.88Z"/>
    <path id="path283" class="cls-3" d="M657.37,1890.45c.1-.21.2-.42.1-.64-1.42,0-2.94,2.67-2.62,4.06,1.42.42,2.02-3.09,2.22-4.06l.3.64Z"/>
    <path id="path284" class="cls-3" d="M660.81,1892.11c.1-.21.21-.32.1-.53-1.03.84-2.89,3.04-2.37,4.39,1.13-.3,2.58-3.13,2.78-4.29l-.51.42Z"/>
    <path id="path285" class="cls-3" d="M663.53,1893.16c-1.09-.64-3.19,4.04-2.49,4.46.69.32,2.29-4.04,2.78-4.57l-.29.11Z"/>
    <path id="path286" class="cls-3" d="M666.31,1895.38c-.1-.43-.51.21-.73.54-.73.85-1.76,2.45-1.34,3.52,1.34-.63,1.87-2.87,2.17-4.26l-.1.21Z"/>
    <path id="path287" class="cls-3" d="M669.24,1897.27c.31-.21.42-.32.31-.64-1.7,0-2.97,3.85-2.43,5.23,1.06-.42,2.43-3.74,2.86-4.8l-.74.21Z"/>
    <path id="path288" class="cls-3" d="M672.18,1899.31c.2-.22.39-.65.39-.98-1.3.33-2.59,3.81-2.29,5.12,1.5-.21,2.1-3.92,2.2-5.23-.1,0-.2.12-.3.33v.77Z"/>
    <path id="path289" class="cls-3" d="M675.8,1900.2c-.93.43-2.69,3.88-2.17,4.84,1.65-.21,2.78-3.43,2.78-4.95l-.61.12Z"/>
    <path id="path290" class="cls-3" d="M679.48,1902.27c.11-.22,0-.22-.1-.22-1.13,1.07-2.07,2.99-1.95,4.58,1.34,0,2.47-3.61,2.57-4.58l-.51.22Z"/>
    <path id="path291" class="cls-3" d="M682.27,1903.76s.11-.11.21-.22c-1.05.97-2.85,3.75-2,5.14.95-.42,1.9-3.74,2.1-4.81l-.31-.11Z"/>
    <path id="path292" class="cls-3" d="M686.05,1905.19c-.1-.11.1-.21-.1-.33-1.43.54-3.28,3.27-3.07,4.85,1.13-.11,2.97-4.2,3.27-4.95l-.1.43Z"/>
    <path id="path293" class="cls-3" d="M689.78,1906.99c-.3-.55-1.43.85-1.73,1.18-.93.97-2.97,2.8-2.56,4.41,1.02.21,1.94-2.04,2.45-2.8.61-.85,1.84-2.15,2.14-2.91l-.3.12Z"/>
    <path id="path294" class="cls-3" d="M692.32,1910.21c0-.11.21-.22-.1-.22-1.23.88-5.53,3.26-4.5,5.42,1.23-.11,2.46-1.95,3.27-2.71.83-.75,1.54-1.51,2.04-2.49h-.71Z"/>
    <path id="path295" class="cls-3" d="M695.35,1913.45c-1.87.75-4.77,2.78-6.96,4.38.63.11,1.15-.32,1.78-.64,1.45-.75,3.1-1.38,4.46-2.24.52-.32.94-.75,1.45-1.06l-.73-.43Z"/>
    <path id="path296" class="cls-3" d="M690.24,1920.64c-.2,0-.3,0-.51-.12,2.47.96,4.74-.74,6.17-2.34-1.23-.54-4.72.96-5.75,1.92l.1.54Z"/>
    <path id="path297" class="cls-3" d="M689.16,1924.75c-.3-.21-.41-.32-.3-.54,2.13.43,4.78.22,6.5-1.19,0-.98-5.38.22-5.8.86l-.4.86Z"/>
    <path id="path298" class="cls-3" d="M688.75,1927.63c1.54-.64,4.82-2.03,6.25-.96-.5.75-4.4,1.17-4.91.42l-1.34.54Z"/>
    <path id="path299" class="cls-3" d="M688.53,1931.49c-.41-.32,1.03-.84,1.44-.95,1.13-.42,3.48-.75,4.4.21-.92.95-4.71,1.47-5.74.63l-.1.11Z"/>
    <path id="path300" class="cls-3" d="M693.21,1934.34c-1.73-.43-4.49,0-5.72,1.51,1.84.21,3.79-1.28,5.62-1.51h.1Z"/>
    <path id="path301" class="cls-3" d="M692.26,1938.05c-.51-1.81-3.57-.33-4.5.32.93,1.05,3.79-.42,5-.42l-.5.11Z"/>
    <path id="path302" class="cls-3" d="M692.72,1941.45c-1.13-1.1-4.09-.12-5.32.33.71,1.85,4.4.33,5.72.11l-.4-.43Z"/>
    <path id="path303" class="cls-3" d="M692.49,1946.56c.3-1.06-3.93.11-4.55.53.61,1.68,4.55,0,5.45-.21l-.9-.32Z"/>
    <path id="path304" class="cls-3" d="M693.8,1950.07s.1.12.1-.11c-1.03-1.2-4.71.65-3.99,1.64.71,1.09,3.37-.43,4.19-.76l-.3-.77Z"/>
    <path id="path305" class="cls-3" d="M694.49,1954.71v-.43c-1.23-.33-3.67-.65-4.49.54,1.43.86,3.57-.11,5.09-.21l-.6.11Z"/>
    <path id="path306" class="cls-3" d="M695.63,1957.48c-.61-1.71-3.79.74-4.2,1.47,1.34-.53,2.77-.74,4-1.26l.2-.21Z"/>
    <path id="path307" class="cls-3" d="M695.64,1961.27c-.84-1.2-4.04-.33-5.19.11.94,1.31,4.57.22,5.81,0l-.61-.11Z"/>
    <path id="path308" class="cls-3" d="M695.87,1964.23c-.1-1.09-5.68,1.09-6.41,1.53.52,1.4,6.31-.44,6.61-1.09l-.2-.44Z"/>
    <path id="path309" class="cls-3" d="M695.88,1966.89c-1.34.22-5.08,1.49-5.08,3.21,1.25.53,4.47-1.93,5.18-2.88l-.1-.33Z"/>
    <path id="path310" class="cls-3" d="M695.98,1969.26q0-.22-.2-.22c-.96,1.07-2.54,1.72-3.28,2.88,1.16.11,2.65-1.49,3.07-2.45l.41-.21Z"/>
    <path id="path311" class="cls-29" d="M642.65,1829.55c0-1.82,1.85-5.45,2.57-7.5,1.44-3.64,2.77-5.78,5.54-8.25,2.67-2.36,5.55-4.51,8.62-6.11,2.67-1.4,5.14-3.54,8.11-4.4"/>
    <path id="path312" class="cls-29" d="M690.44,1800.68c-.5,3.01-3.17,5.28-5.12,7.31-1.84,2.04-3.59,4.09-5.12,6.46-2.46,3.76-4.4,7.63-5.23,11.92,1.54-2.57,3.8-3.11,6.25-4.3,2.04-1.07,3.47-3,5.22-4.09"/>
    <path id="path313" class="cls-29" d="M632.1,1818c1.23-1.07,2.97-1.72,4.41-2.37.5,1.51-.41,3.55-.93,5.05"/>
    <path id="path314" class="cls-28" d="M729.8,1837.4c-.92-2.36-1.94-5.05-2.14-7.52-.31-3.34,1.63-6.24,1.52-9.48,1.43,2.8,5.72,5.49,6.21,8.74"/>
    <path id="path315" class="cls-28" d="M750.57,1831.04c-2.66-3.64-3.4-7.1-5.05-11.31-1.74-4.3-5.14-5.7-7.73-9.16"/>
    <path id="path316" class="cls-28" d="M759.76,1826.56c-1.54-2.03-1.94-4.51-2.68-7.1-.6-2.06-1.23-4.09-.2-6.14,2.06-4.32,9.23.12,10.23,3.55"/>
    <path id="path317" class="cls-28" d="M708.13,1838.33c-1.01-1.92-1.52-4.18-2.14-6.33-.71-2.59-1.52-5.19-1.83-7.87-.31-3.43-1.94-5.79-3.26-8.81-.51-1.4-1.03-2.92-1.23-4.32s-.83-3.97-.31-5.28"/>
    <path id="path318" class="cls-29" d="M677.13,1839.45c.73-1.49,1.54-3.53,2.88-4.71,1.13-.96,2.87-1.72,4.2-2.57,1.44-.96,2.87-1.93,3.9-3.42.61-.97,1.44-3.85,2.87-3.97"/>
    <path id="path319" class="cls-29" d="M697.3,1838.8c-.5-1.71.29-3.64.1-5.47-.2-1.07-.5-2.15-.7-3.22"/>
    <path id="path320" class="cls-29" d="M663.11,1836.84c.11-.11,1.73-3.39,3.04-4.54,1.32-1.27,2.94-2.44,4.56-3.4"/>
  </g>
</svg>